<svg width="64" height="64" viewBox="0 0 64 64" fill="none" xmlns="http://www.w3.org/2000/svg">
<g clip-path="url(#clip0_913_4013)">
<rect width="64" height="64" rx="32" fill="url(#paint0_linear_913_4013)"/>
<path d="M25.1736 40.2739V40.3659C25.1483 42.3111 23.5128 43.7737 20.267 44.7539C24.178 47.5983 28.0893 49.8739 32.0003 49.8739C35.9114 49.8739 39.8226 47.5983 43.7336 44.7539C40.5099 43.7726 38.8743 42.3077 38.827 40.3593C38.827 40.012 38.8295 39.5187 38.8319 38.5927C38.8319 38.4456 38.8322 38.295 38.833 38.1408C39.0661 38.1737 39.0463 38.1528 38.833 38.0935C38.8394 35.6574 38.8498 32.3817 38.8643 29.0526C41.9218 25.0895 40.7986 20.4433 39.8405 20.5592C38.6661 20.7023 28.4895 11.0451 26.5375 10.55C24.5855 10.0548 19.627 11.6533 18.7736 16.1067C17.9203 20.56 17.5636 31.7852 20.8003 36.2667C21.7213 37.542 23.172 38.0408 25.1523 37.7632C25.1551 38.6953 25.1606 39.2184 25.1736 40.2739Z" fill="url(#paint1_linear_913_4013)"/>
<path d="M25.1738 37.76C29.8672 37.2266 32.8538 35.2 32.8538 35.2C32.8538 35.2 29.624 39.4916 25.1738 40.32V37.76Z" fill="#FFBE94"/>
<path d="M40.4267 29.1201C41.8966 25.5851 47.7867 18.3858 42.7094 13.9058C41.0027 5.58577 31.5734 6.50673 25.28 8.42673C21.0503 9.71718 17.856 12.2667 17.1734 10.3467C12.9067 13.9058 15.0434 17.3867 17.856 18.3858C20.4088 19.2924 24.7254 20.1991 32.0653 19.3458C33.3765 19.1932 33.1019 23.2088 33.8025 23.6429C34.8536 24.2942 35.6694 20.1991 38.5511 21.4288C41.4328 22.6584 39.7227 28.36 36.6294 28.36C35.5627 28.36 35.0294 31.2926 37.9094 32.6793C40 33.7067 39.4716 31.417 40.4267 29.1201Z" fill="url(#paint2_linear_913_4013)"/>
<path d="M54.4004 51.2657C56.4313 55.3952 57.6004 64.919 57.6004 64.919H6.40039C6.40039 64.919 7.56988 55.3941 9.60039 51.2657C11.6309 47.1373 23.4884 43.3081 23.4884 43.3081C25.7738 48 38.3168 48 40.5062 43.3066C40.5062 43.3066 52.3695 47.1362 54.4004 51.2657Z" fill="url(#paint3_linear_913_4013)"/>
<mask id="mask0_913_4013" style="mask-type:alpha" maskUnits="userSpaceOnUse" x="6" y="43" width="52" height="22">
<path d="M54.4004 51.2657C56.4313 55.3952 57.6004 64.919 57.6004 64.919H6.40039C6.40039 64.919 7.56988 55.3941 9.60039 51.2657C11.6309 47.1373 23.4884 43.3081 23.4884 43.3081C25.7738 48 38.3168 48 40.5062 43.3066C40.5062 43.3066 52.3695 47.1362 54.4004 51.2657Z" fill="url(#paint4_linear_913_4013)"/>
</mask>
<g mask="url(#mask0_913_4013)">
<path d="M4.26758 60.5867V58.88H59.7343V60.5867H4.26758ZM4.26758 56.32V54.6133H59.7343V56.32H4.26758ZM4.26758 52.0533V50.3467H59.7343V52.0533H4.26758Z" fill="url(#paint5_linear_913_4013)"/>
</g>
</g>
<defs>
<linearGradient id="paint0_linear_913_4013" x1="32" y1="0" x2="32" y2="64" gradientUnits="userSpaceOnUse">
<stop stop-color="#1D0024"/>
<stop offset="1" stop-color="#100014"/>
</linearGradient>
<linearGradient id="paint1_linear_913_4013" x1="30.9596" y1="10.4634" x2="30.9596" y2="49.8739" gradientUnits="userSpaceOnUse">
<stop stop-color="#FFD4B3"/>
<stop offset="1" stop-color="#FFDCC2"/>
</linearGradient>
<linearGradient id="paint2_linear_913_4013" x1="29.7473" y1="32.932" x2="29.7473" y2="7.1228" gradientUnits="userSpaceOnUse">
<stop stop-color="#E6864E"/>
<stop offset="1" stop-color="#E67240"/>
</linearGradient>
<linearGradient id="paint3_linear_913_4013" x1="32.0004" y1="64.919" x2="32.0004" y2="43.3066" gradientUnits="userSpaceOnUse">
<stop stop-color="#E6864E"/>
<stop offset="1" stop-color="#E67240"/>
</linearGradient>
<linearGradient id="paint4_linear_913_4013" x1="32.0004" y1="64.919" x2="32.0004" y2="43.3066" gradientUnits="userSpaceOnUse">
<stop stop-color="#E6864E"/>
<stop offset="1" stop-color="#E67240"/>
</linearGradient>
<linearGradient id="paint5_linear_913_4013" x1="32.0009" y1="50.3467" x2="32.0009" y2="60.5867" gradientUnits="userSpaceOnUse">
<stop stop-color="#F7B186"/>
<stop offset="1" stop-color="#FFC299"/>
</linearGradient>
<clipPath id="clip0_913_4013">
<rect width="64" height="64" rx="32" fill="white"/>
</clipPath>
</defs>
</svg>
