<svg width="64" height="64" viewBox="0 0 64 64" fill="none" xmlns="http://www.w3.org/2000/svg">
<g clip-path="url(#clip0_924_4520)">
<rect width="64" height="64" rx="32" fill="url(#paint0_linear_924_4520)"/>
<path d="M47.4669 34.0267C49.1974 28.2792 50.2641 18.4533 42.9869 11.7333C37.4253 6.59754 22.4002 6.07999 17.1735 17.28C16.301 19.1496 17.4935 22.08 19.8402 21.9733C20.7624 21.9307 21.3335 24.8533 21.8669 26.6667C21.1202 34.0267 14.468 34.1626 11.0935 39.7867C6.93354 46.72 12.0535 56.96 24.3202 56.96C36.5869 56.96 43.6188 46.8064 47.4669 34.0267Z" fill="url(#paint1_linear_924_4520)"/>
<path d="M51.6273 50.8639C53.1917 53.877 53.974 64.8532 53.974 64.8532H10.0273C10.0273 64.8532 10.8096 53.877 12.374 50.8639C14.7207 46.3442 32.0007 40.5332 32.0007 40.5332C32.0007 40.5332 49.2807 46.3442 51.6273 50.8639Z" fill="url(#paint2_linear_924_4520)"/>
<path d="M37.1209 43.0932C37.1209 43.0932 34.3975 44.5866 31.8921 44.5866C29.3867 44.5866 26.8809 43.0932 26.8809 43.0932V38.3999C26.3419 38.4851 25.7959 38.5175 25.2506 38.4968C20.1331 38.4963 18.2035 31.0423 19.2009 21.9732C19.8409 21.9732 21.3342 21.9732 23.4675 18.9866C22.9342 23.1466 29.1209 22.5066 31.4675 19.1999C30.2942 23.1466 33.3875 25.8132 36.0542 24.2132C41.2832 21.0757 42.4587 30.6401 37.1209 30.7199V43.0932Z" fill="url(#paint3_linear_924_4520)"/>
<g style="mix-blend-mode:multiply" opacity="0.782">
<path d="M26.8809 38.4C29.5272 37.9128 32.0594 36.9361 34.3475 35.52C34.3475 35.52 31.6809 40.1067 26.8809 40.1067V38.4Z" fill="#FFD7B8"/>
</g>
<path d="M32.0082 44.3679C33.55 44.2981 37.1212 43.5429 37.1212 41.9113V40.5332C37.5124 40.5332 38.6326 41.4574 39.2088 42.2399C41.4864 45.3332 38.9601 48.1065 36.8997 48.1065C34.3 48.1065 32.5772 45.9344 32.0012 44.8895C31.4252 45.9348 29.7023 48.1065 27.1026 48.1065C25.0422 48.1065 22.5159 45.3332 24.7935 42.2399C25.3697 41.4574 26.4899 40.5332 26.8812 40.5332V41.9113C26.8812 43.5429 30.5488 44.2981 32.0082 44.3679Z" fill="white"/>
<path d="M31.1465 58.8801C31.1465 58.7113 31.1965 58.5463 31.2903 58.406C31.3841 58.2657 31.5173 58.1563 31.6733 58.0917C31.8292 58.0271 32.0008 58.0102 32.1663 58.0431C32.3318 58.0761 32.4839 58.1573 32.6032 58.2767C32.7226 58.396 32.8038 58.5481 32.8368 58.7136C32.8697 58.8791 32.8528 59.0507 32.7882 59.2066C32.7236 59.3626 32.6142 59.4958 32.4739 59.5896C32.3336 59.6834 32.1686 59.7334 31.9998 59.7334C31.7735 59.7334 31.5565 59.6435 31.3964 59.4835C31.2364 59.3234 31.1465 59.1064 31.1465 58.8801ZM31.1465 54.6134C31.1465 54.4446 31.1965 54.2797 31.2903 54.1393C31.3841 53.999 31.5173 53.8896 31.6733 53.825C31.8292 53.7604 32.0008 53.7435 32.1663 53.7765C32.3318 53.8094 32.4839 53.8907 32.6032 54.01C32.7226 54.1294 32.8038 54.2814 32.8368 54.4469C32.8697 54.6125 32.8528 54.784 32.7882 54.94C32.7236 55.0959 32.6142 55.2292 32.4739 55.3229C32.3336 55.4167 32.1686 55.4667 31.9998 55.4667C31.7735 55.4667 31.5565 55.3768 31.3964 55.2168C31.2364 55.0568 31.1465 54.8397 31.1465 54.6134ZM31.1465 50.3467C31.1465 50.178 31.1965 50.013 31.2903 49.8727C31.3841 49.7323 31.5173 49.623 31.6733 49.5584C31.8292 49.4938 32.0008 49.4769 32.1663 49.5098C32.3318 49.5427 32.4839 49.624 32.6032 49.7433C32.7226 49.8627 32.8038 50.0147 32.8368 50.1803C32.8697 50.3458 32.8528 50.5174 32.7882 50.6733C32.7236 50.8292 32.6142 50.9625 32.4739 51.0563C32.3336 51.15 32.1686 51.2001 31.9998 51.2001C31.7735 51.2001 31.5565 51.1102 31.3964 50.9501C31.2364 50.7901 31.1465 50.5731 31.1465 50.3467V50.3467Z" fill="url(#paint4_linear_924_4520)"/>
</g>
<defs>
<linearGradient id="paint0_linear_924_4520" x1="32" y1="64" x2="32" y2="0" gradientUnits="userSpaceOnUse">
<stop stop-color="#FFC9B3"/>
<stop offset="1" stop-color="#FFD2C2"/>
</linearGradient>
<linearGradient id="paint1_linear_924_4520" x1="29.2017" y1="8.23218" x2="29.2017" y2="56.96" gradientUnits="userSpaceOnUse">
<stop stop-color="#130027"/>
<stop offset="1" stop-color="#130017"/>
</linearGradient>
<linearGradient id="paint2_linear_924_4520" x1="32.0007" y1="64.8532" x2="32.0007" y2="40.5332" gradientUnits="userSpaceOnUse">
<stop stop-color="#E6864E"/>
<stop offset="1" stop-color="#E67240"/>
</linearGradient>
<linearGradient id="paint3_linear_924_4520" x1="29.7708" y1="18.9866" x2="29.7708" y2="44.5866" gradientUnits="userSpaceOnUse">
<stop stop-color="#FFE0CC"/>
<stop offset="1" stop-color="#FFEADB"/>
</linearGradient>
<linearGradient id="paint4_linear_924_4520" x1="31.9998" y1="49.4934" x2="31.9998" y2="59.7334" gradientUnits="userSpaceOnUse">
<stop stop-color="#130027"/>
<stop offset="1" stop-color="#130017"/>
</linearGradient>
<clipPath id="clip0_924_4520">
<rect width="64" height="64" rx="32" fill="white"/>
</clipPath>
</defs>
</svg>
