<svg width="36" height="36" viewBox="0 0 36 36" fill="none" xmlns="http://www.w3.org/2000/svg">
<path d="M13.5002 24.2547L8.29522 19.0497C8.01475 18.7693 7.63436 18.6117 7.23772 18.6117C6.84108 18.6117 6.46068 18.7693 6.18022 19.0497C5.89975 19.3302 5.74219 19.7106 5.74219 20.1072C5.74219 20.3036 5.78087 20.4981 5.85603 20.6796C5.93119 20.861 6.04135 21.0259 6.18022 21.1647L12.4502 27.4348C13.0352 28.0198 13.9802 28.0198 14.5652 27.4348L30.4352 11.5647C30.7157 11.2843 30.8732 10.9039 30.8732 10.5072C30.8732 10.1106 30.7157 9.73022 30.4352 9.44975C30.1548 9.16928 29.7744 9.01172 29.3777 9.01172C28.9811 9.01172 28.6007 9.16928 28.3202 9.44975L13.5002 24.2547Z" fill="#1F2223"/>
</svg>
