<svg width="36" height="36" viewBox="0 0 36 36" fill="none" xmlns="http://www.w3.org/2000/svg">
<g clip-path="url(#clip0_507_8431)">
<path d="M25.9993 21.15C25.5352 20.3264 24.907 19.6069 24.1536 19.0358C23.4002 18.4647 22.5377 18.0543 21.6193 17.83C20.7577 17.5715 19.8832 17.3579 18.9993 17.19V8.12C20.7565 8.30848 22.4328 8.95694 23.8593 10C23.9578 10.0873 24.0726 10.1544 24.197 10.1974C24.3214 10.2404 24.4531 10.2584 24.5844 10.2506C24.7158 10.2427 24.8444 10.209 24.9628 10.1514C25.0811 10.0938 25.187 10.0135 25.2743 9.915C25.3617 9.81651 25.4288 9.70178 25.4717 9.57737C25.5147 9.45295 25.5328 9.32129 25.5249 9.1899C25.517 9.0585 25.4833 8.92995 25.4257 8.81157C25.3682 8.6932 25.2878 8.58733 25.1893 8.5C23.3996 7.1216 21.2505 6.28834 18.9993 6.1V3C18.9993 2.73478 18.894 2.48043 18.7065 2.29289C18.5189 2.10536 18.2646 2 17.9993 2C17.7341 2 17.4798 2.10536 17.2922 2.29289C17.1047 2.48043 16.9993 2.73478 16.9993 3V6C12.5993 6.1 10.1693 8.29 9.42935 10.18C8.93568 11.397 8.88878 12.7496 9.29695 13.9979C9.70513 15.2462 10.542 16.3097 11.6593 17C13.2857 17.9914 15.1074 18.6191 16.9993 18.84V28C14.3887 27.8686 11.8877 26.9088 9.85935 25.26C9.76882 25.1523 9.65659 25.0649 9.52997 25.0035C9.40336 24.9421 9.26522 24.9081 9.12458 24.9038C8.98394 24.8995 8.84396 24.9249 8.71381 24.9783C8.58365 25.0318 8.46624 25.1121 8.36925 25.214C8.27227 25.316 8.19788 25.4373 8.15097 25.5699C8.10406 25.7026 8.08567 25.8436 8.097 25.9839C8.10833 26.1241 8.14914 26.2604 8.21675 26.3838C8.28436 26.5072 8.37725 26.615 8.48935 26.7C10.8813 28.7138 13.8751 29.8747 16.9993 30V33C16.9993 33.2652 17.1047 33.5196 17.2922 33.7071C17.4798 33.8946 17.7341 34 17.9993 34C18.2646 34 18.5189 33.8946 18.7065 33.7071C18.894 33.5196 18.9993 33.2652 18.9993 33V30C21.8193 29.81 25.0693 28.91 26.2993 25.24C26.5219 24.5722 26.6099 23.867 26.5585 23.165C26.507 22.463 26.3169 21.7782 25.9993 21.15ZM12.7893 15.32C12.0591 14.8853 11.5079 14.2045 11.2348 13.3998C10.9617 12.5951 10.9846 11.7193 11.2993 10.93C11.4093 10.63 12.5293 8.12 16.9993 8V16.8C15.5076 16.608 14.0731 16.1037 12.7893 15.32ZM24.3993 24.56C23.6793 26.7 22.0793 27.73 18.9993 27.96V19.23C19.6393 19.37 20.2993 19.53 20.9993 19.74C21.6606 19.8902 22.2844 20.1733 22.8328 20.5721C23.3812 20.971 23.8427 21.4772 24.1893 22.06C24.5816 22.8344 24.6569 23.731 24.3993 24.56Z" fill="#1F2223"/>
</g>
<defs>
<clipPath id="clip0_507_8431">
<rect width="36" height="36" fill="white"/>
</clipPath>
</defs>
</svg>
