<svg width="24" height="24" viewBox="0 0 24 24" fill="none" xmlns="http://www.w3.org/2000/svg">
<path d="M12 7.5H10.5V12H4.5C4.10218 12 3.72064 11.842 3.43934 11.5607C3.15804 11.2794 3 10.8978 3 10.5V9C3 8.60218 3.15804 8.22064 3.43934 7.93934C3.72064 7.65804 4.10218 7.5 4.5 7.5H6.402C6.0299 6.85567 5.91052 6.09604 6.06704 5.36863C6.22356 4.64122 6.64481 3.99793 7.249 3.56366C7.85319 3.1294 8.5972 2.93516 9.33656 3.01866C10.0759 3.10216 10.7579 3.45743 11.25 4.0155C11.7421 3.45743 12.4241 3.10216 13.1634 3.01866C13.9028 2.93516 14.6468 3.1294 15.251 3.56366C15.8552 3.99793 16.2764 4.64122 16.433 5.36863C16.5895 6.09604 16.4701 6.85567 16.098 7.5H18C18.3978 7.5 18.7794 7.65804 19.0607 7.93934C19.342 8.22064 19.5 8.60218 19.5 9V10.5C19.5 10.8978 19.342 11.2794 19.0607 11.5607C18.7794 11.842 18.3978 12 18 12H12V7.5ZM7.5 6C7.5 6.39782 7.65804 6.77936 7.93934 7.06066C8.22064 7.34196 8.60218 7.5 9 7.5H10.5V6C10.5 5.60218 10.342 5.22064 10.0607 4.93934C9.77936 4.65804 9.39782 4.5 9 4.5C8.60218 4.5 8.22064 4.65804 7.93934 4.93934C7.65804 5.22064 7.5 5.60218 7.5 6ZM12 7.5H13.5C13.7967 7.5 14.0867 7.41203 14.3334 7.2472C14.58 7.08238 14.7723 6.84811 14.8858 6.57402C14.9994 6.29994 15.0291 5.99834 14.9712 5.70736C14.9133 5.41639 14.7704 5.14912 14.5607 4.93934C14.3509 4.72956 14.0836 4.5867 13.7926 4.52882C13.5017 4.47094 13.2001 4.50065 12.926 4.61418C12.6519 4.72771 12.4176 4.91997 12.2528 5.16664C12.088 5.41332 12 5.70333 12 6V7.5ZM18 13.5H12V21H15C15.7956 21 16.5587 20.6839 17.1213 20.1213C17.6839 19.5587 18 18.7956 18 18V13.5ZM10.5 21V13.5H4.5V18C4.5 18.7956 4.81607 19.5587 5.37868 20.1213C5.94129 20.6839 6.70435 21 7.5 21H10.5Z" fill="black"/>
</svg>
