<svg width="20" height="20" viewBox="0 0 20 20" fill="none" xmlns="http://www.w3.org/2000/svg">
<g clip-path="url(#clip0_2897_5494)">
<path d="M2 5.75C2 5.02065 2.28973 4.32118 2.80546 3.80546C3.32118 3.28973 4.02065 3 4.75 3H15.25C15.9793 3 16.6788 3.28973 17.1945 3.80546C17.7103 4.32118 18 5.02065 18 5.75V12.25C18 12.9793 17.7103 13.6788 17.1945 14.1945C16.6788 14.7103 15.9793 15 15.25 15H4.75C4.02065 15 3.32118 14.7103 2.80546 14.1945C2.28973 13.6788 2 12.9793 2 12.25V5.75ZM3 9V12.25C3 13.216 3.784 14 4.75 14H7V9.707L5.354 11.354C5.26011 11.4479 5.13278 11.5006 5 11.5006C4.86722 11.5006 4.73989 11.4479 4.646 11.354C4.55211 11.2601 4.49937 11.1328 4.49937 11C4.49937 10.8672 4.55211 10.7399 4.646 10.646L6.293 9H3ZM4.268 8C4.0479 7.61872 3.95976 7.17548 4.01724 6.739C4.07472 6.30252 4.27461 5.89721 4.58591 5.58591C4.89721 5.27461 5.30252 5.07472 5.739 5.01724C6.17548 4.95976 6.61872 5.0479 7 5.268V4H4.75C4.28587 4 3.84075 4.18437 3.51256 4.51256C3.18437 4.84075 3 5.28587 3 5.75V8H4.268ZM6 8H7V7C7 6.80222 6.94135 6.60888 6.83147 6.44443C6.72159 6.27998 6.56541 6.15181 6.38268 6.07612C6.19996 6.00043 5.99889 5.98063 5.80491 6.01921C5.61093 6.0578 5.43275 6.15304 5.29289 6.29289C5.15304 6.43275 5.0578 6.61093 5.01921 6.80491C4.98063 6.99889 5.00043 7.19996 5.07612 7.38268C5.15181 7.56541 5.27998 7.72159 5.44443 7.83147C5.60888 7.94135 5.80222 8 6 8ZM8 7V8H9C9.19778 8 9.39112 7.94135 9.55557 7.83147C9.72002 7.72159 9.84819 7.56541 9.92388 7.38268C9.99957 7.19996 10.0194 6.99889 9.98079 6.80491C9.9422 6.61093 9.84696 6.43275 9.70711 6.29289C9.56725 6.15304 9.38907 6.0578 9.19509 6.01921C9.00111 5.98063 8.80004 6.00043 8.61732 6.07612C8.43459 6.15181 8.27841 6.27998 8.16853 6.44443C8.05865 6.60888 8 6.80222 8 7ZM10.732 8H17V5.75C17 5.28587 16.8156 4.84075 16.4874 4.51256C16.1592 4.18437 15.7141 4 15.25 4H8V5.268C8.38128 5.0479 8.82452 4.95976 9.261 5.01724C9.69748 5.07472 10.1028 5.27461 10.4141 5.58591C10.7254 5.89721 10.9253 6.30252 10.9828 6.739C11.0402 7.17548 10.9521 7.61872 10.732 8ZM8.707 9L10.354 10.646C10.4479 10.7399 10.5006 10.8672 10.5006 11C10.5006 11.1328 10.4479 11.2601 10.354 11.354C10.2601 11.4479 10.1328 11.5006 10 11.5006C9.86722 11.5006 9.73989 11.4479 9.646 11.354L8 9.707V14H15.25C15.7141 14 16.1592 13.8156 16.4874 13.4874C16.8156 13.1592 17 12.7141 17 12.25V9H8.707Z" fill="black"/>
</g>
<defs>
<clipPath id="clip0_2897_5494">
<rect width="20" height="20" fill="white"/>
</clipPath>
</defs>
</svg>
