<svg width="36" height="36" viewBox="0 0 36 36" fill="none" xmlns="http://www.w3.org/2000/svg">
<path d="M28.5 12H7.5C5.84315 12 4.5 13.3431 4.5 15V30C4.5 31.6569 5.84315 33 7.5 33H28.5C30.1569 33 31.5 31.6569 31.5 30V15C31.5 13.3431 30.1569 12 28.5 12Z" stroke="#1F2223" stroke-width="2" stroke-linecap="round" stroke-linejoin="round"/>
<path d="M18 7.5C18 6.60999 17.7361 5.73996 17.2416 4.99994C16.7471 4.25992 16.0443 3.68314 15.2221 3.34254C14.3998 3.00195 13.495 2.91283 12.6221 3.08647C11.7492 3.2601 10.9474 3.68869 10.318 4.31802C9.68868 4.94736 9.2601 5.74918 9.08647 6.6221C8.91283 7.49501 9.00195 8.39981 9.34254 9.22208C9.68314 10.0443 10.2599 10.7471 10.9999 11.2416C11.74 11.7361 12.61 12 13.5 12M22.5 12C23.39 12 24.26 11.7361 25.0001 11.2416C25.7401 10.7471 26.3169 10.0443 26.6575 9.22208C26.9981 8.39981 27.0872 7.49501 26.9135 6.6221C26.7399 5.74918 26.3113 4.94736 25.682 4.31802C25.0526 3.68869 24.2508 3.2601 23.3779 3.08647C22.505 2.91283 21.6002 3.00195 20.7779 3.34254C19.9557 3.68314 19.2529 4.25992 18.7584 4.99994C18.2639 5.73996 18 6.60999 18 7.5M18 7.5V33M31.5 22.5H4.5" stroke="#1F2223" stroke-width="2" stroke-linecap="round" stroke-linejoin="round"/>
</svg>
