<svg width="24" height="24" viewBox="0 0 24 24" fill="none" xmlns="http://www.w3.org/2000/svg">
<path d="M5.25 4C4.38805 4 3.5614 4.34241 2.9519 4.9519C2.34241 5.5614 2 6.38805 2 7.25V15.75C2 16.612 2.34241 17.4386 2.9519 18.0481C3.5614 18.6576 4.38805 19 5.25 19H18.75C19.1768 19 19.5994 18.9159 19.9937 18.7526C20.388 18.5893 20.7463 18.3499 21.0481 18.0481C21.3499 17.7463 21.5893 17.388 21.7526 16.9937C21.9159 16.5994 22 16.1768 22 15.75V7.25C22 6.8232 21.9159 6.40059 21.7526 6.00628C21.5893 5.61197 21.3499 5.25369 21.0481 4.9519C20.7463 4.65011 20.388 4.41072 19.9937 4.24739C19.5994 4.08406 19.1768 4 18.75 4H5.25ZM3.5 7.25C3.5 6.284 4.284 5.5 5.25 5.5H8V6.708C7.53937 6.50666 7.02875 6.44887 6.53478 6.54216C6.04081 6.63546 5.58643 6.8755 5.23097 7.23097C4.8755 7.58643 4.63546 8.04081 4.54216 8.53478C4.44887 9.02875 4.50666 9.53937 4.708 10H3.5V7.25ZM9.5 9C9.5 8.80222 9.55865 8.60888 9.66853 8.44443C9.77841 8.27998 9.93459 8.15181 10.1173 8.07612C10.3 8.00043 10.5011 7.98063 10.6951 8.01921C10.8891 8.0578 11.0673 8.15304 11.2071 8.29289C11.347 8.43275 11.4422 8.61093 11.4808 8.80491C11.5194 8.99889 11.4996 9.19996 11.4239 9.38268C11.3482 9.56541 11.22 9.72159 11.0556 9.83147C10.8911 9.94135 10.6978 10 10.5 10H9.5V9ZM8 10H7C6.80222 10 6.60888 9.94135 6.44443 9.83147C6.27998 9.72159 6.15181 9.56541 6.07612 9.38268C6.00043 9.19996 5.98063 8.99889 6.01921 8.80491C6.0578 8.61093 6.15304 8.43275 6.29289 8.29289C6.43275 8.15304 6.61093 8.0578 6.80491 8.01921C6.99889 7.98063 7.19996 8.00043 7.38268 8.07612C7.56541 8.15181 7.72159 8.27998 7.83147 8.44443C7.94135 8.60888 8 8.80222 8 9V10ZM8 12.56V17.5H5.25C4.78587 17.5 4.34075 17.3156 4.01256 16.9874C3.68437 16.6592 3.5 16.2141 3.5 15.75V11.5H6.94L5.22 13.22C5.14631 13.2887 5.08721 13.3715 5.04622 13.4635C5.00523 13.5555 4.98319 13.6548 4.98141 13.7555C4.97963 13.8562 4.99816 13.9562 5.03588 14.0496C5.0736 14.143 5.12974 14.2278 5.20096 14.299C5.27218 14.3703 5.35701 14.4264 5.4504 14.4641C5.54379 14.5018 5.64382 14.5204 5.74452 14.5186C5.84523 14.5168 5.94454 14.4948 6.03654 14.4538C6.12854 14.4128 6.21134 14.3537 6.28 14.28L8 12.56ZM9.5 17.5V12.56L11.22 14.28C11.2887 14.3537 11.3715 14.4128 11.4635 14.4538C11.5555 14.4948 11.6548 14.5168 11.7555 14.5186C11.8562 14.5204 11.9562 14.5018 12.0496 14.4641C12.143 14.4264 12.2278 14.3703 12.299 14.299C12.3703 14.2278 12.4264 14.143 12.4641 14.0496C12.5018 13.9562 12.5204 13.8562 12.5186 13.7555C12.5168 13.6548 12.4948 13.5555 12.4538 13.4635C12.4128 13.3715 12.3537 13.2887 12.28 13.22L10.56 11.5H20.5V15.75C20.5 15.9798 20.4547 16.2074 20.3668 16.4197C20.2788 16.632 20.1499 16.8249 19.9874 16.9874C19.8249 17.1499 19.632 17.2788 19.4197 17.3668C19.2074 17.4547 18.9798 17.5 18.75 17.5H9.5ZM9.5 6.708V5.5H18.75C19.716 5.5 20.5 6.284 20.5 7.25V10H12.792C12.9933 9.53937 13.0511 9.02875 12.9578 8.53478C12.8645 8.04081 12.6245 7.58643 12.269 7.23097C11.9136 6.8755 11.4592 6.63546 10.9652 6.54216C10.4712 6.44887 9.96063 6.50666 9.5 6.708Z" fill="black"/>
</svg>
