<svg width="30" height="30" viewBox="0 0 30 30" fill="none" xmlns="http://www.w3.org/2000/svg">
<path d="M1.875 9.375C1.875 8.38044 2.27009 7.42661 2.97335 6.72335C3.67661 6.02009 4.63044 5.625 5.625 5.625H24.375C25.3696 5.625 26.3234 6.02009 27.0266 6.72335C27.7299 7.42661 28.125 8.38044 28.125 9.375V20.625C28.125 21.6196 27.7299 22.5734 27.0266 23.2766C26.3234 23.9799 25.3696 24.375 24.375 24.375H5.625C4.63044 24.375 3.67661 23.9799 2.97335 23.2766C2.27009 22.5734 1.875 21.6196 1.875 20.625V9.375ZM24.375 22.5C24.8723 22.5 25.3492 22.3025 25.7008 21.9508C26.0525 21.5992 26.25 21.1223 26.25 20.625V15H12.5756L14.7262 17.1488C14.9023 17.3248 15.0012 17.5635 15.0012 17.8125C15.0012 18.0615 14.9023 18.3002 14.7262 18.4762C14.5502 18.6523 14.3115 18.7512 14.0625 18.7512C13.8135 18.7512 13.5748 18.6523 13.3988 18.4762L11.25 16.3256V22.5H24.375ZM14.8406 13.125H26.25V9.375C26.25 8.87772 26.0525 8.40081 25.7008 8.04918C25.3492 7.69754 24.8723 7.5 24.375 7.5H11.25V9.53438C11.7508 9.35682 12.2917 9.32478 12.81 9.44196C13.3283 9.55914 13.8028 9.82074 14.1785 10.1965C14.5543 10.5722 14.8159 11.0467 14.933 11.565C15.0502 12.0833 15.0182 12.6242 14.8406 13.125ZM12.1875 13.125C12.3729 13.125 12.5542 13.07 12.7083 12.967C12.8625 12.864 12.9827 12.7176 13.0536 12.5463C13.1246 12.375 13.1432 12.1865 13.107 12.0046C13.0708 11.8227 12.9815 11.6557 12.8504 11.5246C12.7193 11.3935 12.5523 11.3042 12.3704 11.268C12.1885 11.2318 12 11.2504 11.8287 11.3214C11.6574 11.3923 11.511 11.5125 11.408 11.6667C11.305 11.8208 11.25 12.0021 11.25 12.1875V13.125H12.1875ZM9.375 9.53438V7.5H5.625C5.12772 7.5 4.65081 7.69754 4.29917 8.04918C3.94754 8.40081 3.75 8.87772 3.75 9.375V13.125H5.78438C5.60682 12.6242 5.57478 12.0833 5.69196 11.565C5.80913 11.0467 6.07074 10.5722 6.44648 10.1965C6.82222 9.82074 7.29671 9.55914 7.815 9.44196C8.33329 9.32478 8.87417 9.35682 9.375 9.53438ZM8.4375 13.125H9.375V12.1875C9.375 12.0021 9.32002 11.8208 9.217 11.6667C9.11399 11.5125 8.96757 11.3923 8.79627 11.3214C8.62496 11.2504 8.43646 11.2318 8.2546 11.268C8.07275 11.3042 7.9057 11.3935 7.77459 11.5246C7.64348 11.6557 7.55419 11.8227 7.51801 12.0046C7.48184 12.1865 7.50041 12.375 7.57136 12.5463C7.64232 12.7176 7.76248 12.864 7.91665 12.967C8.07082 13.07 8.25208 13.125 8.4375 13.125ZM8.04938 15H3.75V20.625C3.75 21.1223 3.94754 21.5992 4.29917 21.9508C4.65081 22.3025 5.12772 22.5 5.625 22.5H9.375V16.3256L7.22625 18.4762C7.13909 18.5634 7.03561 18.6326 6.92172 18.6797C6.80783 18.7269 6.68577 18.7512 6.5625 18.7512C6.43923 18.7512 6.31717 18.7269 6.20328 18.6797C6.08939 18.6326 5.98591 18.5634 5.89875 18.4762C5.81158 18.3891 5.74244 18.2856 5.69527 18.1717C5.6481 18.0578 5.62382 17.9358 5.62382 17.8125C5.62382 17.6892 5.6481 17.5672 5.69527 17.4533C5.74244 17.3394 5.81158 17.2359 5.89875 17.1488L8.04938 15Z" fill="black"/>
</svg>
