<svg width="20" height="20" viewBox="0 0 20 20" fill="none" xmlns="http://www.w3.org/2000/svg">
<path d="M16.875 5.78125H13.7734L13.8672 5.69531C14.0975 5.48074 14.2822 5.22199 14.4103 4.93449C14.5384 4.647 14.6072 4.33664 14.6128 4.02195C14.6183 3.70725 14.5604 3.39466 14.4426 3.10282C14.3247 2.81098 14.1492 2.54588 13.9267 2.32332C13.7041 2.10076 13.439 1.92531 13.1472 1.80743C12.8553 1.68955 12.5428 1.63166 12.2281 1.63721C11.9134 1.64277 11.603 1.71165 11.3155 1.83975C11.028 1.96785 10.7693 2.15254 10.5547 2.38281C10.3096 2.64662 10.1208 2.95765 10 3.29687C9.87917 2.95765 9.69043 2.64662 9.44531 2.38281C9.00102 1.96881 8.41337 1.74343 7.80618 1.75414C7.19899 1.76485 6.61966 2.01083 6.19024 2.44024C5.76083 2.86966 5.51485 3.44899 5.50414 4.05618C5.49343 4.66337 5.71881 5.25102 6.13281 5.69531L6.22656 5.78125H3.125C2.83492 5.78125 2.55672 5.89648 2.3516 6.1016C2.14648 6.30672 2.03125 6.58492 2.03125 6.875V9.375C2.03125 9.66508 2.14648 9.94328 2.3516 10.1484C2.55672 10.3535 2.83492 10.4687 3.125 10.4687H3.28125V15.625C3.28125 15.9151 3.39648 16.1933 3.6016 16.3984C3.80672 16.6035 4.08492 16.7187 4.375 16.7187H15.625C15.9151 16.7187 16.1933 16.6035 16.3984 16.3984C16.6035 16.1933 16.7188 15.9151 16.7188 15.625V10.4687H16.875C17.1651 10.4687 17.4433 10.3535 17.6484 10.1484C17.8535 9.94328 17.9688 9.66508 17.9688 9.375V6.875C17.9688 6.58492 17.8535 6.30672 17.6484 6.1016C17.4433 5.89648 17.1651 5.78125 16.875 5.78125V5.78125ZM11.2188 3.04687C11.3456 2.90203 11.5008 2.78477 11.6748 2.70236C11.8487 2.61994 12.0378 2.57413 12.2302 2.56775C12.4226 2.56138 12.6143 2.59458 12.7933 2.66529C12.9724 2.73601 13.135 2.84274 13.2711 2.97886C13.4073 3.11499 13.514 3.27762 13.5847 3.45668C13.6554 3.63573 13.6886 3.8274 13.6822 4.01981C13.6759 4.21221 13.6301 4.40127 13.5476 4.57525C13.4652 4.74923 13.348 4.90443 13.2031 5.03125C12.7422 5.49219 11.4453 5.71094 10.4844 5.76563C10.5391 4.80469 10.7578 3.50781 11.2188 3.04687V3.04687ZM6.79688 3.04687C7.06042 2.78448 7.41717 2.63717 7.78906 2.63717C8.16096 2.63717 8.51771 2.78448 8.78125 3.04687C9.24219 3.50781 9.46094 4.80469 9.51563 5.76563C8.55469 5.71094 7.25781 5.49219 6.79688 5.03125C6.53448 4.76771 6.38717 4.41096 6.38717 4.03906C6.38717 3.66717 6.53448 3.31042 6.79688 3.04687ZM2.96875 9.375V6.875C2.96875 6.83356 2.98521 6.79382 3.01451 6.76451C3.04382 6.73521 3.08356 6.71875 3.125 6.71875H9.53125V9.53125H3.125C3.08356 9.53125 3.04382 9.51479 3.01451 9.48549C2.98521 9.45618 2.96875 9.41644 2.96875 9.375ZM4.21875 15.625V10.4687H9.53125V15.7812H4.375C4.33356 15.7812 4.29382 15.7648 4.26451 15.7355C4.23521 15.7062 4.21875 15.6664 4.21875 15.625ZM15.7812 15.625C15.7812 15.6664 15.7648 15.7062 15.7355 15.7355C15.7062 15.7648 15.6664 15.7812 15.625 15.7812H10.4688V10.4687H15.7812V15.625ZM17.0312 9.375C17.0312 9.41644 17.0148 9.45618 16.9855 9.48549C16.9562 9.51479 16.9164 9.53125 16.875 9.53125H10.4688V6.71875H16.875C16.9164 6.71875 16.9562 6.73521 16.9855 6.76451C17.0148 6.79382 17.0312 6.83356 17.0312 6.875V9.375Z" fill="#1F2223"/>
</svg>
