<svg width="24" height="24" viewBox="0 0 24 24" fill="none" xmlns="http://www.w3.org/2000/svg">
<path d="M10.5 4C10.5 4.79565 10.1839 5.55871 9.62132 6.12132C9.05871 6.68393 8.29565 7 7.5 7C6.70435 7 5.94129 6.68393 5.37868 6.12132C4.81607 5.55871 4.5 4.79565 4.5 4C4.5 3.20435 4.81607 2.44129 5.37868 1.87868C5.94129 1.31607 6.70435 1 7.5 1C8.29565 1 9.05871 1.31607 9.62132 1.87868C10.1839 2.44129 10.5 3.20435 10.5 4ZM3.768 8C2.79 8 2 8.791 2 9.768V10.128C2 10.335 2 11.536 2.7 12.703C3.248 13.613 4.177 14.43 5.675 14.796C5.87306 14.2683 6.22743 13.8136 6.69077 13.4927C7.15412 13.1718 7.70437 12.9999 8.268 13H9.354C8.92792 12.625 8.58674 12.1635 8.35325 11.6461C8.11976 11.1288 7.99933 10.5676 8 10C8 9.271 8.195 8.588 8.535 8H3.768ZM15.465 8C15.8166 8.6078 16.0012 9.29781 16 10C16 10.426 15.934 10.837 15.81 11.222C16.3612 11.0743 16.9294 10.9996 17.5 11C19.001 11 20.383 11.509 21.484 12.364C22 11.313 22 10.315 22 10.127V9.767C22 8.792 21.209 8 20.232 8H15.465ZM12.022 14C11.3528 15.0446 10.9981 16.2595 11 17.5C10.9981 18.7405 11.3528 19.9554 12.022 21H12C9.386 21 7.942 19.937 7.2 18.703C6.5 17.536 6.5 16.336 6.5 16.127V15.767C6.5 14.791 7.291 14 8.268 14H12.022ZM16.5 7C16.894 7 17.2841 6.9224 17.6481 6.77164C18.012 6.62087 18.3427 6.3999 18.6213 6.12132C18.8999 5.84274 19.1209 5.51203 19.2716 5.14805C19.4224 4.78407 19.5 4.39397 19.5 4C19.5 3.60603 19.4224 3.21593 19.2716 2.85195C19.1209 2.48797 18.8999 2.15726 18.6213 1.87868C18.3427 1.6001 18.012 1.37913 17.6481 1.22836C17.2841 1.0776 16.894 1 16.5 1C15.7044 1 14.9413 1.31607 14.3787 1.87868C13.8161 2.44129 13.5 3.20435 13.5 4C13.5 4.79565 13.8161 5.55871 14.3787 6.12132C14.9413 6.68393 15.7044 7 16.5 7ZM17.5 12C18.9587 12 20.3576 12.5795 21.3891 13.6109C22.4205 14.6424 23 16.0413 23 17.5C23 18.9587 22.4205 20.3576 21.3891 21.3891C20.3576 22.4205 18.9587 23 17.5 23C16.0413 23 14.6424 22.4205 13.6109 21.3891C12.5795 20.3576 12 18.9587 12 17.5C12 16.0413 12.5795 14.6424 13.6109 13.6109C14.6424 12.5795 16.0413 12 17.5 12ZM18.001 20.503V18H20.497C20.6296 18 20.7568 17.9473 20.8506 17.8536C20.9443 17.7598 20.997 17.6326 20.997 17.5C20.997 17.3674 20.9443 17.2402 20.8506 17.1464C20.7568 17.0527 20.6296 17 20.497 17H18V14.5C18 14.3674 17.9473 14.2402 17.8536 14.1464C17.7598 14.0527 17.6326 14 17.5 14C17.3674 14 17.2402 14.0527 17.1464 14.1464C17.0527 14.2402 17 14.3674 17 14.5V17H14.496C14.3634 17 14.2362 17.0527 14.1424 17.1464C14.0487 17.2402 13.996 17.3674 13.996 17.5C13.996 17.6326 14.0487 17.7598 14.1424 17.8536C14.2362 17.9473 14.3634 18 14.496 18H17V20.503C17 20.6356 17.0527 20.7628 17.1464 20.8566C17.2402 20.9503 17.3674 21.003 17.5 21.003C17.6326 21.003 17.7598 20.9503 17.8536 20.8566C17.9473 20.7628 18.001 20.6356 18.001 20.503ZM9.004 10.154C9.03409 10.7392 9.23491 11.3028 9.58165 11.7752C9.92839 12.2475 10.4059 12.608 10.9552 12.8121C11.5045 13.0162 12.1015 13.0549 12.6725 12.9236C13.2436 12.7922 13.7637 12.4965 14.1686 12.0729C14.5735 11.6494 14.8455 11.1165 14.951 10.5401C15.0565 9.96368 14.9909 9.369 14.7623 8.82947C14.5337 8.28993 14.152 7.82916 13.6645 7.50405C13.177 7.17893 12.605 7.0037 12.019 7H12C11.2044 7 10.4413 7.31607 9.87868 7.87868C9.31607 8.44129 9 9.20435 9 10L9.004 10.154Z" fill="#1F2223"/>
</svg>
