<svg width="28" height="28" viewBox="0 0 28 28" fill="none" xmlns="http://www.w3.org/2000/svg">
<path d="M24.3251 17.6203C24.731 16.4565 24.9381 15.2326 24.9376 14C24.9388 12.7629 24.7279 11.5347 24.3142 10.3688V10.325C23.5566 8.19865 22.1597 6.35875 20.315 5.05773C18.4704 3.7567 16.2684 3.05829 14.0111 3.05829C11.7538 3.05829 9.55174 3.7567 7.70709 5.05773C5.86244 6.35875 4.46551 8.19865 3.70793 10.325C3.7032 10.343 3.69955 10.3613 3.69699 10.3797C2.86533 12.7254 2.86533 15.2856 3.69699 17.6313C3.69699 17.6531 3.70793 17.6641 3.70793 17.675C4.46438 19.8018 5.86033 21.6424 7.70429 22.9444C9.54826 24.2464 11.7499 24.946 14.0072 24.9472C16.2645 24.9484 18.4669 24.2512 20.3122 22.9511C22.1576 21.6511 23.5555 19.8119 24.3142 17.686C24.313 17.6635 24.3167 17.6411 24.3251 17.6203V17.6203ZM14.0001 23.625C12.4251 22.1485 11.2548 20.1578 10.6204 17.9375H17.3798C16.7454 20.1578 15.5751 22.1485 14.0001 23.625V23.625ZM10.3907 17.0625C9.95335 15.0443 9.95335 12.9558 10.3907 10.9375H17.6095C18.0469 12.9558 18.0469 15.0443 17.6095 17.0625H10.3907ZM3.93762 14C3.93378 12.9601 4.09625 11.9262 4.41887 10.9375H9.49387C9.08553 12.9588 9.08553 15.0413 9.49387 17.0625H4.41887C4.09625 16.0739 3.93378 15.04 3.93762 14V14ZM14.0001 4.37502C15.5751 5.85159 16.7454 7.84221 17.3798 10.0625H10.6204C11.2548 7.84221 12.4251 5.85159 14.0001 4.37502ZM18.5064 10.9375H23.5814C24.223 12.9288 24.223 15.0713 23.5814 17.0625H18.5064C18.9147 15.0413 18.9147 12.9588 18.5064 10.9375V10.9375ZM23.2642 10.0625H18.3095C17.715 7.76244 16.5226 5.66058 14.8532 3.97034C16.6756 4.12852 18.4208 4.77888 19.9022 5.85191C21.3836 6.92494 22.5457 8.38032 23.2642 10.0625V10.0625ZM13.1579 3.97034C11.4816 5.65708 10.2849 7.75989 9.69074 10.0625H4.73605C5.45541 8.37878 6.61915 6.92238 8.10267 5.84923C9.58619 4.77609 11.3336 4.12661 13.1579 3.97034V3.97034ZM4.73605 17.9375H9.69074C10.3142 20.2891 11.5064 22.4 13.1579 24.0297C11.3336 23.8734 9.58619 23.224 8.10267 22.1508C6.61915 21.0777 5.45541 19.6213 4.73605 17.9375V17.9375ZM14.8532 24.0297C16.4939 22.4 17.6861 20.2891 18.3095 17.9375H23.2642C22.5457 19.6197 21.3836 21.0751 19.9022 22.1481C18.4208 23.2212 16.6756 23.8715 14.8532 24.0297V24.0297Z" fill="black"/>
</svg>
