<svg width="48" height="48" viewBox="0 0 48 48" fill="none" xmlns="http://www.w3.org/2000/svg">
<g clip-path="url(#clip0_1392_9513)">
<path d="M19.5625 19.0667C23.9808 19.0667 27.5625 15.4849 27.5625 11.0667C27.5625 6.64839 23.9808 3.06667 19.5625 3.06667C15.1442 3.06667 11.5625 6.64839 11.5625 11.0667C11.5625 15.4849 15.1442 19.0667 19.5625 19.0667Z" fill="#1F2223"/>
<path d="M21.9174 42.4267C21.4768 41.9909 21.1892 41.424 21.0979 40.811C21.0066 40.1981 21.1163 39.572 21.4107 39.0267L22.1174 37.6933L20.6641 37.2533C20.0714 37.0678 19.5555 36.6941 19.1945 36.1887C18.8336 35.6834 18.6473 35.0741 18.6641 34.4533V31.72C18.6629 31.102 18.8607 30.4999 19.228 30.0029C19.5954 29.5059 20.1129 29.1403 20.7041 28.96L22.1574 28.52L21.4641 27.1867C21.1783 26.6488 21.0695 26.0344 21.1533 25.4311C21.2371 24.8278 21.5092 24.2663 21.9307 23.8267C20.905 23.6922 19.8719 23.6209 18.8374 23.6133C15.7818 23.5414 12.748 24.1446 9.95238 25.38C7.15674 26.6153 4.66813 28.4523 2.66406 30.76V41.0933C2.66406 41.447 2.80454 41.7861 3.05459 42.0361C3.30464 42.2862 3.64377 42.4267 3.9974 42.4267H21.9174V42.4267Z" fill="#1F2223"/>
<path d="M44.9311 31.28L42.2644 30.48C42.0796 29.8215 41.8202 29.1862 41.4911 28.5867L42.8244 26.1067C42.8759 26.0146 42.8948 25.9078 42.8778 25.8037C42.8609 25.6996 42.8091 25.6043 42.7311 25.5333L40.7977 23.5867C40.7233 23.5142 40.6283 23.4664 40.5258 23.4497C40.4232 23.433 40.318 23.4482 40.2244 23.4933L37.7577 24.8267C37.1506 24.4968 36.5118 24.2288 35.8511 24.0267L35.0377 21.36C35.0019 21.2617 34.9366 21.1768 34.8506 21.1172C34.7647 21.0575 34.6624 21.0259 34.5577 21.0267H31.7844C31.6804 21.0296 31.5799 21.0644 31.4964 21.1264C31.4129 21.1884 31.3505 21.2746 31.3177 21.3733L30.5177 24.04C29.8442 24.236 29.1955 24.5089 28.5844 24.8533L26.1711 23.52C26.0772 23.4701 25.9701 23.451 25.8648 23.4654C25.7596 23.4797 25.6615 23.5268 25.5844 23.6L23.6244 25.52C23.5472 25.5944 23.4964 25.6919 23.4795 25.7977C23.4627 25.9036 23.4808 26.012 23.5311 26.1067L24.8644 28.5333C24.5072 29.1356 24.2166 29.7749 23.9977 30.44L21.3311 31.2533C21.2302 31.2825 21.1417 31.3439 21.0791 31.4282C21.0164 31.5125 20.9832 31.615 20.9844 31.72V34.4533C20.9832 34.5583 21.0164 34.6608 21.0791 34.7451C21.1417 34.8294 21.2302 34.8908 21.3311 34.92L23.9977 35.7333C24.1976 36.3864 24.4658 37.0165 24.7977 37.6133L23.4644 40.1467C23.4141 40.2413 23.396 40.3498 23.4129 40.4556C23.4297 40.5615 23.4806 40.659 23.5577 40.7333L25.5444 42.6667C25.6215 42.7398 25.7196 42.7869 25.8248 42.8013C25.9301 42.8156 26.0372 42.7965 26.1311 42.7467L28.6244 41.4133C29.2178 41.7325 29.8435 41.9872 30.4911 42.1733L31.2911 44.9067C31.3246 45.0075 31.389 45.0952 31.4752 45.1574C31.5613 45.2196 31.6648 45.2532 31.7711 45.2533H34.5044C34.6084 45.2504 34.7089 45.2156 34.7924 45.1536C34.8759 45.0916 34.9383 45.0054 34.9711 44.9067L35.7711 42.1733C36.4109 41.9896 37.0281 41.7346 37.6111 41.4133L40.1311 42.7467C40.2249 42.7965 40.332 42.8156 40.4373 42.8013C40.5426 42.7869 40.6407 42.7398 40.7177 42.6667L42.6644 40.7333C42.7376 40.6563 42.7847 40.5582 42.799 40.4529C42.8134 40.3476 42.7943 40.2405 42.7444 40.1467L41.4111 37.64C41.73 37.0559 41.9848 36.439 42.1711 35.8L44.8377 34.9867C44.9379 34.9544 45.026 34.8926 45.0902 34.8093C45.1545 34.7259 45.192 34.6251 45.1977 34.52V31.76C45.201 31.6633 45.1779 31.5676 45.1309 31.483C45.084 31.3985 45.0149 31.3283 44.9311 31.28V31.28ZM33.1577 37.5733C32.2764 37.576 31.4141 37.317 30.68 36.8293C29.9459 36.3416 29.373 35.647 29.0339 34.8335C28.6948 34.02 28.6047 33.1241 28.775 32.2594C28.9453 31.3947 29.3684 30.5999 29.9907 29.9758C30.613 29.3516 31.4065 28.9262 32.2707 28.7532C33.1349 28.5803 34.031 28.6677 34.8455 29.0044C35.66 29.3411 36.3564 29.9119 36.8463 30.6445C37.3362 31.3771 37.5977 32.2387 37.5977 33.12C37.5977 34.2988 37.1304 35.4295 36.2981 36.2643C35.4658 37.0991 34.3365 37.5698 33.1577 37.5733Z" fill="#1F2223"/>
</g>
<defs>
<clipPath id="clip0_1392_9513">
<rect width="48" height="48" fill="white"/>
</clipPath>
</defs>
</svg>
