<svg width="17" height="28" viewBox="0 0 17 28" fill="none" xmlns="http://www.w3.org/2000/svg">
<path d="M1.38177 2.76011L15.4641 2.73396" stroke="#1F2223" stroke-width="1.6" stroke-linecap="round" stroke-linejoin="round"/>
<path d="M15.5207 25.2399L1.43841 25.266" stroke="#1F2223" stroke-width="1.6" stroke-linecap="round" stroke-linejoin="round"/>
<path d="M3.52133 25.2548C3.48397 23.1344 3.90521 21.031 4.75615 19.0884C5.60696 17.146 6.86758 15.4102 8.45142 14C10.0353 12.5898 11.2958 10.8539 12.1467 8.91152C12.9976 6.96898 13.4188 4.86555 13.3815 2.74518" stroke="#1F2223" stroke-width="1.6" stroke-linecap="round" stroke-linejoin="round"/>
<path d="M13.4359 25.2283C13.4737 23.1085 13.0516 21.0058 12.1987 19.0647C11.3459 17.1238 10.0825 15.3907 8.49558 13.9849C6.90108 12.5857 5.6292 10.857 4.76766 8.91853C3.90627 6.97991 3.47563 4.87743 3.50586 2.75626" stroke="#1F2223" stroke-width="1.6" stroke-linecap="round" stroke-linejoin="round"/>
</svg>
