<svg width="102" height="99" viewBox="0 0 102 99" fill="none" xmlns="http://www.w3.org/2000/svg">
<path d="M47.9342 32.7031C49.4491 33.6422 51.1635 34.1897 52.9297 34.299C52.5171 35.4997 52.2107 36.7362 52.0143 37.9934L48.9804 39.3637L47.1365 36.6097C47.3024 35.288 47.5688 33.9818 47.9342 32.7031Z" fill="#FDDE92"/>
<path d="M28.4611 9.04688C36.0719 18.8002 42.3358 22.4812 46.5205 23.9456C45.3959 27.0086 44.5197 29.2925 44.1116 32.0465C44.0985 32.0734 29.5203 26.2294 22.7691 14.0869C24.1656 11.889 26.1389 10.1416 28.4611 9.04688Z" fill="#FDDE92"/>
<path d="M49.8947 24.8051C50.6015 24.9235 51.3267 24.835 51.987 24.5498C52.9416 25.6917 54.5763 26.0813 56.4986 26.1485C56.7865 26.5635 57.1564 26.9114 57.584 27.1695C56.6494 28.6908 55.7992 30.2651 55.0374 31.885C52.0166 31.6969 49.7281 31.1326 48.1458 29.6817C48.5594 27.9973 49.1458 26.3627 49.8947 24.8051Z" fill="#FDDE92"/>
<path d="M82.3261 41.6376C74.7153 41.342 64.9467 40.082 57.5712 37.4192C58.5908 34.4863 59.8826 31.6611 61.429 28.9824C67.0838 31.1708 71.5664 31.1637 83.0977 31.9783C80.3824 31.8248 79.796 41.2756 82.3261 41.6376Z" fill="#FDDE92"/>
<path d="M22.2881 86.3613C24.6647 87.0345 27.0929 87.4976 29.5459 87.7451C26.8775 91.5739 27.362 92.4337 26.4205 94.2607C22.0913 96.0878 12.5319 97.7402 7.88959 97.8343C11.3447 93.4278 18.0897 91.1171 22.2881 86.3613Z" fill="#CFD181"/>
<path d="M86.5244 66.8419C89.4274 66.9494 92.3327 66.7104 95.1821 66.1299C97.9015 72.1753 99.8369 79.712 100.818 84.5894C94.0438 81.3213 93.8738 74.1799 86.9691 73.465C87.1543 71.247 87.0044 69.0126 86.5244 66.8419Z" fill="#CFD181"/>
<path d="M81.7399 32.9733C82.6418 33.0942 83.5046 33.1747 84.3281 33.2285C83.7007 31.6848 82.6026 31.5498 81.7399 32.9733Z" fill="#CFD181"/>
<path d="M81.1498 40.3748C81.8428 42.1347 83.0721 42.0406 83.9482 40.3076C82.8105 40.3097 81.8036 40.3345 81.1498 40.3748Z" fill="#CFD181"/>
<path d="M12.546 51.269C12.7449 50.8228 13.0684 50.4474 13.4759 50.1893C13.8826 49.9319 14.3548 49.8046 14.8324 49.823C15.3101 49.8407 15.7712 50.004 16.1587 50.2918C16.5462 50.5796 16.8415 50.9791 17.008 51.4394C17.1746 51.8997 17.2042 52.4003 17.0934 52.8776C16.9833 53.3556 16.7369 53.7883 16.3872 54.1227C16.0369 54.4565 15.5978 54.6764 15.1263 54.7549C14.6542 54.8326 14.1703 54.7648 13.736 54.5604C13.4469 54.4254 13.1868 54.233 12.97 53.994C12.7532 53.7551 12.5852 53.4751 12.4744 53.1689C12.3636 52.8634 12.3134 52.5375 12.3258 52.2115C12.3375 51.8856 12.4125 51.5653 12.546 51.269Z" fill="#CFD181"/>
<path d="M48.6662 51.6055C49.3462 53.4594 50.0427 55.2327 50.7998 56.9523C50.2932 58.6027 49.5671 60.5683 49.2856 61.2655C49.7646 57.0598 48.6531 51.6224 48.6662 51.6055Z" fill="#CFD181"/>
<path d="M53.8846 3.25586C55.9718 3.25805 57.9729 4.11085 59.4488 5.6271C60.9247 7.14327 61.7548 9.19908 61.757 11.3433C61.7724 12.5572 61.566 13.7634 61.1485 14.8992C62.1734 13.0314 63.7982 11.5875 65.7449 10.8145C67.6916 10.0415 69.8393 9.98739 71.8206 10.6615C73.8018 11.3356 75.4935 12.696 76.6062 14.51C77.7188 16.324 78.1834 18.4788 77.9204 20.6058C77.6574 22.7329 76.6831 24.6999 75.1642 26.1704C73.6453 27.6409 71.6763 28.5236 69.5939 28.6673C67.5116 28.8111 65.4452 28.207 63.7485 26.9585C62.0518 25.71 60.8301 23.8946 60.2923 21.8229C59.1546 22.4677 57.6246 22.5483 56.6445 23.2603C56.8049 22.9308 57.445 21.7366 57.8215 21.6885C60.368 21.5273 60.2799 19.1494 58.8022 19.5793C58.0961 19.7808 57.9261 19.6196 58.0451 19.2569C58.9213 17.3082 58.2151 12.5277 54.462 16.5424C53.648 17.3455 52.9559 18.2695 52.4089 19.2838C50.4839 18.907 48.7646 17.806 47.5883 16.196C46.4114 14.5861 45.8615 12.5831 46.0466 10.5788C46.2311 8.57452 47.1375 6.71316 48.587 5.35883C50.0372 4.00444 51.9269 3.25459 53.8866 3.25586H53.8846Z" fill="#1F2223"/>
<path d="M53.5583 22.6943C54.016 22.8288 54.4839 22.9233 54.957 22.9771L52.7478 24.0783C53.18 23.74 53.47 23.245 53.5583 22.6943Z" fill="#CFD181"/>
<path d="M81.9209 79.7122L78.8739 86.5369C78.2679 87.8916 77.1631 88.9444 75.8024 89.4627C74.4416 89.9817 72.9361 89.9252 71.6162 89.3043L42.5066 75.6006" stroke="#1F2223" stroke-width="0.48" stroke-linecap="round" stroke-linejoin="round"/>
<path d="M29.2334 69.3529L4.19014 57.571C2.87142 56.9481 1.84659 55.8132 1.34209 54.4153C0.836904 53.0175 0.891965 51.4711 1.49626 50.1149L19.1111 10.6045" stroke="#1F2223" stroke-width="0.48" stroke-linecap="round" stroke-linejoin="round"/>
<path d="M24.5 3.49711C25.7175 3.17327 27.006 3.29192 28.1478 3.83297L46.0352 12.2463" stroke="#1F2223" stroke-width="0.48" stroke-linecap="round" stroke-linejoin="round"/>
<path d="M88.6436 32.2883L75.2941 26.0088" stroke="#1F2223" stroke-width="0.48" stroke-linecap="round" stroke-linejoin="round"/>
<path d="M94.1868 34.8936L95.586 35.5518C96.905 36.1744 97.9296 37.3093 98.4348 38.7072C98.94 40.1052 98.8845 41.652 98.2806 43.0079L87.6352 66.8673" stroke="#1F2223" stroke-width="0.48" stroke-linecap="round" stroke-linejoin="round"/>
<path d="M37.8773 54.4519L30.4495 50.9589C30.1604 50.821 29.9367 50.5714 29.8259 50.2639C29.7158 49.957 29.7282 49.6176 29.861 49.3199L30.5803 47.6809C30.7145 47.384 30.9574 47.1542 31.2568 47.0403C31.5555 46.9272 31.8859 46.9399 32.1757 47.0764L39.7734 50.6499" stroke="#1F2223" stroke-width="0.48" stroke-linecap="round" stroke-linejoin="round"/>
<path d="M49.7518 60.043L53.0342 61.5879" stroke="#1F2223" stroke-width="0.48" stroke-linecap="round" stroke-linejoin="round"/>
<path d="M53.5703 22.7088C53.4807 23.1303 53.2868 23.5209 53.0073 23.8429C52.7279 24.165 52.3723 24.4075 51.9749 24.5472C51.315 24.8337 50.5894 24.9222 49.8826 24.8024C41.3302 23.4406 33.8797 15.9761 28.4624 9.04395C26.1415 10.1386 24.1689 11.885 22.7731 14.0818C29.5216 26.2265 44.1025 32.0704 44.1156 32.0414" stroke="#1F2223" stroke-width="0.48" stroke-linecap="round" stroke-linejoin="round"/>
<path d="M54.9699 22.9776C54.9699 22.9776 48.6681 22.6835 54.3422 16.6635C58.2378 12.53 58.9309 17.1818 58.0836 19.18C57.8461 19.7393 58.2859 19.7159 58.8145 19.5653C60.2943 19.1411 60.3838 21.5133 57.8338 21.6745C57.6291 21.7858 57.4505 21.9417 57.3107 22.1313C55.5735 24.734 55.623 26.2698 58.4876 27.6662C65.8755 31.2681 69.9954 31.0248 83.0986 31.9794" stroke="#1F2223" stroke-width="0.48" stroke-linecap="round" stroke-linejoin="round"/>
<path d="M54.957 22.9785L52.7609 24.0797" stroke="#1F2223" stroke-width="0.48" stroke-linecap="round" stroke-linejoin="round"/>
<path d="M82.3398 41.6383C74.729 41.3428 64.9604 40.0828 57.585 37.4199" stroke="#1F2223" stroke-width="0.48" stroke-linecap="round" stroke-linejoin="round"/>
<path d="M81.7382 32.9723C84.8008 33.3796 87.8989 33.4202 90.9706 33.0932C91.9126 32.958 92.8436 32.7515 93.756 32.4752C94.8061 32.1799 95.8369 31.8164 96.8422 31.387C99.6145 30.2161 100.295 30.7422 97.6929 32.7842C94.7882 34.7622 91.6331 36.3217 88.316 37.4191" stroke="#1F2223" stroke-width="0.48" stroke-linecap="round" stroke-linejoin="round"/>
<path d="M81.1491 40.3745C83.1733 40.25 89.9802 40.233 91.99 40.4282C95.5215 40.7775 94.33 39.9714 93.2288 39.2863C92.4318 38.7913 88.678 37.8219 90.051 36.8115" stroke="#1F2223" stroke-width="0.48" stroke-linecap="round" stroke-linejoin="round"/>
<path d="M94.2117 32.3269C94.8132 31.8702 95.9895 30.8082 96.3302 30.4999C97.896 29.0857 97.4025 28.7386 97.1017 28.8736C95.8966 29.4188 94.0417 30.526 92.9033 31.0097C91.0725 31.7875 87.594 33.3473 85.8678 33.307" stroke="#1F2223" stroke-width="0.48" stroke-linecap="round" stroke-linejoin="round"/>
<path d="M93.0237 30.9714C93.246 30.6885 93.4415 30.4601 93.5468 30.3265C94.858 28.6656 94.3314 28.4054 94.0568 28.5935C92.9556 29.3458 91.2955 30.7387 90.2514 31.4013C88.995 32.1611 87.6729 32.8001 86.3021 33.3103" stroke="#1F2223" stroke-width="0.48" stroke-linecap="round" stroke-linejoin="round"/>
<path d="M84.3281 33.2284C83.315 30.7339 81.264 32.1601 80.7774 36.0723C80.2061 40.6682 82.3494 43.4732 83.9489 40.3083" stroke="#1F2223" stroke-width="0.48" stroke-linecap="round" stroke-linejoin="round"/>
<path d="M21.5566 6.65428C22.0383 5.99599 20.9027 3.44346 20.785 2.66427C20.5889 1.36114 20.4278 -0.100379 22.4327 2.91952C24.0378 5.21956 25.7715 7.42202 27.625 9.5158" stroke="#1F2223" stroke-width="0.48" stroke-linecap="round" stroke-linejoin="round"/>
<path d="M23.0742 13.6284C21.0335 11.3849 11.236 5.94044 12.5334 5.74246C14.0531 5.50984 16.7883 7.06115 17.0842 7.23156" stroke="#1F2223" stroke-width="0.48" stroke-linecap="round" stroke-linejoin="round"/>
<path d="M14.8701 6.17778C14.5618 5.97132 13.2954 5.13061 12.2464 4.54586C11.1975 3.96111 13.4757 3.94132 14.8357 4.66677" stroke="#1F2223" stroke-width="0.48" stroke-linecap="round" stroke-linejoin="round"/>
<path d="M19.9266 8.16822C20.1096 8.06357 21.1503 7.5559 23.1924 8.18661" stroke="#1F2223" stroke-width="0.48" stroke-linecap="round" stroke-linejoin="round"/>
<path d="M9.39473 49.7925C9.19582 50.2386 9.12975 50.7357 9.20546 51.2208C9.28186 51.7051 9.49591 52.1562 9.82077 52.5161C10.1463 52.8753 10.5675 53.1284 11.0328 53.2416C11.4974 53.3554 11.9847 53.325 12.4327 53.1539C12.8808 52.9828 13.2697 52.6794 13.5498 52.2814C13.8299 51.8833 13.9889 51.4095 14.0061 50.9188C14.024 50.4281 13.9001 49.9431 13.6496 49.5252C13.3984 49.1066 13.0329 48.7743 12.5986 48.5699C12.3102 48.4328 11.9984 48.3557 11.6812 48.3437C11.3639 48.331 11.0466 48.3826 10.7492 48.4964C10.4512 48.6103 10.1787 48.7828 9.94604 49.0055C9.71341 49.2282 9.52619 49.4955 9.39473 49.7925Z" stroke="#1F2223" stroke-width="0.48" stroke-linecap="round" stroke-linejoin="round"/>
<path d="M12.5461 51.2698C12.3472 51.7159 12.2811 52.213 12.3568 52.6981C12.4332 53.1824 12.6473 53.6335 12.9721 53.9934C13.2977 54.3533 13.7189 54.6057 14.1842 54.7189C14.6487 54.8327 15.136 54.8023 15.5841 54.6312C16.0322 54.4601 16.421 54.1568 16.7012 53.7587C16.9813 53.3606 17.1403 52.8869 17.1575 52.3962C17.1754 51.9054 17.0515 51.4204 16.801 51.0025C16.5504 50.5839 16.1843 50.2516 15.75 50.0473C15.1663 49.7786 14.5035 49.7559 13.9047 49.985C13.3053 50.2134 12.8173 50.6751 12.5461 51.2698Z" stroke="#1F2223" stroke-width="0.48" stroke-linecap="round" stroke-linejoin="round"/>
<path d="M15.6984 52.7612C15.4995 53.2074 15.4335 53.7045 15.5092 54.1895C15.5856 54.6739 15.7996 55.125 16.1245 55.4849C16.45 55.8448 16.8713 56.0972 17.3365 56.2103C17.8011 56.3242 18.2884 56.2937 18.7365 56.1226C19.1845 55.9515 19.5734 55.6482 19.8535 55.2501C20.1336 54.852 20.2926 54.3783 20.3098 53.8876C20.3277 53.3969 20.2038 52.9118 19.9533 52.494C19.7021 52.0754 19.3366 51.743 18.9023 51.5387C18.6139 51.4015 18.3022 51.3245 17.9849 51.3124C17.6676 51.2997 17.3503 51.3513 17.053 51.4652C16.7549 51.579 16.4824 51.7515 16.2497 51.9743C16.0171 52.197 15.8299 52.4643 15.6984 52.7612Z" stroke="#1F2223" stroke-width="0.48" stroke-linecap="round" stroke-linejoin="round"/>
<path d="M77.462 46.2501C76.6242 45.8582 75.6693 45.8233 74.8065 46.1532C73.9438 46.483 73.2434 47.1509 72.8589 48.01L70.8058 52.6315C70.4243 53.492 70.3903 54.4734 70.7114 55.3593C71.0325 56.246 71.6824 56.9651 72.5189 57.3603L78.9528 60.3831C79.7906 60.7748 80.7455 60.8101 81.6082 60.4799C82.471 60.1504 83.1714 59.4823 83.5559 58.6232L85.6207 54.0018C86.0023 53.1412 86.0362 52.1598 85.7151 51.2739C85.394 50.3872 84.744 49.6681 83.9076 49.2729L77.462 46.2501Z" stroke="#1F2223" stroke-width="0.48" stroke-linecap="round" stroke-linejoin="round"/>
<path d="M13.7104 43.0886C13.4213 42.9507 13.1976 42.7009 13.0868 42.3938C12.9767 42.0868 12.989 41.7473 13.1219 41.4496L13.8411 39.8106C13.9753 39.5138 14.2183 39.2836 14.5177 39.1703C14.8164 39.057 15.1468 39.0699 15.4365 39.2061L27.5989 44.9157C27.8879 45.0536 28.1116 45.3034 28.2224 45.6105C28.3326 45.9176 28.3202 46.2571 28.1873 46.5547L27.4681 48.1937C27.3339 48.4906 27.0909 48.7204 26.7915 48.8343C26.4928 48.9474 26.1625 48.9347 25.8727 48.7982L13.7104 43.0886Z" stroke="#1F2223" stroke-width="0.48" stroke-linecap="round" stroke-linejoin="round"/>
<path d="M50.7891 56.9782C50.032 55.2586 49.3437 53.4598 48.6658 51.6045C48.6527 51.6179 49.767 57.0588 49.2804 61.2638" stroke="#1F2223" stroke-width="0.48" stroke-linecap="round" stroke-linejoin="round"/>
<path d="M61.4424 28.9822C58.1077 34.5306 56.3946 41.315 55.8192 42.3897C52.4977 44.3108 46.2599 42.6987 44.233 40.4283C43.321 33.0161 44.1641 30.3575 46.5215 23.9443" stroke="#1F2223" stroke-width="0.48" stroke-linecap="round" stroke-linejoin="round"/>
<path d="M55.82 42.3915C58.5792 45.3202 61.6654 42.1497 65.6016 63.6037C74.5332 63.5499 77.7763 64.3157 86.1457 65.3233C87.6234 70.2021 87.2049 75.4393 85.4526 80.9078L62.96 73.3167C61.3803 72.7815 59.9796 71.7993 58.9192 70.4828C55.6231 66.3825 52.888 61.8388 50.7901 56.9777C47.9751 66.1371 40.378 80.0162 35.4328 88.0401C27.8619 88.0401 21.5705 86.7101 16.5743 84.0097C29.9267 73.3973 41.6272 47.428 44.233 40.4287" stroke="#1F2223" stroke-width="0.48" stroke-linecap="round" stroke-linejoin="round"/>
<path d="M57.585 27.1683C56.6477 28.6911 55.7921 30.2652 55.0219 31.8838C52.0011 31.6957 49.7126 31.1315 48.1302 29.6806C48.5453 27.9953 49.1324 26.3599 49.8826 24.8018" stroke="#1F2223" stroke-width="0.48" stroke-linecap="round" stroke-linejoin="round"/>
<path d="M47.1344 36.6124L48.9783 39.3665L52.0143 37.9962C52.2105 36.7379 52.5169 35.5005 52.9297 34.2989C51.1632 34.1888 49.4491 33.6402 47.9342 32.7002C47.568 33.9806 47.3003 35.2888 47.1344 36.6124Z" stroke="#1F2223" stroke-width="0.48" stroke-linecap="round" stroke-linejoin="round"/>
<path d="M22.2881 86.3613C18.0897 91.1171 11.3447 93.4278 7.88959 97.8343C12.5319 97.7402 22.0913 96.0878 26.4205 94.2607C27.362 92.4337 26.8782 91.5739 29.5459 87.7451C27.0922 87.4983 24.664 87.0352 22.2881 86.3613Z" stroke="#1F2223" stroke-width="0.48" stroke-linecap="round" stroke-linejoin="round"/>
<path d="M86.5244 66.8419C89.4275 66.9494 92.3328 66.7104 95.1821 66.1299C97.9015 72.1753 99.8369 79.712 100.818 84.5894C94.0438 81.3213 93.8738 74.1799 86.9691 73.465C87.1544 71.247 87.0044 69.0126 86.5244 66.8419Z" stroke="#1F2223" stroke-width="0.48" stroke-linecap="round" stroke-linejoin="round"/>
<path d="M56.4873 26.1622C54.565 26.095 52.9303 25.7054 51.9757 24.5635" stroke="#1F2223" stroke-width="0.48" stroke-linecap="round" stroke-linejoin="round"/>
<path d="M52.4195 19.2702C50.9527 18.982 49.5954 18.2708 48.5073 17.22C47.4191 16.1691 46.6448 14.8218 46.2739 13.3356C45.9029 11.8493 45.9518 10.2853 46.4136 8.82631C46.8761 7.36734 47.7323 6.07347 48.8838 5.09594C50.0345 4.11834 51.4328 3.49739 52.9146 3.30563C54.3964 3.11381 55.9007 3.35909 57.2518 4.01271C58.603 4.66639 59.7453 5.70148 60.5453 6.99718C61.3452 8.29282 61.7698 9.79556 61.7696 11.3298C61.787 12.5439 61.5789 13.7504 61.1563 14.8843C62.1842 13.0193 63.8107 11.579 65.7578 10.8096C67.7049 10.0403 69.8517 9.98958 71.8312 10.6663C73.8106 11.343 75.4998 12.705 76.61 14.5196C77.7201 16.3341 78.1822 18.4884 77.9174 20.6143C77.6525 22.7401 76.6771 24.7054 75.1579 26.1743C73.6387 27.6431 71.6701 28.5242 69.5885 28.6669C67.5069 28.8096 65.4417 28.2051 63.746 26.9567C62.0503 25.7083 60.8293 23.8936 60.2918 21.8228C59.1541 22.4676 57.6241 22.5482 56.644 23.2603" stroke="#1F2223" stroke-width="0.48" stroke-linecap="round" stroke-linejoin="round"/>
<path d="M24.9316 27.4111C24.534 27.6916 24.2168 28.0759 24.0125 28.5244C23.8081 28.973 23.7235 29.4695 23.7682 29.9627" stroke="#1F2223" stroke-width="0.48" stroke-linecap="round" stroke-linejoin="round"/>
<path d="M23.5322 25.249C22.8109 25.8561 22.2314 26.6212 21.835 27.4882C21.4392 28.3552 21.2369 29.3023 21.2431 30.26" stroke="#1F2223" stroke-width="0.48" stroke-linecap="round" stroke-linejoin="round"/>
<path d="M22.0127 22.8291C19.9479 24.9025 18.6884 27.6769 18.4688 30.6345" stroke="#1F2223" stroke-width="0.48" stroke-linecap="round" stroke-linejoin="round"/>
</svg>
