<svg width="121" height="117" viewBox="0 0 121 117" fill="none" xmlns="http://www.w3.org/2000/svg">
<path d="M27.3511 68.3986C27.1547 67.9756 26.8768 67.5954 26.533 67.2799C26.1893 66.9644 25.7867 66.7199 25.3483 66.5612C24.9099 66.4018 24.4443 66.3301 23.9783 66.3513C23.5123 66.3724 23.0551 66.4857 22.633 66.6841L17.209 69.2133L20.5165 76.3173C21.3769 76.6988 22.2629 77.0194 23.168 77.2773C20.6259 73.2037 21.5501 72.4985 24.2259 75.4169C26.8007 78.2265 29.9776 78.4639 32.1178 78.6642L27.3511 68.3986Z" fill="#FDC886"/>
<path d="M26.6687 85.5687C25.975 85.3652 25.2396 85.1425 24.5049 84.9121L27.1558 90.603C26.7106 88.9646 26.546 87.2622 26.6687 85.5687Z" fill="#FDC886"/>
<path d="M28.5421 91.9541C28.1793 92.1083 27.8004 91.8209 27.5693 91.467L28.6273 93.7294L33.8925 91.2725C32.3847 91.4805 29.4298 91.844 28.5421 91.9541Z" fill="#FDC886"/>
<path d="M19.7743 83.2242C18.7286 82.8108 17.6585 82.3852 16.6492 81.8866C15.2873 81.2178 15.3692 80.5247 16.6978 80.8409C17.1842 80.9503 17.7558 81.0233 18.6921 81.1442C17.6209 80.7468 16.577 80.2796 15.567 79.7458C14.1929 78.9682 14.4604 78.0677 15.7737 78.5426C16.1263 78.6764 16.941 78.9311 17.8895 79.1743L17.7436 78.8703C16.9935 78.4441 16.267 77.9775 15.5676 77.4725C14.303 76.4991 14.6678 75.6479 15.9081 76.3045C16.0905 76.4018 16.3702 76.5234 16.7106 76.6693L13.9382 70.7109L8.52632 73.2402C8.10315 73.4367 7.72299 73.7145 7.4076 74.0581C7.09227 74.4018 6.84786 74.8044 6.68856 75.2428C6.52927 75.6812 6.4581 76.1471 6.47922 76.613C6.5004 77.0789 6.61336 77.5359 6.81176 77.9583L15.2265 96.0537C15.4229 96.4767 15.7009 96.8569 16.0446 97.1724C16.3883 97.4873 16.7909 97.7317 17.2293 97.8911C17.6677 98.0505 18.1332 98.1215 18.5992 98.1004C19.0651 98.0793 19.5224 97.9666 19.9446 97.7682L25.3686 95.2383L19.7743 83.2242Z" fill="#FDC886"/>
<path d="M62.1786 62.2201C61.2301 62.6585 61.0112 64.3846 61.4106 66.7807C63.3331 66.6259 65.2359 66.2796 67.0899 65.7471C65.2064 63.2179 63.2851 61.7094 62.1786 62.2201Z" fill="#CFD181"/>
<path d="M71.8702 75.2686C70.1313 76.6471 68.0884 77.5905 65.9111 78.0206C68.1979 81.6807 70.6298 83.8938 71.9796 83.2615C73.3294 82.6382 73.2078 79.3671 71.8702 75.2686Z" fill="#CFD181"/>
<path d="M117.29 11.0371C114.287 13.6272 108.838 22.2736 107.829 25.3987C108.012 26.9065 108.157 27.9766 108.255 28.8886C110.494 29.1879 112.766 29.1428 114.992 28.7549L114.968 27.7577C117.57 19.2579 117.667 15.6093 117.29 11.0371Z" fill="#CFD181"/>
<path d="M81.1969 0.639648C79.0324 4.51869 76.7706 13.4204 76.5889 17.4582C77.2333 18.4912 77.8535 19.5126 78.4493 20.5225C80.1665 18.9947 82.1165 17.7506 84.226 16.8374C84.2637 14.575 84.5652 10.5334 81.1969 0.639648Z" fill="#CFD181"/>
<path d="M26.6692 85.5693C26.4989 89.0836 27.1927 91.9053 28.2749 91.9898C29.2989 92.0756 30.33 89.7402 30.7434 86.5786C29.3586 86.3617 27.9953 86.0237 26.6692 85.5693Z" fill="#CFD181"/>
<path d="M115.126 33.7168L115.162 35.4922C117.29 34.968 117.242 34.2032 115.126 33.7168Z" fill="#CFD181"/>
<path d="M78.4373 28.1345C78.7093 28.6062 80.2856 28.2318 82.3042 27.3076C81.9516 26.6145 81.5624 25.8996 81.1612 25.1553C79.3007 26.4558 78.1621 27.6577 78.4373 28.1345Z" fill="#CFD181"/>
<path d="M89.2602 21.8846C89.0778 21.5684 88.3117 21.6286 87.2295 21.9818L88.1658 23.587C89.017 22.8209 89.4426 22.2007 89.2602 21.8846Z" fill="#CFD181"/>
<path d="M58.0439 73.6152C57.7246 74.6328 57.3008 75.6152 56.7793 76.5458L58.0804 77.1666L58.0439 73.6152Z" fill="#CFD181"/>
<path d="M50.8693 63.4609L50.2856 65.3093L49.8965 63.9717L50.8693 63.4609Z" fill="#CFD181"/>
<path d="M104.181 34.604C104.181 35.1877 105.932 35.6741 108.364 35.8565C108.4 34.8716 108.412 34.0568 108.425 33.3516C105.956 33.5218 104.181 34.0204 104.181 34.604Z" fill="#CFD181"/>
<path d="M62.1665 50.7654C62.3828 50.6245 62.5671 50.4386 62.7054 50.2205C62.8436 50.0022 62.9338 49.7568 62.969 49.5008C63.0055 49.2285 62.9806 48.9513 62.8948 48.6902C62.809 48.4291 62.6657 48.1908 62.4743 47.993C62.2836 47.7953 62.0506 47.6434 61.7927 47.5486C61.5348 47.4538 61.2583 47.4187 60.985 47.4457C61.1502 47.2197 61.2545 46.9554 61.289 46.6777C61.353 46.2024 61.2263 45.7211 60.9374 45.3385C60.6481 44.9559 60.2195 44.703 59.7447 44.6349C59.387 44.5849 59.0224 44.6443 58.699 44.8051C58.7222 44.7298 58.7385 44.6524 58.7476 44.5741C58.8013 44.1813 58.7249 43.7817 58.5301 43.4365C58.3352 43.0912 58.0328 42.8192 57.6688 42.6621C57.3049 42.5049 56.8995 42.4713 56.5146 42.5662C56.1297 42.6611 55.7864 42.8795 55.5374 43.1878C55.54 42.7502 55.3836 42.3265 55.0974 41.9954C54.8111 41.6644 54.4144 41.4486 53.9809 41.3881L53.8593 41.3638C53.4373 41.3053 53.0083 41.3977 52.6478 41.6246C52.2872 41.8515 52.0184 42.1984 51.8887 42.6041C51.7467 42.2274 51.4832 41.9086 51.1398 41.6982C50.7964 41.4878 50.3928 41.3979 49.9925 41.4425C49.5923 41.4871 49.2184 41.6638 48.9298 41.9446C48.6412 42.2254 48.4544 42.5944 48.3988 42.9933C48.3887 43.0453 48.3847 43.0983 48.3866 43.1513C48.1102 42.8844 47.7574 42.7102 47.3774 42.6528C47.1417 42.6192 46.9018 42.6326 46.6713 42.6922C46.4409 42.7518 46.2245 42.8563 46.0346 42.9998C45.8447 43.1434 45.6851 43.323 45.5649 43.5285C45.4448 43.7341 45.3665 43.9613 45.3345 44.1971C45.3029 44.4503 45.3242 44.7072 45.3972 44.9517C45.2438 44.8777 45.0796 44.8285 44.9108 44.8057C44.5526 44.7561 44.1877 44.8149 43.8632 44.9746C43.5387 45.1344 43.2696 45.3877 43.0905 45.7019C42.9114 46.016 42.8305 46.3767 42.8584 46.7373C42.8862 47.0979 43.0215 47.4418 43.2468 47.7248C42.8207 47.6731 42.39 47.7746 42.0318 48.011C41.6736 48.2475 41.411 48.6036 41.291 49.0157C41.1711 49.4278 41.2015 49.8692 41.3769 50.261C41.5522 50.6528 41.8611 50.9694 42.2484 51.1545C41.8225 51.2114 41.4308 51.4177 41.1429 51.7365C40.8551 52.0555 40.6898 52.4662 40.6766 52.8957C40.6635 53.325 40.8033 53.7451 41.0711 54.0811C41.339 54.4169 41.7174 54.6468 42.139 54.7296C41.8328 54.9324 41.5957 55.2237 41.4593 55.5648C41.323 55.9059 41.2938 56.2803 41.3757 56.6381C41.4576 56.9965 41.6467 57.3209 41.9178 57.5686C42.1888 57.8163 42.529 57.9757 42.8929 58.0249C43.042 58.0371 43.1918 58.0371 43.3409 58.0249C43.1886 58.2566 43.089 58.519 43.049 58.7929C42.9851 59.2685 43.1115 59.7497 43.4007 60.1325C43.69 60.5145 44.1186 60.768 44.5934 60.8358C44.9552 60.8921 45.3254 60.8326 45.6513 60.6656C45.5619 61.0003 45.5705 61.3536 45.6761 61.6838C45.7817 62.0134 45.9799 62.3059 46.2471 62.5267C46.0183 61.367 46.01 60.1747 46.2228 59.0118C47.0618 52.9318 50.2356 56.0813 50.8558 58.2822C51.0017 58.6713 51.257 58.6835 51.707 58.0147C52.6439 56.6285 54.3585 58.4768 52.3521 60.3981C52.1454 60.6048 52.0474 62.0153 52.8641 63.5475C53.1283 63.7869 53.4592 63.9392 53.8126 63.9853C54.0611 64.0192 54.3139 64.0006 54.555 63.9321C54.7961 63.863 55.0203 63.7446 55.2134 63.5846C55.4065 63.4246 55.5644 63.2262 55.6769 63.0022C55.7896 62.7782 55.8545 62.5331 55.8676 62.2829C56.1052 62.5209 56.4046 62.688 56.7321 62.7648C57.0597 62.8416 57.4021 62.8256 57.7209 62.7181C58.0396 62.6105 58.322 62.416 58.536 62.1568C58.75 61.8969 58.8871 61.5827 58.9319 61.2493C58.9651 61.0009 58.9486 60.7488 58.8833 60.5075C59.1397 60.624 59.4198 60.679 59.7013 60.6681C59.9827 60.6573 60.2578 60.5811 60.5046 60.4454C60.7514 60.3097 60.963 60.1184 61.1226 59.8861C61.2826 59.6544 61.3857 59.3881 61.4247 59.1091C61.4599 58.8691 61.4452 58.6246 61.3825 58.3904C61.3198 58.1561 61.2103 57.9373 61.0599 57.7472C61.4868 57.8009 61.9182 57.7017 62.2785 57.4662C62.6382 57.2307 62.9025 56.8749 63.0241 56.4621C63.145 56.0499 63.1156 55.607 62.9409 55.2147C62.7662 54.8216 62.457 54.5038 62.0692 54.3181C62.4634 54.2676 62.8302 54.0892 63.1137 53.8103C63.3972 53.5314 63.5809 53.1673 63.6378 52.7737C63.7006 52.3136 63.5822 51.847 63.3076 51.4724C63.0337 51.0977 62.6241 50.8443 62.1665 50.7654Z" fill="#1F2223"/>
<path d="M117.217 45.2197C119.04 49.3155 120.033 53.7322 120.138 58.2143C120.242 62.6962 119.458 67.1551 117.828 71.3317C116.198 75.5077 113.756 79.3202 110.644 82.5464C107.531 85.7727 103.809 88.35 99.6934 90.1285" stroke="#1F2223" stroke-width="0.48" stroke-linecap="round" stroke-linejoin="round"/>
<path d="M91.4121 25.5449C97.7206 26.5056 103.627 29.2336 108.449 33.4131" stroke="#1F2223" stroke-width="0.48" stroke-linecap="round" stroke-linejoin="round"/>
<path d="M71.165 28.7063C74.1078 27.2346 77.2495 26.2024 80.4918 25.6426" stroke="#1F2223" stroke-width="0.48" stroke-linecap="round" stroke-linejoin="round"/>
<path d="M51.002 85.958L64.5245 115.8" stroke="#1F2223" stroke-width="0.48" stroke-linecap="round" stroke-linejoin="round"/>
<path d="M43.7549 69.9551L24.6752 27.8796C23.6416 25.6396 25.1008 23.6601 27.5449 23.9756L60.6701 28.3046C62.5958 28.5567 64.4262 29.2907 65.9923 30.4387C67.559 31.5866 68.8102 33.1114 69.6301 34.8716L107.108 115.775" stroke="#1F2223" stroke-width="0.48" stroke-linecap="round" stroke-linejoin="round"/>
<path d="M50.4766 66.0781C46.2577 68.9248 41.6678 71.1789 36.8356 72.7764C34.4657 73.1168 32.0786 73.3236 29.6855 73.3965" stroke="#1F2223" stroke-width="0.48" stroke-linecap="round" stroke-linejoin="round"/>
<path d="M32.1051 78.6496L27.3358 68.3859C26.937 67.5334 26.2161 66.8736 25.3315 66.5523C24.4469 66.231 23.4708 66.2739 22.6177 66.6713L8.52618 73.2499C7.67345 73.6486 7.01386 74.3692 6.69226 75.2537C6.37066 76.1388 6.41335 77.1148 6.81098 77.968L15.2263 96.0633C15.6251 96.9158 16.346 97.5756 17.2306 97.8969C18.1152 98.2182 19.0913 98.1753 19.9444 97.7779L33.8926 91.2716" stroke="#1F2223" stroke-width="0.48" stroke-linecap="round" stroke-linejoin="round"/>
<path d="M15.5061 69.9787C15.5061 69.9787 6.03022 69.107 2.14158 66.3428C-1.74706 63.5787 1.48238 56.8708 6.4827 60.4324C11.563 64.0484 15.5061 69.9787 15.5061 69.9787Z" stroke="#1F2223" stroke-width="0.48" stroke-linecap="round" stroke-linejoin="round"/>
<path d="M15.4958 69.9792C15.4958 69.9792 21.3876 62.5136 22.0622 57.7821C22.7368 53.0505 15.65 50.7913 14.7918 56.856C13.9112 63.0371 15.4958 69.9792 15.4958 69.9792Z" stroke="#1F2223" stroke-width="0.48" stroke-linecap="round" stroke-linejoin="round"/>
<path d="M50.2658 65.3729L50.8687 63.4529C50.8687 63.4529 45.1912 67.3076 46.2357 59.0139C46.9851 53.0619 50.1007 55.9419 50.8219 58.1313C50.9909 58.6433 51.197 58.8052 51.7179 58.0289C52.6536 56.642 54.3791 58.5019 52.3624 60.4123C51.9752 60.7796 52.1231 63.5092 54.4424 65.4958C55.9144 66.7579 60.4738 67.6359 67.0767 65.7518" stroke="#1F2223" stroke-width="0.48" stroke-linecap="round" stroke-linejoin="round"/>
<path d="M49.8955 63.9717C50.2753 65.6101 50.817 67.2069 51.5128 68.7384" stroke="#1F2223" stroke-width="0.48" stroke-linecap="round" stroke-linejoin="round"/>
<path d="M53.4957 64.4951C52.0237 69.201 47.6947 74.4298 44.3021 78.6865C39.355 79.1108 34.3765 78.9962 29.4541 78.3454" stroke="#1F2223" stroke-width="0.48" stroke-linecap="round" stroke-linejoin="round"/>
<path d="M71.8699 75.2686C69.7605 76.9428 67.2043 77.9578 64.5208 78.1857C61.8373 78.4135 59.1462 77.8439 56.7851 76.5486C55.0768 79.7511 53.1781 82.8481 51.0993 85.8234C50.4124 86.859 49.3907 87.627 48.2053 87.9994C41.7902 89.9694 35.1952 91.2974 28.5176 91.9636" stroke="#1F2223" stroke-width="0.48" stroke-linecap="round" stroke-linejoin="round"/>
<path d="M65.9107 78.0177C68.1975 81.6778 70.6269 83.8858 71.9792 83.2586C76.1629 81.3175 66.4279 60.2596 62.1776 62.2205C61.2291 62.6589 61.0102 64.385 61.4096 66.7812" stroke="#1F2223" stroke-width="0.48" stroke-linecap="round" stroke-linejoin="round"/>
<path d="M104.18 34.6045C104.302 38.3498 104.764 51.8845 104.764 53.2829C102.624 53.6112 85.7331 57.6727 84.7725 57.8429" stroke="#1F2223" stroke-width="0.48" stroke-linecap="round" stroke-linejoin="round"/>
<path d="M91.6562 72.6417C117.303 63.6177 116.741 64.044 117.256 57.0033C117.583 52.5163 117.05 39.6504 116.733 34.5918" stroke="#1F2223" stroke-width="0.48" stroke-linecap="round" stroke-linejoin="round"/>
<path d="M78.4365 28.1348C80.2848 31.3936 87.6525 43.5786 88.3111 44.8068C87.6071 45.3296 84.3834 48.8202 81.7191 51.3252" stroke="#1F2223" stroke-width="0.48" stroke-linecap="round" stroke-linejoin="round"/>
<path d="M97.8211 54.8025C102.843 47.0317 101.868 45.0995 100.317 41.8637C98.3075 37.6819 91.6829 25.8361 89.2266 21.8477" stroke="#1F2223" stroke-width="0.48" stroke-linecap="round" stroke-linejoin="round"/>
<path d="M81.1969 0.639648C79.0324 4.51869 76.7706 13.4204 76.5889 17.4582C77.2333 18.4912 77.8535 19.5126 78.4493 20.5225C80.1729 19.0029 82.1217 17.7598 84.226 16.8374C84.2362 15.7136 84.5652 10.5334 81.1969 0.639648Z" stroke="#1F2223" stroke-width="0.48" stroke-linecap="round" stroke-linejoin="round"/>
<path d="M24.5977 25.3069C25.2571 23.7647 26.4007 22.4791 27.8556 21.6444C29.3104 20.8097 30.9974 20.4713 32.6617 20.6803L65.1423 24.8634C66.5497 25.0439 67.8879 25.5781 69.0322 26.4162C70.1772 27.2542 71.0905 28.3688 71.6876 29.6557L111.586 115.777" stroke="#1F2223" stroke-width="0.48" stroke-linecap="round" stroke-linejoin="round"/>
<path d="M31.304 29.1194C31.752 30.0922 31.5959 31.1258 30.9514 31.4298C30.3069 31.7338 29.407 31.1866 28.9571 30.2138C28.5072 29.241 28.6627 28.2023 29.3098 27.9034C29.9568 27.6045 30.856 28.1466 31.304 29.1194Z" stroke="#1F2223" stroke-width="0.48" stroke-linecap="round" stroke-linejoin="round"/>
<path d="M104.351 39.4805C108.457 40.8289 112.661 40.6965 116.986 39.4805" stroke="#1F2223" stroke-width="0.48" stroke-linecap="round" stroke-linejoin="round"/>
<path d="M80.9258 32.377C85.1453 31.5723 88.9443 29.301 91.6503 25.9648" stroke="#1F2223" stroke-width="0.48" stroke-linecap="round" stroke-linejoin="round"/>
<path d="M24.3961 77.5922C22.0626 77.0456 19.8271 76.1438 17.7682 74.9169C16.5279 74.236 16.0626 74.9208 17.2697 75.987C18.3874 76.9349 19.602 77.763 20.8933 78.4561" stroke="#1F2223" stroke-width="0.48" stroke-linecap="round" stroke-linejoin="round"/>
<path d="M19.7835 77.8221C18.4679 77.4016 17.1804 76.8979 15.9287 76.3142C14.6782 75.6544 14.3127 76.5062 15.5883 77.4816C17.136 78.5363 18.7621 79.472 20.4523 80.279" stroke="#1F2223" stroke-width="0.48" stroke-linecap="round" stroke-linejoin="round"/>
<path d="M18.6065 79.3552C17.6523 79.1338 16.7106 78.8618 15.7854 78.5405C14.4779 78.0502 14.2059 78.9629 15.5787 79.7443C17.0308 80.4989 18.544 81.1293 20.1022 81.6291" stroke="#1F2223" stroke-width="0.48" stroke-linecap="round" stroke-linejoin="round"/>
<path d="M30.7431 86.5782C30.4026 86.6877 24.4314 85.0467 20.9171 83.6842C19.5091 83.137 18.0371 82.5872 16.6611 81.9088C15.2762 81.2253 15.3581 80.5418 16.6976 80.8509C17.1834 80.9629 17.7555 81.0333 18.6919 81.1549" stroke="#1F2223" stroke-width="0.48" stroke-linecap="round" stroke-linejoin="round"/>
<path d="M26.6686 85.5685C26.4984 89.0827 27.1922 91.9013 28.2744 91.989C30.9822 92.2085 32.0504 78.789 29.3566 78.3211C27.3947 77.8834 25.6055 76.876 24.213 75.4264C21.5461 72.5112 20.7102 73.1403 23.2402 77.2139" stroke="#1F2223" stroke-width="0.48" stroke-linecap="round" stroke-linejoin="round"/>
<path d="M87.2287 21.9821C88.3109 21.6294 89.0744 21.5699 89.2594 21.8848C89.7714 22.7578 86.0549 25.2128 85.1832 25.7472C84.0312 26.4512 79.0584 29.2134 78.4363 28.135C78.1611 27.6582 79.2997 26.457 81.1602 25.1558" stroke="#1F2223" stroke-width="0.48" stroke-linecap="round" stroke-linejoin="round"/>
<path d="M84.2254 16.8379C82.1224 17.7502 80.1768 18.9899 78.4609 20.5109C79.8107 22.7969 81.2213 25.1829 82.3041 27.2949C84.4161 26.327 86.3873 25.0784 88.1653 23.5829L84.2254 16.8379Z" stroke="#1F2223" stroke-width="0.48" stroke-linecap="round" stroke-linejoin="round"/>
<path d="M117.289 11.0371C114.286 13.6272 108.837 22.2736 107.828 25.3987C108.011 26.9065 108.156 27.9766 108.254 28.8886C110.493 29.1879 112.765 29.1428 114.991 28.7549L114.967 27.7577C117.569 19.2579 117.666 15.6093 117.289 11.0371Z" stroke="#1F2223" stroke-width="0.48" stroke-linecap="round" stroke-linejoin="round"/>
<path d="M114.991 28.7549C112.765 29.1428 110.493 29.1879 108.254 28.8886C108.479 31.2046 108.516 33.535 108.363 35.857C110.636 36.047 112.924 35.9201 115.161 35.48C114.993 28.689 115.024 29.9043 114.991 28.7549Z" stroke="#1F2223" stroke-width="0.48" stroke-linecap="round" stroke-linejoin="round"/>
<path d="M63.6369 52.7724C63.5805 53.166 63.3969 53.5304 63.1133 53.8093C62.8298 54.0883 62.4625 54.2666 62.0682 54.3167C62.4561 54.5025 62.7652 54.8202 62.9399 55.2133C63.1146 55.6056 63.1441 56.0485 63.0231 56.4607C62.9015 56.8735 62.6372 57.2293 62.2775 57.4648C61.9172 57.6997 61.4858 57.7996 61.0589 57.7458C61.2087 57.9365 61.3181 58.1554 61.3809 58.3896C61.4436 58.6232 61.4583 58.8677 61.4237 59.1077C61.3911 59.3432 61.3124 59.5698 61.1921 59.7752C61.0717 59.98 60.9119 60.1599 60.7222 60.3032C60.5325 60.4466 60.3164 60.5509 60.0863 60.6111C59.8561 60.6706 59.6164 60.6847 59.3809 60.652C59.2084 60.6277 59.0404 60.5791 58.8823 60.5061C58.9469 60.748 58.9635 60.9996 58.9309 61.2479C58.8861 61.5813 58.749 61.8956 58.535 62.1554C58.321 62.4146 58.0387 62.6092 57.7199 62.7167C57.4012 62.8242 57.0586 62.8402 56.7311 62.7634C56.4037 62.6866 56.1042 62.5196 55.8666 62.2815C55.8686 62.3346 55.8645 62.3877 55.8545 62.4396C55.7863 62.9144 55.5334 63.3432 55.1509 63.6319C54.7683 63.9212 54.2869 64.0479 53.8116 63.9839C53.4584 63.9372 53.1276 63.7848 52.8631 63.5461C52.0484 62.014 52.1431 60.6021 52.3511 60.3967C54.3351 58.4536 52.6417 56.6264 51.706 58.0133C51.3181 58.5893 51.0199 58.7896 50.817 58.1554C50.1162 55.9647 47.0525 53.0463 46.2218 59.0104C46.0101 60.1733 46.0182 61.3656 46.2461 62.5253C46.0074 62.3295 45.8229 62.0754 45.7101 61.788C45.5972 61.5007 45.5599 61.189 45.6017 60.8831C45.6115 60.8088 45.6277 60.7359 45.6503 60.6642C45.3237 60.8287 44.9541 60.8882 44.5924 60.8344C44.1187 60.764 43.6917 60.5106 43.4028 60.1285C43.1141 59.7464 42.9867 59.2664 43.0481 58.7916C43.0883 58.5176 43.1879 58.2552 43.3399 58.0236C43.1908 58.0357 43.041 58.0357 42.8919 58.0236C42.528 57.9743 42.1878 57.8149 41.9167 57.5672C41.6457 57.3196 41.4566 56.9944 41.3747 56.6367C41.2928 56.2789 41.322 55.9045 41.4583 55.5634C41.5947 55.2223 41.8318 54.931 42.138 54.7282C41.7164 54.6454 41.338 54.4156 41.0701 54.0797C40.8023 53.7437 40.6625 53.3236 40.6757 52.8942C40.6888 52.4648 40.854 52.054 41.1419 51.7352C41.4298 51.4163 41.8216 51.21 42.2474 51.1532C41.8609 50.9677 41.5526 50.6511 41.3777 50.2597C41.2028 49.8684 41.1724 49.4275 41.2921 49.0158C41.4118 48.6042 41.6738 48.2483 42.0314 48.0118C42.3889 47.7752 42.8188 47.6732 43.2445 47.724C43.0193 47.4411 42.884 47.0972 42.8561 46.7365C42.8282 46.3759 42.9091 46.0153 43.0882 45.7011C43.2673 45.3869 43.5364 45.1336 43.8609 44.9739C44.1854 44.8141 44.5503 44.7553 44.9085 44.805C45.0774 44.8276 45.2415 44.8769 45.3949 44.9509C45.3228 44.7065 45.302 44.4498 45.3341 44.197C45.3656 43.9609 45.4435 43.7333 45.5635 43.5276C45.6835 43.3218 45.8431 43.1419 46.0331 42.9982C46.2231 42.8546 46.4397 42.7501 46.6704 42.6908C46.9011 42.6314 47.1412 42.6185 47.377 42.6527C47.7575 42.7085 48.1107 42.8829 48.3863 43.1512C48.4075 42.7359 48.571 42.3405 48.8494 42.0316C49.1278 41.7226 49.5041 41.5188 49.915 41.4547C50.3259 41.3905 50.7464 41.4696 51.1057 41.679C51.4652 41.8883 51.7415 42.2149 51.8884 42.604C52.5354 40.6047 55.5645 41.1525 55.5364 43.1877C55.7855 42.8794 56.1287 42.661 56.5136 42.5661C56.8985 42.4711 57.3039 42.5048 57.6678 42.662C58.0317 42.8191 58.3343 43.0911 58.529 43.4364C58.7238 43.7816 58.8003 44.1812 58.7466 44.574C58.7375 44.6523 58.7212 44.7296 58.698 44.805C59.0212 44.6434 59.3859 44.584 59.7437 44.6348C60.2192 44.7027 60.6485 44.9558 60.9382 45.339C61.2279 45.7221 61.354 46.2042 61.29 46.6802C61.2548 46.9577 61.1505 47.2219 60.986 47.4482C61.1319 47.4351 61.2785 47.4389 61.4237 47.4597C61.8973 47.5303 62.3242 47.7839 62.6135 48.166C62.9021 48.5481 63.0295 49.0282 62.9681 49.5032C62.9329 49.7592 62.8426 50.0047 62.7044 50.2228C62.5661 50.4411 62.3818 50.6269 62.1655 50.7679C62.6231 50.8454 63.0327 51.0979 63.3073 51.4721C63.5818 51.8462 63.7002 52.3126 63.6369 52.7724Z" stroke="#1F2223" stroke-width="0.48" stroke-linecap="round" stroke-linejoin="round"/>
<path d="M13.9619 70.709L16.7344 76.6674" stroke="#1F2223" stroke-width="0.48" stroke-linecap="round" stroke-linejoin="round"/>
<path d="M19.7861 83.2217L25.3804 95.2364" stroke="#1F2223" stroke-width="0.48" stroke-linecap="round" stroke-linejoin="round"/>
<path d="M17.1963 69.2012L20.5038 76.3026" stroke="#1F2223" stroke-width="0.48" stroke-linecap="round" stroke-linejoin="round"/>
<path d="M24.5049 84.9121L27.1558 90.603" stroke="#1F2223" stroke-width="0.48" stroke-linecap="round" stroke-linejoin="round"/>
<path d="M27.5693 91.4668L28.6151 93.7292" stroke="#1F2223" stroke-width="0.48" stroke-linecap="round" stroke-linejoin="round"/>
<path d="M108.424 33.3516C107.355 33.4252 103.752 33.8181 104.22 34.7736C104.71 35.7676 109.468 35.9436 110.674 35.9404C115.487 35.9282 118.956 34.6047 115.113 33.7042" stroke="#1F2223" stroke-width="0.48" stroke-linecap="round" stroke-linejoin="round"/>
<path d="M56.7891 76.5432C57.27 75.5903 57.7011 74.613 58.0806 73.6152V77.1781" stroke="#1F2223" stroke-width="0.48" stroke-linecap="round" stroke-linejoin="round"/>
</svg>
