<svg width="127" height="98" viewBox="0 0 127 98" fill="none" xmlns="http://www.w3.org/2000/svg">
<path d="M90.2518 21.6614C84.4381 16.9563 77.8879 13.2425 70.8657 10.6693C58.0665 5.92257 45.0906 5.21505 34.2534 7.89798" stroke="black" stroke-width="0.75" stroke-linecap="round" stroke-linejoin="round"/>
<path d="M99.4839 74.0662C102.461 71.1583 104.761 67.6292 106.217 63.7307C108.062 58.6641 108.454 53.1837 107.349 47.9062H107.327" stroke="black" stroke-width="0.75" stroke-linecap="round" stroke-linejoin="round"/>
<path d="M56.1675 84.0821C64.8133 85.8248 73.7395 85.6125 82.2927 83.4609" stroke="black" stroke-width="0.75" stroke-linecap="round" stroke-linejoin="round"/>
<path d="M7.94958 34.0781C6.50977 45.6944 12.3242 58.1277 23.0566 67.8689" stroke="black" stroke-width="0.75" stroke-linecap="round" stroke-linejoin="round"/>
<path d="M9.42129 3.90836C5.47967 6.70712 2.19005 11.2663 1.31046 16.0197C0.430797 20.7732 1.43725 25.6824 4.11636 29.7063C6.79547 33.7302 10.9366 36.5523 15.6615 37.5741C20.3864 38.5961 25.3236 37.7374 29.4261 35.1802C33.5285 32.6231 36.4737 28.5686 37.637 23.8765C38.8002 19.1843 38.0902 14.2236 35.6573 10.0462C33.2244 5.86888 29.2601 2.80339 24.605 1.49978C19.9499 0.196236 13.6698 1.59831 9.42129 3.9047" stroke="black" stroke-width="0.75" stroke-linecap="round" stroke-linejoin="round"/>
<path d="M29.466 25.0234C29.6266 25.8336 29.183 28.7118 27.25 28.7146C25.4295 28.7146 25.0312 26.067 24.9513 25.2406C18.2461 26.0097 11.3852 28.9771 9.91992 35.4573C12.2 36.8413 14.75 37.7209 17.3984 38.0371C20.0468 38.3532 22.7323 38.0984 25.274 37.2899C27.8157 36.4815 30.1548 35.1381 32.134 33.35C34.1131 31.5619 35.6863 29.3707 36.7478 26.9238C34.6755 25.4685 32.0668 25.0638 29.466 25.0234Z" fill="#CFD181"/>
<path d="M29.466 25.0234C29.6266 25.8336 29.183 28.7118 27.25 28.7146C25.4295 28.7146 25.0312 26.0677 24.9513 25.2406C18.2461 26.0097 11.3852 28.9771 9.91992 35.4573C12.2 36.8413 14.75 37.7209 17.3984 38.0371C20.0468 38.3532 22.7323 38.0984 25.274 37.2899C27.8157 36.4815 30.1548 35.1381 32.134 33.35C34.1131 31.5619 35.6863 29.3707 36.7478 26.9238C34.6755 25.4685 32.0668 25.0638 29.466 25.0234Z" stroke="black" stroke-width="0.75" stroke-linecap="round" stroke-linejoin="round"/>
<path d="M27.3576 15.2579C25.5846 14.4648 24.5389 15.9874 26.0799 17.2694C27.2777 15.5006 28.9941 16.4006 28.876 18.712C29.1116 18.0513 29.0856 17.3254 28.8033 16.6832C28.521 16.041 28.0038 15.5311 27.3576 15.2579Z" fill="black"/>
<path d="M27.3576 15.2579C25.5846 14.4648 24.5389 15.9874 26.0799 17.2694C27.2777 15.5006 28.9941 16.4006 28.876 18.712C29.1116 18.0513 29.0856 17.3254 28.8033 16.6832C28.521 16.041 28.0038 15.5311 27.3576 15.2579Z" stroke="black" stroke-width="0.75" stroke-linecap="round" stroke-linejoin="round"/>
<path d="M29.4664 25.0226C29.3701 23.9613 29.1126 22.9262 28.8006 20.1541C29.4183 19.6546 29.5944 18.8572 29.3185 18.6683C29.2476 18.6332 29.1684 18.6182 29.0897 18.6252C29.0109 18.6323 28.9356 18.6608 28.872 18.708C28.9336 17.5115 28.4688 16.5189 27.6976 16.3583C26.7891 16.1687 25.8007 17.2073 25.4922 18.686C25.2425 19.8824 25.512 20.9904 26.1092 21.4708C25.8083 22.7498 25.4215 24.0071 24.9517 25.2342C25.0302 26.0563 25.4271 28.7145 27.2504 28.7123C29.1869 28.7109 29.627 25.8327 29.4664 25.0226Z" stroke="black" stroke-width="0.75" stroke-linecap="round" stroke-linejoin="round"/>
<path d="M26.1097 21.4726C26.0319 21.7641 25.952 22.0591 25.8706 22.3527C26.7465 22.807 27.6359 21.9282 28.0569 20.9844C27.3734 21.8426 26.593 21.8709 26.1097 21.4726Z" fill="#CFD181"/>
<path d="M26.1097 21.4726C26.0319 21.7641 25.952 22.0591 25.8706 22.3527C26.7465 22.807 27.6359 21.9282 28.0569 20.9844C27.3734 21.8426 26.593 21.8709 26.1097 21.4726Z" fill="black" stroke="black" stroke-width="0.75" stroke-linecap="round" stroke-linejoin="round"/>
<path d="M107.327 10.5625C103.633 10.5626 100.024 11.6579 96.9529 13.7098C93.8822 15.7617 91.4887 18.6781 90.0757 22.0901C88.6621 25.5021 88.2928 29.2567 89.013 32.8788C89.734 36.5009 91.512 39.8281 94.1235 42.4398C96.7357 45.0506 100.062 46.8293 103.685 47.5496C107.307 48.2698 111.062 47.9005 114.473 46.4869C117.886 45.0739 120.801 42.6804 122.853 39.6095C124.905 36.5388 126 32.9286 126 29.2355C126 26.7833 125.517 24.355 124.579 22.0895C123.641 19.8239 122.265 17.7654 120.531 16.0314C118.797 14.2974 116.738 12.922 114.473 11.9837C112.207 11.0453 109.779 10.5624 107.327 10.5625Z" stroke="black" stroke-width="0.75" stroke-linecap="round" stroke-linejoin="round"/>
<path d="M106.949 28.0917C106.309 27.716 106.1 26.8691 106.466 26.5982C106.558 26.5434 106.664 26.5157 106.772 26.5181C106.879 26.5207 106.984 26.5533 107.074 26.6123C107.049 25.551 107.467 24.2428 108.489 24.073C109.736 23.9435 110.619 25.3989 110.795 26.6307C111.047 28.1483 110.496 29.5132 109.555 29.7664C109.768 30.8391 109.838 30.9883 110.454 34.8295C113.111 35.5494 115.632 36.6997 117.916 38.2348C114.732 31.0888 111.347 22.8426 108.046 22.3304C105.832 21.9858 104.407 24.1041 103.931 25.302C101.218 32.1267 95.7621 33.372 92.6865 40.808C93.4238 41.7433 94.248 42.6058 95.1487 43.3848C97.8373 39.9534 101.781 36.5367 105.62 35.2094C105.655 35.041 106.798 29.6518 106.949 28.0917Z" fill="black"/>
<path d="M117.916 38.2348C114.732 31.0888 111.347 22.8426 108.046 22.3304C105.832 21.9858 104.407 24.1041 103.931 25.302C101.218 32.1267 95.7621 33.372 92.6865 40.808" stroke="black" stroke-width="0.75" stroke-linecap="round" stroke-linejoin="round"/>
<path d="M105.622 35.2074C101.77 36.5255 97.8561 39.9407 95.1689 43.4073C97.063 45.0346 99.2641 46.265 101.643 47.0263C104.021 47.7876 106.528 48.0635 109.014 47.8378C111.501 47.6128 113.918 46.8904 116.12 45.7145C118.323 44.5386 120.267 42.9326 121.838 40.9911C118.205 38.1733 113.802 35.5569 110.451 34.8359" stroke="black" stroke-width="0.75" stroke-linecap="round" stroke-linejoin="round"/>
<path d="M110.792 26.6285C110.616 25.3967 109.731 23.9398 108.486 24.0707C107.465 24.2405 107.047 25.5474 107.071 26.6101C106.981 26.551 106.876 26.5184 106.769 26.5159C106.661 26.5135 106.555 26.5411 106.462 26.5959C106.097 26.8669 106.306 27.7138 106.946 28.0895C106.795 29.6736 105.618 35.2128 105.618 35.2128L109.744 41.4389L110.499 35.1329C109.836 30.991 109.767 30.863 109.551 29.7621C110.492 29.5109 111.044 28.1461 110.792 26.6285Z" stroke="black" stroke-width="0.75" stroke-linecap="round" stroke-linejoin="round"/>
<path d="M107.648 28.6875C108.016 29.9434 108.88 30.8037 109.746 30.723C109.675 30.4054 109.613 30.082 109.552 29.77C109.16 29.8198 108.763 29.7412 108.42 29.546C108.076 29.3509 107.806 29.0496 107.648 28.6875Z" fill="#CFD181"/>
<path d="M107.648 28.6875C108.016 29.9434 108.88 30.8037 109.746 30.723C109.675 30.4054 109.613 30.082 109.552 29.77C109.16 29.8198 108.763 29.7412 108.42 29.546C108.076 29.3509 107.806 29.0496 107.648 28.6875Z" fill="black" stroke="black" stroke-width="0.75" stroke-linecap="round" stroke-linejoin="round"/>
<path d="M107.041 49.3042C102.517 49.9012 101.405 51.3905 106.188 48.3891C106.375 48.2781 106.514 48.101 106.579 47.893C106.643 47.6851 106.628 47.4612 106.536 47.2637C106.444 47.0662 106.283 46.9099 106.083 46.8252C105.882 46.7399 105.657 46.7325 105.452 46.8034C102.259 47.5728 102.45 48.2103 96.5709 49.7035C95.5869 49.5344 96.3301 48.8427 96.4278 46.9294C96.5118 46.4044 96.5388 45.8724 96.507 45.3415C96.4666 44.6728 95.3306 44.609 95.0816 45.2584C94.2668 47.3907 92.8518 48.5839 92.7954 50.5734C92.7568 51.9337 91.3422 52.3076 89.7513 52.4413C85.2047 52.4112 79.0726 51.3499 78.6802 51.0197C75.9962 48.748 74.9007 44.936 73.2186 41.8458L67.2171 45.6083C67.9276 48.1107 70.5922 54.3702 70.874 56.8882C70.9463 57.5153 70.9396 58.149 70.8546 58.7744C72.7849 59.9009 75.0344 60.3551 77.2508 60.066L90.6151 58.3356C92.9261 58.1362 94.1565 59.4493 97.805 58.6927C100.486 58.1367 103.528 56.3401 106.145 55.1C106.322 55.0292 106.464 54.8936 106.543 54.7212C106.622 54.5488 106.633 54.3528 106.571 54.1728C106.51 53.9934 106.383 53.8437 106.214 53.7557C106.046 53.667 105.851 53.6466 105.668 53.6981C105.069 53.7719 104.96 53.9637 106.733 52.9392C106.874 52.8685 106.991 52.7598 107.071 52.6249C107.151 52.4894 107.19 52.3345 107.184 52.1773C107.179 52.0206 107.127 51.8687 107.038 51.7399C106.948 51.6112 106.823 51.511 106.678 51.4512C106.998 51.3052 107.313 51.159 107.622 51.012C107.849 50.9353 108.035 50.771 108.14 50.5568C108.246 50.3425 108.262 50.0948 108.186 49.8679C108.109 49.6418 107.945 49.4546 107.73 49.3493C107.516 49.2433 107.268 49.2276 107.041 49.3042Z" fill="#FFEFC8"/>
<path d="M78.2695 59.9306L90.6138 58.3308C92.9248 58.1315 94.1552 59.4445 97.8037 58.6879C100.485 58.1319 103.526 56.3353 106.144 55.0952C106.32 55.0244 106.462 54.8889 106.542 54.7164C106.621 54.544 106.631 54.348 106.57 54.168C106.509 53.9886 106.381 53.8389 106.213 53.7509C106.045 53.6622 105.85 53.6418 105.667 53.6933C105.067 53.7671 104.959 53.9589 106.732 52.9344C106.872 52.8645 106.99 52.755 107.07 52.6201C107.149 52.4846 107.189 52.3297 107.183 52.1725C107.177 52.0158 107.126 51.8639 107.036 51.7352C106.947 51.6064 106.821 51.5062 106.676 51.4464C106.996 51.3004 107.311 51.1542 107.621 51.0072C107.836 50.9225 108.011 50.7579 108.108 50.5474C108.206 50.3374 108.219 50.0978 108.144 49.8787C108.069 49.6587 107.913 49.4763 107.708 49.3694C107.503 49.2618 107.264 49.238 107.041 49.3022C102.517 49.8991 101.405 51.3884 106.188 48.3871C106.375 48.2761 106.514 48.0989 106.578 47.891C106.643 47.6831 106.628 47.4592 106.536 47.2616C106.444 47.0641 106.283 46.9079 106.082 46.8233C105.882 46.7379 105.657 46.7304 105.452 46.8013C102.259 47.5707 102.45 48.2083 96.5706 49.7014C95.5866 49.5324 96.3298 48.8407 96.4275 46.9273C96.5114 46.4023 96.5385 45.8704 96.5067 45.3395C96.4663 44.6708 95.3303 44.607 95.0813 45.2564C94.2665 47.3886 92.8515 48.5818 92.7951 50.5713C92.7565 51.9317 91.3418 52.3055 89.751 52.4393C85.2044 52.4091 79.0723 51.3478 78.6799 51.0176C75.9959 48.746 74.9003 44.934 73.2183 41.8438" stroke="black" stroke-width="0.75" stroke-linecap="round" stroke-linejoin="round"/>
<path d="M103.086 50.1993L100.428 51.2188" stroke="black" stroke-width="0.75" stroke-linecap="round" stroke-linejoin="round"/>
<path d="M106.676 51.4451L101.397 53.1184" stroke="black" stroke-width="0.75" stroke-linecap="round" stroke-linejoin="round"/>
<path d="M105.271 53.7508L101.599 54.9074" stroke="black" stroke-width="0.75" stroke-linecap="round" stroke-linejoin="round"/>
<path d="M98.6767 57.0983C98.4758 56.4937 98.1118 55.9558 97.625 55.545C97.1381 55.1334 96.5478 54.8641 95.9176 54.7675C96.6125 54.2351 97.1569 53.5319 97.4986 52.7264C97.8404 51.921 97.9682 51.0408 97.8681 50.1713" stroke="black" stroke-width="0.75" stroke-linecap="round" stroke-linejoin="round"/>
<path d="M54.311 68.7714C55.0192 68.9112 55.7498 68.8915 56.4495 68.7136C62.1208 67.148 71.7008 64.2997 70.8724 56.8826C70.5884 54.3434 67.8828 48.0028 67.1986 45.5418C70.698 43.4748 73.2191 41.8399 73.2191 41.8399C71.7275 39.0943 70.6888 36.1184 69.1836 33.3784C67.748 30.7621 62.585 28.7363 56.4027 27.1737C55.6568 26.9891 54.8798 26.9719 54.1266 27.1232C53.3735 27.2744 52.6631 27.5904 52.0466 28.0486C49.1585 30.195 45.9005 32.0643 43.3516 34.3834C41.1189 36.2981 39.9601 38.8619 39.0112 41.6261C38.4019 43.3994 38.1224 46.8144 38.0199 50.5619" stroke="black" stroke-width="0.75" stroke-linecap="round" stroke-linejoin="round"/>
<path d="M49.4245 49.4336L49.8051 44.6297" stroke="black" stroke-width="0.75" stroke-linecap="round" stroke-linejoin="round"/>
<path d="M67.1982 45.5427L66.1328 42.0312" stroke="black" stroke-width="0.75" stroke-linecap="round" stroke-linejoin="round"/>
<path d="M80.6111 65.0563C79.8551 63.3829 79.1298 60.2811 76.7106 58.1074C74.4504 56.0767 63.5526 53.4707 48.8221 59.1362C48.1297 56.6995 49.064 53.71 49.4235 49.4325L38.014 50.6062C37.8635 53.796 37.8815 57.2551 37.9421 59.9118C41.0668 59.8322 44.1614 60.5381 46.9426 61.9647C49.7238 63.3913 52.1024 65.4931 53.8607 68.0776C55.1282 67.3867 56.3546 66.6617 57.4751 65.9661C61.9004 63.2199 63.5477 60.9458 68.0283 63.6948C68.7374 64.1297 73.2052 66.7129 73.5692 67.1605C74.3732 68.1447 76.4522 71.7332 77.2938 72.3572C77.4598 72.4574 77.653 72.503 77.8463 72.4874C78.0389 72.4718 78.2224 72.3961 78.3703 72.2713C78.5189 72.1458 78.6239 71.9778 78.6707 71.7895C78.7182 71.6018 78.7057 71.4039 78.6345 71.2235C79.3596 71.2684 80.0559 70.8603 79.7404 69.86C80.1832 70.0158 80.8957 69.6822 80.4321 68.0726C80.5468 68.1227 80.6741 68.1366 80.7967 68.1119C81.4469 67.7805 81.393 66.7867 80.6111 65.0563Z" fill="#FFEFC8"/>
<path d="M53.8602 68.0791C55.1277 67.3882 56.354 66.6632 57.4745 65.9675C61.8998 63.2213 63.5472 60.9473 68.0278 63.6963C68.7368 64.1312 73.2047 66.7143 73.5686 67.162C74.3726 68.1462 76.4516 71.7347 77.2932 72.3586C77.4593 72.4589 77.6525 72.5045 77.8457 72.4889C78.0383 72.4733 78.2218 72.3975 78.3698 72.2728C78.5183 72.1473 78.6234 71.9793 78.6701 71.791C78.7177 71.6033 78.7051 71.4054 78.634 71.225C79.3591 71.2699 80.0554 70.8618 79.7398 69.8615C80.1826 70.0173 80.8951 69.6837 80.4315 68.0741C80.5462 68.1242 80.6735 68.1381 80.7962 68.1134C81.4469 67.7805 81.393 66.7867 80.6111 65.0563C79.8551 63.3829 79.1298 60.2811 76.7106 58.1074C74.4504 56.0767 63.5526 53.4707 48.8221 59.1362C48.1297 56.6995 49.064 53.71 49.4235 49.4325L38.014 50.6062C37.8635 53.796 37.8815 57.2551 37.9421 59.9118" stroke="black" stroke-width="0.75" stroke-linecap="round" stroke-linejoin="round"/>
<path d="M74.7144 64C75.9128 64.8227 77.9608 69.6861 78.6323 71.2288" stroke="black" stroke-width="0.75" stroke-linecap="round" stroke-linejoin="round"/>
<path d="M75.8218 62.6328C77.0202 63.4555 79.0682 68.3189 79.7398 69.8623" stroke="black" stroke-width="0.75" stroke-linecap="round" stroke-linejoin="round"/>
<path d="M76.9043 61.4883C77.9237 62.1879 79.2661 65.4197 80.4327 68.0757" stroke="black" stroke-width="0.75" stroke-linecap="round" stroke-linejoin="round"/>
<path d="M55.0332 19.8325C55.718 18.6759 55.3432 17.3624 54.5745 18.2772C53.0875 16.0595 52.2326 15.7762 50.6133 15.4883C52.0361 19.2666 50.6502 21.2336 51.9732 22.2433C52.0832 24.6055 52.134 27.4296 52.0564 28.2726L57.0226 33.7441L56.9978 27.7643C56.5176 25.0802 55.861 22.4305 55.0332 19.8325Z" fill="#FFEFC8"/>
<path d="M55.0332 19.8325C55.718 18.6759 55.3432 17.3624 54.5745 18.2772C53.0875 16.0595 52.2326 15.7762 50.6133 15.4883C52.0361 19.2666 50.6502 21.2336 51.9732 22.2433C52.0832 24.6055 52.134 27.4296 52.0564 28.2726L57.0226 33.7441L56.9978 27.7643C56.5176 25.0802 55.861 22.4305 55.0332 19.8325Z" stroke="black" stroke-width="0.75" stroke-linecap="round" stroke-linejoin="round"/>
<path d="M51.973 22.2424C51.9838 22.5002 52.0101 22.9769 52.0197 23.2433C52.8729 23.9315 55.2266 23.7805 54.6608 20.4993C54.7177 22.9124 52.787 22.8194 51.973 22.2424Z" fill="#FFEFC8"/>
<path d="M51.973 22.2424C51.9838 22.5002 52.0101 22.9769 52.0197 23.2433C52.8729 23.9315 55.2266 23.7805 54.6608 20.4993C54.7177 22.9124 52.787 22.8194 51.973 22.2424Z" fill="black" stroke="black" stroke-width="0.75" stroke-linecap="round" stroke-linejoin="round"/>
<path d="M51.5885 9.73879C52.7154 11.125 54.1303 16.5465 54.5744 18.2775C52.5906 15.3186 51.4326 15.7948 49.9335 15.3409C49.2542 15.1209 48.6343 14.7481 48.1216 14.2509C47.609 13.7539 47.2172 13.1459 46.9763 12.4736C45.6911 9.0922 49.9566 7.73162 51.5885 9.73879Z" fill="black"/>
<path d="M51.5885 9.73879C52.7154 11.125 54.1303 16.5465 54.5744 18.2775C52.5906 15.3186 51.4326 15.7948 49.9335 15.3409C49.2542 15.1209 48.6343 14.7481 48.1216 14.2509C47.609 13.7539 47.2172 13.1459 46.9763 12.4736C45.6911 9.0922 49.9566 7.73162 51.5885 9.73879Z" stroke="black" stroke-width="0.75" stroke-linecap="round" stroke-linejoin="round"/>
<path d="M38.2896 60.0039C34.596 60.0039 30.9853 61.0984 27.9141 63.1503C24.8429 65.2021 22.4492 68.1192 21.0355 71.5316C19.622 74.944 19.252 78.6988 19.9725 82.3213C20.693 85.9438 22.4717 89.2713 25.0833 91.8828C27.6951 94.495 31.0227 96.2737 34.6453 96.9939C38.2679 97.7142 42.0228 97.3449 45.4352 95.9312C48.8475 94.5176 51.7641 92.1233 53.8159 89.0527C55.8678 85.9813 56.9628 82.3701 56.9625 78.6769C56.9625 76.2246 56.4796 73.7964 55.5411 71.5309C54.6027 69.2654 53.2273 67.2072 51.4934 65.4731C49.7594 63.7389 47.7009 62.3635 45.4354 61.4253C43.1699 60.4871 40.7418 60.0039 38.2896 60.0039Z" stroke="black" stroke-width="0.75" stroke-linecap="round" stroke-linejoin="round"/>
<path d="M46.9872 88.1177C47.6269 87.6387 48.1501 87.021 48.5177 86.3114C48.8853 85.6017 49.0877 84.8185 49.1098 84.0197C49.1098 81.0481 46.2966 78.5937 42.6423 78.1869C44.9184 75.0922 42.1081 70.8711 37.1293 70.8711C32.7617 70.8711 30.0484 74.0854 31.0205 77.0053C24.3896 75.9172 19.7369 81.6658 22.7899 86.0178C22.3195 86.2152 21.8734 86.4663 21.4604 86.7656C22.415 88.7594 23.7165 90.5671 25.3044 92.1046C28.2196 90.5417 31.4017 89.5391 34.6862 89.1486C34.8933 86.888 34.9729 84.6183 34.9246 82.3493C34.4038 82.0769 34.0034 81.6198 33.8018 81.0679C33.808 80.9632 33.8444 80.8627 33.9067 80.7785C33.969 80.6944 34.0545 80.63 34.1527 80.5932C34.2509 80.5564 34.3577 80.5493 34.4599 80.572C34.5622 80.5953 34.6556 80.6477 34.7286 80.7227C34.9594 80.9123 35.1777 81.1167 35.3824 81.3347C35.3824 81.3347 35.1864 78.7529 38.4318 78.3935C38.8531 79.6154 39.1434 80.8783 39.2978 82.161C39.3431 82.3691 39.3423 82.5849 39.2955 82.7922C39.2486 83.0002 39.1568 83.1955 39.0266 83.3638C38.8963 83.5322 38.7307 83.6702 38.5414 83.7685C38.3522 83.8662 38.1438 83.9214 37.9309 83.9299C38.4325 85.9166 38.3193 85.502 39.2992 89.0162C39.9974 89.0941 40.6878 89.2313 41.3631 89.4252C44.271 90.3018 45.553 91.0369 50.1116 93.1376C50.6207 92.718 51.1081 92.273 51.5719 91.8039C51.1851 90.8494 50.5608 90.0103 49.7584 89.3651C48.956 88.7198 48.0021 88.2903 46.9872 88.1177Z" fill="black"/>
<path d="M46.9872 88.1177C47.6269 87.6387 48.1501 87.021 48.5177 86.3114C48.8853 85.6017 49.0877 84.8185 49.1098 84.0197C49.1098 81.0481 46.2966 78.5937 42.6423 78.1869C44.9184 75.0922 42.1081 70.8711 37.1293 70.8711C32.7617 70.8711 30.0484 74.0861 31.0205 77.0053C24.3896 75.9172 19.7369 81.6658 22.7899 86.0178C22.3195 86.2152 21.8734 86.4663 21.4604 86.7656C22.7588 89.4613 24.6855 91.8053 27.0785 93.601C29.4714 95.3967 32.2606 96.5917 35.2115 97.0856C38.1624 97.5787 41.1886 97.3565 44.0357 96.4367C46.8827 95.517 49.4673 93.9272 51.5719 91.8011C51.1846 90.8473 50.5603 90.0082 49.7579 89.3636C48.9555 88.7191 48.0018 88.2903 46.9872 88.1177Z" stroke="black" stroke-width="0.75" stroke-linecap="round" stroke-linejoin="round"/>
<path d="M34.9236 82.3503C34.4027 82.0786 34.0022 81.6215 33.8008 81.069C33.807 80.9643 33.8434 80.8638 33.9058 80.7796C33.968 80.6954 34.0535 80.631 34.1517 80.5942C34.2499 80.5581 34.3567 80.5504 34.4589 80.5737C34.5612 80.5963 34.6545 80.6487 34.7276 80.7237C34.9582 80.914 35.1766 81.1185 35.3814 81.3357C35.3814 81.3357 35.1854 78.754 38.4308 78.3945C38.8522 79.6164 39.1425 80.8794 39.2968 82.1621C39.3422 82.3701 39.3413 82.5859 39.2945 82.7939C39.2476 83.0012 39.1558 83.1965 39.0256 83.3649C38.8953 83.534 38.7297 83.6719 38.5404 83.7696C38.3511 83.8672 38.1428 83.9224 37.9299 83.9309C38.4322 85.9219 38.3112 85.4783 39.2982 89.0173C39.2982 89.0173 38.5426 91.8382 38.2645 93.1457L34.6406 89.059C34.8637 86.8303 34.9581 84.5903 34.9236 82.3503Z" stroke="black" stroke-width="0.75" stroke-linecap="round" stroke-linejoin="round"/>
<path d="M36.3306 82.9609C36.4888 83.2489 36.7198 83.4895 37.0004 83.6593C37.2811 83.8291 37.6016 83.9225 37.9296 83.9288L38.1149 84.6668C37.1874 84.671 36.3383 83.0826 36.3306 82.9609Z" fill="#CFD181"/>
<path d="M36.3306 82.9609C36.4888 83.2489 36.7198 83.4895 37.0004 83.6593C37.2811 83.8291 37.6016 83.9225 37.9296 83.9288L38.1149 84.6668C37.1874 84.671 36.3383 83.0826 36.3306 82.9609Z" fill="black" stroke="black" stroke-width="0.75" stroke-linecap="round" stroke-linejoin="round"/>
<path d="M90.3337 22.7669C90.9053 22.7669 91.3695 22.3032 91.3695 21.7311C91.3695 21.1591 90.9053 20.6953 90.3337 20.6953C89.7613 20.6953 89.2979 21.1591 89.2979 21.7311C89.2979 22.3032 89.7613 22.7669 90.3337 22.7669Z" fill="#CFD181"/>
<path d="M90.3337 22.7669C90.9053 22.7669 91.3695 22.3032 91.3695 21.7311C91.3695 21.1591 90.9053 20.6953 90.3337 20.6953C89.7613 20.6953 89.2979 21.1591 89.2979 21.7311C89.2979 22.3032 89.7613 22.7669 90.3337 22.7669Z" stroke="black" stroke-width="0.75" stroke-linecap="round" stroke-linejoin="round"/>
<path d="M7.95281 35.1146C8.52484 35.1146 8.98862 34.6509 8.98862 34.0788C8.98862 33.5067 8.52484 33.043 7.95281 33.043C7.3807 33.043 6.91699 33.5067 6.91699 34.0788C6.91699 34.6509 7.3807 35.1146 7.95281 35.1146Z" fill="#CFD181"/>
<path d="M7.95281 35.1146C8.52484 35.1146 8.98862 34.6509 8.98862 34.0788C8.98862 33.5067 8.52484 33.043 7.95281 33.043C7.3807 33.043 6.91699 33.5067 6.91699 34.0788C6.91699 34.6509 7.3807 35.1146 7.95281 35.1146Z" stroke="black" stroke-width="0.75" stroke-linecap="round" stroke-linejoin="round"/>
<path d="M56.2497 85.1497C56.8218 85.1497 57.2855 84.6863 57.2855 84.1139C57.2855 83.5423 56.8218 83.0781 56.2497 83.0781C55.6777 83.0781 55.2139 83.5423 55.2139 84.1139C55.2139 84.6863 55.6777 85.1497 56.2497 85.1497Z" fill="#CFD181"/>
<path d="M56.2497 85.1497C56.8218 85.1497 57.2855 84.6863 57.2855 84.1139C57.2855 83.5423 56.8218 83.0781 56.2497 83.0781C55.6777 83.0781 55.2139 83.5423 55.2139 84.1139C55.2139 84.6863 55.6777 85.1497 56.2497 85.1497Z" stroke="black" stroke-width="0.75" stroke-linecap="round" stroke-linejoin="round"/>
<path d="M92.3437 73.1215C92.3437 73.1215 86.8464 69.3848 85.4042 66.3804C83.9619 63.376 88.2039 60.3679 90.056 64.2356C91.9387 68.1635 92.3437 73.1215 92.3437 73.1215Z" stroke="black" stroke-width="0.75" stroke-linecap="round" stroke-linejoin="round"/>
<path d="M92.4594 73.1946C92.4594 73.1946 98.3086 70.045 100.055 67.1995C101.801 64.3539 97.8853 60.9384 95.6515 64.5874C93.371 68.3049 92.4594 73.1946 92.4594 73.1946Z" stroke="black" stroke-width="0.75" stroke-linecap="round" stroke-linejoin="round"/>
<rect x="79.8832" y="72.9267" width="26.4232" height="20.8492" rx="3.625" transform="rotate(1.3461 79.8832 72.9267)" fill="#FDC886" stroke="black" stroke-width="0.75"/>
</svg>
