<svg width="80" height="83" viewBox="0 0 80 83" fill="none" xmlns="http://www.w3.org/2000/svg">
<path d="M2.64697 34.885V81.951H77.393V34.508" stroke="black" stroke-width="1.5" stroke-linecap="round" stroke-linejoin="round"/>
<path d="M45.534 20.546H34.772V81.952H45.534V20.546Z" fill="#CFD181"/>
<path d="M45.534 20.546H34.772V81.952H45.534V20.546Z" stroke="black" stroke-width="1.5" stroke-linecap="round" stroke-linejoin="round"/>
<path d="M1 34.508H78.934V20.546H1V34.508Z" stroke="black" stroke-width="1.5" stroke-linecap="round" stroke-linejoin="round"/>
<path d="M40.1531 20.567C36.8831 9.96002 23.8531 4.57702 12.4191 4.65102C17.7721 13.754 28.1251 20.067 40.1531 20.567Z" stroke="black" stroke-width="1.5" stroke-linecap="round" stroke-linejoin="round"/>
<path d="M40.153 20.567C40.659 20.588 41.167 20.602 41.679 20.602C55.796 20.602 67.844 12.596 72.633 1.317C71.075 1.1067 69.505 1.0008 67.933 1C53.603 1 41.793 9.549 40.153 20.567Z" stroke="black" stroke-width="1.5" stroke-linecap="round" stroke-linejoin="round"/>
</svg>
