<svg width="167" height="120" viewBox="0 0 167 120" fill="none" xmlns="http://www.w3.org/2000/svg">
<path d="M26.5 118.5L81.722 95.2801L74.75 78.5201C74.438 77.7677 73.967 77.0919 73.369 76.5392C72.771 75.9864 72.06 75.5698 71.285 75.318C70.5107 75.0663 69.6908 74.9854 68.882 75.0808C68.0731 75.1763 67.2946 75.4459 66.6 75.8711C61.18 79.2211 62.094 79.5401 59.642 80.5601C58.4951 81.0371 57.2605 81.2661 56.0188 81.2331C54.7772 81.1991 53.5567 80.9041 52.4373 80.3651C51.3179 79.8271 50.3248 79.0587 49.5233 78.1099C48.7217 77.1611 48.1296 76.0536 47.786 74.8601C47.2324 73.0217 47.3038 71.0517 47.989 69.2582C48.6743 67.4648 49.9346 65.949 51.573 64.9481C54.551 63.1111 55.207 64.1621 61.08 62.7341C61.8755 62.5441 62.6204 62.1839 63.2632 61.6782C63.9061 61.1725 64.4316 60.5334 64.8035 59.8049C65.1753 59.0764 65.3848 58.2759 65.4173 57.4587C65.4499 56.6414 65.3047 55.8268 64.992 55.0711L57.992 38.2451L0.959961 61.9771L26.5 118.5Z" stroke="black" stroke-width="1.5" stroke-linecap="round" stroke-linejoin="round"/>
<path d="M149.723 91.0821H166V29.311H104.228V47.535C104.226 48.3529 104.047 49.1606 103.703 49.9026C103.359 50.6446 102.858 51.3031 102.235 51.8328C101.612 52.3624 100.881 52.7507 100.093 52.9706C99.306 53.1906 98.479 53.2371 97.672 53.107C95.945 52.8753 94.244 52.486 92.588 51.944C91.265 51.4483 89.842 51.2779 88.44 51.447C87.037 51.6161 85.696 52.1199 84.529 52.9158C83.362 53.7118 82.403 54.7766 81.733 56.0206C81.064 57.2645 80.703 58.6512 80.681 60.0637C80.66 61.4763 80.978 62.8734 81.609 64.1372C82.24 65.4011 83.166 66.4947 84.308 67.326C85.451 68.1573 86.776 68.7019 88.173 68.9138C89.569 69.1258 90.997 68.9989 92.334 68.544C94.096 68.0127 95.895 67.6163 97.717 67.358C98.522 67.2316 99.345 67.2814 100.129 67.5038C100.913 67.7262 101.64 68.116 102.259 68.6463C102.878 69.1766 103.374 69.8348 103.714 70.5756C104.054 71.3163 104.229 72.122 104.228 72.937V91.0861L149.723 91.0821Z" fill="#CFD181" stroke="black" stroke-width="1.5" stroke-linecap="round" stroke-linejoin="round"/>
<path d="M117.263 27.0872C114.455 18.1458 108.379 10.5916 100.248 5.93141C92.116 1.27121 82.527 -0.152491 73.392 1.94421C64.2578 4.04091 56.2494 9.50391 50.9643 17.2437C45.6792 24.9835 43.506 34.4311 44.878 43.7022" stroke="black" stroke-width="1.5" stroke-linecap="round" stroke-linejoin="round"/>
<path d="M117.911 26.9951C117.453 26.9949 117.005 27.1305 116.624 27.3849C116.243 27.6393 115.946 28.0009 115.771 28.4241C115.595 28.8473 115.549 29.313 115.638 29.7623C115.728 30.2116 115.948 30.6244 116.272 30.9484C116.596 31.2724 117.009 31.4931 117.458 31.5825C117.907 31.6719 118.373 31.6261 118.796 31.4509C119.219 31.2756 119.581 30.9788 119.836 30.5979C120.09 30.217 120.226 29.7692 120.226 29.3111C120.226 28.697 119.982 28.1081 119.548 27.6738C119.114 27.2395 118.525 26.9953 117.911 26.9951Z" fill="black"/>
<path d="M117.911 26.9951C117.453 26.9949 117.005 27.1305 116.624 27.3849C116.243 27.6393 115.946 28.0009 115.771 28.4241C115.595 28.8473 115.549 29.313 115.638 29.7623C115.728 30.2116 115.948 30.6244 116.272 30.9484C116.596 31.2724 117.009 31.4931 117.458 31.5825C117.907 31.6719 118.373 31.6261 118.796 31.4509C119.219 31.2756 119.581 30.9788 119.836 30.5979C120.09 30.217 120.226 29.7692 120.226 29.3111C120.226 28.697 119.982 28.1081 119.548 27.6738C119.114 27.2395 118.525 26.9953 117.911 26.9951Z" stroke="black" stroke-width="1.5" stroke-linecap="round" stroke-linejoin="round"/>
</svg>
