<svg width="505" height="505" viewBox="0 0 505 505" fill="none" xmlns="http://www.w3.org/2000/svg">
<path fill-rule="evenodd" clip-rule="evenodd" d="M126.753 17.1221L179.374 108.323C180.161 109.688 180.575 111.236 180.575 112.811C180.574 114.387 180.16 115.935 179.372 117.3C178.585 118.665 177.453 119.798 176.089 120.588C174.725 121.377 173.178 121.793 171.602 121.796L66.3048 121.803C64.7281 121.802 63.1796 121.385 61.8148 120.596C60.45 119.806 59.3168 118.671 58.5293 117.305C57.7417 115.939 57.3276 114.39 57.3281 112.813C57.3289 111.237 57.7442 109.688 58.5328 108.323L111.164 17.1221C111.955 15.7548 113.091 14.6195 114.459 13.8302C115.828 13.0409 117.379 12.6255 118.959 12.6255C120.538 12.6255 122.09 13.0409 123.458 13.8302C124.826 14.6195 125.963 15.7548 126.753 17.1221ZM118.951 98.5419C120.792 98.5419 122.284 97.0499 122.284 95.2094C122.284 93.3689 120.792 91.8772 118.951 91.8772C117.111 91.8772 115.619 93.3689 115.619 95.2094C115.619 97.0499 117.111 98.5419 118.951 98.5419Z" fill="#FDDE92"/>
<path d="M402.057 97.2835C383.062 93.6853 364.94 104.858 361.657 122.228C360.541 128.313 361.329 134.595 363.915 140.216L355.711 153.649L371.255 150.483C376.474 155.487 383.044 158.856 390.154 160.174C409.15 163.772 427.272 152.599 430.554 135.229C433.862 117.862 421.103 100.882 402.057 97.2835Z" fill="#CFD181"/>
<path d="M163.307 213.085C165.056 213.085 166.473 211.667 166.473 209.918C166.473 208.17 165.056 206.752 163.307 206.752C161.558 206.752 160.141 208.17 160.141 209.918C160.141 211.667 161.558 213.085 163.307 213.085Z" fill="#FDC886"/>
<path d="M191.801 237.264C191.801 237.891 191.616 238.503 191.268 239.023C190.92 239.544 190.425 239.95 189.847 240.19C189.268 240.429 188.632 240.492 188.017 240.37C187.403 240.248 186.839 239.946 186.396 239.503C185.953 239.06 185.652 238.496 185.53 237.882C185.407 237.268 185.47 236.631 185.71 236.053C185.949 235.474 186.355 234.98 186.876 234.632C187.397 234.284 188.009 234.098 188.635 234.098C189.473 234.105 190.274 234.44 190.867 235.033C191.459 235.625 191.795 236.427 191.801 237.264Z" fill="#FDC886"/>
<path d="M221.395 214.236C221.395 214.863 221.209 215.475 220.862 215.995C220.514 216.516 220.019 216.922 219.44 217.162C218.862 217.401 218.225 217.464 217.611 217.342C216.997 217.22 216.433 216.918 215.99 216.475C215.547 216.032 215.245 215.468 215.123 214.854C215.001 214.24 215.064 213.603 215.304 213.024C215.543 212.446 215.949 211.952 216.47 211.604C216.99 211.256 217.603 211.07 218.229 211.07C219.066 211.077 219.867 211.413 220.46 212.005C221.052 212.598 221.388 213.399 221.395 214.236Z" fill="#FDC886"/>
<path d="M253.926 241.292C253.926 241.918 253.742 242.531 253.393 243.051C253.047 243.573 252.552 243.979 251.973 244.219C251.395 244.459 250.758 244.522 250.144 244.4C249.53 244.278 248.965 243.977 248.522 243.534C248.079 243.091 247.777 242.527 247.655 241.913C247.532 241.299 247.595 240.662 247.834 240.083C248.074 239.504 248.48 239.01 249.001 238.662C249.521 238.314 250.134 238.128 250.76 238.128C251.597 238.135 252.398 238.471 252.989 239.062C253.583 239.654 253.918 240.454 253.926 241.292Z" fill="#FDC886"/>
<path d="M281.551 214.236C281.551 214.863 281.364 215.475 281.018 215.995C280.67 216.516 280.175 216.922 279.597 217.162C279.018 217.401 278.382 217.464 277.766 217.342C277.152 217.22 276.589 216.918 276.145 216.475C275.703 216.032 275.403 215.468 275.279 214.854C275.158 214.24 275.221 213.603 275.458 213.024C275.698 212.446 276.105 211.952 276.625 211.604C277.147 211.256 277.758 211.07 278.385 211.07C279.223 211.077 280.023 211.413 280.617 212.005C281.208 212.598 281.543 213.399 281.551 214.236Z" fill="#FDC886"/>
<path d="M316.09 216.059C316.09 216.685 315.903 217.298 315.557 217.818C315.209 218.339 314.714 218.745 314.136 218.985C313.557 219.224 312.921 219.287 312.305 219.165C311.691 219.042 311.128 218.741 310.684 218.298C310.242 217.855 309.939 217.291 309.818 216.677C309.697 216.063 309.76 215.426 309.997 214.847C310.237 214.269 310.644 213.775 311.164 213.427C311.686 213.079 312.297 212.893 312.924 212.893C313.762 212.9 314.562 213.236 315.156 213.828C315.747 214.42 316.082 215.222 316.09 216.059Z" fill="#FDC886"/>
<path d="M351.159 214.236C352.908 214.236 354.325 212.819 354.325 211.07C354.325 209.321 352.908 207.903 351.159 207.903C349.411 207.903 347.992 209.321 347.992 211.07C347.992 212.819 349.411 214.236 351.159 214.236Z" fill="#FDC886"/>
<path d="M337.395 245.177C337.395 245.804 337.208 246.416 336.862 246.937C336.514 247.457 336.019 247.863 335.44 248.103C334.862 248.343 334.226 248.405 333.61 248.283C332.996 248.161 332.433 247.859 331.989 247.416C331.547 246.974 331.246 246.409 331.123 245.795C331.001 245.181 331.065 244.544 331.302 243.966C331.542 243.387 331.948 242.893 332.468 242.545C332.991 242.197 333.602 242.011 334.228 242.011C334.645 242.007 335.059 242.086 335.445 242.243C335.832 242.401 336.183 242.634 336.478 242.929C336.771 243.224 337.006 243.575 337.162 243.961C337.322 244.347 337.4 244.761 337.395 245.177Z" fill="#FDC886"/>
<path d="M115.43 199.031V214.572C117.637 213.66 119.975 212.701 122.434 211.693V203.755C119.823 202.635 117.446 201.032 115.43 199.031Z" fill="#CFD181"/>
<path d="M115.43 232.85V492.327H122.434V228.485C120.227 229.876 117.685 231.507 115.43 232.85Z" fill="#CFD181"/>
<path d="M261.257 179.553L257.422 185.022L257.518 180.368L261.257 179.553Z" fill="#CFD181"/>
<path d="M358.163 195.183L359.314 194.463C359.567 194.332 369.503 190.877 369.667 190.817C363.15 187.565 357.443 189.004 358.163 195.183Z" fill="#CFD181"/>
<path d="M378.987 209.343L372.422 211.646C376.836 213.469 381.259 213.221 382.451 209.527L378.987 209.343Z" fill="#CFD181"/>
<path d="M239.915 485.179C239.359 479.581 238.135 474.071 236.269 468.766C226.032 471.693 215.18 471.693 204.944 468.766C191.369 472.7 175.873 484.739 167.766 492.319C195.013 492.319 213.051 492.08 233.774 492.032C234.643 492.034 235.502 491.852 236.296 491.496C237.089 491.143 237.799 490.628 238.379 489.979C238.958 489.332 239.395 488.57 239.66 487.744C239.924 486.916 240.011 486.042 239.915 485.179Z" fill="#CFD181"/>
<path d="M391.983 444.211L383.06 439.413C379.509 451.071 375.288 454.525 364.301 461.721C369.818 469.973 368.523 474.051 367.899 476.447C362.092 481.916 359.171 481.894 355.141 492.355H375.341C378.052 492.415 380.726 491.698 383.047 490.292C385.367 488.885 387.236 486.845 388.438 484.414C391.468 477.849 393.993 464.555 396.831 456.735C397.715 454.417 397.707 451.854 396.813 449.541C395.917 447.228 394.197 445.329 391.983 444.211Z" fill="#1F2223"/>
<path d="M398.171 139.928C398.151 140.367 397.959 140.78 397.636 141.077C397.313 141.374 396.884 141.53 396.444 141.511C396.005 141.492 395.591 141.3 395.295 140.976C394.997 140.652 394.841 140.223 394.861 139.784C394.871 139.567 394.922 139.353 395.015 139.156C395.106 138.959 395.237 138.782 395.396 138.635C395.558 138.488 395.745 138.374 395.949 138.299C396.154 138.225 396.371 138.191 396.588 138.201C396.805 138.21 397.02 138.262 397.217 138.354C397.414 138.446 397.591 138.576 397.737 138.737C397.884 138.897 398 139.085 398.073 139.289C398.146 139.494 398.181 139.711 398.171 139.928Z" fill="#CFD181"/>
<path d="M115.477 197.927V121.803L122.481 121.796V198.359C118.211 197.591 116.148 197.543 115.477 197.927Z" fill="#CFD181"/>
<path d="M308.18 145.692C309.683 145.261 310.981 144.309 311.844 143.008C312.71 141.706 313.081 140.14 312.897 138.589C312.713 137.037 311.983 135.602 310.837 134.54C309.693 133.478 308.206 132.857 306.645 132.79C307.744 131.8 308.478 130.47 308.731 129.013C308.983 127.556 308.736 126.057 308.034 124.756C307.332 123.455 306.211 122.428 304.855 121.841C303.496 121.253 301.981 121.139 300.552 121.516C301.171 120.201 301.338 118.719 301.027 117.3C300.719 115.88 299.951 114.602 298.843 113.663C297.734 112.724 296.348 112.176 294.896 112.104C293.447 112.031 292.013 112.439 290.816 113.264C290.985 111.757 290.629 110.238 289.808 108.963C288.99 107.687 287.756 106.732 286.316 106.258C284.875 105.785 283.317 105.821 281.9 106.361C280.481 106.901 279.294 107.912 278.534 109.224C278.244 107.653 277.411 106.233 276.184 105.209C274.959 104.186 273.411 103.622 271.815 103.617C270.217 103.611 268.667 104.163 267.432 105.178C266.197 106.193 265.356 107.607 265.053 109.176C264.303 107.858 263.124 106.838 261.71 106.287C260.299 105.735 258.741 105.686 257.297 106.147C255.852 106.608 254.61 107.551 253.777 108.819C252.946 110.086 252.575 111.601 252.726 113.11C251.538 112.274 250.107 111.853 248.655 111.911C247.204 111.968 245.811 112.502 244.693 113.43C243.574 114.357 242.792 115.627 242.466 117.043C242.141 118.459 242.29 119.943 242.892 121.266C241.467 120.887 239.957 120.995 238.6 121.572C237.244 122.149 236.118 123.162 235.403 124.45C234.687 125.739 234.421 127.23 234.648 128.686C234.875 130.143 235.581 131.482 236.655 132.492C235.094 132.547 233.604 133.155 232.45 134.206C231.295 135.257 230.551 136.684 230.349 138.232C230.148 139.78 230.502 141.35 231.349 142.661C232.197 143.973 233.482 144.942 234.976 145.395C233.479 145.836 232.188 146.794 231.331 148.099C230.475 149.403 230.109 150.969 230.299 152.518C230.489 154.067 231.223 155.498 232.369 156.557C233.515 157.616 235 158.233 236.559 158.3C235.474 159.301 234.755 160.636 234.518 162.094C234.282 163.551 234.54 165.046 235.253 166.339C235.966 167.632 237.091 168.648 238.45 169.226C239.809 169.804 241.322 169.91 242.748 169.526C242.259 170.564 242.051 171.712 242.145 172.855C242.238 173.999 242.629 175.098 243.28 176.043C243.93 176.988 244.816 177.747 245.851 178.242C246.886 178.738 248.032 178.954 249.176 178.868C246.25 176.518 245.194 171.293 249.992 160.209C258.531 140.494 266.349 154.26 266.253 162.272C266.397 163.711 267.212 163.999 269.371 162.224C273.881 158.482 277.815 166.35 269.227 170.857C267.596 171.723 266.493 173.634 267.884 184.239C267.97 184.998 268.096 185.75 268.268 186.494C269.204 186.973 270.24 187.224 271.29 187.228C272.341 187.232 273.378 186.988 274.318 186.516C275.257 186.044 276.072 185.357 276.696 184.512C277.32 183.666 277.736 182.685 277.911 181.648C278.65 182.974 279.825 184.004 281.234 184.568C282.642 185.131 284.203 185.193 285.652 184.743C287.102 184.294 288.354 183.36 289.197 182.097C290.038 180.835 290.422 179.322 290.283 177.81C291.462 178.657 292.886 179.092 294.338 179.048C295.788 179.003 297.184 178.482 298.308 177.565C299.434 176.648 300.224 175.385 300.56 173.973C300.896 172.562 300.757 171.078 300.163 169.753C301.585 170.136 303.092 170.035 304.448 169.465C305.804 168.896 306.933 167.891 307.653 166.608C308.375 165.326 308.647 163.84 308.428 162.385C308.211 160.93 307.514 159.59 306.448 158.575C307.993 158.504 309.466 157.893 310.607 156.848C311.748 155.803 312.485 154.39 312.693 152.857C312.897 151.323 312.559 149.766 311.736 148.457C310.91 147.148 309.652 146.169 308.18 145.692Z" fill="#1F2223"/>
<path d="M163.307 213.085C165.056 213.085 166.473 211.667 166.473 209.918C166.473 208.17 165.056 206.752 163.307 206.752C161.558 206.752 160.141 208.17 160.141 209.918C160.141 211.667 161.558 213.085 163.307 213.085Z" stroke="#1F2223" stroke-width="1.1"/>
<path d="M191.801 237.264C191.801 237.891 191.616 238.503 191.268 239.023C190.92 239.544 190.425 239.95 189.847 240.19C189.268 240.429 188.632 240.492 188.017 240.37C187.403 240.248 186.839 239.946 186.396 239.503C185.953 239.06 185.652 238.496 185.53 237.882C185.407 237.268 185.47 236.631 185.71 236.053C185.949 235.474 186.355 234.98 186.876 234.632C187.397 234.284 188.009 234.098 188.635 234.098C189.473 234.105 190.274 234.44 190.867 235.033C191.459 235.625 191.795 236.427 191.801 237.264Z" stroke="#1F2223" stroke-width="1.1"/>
<path d="M221.403 214.236C221.403 214.863 221.217 215.475 220.869 215.995C220.521 216.516 220.027 216.922 219.448 217.162C218.87 217.401 218.233 217.464 217.619 217.342C217.005 217.22 216.44 216.918 215.998 216.475C215.555 216.032 215.253 215.468 215.131 214.854C215.009 214.24 215.072 213.603 215.311 213.024C215.551 212.446 215.957 211.952 216.478 211.604C216.998 211.256 217.61 211.07 218.237 211.07C219.074 211.077 219.875 211.413 220.468 212.005C221.06 212.598 221.396 213.399 221.403 214.236Z" stroke="#1F2223" stroke-width="1.1"/>
<path d="M253.926 241.292C253.926 241.918 253.742 242.531 253.393 243.051C253.047 243.573 252.552 243.979 251.973 244.219C251.395 244.459 250.758 244.522 250.144 244.4C249.53 244.278 248.965 243.977 248.522 243.534C248.079 243.091 247.777 242.527 247.655 241.913C247.532 241.299 247.595 240.662 247.834 240.083C248.074 239.504 248.48 239.01 249.001 238.662C249.521 238.314 250.134 238.128 250.76 238.128C251.597 238.135 252.398 238.471 252.989 239.062C253.583 239.654 253.918 240.454 253.926 241.292Z" stroke="#1F2223" stroke-width="1.1"/>
<path d="M281.559 214.236C281.559 214.863 281.372 215.475 281.026 215.995C280.678 216.516 280.183 216.922 279.604 217.162C279.026 217.401 278.39 217.464 277.774 217.342C277.16 217.22 276.597 216.918 276.153 216.475C275.711 216.032 275.41 215.468 275.287 214.854C275.165 214.24 275.229 213.603 275.466 213.024C275.706 212.446 276.112 211.952 276.633 211.604C277.155 211.256 277.766 211.07 278.392 211.07C279.231 211.077 280.031 211.413 280.625 212.005C281.215 212.598 281.551 213.399 281.559 214.236Z" stroke="#1F2223" stroke-width="1.1"/>
<path d="M316.098 216.059C316.098 216.685 315.911 217.298 315.565 217.818C315.217 218.339 314.722 218.745 314.144 218.985C313.565 219.224 312.929 219.287 312.313 219.165C311.699 219.042 311.136 218.741 310.692 218.298C310.25 217.855 309.947 217.291 309.826 216.677C309.705 216.063 309.768 215.426 310.005 214.847C310.245 214.269 310.651 213.775 311.172 213.427C311.694 213.079 312.305 212.893 312.931 212.893C313.77 212.9 314.57 213.236 315.164 213.828C315.754 214.42 316.09 215.222 316.098 216.059Z" stroke="#1F2223" stroke-width="1.1"/>
<path d="M351.159 214.236C352.908 214.236 354.325 212.819 354.325 211.07C354.325 209.321 352.908 207.903 351.159 207.903C349.411 207.903 347.992 209.321 347.992 211.07C347.992 212.819 349.411 214.236 351.159 214.236Z" stroke="#1F2223" stroke-width="1.1"/>
<path d="M337.395 245.177C337.395 245.804 337.208 246.416 336.862 246.937C336.514 247.457 336.019 247.863 335.44 248.103C334.862 248.343 334.226 248.405 333.61 248.283C332.996 248.161 332.433 247.859 331.989 247.416C331.547 246.974 331.246 246.409 331.123 245.795C331.001 245.181 331.065 244.544 331.302 243.966C331.542 243.387 331.948 242.893 332.468 242.545C332.991 242.197 333.602 242.011 334.228 242.011C334.645 242.007 335.059 242.086 335.445 242.243C335.832 242.401 336.183 242.634 336.478 242.929C336.771 243.224 337.006 243.575 337.162 243.961C337.322 244.347 337.4 244.761 337.395 245.177Z" stroke="#1F2223" stroke-width="1.1"/>
<path d="M398.171 139.928C398.151 140.367 397.959 140.78 397.636 141.077C397.313 141.374 396.884 141.53 396.444 141.511C396.005 141.492 395.591 141.3 395.295 140.976C394.997 140.652 394.841 140.223 394.861 139.784C394.871 139.567 394.922 139.353 395.015 139.156C395.106 138.959 395.237 138.782 395.396 138.635C395.558 138.488 395.745 138.374 395.949 138.299C396.154 138.225 396.371 138.191 396.588 138.201C396.805 138.21 397.02 138.262 397.217 138.354C397.414 138.446 397.591 138.576 397.737 138.737C397.884 138.897 398 139.085 398.073 139.289C398.146 139.494 398.181 139.711 398.171 139.928Z" stroke="#1F2223" stroke-width="1.1"/>
<path d="M115.43 197.927V121.796" stroke="#1F2223" stroke-width="1.1" stroke-linecap="round" stroke-linejoin="round"/>
<path d="M115.43 214.572V199.079" stroke="#1F2223" stroke-width="1.1" stroke-linecap="round" stroke-linejoin="round"/>
<path d="M115.43 492.375V232.994" stroke="#1F2223" stroke-width="1.1" stroke-linecap="round" stroke-linejoin="round"/>
<path d="M122.484 228.677V492.375" stroke="#1F2223" stroke-width="1.1" stroke-linecap="round" stroke-linejoin="round"/>
<path d="M122.484 203.78V211.741" stroke="#1F2223" stroke-width="1.1" stroke-linecap="round" stroke-linejoin="round"/>
<path d="M122.484 121.796V198.359" stroke="#1F2223" stroke-width="1.1" stroke-linecap="round" stroke-linejoin="round"/>
<path d="M377.209 215.58C389.215 242.828 390.693 273.561 381.353 301.833C372.015 330.108 352.522 353.914 326.648 368.65" stroke="#1F2223" stroke-width="1.1" stroke-linecap="round" stroke-linejoin="round"/>
<path d="M164.695 201.285C174.808 184.803 188.747 171.002 205.329 161.053C213.231 156.312 221.622 152.512 230.33 149.707M361.393 189.403C349.369 174.257 333.871 162.235 316.211 154.354C315.049 153.836 313.88 153.336 312.704 152.855" stroke="#1F2223" stroke-width="1.1" stroke-linecap="round" stroke-linejoin="round"/>
<path d="M220.726 375.036C198.871 365.873 180.209 350.457 167.084 330.727C153.959 310.994 146.956 287.825 146.953 264.128C146.953 252.299 148.679 240.534 152.079 229.204" stroke="#1F2223" stroke-width="1.1" stroke-linecap="round" stroke-linejoin="round"/>
<path d="M287.407 382.664C280.769 384.063 273.984 384.626 267.207 384.343C263.925 384.343 260.625 384.212 257.375 383.951" stroke="#1F2223" stroke-width="1.1" stroke-linecap="round" stroke-linejoin="round"/>
<path d="M381.48 211.262C372.077 220.665 359.642 234.28 346.797 249.783C343.593 253.664 339.03 256.176 334.041 256.808C329.049 257.441 324.004 256.146 319.933 253.189C308.659 244.988 301.031 239.087 288.656 230.02" stroke="#1F2223" stroke-width="1.1" stroke-linecap="round" stroke-linejoin="round"/>
<path d="M257.367 185.103L261.261 179.553" stroke="#1F2223" stroke-width="1.1" stroke-linecap="round" stroke-linejoin="round"/>
<path d="M359.229 190.746C348.662 199.916 339.193 210.277 331.01 221.624C331.01 221.624 307.07 201.578 290.668 191.594C273.73 181.285 269.746 198.311 267.88 184.158C266.483 173.553 267.592 171.634 269.223 170.776C277.808 166.251 273.861 158.378 269.367 162.14C266.693 164.38 266.393 163.403 266.279 161.31C265.835 153.23 258.267 141.11 250.036 160.125C238.421 186.941 261.259 179.553 261.259 179.553" stroke="#1F2223" stroke-width="1.1" stroke-linecap="round" stroke-linejoin="round"/>
<path d="M257.518 180.336C257.803 184.446 257.131 191.069 253.059 190.107C242.605 187.638 238.131 189.279 232.19 193.895C220.373 203.081 196.354 216.68 196.354 216.68C182.108 208.095 171.794 204.401 158.508 198.692C151.469 206.47 147.381 216.469 146.953 226.95C165.891 235.057 173.147 239.706 187.969 246.953C191.289 248.586 194.966 249.358 198.663 249.199C202.359 249.04 205.956 247.954 209.123 246.041C218.438 240.395 227.207 235.201 236.754 230.164" stroke="#1F2223" stroke-width="1.1" stroke-linecap="round" stroke-linejoin="round"/>
<path d="M369.675 190.827C363.956 187.966 358.863 188.721 358.179 193.12C357.59 196.907 360.161 201.376 362.605 204.308C366.016 208.598 370.821 211.559 376.187 212.681C377.434 213.029 378.768 212.899 379.924 212.316C381.081 211.732 381.977 210.738 382.439 209.527" stroke="#1F2223" stroke-width="1.1" stroke-linecap="round" stroke-linejoin="round"/>
<path d="M233.773 210.062C234.812 225.907 238.867 241.408 245.719 255.732C260.364 259.618 272.247 258.706 287.071 254.197C285.905 243.095 287.369 231.875 291.341 221.442" stroke="#1F2223" stroke-width="1.1" stroke-linecap="round" stroke-linejoin="round"/>
<path d="M372.411 211.646C379.214 209.024 386.205 206.924 393.328 205.364C399.712 204.271 406.201 203.949 412.66 204.404C422.161 204.965 423.679 202.816 413.859 199.463C410.256 198.23 391.841 195.622 387.763 195.049C381.239 194.132 371.603 193.178 365.215 192.986C364.73 192.987 364.245 193.017 363.766 193.077" stroke="#1F2223" stroke-width="1.1" stroke-linecap="round" stroke-linejoin="round"/>
<path d="M358.164 195.183C358.3 195.097 380.44 186.85 389.249 182.81C399.473 178.111 396.721 181.745 394.095 184.873C392.166 187.168 382.629 193.509 387.762 195.044" stroke="#1F2223" stroke-width="1.1" stroke-linecap="round" stroke-linejoin="round"/>
<path d="M378.938 209.323C384.745 207.931 396.208 209.138 401.291 209.429C405.417 209.666 411.414 211.019 416.02 211.449C417.075 211.547 418.226 210.009 412.086 207.515C409.78 206.583 405.718 204.899 403.799 204.308" stroke="#1F2223" stroke-width="1.1" stroke-linecap="round" stroke-linejoin="round"/>
<path d="M378.695 209.429C383.473 209.446 388.232 209.964 392.901 210.974C396.688 211.837 403.036 214.234 407.099 215.34C408.109 215.615 409.498 214.284 403.885 210.782C403.461 210.499 402.665 210.024 401.726 209.469" stroke="#1F2223" stroke-width="1.1" stroke-linecap="round" stroke-linejoin="round"/>
<path d="M147.376 222.68C139.629 221.531 131.796 221.066 123.967 221.288C117.501 221.783 111.112 223.006 104.921 224.935C95.8083 227.768 93.811 225.975 102.57 220.39C117.361 213.339 132.659 207.406 148.336 202.641C150.56 202.034 152.914 202.101 155.1 202.833" stroke="#1F2223" stroke-width="1.1" stroke-linecap="round" stroke-linejoin="round"/>
<path d="M127.082 209.918C131.687 207.184 120.802 203.353 118.401 201.586C115.141 199.182 111.545 196.334 122.623 198.42C131.901 200.309 141.293 201.589 150.739 202.252" stroke="#1F2223" stroke-width="1.1" stroke-linecap="round" stroke-linejoin="round"/>
<path d="M113.464 222.776C111.444 224.023 107.424 226.957 106.267 227.826C100.965 231.747 102.384 232.967 103.389 232.623C107.381 231.26 113.512 228.353 117.206 227.202C123.203 225.331 134.714 221.349 140.183 221.925" stroke="#1F2223" stroke-width="1.1" stroke-linecap="round" stroke-linejoin="round"/>
<path d="M116.867 227.285C116.052 228.101 115.428 228.773 115.044 229.108C110.438 233.81 112.062 234.805 112.981 234.29C116.647 232.227 122.243 228.447 125.742 226.715C130.019 224.696 134.465 223.058 139.029 221.821" stroke="#1F2223" stroke-width="1.1" stroke-linecap="round" stroke-linejoin="round"/>
<path d="M239.915 485.179C239.359 479.581 238.135 474.071 236.269 468.766C226.032 471.693 215.18 471.693 204.944 468.766C191.369 472.7 175.873 484.739 167.766 492.319C195.013 492.319 213.051 492.08 233.774 492.032C234.643 492.034 235.502 491.852 236.295 491.496C237.089 491.143 237.799 490.628 238.379 489.979C238.958 489.332 239.395 488.57 239.659 487.744C239.924 486.916 240.011 486.042 239.915 485.179Z" fill="#1F2223" stroke="#1F2223" stroke-width="1.1" stroke-linecap="round" stroke-linejoin="round"/>
<path d="M252.679 393.688C252.994 407.083 242.31 433.643 236.266 468.822" stroke="#1F2223" stroke-width="1.1" stroke-linecap="round" stroke-linejoin="round"/>
<path d="M204.945 468.774L220.54 388.214" stroke="#1F2223" stroke-width="1.1" stroke-linecap="round" stroke-linejoin="round"/>
<path d="M273.209 334.406L254.357 393.41C241.935 395.597 229.14 393.319 218.234 386.982L245.724 255.783" stroke="#1F2223" stroke-width="1.1" stroke-linecap="round" stroke-linejoin="round"/>
<path d="M392.031 444.259L383.108 439.461C379.557 451.116 375.28 454.571 364.301 461.767C369.818 470.019 368.523 474.096 367.899 476.493C362.092 481.962 359.171 481.891 355.141 492.35H375.341C378.052 492.41 380.726 491.693 383.047 490.287C385.365 488.88 387.236 486.84 388.438 484.409C391.468 477.844 393.993 464.549 396.831 456.73C397.715 454.424 397.712 451.876 396.826 449.571C395.94 447.268 394.23 445.377 392.031 444.259Z" stroke="#1F2223" stroke-width="1.1" stroke-linecap="round" stroke-linejoin="round"/>
<path d="M364.352 461.769L306.547 399.455" stroke="#1F2223" stroke-width="1.1" stroke-linecap="round" stroke-linejoin="round"/>
<path d="M331.688 379.737C339.818 386.426 347.171 394.006 353.612 402.333C362.432 414.426 383.114 439.451 383.114 439.451" stroke="#1F2223" stroke-width="1.1" stroke-linecap="round" stroke-linejoin="round"/>
<path d="M261.266 288.928L283.334 373.119C285.011 379.51 288.432 385.305 293.217 389.86L304.213 400.329C315.932 396.551 325.959 388.792 332.551 378.394L322.623 361.981L316.338 297.988C314.031 274.152 299.802 257.717 287.076 254.189" stroke="#1F2223" stroke-width="1.1" stroke-linecap="round" stroke-linejoin="round"/>
<path d="M278.388 188.14C270.303 198.308 263.874 209.689 259.344 221.864C252.963 211.358 246.719 189.039 246.719 189.039" stroke="#1F2223" stroke-width="1.1" stroke-linecap="round" stroke-linejoin="round"/>
<path d="M66.1172 492.375H447.683" stroke="#1F2223" stroke-width="1.1" stroke-linecap="round" stroke-linejoin="round"/>
<path d="M402.057 97.2835C383.062 93.6853 364.94 104.858 361.657 122.228C360.541 128.313 361.329 134.595 363.915 140.216L355.711 153.649L371.255 150.483C376.474 155.487 383.044 158.856 390.154 160.174C409.15 163.772 427.272 152.599 430.554 135.229C433.862 117.862 421.103 100.882 402.057 97.2835Z" stroke="#1F2223" stroke-width="1.1" stroke-linecap="round" stroke-linejoin="round"/>
<path d="M396.491 132.638C396.539 130.479 397.367 128.904 400.041 125.346C405.811 117.673 402.314 112.385 397.402 112.153C396.524 112.114 395.648 112.269 394.837 112.607C394.026 112.945 393.299 113.457 392.708 114.108C392.118 114.759 391.676 115.533 391.418 116.373C391.161 117.213 391.092 118.1 391.216 118.97" stroke="#1F2223" stroke-width="1.1" stroke-linecap="round" stroke-linejoin="round"/>
<path d="M375.672 365.155H386.034" stroke="#1F2223" stroke-width="1.1" stroke-linecap="round" stroke-linejoin="round"/>
<path d="M404.406 365.107H414.769" stroke="#1F2223" stroke-width="1.1" stroke-linecap="round" stroke-linejoin="round"/>
<path d="M395.227 345.582V355.944" stroke="#1F2223" stroke-width="1.1" stroke-linecap="round" stroke-linejoin="round"/>
<path d="M395.273 374.319V384.679" stroke="#1F2223" stroke-width="1.1" stroke-linecap="round" stroke-linejoin="round"/>
<path d="M381.383 351.339L388.723 358.631" stroke="#1F2223" stroke-width="1.1" stroke-linecap="round" stroke-linejoin="round"/>
<path d="M401.773 371.632L409.114 378.922" stroke="#1F2223" stroke-width="1.1" stroke-linecap="round" stroke-linejoin="round"/>
<path d="M409.059 351.291L401.719 358.631" stroke="#1F2223" stroke-width="1.1" stroke-linecap="round" stroke-linejoin="round"/>
<path d="M388.77 371.632L381.43 378.97" stroke="#1F2223" stroke-width="1.1" stroke-linecap="round" stroke-linejoin="round"/>
<path d="M66.3063 121.796C64.7309 121.793 63.1841 121.375 61.8208 120.586C60.4576 119.797 59.3256 118.663 58.5383 117.298C57.7513 115.934 57.3367 114.387 57.3359 112.811C57.3352 111.236 57.7485 109.688 58.5343 108.323L111.16 17.1221C111.951 15.7548 113.088 14.6195 114.456 13.8302C115.824 13.0409 117.376 12.6255 118.955 12.6255C120.535 12.6255 122.086 13.0409 123.454 13.8302C124.823 14.6195 125.959 15.7548 126.75 17.1221L179.376 108.323C180.164 109.688 180.58 111.237 180.58 112.813C180.581 114.39 180.167 115.939 179.379 117.305C178.592 118.671 177.459 119.806 176.094 120.596C174.729 121.385 173.181 121.802 171.604 121.803L66.3063 121.796Z" stroke="#1F2223" stroke-width="1.1" stroke-linecap="round" stroke-linejoin="round"/>
<path d="M193.814 69.0764C193.899 70.0251 193.701 70.9775 193.245 71.8133C192.789 72.6493 192.095 73.3313 191.251 73.7727C190.407 74.2143 189.452 74.3958 188.505 74.2943C187.558 74.1928 186.662 73.8128 185.932 73.2023C185.201 72.5917 184.667 71.7782 184.399 70.8646C184.13 69.9508 184.138 68.9782 184.423 68.0692C184.707 67.1602 185.254 66.356 185.996 65.7583C186.737 65.1604 187.639 64.796 188.587 64.7107C189.859 64.5999 191.122 64.997 192.102 65.8151C193.081 66.633 193.697 67.8058 193.814 69.0764Z" stroke="#1F2223" stroke-width="1.1" stroke-linecap="round" stroke-linejoin="round"/>
<path d="M154.789 418.403V437.785" stroke="#1F2223" stroke-width="1.1" stroke-linecap="round" stroke-linejoin="round"/>
<path d="M164.505 428.094H145.078" stroke="#1F2223" stroke-width="1.1" stroke-linecap="round" stroke-linejoin="round"/>
<path d="M268.268 186.413C269.194 186.911 270.225 187.181 271.278 187.199C272.328 187.218 273.368 186.986 274.313 186.521C275.254 186.056 276.075 185.373 276.699 184.528C277.325 183.683 277.742 182.701 277.911 181.664C278.651 182.989 279.825 184.019 281.234 184.583C282.643 185.146 284.203 185.208 285.652 184.759C287.102 184.309 288.354 183.375 289.195 182.113C290.038 180.851 290.422 179.337 290.283 177.826C291.462 178.673 292.887 179.107 294.338 179.063C295.788 179.018 297.184 178.498 298.308 177.58C299.434 176.663 300.224 175.401 300.56 173.989C300.896 172.577 300.757 171.093 300.164 169.768C301.153 170.044 302.191 170.085 303.201 169.888C304.209 169.69 305.156 169.259 305.966 168.629C306.777 168 307.431 167.189 307.872 166.263C308.314 165.336 308.534 164.318 308.511 163.292C308.496 162.411 308.304 161.541 307.951 160.734C307.597 159.927 307.087 159.198 306.448 158.59C308.175 158.542 309.814 157.815 311.008 156.566C312.203 155.318 312.857 153.649 312.829 151.922C312.804 150.526 312.342 149.172 311.506 148.054C310.673 146.935 309.506 146.106 308.175 145.685C309.562 145.277 310.781 144.429 311.645 143.27C312.511 142.111 312.975 140.703 312.973 139.256C312.95 137.571 312.281 135.958 311.102 134.752C309.923 133.547 308.324 132.842 306.64 132.782C307.635 131.882 308.332 130.7 308.638 129.393C308.946 128.087 308.847 126.718 308.357 125.469C307.87 124.22 307.011 123.149 305.898 122.399C304.787 121.648 303.471 121.254 302.131 121.268C301.595 121.28 301.063 121.361 300.547 121.508C301.164 120.193 301.333 118.712 301.022 117.292C300.714 115.873 299.946 114.595 298.838 113.655C297.729 112.716 296.343 112.168 294.891 112.096C293.442 112.024 292.008 112.432 290.811 113.256C290.978 111.749 290.624 110.231 289.804 108.955C288.983 107.679 287.751 106.725 286.309 106.251C284.87 105.777 283.309 105.813 281.893 106.353C280.476 106.893 279.289 107.904 278.529 109.216C277.459 101.841 266.202 101.669 265.048 109.168C264.299 107.851 263.119 106.831 261.705 106.279C260.294 105.728 258.736 105.678 257.292 106.139C255.845 106.6 254.605 107.544 253.772 108.811C252.941 110.079 252.57 111.594 252.721 113.102C251.533 112.267 250.102 111.845 248.65 111.903C247.198 111.961 245.806 112.495 244.687 113.422C243.569 114.35 242.787 115.619 242.461 117.036C242.136 118.452 242.285 119.935 242.887 121.258C241.459 120.87 239.944 120.971 238.581 121.546C237.218 122.12 236.088 123.135 235.37 124.428C234.651 125.72 234.387 127.216 234.619 128.677C234.851 130.137 235.566 131.478 236.65 132.484C235.085 132.533 233.588 133.136 232.428 134.188C231.268 135.239 230.52 136.668 230.318 138.221C230.116 139.773 230.473 141.347 231.326 142.66C232.178 143.973 233.47 144.94 234.971 145.387C233.468 145.823 232.169 146.779 231.308 148.085C230.446 149.391 230.077 150.961 230.268 152.514C230.458 154.067 231.195 155.501 232.347 156.56C233.499 157.619 234.99 158.233 236.554 158.292C235.468 159.293 234.75 160.629 234.513 162.086C234.276 163.544 234.535 165.038 235.248 166.331C235.96 167.624 237.086 168.641 238.445 169.219C239.803 169.796 241.317 169.902 242.743 169.518C242.243 170.571 242.033 171.738 242.134 172.898C242.235 174.059 242.642 175.172 243.315 176.123C243.988 177.074 244.902 177.829 245.963 178.31C247.024 178.791 248.194 178.981 249.353 178.861" stroke="#1F2223" stroke-width="1.1" stroke-linecap="round" stroke-linejoin="round"/>
<path d="M322.334 390.244L309.812 375.324" stroke="#1F2223" stroke-width="1.1" stroke-linecap="round" stroke-linejoin="round"/>
<path d="M240.586 393.65L245.719 375.036" stroke="#1F2223" stroke-width="1.1" stroke-linecap="round" stroke-linejoin="round"/>
<path d="M278.391 270.892C285.251 279.189 292.879 282.691 301.08 282.595" stroke="#1F2223" stroke-width="1.1" stroke-linecap="round" stroke-linejoin="round"/>
<path d="M118.95 98.5432C120.791 98.5432 122.283 97.0509 122.283 95.2102C122.283 93.3694 120.791 91.8772 118.95 91.8772C117.109 91.8772 115.617 93.3694 115.617 95.2102C115.617 97.0509 117.109 98.5432 118.95 98.5432Z" stroke="#1F2223" stroke-width="1.1"/>
<path d="M118.906 47.7074V79.9917" stroke="#1F2223" stroke-width="1.1" stroke-linecap="round"/>
</svg>
