<svg width="81" height="90" viewBox="0 0 81 90" fill="none" xmlns="http://www.w3.org/2000/svg">
<path d="M58.8939 15.5349L32.1709 15.4794C30.544 15.3867 28.9199 15.6204 27.4026 16.1683C25.8853 16.7162 24.4984 17.5624 23.3364 18.6608C22.1674 19.7561 21.2499 21.0808 20.63 22.5491C20.0171 24.0205 19.7087 25.6017 19.7369 27.2019C19.7649 28.8028 20.1282 30.3885 20.7977 31.8588C21.4671 33.3291 22.4306 34.6554 23.6339 35.7566C24.8372 36.8578 26.2498 37.71 27.7947 38.2646C29.333 38.8154 30.961 39.0537 32.5859 38.9661L47.5662 38.9845C50.6637 39.0597 53.6353 40.3237 55.8382 42.5037C58.0414 44.683 59.3122 47.6102 59.3712 50.6572C59.4305 53.7034 58.2708 56.6268 56.1509 58.8077C54.031 60.9886 51.1114 62.2509 48.0133 62.3252L21.0679 62.3632" stroke="#1F2223" stroke-width="2" stroke-linecap="round" stroke-linejoin="round"/>
<path d="M36.4238 6.34155L37.8093 70.5999" stroke="#1F2223" stroke-width="2" stroke-linecap="round" stroke-linejoin="round"/>
<path d="M43.4688 6.67194L44.8542 70.9303" stroke="#1F2223" stroke-width="2" stroke-linecap="round" stroke-linejoin="round"/>
<path d="M17.7597 40.7293C17.7513 39.9687 17.5172 39.2276 17.0871 38.5985C16.6574 37.9709 16.0508 37.4853 15.3444 37.2025C14.6385 36.9187 13.8648 36.8519 13.1199 37.009C12.3751 37.1662 11.694 37.5412 11.1618 38.0856C10.6297 38.63 10.2714 39.32 10.132 40.0678C9.99123 40.8161 10.0772 41.5885 10.3751 42.2883C10.6746 42.9876 11.1748 43.5831 11.8112 43.9991C12.449 44.4146 13.1956 44.6313 13.956 44.6226C14.4616 44.6182 14.9611 44.514 15.427 44.3156C15.8928 44.1172 16.3134 43.8292 16.6674 43.4671C17.021 43.106 17.2993 42.6767 17.4866 42.207C17.6748 41.7376 17.7674 41.2354 17.7597 40.7293Z" fill="#CFD181"/>
<path d="M62.4649 73.1333L62.4648 73.1333L62.4649 73.1375C62.4706 73.5115 62.4021 73.8821 62.2635 74.2277L62.2627 74.2297C62.124 74.5778 61.9181 74.8948 61.658 75.1605L61.6575 75.161C61.3952 75.4293 61.0843 75.642 60.7403 75.7885C60.3955 75.9354 60.0261 76.0124 59.6524 76.0157L59.6524 76.0156L59.6497 76.0157C59.087 76.0221 58.5347 75.8618 58.0629 75.5547C57.5918 75.2465 57.2215 74.8057 56.9999 74.2886C56.779 73.7692 56.716 73.1978 56.8199 72.6457L56.8202 72.644C56.9233 72.0908 57.1884 71.5803 57.582 71.1776C57.9765 70.7741 58.4807 70.4966 59.0314 70.3805C59.5832 70.2641 60.1551 70.3137 60.6765 70.5233L60.6778 70.5239C61.2008 70.7333 61.6495 71.0926 61.9669 71.5564C62.2857 72.0227 62.4587 72.5711 62.4649 73.1333Z" stroke="#CFD181" stroke-width="2"/>
<path d="M58.9707 22.2164L58.9707 22.2164L58.9708 22.2205C58.9764 22.5946 58.908 22.9652 58.7694 23.3108L58.7686 23.3128C58.6298 23.6609 58.4239 23.9779 58.1639 24.2436L58.1633 24.2441C57.901 24.5124 57.5902 24.7251 57.2461 24.8716C56.9013 25.0185 56.5319 25.0955 56.1583 25.0987L56.1583 25.0987L56.1556 25.0988C55.5929 25.1052 55.0405 24.9449 54.5687 24.6378C54.0976 24.3296 53.7274 23.8888 53.5058 23.3717C53.2848 22.8523 53.2218 22.2809 53.3257 21.7288L53.326 21.7271C53.4291 21.1739 53.6942 20.6634 54.0879 20.2607C54.4823 19.8572 54.9866 19.5797 55.5373 19.4636C56.0891 19.3472 56.661 19.3968 57.1823 19.6064L57.1837 19.6069C57.7067 19.8164 58.1553 20.1757 58.4728 20.6395C58.7916 21.1058 58.9645 21.6542 58.9707 22.2164Z" stroke="#FDC886" stroke-width="2"/>
<path d="M23.359 67.7715C23.3763 69.2923 22.9429 70.7854 22.1119 72.0611C21.2799 73.3338 20.089 74.3344 18.6904 74.9332C17.2897 75.5312 15.7459 75.701 14.2493 75.4194C12.7537 75.1407 11.3736 74.4241 10.2848 73.3598C9.19607 72.2955 8.44601 70.9334 8.13176 69.4436C7.81751 67.9539 7.9511 66.4066 8.51873 64.9947C9.08435 63.5819 10.0556 62.3686 11.3108 61.5094C12.5689 60.6491 14.051 60.1808 15.5724 60.1641C16.5845 60.1487 17.589 60.3339 18.5276 60.7104C19.4672 61.0849 20.3258 61.6415 21.0479 62.3486C21.7721 63.0566 22.3482 63.8978 22.745 64.8296C23.1417 65.7613 23.3502 66.7604 23.359 67.7715Z" stroke="#CFD181" stroke-width="2" stroke-linecap="round" stroke-linejoin="round"/>
</svg>
