<svg width="431" height="441" viewBox="0 0 431 441" fill="none" xmlns="http://www.w3.org/2000/svg">
<path d="M214.221 247.948L334.054 188.819L345.755 214.242L73.3459 339.611L61.6444 314.186L214.199 247.959L214.21 247.954L214.221 247.948Z" stroke="#1F2223"/>
<path d="M166.34 167.421C166.34 167.421 217.961 90.8518 221.052 44.5482C224.144 -1.75533 153.884 -18.4782 149.983 40.8669C145.95 101.356 166.34 167.421 166.34 167.421Z" stroke="#1F2223" stroke-width="1.1" stroke-linecap="round" stroke-linejoin="round"/>
<path d="M164.468 167.243C164.468 167.243 72.6633 156.794 35.4938 129.145C-1.67567 101.497 31.081 37.0573 78.8749 72.6803C127.434 108.848 164.468 167.243 164.468 167.243Z" stroke="#1F2223" stroke-width="1.1" stroke-linecap="round" stroke-linejoin="round"/>
<path d="M210.715 216.234C205.367 219.461 199.314 221.343 193.078 221.718C194.535 225.845 195.617 230.094 196.31 234.415L207.021 239.124L213.531 229.659C212.946 225.117 212.005 220.628 210.715 216.234Z" fill="#FDDE92"/>
<path d="M279.46 134.928C252.589 168.448 230.474 181.098 215.699 186.131C219.67 196.657 222.763 204.506 224.204 213.971C224.25 214.064 275.72 193.98 299.556 152.249C294.626 144.696 287.659 138.691 279.46 134.928Z" fill="#FDDE92"/>
<path d="M203.789 189.086C201.293 189.493 198.732 189.189 196.401 188.208C193.031 192.133 187.26 193.472 180.473 193.703C179.456 195.129 178.15 196.324 176.641 197.211C179.94 202.44 182.942 207.85 185.632 213.417C196.297 212.771 204.377 210.832 209.963 205.845C208.503 200.057 206.432 194.439 203.789 189.086Z" fill="#FDDE92"/>
<path d="M89.2865 246.937C116.157 245.921 150.646 241.591 176.686 232.439C173.087 222.36 168.526 212.65 163.066 203.444C143.101 210.965 127.275 210.941 86.5625 213.74C96.1488 213.213 98.2192 245.692 89.2865 246.937Z" fill="#FDDE92"/>
<path d="M90.7188 377.785L101.476 401.239C103.616 405.895 107.517 409.513 112.321 411.295C117.125 413.078 122.441 412.884 127.101 410.75L229.875 363.654" stroke="#1F2223" stroke-width="1.1" stroke-linecap="round" stroke-linejoin="round"/>
<path d="M276.738 342.185L365.156 301.694C369.812 299.553 373.43 295.653 375.212 290.849C376.995 286.045 376.801 280.731 374.667 276.07L312.476 140.284" stroke="#1F2223" stroke-width="1.1" stroke-linecap="round" stroke-linejoin="round"/>
<path d="M293.45 115.86C289.152 114.747 284.603 115.155 280.571 117.014L217.418 145.929" stroke="#1F2223" stroke-width="1.1" stroke-linecap="round" stroke-linejoin="round"/>
<path d="M66.9883 214.802L114.12 193.221" stroke="#1F2223" stroke-width="1.1" stroke-linecap="round" stroke-linejoin="round"/>
<path d="M47.4106 223.759L42.4704 226.022C37.8136 228.161 34.1963 232.061 32.4126 236.866C30.6288 241.67 30.8246 246.986 32.957 251.646L70.5418 333.644" stroke="#1F2223" stroke-width="1.1" stroke-linecap="round" stroke-linejoin="round"/>
<path d="M190.816 181.883C191.133 183.332 191.817 184.674 192.804 185.781C193.791 186.888 195.046 187.721 196.449 188.201C198.779 189.186 201.341 189.49 203.836 189.078C234.032 184.398 260.336 158.745 279.463 134.921C287.657 138.683 294.621 144.685 299.549 152.235C275.723 193.972 224.243 214.056 224.197 213.957" stroke="#1F2223" stroke-width="1.1" stroke-linecap="round" stroke-linejoin="round"/>
<path d="M185.874 182.806C185.874 182.806 208.123 181.796 188.09 161.107C174.337 146.901 171.89 162.888 174.881 169.755C175.719 171.677 174.166 171.597 172.3 171.079C167.076 169.621 166.76 177.774 175.763 178.328C176.486 178.71 177.116 179.246 177.61 179.898C183.743 188.843 183.568 194.121 173.454 198.92C147.371 211.298 132.825 210.462 86.5625 213.743" stroke="#1F2223" stroke-width="1.1" stroke-linecap="round" stroke-linejoin="round"/>
<path d="M185.922 182.806L193.678 186.592" stroke="#1F2223" stroke-width="1.1" stroke-linecap="round" stroke-linejoin="round"/>
<path d="M89.2422 246.937C116.113 245.921 150.602 241.591 176.642 232.439" stroke="#1F2223" stroke-width="1.1" stroke-linecap="round" stroke-linejoin="round"/>
<path d="M91.3633 217.157C80.5505 218.557 69.6121 218.696 58.7673 217.572C55.4413 217.108 52.1543 216.398 48.9331 215.449C45.2256 214.434 41.5862 213.185 38.037 211.709C28.2489 207.685 25.8481 209.493 35.0335 216.511C45.2888 223.308 56.4282 228.668 68.1398 232.439" stroke="#1F2223" stroke-width="1.1" stroke-linecap="round" stroke-linejoin="round"/>
<path d="M93.4432 242.597C86.2966 242.169 62.2639 242.111 55.1683 242.781C42.7 243.982 46.9066 241.212 50.7946 238.857C53.6085 237.156 66.8617 233.824 62.0139 230.352" stroke="#1F2223" stroke-width="1.1" stroke-linecap="round" stroke-linejoin="round"/>
<path d="M47.327 214.941C45.2032 213.371 41.0503 209.721 39.8475 208.662C34.3192 203.802 36.0615 202.609 37.1234 203.073C41.3784 204.946 47.9272 208.752 51.9464 210.414C58.4102 213.087 70.6915 218.447 76.7859 218.309" stroke="#1F2223" stroke-width="1.1" stroke-linecap="round" stroke-linejoin="round"/>
<path d="M51.5186 210.278C50.7337 209.306 50.0436 208.521 49.6718 208.061C45.0426 202.353 46.9016 201.459 47.8711 202.106C51.7591 204.691 57.6203 209.478 61.3066 211.755C65.7426 214.366 70.4101 216.563 75.2499 218.316" stroke="#1F2223" stroke-width="1.1" stroke-linecap="round" stroke-linejoin="round"/>
<path d="M82.2227 218.034C85.7996 209.461 93.041 214.362 94.759 227.808C96.7759 243.603 89.2089 253.242 83.5616 242.366" stroke="#1F2223" stroke-width="1.1" stroke-linecap="round" stroke-linejoin="round"/>
<path d="M303.839 126.705C302.138 124.443 306.148 115.67 306.563 112.993C307.256 108.514 307.825 103.491 300.746 113.87C295.079 121.774 288.958 129.344 282.414 136.539" stroke="#1F2223" stroke-width="1.1" stroke-linecap="round" stroke-linejoin="round"/>
<path d="M298.484 150.672C305.689 142.962 340.28 124.251 335.7 123.57C330.334 122.771 320.678 128.102 319.633 128.688" stroke="#1F2223" stroke-width="1.1" stroke-linecap="round" stroke-linejoin="round"/>
<path d="M327.449 125.07C328.538 124.36 333.009 121.471 336.712 119.461C340.416 117.452 332.372 117.384 327.571 119.877" stroke="#1F2223" stroke-width="1.1" stroke-linecap="round" stroke-linejoin="round"/>
<path d="M309.597 131.91C308.95 131.55 305.276 129.806 298.066 131.973" stroke="#1F2223" stroke-width="1.1" stroke-linecap="round" stroke-linejoin="round"/>
<path d="M418.067 206.215C418.575 207.37 419.41 208.349 420.475 209.029C421.537 209.708 422.778 210.056 424.04 210.03C425.301 210.004 426.528 209.604 427.561 208.882C428.596 208.159 429.393 207.146 429.85 205.971C430.309 204.796 430.409 203.511 430.136 202.279C429.864 201.047 429.235 199.923 428.324 199.049C427.412 198.176 426.263 197.592 425.021 197.372C423.78 197.152 422.499 197.305 421.345 197.812C420.577 198.147 419.882 198.63 419.301 199.234C418.72 199.838 418.263 200.551 417.96 201.332C417.654 202.113 417.508 202.946 417.525 203.784C417.544 204.622 417.729 205.448 418.067 206.215Z" stroke="#1F2223" stroke-width="1.1" stroke-linecap="round" stroke-linejoin="round"/>
<path d="M382.563 221.866C383.068 223.022 383.907 224.001 384.971 224.68C386.033 225.359 387.275 225.708 388.536 225.682C389.797 225.656 391.024 225.256 392.057 224.533C393.092 223.811 393.889 222.798 394.346 221.623C394.805 220.447 394.905 219.162 394.633 217.93C394.36 216.698 393.731 215.574 392.82 214.701C391.909 213.828 390.759 213.244 389.517 213.024C388.276 212.803 386.995 212.956 385.841 213.463C385.073 213.798 384.378 214.282 383.797 214.886C383.216 215.49 382.76 216.203 382.456 216.983C382.15 217.764 382.004 218.598 382.021 219.436C382.04 220.274 382.225 221.1 382.563 221.866Z" stroke="#1F2223" stroke-width="1.1" stroke-linecap="round" stroke-linejoin="round"/>
<path d="M418.066 206.215L394.242 216.695" stroke="#1F2223" stroke-width="1.1" stroke-linecap="round" stroke-linejoin="round"/>
<path d="M427.76 130.865L414.832 136.544L423.05 197.304" stroke="#1F2223" stroke-width="1.1" stroke-linecap="round" stroke-linejoin="round"/>
<path d="M421.667 187.1L374.297 202.383L355.367 183.822L417.512 156.397" stroke="#1F2223" stroke-width="1.1" stroke-linecap="round" stroke-linejoin="round"/>
<path d="M200.633 299.658C203.306 293.748 205.736 287.566 208.129 281.19C208.176 281.236 204.241 299.935 205.959 314.386" stroke="#1F2223" stroke-width="1.1" stroke-linecap="round" stroke-linejoin="round"/>
<path d="M163.02 203.444C174.793 222.513 180.841 245.829 182.873 249.522C194.6 256.124 216.623 250.584 223.779 242.781C226.999 217.308 224.022 208.171 215.7 186.131" stroke="#1F2223" stroke-width="1.1" stroke-linecap="round" stroke-linejoin="round"/>
<path d="M182.872 249.522C173.13 259.587 162.234 248.691 148.336 322.422C116.802 322.237 105.352 324.869 75.8034 328.332C70.5862 345.099 72.0636 363.098 78.2504 381.892L157.663 355.803C163.24 353.964 168.186 350.588 171.929 346.064C183.567 331.972 193.223 316.357 200.63 299.651C210.569 331.129 237.391 378.827 254.851 406.403C281.581 406.403 303.793 401.832 321.433 392.552C274.291 356.08 232.981 266.831 223.781 242.776" fill="#CFD181"/>
<path d="M182.872 249.522C173.13 259.587 162.234 248.691 148.336 322.422C116.802 322.237 105.352 324.869 75.8034 328.332C70.5862 345.099 72.0636 363.098 78.2504 381.892L157.663 355.803C163.24 353.964 168.186 350.588 171.929 346.064C183.567 331.972 193.223 316.357 200.63 299.651C210.569 331.129 237.391 378.827 254.851 406.403C281.581 406.403 303.793 401.832 321.433 392.552C274.291 356.08 232.981 266.831 223.781 242.776" stroke="#1F2223" stroke-width="1.1" stroke-linecap="round" stroke-linejoin="round"/>
<path d="M176.641 197.212C179.95 202.445 182.971 207.855 185.69 213.417C196.355 212.771 204.435 210.832 210.022 205.845C208.556 200.054 206.483 194.433 203.835 189.078" stroke="#1F2223" stroke-width="1.1" stroke-linecap="round" stroke-linejoin="round"/>
<path d="M213.539 229.669L207.029 239.134L196.31 234.425C195.617 230.1 194.535 225.848 193.078 221.718C199.315 221.34 205.367 219.454 210.715 216.224C212.008 220.624 212.953 225.12 213.539 229.669Z" stroke="#1F2223" stroke-width="1.1" stroke-linecap="round" stroke-linejoin="round"/>
<path d="M301.261 400.639C316.084 416.983 339.898 424.924 352.097 440.068C335.706 439.745 301.956 434.066 286.671 427.787C283.347 421.508 285.055 418.553 275.637 405.394C284.3 404.546 292.873 402.955 301.261 400.639Z" stroke="#1F2223" stroke-width="1.1" stroke-linecap="round" stroke-linejoin="round"/>
<path d="M74.4662 333.551C64.2167 333.921 53.9592 333.1 43.8993 331.104C34.2983 351.881 27.4652 377.782 24 394.545C47.9185 383.313 48.5187 358.77 72.8965 356.313C72.2421 348.69 72.7716 341.012 74.4662 333.551Z" stroke="#1F2223" stroke-width="1.1" stroke-linecap="round" stroke-linejoin="round"/>
<path d="M180.52 193.749C187.307 193.518 193.078 192.179 196.448 188.255" stroke="#1F2223" stroke-width="1.1" stroke-linecap="round" stroke-linejoin="round"/>
<path d="M194.878 170.064C200.057 169.073 204.849 166.629 208.69 163.017C212.532 159.406 215.266 154.776 216.576 149.668C217.886 144.56 217.713 139.185 216.083 134.171C214.45 129.157 211.427 124.71 207.361 121.351C203.298 117.991 198.362 115.857 193.13 115.198C187.898 114.539 182.587 115.381 177.817 117.628C173.046 119.874 169.013 123.432 166.189 127.885C163.365 132.337 161.866 137.502 161.867 142.775C161.805 146.947 162.54 151.093 164.032 154.99C160.403 148.581 154.66 143.631 147.786 140.987C140.911 138.343 133.332 138.169 126.343 140.494C119.354 142.82 113.39 147.501 109.471 153.737C105.551 159.973 103.92 167.377 104.855 174.683C105.79 181.989 109.234 188.743 114.597 193.791C119.961 198.839 126.912 201.867 134.261 202.357C141.61 202.847 148.902 200.77 154.888 196.48C160.875 192.189 165.186 185.953 167.084 178.836C171.101 181.052 176.502 181.329 179.963 183.776" stroke="#1F2223" stroke-width="1.1" stroke-linecap="round" stroke-linejoin="round"/>
<path d="M293.094 56L303.482 78.5771" stroke="#1F2223" stroke-width="1.1" stroke-linecap="round" stroke-linejoin="round"/>
<path d="M309.577 62.0945L287 72.5289" stroke="#1F2223" stroke-width="1.1" stroke-linecap="round" stroke-linejoin="round"/>
<path d="M7.09375 281L17.4822 303.577" stroke="#1F2223" stroke-width="1.1" stroke-linecap="round" stroke-linejoin="round"/>
<path d="M23.5771 287.094L1 297.529" stroke="#1F2223" stroke-width="1.1" stroke-linecap="round" stroke-linejoin="round"/>
<path d="M301.261 400.639C292.87 402.952 284.297 404.544 275.637 405.394C285.058 418.553 283.347 421.508 286.671 427.787C301.956 434.066 335.706 439.745 352.097 440.068C339.898 424.924 316.084 416.983 301.261 400.639Z" fill="#1F2223"/>
<path d="M74.4662 333.551C64.217 333.921 53.9595 333.1 43.8993 331.104C34.2983 351.881 27.4652 377.782 24 394.545C47.9185 383.313 48.5187 358.77 72.8965 356.313C72.2423 348.69 72.7718 341.012 74.4662 333.551Z" fill="#1F2223"/>
<path d="M91.3643 217.157C88.1786 217.572 85.1314 217.849 82.2227 218.034C84.4388 212.727 88.3171 212.263 91.3643 217.157Z" fill="#1F2223"/>
<path d="M93.4429 242.597C90.9959 248.645 86.6559 248.322 83.5625 242.366C87.5793 242.373 91.1344 242.458 93.4429 242.597Z" fill="#1F2223"/>
<path d="M208.127 281.195C205.726 287.566 203.267 293.661 200.594 299.57C202.382 305.242 204.946 311.997 205.94 314.393C204.248 299.94 208.173 281.253 208.127 281.195Z" fill="#1F2223"/>
<path d="M189.708 115.026C182.339 115.034 175.274 117.965 170.063 123.176C164.852 128.386 161.922 135.452 161.914 142.821C161.86 146.993 162.588 151.138 164.062 155.041C160.444 148.622 154.707 143.66 147.834 141.003C140.961 138.347 133.378 138.161 126.383 140.478C119.388 142.794 113.416 147.47 109.487 153.704C105.559 159.938 103.919 167.343 104.847 174.653C105.776 181.963 109.216 188.723 114.578 193.777C119.941 198.831 126.893 201.864 134.245 202.358C141.597 202.852 148.892 200.776 154.883 196.486C160.873 192.195 165.186 185.956 167.085 178.836C171.102 181.052 176.504 181.329 179.964 183.776C179.398 182.644 177.138 178.539 175.809 178.374C166.818 177.82 167.129 169.648 172.346 171.125C174.839 171.818 175.439 171.264 175.019 170.017C171.926 163.32 174.419 146.891 187.67 160.689C190.544 163.448 192.987 166.624 194.918 170.11C201.715 168.815 207.785 165.031 211.938 159.498C216.093 153.965 218.035 147.082 217.381 140.193C216.73 133.305 213.53 126.908 208.412 122.254C203.292 117.599 196.62 115.022 189.701 115.026H189.708Z" fill="#1F2223"/>
<path d="M190.862 181.837C189.246 182.299 187.593 182.624 185.922 182.809L193.725 186.595C192.198 185.432 191.174 183.73 190.862 181.837Z" fill="#1F2223"/>
<path d="M418.067 206.215C418.575 207.37 419.41 208.349 420.475 209.029C421.537 209.708 422.778 210.056 424.04 210.03C425.301 210.004 426.528 209.604 427.561 208.882C428.596 208.159 429.393 207.146 429.85 205.971C430.309 204.796 430.409 203.511 430.136 202.279C429.864 201.047 429.235 199.923 428.324 199.049C427.412 198.176 426.263 197.592 425.021 197.372C423.78 197.152 422.499 197.305 421.345 197.812C420.577 198.147 419.882 198.63 419.301 199.234C418.72 199.838 418.263 200.551 417.96 201.332C417.654 202.113 417.508 202.946 417.525 203.784C417.544 204.622 417.729 205.448 418.067 206.215Z" fill="#1F2223"/>
<path d="M382.563 221.866C383.068 223.022 383.907 224.001 384.971 224.68C386.033 225.359 387.275 225.708 388.536 225.682C389.797 225.656 391.024 225.256 392.057 224.533C393.092 223.811 393.889 222.798 394.346 221.623C394.805 220.447 394.905 219.162 394.633 217.93C394.36 216.698 393.731 215.574 392.82 214.701C391.909 213.828 390.759 213.244 389.517 213.024C388.276 212.803 386.995 212.956 385.841 213.463C385.073 213.798 384.378 214.282 383.797 214.886C383.216 215.49 382.76 216.203 382.456 216.983C382.15 217.764 382.004 218.598 382.021 219.436C382.04 220.274 382.225 221.1 382.563 221.866Z" fill="#1F2223"/>
<path d="M317.445 125.5C317.445 125.5 337.445 112 336.945 111.5C336.445 111 331.445 111 328.945 112C326.445 113 321.445 115.5 321.445 115.5M321.445 115.5L311.945 122.5M321.445 115.5C321.445 115.5 329.445 106.5 327.445 106.5C325.445 106.5 319.945 110 318.445 111.5C316.945 113 303.945 123 303.945 123" stroke="#1F2223" stroke-linecap="round" stroke-linejoin="round"/>
<path d="M391.376 354.737C391.376 354.737 386.988 344.906 387.561 339.538C388.134 334.171 396.54 333.641 395.796 340.547C395.043 347.562 391.376 354.737 391.376 354.737Z" stroke="#1F2223" stroke-width="1.1" stroke-linecap="round" stroke-linejoin="round"/>
<path d="M391.47 354.935C391.47 354.935 402.211 355.58 407.04 353.148C411.87 350.716 409.387 342.675 403.201 345.799C396.892 348.976 391.47 354.935 391.47 354.935Z" stroke="#1F2223" stroke-width="1.1" stroke-linecap="round" stroke-linejoin="round"/>
<rect x="373.836" y="344.244" width="42.8848" height="33.1104" rx="7.45" transform="rotate(33.0843 373.836 344.244)" stroke="#1F2223" stroke-width="1.1"/>
<path d="M183 249L223.5 242.5" stroke="#1F2223" stroke-linecap="round" stroke-linejoin="round"/>
</svg>
