<svg width="104" height="104" viewBox="0 0 104 104" fill="none" xmlns="http://www.w3.org/2000/svg">
<path d="M54.4109 41.7784C53.2664 42.469 51.9711 42.8716 50.6367 42.952C50.9485 43.8351 51.1799 44.7444 51.3283 45.669L53.6205 46.6767L55.0136 44.6513C54.8882 43.6794 54.687 42.7187 54.4109 41.7784Z" fill="#FDC886"/>
<path d="M69.1228 24.3797C63.3726 31.5525 58.6401 34.2597 55.4785 35.3366C56.3282 37.5892 56.9902 39.2688 57.2985 41.2942C57.3084 41.314 68.3225 37.0162 73.4232 28.0862C72.3681 26.4698 70.8773 25.1848 69.1228 24.3797Z" fill="#FDC886"/>
<path d="M52.9286 35.9689C52.3945 36.056 51.8466 35.991 51.3478 35.7812C50.6265 36.621 49.3915 36.9075 47.9392 36.9569C47.7217 37.2621 47.4422 37.5179 47.1191 37.7078C47.8252 38.8266 48.4676 39.9844 49.0431 41.1757C51.3254 41.0373 53.0544 40.6224 54.2499 39.5554C53.9374 38.3166 53.4943 37.1144 52.9286 35.9689Z" fill="#FDC886"/>
<path d="M28.4267 48.3486C34.1768 48.1312 41.5572 47.2046 47.1295 45.2462C46.3592 43.0893 45.3832 41.0116 44.2149 39.0416C39.9426 40.651 36.5558 40.6458 27.8438 41.2448C29.8951 41.132 30.3382 48.0823 28.4267 48.3486Z" fill="#FDC886"/>
<path d="M74.3392 22.62L75.8706 24.0032C76.0162 24.1328 76.2071 24.1993 76.4016 24.1882C76.596 24.1771 76.778 24.0893 76.908 23.9439L81.6109 18.72C81.6754 18.6479 81.7248 18.5637 81.757 18.4724C81.7888 18.3811 81.8023 18.2843 81.7971 18.1877C81.7914 18.0911 81.7669 17.9966 81.7248 17.9094C81.6827 17.8223 81.6239 17.7444 81.5516 17.68L78.0344 14.508C77.9621 14.4435 77.8778 14.3938 77.7868 14.3618C77.6953 14.3298 77.5986 14.3162 77.5019 14.3217C77.4052 14.3272 77.311 14.3517 77.2237 14.3939C77.1363 14.436 77.0588 14.4949 76.9944 14.5673L72.291 19.7943C72.2265 19.8664 72.1766 19.9506 72.1448 20.0419C72.1126 20.1333 72.0991 20.23 72.1048 20.3266C72.11 20.4233 72.1344 20.5178 72.1766 20.6049C72.2187 20.6921 72.278 20.77 72.3502 20.8343L72.7142 21.1604C73.2628 20.3481 74.4843 18.641 74.879 18.5406C75.1567 18.9294 74.8572 19.987 74.5888 20.9334C74.3637 21.7267 74.1614 22.442 74.3392 22.62Z" fill="#FDC886"/>
<path d="M73.7881 81.2396C71.9925 81.7346 70.158 82.0752 68.3047 82.2572C70.3207 85.073 69.9546 85.7054 70.666 87.049C73.9368 88.3927 81.1591 89.608 84.6665 89.6771C82.0561 86.4365 76.9601 84.7371 73.7881 81.2396Z" fill="#1F2223"/>
<path d="M25.2564 66.8834C23.0631 66.9625 20.8681 66.7867 18.7153 66.3598C16.6608 70.8058 15.1986 76.3485 14.457 79.9354C19.5754 77.532 19.7038 72.28 24.9205 71.7543C24.7805 70.123 24.8938 68.4798 25.2564 66.8834Z" fill="#1F2223"/>
<path d="M28.8723 41.976C28.1905 42.0649 27.5385 42.1242 26.916 42.1637C27.3903 41.028 28.2202 40.9287 28.8723 41.976Z" fill="#1F2223"/>
<path d="M29.3174 47.4198C28.7938 48.7141 27.8651 48.645 27.2031 47.3704C28.0627 47.372 28.8234 47.3902 29.3174 47.4198Z" fill="#1F2223"/>
<path d="M53.8581 55.6795C53.3443 57.043 52.8181 58.3471 52.2461 59.6118C52.6288 60.8254 53.1774 62.271 53.3901 62.7838C53.0282 59.6908 53.868 55.692 53.8581 55.6795Z" fill="#1F2223"/>
<path d="M49.9169 20.1209C48.34 20.1225 46.8281 20.7497 45.7131 21.8648C44.598 22.9798 43.9708 24.4917 43.9692 26.0686C43.9575 26.9614 44.1135 27.8484 44.4289 28.6837C43.6545 27.3101 42.427 26.2482 40.9562 25.6797C39.4854 25.1112 37.8628 25.0714 36.3659 25.5672C34.869 26.063 33.591 27.0635 32.7503 28.3975C31.9097 29.7316 31.5587 31.3163 31.7573 32.8805C31.9561 34.4448 32.6922 35.8914 33.8397 36.9729C34.9873 38.0543 36.4749 38.7034 38.0482 38.8092C39.6215 38.9149 41.1826 38.4706 42.4646 37.5525C43.7465 36.6343 44.6695 35.2992 45.0757 33.7756C45.9353 34.2498 47.0913 34.3091 47.8317 34.8327C47.7106 34.5904 47.227 33.7121 46.9425 33.6768C45.0185 33.5582 45.0851 31.8094 46.2015 32.1256C46.7351 32.2738 46.8635 32.1552 46.7735 31.8885C46.1116 30.4554 46.6451 26.9396 49.4807 29.8922C50.0957 30.4828 50.6186 31.1624 51.0318 31.9082C52.4863 31.6312 53.7852 30.8214 54.6739 29.6375C55.5631 28.4535 55.9786 26.9804 55.8387 25.5064C55.6993 24.0324 55.0145 22.6635 53.9194 21.6675C52.8237 20.6714 51.396 20.1199 49.9154 20.1209H49.9169Z" fill="#1F2223"/>
<path d="M50.1646 34.4178C49.8187 34.5167 49.465 34.5862 49.1074 34.6258L50.7771 35.4359C50.4505 35.1871 50.2314 34.8229 50.1646 34.4178Z" fill="#1F2223"/>
<path d="M98.7842 39.6344C98.8929 39.8817 99.0718 40.0912 99.2995 40.2366C99.5268 40.3819 99.7925 40.4565 100.062 40.4509C100.332 40.4453 100.595 40.3598 100.816 40.2052C101.037 40.0506 101.208 39.8338 101.306 39.5822C101.404 39.3307 101.425 39.0557 101.367 38.7921C101.309 38.5285 101.174 38.288 100.979 38.1011C100.784 37.9142 100.538 37.7893 100.272 37.7421C100.007 37.695 99.7327 37.7278 99.4857 37.8362C99.3214 37.9079 99.1727 38.0113 99.0484 38.1406C98.9241 38.2699 98.8263 38.4224 98.7613 38.5895C98.6958 38.7566 98.6646 38.935 98.6683 39.1143C98.6724 39.2936 98.7119 39.4703 98.7842 39.6344Z" fill="#1F2223"/>
<path d="M91.1866 42.9837C91.2947 43.231 91.4741 43.4405 91.7019 43.5858C91.9291 43.7312 92.1948 43.8058 92.4647 43.8002C92.7346 43.7946 92.9972 43.7091 93.2182 43.5545C93.4397 43.3999 93.6103 43.1831 93.708 42.9316C93.8063 42.68 93.8276 42.4051 93.7694 42.1414C93.7112 41.8778 93.5765 41.6373 93.3815 41.4504C93.1865 41.2635 92.9405 41.1386 92.6748 41.0914C92.4091 41.0443 92.135 41.077 91.888 41.1856C91.7237 41.2572 91.575 41.3606 91.4507 41.4899C91.3264 41.6192 91.2287 41.7718 91.1637 41.9388C91.0982 42.106 91.067 42.2843 91.0706 42.4636C91.0748 42.6429 91.1143 42.8197 91.1866 42.9837Z" fill="#1F2223"/>
<path d="M50.1543 34.4276C50.222 34.7376 50.3685 35.0249 50.5797 35.2617C50.7908 35.4986 51.0594 35.6769 51.3597 35.7796C51.8582 35.9903 52.4064 36.0554 52.9405 35.9674C59.402 34.9658 65.031 29.4762 69.1239 24.3781C70.8773 25.1831 72.3677 26.4675 73.4222 28.0831C68.3236 37.0146 57.3074 41.3124 57.2975 41.2911" stroke="#1F2223" stroke-width="0.48" stroke-linecap="round" stroke-linejoin="round"/>
<path d="M49.0956 34.6252C49.0956 34.6252 53.8568 34.4089 49.5699 29.9816C46.6267 26.9417 46.103 30.3628 46.7432 31.8323C46.9226 32.2436 46.5903 32.2265 46.1909 32.1157C45.0729 31.8037 45.0053 33.5483 46.9319 33.6669C47.0866 33.7487 47.2214 33.8634 47.3271 34.0028C48.6396 35.9169 48.6022 37.0464 46.4379 38.0734C40.8562 40.7222 37.7435 40.5434 27.8438 41.2454" stroke="#1F2223" stroke-width="0.48" stroke-linecap="round" stroke-linejoin="round"/>
<path d="M49.1055 34.6252L50.7653 35.4354" stroke="#1F2223" stroke-width="0.48" stroke-linecap="round" stroke-linejoin="round"/>
<path d="M28.418 48.3485C34.1681 48.1312 41.5485 47.2046 47.1208 45.2462" stroke="#1F2223" stroke-width="0.48" stroke-linecap="round" stroke-linejoin="round"/>
<path d="M28.8718 41.9759C26.558 42.2755 24.2173 42.3054 21.8965 42.0649C21.1848 41.9654 20.4814 41.8135 19.7921 41.6104C18.9987 41.3932 18.2199 41.1259 17.4604 40.8101C15.3659 39.949 14.8521 40.3359 16.8177 41.8376C19.0123 43.2923 21.396 44.4392 23.9022 45.2462" stroke="#1F2223" stroke-width="0.48" stroke-linecap="round" stroke-linejoin="round"/>
<path d="M29.3168 47.4198C27.7875 47.3283 22.6447 47.3158 21.1263 47.4594C18.4581 47.7162 19.3583 47.1234 20.1903 46.6196C20.7925 46.2556 23.6285 45.5426 22.5911 44.7996" stroke="#1F2223" stroke-width="0.48" stroke-linecap="round" stroke-linejoin="round"/>
<path d="M19.4473 41.5017C18.9928 41.1658 18.1042 40.3848 17.8468 40.158C16.6638 39.118 17.0366 38.8627 17.2638 38.962C18.1744 39.363 19.5758 40.1773 20.4358 40.533C21.819 41.105 24.4471 42.2521 25.7513 42.2224" stroke="#1F2223" stroke-width="0.48" stroke-linecap="round" stroke-linejoin="round"/>
<path d="M20.3457 40.5038C20.1778 40.2958 20.0301 40.1279 19.9505 40.0296C18.9599 38.8081 19.3577 38.6167 19.5652 38.7551C20.3972 39.3083 21.6515 40.3328 22.4403 40.82C23.3896 41.3788 24.3884 41.8488 25.4241 42.224" stroke="#1F2223" stroke-width="0.48" stroke-linecap="round" stroke-linejoin="round"/>
<path d="M26.916 42.1637C27.6815 40.3291 29.2311 41.378 29.5987 44.2551C30.0303 47.6351 28.411 49.698 27.2025 47.3704" stroke="#1F2223" stroke-width="0.48" stroke-linecap="round" stroke-linejoin="round"/>
<path d="M74.3407 22.62C73.9767 22.1359 74.8347 20.2587 74.9236 19.6856C75.0718 18.7273 75.1935 17.6524 73.6787 19.8734C72.4661 21.5649 71.1562 23.1846 69.7559 24.7244" stroke="#1F2223" stroke-width="0.48" stroke-linecap="round" stroke-linejoin="round"/>
<path d="M74.3412 22.62L75.8726 24.0032C76.0182 24.1328 76.209 24.1993 76.4035 24.1882C76.598 24.1771 76.78 24.0892 76.91 23.9439L81.6129 18.72C81.6773 18.6479 81.7268 18.5637 81.759 18.4724C81.7907 18.3811 81.8042 18.2843 81.799 18.1877C81.7933 18.0911 81.7689 17.9965 81.7267 17.9094C81.6846 17.8223 81.6259 17.7443 81.5536 17.68L78.0363 14.508C77.964 14.4435 77.8798 14.3938 77.7888 14.3618C77.6973 14.3298 77.6006 14.3162 77.5038 14.3217C77.4071 14.3272 77.313 14.3517 77.2256 14.3939C77.1388 14.436 77.0608 14.4949 76.9963 14.5673L72.2929 19.7943C72.2284 19.8664 72.1785 19.9506 72.1468 20.0419C72.1146 20.1333 72.101 20.23 72.1067 20.3266C72.1119 20.4233 72.1364 20.5178 72.179 20.6049C72.2211 20.6921 72.2799 20.77 72.3522 20.8343L72.7162 21.1604" stroke="#1F2223" stroke-width="0.48" stroke-linecap="round" stroke-linejoin="round"/>
<path d="M73.1934 27.7488C74.7352 26.0988 82.1374 22.0948 81.1572 21.9492C80.009 21.7781 77.9425 22.919 77.7189 23.0443" stroke="#1F2223" stroke-width="0.48" stroke-linecap="round" stroke-linejoin="round"/>
<path d="M79.3926 22.27C79.6255 22.1182 80.5823 21.4999 81.3748 21.0699C82.1673 20.6398 80.4461 20.6253 79.4186 21.1588" stroke="#1F2223" stroke-width="0.48" stroke-linecap="round" stroke-linejoin="round"/>
<path d="M75.5729 23.7338C75.4345 23.6569 74.6483 23.2835 73.1055 23.7474" stroke="#1F2223" stroke-width="0.48" stroke-linecap="round" stroke-linejoin="round"/>
<path d="M98.7842 39.6344C98.8929 39.8817 99.0718 40.0912 99.2995 40.2365C99.5268 40.3818 99.7925 40.4565 100.062 40.4508C100.332 40.4453 100.595 40.3598 100.816 40.2051C101.037 40.0505 101.208 39.8338 101.306 39.5822C101.404 39.3307 101.425 39.0557 101.367 38.7921C101.309 38.5285 101.174 38.288 100.979 38.1011C100.784 37.9142 100.538 37.7893 100.272 37.7421C100.007 37.695 99.7327 37.7278 99.4857 37.8362C99.3214 37.9079 99.1727 38.0113 99.0484 38.1406C98.9241 38.2699 98.8263 38.4224 98.7613 38.5895C98.6958 38.7566 98.6646 38.9349 98.6683 39.1143C98.6724 39.2936 98.7119 39.4703 98.7842 39.6344Z" stroke="#1F2223" stroke-width="0.48" stroke-linecap="round" stroke-linejoin="round"/>
<path d="M91.1866 42.9837C91.2947 43.231 91.4741 43.4405 91.7019 43.5858C91.9291 43.7312 92.1948 43.8058 92.4647 43.8002C92.7346 43.7946 92.9972 43.7091 93.2182 43.5545C93.4397 43.3999 93.6103 43.1831 93.708 42.9316C93.8063 42.68 93.8276 42.4051 93.7694 42.1414C93.7112 41.8778 93.5765 41.6373 93.3815 41.4504C93.1865 41.2635 92.9405 41.1386 92.6748 41.0914C92.4091 41.0443 92.135 41.077 91.888 41.1856C91.7237 41.2572 91.575 41.3606 91.4507 41.4899C91.3264 41.6192 91.2287 41.7718 91.1637 41.9388C91.0982 42.106 91.067 42.2843 91.0706 42.4636C91.0748 42.6429 91.1143 42.8197 91.1866 42.9837Z" stroke="#1F2223" stroke-width="0.48" stroke-linecap="round" stroke-linejoin="round"/>
<path d="M98.7836 39.6344L93.6855 41.8772" stroke="#1F2223" stroke-width="0.48" stroke-linecap="round" stroke-linejoin="round"/>
<path d="M100.858 23.5102L98.0918 24.7255L99.8504 37.7276" stroke="#1F2223" stroke-width="0.48" stroke-linecap="round" stroke-linejoin="round"/>
<path d="M99.5549 35.5441L89.418 38.8144L85.3672 34.8426L98.6657 28.9739" stroke="#1F2223" stroke-width="0.48" stroke-linecap="round" stroke-linejoin="round"/>
<path d="M52.2539 59.6305C52.8259 58.3658 53.3459 57.043 53.8581 55.6785C53.868 55.6884 53.0261 59.6898 53.3937 62.7822" stroke="#1F2223" stroke-width="0.48" stroke-linecap="round" stroke-linejoin="round"/>
<path d="M44.2051 39.0416C46.7245 43.122 48.0188 48.1114 48.4535 48.9018C50.963 50.3147 55.6758 49.1291 57.2072 47.4594C57.8962 42.0082 57.2592 40.053 55.4782 35.3366" stroke="#1F2223" stroke-width="0.48" stroke-linecap="round" stroke-linejoin="round"/>
<path d="M48.4551 48.9018C46.3705 51.0557 44.0388 48.724 41.0649 64.5018C34.3169 64.4623 31.8666 65.0255 25.5434 65.7665C24.427 69.3545 24.7431 73.2061 26.0671 77.2278L43.0607 71.6451C44.2542 71.2514 45.3125 70.5292 46.1136 69.5609C48.6039 66.5454 50.6703 63.2039 52.2553 59.6289C54.3821 66.365 60.1219 76.5721 63.8581 82.473C69.5781 82.473 74.3314 81.4949 78.1061 79.509C68.0181 71.7044 59.1781 52.6058 57.2093 47.4583" stroke="#1F2223" stroke-width="0.48" stroke-linecap="round" stroke-linejoin="round"/>
<path d="M47.1211 37.7078C47.8292 38.8277 48.4756 39.9853 49.0576 41.1757C51.3399 41.0374 53.0689 40.6224 54.2643 39.5554C53.9508 38.316 53.5072 37.1133 52.9404 35.9674" stroke="#1F2223" stroke-width="0.48" stroke-linecap="round" stroke-linejoin="round"/>
<path d="M55.0152 44.6534L53.6221 46.6788L51.3283 45.6711C51.1801 44.7457 50.9486 43.8357 50.6367 42.952C51.9714 42.871 53.2664 42.4676 54.4109 41.7763C54.6876 42.7179 54.8899 43.68 55.0152 44.6534Z" stroke="#1F2223" stroke-width="0.48" stroke-linecap="round" stroke-linejoin="round"/>
<path d="M73.7881 81.2396C76.9601 84.7371 82.0561 86.4365 84.6665 89.6771C81.1591 89.608 73.9368 88.3927 70.666 87.049C69.9546 85.7054 70.3202 85.073 68.3047 82.2572C70.1585 82.0758 71.993 81.7352 73.7881 81.2396Z" stroke="#1F2223" stroke-width="0.48" stroke-linecap="round" stroke-linejoin="round"/>
<path d="M25.2564 66.8834C23.0631 66.9625 20.8681 66.7867 18.7153 66.3598C16.6608 70.8058 15.1986 76.3485 14.457 79.9354C19.5754 77.532 19.7038 72.28 24.9205 71.7543C24.7804 70.123 24.8937 68.4798 25.2564 66.8834Z" stroke="#1F2223" stroke-width="0.48" stroke-linecap="round" stroke-linejoin="round"/>
<path d="M47.9512 36.9668C49.4035 36.9174 50.6385 36.6309 51.3598 35.7911" stroke="#1F2223" stroke-width="0.48" stroke-linecap="round" stroke-linejoin="round"/>
<path d="M51.0224 31.8984C52.1306 31.6864 53.156 31.1633 53.9781 30.3905C54.8002 29.6177 55.3853 28.6269 55.6655 27.5338C55.9458 26.4408 55.9089 25.2906 55.56 24.2176C55.2105 23.1446 54.5637 22.1931 53.6937 21.4742C52.8243 20.7552 51.7679 20.2986 50.6483 20.1575C49.5288 20.0165 48.3922 20.1969 47.3714 20.6775C46.3506 21.1583 45.4876 21.9195 44.8832 22.8724C44.2788 23.8253 43.958 24.9304 43.9582 26.0588C43.945 26.9517 44.1022 27.8389 44.4215 28.6728C43.645 27.3013 42.4161 26.242 40.945 25.6762C39.4739 25.1104 37.8519 25.0731 36.3564 25.5708C34.8609 26.0684 33.5847 27.0701 32.746 28.4046C31.9072 29.7391 31.5581 31.3234 31.7582 32.8868C31.9583 34.4502 32.6952 35.8956 33.843 36.9758C34.9908 38.056 36.4782 38.704 38.0508 38.8089C39.6235 38.9138 41.1838 38.4693 42.4649 37.5512C43.7461 36.6331 44.6686 35.2985 45.0746 33.7756C45.9342 34.2498 47.0902 34.3091 47.8306 34.8327" stroke="#1F2223" stroke-width="0.48" stroke-linecap="round" stroke-linejoin="round"/>
<path d="M51.7051 80.8345L53.9281 85.6658" stroke="#1F2223" stroke-width="0.48" stroke-linecap="round" stroke-linejoin="round"/>
<path d="M55.2317 82.1387L50.4004 84.3716" stroke="#1F2223" stroke-width="0.48" stroke-linecap="round" stroke-linejoin="round"/>
<path d="M62.7398 14.3806L61.0472 15.1481C60.9416 15.189 60.8454 15.2511 60.7648 15.3304C60.6842 15.4098 60.6203 15.5047 60.5776 15.6096C60.5345 15.7144 60.5137 15.8269 60.5158 15.9401C60.5184 16.0533 60.5433 16.1648 60.5901 16.2679C60.6369 16.371 60.7045 16.4635 60.7882 16.5396C60.872 16.6157 60.9702 16.674 61.0774 16.7108C61.1845 16.7475 61.2978 16.7621 61.4112 16.7535C61.524 16.7449 61.6338 16.7134 61.7341 16.6608L62.6826 16.2297C62.8807 16.1452 63.1043 16.1415 63.305 16.2195C63.5058 16.2974 63.6685 16.4507 63.758 16.6468C63.8474 16.8429 63.8562 17.0661 63.7834 17.2688C63.7106 17.4716 63.5614 17.6378 63.3674 17.732L61.6634 18.512" stroke="#1F2223" stroke-width="0.48" stroke-linecap="round" stroke-linejoin="round"/>
<path d="M61.2578 14.3806L63.1449 18.511" stroke="#1F2223" stroke-width="0.48" stroke-linecap="round" stroke-linejoin="round"/>
<path d="M8.27087 52.884C8.1559 52.664 7.96111 52.4961 7.72638 52.415C7.49165 52.3344 7.23482 52.3463 7.00862 52.4482C6.78242 52.5507 6.60396 52.7358 6.50989 52.9656C6.41588 53.1955 6.41333 53.4529 6.50287 53.6843L6.93759 54.6525" stroke="#1F2223" stroke-width="0.48" stroke-linecap="round" stroke-linejoin="round"/>
<path d="M13.7453 57.0825C13.8976 57.0242 14.0364 56.9353 14.1531 56.8209C14.2698 56.707 14.3619 56.5703 14.4238 56.4195C14.4857 56.2682 14.5161 56.1064 14.513 55.9432C14.5099 55.7799 14.4735 55.6192 14.406 55.471C14.3385 55.3223 14.2413 55.1892 14.1204 55.0794C13.9995 54.9697 13.8574 54.8865 13.703 54.8335C13.5485 54.781 13.385 54.7607 13.2223 54.7737C13.0597 54.7862 12.9014 54.8324 12.7573 54.9089C8.7855 55.8574 7.42205 55.719 6.93793 54.652C7.42205 55.719 6.62177 56.836 3.30208 59.2067C3.03287 59.3492 2.82824 59.5894 2.72996 59.8775C2.63167 60.1661 2.64715 60.4812 2.77322 60.7584C2.89929 61.0355 3.12645 61.2544 3.40834 61.3699C3.69023 61.4858 4.0056 61.4895 4.29008 61.3803L13.7453 57.0825Z" stroke="#1F2223" stroke-width="0.48" stroke-linecap="round" stroke-linejoin="round"/>
</svg>
