<svg width="108" height="113" viewBox="0 0 108 113" fill="none" xmlns="http://www.w3.org/2000/svg">
<path d="M40.2334 10.7047C44.9594 10.0709 50.4401 9.42383 50.4401 9.42383C49.3712 9.56908 48.8166 11.8271 49.1732 14.4549C49.5297 17.0827 50.6917 19.1024 51.7606 18.9571C52.4473 18.8647 52.9227 17.8875 53.0811 16.501C53.7414 16.6463 54.4149 16.7658 55.1015 16.8847C55.1015 16.8847 51.7871 21.9943 54.811 23.1431C57.4388 24.1335 63.4471 19.0628 63.4471 19.0628C70.7293 22.7011 84.8426 25.5263 92.3896 27.0066C90.4687 26.6897 88.4233 35.9436 90.3046 36.4135C81.5108 34.8289 71.924 32.5576 63.7112 28.9401C62.285 31.0654 59.4988 33.5744 59.1819 36.189C55.5373 37.023 51.14 36.9152 48.8826 35.4099C47.8401 28.5176 48.2224 25.3324 49.0543 23.394C46.1145 22.9775 43.2455 22.1646 40.5239 20.9775C33.3126 17.9313 35.0445 11.415 40.2334 10.7047Z" fill="#CFD181"/>
<path d="M54.1643 56.2478L55.3263 56.1289L55.7621 57.2513L56.7789 57.0428L60.8592 65.4405C61.5494 66.8639 62.7642 67.9648 64.2494 68.511C65.7338 69.058 67.3726 69.0079 68.8211 68.372L79.5832 63.1825L84.8513 66.1536C85.6568 72.3203 80.9433 84.1117 73.0731 87.9015L55.4584 78.0242C54.1907 73.3899 52.4344 66.8799 52.2231 66.0083C53.5263 59.4774 53.7167 58.5413 54.1643 56.2478Z" fill="#FDC886"/>
<path d="M53.0947 16.3828C52.7646 19.6577 50.9027 19.8161 49.7546 16.7532C50.8805 16.8016 52.0071 16.6767 53.0947 16.3828Z" fill="#6153BD"/>
<path d="M50.9164 9.47448L50.9824 10.3592C50.8504 10.6101 49.9253 10.8214 49.3186 10.8346C49.5959 9.87272 50.147 9.14644 50.9164 9.47448Z" fill="#6153BD"/>
<path d="M39.1767 10.9688C36.4307 11.9987 33.4332 15.5641 37.9222 19.3928C39.1225 20.3423 40.4819 21.0717 41.9365 21.5473C41.0087 25.7916 39.7063 29.9452 38.0445 33.9594C31.8389 30.6449 25.4212 29.061 19.8626 29.1639C27.4249 18.162 34.9518 10.9952 39.1767 10.9688Z" fill="#FDDE92"/>
<path d="M44.116 70.7979C44.2481 71.1544 44.3801 71.5109 44.5254 71.8807L43.2841 71.194C43.5614 71.0752 43.8387 70.9431 44.116 70.7979Z" fill="#6153BD"/>
<path d="M7.36792 51.3477C10.1542 56.1432 14.8419 60.8156 20.9023 64.4074C17.624 68.779 7.61742 81.0179 2.89211 78.3644C-0.884515 76.2377 1.18867 65.067 7.36792 51.3477Z" fill="#FDDE92"/>
<path d="M93.0781 28.1612C92.5367 27.9763 91.5199 27.6052 91.4539 27.5934C92.2462 26.603 92.8668 26.9331 93.0781 28.1612Z" fill="#6153BD"/>
<path d="M67.0351 1C68.4642 0.998683 69.8648 1.39977 71.0767 2.15725C72.2886 2.91473 73.2628 3.9981 73.8878 5.28329C74.3879 4.77608 75.0234 4.42343 75.7184 4.26748C76.4134 4.11145 77.1386 4.15871 77.8076 4.40356C78.4765 4.64841 79.0609 5.08049 79.4909 5.6483C79.9211 6.21612 80.1787 6.89562 80.2333 7.60584C80.2877 8.31613 80.1368 9.02704 79.7984 9.6538C79.46 10.2806 78.9484 10.7969 78.3247 11.1409C77.701 11.485 76.9915 11.6423 76.2808 11.5942C75.5701 11.5461 74.8883 11.2946 74.3166 10.8697C73.9512 12.0528 73.3027 13.1289 72.4273 14.0048C71.552 14.8806 70.4763 15.5297 69.2934 15.8959C68.1105 16.2621 66.8562 16.3342 65.6391 16.106C64.4219 15.8779 63.2793 15.3563 62.3091 14.5866C62.4376 14.3082 62.6065 14.0505 62.8109 13.8221C62.8929 13.7123 63.002 13.6259 63.1278 13.5712C65.6631 13.2932 65.4651 10.983 63.9993 11.4716C63.2995 11.7093 63.1278 11.564 63.2348 11.1936C64.0271 9.23923 63.1424 4.63068 59.4186 8.85628C59.388 7.83637 59.5617 6.8207 59.9308 5.86931C60.2991 4.91793 60.8551 4.05029 61.5654 3.31769C62.2757 2.58509 63.1257 2.00247 64.0653 1.60437C65.0049 1.20628 66.0147 1.00077 67.0351 1Z" fill="#1F2223"/>
<path d="M89.658 35.3291C90.1598 35.5008 90.7005 35.6724 91.2822 35.8309C90.5031 36.7969 89.8825 36.5328 89.658 35.3291Z" fill="#6153BD"/>
<path d="M103.176 58.1752C98.5335 55.3 93.535 53.0447 88.3074 51.4671C88.874 51.1571 89.413 50.7992 89.9184 50.3975C96.1832 51.4163 102.153 53.7814 107.415 57.3301C106.018 57.6859 104.603 57.9674 103.176 58.1752Z" fill="#1F2223"/>
<path d="M58.6534 87.2109C59.2344 88.373 59.6959 89.1917 59.6833 89.2577C58.5248 95.4092 56.3043 101.312 53.1205 106.702C52.6993 105.493 52.3553 104.258 52.0905 103.005C53.992 99.3324 57.3989 90.5254 58.6534 87.2109Z" fill="#1F2223"/>
<path d="M61.1761 27.7529L62.0872 31.0264C62.6815 30.3001 63.2625 29.6002 63.6982 28.9414C62.8531 28.557 62.008 28.1609 61.1761 27.7529Z" fill="#6153BD"/>
<path d="M60.3311 14.9573L58.1766 16.1326C58.4817 15.7113 58.7339 15.2546 58.9292 14.7725C59.3838 14.907 59.8571 14.9694 60.3311 14.9573Z" fill="#6153BD"/>
<path d="M67.0351 1C68.4642 0.998683 69.8648 1.39977 71.0767 2.15725C72.2886 2.91473 73.2628 3.9981 73.8878 5.28329C74.3879 4.77608 75.0234 4.42343 75.7184 4.26748C76.4134 4.11145 77.1386 4.15871 77.8076 4.40356C78.4765 4.64841 79.0609 5.08049 79.4909 5.6483C79.9211 6.21612 80.1787 6.89562 80.2333 7.60584C80.2877 8.31613 80.1368 9.02704 79.7984 9.6538C79.46 10.2806 78.9485 10.7969 78.3247 11.1409C77.701 11.485 76.9915 11.6423 76.2808 11.5942C75.5702 11.5461 74.8883 11.2946 74.3166 10.8697C73.9512 12.0528 73.3027 13.1289 72.4273 14.0048C71.552 14.8806 70.4763 15.5297 69.2934 15.8959C68.1105 16.2621 66.8562 16.3342 65.6391 16.106C64.4219 15.8779 63.2793 15.3563 62.3091 14.5866C62.4376 14.3082 62.6065 14.0505 62.8109 13.8221C62.8929 13.7123 63.002 13.6259 63.1278 13.5712C65.6631 13.2932 65.4651 10.983 63.9993 11.4716C63.2995 11.7093 63.1278 11.564 63.2348 11.1936C64.0271 9.23923 63.1424 4.63068 59.4186 8.85628C59.388 7.83637 59.5617 6.8207 59.9308 5.86931C60.2991 4.91793 60.8551 4.05029 61.5654 3.31769C62.2757 2.58509 63.1257 2.00247 64.0653 1.60437C65.0049 1.20628 66.0147 1.00077 67.0351 1Z" stroke="#1F2223" stroke-width="0.48" stroke-linejoin="round"/>
<path d="M43.2842 71.194C43.5622 71.0752 43.8402 70.9431 44.1182 70.7979" stroke="#1F2223" stroke-width="0.48" stroke-linecap="round" stroke-linejoin="round"/>
<path d="M55.4713 78.0211L73.0728 87.8978C80.943 84.1079 85.6697 72.3166 84.8642 66.1498L79.5961 63.1787" stroke="#1F2223" stroke-width="0.48" stroke-linecap="round" stroke-linejoin="round"/>
<path d="M66.6689 30.1689C64.3921 32.5584 62.5024 35.2894 61.07 38.2629" stroke="#1F2223" stroke-width="0.48" stroke-linecap="round" stroke-linejoin="round"/>
<path d="M50.5471 86.3235L41.1187 103.281C40.7427 103.958 40.6315 104.751 40.8074 105.505C40.9832 106.259 41.4329 106.921 42.0695 107.362C44.534 109.072 47.1618 110.536 49.9133 111.732C50.6229 112.038 51.4214 112.07 52.1533 111.822C52.8851 111.572 53.4988 111.061 53.8748 110.385L67.9658 85.0586" stroke="#1F2223" stroke-width="0.48" stroke-linecap="round" stroke-linejoin="round"/>
<path d="M39.0215 10.9736C34.7556 11.171 27.3205 18.3121 19.8596 29.152" stroke="#1F2223" stroke-width="0.48" stroke-linecap="round" stroke-linejoin="round"/>
<path d="M7.36769 51.3345C1.18844 65.0538 -0.870148 76.235 2.89189 78.3512C7.67349 81.0409 19.9889 68.2084 30.4097 49.6971C36.4159 39.0275 40.4872 28.795 41.9502 21.5322" stroke="#1F2223" stroke-width="0.48" stroke-linecap="round" stroke-linejoin="round"/>
<path d="M38.0537 33.9578C24.8098 26.8806 10.5651 27.6875 5.92733 35.9254C1.2896 44.1632 7.97411 56.7489 20.9011 64.4204" stroke="#1F2223" stroke-width="0.48" stroke-linecap="round" stroke-linejoin="round"/>
<path d="M5.55884 78.5356L43.2841 71.1943L44.5254 71.881" stroke="#1F2223" stroke-width="0.48" stroke-linecap="round" stroke-linejoin="round"/>
<path d="M73.0731 87.8983L75.6085 89.3113C89.8824 95.6754 99.9571 74.6412 86.381 66.9955L84.8624 66.1504" stroke="#1F2223" stroke-width="0.48" stroke-linecap="round" stroke-linejoin="round"/>
<path d="M45.5683 22.6943L48.3018 30.1287" stroke="#1F2223" stroke-width="0.48" stroke-linecap="round" stroke-linejoin="round"/>
<path d="M58.9307 14.7725C58.9307 14.7725 58.0744 17.3627 56.1312 17.0562C55.0887 16.8922 54.0712 16.7004 53.0676 16.5002" stroke="#1F2223" stroke-width="0.48" stroke-linecap="round" stroke-linejoin="round"/>
<path d="M63.4473 19.0661C63.4473 19.0661 57.439 24.1361 54.8112 23.1332C51.8012 21.9844 55.1017 16.874 55.1017 16.874" stroke="#1F2223" stroke-width="0.48" stroke-linecap="round" stroke-linejoin="round"/>
<path d="M65.4678 19.935C62.8136 22.1271 57.5851 26.099 53.8738 24.8737C50.5871 23.7888 51.6818 19.354 53.2664 16.5156" stroke="#1F2223" stroke-width="0.48" stroke-linecap="round" stroke-linejoin="round"/>
<path d="M93.0781 28.1612C92.5367 27.9763 91.5199 27.6052 91.4539 27.5934C92.2462 26.603 92.8668 26.9331 93.0781 28.1612Z" stroke="#1F2223" stroke-width="0.48" stroke-linecap="round" stroke-linejoin="round"/>
<path d="M50.9166 9.49039C49.5037 8.88296 48.7767 11.6296 49.1735 14.4555C49.5426 17.0833 50.6914 19.1015 51.761 18.9577C52.4609 18.8645 52.9495 17.8457 53.0947 16.4098" stroke="#1F2223" stroke-width="0.48" stroke-linecap="round" stroke-linejoin="round"/>
<path d="M50.4414 9.41113C50.4414 9.41113 44.9509 10.0693 40.2339 10.692C34.97 11.387 33.3048 17.895 40.5245 20.9648C43.2489 22.1426 46.1171 22.9552 49.0549 23.3813" stroke="#1F2223" stroke-width="0.48" stroke-linecap="round" stroke-linejoin="round"/>
<path d="M51.7607 18.9443H42.8349" stroke="#1F2223" stroke-width="0.48" stroke-linecap="round" stroke-linejoin="round"/>
<path d="M55.5106 9.45069C55.6441 8.91026 55.9019 8.4084 56.2633 7.98493C56.9548 7.23642 56.7804 11.5767 56.0916 14.1649C55.6705 15.7495 53.0413 16.858 49.7539 16.7663" stroke="#1F2223" stroke-width="0.48" stroke-linecap="round" stroke-linejoin="round"/>
<path d="M53.9533 5.50198C53.7816 4.51161 53.5578 1.28542 54.5871 4.32674C54.8533 5.14719 55.0611 5.98563 55.2078 6.83569C55.4879 8.23028 55.59 9.65489 55.5115 11.0752" stroke="#1F2223" stroke-width="0.48" stroke-linecap="round" stroke-linejoin="round"/>
<path d="M50.9561 10.3613C50.824 10.6122 49.9261 10.8235 49.3186 10.8367" stroke="#1F2223" stroke-width="0.48" stroke-linecap="round" stroke-linejoin="round"/>
<path d="M52.0117 8.18286C51.9589 8.06402 51.6156 7.32454 51.5759 7.2189C50.7419 5.43622 50.4772 5.93871 50.7711 8.06402C50.9692 9.76934 51.0749 11.484 51.0881 13.2008" stroke="#1F2223" stroke-width="0.48" stroke-linecap="round" stroke-linejoin="round"/>
<path d="M53.4375 8.65781C53.1866 7.40681 52.7376 5.76591 52.6035 5.39617C51.6792 2.80799 50.932 3.25627 51.4915 5.85835C51.8119 7.33661 52.0857 8.42012 52.256 9.4105" stroke="#1F2223" stroke-width="0.48" stroke-linecap="round" stroke-linejoin="round"/>
<path d="M52.4867 5.11949C52.1169 1.07945 53.3742 3.13804 53.8864 5.26474C54.1289 6.23906 54.3145 7.22673 54.4424 8.22266" stroke="#1F2223" stroke-width="0.48" stroke-linecap="round" stroke-linejoin="round"/>
<path d="M54.8115 8.22363C54.2375 8.30196 53.6877 8.50414 53.1998 8.81612C52.7119 9.12818 52.2977 9.54253 51.9857 10.0306" stroke="#1F2223" stroke-width="0.48" stroke-linecap="round" stroke-linejoin="round"/>
<path d="M99.77 31.9118C99.77 31.9118 101.143 31.727 103.256 31.4629C105.475 31.1849 105.791 30.2675 103.23 30.2612C102.952 30.2612 100.14 30.2007 99.3078 30.182C98.8588 30.1716 97.5807 30.0103 97.5779 29.601C97.5717 28.4521 99.7693 25.987 98.9513 25.415C98.4224 25.0466 96.8357 26.5874 95.796 27.7126C95.4988 28.0295 95.1152 28.2522 94.6926 28.3531C94.2701 28.454 93.8274 28.4288 93.4191 28.2805C93.3398 28.2527 91.5571 27.6202 91.4779 27.5938" stroke="#1F2223" stroke-width="0.48" stroke-linecap="round" stroke-linejoin="round"/>
<path d="M99.1914 31.8057C99.1914 31.8057 104.024 32.664 104.341 32.7161C106.863 33.1331 106.415 33.9727 104.183 33.9046C102.057 33.8406 99.4569 33.7989 99.4569 33.7989" stroke="#1F2223" stroke-width="0.48" stroke-linecap="round" stroke-linejoin="round"/>
<path d="M98.65 33.5215C100.16 34.0422 101.698 34.4744 103.259 34.8156C105.756 35.3778 105.239 36.1118 103.008 35.9908C101.63 35.9514 100.257 35.8057 98.9009 35.5551" stroke="#1F2223" stroke-width="0.48" stroke-linecap="round" stroke-linejoin="round"/>
<path d="M97.6066 34.9121C98.8138 35.5979 100.1 36.1347 101.436 36.5106C103.918 37.2001 103.351 37.8944 101.053 37.6462C100.432 37.5767 99.8918 37.5003 99.4421 37.4218C98.1355 37.1945 96.8414 36.9728 95.5209 36.7879C93.5285 36.4605 91.5644 35.9796 89.6461 35.3493" stroke="#1F2223" stroke-width="0.48" stroke-linecap="round" stroke-linejoin="round"/>
<path d="M99.3232 31.0264C98.9271 33.2441 98.0027 34.591 96.4188 36.202" stroke="#1F2223" stroke-width="0.48" stroke-linecap="round" stroke-linejoin="round"/>
<path d="M97.4873 30.4189C96.8289 31.2685 96.0006 31.9715 95.0552 32.483C94.1098 32.9944 93.0682 33.3031 91.9968 33.3894" stroke="#1F2223" stroke-width="0.48" stroke-linecap="round" stroke-linejoin="round"/>
<path d="M63.7061 28.9483C62.2785 31.0722 59.4985 33.5784 59.1823 36.1895C55.5377 37.0235 51.1411 36.9158 48.8831 35.4104C47.2846 24.8339 49.0416 22.9984 50.5997 20.9648" stroke="#1F2223" stroke-width="0.48" stroke-linecap="round" stroke-linejoin="round"/>
<path d="M48.8833 35.3984C48.8833 35.3984 45.4778 44.1269 41.9375 53.9508C46.1665 55.7369 50.7633 56.4799 55.3398 56.1164" stroke="#1F2223" stroke-width="0.48" stroke-linecap="round" stroke-linejoin="round"/>
<path d="M50.9562 44.6798L55.7768 57.2371C60.2783 56.3231 64.6088 54.71 68.6113 52.4569C66.3804 44.0724 62.1944 39.345 59.1837 36.1758" stroke="#1F2223" stroke-width="0.48" stroke-linecap="round" stroke-linejoin="round"/>
<path d="M67.5007 53.0645C67.9261 55.5713 68.1908 58.1032 68.293 60.6441" stroke="#1F2223" stroke-width="0.48" stroke-linecap="round" stroke-linejoin="round"/>
<path d="M68.0025 56.775C68.0025 56.775 78.8306 54.4905 83.2536 53.4077C87.6765 52.3249 89.8957 50.4102 89.8957 50.4102C96.1603 51.429 102.129 53.7941 107.392 57.3428C96.0888 60.1158 93.329 56.8278 87.7301 59.2575L68.8344 68.3683C67.3858 69.0042 65.7471 69.0542 64.2627 68.508C62.7775 67.961 61.5626 66.8601 60.8725 65.4367L56.7921 57.0391" stroke="#1F2223" stroke-width="0.48" stroke-linecap="round" stroke-linejoin="round"/>
<path d="M43.442 54.5303C42.731 58.1776 42.46 61.8966 42.6365 65.6086C42.6775 66.2577 42.7922 66.9006 42.9799 67.5233C44.7174 73.3099 51.3115 88.0696 51.3115 88.0696C52.9357 92.9422 49.8201 97.1671 53.1185 106.701C56.2752 101.299 58.4943 95.4004 59.6814 89.2566C59.7036 89.1441 58.1399 86.4766 57.1474 83.8551C56.4594 82.0391 52.3283 66.405 52.2338 66.0165L54.1617 56.2323" stroke="#1F2223" stroke-width="0.48" stroke-linecap="round" stroke-linejoin="round"/>
<path d="M89.6551 35.3525C90.1569 35.5242 90.6976 35.6959 91.2793 35.8543C90.5002 36.8183 89.8796 36.5542 89.6551 35.3525Z" stroke="#1F2223" stroke-width="0.48" stroke-linecap="round" stroke-linejoin="round"/>
<path d="M60.3311 14.9697L58.1918 16.1318" stroke="#1F2223" stroke-width="0.48" stroke-linecap="round" stroke-linejoin="round"/>
<path d="M60.3312 14.9702C60.3312 14.9702 54.0456 14.9834 59.4201 8.86945C63.0633 4.70988 63.989 9.0432 63.285 11.0629C63.1223 11.5299 63.1995 11.7579 64.0022 11.484C65.468 10.9975 65.666 13.3063 63.1307 13.5836C62.9298 13.6967 62.7581 13.855 62.6289 14.0458C61.0304 16.6597 61.1367 18.1387 64.055 19.3535C71.9245 22.6152 78.8439 24.3575 92.418 27.0124C91.3504 26.7692 90.2711 29.9356 90.0001 31.0156C89.695 32.2312 89.0966 36.1239 90.3052 36.4269C80.5863 34.6706 69.9173 32.0964 61.1763 27.7651L62.1014 31.0268" stroke="#1F2223" stroke-width="0.48" stroke-linecap="round" stroke-linejoin="round"/>
<path d="M57.0276 38.4736C57.0276 38.4736 58.1396 40.2431 61.0684 40.2431" stroke="#1F2223" stroke-width="0.48" stroke-linecap="round" stroke-linejoin="round"/>
<path d="M103.176 58.1752C98.5335 55.3 93.535 53.0447 88.3074 51.4671C88.874 51.1571 89.413 50.7992 89.9184 50.3975C96.1832 51.4163 102.153 53.7814 107.415 57.3301C106.018 57.6859 104.603 57.9674 103.176 58.1752Z" stroke="#1F2223" stroke-width="0.48" stroke-linecap="round" stroke-linejoin="round"/>
<path d="M58.6534 87.2109C59.2344 88.373 59.6959 89.1917 59.6833 89.2577C58.5248 95.4092 56.3043 101.312 53.1205 106.702C52.6993 105.493 52.3553 104.258 52.0905 103.005C53.992 99.3324 57.3989 90.5254 58.6534 87.2109Z" stroke="#1F2223" stroke-width="0.48" stroke-linecap="round" stroke-linejoin="round"/>
</svg>
