<svg width="164" height="158" viewBox="0 0 164 158" fill="none" xmlns="http://www.w3.org/2000/svg">
<path d="M51.3312 77.6486L12.5322 94.1226C10.6892 101.666 14.8882 116.943 24.1412 122.757L63.4352 106.169C55.9112 102.065 49.2222 86.2756 51.3312 77.6486Z" fill="#CFD181"/>
<path d="M75.4782 32.0476C71.3782 33.0476 71.6212 41.0156 72.0202 45.1956C72.6023 50.4297 73.6322 55.6044 75.0982 60.6626C82.2042 57.7976 90.6082 56.2176 98.3362 57.2236C89.7502 41.1866 80.5922 30.7746 75.4782 32.0476Z" fill="#CFD181"/>
<path d="M110.765 86.5226C105.673 93.4006 99.1042 97.4696 92.1652 100.849C96.0272 107.382 100.477 113.879 105.865 118.463C110.254 122.016 114.491 122.301 115.536 115.404C116.678 107.936 113.71 95.6046 110.765 86.5226Z" fill="#CFD181"/>
<path d="M29.0632 120.686L43.1232 154.279C43.4966 155.169 44.1872 155.89 45.0611 156.3C45.9351 156.711 46.9303 156.783 47.8542 156.502C51.4401 155.402 54.9089 153.951 58.2102 152.17C59.0622 151.715 59.7137 150.958 60.037 150.048C60.3603 149.138 60.3322 148.14 59.9582 147.249L45.8782 113.58" stroke="black" stroke-width="1.5" stroke-linecap="round" stroke-linejoin="round"/>
<path d="M92.1642 100.83V100.849" stroke="black" stroke-width="1.5" stroke-linecap="round" stroke-linejoin="round"/>
<path d="M109.169 120.496H109.188" stroke="black" stroke-width="1.5" stroke-linecap="round" stroke-linejoin="round"/>
<path d="M110.784 86.5036C113.71 95.5856 116.673 107.936 115.534 115.404C114.675 121.04 111.504 122.681 106.354 118.853C92.4382 108.512 74.1542 67.7526 72.0232 45.1956C71.6232 41.0086 71.3832 33.0696 75.5002 32.0476C80.5942 30.7826 89.7512 41.1866 98.3392 57.2236" stroke="black" stroke-width="1.5" stroke-linecap="round" stroke-linejoin="round"/>
<path d="M92.1642 100.849C99.2512 97.6377 106.148 92.7547 110.784 86.5037C120.931 72.8237 115.23 59.4087 98.3202 57.2237C92.0092 56.3997 84.3822 57.0927 75.1012 60.6627" stroke="black" stroke-width="1.5" stroke-linecap="round" stroke-linejoin="round"/>
<path d="M12.5322 94.1226C10.6892 101.666 14.8882 116.943 24.1412 122.757L20.7972 124.163C2.1972 130.11 -7.3808 102.578 10.5182 94.9776L12.5322 94.1226Z" stroke="black" stroke-width="1.5" stroke-linecap="round" stroke-linejoin="round"/>
<path d="M12.5132 94.1226L51.3312 77.6486" stroke="black" stroke-width="1.5" stroke-linecap="round" stroke-linejoin="round"/>
<path d="M63.4152 106.159L24.1412 122.757" stroke="black" stroke-width="1.5" stroke-linecap="round" stroke-linejoin="round"/>
<path d="M72.8022 34.7076L51.3312 77.6486C49.2222 86.2756 55.9102 102.065 63.4312 106.169L109.241 120.515" stroke="black" stroke-width="1.5" stroke-linecap="round" stroke-linejoin="round"/>
<path d="M73.6952 33.1876L100.239 0.90564" stroke="black" stroke-width="1.5" stroke-linecap="round" stroke-linejoin="round"/>
<path d="M110.784 120.914L142.667 123.973" stroke="black" stroke-width="1.5" stroke-linecap="round" stroke-linejoin="round"/>
<path d="M130.526 74.0956L162.713 72.4426" stroke="black" stroke-width="1.5" stroke-linecap="round" stroke-linejoin="round"/>
<path d="M123.825 49.4946L150.893 32" stroke="black" stroke-width="1.5" stroke-linecap="round" stroke-linejoin="round"/>
</svg>
