<svg width="108" height="113" viewBox="0 0 108 113" fill="none" xmlns="http://www.w3.org/2000/svg">
<path d="M40.2334 10.7067C44.9594 10.0728 50.4401 9.42578 50.4401 9.42578C49.3712 9.57104 48.8166 11.8291 49.1732 14.4569C49.5297 17.0847 50.6917 19.1044 51.7606 18.9591C52.4473 18.8667 52.9227 17.8895 53.0811 16.503C53.7414 16.6482 54.4149 16.7678 55.1015 16.8866C55.1015 16.8866 51.7871 21.9962 54.811 23.1451C57.4388 24.1355 63.4471 19.0647 63.4471 19.0647C70.7293 22.7031 84.8426 25.5282 92.3896 27.0086C90.4687 26.6917 88.4233 35.9456 90.3046 36.4154C81.5108 34.8308 71.924 32.5596 63.7112 28.9421C62.285 31.0674 59.4988 33.5763 59.1819 36.1909C55.5373 37.0249 51.14 36.9172 48.8826 35.4118C47.8401 28.5195 48.2224 25.3343 49.0543 23.396C46.1145 22.9795 43.2455 22.1665 40.5239 20.9795C33.3126 17.9333 35.0445 11.417 40.2334 10.7067Z" fill="#DADA8F"/>
<path d="M54.1643 56.2517L55.3263 56.1328L55.7621 57.2552L56.7789 57.0467L60.8592 65.4444C61.5494 66.8678 62.7642 67.9687 64.2494 68.5149C65.7338 69.0619 67.3726 69.0119 68.8211 68.3759L79.5832 63.1864L84.8513 66.1575C85.6568 72.3242 80.9433 84.1156 73.0731 87.9054L55.4584 78.0281C54.1907 73.3938 52.4344 66.8838 52.2231 66.0122C53.5263 59.4813 53.7167 58.5452 54.1643 56.2517Z" fill="#FDC886"/>
<path d="M53.0947 16.3828C52.7646 19.6577 50.9027 19.8161 49.7546 16.7532C50.8805 16.8016 52.0071 16.6767 53.0947 16.3828Z" fill="black"/>
<path d="M50.9164 9.47448L50.9824 10.3592C50.8504 10.6101 49.9253 10.8214 49.3186 10.8346C49.5959 9.87272 50.147 9.14644 50.9164 9.47448Z" fill="black"/>
<path d="M39.1767 10.9688C36.4307 11.9987 33.4332 15.5641 37.9222 19.3928C39.1225 20.3423 40.4819 21.0717 41.9365 21.5473C41.0087 25.7916 39.7063 29.9452 38.0445 33.9594C31.8389 30.6449 25.4212 29.061 19.8626 29.1639C27.4249 18.162 34.9518 10.9952 39.1767 10.9688Z" fill="#FDC886"/>
<path d="M44.116 70.7969C44.2481 71.1534 44.3801 71.5099 44.5254 71.8797L43.2841 71.193C43.5614 71.0742 43.8387 70.9421 44.116 70.7969Z" fill="black"/>
<path d="M7.36792 51.3477C10.1542 56.1432 14.8419 60.8156 20.9023 64.4074C17.624 68.779 7.61742 81.0179 2.89211 78.3644C-0.884516 76.2377 1.18867 65.067 7.36792 51.3477Z" fill="#FDC886"/>
<path d="M93.0781 28.1612C92.5367 27.9763 91.5199 27.6052 91.4539 27.5934C92.2462 26.603 92.8668 26.9331 93.0781 28.1612Z" fill="black"/>
<path d="M67.0351 1C68.4642 0.998683 69.8648 1.39977 71.0767 2.15725C72.2886 2.91473 73.2628 3.9981 73.8878 5.28329C74.3879 4.77608 75.0234 4.42343 75.7184 4.26748C76.4134 4.11145 77.1386 4.15871 77.8076 4.40356C78.4765 4.64841 79.0609 5.08049 79.4909 5.6483C79.9211 6.21612 80.1787 6.89562 80.2333 7.60584C80.2877 8.31613 80.1368 9.02704 79.7984 9.6538C79.46 10.2806 78.9484 10.7969 78.3247 11.1409C77.701 11.485 76.9915 11.6423 76.2808 11.5942C75.5701 11.5461 74.8883 11.2946 74.3166 10.8697C73.9512 12.0528 73.3027 13.1289 72.4273 14.0048C71.552 14.8806 70.4763 15.5297 69.2934 15.8959C68.1105 16.2621 66.8562 16.3342 65.6391 16.106C64.4219 15.8779 63.2793 15.3563 62.3091 14.5866C62.4376 14.3082 62.6065 14.0505 62.8109 13.8221C62.8929 13.7123 63.002 13.6259 63.1278 13.5712C65.6631 13.2932 65.4651 10.983 63.9993 11.4716C63.2995 11.7093 63.1278 11.564 63.2348 11.1936C64.0271 9.23923 63.1424 4.63068 59.4186 8.85628C59.388 7.83637 59.5617 6.8207 59.9308 5.86931C60.2991 4.91793 60.8551 4.05029 61.5654 3.31769C62.2757 2.58509 63.1257 2.00247 64.0653 1.60437C65.0049 1.20628 66.0147 1.00077 67.0351 1Z" fill="#1F2223"/>
<path d="M89.658 35.3281C90.1598 35.4998 90.7005 35.6715 91.2822 35.8299C90.5031 36.796 89.8825 36.5319 89.658 35.3281Z" fill="black"/>
<path d="M103.176 58.1762C98.5335 55.301 93.535 53.0457 88.3074 51.468C88.874 51.1581 89.413 50.8001 89.9184 50.3984C96.1832 51.4173 102.153 53.7824 107.415 57.3311C106.018 57.6869 104.603 57.9684 103.176 58.1762Z" fill="#1F2223"/>
<path d="M58.6534 87.2109C59.2344 88.373 59.6959 89.1917 59.6833 89.2577C58.5248 95.4092 56.3043 101.312 53.1205 106.702C52.6993 105.493 52.3553 104.258 52.0905 103.005C53.992 99.3324 57.3989 90.5254 58.6534 87.2109Z" fill="#1F2223"/>
<path d="M61.1761 27.7539L62.0872 31.0274C62.6815 30.3011 63.2625 29.6012 63.6982 28.9424C62.8531 28.558 62.008 28.1619 61.1761 27.7539Z" fill="black"/>
<path d="M60.3311 14.9583L58.1766 16.1336C58.4817 15.7123 58.7339 15.2556 58.9292 14.7734C59.3838 14.908 59.8571 14.9704 60.3311 14.9583Z" fill="black"/>
<path d="M67.0351 1C68.4642 0.998683 69.8648 1.39977 71.0767 2.15725C72.2886 2.91473 73.2628 3.9981 73.8878 5.28329C74.3879 4.77608 75.0234 4.42343 75.7184 4.26748C76.4134 4.11145 77.1386 4.15871 77.8076 4.40356C78.4765 4.64841 79.0609 5.08049 79.4909 5.6483C79.9211 6.21612 80.1787 6.89562 80.2333 7.60584C80.2877 8.31613 80.1368 9.02704 79.7984 9.6538C79.46 10.2806 78.9485 10.7969 78.3247 11.1409C77.701 11.485 76.9915 11.6423 76.2808 11.5942C75.5702 11.5461 74.8883 11.2946 74.3166 10.8697C73.9512 12.0528 73.3027 13.1289 72.4273 14.0048C71.552 14.8806 70.4763 15.5297 69.2934 15.8959C68.1105 16.2621 66.8562 16.3342 65.6391 16.106C64.4219 15.8779 63.2793 15.3563 62.3091 14.5866C62.4376 14.3082 62.6065 14.0505 62.8109 13.8221C62.8929 13.7123 63.002 13.6259 63.1278 13.5712C65.6631 13.2932 65.4651 10.983 63.9993 11.4716C63.2995 11.7093 63.1278 11.564 63.2348 11.1936C64.0271 9.23923 63.1424 4.63068 59.4186 8.85628C59.388 7.83637 59.5617 6.8207 59.9308 5.86931C60.2991 4.91793 60.8551 4.05029 61.5654 3.31769C62.2757 2.58509 63.1257 2.00247 64.0653 1.60437C65.0049 1.20628 66.0147 1.00077 67.0351 1Z" stroke="#1F2223" stroke-width="0.75" stroke-linejoin="round"/>
<path d="M43.2842 71.193C43.5622 71.0742 43.8402 70.9421 44.1182 70.7969" stroke="#1F2223" stroke-width="0.75" stroke-linecap="round" stroke-linejoin="round"/>
<path d="M55.4713 78.0221L73.0728 87.8988C80.943 84.1089 85.6697 72.3175 84.8642 66.1508L79.5961 63.1797" stroke="#1F2223" stroke-width="0.75" stroke-linecap="round" stroke-linejoin="round"/>
<path d="M66.6689 30.168C64.3921 32.5574 62.5024 35.2884 61.07 38.2619" stroke="#1F2223" stroke-width="0.75" stroke-linecap="round" stroke-linejoin="round"/>
<path d="M50.5471 86.3235L41.1187 103.281C40.7427 103.958 40.6315 104.751 40.8074 105.505C40.9832 106.259 41.4329 106.921 42.0695 107.362C44.534 109.072 47.1618 110.536 49.9133 111.732C50.6229 112.038 51.4214 112.07 52.1533 111.822C52.8851 111.572 53.4988 111.061 53.8748 110.385L67.9658 85.0586" stroke="#1F2223" stroke-width="0.75" stroke-linecap="round" stroke-linejoin="round"/>
<path d="M39.0215 10.9727C34.7556 11.17 27.3205 18.3112 19.8596 29.1511" stroke="#1F2223" stroke-width="0.75" stroke-linecap="round" stroke-linejoin="round"/>
<path d="M7.36769 51.3335C1.18844 65.0528 -0.870148 76.234 2.89189 78.3503C7.67349 81.0399 19.9889 68.2074 30.4097 49.6961C36.4159 39.0265 40.4872 28.794 41.9502 21.5312" stroke="#1F2223" stroke-width="0.75" stroke-linecap="round" stroke-linejoin="round"/>
<path d="M38.0537 33.9588C24.8098 26.8816 10.5651 27.6885 5.92733 35.9263C1.2896 44.1642 7.97411 56.7499 20.9011 64.4213" stroke="#1F2223" stroke-width="0.75" stroke-linecap="round" stroke-linejoin="round"/>
<path d="M5.55884 78.5366L43.2841 71.1953L44.5254 71.882" stroke="#1F2223" stroke-width="0.75" stroke-linecap="round" stroke-linejoin="round"/>
<path d="M73.0731 87.8964L75.6085 89.3093C89.8824 95.6734 99.9571 74.6393 86.381 66.9936L84.8624 66.1484" stroke="#1F2223" stroke-width="0.75" stroke-linecap="round" stroke-linejoin="round"/>
<path d="M45.5683 22.6953L48.3018 30.1297" stroke="#1F2223" stroke-width="0.75" stroke-linecap="round" stroke-linejoin="round"/>
<path d="M58.9307 14.7734C58.9307 14.7734 58.0744 17.3637 56.1312 17.0572C55.0887 16.8932 54.0712 16.7014 53.0676 16.5012" stroke="#1F2223" stroke-width="0.75" stroke-linecap="round" stroke-linejoin="round"/>
<path d="M63.4473 19.067C63.4473 19.067 57.439 24.1371 54.8112 23.1342C51.8012 21.9853 55.1017 16.875 55.1017 16.875" stroke="#1F2223" stroke-width="0.75" stroke-linecap="round" stroke-linejoin="round"/>
<path d="M65.4678 19.935C62.8136 22.1271 57.5851 26.099 53.8738 24.8737C50.5871 23.7888 51.6818 19.354 53.2664 16.5156" stroke="#1F2223" stroke-width="0.75" stroke-linecap="round" stroke-linejoin="round"/>
<path d="M93.0781 28.1612C92.5367 27.9763 91.5199 27.6052 91.4539 27.5934C92.2462 26.603 92.8668 26.9331 93.0781 28.1612Z" stroke="#1F2223" stroke-width="0.75" stroke-linecap="round" stroke-linejoin="round"/>
<path d="M50.9166 9.49136C49.5037 8.88393 48.7767 11.6306 49.1735 14.4564C49.5426 17.0842 50.6914 19.1025 51.761 18.9587C52.4609 18.8655 52.9495 17.8467 53.0947 16.4108" stroke="#1F2223" stroke-width="0.75" stroke-linecap="round" stroke-linejoin="round"/>
<path d="M50.4414 9.41016C50.4414 9.41016 44.9509 10.0683 40.2339 10.691C34.97 11.386 33.3048 17.894 40.5245 20.9638C43.2489 22.1417 46.1171 22.9542 49.0549 23.3804" stroke="#1F2223" stroke-width="0.75" stroke-linecap="round" stroke-linejoin="round"/>
<path d="M51.7607 18.9453H42.8349" stroke="#1F2223" stroke-width="0.75" stroke-linecap="round" stroke-linejoin="round"/>
<path d="M55.5106 9.44971C55.6441 8.90928 55.9019 8.40742 56.2633 7.98396C56.9548 7.23544 56.7804 11.5757 56.0916 14.1639C55.6705 15.7485 53.0413 16.857 49.7539 16.7653" stroke="#1F2223" stroke-width="0.75" stroke-linecap="round" stroke-linejoin="round"/>
<path d="M53.9533 5.50101C53.7816 4.51063 53.5578 1.28444 54.5871 4.32576C54.8533 5.14621 55.0611 5.98466 55.2078 6.83471C55.4879 8.2293 55.59 9.65391 55.5115 11.0742" stroke="#1F2223" stroke-width="0.75" stroke-linecap="round" stroke-linejoin="round"/>
<path d="M50.9561 10.3633C50.824 10.6142 49.9261 10.8255 49.3186 10.8387" stroke="#1F2223" stroke-width="0.75" stroke-linecap="round" stroke-linejoin="round"/>
<path d="M52.0117 8.18286C51.9589 8.06402 51.6156 7.32454 51.5759 7.2189C50.7419 5.43622 50.4772 5.93871 50.7711 8.06402C50.9692 9.76934 51.0749 11.484 51.0881 13.2008" stroke="#1F2223" stroke-width="0.75" stroke-linecap="round" stroke-linejoin="round"/>
<path d="M53.4375 8.65976C53.1866 7.40876 52.7376 5.76787 52.6035 5.39813C51.6792 2.80995 50.932 3.25822 51.4915 5.8603C51.8119 7.33857 52.0857 8.42207 52.256 9.41245" stroke="#1F2223" stroke-width="0.75" stroke-linecap="round" stroke-linejoin="round"/>
<path d="M52.4867 5.11851C52.1169 1.07848 53.3742 3.13707 53.8864 5.26377C54.1289 6.23809 54.3145 7.22575 54.4424 8.22169" stroke="#1F2223" stroke-width="0.75" stroke-linecap="round" stroke-linejoin="round"/>
<path d="M54.8115 8.22266C54.2375 8.30098 53.6877 8.50316 53.1998 8.81514C52.7119 9.1272 52.2977 9.54156 51.9857 10.0297" stroke="#1F2223" stroke-width="0.75" stroke-linecap="round" stroke-linejoin="round"/>
<path d="M99.77 31.9118C99.77 31.9118 101.143 31.727 103.256 31.4629C105.475 31.1849 105.791 30.2675 103.23 30.2612C102.952 30.2612 100.14 30.2007 99.3078 30.182C98.8588 30.1716 97.5807 30.0103 97.5779 29.601C97.5717 28.4521 99.7693 25.987 98.9513 25.415C98.4224 25.0466 96.8357 26.5874 95.796 27.7126C95.4988 28.0295 95.1152 28.2522 94.6926 28.3531C94.2701 28.454 93.8274 28.4288 93.4191 28.2805C93.3398 28.2527 91.5571 27.6202 91.4779 27.5938" stroke="#1F2223" stroke-width="0.75" stroke-linecap="round" stroke-linejoin="round"/>
<path d="M99.1914 31.8047C99.1914 31.8047 104.024 32.663 104.341 32.7151C106.863 33.1321 106.415 33.9717 104.183 33.9036C102.057 33.8397 99.4569 33.7979 99.4569 33.7979" stroke="#1F2223" stroke-width="0.75" stroke-linecap="round" stroke-linejoin="round"/>
<path d="M98.65 33.5234C100.16 34.0442 101.698 34.4764 103.259 34.8175C105.756 35.3798 105.239 36.1137 103.008 35.9928C101.63 35.9534 100.257 35.8077 98.9009 35.557" stroke="#1F2223" stroke-width="0.75" stroke-linecap="round" stroke-linejoin="round"/>
<path d="M97.6066 34.9102C98.8138 35.5959 100.1 36.1327 101.436 36.5087C103.918 37.1981 103.351 37.8924 101.053 37.6443C100.432 37.5748 99.8918 37.4983 99.4421 37.4198C98.1355 37.1925 96.8414 36.9708 95.5209 36.786C93.5285 36.4586 91.5644 35.9776 89.6461 35.3473" stroke="#1F2223" stroke-width="0.75" stroke-linecap="round" stroke-linejoin="round"/>
<path d="M99.3232 31.0273C98.9271 33.2451 98.0027 34.592 96.4188 36.203" stroke="#1F2223" stroke-width="0.75" stroke-linecap="round" stroke-linejoin="round"/>
<path d="M97.4873 30.418C96.8289 31.2675 96.0006 31.9705 95.0552 32.482C94.1098 32.9934 93.0682 33.3022 91.9968 33.3884" stroke="#1F2223" stroke-width="0.75" stroke-linecap="round" stroke-linejoin="round"/>
<path d="M63.7061 28.9483C62.2785 31.0722 59.4985 33.5784 59.1823 36.1895C55.5377 37.0235 51.1411 36.9158 48.8831 35.4104C47.2846 24.8339 49.0416 22.9984 50.5997 20.9648" stroke="#1F2223" stroke-width="0.75" stroke-linecap="round" stroke-linejoin="round"/>
<path d="M48.8833 35.3984C48.8833 35.3984 45.4778 44.1269 41.9375 53.9508C46.1665 55.7369 50.7633 56.4799 55.3398 56.1164" stroke="#1F2223" stroke-width="0.75" stroke-linecap="round" stroke-linejoin="round"/>
<path d="M50.9562 44.6798L55.7768 57.2371C60.2783 56.3231 64.6088 54.71 68.6113 52.4569C66.3804 44.0724 62.1944 39.345 59.1837 36.1758" stroke="#1F2223" stroke-width="0.75" stroke-linecap="round" stroke-linejoin="round"/>
<path d="M67.5007 53.0664C67.9261 55.5733 68.1908 58.1052 68.293 60.6461" stroke="#1F2223" stroke-width="0.75" stroke-linecap="round" stroke-linejoin="round"/>
<path d="M68.0025 56.775C68.0025 56.775 78.8306 54.4905 83.2536 53.4077C87.6765 52.3249 89.8957 50.4102 89.8957 50.4102C96.1603 51.429 102.129 53.7941 107.392 57.3428C96.0888 60.1158 93.329 56.8278 87.7301 59.2575L68.8344 68.3683C67.3858 69.0042 65.7471 69.0542 64.2627 68.508C62.7775 67.961 61.5626 66.8601 60.8725 65.4367L56.7921 57.0391" stroke="#1F2223" stroke-width="0.75" stroke-linecap="round" stroke-linejoin="round"/>
<path d="M43.442 54.5312C42.731 58.1786 42.46 61.8976 42.6365 65.6096C42.6775 66.2587 42.7922 66.9016 42.9799 67.5243C44.7174 73.3108 51.3115 88.0706 51.3115 88.0706C52.9357 92.9432 49.8201 97.1681 53.1185 106.702C56.2752 101.3 58.4943 95.4014 59.6814 89.2576C59.7036 89.145 58.1399 86.4776 57.1474 83.8561C56.4594 82.04 52.3283 66.406 52.2338 66.0175L54.1617 56.2333" stroke="#1F2223" stroke-width="0.75" stroke-linecap="round" stroke-linejoin="round"/>
<path d="M89.6551 35.3516C90.1569 35.5232 90.6976 35.6949 91.2793 35.8534C90.5002 36.8173 89.8796 36.5532 89.6551 35.3516Z" stroke="#1F2223" stroke-width="0.75" stroke-linecap="round" stroke-linejoin="round"/>
<path d="M60.3311 14.9688L58.1918 16.1308" stroke="#1F2223" stroke-width="0.75" stroke-linecap="round" stroke-linejoin="round"/>
<path d="M60.3312 14.9721C60.3312 14.9721 54.0456 14.9853 59.4201 8.87141C63.0633 4.71183 63.989 9.04516 63.285 11.0648C63.1223 11.5319 63.1995 11.7598 64.0022 11.486C65.468 10.9995 65.666 13.3083 63.1307 13.5856C62.9298 13.6987 62.7581 13.8569 62.6289 14.0478C61.0304 16.6617 61.1367 18.1406 64.055 19.3555C71.9245 22.6171 78.8439 24.3595 92.418 27.0144C91.3504 26.7711 90.2711 29.9376 90.0001 31.0176C89.695 32.2331 89.0966 36.1258 90.3052 36.4289C80.5863 34.6726 69.9173 32.0983 61.1763 27.7671L62.1014 31.0287" stroke="#1F2223" stroke-width="0.75" stroke-linecap="round" stroke-linejoin="round"/>
<path d="M57.0276 38.4727C57.0276 38.4727 58.1396 40.2421 61.0684 40.2421" stroke="#1F2223" stroke-width="0.75" stroke-linecap="round" stroke-linejoin="round"/>
<path d="M103.176 58.1762C98.5335 55.301 93.535 53.0457 88.3074 51.468C88.874 51.1581 89.413 50.8001 89.9184 50.3984C96.1832 51.4173 102.153 53.7824 107.415 57.3311C106.018 57.6869 104.603 57.9684 103.176 58.1762Z" stroke="#1F2223" stroke-width="0.75" stroke-linecap="round" stroke-linejoin="round"/>
<path d="M58.6534 87.2109C59.2344 88.373 59.6959 89.1917 59.6833 89.2577C58.5248 95.4092 56.3043 101.312 53.1205 106.702C52.6993 105.493 52.3553 104.258 52.0905 103.005C53.992 99.3324 57.3989 90.5254 58.6534 87.2109Z" stroke="#1F2223" stroke-width="0.75" stroke-linecap="round" stroke-linejoin="round"/>
</svg>
