<svg width="540" height="540" viewBox="0 0 540 540" fill="none" xmlns="http://www.w3.org/2000/svg">
<path d="M207.709 349.356C202.05 348.754 196.485 347.46 191.139 345.508C190.852 345.422 190.543 345.449 190.275 345.584C190.007 345.719 189.8 345.948 189.697 346.229C189.594 346.513 189.602 346.823 189.719 347.098C189.837 347.374 190.055 347.593 190.329 347.714C195.898 349.731 201.708 351.005 207.609 351.508C215.011 351.778 222.349 350.041 228.845 346.483C225.559 331.195 211.044 336.582 207.709 349.356Z" fill="#FDC886"/>
<path d="M280.702 361.306C264.994 366.582 248.726 370.008 232.226 371.52C228.409 372.168 224.806 373.729 221.72 376.067C221.716 375.292 221.552 374.528 221.24 373.818C198.147 385.968 173.992 395.982 149.077 403.734L154.339 424.121C146.96 428.946 139.554 433.704 132.199 438.391C141.031 435.567 155.093 459.138 148.081 463.984C176.977 449.01 204.451 431.436 230.161 411.477L242.114 420.25C256.951 421.697 271.919 421.041 286.574 418.303C292.331 396.959 290.292 377.978 280.702 361.306Z" fill="#CFD181"/>
<path d="M396.362 199.454C385.098 136.739 330.482 90.9279 264.44 90.9279C197.869 90.9279 142.95 136.712 132.305 200.208C135.532 184.75 157.801 169.759 189.701 177.463C202.367 150.733 238.974 142.854 264.464 163.345C290.471 140.597 326.462 150.746 339.127 177.463C372.262 169.46 393.208 185.985 396.362 199.454Z" fill="#CFD181"/>
<path fill-rule="evenodd" clip-rule="evenodd" d="M119.325 395.518L139.689 390.236L125.684 336.12L105.327 341.377L119.325 395.518ZM114.929 396.657L110.4 397.829L96.4 343.683L76.0312 348.943L90.0362 403.113L114.929 396.657Z" fill="#CFD181"/>
<path fill-rule="evenodd" clip-rule="evenodd" d="M50.7413 413.267L90.0344 403.113L64.7435 305.343L45.131 310.414L49.7153 309.242L75.0035 406.96L65.7695 409.371L40.4846 311.615L25.4531 315.5L50.7413 413.267Z" fill="#FDC886"/>
<path d="M230.224 411.574L223.145 416.974C229.404 418.443 235.741 419.556 242.126 420.309L230.224 411.574Z" fill="black"/>
<path d="M220.273 371.976C220.753 372.789 221.148 373.648 221.453 374.541L224.583 369.617C223.245 370.572 221.799 371.363 220.273 371.976Z" fill="black"/>
<path d="M257.665 336.42C253.444 338.847 249.369 341.518 245.459 344.42C250.022 337.908 249.252 334.932 241.201 339.56C235.136 343.416 228.751 346.745 222.117 349.51C222.824 350.579 223.393 351.734 223.81 352.947C224.374 354.178 225.144 354.178 226.478 351.972C229.299 347.355 235.045 353.052 228.889 359.564C228.324 360.231 228.632 363.884 230.069 368.183C236.009 367.721 246.895 366.387 252.689 362.243C260.282 356.754 257.409 353.932 254.433 355.061C252.33 355.871 248.998 357.267 248.79 357.369C253.737 354.334 260.004 350.004 263.001 345.006C270.285 333.401 264.078 332.94 257.665 336.42Z" fill="black"/>
<path d="M464.597 245.533C461.262 237.684 439.411 257.739 426.124 259.996C422.965 260.441 419.947 261.598 417.301 263.382C412.805 267.024 409.014 271.458 406.117 276.464C415.756 280.066 424.453 285.798 431.562 293.236C437.667 283.646 445.769 275.079 452.438 266.152C459.62 256.5 465.517 247.739 464.597 245.533Z" fill="#FDC886"/>
<path d="M328.402 372.797C336.3 376.904 342.731 383.354 346.816 391.262C350.056 389.056 353.075 386.942 355.896 384.904L328.402 372.797Z" fill="black"/>
<path d="M486.138 404.036C483.222 402.735 480.044 402.119 476.853 402.241C471.742 402.632 466.757 404.025 462.184 406.345C468.607 414.542 472.857 424.229 474.544 434.506C484.534 429.837 495.215 427.067 505.219 423.117C516.351 418.757 526.047 414.396 526.457 411.985C527.788 403.626 498.601 409.163 486.138 404.036Z" fill="#FDC886"/>
<path d="M149.85 459.691C147.69 461.128 145.336 462.661 143.027 464.154C143.847 464.629 144.787 464.854 145.732 464.8C146.678 464.748 147.587 464.419 148.349 463.857C149.37 462.715 149.909 461.222 149.85 459.691Z" fill="black"/>
<path d="M136.35 438.866C134.225 440.281 131.954 441.469 129.578 442.403C130.043 438.456 132.864 437.43 136.35 438.866Z" fill="black"/>
<path d="M97.5744 483.235L87.8301 485.749L85.3164 476.002L95.0607 473.491L97.5744 483.235Z" fill="#FDC886"/>
<path d="M267.72 365.256C266.579 365.572 268.246 365.137 261.11 366.795C262.594 384.845 262.439 402.991 260.648 421.014C262.906 420.962 265.163 420.808 267.471 420.655C269.426 402.243 269.509 383.683 267.72 365.256Z" fill="black"/>
<path d="M131.84 204.752C131.84 186.181 156.564 169.46 189.701 177.463C202.367 150.733 238.973 142.854 264.464 163.345C290.47 140.597 326.461 150.746 339.127 177.463C372.261 169.46 397.039 186.181 397.039 204.752C397.039 230.04 363.492 238.351 343.579 236.863C323.165 248.149 284.744 248.251 264.483 236.863C244.233 248.251 205.288 248.149 184.873 236.863C168.311 238.864 131.84 230.04 131.84 204.752Z" fill="#FDDE92"/>
<path d="M139.43 222.45L264.461 354.893C264.461 354.893 390.419 221.94 390.47 221.835" stroke="black" stroke-width="0.75" stroke-linecap="round" stroke-linejoin="round"/>
<path d="M264.523 355.05V365.818" stroke="black" stroke-width="0.75" stroke-linecap="round"/>
<path d="M264.461 163.345V354.893" stroke="black" stroke-width="0.75" stroke-linecap="round" stroke-linejoin="round"/>
<path d="M339.12 177.463C337.991 179.353 264.457 354.893 264.457 354.893C264.457 354.893 190.828 179.361 189.699 177.463" stroke="black" stroke-width="0.75" stroke-linecap="round" stroke-linejoin="round"/>
<path d="M149.023 403.728C156.972 401.112 161.538 399.573 170.156 396.495C187.666 390.072 204.731 382.495 221.238 373.815" stroke="black" stroke-width="0.75" stroke-linecap="round" stroke-linejoin="round"/>
<path d="M220.352 372.017C221.874 371.39 223.322 370.599 224.672 369.657L221.55 374.649" stroke="black" stroke-width="0.75" stroke-linecap="round" stroke-linejoin="round"/>
<path d="M221.824 376.059C221.606 374.625 221.105 373.248 220.35 372.009C215.271 374.018 207.549 374.255 209.039 356.014C209.121 354.548 209.31 353.093 209.604 351.653" stroke="black" stroke-width="0.75" stroke-linecap="round" stroke-linejoin="round"/>
<path d="M228.84 346.534C236.826 342.414 237.974 341.447 241.203 339.557C249.255 334.94 250.024 337.916 245.461 344.417C249.367 341.509 253.443 338.839 257.668 336.417C264.072 332.907 270.225 333.353 263.003 344.982C259.212 350.077 254.364 354.294 248.793 357.345C248.998 357.242 252.33 355.849 254.436 355.036C257.406 353.894 260.284 356.729 252.692 362.218C246.924 366.352 236.127 367.694 230.157 368.158" stroke="black" stroke-width="0.75" stroke-linecap="round" stroke-linejoin="round"/>
<path d="M207.704 349.356C202.045 348.754 196.48 347.46 191.134 345.508C190.847 345.414 190.533 345.433 190.258 345.559C189.984 345.689 189.769 345.919 189.657 346.199C189.546 346.483 189.547 346.796 189.659 347.077C189.771 347.358 189.987 347.587 190.262 347.714C195.831 349.731 201.641 351.005 207.542 351.508C214.955 351.788 222.308 350.071 228.829 346.534C225.554 331.195 211.039 336.633 207.704 349.356Z" stroke="black" stroke-width="0.75" stroke-linecap="round" stroke-linejoin="round"/>
<path d="M346.818 391.262C346.818 391.262 380.838 366.366 394.068 356.381C399.293 352.439 403.729 347.549 407.147 341.968L434.728 296.959C425.831 286.132 413.851 278.267 400.378 274.412L365.851 326.322L321.16 349.026C293.871 347.59 280.66 361.357 280.66 361.357" stroke="black" stroke-width="0.75" stroke-linecap="round" stroke-linejoin="round"/>
<path d="M406.133 276.44C409.027 271.442 412.813 267.018 417.3 263.382C419.943 261.596 422.962 260.438 426.124 259.997C439.405 257.718 461.28 237.676 464.596 245.533C465.525 247.736 459.628 256.516 452.446 266.152C445.777 275.095 437.653 283.667 431.545 293.274" stroke="black" stroke-width="0.75" stroke-linecap="round" stroke-linejoin="round"/>
<path d="M328.453 372.848L355.642 384.791" stroke="black" stroke-width="0.75" stroke-linecap="round" stroke-linejoin="round"/>
<path d="M286.598 418.346C316.668 439.325 348.406 457.801 381.495 473.593C384.035 474.803 386.792 475.489 389.605 475.61C392.416 475.735 395.221 475.292 397.859 474.309C423.779 464.319 450.642 453.638 475.16 440.508C474.28 426.011 468.302 412.293 458.285 401.779C434.946 411.934 416.068 420.244 395.243 425.939C395.243 425.939 351.678 400.043 346.818 391.262C336.599 372.794 317.831 365.137 300.808 369.565" stroke="black" stroke-width="0.75" stroke-linecap="round" stroke-linejoin="round"/>
<path d="M474.544 434.506C484.534 429.837 495.215 427.067 505.219 423.117C516.351 418.757 526.047 414.396 526.457 411.985C527.788 403.615 498.601 409.163 486.138 404.036C477.73 400.553 470.616 402.619 462.184 406.345" stroke="black" stroke-width="0.75" stroke-linecap="round" stroke-linejoin="round"/>
<path d="M441.355 409.115C452.744 422.655 459.054 435.891 459.003 448.713" stroke="black" stroke-width="0.75" stroke-linecap="round" stroke-linejoin="round"/>
<path d="M390.934 288.63C403.88 293.995 415.736 301.682 425.917 311.31" stroke="black" stroke-width="0.75" stroke-linecap="round" stroke-linejoin="round"/>
<path d="M125.887 448.508C119.73 453.192 112.876 456.878 105.575 459.435C101.317 461.076 102.084 463.668 107.216 462.872C111.872 462.051 116.428 460.744 120.811 458.973" stroke="black" stroke-width="0.75" stroke-linecap="round" stroke-linejoin="round"/>
<path d="M116.962 460.409C113.201 462.804 109.295 464.964 105.266 466.873C101.067 468.636 102.444 471.285 107.426 470.156C113.23 468.485 118.904 466.393 124.404 463.898" stroke="black" stroke-width="0.75" stroke-linecap="round" stroke-linejoin="round"/>
<path d="M118.348 466.463C115.065 468.925 111.828 471.02 110.499 471.798C106.587 474.082 108.285 476.596 113.013 474.768C117.874 472.713 122.557 470.259 127.015 467.435" stroke="black" stroke-width="0.75" stroke-linecap="round" stroke-linejoin="round"/>
<path d="M149.85 459.691C149.931 460.617 149.756 461.549 149.345 462.38C148.934 463.215 148.302 463.919 147.517 464.419C146.794 464.7 146.018 464.821 145.243 464.773C144.468 464.727 143.712 464.513 143.027 464.149C145.33 462.667 149.85 459.691 149.85 459.691Z" stroke="black" stroke-width="0.75" stroke-linecap="round" stroke-linejoin="round"/>
<path d="M122.966 469.951C121.427 471.477 119.805 472.913 118.106 474.258C114.572 476.933 116.148 478.553 120.671 476.515C128.359 472.832 135.826 468.704 143.035 464.154" stroke="black" stroke-width="0.75" stroke-linecap="round" stroke-linejoin="round"/>
<path d="M136.35 438.866C135.605 438.464 134.775 438.248 133.929 438.234C133.082 438.221 132.246 438.413 131.49 438.793C130.922 439.214 130.456 439.757 130.125 440.381C129.795 441.007 129.608 441.696 129.578 442.403C131.954 441.469 134.225 440.281 136.35 438.866Z" stroke="black" stroke-width="0.75" stroke-linecap="round" stroke-linejoin="round"/>
<path d="M122.964 450.66C107.264 448.562 107.321 445.127 120.194 444.506C123.416 444.32 126.586 443.61 129.579 442.403" stroke="black" stroke-width="0.75" stroke-linecap="round" stroke-linejoin="round"/>
<path d="M162.615 456.203L170.874 488.109L71.5653 513.807L45.918 414.499L145.175 388.851L154.307 424.143" stroke="black" stroke-width="0.75" stroke-linecap="round" stroke-linejoin="round"/>
<path d="M45.9189 414.499L13.5 395.418" stroke="black" stroke-width="0.75" stroke-linecap="round" stroke-linejoin="round"/>
<path d="M145.176 388.851L164.564 355.971" stroke="black" stroke-width="0.75" stroke-linecap="round" stroke-linejoin="round"/>
<path d="M90.0344 403.113L50.7413 413.267L25.4531 315.5L64.7435 305.343L90.0344 403.113Z" stroke="black" stroke-width="0.75" stroke-linecap="round" stroke-linejoin="round"/>
<path d="M75.0027 406.96L65.7687 409.371L40.4805 311.602L49.7145 309.242L75.0027 406.96Z" stroke="black" stroke-width="0.75" stroke-linecap="round" stroke-linejoin="round"/>
<path d="M139.689 390.236L90.0362 403.113L76.0312 348.943L125.684 336.12L139.689 390.236Z" stroke="black" stroke-width="0.75" stroke-linecap="round" stroke-linejoin="round"/>
<path d="M119.326 395.52L110.399 397.829L96.3945 343.661L105.321 341.353L119.326 395.52Z" stroke="black" stroke-width="0.75" stroke-linecap="round" stroke-linejoin="round"/>
<path d="M86.5459 502.062L76.7989 504.576L74.2852 494.829L84.0322 492.315L86.5459 502.062Z" stroke="black" stroke-width="0.75" stroke-linecap="round" stroke-linejoin="round"/>
<path d="M101.418 498.215L91.6739 500.729L89.1602 490.982L98.9045 488.468L101.418 498.215Z" stroke="black" stroke-width="0.75" stroke-linecap="round" stroke-linejoin="round"/>
<path d="M82.6982 487.083L72.9512 489.596L70.4375 479.849L80.1845 477.336L82.6982 487.083Z" stroke="black" stroke-width="0.75" stroke-linecap="round" stroke-linejoin="round"/>
<path d="M97.5744 483.235L87.8301 485.749L85.3164 476.002L95.0607 473.491L97.5744 483.235Z" stroke="black" stroke-width="0.75" stroke-linecap="round" stroke-linejoin="round"/>
<path d="M242.05 420.242L230.224 411.575L223.145 416.961" stroke="black" stroke-width="0.75" stroke-linecap="round" stroke-linejoin="round"/>
<path d="M280.647 361.408C264.939 366.682 248.671 370.108 232.171 371.617C227.554 371.874 221.101 376.285 216.781 379.774C191.015 400.418 161.161 419.99 132.152 438.488C136.756 436.946 142.777 443.151 145.458 447.19C148.663 452.015 152.173 461.195 148.082 464.03C174.358 450.438 199.464 434.695 223.142 416.961C246.387 422.245 262.641 422.091 286.592 418.311C292.346 396.949 290.275 378.054 280.647 361.408Z" stroke="black" stroke-width="0.75" stroke-linecap="round" stroke-linejoin="round"/>
<path d="M261.102 366.898C262.586 384.912 262.432 403.026 260.641 421.014C262.898 420.962 265.155 420.808 267.464 420.655C269.421 402.243 269.507 383.683 267.72 365.256C265.514 365.872 263.308 366.39 261.102 366.898Z" stroke="black" stroke-width="0.75" stroke-linecap="round" stroke-linejoin="round"/>
<path d="M132.305 200.208C142.95 136.712 197.869 90.9279 264.44 90.9279C330.482 90.9279 385.097 136.739 396.362 199.454C393.208 185.985 372.262 169.46 339.127 177.463C326.462 150.746 290.471 140.597 264.464 163.345C238.973 142.854 202.367 150.733 189.701 177.463C157.801 169.759 135.532 184.75 132.305 200.208ZM132.305 200.208C132.18 200.807 132.083 201.406 132.016 202.006C132.108 201.405 132.204 200.805 132.305 200.208Z" stroke="black" stroke-width="0.75" stroke-linecap="round" stroke-linejoin="round"/>
<path d="M339.177 177.463C337.33 137.913 312.552 99.3384 264.438 90.9279C216.324 99.3384 191.538 137.908 189.699 177.463" stroke="black" stroke-width="0.75" stroke-linecap="round" stroke-linejoin="round"/>
<path d="M264.438 90.9279V163.355" stroke="black" stroke-width="0.75" stroke-linecap="round" stroke-linejoin="round"/>
<path d="M131.84 204.752C131.84 186.181 156.564 169.46 189.701 177.463C202.367 150.733 238.973 142.854 264.464 163.345C290.47 140.597 326.461 150.746 339.127 177.463C372.261 169.46 397.039 186.181 397.039 204.752C397.039 230.04 363.492 238.351 343.579 236.863C323.165 248.149 284.744 248.251 264.483 236.863C244.233 248.251 205.288 248.149 184.873 236.863C168.311 238.864 131.84 230.04 131.84 204.752Z" stroke="black" stroke-width="0.75" stroke-linecap="round" stroke-linejoin="round"/>
<path d="M464.646 142.992L457.207 144.993" stroke="black" stroke-width="0.75" stroke-linecap="round" stroke-linejoin="round"/>
<path d="M448.282 139.863L446.281 132.424" stroke="black" stroke-width="0.75" stroke-linecap="round" stroke-linejoin="round"/>
<path d="M454.13 161.355L452.078 153.919" stroke="black" stroke-width="0.75" stroke-linecap="round" stroke-linejoin="round"/>
<path d="M443.151 148.789L435.715 150.841" stroke="black" stroke-width="0.75" stroke-linecap="round" stroke-linejoin="round"/>
<path d="M448.282 139.86C448.528 140.785 448.955 141.652 449.538 142.412C450.118 143.171 450.847 143.808 451.676 144.285C452.508 144.762 453.423 145.069 454.371 145.191C455.321 145.312 456.285 145.244 457.209 144.99C456.282 145.236 455.416 145.662 454.657 146.245C453.898 146.827 453.261 147.554 452.783 148.384C452.308 149.214 452 150.13 451.879 151.08C451.757 152.029 451.825 152.993 452.079 153.916C451.833 152.991 451.406 152.124 450.823 151.364C450.243 150.605 449.514 149.969 448.685 149.491C447.853 149.015 446.938 148.707 445.99 148.586C445.04 148.465 444.076 148.533 443.152 148.786C444.078 148.54 444.945 148.114 445.704 147.531C446.463 146.949 447.1 146.222 447.578 145.392C448.053 144.562 448.361 143.646 448.482 142.696C448.604 141.747 448.536 140.783 448.282 139.86Z" stroke="black" stroke-width="0.75" stroke-linecap="round" stroke-linejoin="round"/>
<path d="M200.523 33.2721L195.496 34.6059" stroke="black" stroke-width="0.75" stroke-linecap="round" stroke-linejoin="round"/>
<path d="M189.494 31.1688L188.109 26.1414" stroke="black" stroke-width="0.75" stroke-linecap="round" stroke-linejoin="round"/>
<path d="M193.392 45.5814L192.059 40.6053" stroke="black" stroke-width="0.75" stroke-linecap="round" stroke-linejoin="round"/>
<path d="M186.055 37.1682L181.082 38.5533" stroke="black" stroke-width="0.75" stroke-linecap="round" stroke-linejoin="round"/>
<path d="M189.496 31.1688C189.663 31.7895 189.951 32.3708 190.343 32.8798C190.736 33.389 191.225 33.8153 191.783 34.1348C192.34 34.4542 192.955 34.6602 193.593 34.7409C194.231 34.8219 194.878 34.776 195.498 34.6059C194.876 34.7706 194.293 35.0573 193.783 35.4488C193.273 35.8406 192.846 36.3296 192.526 36.8877C192.206 37.4458 192.001 38.0616 191.921 38.6999C191.841 39.3379 191.888 39.9857 192.061 40.6053C191.894 39.9846 191.606 39.4027 191.214 38.8935C190.822 38.3846 190.332 37.958 189.775 37.6385C189.217 37.3191 188.601 37.1131 187.963 37.0324C187.326 36.9517 186.679 36.9978 186.059 37.1682C186.68 37.0035 187.263 36.7168 187.773 36.3253C188.283 35.9335 188.711 35.4445 189.03 34.8864C189.35 34.3283 189.556 33.7125 189.636 33.0742C189.715 32.4362 189.668 31.7885 189.496 31.1688Z" stroke="black" stroke-width="0.75" stroke-linecap="round" stroke-linejoin="round"/>
<path d="M421.66 371.258L425.969 387.62" stroke="black" stroke-width="0.75" stroke-linecap="round" stroke-linejoin="round"/>
<path d="M431.97 377.311L415.656 381.567" stroke="black" stroke-width="0.75" stroke-linecap="round" stroke-linejoin="round"/>
<path d="M222.168 349.507C222.759 350.436 223.248 351.427 223.629 352.461C224.206 354.046 224.941 354.499 226.477 351.969C229.288 347.347 235.044 353.049 228.888 359.562C227.503 361.198 230.508 369.428 231.453 371.617" stroke="black" stroke-width="0.75" stroke-linecap="round" stroke-linejoin="round"/>
</svg>
