<svg width="486" height="486" viewBox="0 0 486 486" fill="none" xmlns="http://www.w3.org/2000/svg">
<path d="M317.195 139.798C312.308 134.937 305.827 132.01 298.95 131.557C292.074 131.104 285.265 133.156 279.783 137.334C274.301 141.512 270.517 147.533 269.129 154.284C267.744 161.036 268.848 168.061 272.24 174.061C275.703 171.847 283.734 165.43 283.318 168.521C282.857 171.614 275.564 177.847 275.564 177.847C275.603 178.153 275.618 178.462 275.61 178.77C278.128 181.654 281.202 184 284.647 185.67C288.093 187.34 291.838 188.3 295.663 188.491C299.485 188.682 303.31 188.101 306.904 186.782C310.498 185.464 313.79 183.435 316.583 180.817C319.377 178.2 321.615 175.046 323.163 171.544C324.711 168.043 325.54 164.266 325.595 160.437C325.654 156.609 324.939 152.809 323.496 149.263C322.052 145.717 319.909 142.498 317.195 139.798Z" fill="#CFD181"/>
<path d="M252.149 281.479C248.684 278.306 244.837 275.577 240.699 273.353C217.249 260.559 193.07 249.15 168.285 239.185C167.585 236.597 167.031 234.852 167.031 234.852L140.762 227.234C140.762 227.234 109.877 251.656 117.403 273.538C121.558 285.688 137.992 301.93 193.437 314.671C187.768 343.507 180.511 372.009 171.699 400.046C173.849 395.388 186.143 392.63 200.686 394.26C216.335 396.015 228.524 401.694 227.97 407.003L228.152 407.234C231.615 375.569 232.799 343.694 231.695 311.859L279.187 382.059C276.514 378.278 283.654 367.414 295.371 357.516C307.278 347.451 319.377 342.234 322.424 345.789L322.609 345.881L252.149 281.479Z" fill="#CFD181"/>
<path d="M430.853 264.122C429.808 262.408 428.278 261.045 426.457 260.202C424.637 259.359 422.608 259.074 420.625 259.385C418.645 259.697 416.798 260.588 415.323 261.947C413.848 263.307 412.808 265.074 412.337 267.023C411.865 268.972 411.984 271.018 412.674 272.901C413.367 274.784 414.602 276.422 416.222 277.603C417.843 278.784 419.777 279.46 421.782 279.54C423.787 279.623 425.77 279.107 427.483 278.062C428.62 277.37 429.612 276.459 430.396 275.385C431.184 274.308 431.748 273.086 432.061 271.791C432.375 270.495 432.43 269.152 432.221 267.837C432.015 266.52 431.548 265.259 430.853 264.122Z" fill="#1F2223"/>
<path d="M344.756 320.534C345.801 322.247 347.332 323.61 349.152 324.454C350.972 325.297 353.001 325.581 354.984 325.27C356.964 324.959 358.811 324.067 360.286 322.709C361.761 321.348 362.801 319.581 363.272 317.633C363.744 315.684 363.625 313.638 362.935 311.754C362.242 309.871 361.008 308.233 359.387 307.052C357.766 305.871 355.832 305.196 353.827 305.116C351.822 305.033 349.839 305.548 348.126 306.593C346.989 307.286 345.998 308.197 345.213 309.273C344.425 310.347 343.862 311.57 343.548 312.865C343.235 314.16 343.179 315.504 343.388 316.819C343.594 318.136 344.061 319.397 344.756 320.534Z" fill="#1F2223"/>
<path d="M408.417 101.156C409.217 101.921 410.223 102.432 411.311 102.625C412.402 102.817 413.522 102.682 414.536 102.236C415.547 101.791 416.404 101.055 417 100.122C417.593 99.1892 417.896 98.101 417.872 96.9951C417.848 95.8895 417.496 94.8161 416.859 93.9107C416.225 93.0053 415.335 92.3089 414.302 91.9094C413.272 91.5096 412.145 91.4251 411.066 91.6661C409.987 91.9072 409.003 92.4632 408.24 93.2634C407.221 94.3362 406.67 95.7677 406.701 97.2461C406.736 98.7248 407.353 100.13 408.417 101.156Z" fill="#1F2223"/>
<path d="M67.347 106.512C66.8883 107.229 66.6445 108.062 66.6445 108.913C66.6445 109.764 66.8883 110.597 67.347 111.313C67.7861 111.829 68.3421 112.232 68.9686 112.489C69.595 112.746 70.2737 112.849 70.9483 112.791L67.347 106.512Z" fill="#1F2223"/>
<path d="M88.9986 95.8951C88.603 95.2939 88.0317 94.8295 87.3622 94.5651C86.693 94.3005 85.9584 94.2492 85.2588 94.4176C86.5054 96.4029 87.7058 98.4344 88.9986 100.417C89.3776 99.724 89.5762 98.9464 89.5762 98.1562C89.5762 97.3659 89.3776 96.5883 88.9986 95.8951Z" fill="#1F2223"/>
<path d="M322.689 345.833C320.657 343.432 314.563 344.955 307.176 349.249L317.287 359.82C322.366 353.589 324.628 348.187 322.689 345.833Z" fill="#1F2223"/>
<path d="M286.586 366.33C280.4 373.394 277.399 379.719 279.571 382.305C281.785 384.934 288.849 382.859 297.113 377.595L286.586 366.33Z" fill="#1F2223"/>
<path d="M183.683 123.731C182.153 122.212 180.143 121.271 177.996 121.069C175.849 120.867 173.699 121.416 171.912 122.623C168.505 121.857 164.945 122.147 161.706 123.454C160.672 121.723 159.206 120.291 157.453 119.296C155.699 118.301 153.718 117.777 151.702 117.776C149.685 117.775 147.704 118.297 145.949 119.29C144.195 120.283 142.728 121.715 141.691 123.444C140.655 125.173 140.084 127.142 140.035 129.157C139.986 131.173 140.461 133.166 141.412 134.944C142.363 136.722 143.759 138.222 145.464 139.299C147.168 140.377 149.122 140.994 151.136 141.091C151.549 145.001 153.292 148.651 156.074 151.43C156.074 151.43 164.846 162.049 159.352 167.403C161.195 165.963 162.694 164.13 163.74 162.038C164.787 159.946 165.354 157.647 165.4 155.309C165.442 154.85 165.363 154.388 165.169 153.97C159.539 147.554 165.261 142.337 167.755 146.813C168.955 148.983 169.74 148.983 170.294 147.829C172.418 142.106 182.114 134.304 184.466 144.507V144.461C184.839 146.407 185.009 148.387 184.974 150.368C184.974 149.217 185.02 145.615 185.02 142.199C185.398 139.977 185.335 137.702 184.835 135.504C186.046 133.715 186.594 131.559 186.384 129.41C186.174 127.26 185.218 125.251 183.683 123.731Z" fill="#1F2223"/>
<path d="M228.142 407.142C228.56 403.54 223.064 399.801 214.661 397.179L212.906 413.89C221.632 413.19 227.729 410.697 228.142 407.142Z" fill="#1F2223"/>
<path d="M171.45 400.816C171.035 404.556 177.039 408.527 186.13 411.112L188.074 393.939C178.653 394.537 171.912 397.077 171.45 400.816Z" fill="#1F2223"/>
<path d="M180.777 199.165C180.253 202.739 179.477 206.273 178.457 209.738C180.317 211.117 182.281 212.352 184.33 213.432C183.222 208.676 181.975 203.043 180.777 199.165Z" fill="#1F2223"/>
<path d="M169.096 163.804C169.973 166.112 170.797 168.511 171.589 171.283C171.495 169.58 171.913 167.887 172.79 166.423C171.388 165.82 170.129 164.927 169.096 163.804Z" fill="#1F2223"/>
<path d="M193.518 314.717L187.885 342.188L198.689 315.873L193.518 314.717Z" fill="#1F2223"/>
<path d="M130.551 183.708L134.517 198.145L138.162 189.744C138.162 189.744 130.977 184.036 130.551 183.708Z" fill="#1F2223"/>
<path d="M430.853 264.122C429.808 262.408 428.278 261.045 426.457 260.202C424.637 259.359 422.608 259.074 420.625 259.385C418.645 259.697 416.798 260.588 415.323 261.947C413.848 263.307 412.808 265.074 412.337 267.023C411.865 268.972 411.984 271.018 412.674 272.901C413.367 274.784 414.602 276.422 416.222 277.603C417.843 278.784 419.777 279.46 421.782 279.54C423.787 279.623 425.77 279.107 427.483 278.062C428.62 277.37 429.612 276.459 430.396 275.385C431.184 274.308 431.748 273.086 432.061 271.791C432.375 270.495 432.43 269.152 432.221 267.837C432.015 266.52 431.548 265.259 430.853 264.122Z" stroke="#1F2223" stroke-width="1.1" stroke-linecap="round" stroke-linejoin="round"/>
<path d="M344.756 320.534C345.801 322.247 347.332 323.611 349.152 324.454C350.972 325.297 353.001 325.581 354.984 325.27C356.964 324.959 358.811 324.067 360.286 322.709C361.761 321.348 362.801 319.582 363.272 317.633C363.744 315.684 363.625 313.638 362.935 311.755C362.242 309.871 361.008 308.233 359.387 307.052C357.766 305.872 355.832 305.196 353.827 305.116C351.822 305.033 349.839 305.548 348.126 306.593C346.989 307.286 345.998 308.197 345.213 309.274C344.425 310.348 343.862 311.57 343.548 312.865C343.235 314.16 343.179 315.504 343.388 316.819C343.594 318.136 344.061 319.397 344.756 320.534Z" stroke="#1F2223" stroke-width="1.1" stroke-linecap="round" stroke-linejoin="round"/>
<path d="M413.727 275.339L362.391 310.564" stroke="#1F2223" stroke-width="1.1" stroke-linecap="round" stroke-linejoin="round"/>
<path d="M420.699 259.412L391.752 115.561L412.296 97.1417" stroke="#1F2223" stroke-width="1.1" stroke-linecap="round" stroke-linejoin="round"/>
<path d="M415.204 231.99L313.455 287.527L258.933 238.546L398.585 149.583L415.204 231.99Z" stroke="#1F2223" stroke-width="1.1" stroke-linecap="round" stroke-linejoin="round"/>
<path d="M408.417 101.156C409.217 101.921 410.223 102.432 411.311 102.625C412.402 102.817 413.522 102.682 414.536 102.236C415.547 101.791 416.404 101.055 417 100.122C417.593 99.1892 417.896 98.101 417.872 96.9951C417.848 95.8895 417.496 94.8161 416.859 93.9107C416.225 93.0053 415.335 92.3089 414.302 91.9094C413.272 91.5096 412.145 91.4251 411.066 91.6661C409.987 91.9072 409.003 92.4632 408.24 93.2634C407.221 94.3362 406.67 95.7677 406.701 97.2461C406.736 98.7248 407.353 100.13 408.417 101.156Z" stroke="#1F2223" stroke-width="1.1" stroke-linecap="round" stroke-linejoin="round"/>
<path d="M261.011 200.961C261.983 200.64 278.75 195.071 287.933 187.069" stroke="#1F2223" stroke-width="1.1" stroke-linecap="round" stroke-linejoin="round"/>
<path d="M283.031 188.549C282.951 187.194 282.752 185.848 282.441 184.527" stroke="#1F2223" stroke-width="1.1" stroke-linecap="round" stroke-linejoin="round"/>
<path d="M275.601 178.761C276.016 179.268 276.463 179.733 276.94 180.238C282.062 185.34 288.929 188.308 296.156 188.542C303.383 188.777 310.428 186.259 315.871 181.499C321.312 176.739 324.745 170.091 325.474 162.898C326.206 155.705 324.179 148.503 319.803 142.747C315.429 136.991 309.033 133.11 301.906 131.887C294.781 130.665 287.454 132.193 281.413 136.162C275.37 140.131 271.057 146.246 269.348 153.271C267.64 160.296 268.661 167.708 272.206 174.01" fill="#FDC886"/>
<path d="M275.601 178.761C276.016 179.268 276.463 179.733 276.94 180.238C282.062 185.34 288.929 188.308 296.156 188.542C303.383 188.777 310.428 186.259 315.871 181.499C321.312 176.739 324.745 170.091 325.474 162.898C326.206 155.705 324.179 148.503 319.803 142.747C315.429 136.991 309.033 133.11 301.906 131.887C294.781 130.665 287.454 132.193 281.413 136.162C275.37 140.131 271.057 146.246 269.348 153.271C267.64 160.296 268.661 167.708 272.206 174.01" stroke="#1F2223" stroke-width="1.1" stroke-linecap="round" stroke-linejoin="round"/>
<path d="M134.564 198.473L138.119 189.795L130.552 183.713" stroke="#1F2223" stroke-width="1.1" stroke-linecap="round" stroke-linejoin="round"/>
<path d="M171.596 171.492L168.958 163.716C170.19 164.696 171.506 165.566 172.889 166.316" stroke="#1F2223" stroke-width="1.1" stroke-linecap="round" stroke-linejoin="round"/>
<path d="M177.037 179.961C169.142 179.822 160.924 174.051 153.909 167.59" stroke="#1F2223" stroke-width="1.1" stroke-linecap="round" stroke-linejoin="round"/>
<path d="M153.863 167.59L152.293 179.268L166.603 178.068L176.068 188.456L177.038 179.961" stroke="#1F2223" stroke-width="1.1" stroke-linecap="round" stroke-linejoin="round"/>
<path d="M85.2588 94.4177C85.9584 94.2556 86.6908 94.31 87.3588 94.5739C88.0268 94.8378 88.5986 95.2985 88.9986 95.8951C90.9936 98.658 87.7058 104.342 81.7523 108.589C75.7988 112.837 69.335 114.035 67.3934 111.262C66.9354 110.545 66.6919 109.712 66.6919 108.862C66.6919 108.011 66.9354 107.178 67.3934 106.461" stroke="#1F2223" stroke-width="1.1" stroke-linecap="round" stroke-linejoin="round"/>
<path d="M267.106 189.103C269.553 187.44 276.155 182.731 275.555 177.791C275.555 177.791 282.845 171.558 283.309 168.467C283.773 165.376 275.555 171.881 272.131 174.056C266.381 177.752 260.399 181.067 254.217 183.983" stroke="#1F2223" stroke-width="1.1" stroke-linecap="round" stroke-linejoin="round"/>
<path d="M180.777 199.165L184.33 213.432" stroke="#1F2223" stroke-width="1.1" stroke-linecap="round" stroke-linejoin="round"/>
<path d="M184.976 150.368C184.976 149.214 185.022 145.615 185.022 142.199C185.4 139.977 185.337 137.702 184.838 135.504C186.039 133.713 186.581 131.56 186.37 129.414C186.159 127.268 185.209 125.262 183.681 123.74C182.153 122.217 180.144 121.274 177.997 121.07C175.85 120.867 173.699 121.417 171.912 122.625C168.505 121.858 164.945 122.148 161.706 123.456C160.672 121.726 159.206 120.293 157.453 119.298C155.699 118.303 153.718 117.779 151.702 117.778C149.685 117.777 147.704 118.299 145.949 119.292C144.195 120.286 142.728 121.717 141.691 123.446C140.655 125.176 140.084 127.144 140.035 129.16C139.986 131.175 140.461 133.169 141.412 134.946C142.363 136.724 143.759 138.225 145.464 139.302C147.168 140.379 149.122 140.996 151.136 141.093C151.548 145.004 153.291 148.654 156.074 151.433C156.074 151.433 165.24 162.528 158.965 167.755" stroke="#1F2223" stroke-width="1.1" stroke-linecap="round" stroke-linejoin="round"/>
<path d="M297.113 377.595C288.851 382.859 281.748 384.927 279.522 382.305C275.148 377.141 289.833 362.379 295.774 357.363C301.363 352.646 318.351 340.688 322.689 345.833C324.633 348.139 322.366 353.635 317.287 359.868" stroke="#1F2223" stroke-width="1.1" stroke-linecap="round" stroke-linejoin="round"/>
<path d="M344.479 380.273C331.904 384.484 318.728 386.618 305.468 386.591" stroke="#1F2223" stroke-width="1.1" stroke-linecap="round" stroke-linejoin="round"/>
<path d="M307.176 349.296L318.95 361.577C323.742 367.076 329.44 371.712 335.799 375.287C346.907 381.165 357.118 388.596 366.131 397.354C347.864 400.739 329.029 399.259 311.516 393.06L286.587 366.33" stroke="#1F2223" stroke-width="1.1" stroke-linecap="round" stroke-linejoin="round"/>
<path d="M212.907 413.88C221.633 413.19 227.752 410.694 228.143 407.142C228.918 400.063 210.703 395.684 202.796 394.625C193.282 393.352 172.287 393.283 171.449 400.816C171.033 404.556 177.038 408.527 186.128 411.112" stroke="#1F2223" stroke-width="1.1" stroke-linecap="round" stroke-linejoin="round"/>
<path d="M185.022 421.083C193.893 431.352 203.897 440.581 214.846 448.598" stroke="#1F2223" stroke-width="1.1" stroke-linecap="round" stroke-linejoin="round"/>
<path d="M188.106 394.073L183.951 430.317C186.721 438.025 192.4 453.999 213.774 473.814C217.198 463.882 214.887 447.606 213.266 437.206C212.13 430.028 211.944 422.733 212.712 415.506C212.921 413.581 212.593 416.791 214.644 397.24" stroke="#1F2223" stroke-width="1.1" stroke-linecap="round" stroke-linejoin="round"/>
<path d="M186.777 345.648L198.596 315.735L193.382 314.573" stroke="#1F2223" stroke-width="1.1" stroke-linecap="round" stroke-linejoin="round"/>
<path d="M171.716 399.835C180.61 371.865 187.845 343.395 193.381 314.573C137.931 301.85 121.512 285.54 117.39 273.445C109.857 251.575 140.75 227.142 140.75 227.142" stroke="#1F2223" stroke-width="1.1" stroke-linecap="round" stroke-linejoin="round"/>
<path d="M164.294 250.594C185.235 262.037 205.024 275.472 223.387 290.713C225.814 292.664 227.797 295.111 229.206 297.889C230.614 300.666 231.416 303.714 231.557 306.824C232.963 340.3 231.837 373.836 228.189 407.142" stroke="#1F2223" stroke-width="1.1" stroke-linecap="round" stroke-linejoin="round"/>
<path d="M167.019 234.76C169.046 241.126 170.408 247.685 171.082 254.334" stroke="#1F2223" stroke-width="1.1" stroke-linecap="round" stroke-linejoin="round"/>
<path d="M279.032 381.527L231.742 311.626" stroke="#1F2223" stroke-width="1.1" stroke-linecap="round" stroke-linejoin="round"/>
<path d="M168.219 239.054C193.028 249.06 217.243 260.481 240.745 273.261C244.89 275.472 248.739 278.203 252.195 281.387L322.179 345.339" stroke="#1F2223" stroke-width="1.1" stroke-linecap="round" stroke-linejoin="round"/>
<path d="M88.9526 100.417C88.9526 100.417 77.5972 85.1836 79.5363 74.0105C81.5216 62.5628 79.2301 62.3465 74.2268 72.674C70.9147 79.512 69.7944 95.4795 69.7944 95.4795" stroke="#1F2223" stroke-width="1.1" stroke-linecap="round" stroke-linejoin="round"/>
<path d="M70.9558 112.791C70.9558 112.791 60.7838 95.3484 55.2143 83.3879C51.0468 74.4382 56.4147 77.986 57.9383 80.9871" stroke="#1F2223" stroke-width="1.1" stroke-linecap="round" stroke-linejoin="round"/>
<path d="M66.0085 73.9644C65.3154 70.6226 64.9444 67.2221 64.9004 63.8094C64.9004 53.5597 67.4057 54.0651 69.6097 62.7475C70.6379 66.828 71.8864 70.8498 73.3495 74.7954" stroke="#1F2223" stroke-width="1.1" stroke-linecap="round" stroke-linejoin="round"/>
<path d="M67.9015 72.2123C63.8303 76.6828 61.418 82.4159 61.0684 88.452" stroke="#1F2223" stroke-width="1.1" stroke-linecap="round" stroke-linejoin="round"/>
<path d="M65.2698 69.1651C64.3464 67.0413 63.4254 64.5481 62.5458 61.8751C59.4572 52.4564 57.5157 54.5341 58.5314 63.1217C59.2631 69.1077 60.7196 74.983 62.8689 80.6177" stroke="#1F2223" stroke-width="1.1" stroke-linecap="round" stroke-linejoin="round"/>
<path d="M59.4982 69.3498C56.3149 59.0539 53.9481 60.9031 55.253 70.3218C56.2522 76.6162 58.2134 82.7196 61.068 88.418" stroke="#1F2223" stroke-width="1.1" stroke-linecap="round" stroke-linejoin="round"/>
<path d="M120.761 332.261L114.343 357.144" stroke="#1F2223" stroke-width="1.1" stroke-linecap="round" stroke-linejoin="round"/>
<path d="M129.995 347.957L105.112 341.493" stroke="#1F2223" stroke-width="1.1" stroke-linecap="round" stroke-linejoin="round"/>
<path d="M223 67.5558C265.213 74.9819 255.322 17.2693 297.687 24.8495" stroke="#1F2223" stroke-width="1.1" stroke-linecap="round" stroke-linejoin="round"/>
<path d="M302.882 149.768L291.25 170.219" stroke="#1F2223" stroke-width="1.1" stroke-linecap="round" stroke-linejoin="round"/>
<path d="M307.315 165.835L286.864 154.154" stroke="#1F2223" stroke-width="1.1" stroke-linecap="round" stroke-linejoin="round"/>
<path d="M67.1406 110.915C79.0063 134.561 102.716 160.919 130.564 183.713C134.734 197.998 138.14 212.495 140.77 227.142L167.038 234.76C171.452 226.705 175.274 218.34 178.476 209.731C185.523 214.513 193.203 218.289 201.294 220.948C205.279 222.376 209.62 222.473 213.665 221.225C229.978 216.267 245.901 210.11 261.307 202.805C260.469 195.413 257.628 188.39 253.092 182.493C239.285 188.837 224.761 193.488 209.838 196.344C197.375 191.884 185.534 185.85 174.603 178.386C170.715 175.827 171.113 170.304 172.902 166.307C177.533 168.574 184.648 169.019 184.988 150.687C185.35 132.219 173.302 140.823 170.484 147.387C169.837 148.896 169.174 149.331 167.769 146.808C165.283 142.328 159.507 147.537 165.184 153.965C165.415 154.711 165.478 155.5 165.369 156.273C163.463 166.307 158.397 172.068 150.32 165.264C126.863 145.555 108.353 127.823 89.0106 95.8781" stroke="#1F2223" stroke-width="1.1" stroke-linecap="round" stroke-linejoin="round"/>
<path d="M178.457 209.738C180.299 205.01 181.075 199.934 180.729 194.871" stroke="#1F2223" stroke-width="1.1" stroke-linecap="round" stroke-linejoin="round"/>
<path d="M115.464 29.1944C115.667 29.4435 115.887 29.6712 116.12 29.9191C118.633 32.422 122.002 33.8779 125.547 33.9926C129.092 34.1076 132.547 32.8728 135.217 30.5378C137.886 28.2029 139.571 24.9418 139.928 21.4134C140.287 17.885 139.293 14.3522 137.146 11.5286C135 8.70497 131.863 6.80112 128.367 6.20154C124.872 5.60197 121.278 6.35149 118.315 8.2985C115.35 10.2455 113.235 13.245 112.397 16.6911C111.559 20.1371 112.059 23.773 113.798 26.864" fill="#FDC886"/>
</svg>
