<svg width="110" height="114" viewBox="0 0 110 114" fill="none" xmlns="http://www.w3.org/2000/svg">
<path d="M76.1864 36.4414C75.2501 37.4993 72.0264 41.0494 71.0184 42.3998C64.5333 32.9687 63.2565 31.9678 58.1288 31.9678C49.1144 32.0151 39.7327 35.2836 32.1436 40.0043C27.1093 43.1403 26.6959 44.7102 26.1122 49.5742C25.6776 52.9582 25.4426 56.3646 25.4082 59.7764C25.6335 58.1559 35.805 58.4919 35.805 60.3601C35.8293 57.2836 36.109 50.1092 36.2792 48.4798C36.948 48.2366 37.8479 47.9083 38.8328 47.5678C40.6359 45.9775 42.3376 44.2759 43.9279 42.4727C44.5427 45.4412 44.9169 48.4546 45.0466 51.4833C49.2188 49.482 54.406 49.2337 58.9941 50.17C59.0549 49.9998 59.1279 49.8174 59.1861 49.6471C59.2129 47.2976 59.0748 44.949 58.7727 42.6187C60.1231 44.7614 65.1656 51.7201 67.0927 53.6113C70.2287 56.6999 72.9167 56.4203 75.9452 52.8817C78.5608 49.8546 81.0005 46.6797 83.252 43.3726C83.6668 38.8087 79.092 35.6823 76.1864 36.4414Z" fill="#FDC886"/>
<path d="M75.1901 98.615C74.6576 97.9065 74.3984 97.0304 74.4605 96.1465C72.1834 95.6659 69.8544 95.4739 67.5293 95.575C67.1018 98.263 66.8432 100.804 66.6416 102.167C67.201 100.367 84.0304 105.353 84.3952 107.566C84.4861 104.374 77.6227 101.811 75.1901 98.615Z" fill="#FDC886"/>
<path d="M20.6282 92.3525C17.5478 92.9983 15.7002 93.5525 14.3779 93.8482C16.5059 93.8482 17.6246 111.237 15.5088 112.769C18.6365 111.453 18.4118 104.415 19.6688 101.485C19.8526 100.965 20.1674 100.502 20.5829 100.139C20.9983 99.7772 21.5002 99.5289 22.04 99.4175C21.9582 97.0015 21.4813 94.6149 20.6282 92.3525Z" fill="#FDC886"/>
<path d="M90.5606 23.9771C87.5084 21.5086 83.2038 24.196 83.4105 27.4913C84.071 27.5059 84.7225 27.6463 85.3305 27.9048C85.6908 28.4968 85.8956 29.1702 85.9263 29.8625C86.3398 30.6164 86.6681 31.2366 86.9356 31.7716C90.9862 32.9998 94.5734 27.2148 90.5606 23.9771Z" fill="#FDDE92"/>
<path d="M78.0236 28.9261L77.0636 27.8803L76.2368 25.3267C73.0873 23.977 67.7888 26.6643 68.0044 31.9904C68.1964 36.6234 72.7104 38.5082 75.0444 37.7543C75.543 37.1949 75.9564 36.7303 76.2118 36.441C76.4851 36.366 76.768 36.3332 77.0508 36.3437C77.1724 34.0698 76.832 32.8416 76.832 31.6864C76.832 31.2243 77.3792 30.3731 78.0236 28.9261Z" fill="#FDDE92"/>
<path d="M100.616 19.7817L68.3436 12.1107C66.2278 11.7215 64.9996 12.6092 64.3916 14.19L62.0198 20.2975C62.7039 25.7695 62.6386 28.2815 62.1298 28.9036C61.6921 29.4387 60.6828 29.694 59.4668 29.5116C59.5908 30.3585 59.7572 31.1986 59.9654 32.0287C60.4154 32.0669 60.8626 32.136 61.303 32.2355L67.9302 14.9663L98.9503 22.4934L89.1737 50.4371L80.1388 47.7132C79.4457 48.6131 78.6918 49.5737 77.8649 50.583L89.2345 53.9999C90.9734 54.5228 92.6514 53.9635 93.4175 51.8598L103.036 24.1958C103.693 22.2988 103.498 20.487 100.616 19.7817ZM97.0655 37.7542C97.0258 37.8978 96.9574 38.0318 96.8639 38.1479C96.7705 38.2641 96.654 38.3599 96.5228 38.4296C96.391 38.4992 96.2463 38.5412 96.0978 38.553C95.9494 38.5647 95.7996 38.546 95.6588 38.498C95.5174 38.45 95.3881 38.3736 95.2774 38.2736C95.1666 38.1736 95.0783 38.0521 95.0162 37.9165C94.9542 37.781 94.9209 37.6342 94.9177 37.4852C94.9145 37.3363 94.942 37.1882 94.9983 37.0502C95.038 36.9066 95.1065 36.7725 95.1999 36.6564C95.2934 36.5403 95.4092 36.4445 95.541 36.3748C95.6729 36.3052 95.8175 36.2632 95.966 36.2514C96.1145 36.2396 96.2642 36.2583 96.405 36.3064C96.5458 36.3544 96.6758 36.4308 96.7865 36.5307C96.8966 36.6307 96.9855 36.7523 97.0476 36.8878C97.1097 37.0234 97.143 37.1702 97.1462 37.3192C97.1494 37.4682 97.1218 37.6162 97.0655 37.7542Z" fill="#CFD181"/>
<path d="M74.4727 96.1348C76.5643 96.6212 77.1236 97.2778 77.1236 97.7642C77.1236 98.3844 76.0996 98.6033 75.2036 98.6033C74.6743 97.8935 74.4151 97.0186 74.4727 96.1348Z" fill="#1F2223"/>
<path d="M67.5294 95.5752C67.3713 96.6453 67.2376 97.533 67.1403 98.299C65.7054 98.0194 64.7889 97.4107 64.842 96.7425C64.8868 96.1825 65.6446 95.709 67.5294 95.5752Z" fill="#1F2223"/>
<path d="M18.5733 90.2974C19.1339 90.1554 19.9109 90.6501 20.6283 92.3646C19.3483 92.6443 18.3787 92.8766 17.5883 93.0686C17.3937 91.5742 17.9301 90.46 18.5733 90.2974Z" fill="#1F2223"/>
<path d="M22.0392 99.418C21.5019 99.5351 21.0029 99.786 20.5884 100.148C20.1739 100.509 19.8573 100.969 19.668 101.485C19.924 102.286 20.6081 103.133 21.2341 102.686C21.6904 102.361 22.0827 101.349 22.0392 99.418Z" fill="#1F2223"/>
<path d="M55.9285 59.873C55.7096 62.9738 55.8677 70.355 55.9285 72.9572C54.7125 72.5681 53.6424 72.2398 52.8398 72.0209C54.0315 67.1204 54.98 63.2657 55.9285 59.873Z" fill="#1F2223"/>
<path d="M25.4188 59.7516C25.3458 60.2866 26.343 60.846 27.7868 60.9189C27.9169 60.8197 28.0212 60.6904 28.0908 60.542C28.2026 59.957 28.2434 59.3612 28.2124 58.7666C26.2822 58.9004 25.4796 59.326 25.4188 59.7516Z" fill="#1F2223"/>
<path d="M35.8022 60.2236C35.6954 59.8185 35.0566 59.3833 33.6787 59.1074C33.7152 59.6425 33.7395 60.4207 33.776 61.2834C34.5811 61.2585 35.9942 60.9519 35.8022 60.2236Z" fill="#1F2223"/>
<path d="M43.9393 42.46C44.1582 43.5057 44.3649 44.6609 44.5352 45.852C42.615 46.3241 40.7197 46.8923 38.8564 47.5544C40.6497 45.9579 42.347 44.2569 43.9393 42.46Z" fill="#1F2223"/>
<path d="M60.7804 45.5487C60.2089 46.9836 59.686 48.3333 59.1996 49.6447C59.2261 47.2951 59.0879 44.9465 58.7861 42.6162C59.1266 43.1653 59.8665 44.2597 60.7804 45.5487Z" fill="#1F2223"/>
<path d="M76.7138 103.709C72.0565 102.214 66.9519 101.189 66.6415 102.166C66.2306 103.474 70.8956 105.371 75.5458 106.663C79.5778 107.785 83.6021 108.452 84.2914 107.886C85.6181 106.798 78.3625 104.238 76.7138 103.709Z" fill="#1F2223"/>
<path d="M16.5271 102.479C16.2288 98.0402 15.4218 93.8623 14.3658 93.8623C13.0813 93.8566 12.6378 98.1253 12.792 102.619C12.9642 107.611 13.8743 112.881 15.1927 112.881C17.0506 112.466 16.6538 104.362 16.5271 102.479Z" fill="#1F2223"/>
<path d="M59.3701 27.8438C60.6348 28.7557 61.8021 29.3516 62.1912 28.7801C61.8143 29.534 61.0239 29.7529 59.4917 29.5097C59.4309 28.9503 59.3944 28.391 59.3701 27.8438Z" fill="#CFD181"/>
<path d="M63.6264 15.0273C62.9455 14.1639 61.7659 13.641 59.9541 13.8356C60.7567 7.20839 51.3083 6.25991 50.9435 11.8049C46.116 8.04743 38.3579 13.8721 43.8178 17.8849C40.8507 18.0673 39.8658 21.995 43.0395 21.995C35.7192 26.9927 41.4831 38.1191 57.3154 27.563C58.1687 26.8296 58.9357 26.0015 59.6015 25.0945C58.2517 23.2583 59.7595 22.1031 60.3189 23.4164C60.6351 24.1703 60.9877 23.0151 60.9877 22.0788C61.4331 22.1052 61.8683 22.221 62.2677 22.4193C64.0911 21.3626 65.3071 17.1431 63.6264 15.0273Z" fill="#1F2223"/>
<path d="M59.9658 32.0287C60.4159 32.0669 60.8625 32.136 61.3034 32.2355L67.9306 14.9663L98.9508 22.4934L89.1741 50.4371L80.1393 47.7132C79.4461 48.6131 78.6922 49.5737 77.8653 50.583L89.2349 53.9999C90.9738 54.5228 92.6519 53.9635 93.418 51.8598L103.037 24.1958C103.693 22.2988 103.499 20.487 100.617 19.7817L68.3441 12.1107C66.2282 11.7215 65.0001 12.6092 64.3921 14.19L63.9005 15.4549M97.066 37.7542C97.0263 37.8978 96.9578 38.0318 96.8644 38.1479C96.7709 38.2641 96.6545 38.3599 96.5233 38.4296C96.3914 38.4992 96.2468 38.5412 96.0983 38.553C95.9498 38.5647 95.8001 38.5461 95.6593 38.498C95.5178 38.45 95.3885 38.3736 95.2778 38.2736C95.1671 38.1736 95.0788 38.0521 95.0167 37.9165C94.9546 37.781 94.9213 37.6342 94.9181 37.4852C94.9149 37.3363 94.9425 37.1882 94.9988 37.0502C95.0385 36.9066 95.1069 36.7725 95.2004 36.6564C95.2938 36.5403 95.4097 36.4445 95.5415 36.3748C95.6733 36.3052 95.818 36.2632 95.9665 36.2514C96.1149 36.2396 96.2647 36.2583 96.4055 36.3064C96.5463 36.3544 96.6762 36.4308 96.7869 36.5308C96.897 36.6307 96.986 36.7523 97.0481 36.8878C97.1101 37.0234 97.1434 37.1702 97.1466 37.3192C97.1498 37.4682 97.1223 37.6162 97.066 37.7542Z" stroke="#1F2223" stroke-width="0.48" stroke-linejoin="round"/>
<path d="M17.6489 43.2138C21.4903 43.2138 24.6044 40.0997 24.6044 36.2583C24.6044 32.4168 21.4903 29.3027 17.6489 29.3027C13.8074 29.3027 10.6934 32.4168 10.6934 36.2583C10.6934 40.0997 13.8074 43.2138 17.6489 43.2138Z" stroke="#1F2223" stroke-width="0.48" stroke-linecap="round" stroke-linejoin="round"/>
<path d="M47.7451 92.5586C53.3749 93.6901 59.1137 94.1874 64.8542 94.0421" stroke="#1F2223" stroke-width="0.48" stroke-linecap="round" stroke-linejoin="round"/>
<path d="M77.1236 92.8025C105.235 86.5657 117.935 53.4527 102.465 25.8701M32.1438 87.2684C19.0241 80.807 8.94841 69.4745 4.06636 55.6889C-6.221 27.4777 11.3272 14.981 27.8392 19.8898C36.4356 22.4454 40.6072 20.206 41.1422 12.5938C41.6408 5.50456 46.675 0.187435 61.7048 1.10263C74.7288 1.89655 89.6376 9.54436 97.843 19.1044" stroke="#1F2223" stroke-width="0.48" stroke-linecap="round" stroke-linejoin="round"/>
<path d="M27.7908 60.9309C26.3437 60.8579 25.3492 60.2986 25.4228 59.7635C25.4983 59.192 26.8698 58.6339 30.3962 58.7395C34.3847 58.8624 35.8612 59.688 35.8317 60.3568C35.8113 60.831 34.9562 61.2323 33.7889 61.2688" stroke="#1F2223" stroke-width="0.48" stroke-linecap="round" stroke-linejoin="round"/>
<path d="M71.0313 42.3871C72.0405 41.0374 75.2629 37.4988 76.1993 36.4287C78.4732 35.8086 83.6533 38.1433 83.2521 43.3721C80.9967 46.6757 78.5564 49.8496 75.9439 52.8787C72.9084 56.4102 70.2428 56.7071 67.0914 53.6083C65.062 51.6127 59.8805 44.3923 58.7861 42.6156C59.0882 44.9459 59.2264 47.2945 59.1996 49.6441" stroke="#1F2223" stroke-width="0.48" stroke-linecap="round" stroke-linejoin="round"/>
<path d="M72.2721 44.2114C64.5505 32.8539 63.4197 31.9541 58.1422 31.9541C49.9099 31.9541 40.3265 34.8827 32.1582 39.9919C27.1233 43.14 26.7323 44.7125 26.1269 49.5618C25.6991 52.9465 25.4641 56.3528 25.4229 59.764" stroke="#1F2223" stroke-width="0.48" stroke-linecap="round" stroke-linejoin="round"/>
<path d="M60.7808 45.5361C56.1235 57.1489 54.8998 63.5098 48.7424 89.2481C47.5789 94.1274 46.2989 96.5421 40.5952 98.1901C34.6355 99.9117 22.7443 102.312 21.0176 102.774" stroke="#1F2223" stroke-width="0.48" stroke-linecap="round" stroke-linejoin="round"/>
<path d="M17.5886 93.0581C17.3966 91.5861 17.929 90.4667 18.5735 90.2978C19.4119 90.0776 20.7393 91.307 21.6135 95.8427C22.5389 100.643 21.8055 102.599 21.0177 102.786C20.5185 102.904 19.9476 102.36 19.6679 101.485" stroke="#1F2223" stroke-width="0.48" stroke-linecap="round" stroke-linejoin="round"/>
<path d="M18.5732 90.2979C22.8292 89.3494 38.3576 85.8819 39.4155 85.6406" stroke="#1F2223" stroke-width="0.48" stroke-linecap="round" stroke-linejoin="round"/>
<path d="M59.005 50.1698C50.6389 48.4674 41.2424 50.767 38.2344 58.7183C35.597 65.6988 36.4104 74.502 37.0824 86.1513" stroke="#1F2223" stroke-width="0.48" stroke-linecap="round" stroke-linejoin="round"/>
<path d="M43.1855 39.5537C44.2707 43.4439 44.8991 47.4472 45.0582 51.4827" stroke="#1F2223" stroke-width="0.48" stroke-linecap="round" stroke-linejoin="round"/>
<path d="M35.8164 60.3594C35.8407 57.2951 36.1204 50.0964 36.2906 48.4669C38.985 47.4458 41.7331 46.573 44.523 45.8525" stroke="#1F2223" stroke-width="0.48" stroke-linecap="round" stroke-linejoin="round"/>
<path d="M14.3784 93.8604C16.6037 93.8655 17.7346 112.891 15.2053 112.879C12.676 112.866 11.6667 93.854 14.3784 93.8604Z" stroke="#1F2223" stroke-width="0.48" stroke-linecap="round" stroke-linejoin="round"/>
<path d="M14.3779 93.8604C15.7859 93.5442 16.9802 93.1564 20.6282 92.3525" stroke="#1F2223" stroke-width="0.48" stroke-linecap="round" stroke-linejoin="round"/>
<path d="M22.0512 99.418C20.3001 99.93 19.447 100.769 18.768 105.328C18.3008 108.464 17.4304 112.308 15.2051 112.88" stroke="#1F2223" stroke-width="0.48" stroke-linecap="round" stroke-linejoin="round"/>
<path d="M67.1405 98.2984C65.7056 98.0187 64.8 97.4101 64.8422 96.7541C64.896 95.9144 66.4845 95.2738 70.983 95.6354C75.9936 96.0386 77.1117 97.0703 77.1117 97.7634C77.1117 98.3835 76.0877 98.6024 75.1917 98.6024" stroke="#1F2223" stroke-width="0.48" stroke-linecap="round" stroke-linejoin="round"/>
<path d="M66.6415 102.166C67.2251 100.306 85.0735 105.668 84.3829 107.76C83.8472 109.377 65.8517 104.683 66.6415 102.166Z" stroke="#1F2223" stroke-width="0.48" stroke-linecap="round" stroke-linejoin="round"/>
<path d="M66.6416 102.165C66.8483 100.767 66.9942 99.1739 67.5293 95.5732" stroke="#1F2223" stroke-width="0.48" stroke-linecap="round" stroke-linejoin="round"/>
<path d="M74.4729 96.1348C74.4607 97.9344 74.9849 99.0301 78.741 101.703C81.685 103.796 84.6386 105.533 84.3833 107.758" stroke="#1F2223" stroke-width="0.48" stroke-linecap="round" stroke-linejoin="round"/>
<path d="M57.1328 55.751C62.1875 58.9715 67.0586 62.471 71.7248 66.2329C76.6227 70.3097 77.1239 71.8265 77.1239 78.8915V97.7638" stroke="#1F2223" stroke-width="0.48" stroke-linecap="round" stroke-linejoin="round"/>
<path d="M64.8418 96.7541C64.9269 91.878 64.9634 77.7462 64.8418 75.9362C61.1694 74.6716 55.4786 72.7625 52.8398 72.0322" stroke="#1F2223" stroke-width="0.48" stroke-linecap="round" stroke-linejoin="round"/>
<path d="M55.1995 49.6836C50.299 55.7514 47.2103 69.784 44.523 89.6899C37.0203 92.049 25.6628 94.6877 21.5527 95.5389" stroke="#1F2223" stroke-width="0.48" stroke-linecap="round" stroke-linejoin="round"/>
<path d="M33.6906 59.083C33.7879 60.9921 33.9824 65.931 33.7271 66.8533C33.4717 67.7755 30.737 72.2773 29.1063 74.1979C28.0733 75.4139 26.8023 75.691 28.1091 73.1643C28.8782 71.6552 29.5411 70.0936 30.0931 68.4923C31.6432 64.0795 28.3651 63.131 27.0531 64.7105C25.0487 67.1195 23.5472 67.7249 24.3415 65.8293C24.8259 64.6734 25.0832 63.9809 25.4237 63.1054C25.7642 62.2299 27.953 61.0869 28.0989 60.5761C28.2159 59.9918 28.2567 59.3953 28.2205 58.8008" stroke="#1F2223" stroke-width="0.48" stroke-linecap="round" stroke-linejoin="round"/>
<path d="M29.2987 70.5615C28.2921 71.5887 27.1557 72.4796 25.9182 73.2124C24.4097 74.0963 23.8875 73.2732 25.6622 71.6195C26.9031 70.4668 28.0219 69.1894 29.0011 67.8076" stroke="#1F2223" stroke-width="0.48" stroke-linecap="round" stroke-linejoin="round"/>
<path d="M27.9609 66.9258C28.5892 67.5491 29.3087 68.0727 30.0947 68.4791" stroke="#1F2223" stroke-width="0.48" stroke-linecap="round" stroke-linejoin="round"/>
<path d="M27.5593 69.6379C26.4058 70.2113 25.1841 70.6363 23.9235 70.9025C22.2825 71.2462 22.502 70.2855 24.2396 69.5527C25.6357 68.8923 26.9601 68.0891 28.1916 67.1572" stroke="#1F2223" stroke-width="0.48" stroke-linecap="round" stroke-linejoin="round"/>
<path d="M25.9423 68.6645C25.0585 68.8104 24.1615 68.859 23.2671 68.8104C22.0754 68.6645 21.7343 67.9681 23.5468 67.6917C24.9726 67.4862 26.3586 67.0638 27.6569 66.4392C27.7975 65.5573 28.1248 64.7157 28.6169 63.9707" stroke="#1F2223" stroke-width="0.48" stroke-linecap="round" stroke-linejoin="round"/>
<path d="M55.9414 72.9573C55.8806 70.3186 55.7225 62.7915 55.9414 59.7637" stroke="#1F2223" stroke-width="0.48" stroke-linecap="round" stroke-linejoin="round"/>
<path d="M38.8438 47.555C40.6469 45.9648 42.3485 44.2631 43.9388 42.46" stroke="#1F2223" stroke-width="0.48" stroke-linecap="round" stroke-linejoin="round"/>
<path d="M78.0232 28.9134L77.0632 27.8676L76.2363 25.3262L78.7048 26.3598L90.2664 38.9211C90.4661 39.1372 90.5723 39.4238 90.5608 39.718C90.5493 40.0122 90.4219 40.2898 90.2056 40.4897C89.9893 40.6897 89.7026 40.7956 89.4088 40.7842C89.1144 40.7728 88.8366 40.645 88.637 40.429L79.4562 30.4449" stroke="#1F2223" stroke-width="0.48" stroke-linecap="round" stroke-linejoin="round"/>
<path d="M88.5179 37.0244C88.13 37.0957 87.7697 37.275 87.4792 37.5417C87.1886 37.8085 86.9793 38.1518 86.875 38.5323" stroke="#1F2223" stroke-width="0.48" stroke-linecap="round" stroke-linejoin="round"/>
<path d="M89.1738 37.7422C88.786 37.8137 88.4263 37.9931 88.1357 38.2598C87.8458 38.5266 87.6365 38.8697 87.5322 39.25" stroke="#1F2223" stroke-width="0.48" stroke-linecap="round" stroke-linejoin="round"/>
<path d="M77.0382 36.3312C77.1598 34.0573 76.8193 32.8291 76.8193 31.6739C76.8193 31.1389 77.5617 30.0566 78.3515 28.111C78.875 26.8221 79.9067 27.649 79.4824 30.0202C79.019 32.6102 80.6497 34.0573 82.1454 33.3885" stroke="#1F2223" stroke-width="0.48" stroke-linecap="round" stroke-linejoin="round"/>
<path d="M81.2949 29.1689C82.1826 29.3027 82.9365 29.4365 83.2789 29.5216C83.3276 30.1246 83.3276 30.7305 83.2789 31.3334" stroke="#1F2223" stroke-width="0.48" stroke-linecap="round" stroke-linejoin="round"/>
<path d="M79.4824 27.2148C81.1362 27.2878 84.9301 27.5067 85.3314 27.908C85.9394 28.516 86.0853 31.483 86.1583 32.5288" stroke="#1F2223" stroke-width="0.48" stroke-linecap="round" stroke-linejoin="round"/>
<path d="M85.9277 29.8623C88.0557 33.717 88.08 34.2399 87.1559 35.541" stroke="#1F2223" stroke-width="0.48" stroke-linecap="round" stroke-linejoin="round"/>
<path d="M85.8061 37.3906C84.6509 38.8741 83.3101 40.2361 83.0215 40.9778" stroke="#1F2223" stroke-width="0.48" stroke-linecap="round" stroke-linejoin="round"/>
<path d="M57.3309 27.553C58.1822 26.8229 58.9479 25.9984 59.6131 25.0954C58.2755 23.2592 59.7661 22.1066 60.3306 23.4173C60.6557 24.1725 60.9994 23.016 60.9994 22.0797C61.4442 22.1077 61.8794 22.2234 62.2794 22.4202C64.8451 20.9245 66.2192 13.1786 59.9568 13.8231C60.7562 7.19588 51.2957 6.25956 50.9431 11.7904C46.1155 8.04516 38.3575 13.882 43.8173 17.8826C40.8503 18.065 39.8653 21.9927 43.0391 21.9927C35.704 26.9943 41.4864 38.1386 57.3309 27.553Z" stroke="#1F2223" stroke-width="0.48" stroke-linecap="round" stroke-linejoin="round"/>
<path d="M50.2383 32.7565C54.02 30.592 58.4584 26.8685 59.6136 25.0957" stroke="#1F2223" stroke-width="0.48" stroke-linecap="round" stroke-linejoin="round"/>
<path d="M59.8439 32.002C59.682 31.17 59.5604 30.338 59.4766 29.499C63.0913 30.075 62.5678 28.1364 62.2638 22.4199" stroke="#1F2223" stroke-width="0.48" stroke-linecap="round" stroke-linejoin="round"/>
<path d="M59.4765 29.4994C59.4208 28.9484 59.3817 28.3986 59.3574 27.8438C60.6221 28.7679 61.7894 29.3516 62.1785 28.7679" stroke="#1F2223" stroke-width="0.48" stroke-linecap="round" stroke-linejoin="round"/>
</svg>
