<svg width="110" height="114" viewBox="0 0 110 114" fill="none" xmlns="http://www.w3.org/2000/svg">
<path d="M76.1864 36.4424C75.2501 37.5003 72.0264 41.0503 71.0184 42.4007C64.5333 32.9697 63.2565 31.9688 58.1288 31.9688C49.1144 32.0161 39.7327 35.2846 32.1436 40.0052C27.1093 43.1412 26.6959 44.7111 26.1122 49.5751C25.6776 52.9591 25.4426 56.3655 25.4082 59.7774C25.6335 58.1569 35.805 58.4929 35.805 60.3611C35.8293 57.2846 36.109 50.1102 36.2792 48.4807C36.948 48.2375 37.8479 47.9092 38.8328 47.5688C40.6359 45.9785 42.3376 44.2768 43.9279 42.4737C44.5427 45.4422 44.9169 48.4555 45.0466 51.4843C49.2188 49.483 54.406 49.2347 58.9941 50.171C59.0549 50.0007 59.1279 49.8184 59.1861 49.6481C59.2129 47.2985 59.0748 44.9499 58.7727 42.6196C60.1231 44.7624 65.1656 51.7211 67.0927 53.6123C70.2287 56.7009 72.9167 56.4212 75.9452 52.8827C78.5608 49.8556 81.0005 46.6807 83.252 43.3736C83.6668 38.8097 79.092 35.6833 76.1864 36.4424Z" fill="#DADA8F"/>
<path d="M75.1901 98.617C74.6576 97.9085 74.3984 97.0323 74.4605 96.1485C72.1834 95.6678 69.8544 95.4758 67.5293 95.577C67.1018 98.265 66.8432 100.806 66.6416 102.169C67.201 100.369 84.0304 105.355 84.3952 107.568C84.4861 104.376 77.6227 101.812 75.1901 98.617Z" fill="#FDC886"/>
<path d="M20.6282 92.3516C17.5478 92.9973 15.7002 93.5516 14.3779 93.8472C16.5059 93.8472 17.6246 111.236 15.5088 112.768C18.6365 111.452 18.4118 104.414 19.6688 101.484C19.8526 100.964 20.1674 100.501 20.5829 100.138C20.9983 99.7762 21.5002 99.5279 22.04 99.4165C21.9582 97.0005 21.4813 94.614 20.6282 92.3516Z" fill="#FDC886"/>
<path d="M90.5606 23.9771C87.5084 21.5086 83.2038 24.196 83.4105 27.4913C84.071 27.5059 84.7225 27.6463 85.3305 27.9048C85.6908 28.4968 85.8956 29.1702 85.9263 29.8625C86.3398 30.6164 86.6681 31.2366 86.9356 31.7716C90.9862 32.9998 94.5734 27.2148 90.5606 23.9771Z" fill="#1F2223"/>
<path d="M78.0231 28.9251L77.0631 27.8794L76.2363 25.3258C73.0868 23.976 67.7883 26.6634 68.0039 31.9894C68.1959 36.6224 72.7099 38.5072 75.0439 37.7533C75.5425 37.1939 75.9559 36.7293 76.2113 36.44C76.4846 36.3651 76.7675 36.3322 77.0503 36.3427C77.1719 34.0688 76.8315 32.8406 76.8315 31.6854C76.8315 31.2234 77.3787 30.3722 78.0231 28.9251Z" fill="#1F2223"/>
<path d="M100.617 19.7817L68.3441 12.1107C66.2282 11.7215 65.0001 12.6092 64.3921 14.19L62.0202 20.2975C62.7044 25.7695 62.6391 28.2815 62.1303 28.9036C61.6926 29.4387 60.6833 29.694 59.4673 29.5116C59.5913 30.3585 59.7577 31.1986 59.9658 32.0287C60.4159 32.0669 60.8631 32.136 61.3034 32.2355L67.9306 14.9663L98.9508 22.4934L89.1742 50.4371L80.1393 47.7132C79.4462 48.6131 78.6922 49.5737 77.8654 50.583L89.235 53.9999C90.9738 54.5228 92.6519 53.9635 93.418 51.8598L103.037 24.1958C103.693 22.2988 103.499 20.487 100.617 19.7817ZM97.066 37.7542C97.0263 37.8978 96.9578 38.0318 96.8644 38.1479C96.771 38.2641 96.6545 38.3599 96.5233 38.4296C96.3914 38.4992 96.2468 38.5412 96.0983 38.553C95.9498 38.5647 95.8001 38.546 95.6593 38.498C95.5178 38.45 95.3886 38.3736 95.2778 38.2736C95.1671 38.1736 95.0788 38.0521 95.0167 37.9165C94.9546 37.781 94.9214 37.6342 94.9182 37.4852C94.915 37.3363 94.9425 37.1882 94.9988 37.0502C95.0385 36.9066 95.107 36.7725 95.2004 36.6564C95.2938 36.5403 95.4097 36.4445 95.5415 36.3748C95.6734 36.3052 95.818 36.2632 95.9665 36.2514C96.115 36.2396 96.2647 36.2583 96.4055 36.3064C96.5463 36.3544 96.6762 36.4308 96.787 36.5307C96.897 36.6307 96.986 36.7523 97.0481 36.8878C97.1102 37.0234 97.1434 37.1702 97.1466 37.3192C97.1498 37.4682 97.1223 37.6162 97.066 37.7542Z" fill="#DADA8F"/>
<path d="M74.4727 96.1328C76.5643 96.6192 77.1236 97.2759 77.1236 97.7623C77.1236 98.3824 76.0996 98.6013 75.2036 98.6013C74.6743 97.8915 74.4151 97.0167 74.4727 96.1328Z" fill="#1F2223"/>
<path d="M67.5294 95.5742C67.3713 96.6443 67.2376 97.532 67.1403 98.2981C65.7054 98.0184 64.7889 97.4097 64.842 96.7416C64.8868 96.1816 65.6446 95.708 67.5294 95.5742Z" fill="#1F2223"/>
<path d="M18.5733 90.2965C19.1339 90.1544 19.9109 90.6491 20.6283 92.3637C19.3483 92.6433 18.3787 92.8757 17.5883 93.0677C17.3937 91.5733 17.9301 90.459 18.5733 90.2965Z" fill="#1F2223"/>
<path d="M22.0387 99.418C21.5014 99.5351 21.0024 99.786 20.5879 100.148C20.1734 100.509 19.8569 100.969 19.6675 101.485C19.9235 102.286 20.6076 103.133 21.2336 102.686C21.6899 102.361 22.0822 101.349 22.0387 99.418Z" fill="#1F2223"/>
<path d="M55.9285 59.875C55.7096 62.9758 55.8677 70.3569 55.9285 72.9592C54.7125 72.57 53.6424 72.2417 52.8398 72.0228C54.0315 67.1224 54.98 63.2676 55.9285 59.875Z" fill="#1F2223"/>
<path d="M25.4193 59.7506C25.3463 60.2856 26.3434 60.845 27.7873 60.9179C27.9174 60.8187 28.0217 60.6895 28.0913 60.541C28.2031 59.956 28.2439 59.3602 28.2129 58.7656C26.2826 58.8994 25.4801 59.325 25.4193 59.7506Z" fill="#1F2223"/>
<path d="M35.8027 60.2216C35.6958 59.8165 35.0571 59.3813 33.6792 59.1055C33.7157 59.6405 33.74 60.4187 33.7765 61.2815C34.5816 61.2565 35.9947 60.9499 35.8027 60.2216Z" fill="#1F2223"/>
<path d="M43.9388 42.4609C44.1577 43.5067 44.3644 44.6619 44.5347 45.8529C42.6145 46.3251 40.7192 46.8933 38.856 47.5553C40.6492 45.9589 42.3465 44.2579 43.9388 42.4609Z" fill="#1F2223"/>
<path d="M60.7804 45.5497C60.2089 46.9845 59.686 48.3343 59.1996 49.6457C59.2261 47.296 59.0879 44.9475 58.7861 42.6172C59.1266 43.1663 59.8665 44.2607 60.7804 45.5497Z" fill="#1F2223"/>
<path d="M76.7138 103.708C72.0565 102.213 66.9519 101.188 66.6415 102.165C66.2306 103.473 70.8956 105.37 75.5458 106.662C79.5778 107.784 83.6021 108.451 84.2914 107.885C85.6181 106.797 78.3625 104.237 76.7138 103.708Z" fill="#1F2223"/>
<path d="M16.5271 102.48C16.2288 98.0412 15.4218 93.8633 14.3658 93.8633C13.0813 93.8575 12.6378 98.1263 12.792 102.62C12.9642 107.612 13.8743 112.882 15.1927 112.882C17.0506 112.467 16.6538 104.363 16.5271 102.48Z" fill="#1F2223"/>
<path d="M59.3701 27.8438C60.6348 28.7557 61.8021 29.3516 62.1912 28.7801C61.8143 29.534 61.0239 29.7529 59.4917 29.5097C59.4309 28.9503 59.3944 28.391 59.3701 27.8438Z" fill="#DADA8F"/>
<path d="M63.6259 15.0273C62.945 14.1639 61.7655 13.641 59.9536 13.8356C60.7562 7.20839 51.3079 6.25991 50.9431 11.8049C46.1155 8.04743 38.3575 13.8721 43.8173 17.8849C40.8503 18.0673 39.8653 21.995 43.0391 21.995C35.7187 26.9927 41.4826 38.1191 57.3149 27.563C58.1682 26.8296 58.9352 26.0015 59.601 25.0945C58.2512 23.2583 59.7591 22.1031 60.3184 23.4164C60.6346 24.1703 60.9872 23.0151 60.9872 22.0788C61.4327 22.1052 61.8679 22.221 62.2672 22.4193C64.0906 21.3626 65.3066 17.1431 63.6259 15.0273Z" fill="#1F2223"/>
<path d="M59.9658 32.0287C60.4159 32.0669 60.8625 32.136 61.3034 32.2355L67.9306 14.9663L98.9508 22.4934L89.1741 50.4371L80.1393 47.7132C79.4461 48.6131 78.6922 49.5737 77.8653 50.583L89.2349 53.9999C90.9738 54.5228 92.6519 53.9635 93.418 51.8598L103.037 24.1958C103.693 22.2988 103.499 20.487 100.617 19.7817L68.3441 12.1107C66.2282 11.7215 65.0001 12.6092 64.3921 14.19L63.9005 15.4549M97.066 37.7542C97.0263 37.8978 96.9578 38.0318 96.8644 38.1479C96.7709 38.2641 96.6545 38.3599 96.5233 38.4296C96.3914 38.4992 96.2468 38.5412 96.0983 38.553C95.9498 38.5647 95.8001 38.5461 95.6593 38.498C95.5178 38.45 95.3885 38.3736 95.2778 38.2736C95.1671 38.1736 95.0788 38.0521 95.0167 37.9165C94.9546 37.781 94.9213 37.6342 94.9181 37.4852C94.9149 37.3363 94.9425 37.1882 94.9988 37.0502C95.0385 36.9066 95.1069 36.7725 95.2004 36.6565C95.2938 36.5403 95.4097 36.4445 95.5415 36.3748C95.6733 36.3052 95.818 36.2632 95.9665 36.2514C96.1149 36.2396 96.2647 36.2583 96.4055 36.3064C96.5463 36.3544 96.6762 36.4308 96.7869 36.5308C96.897 36.6307 96.986 36.7523 97.0481 36.8878C97.1101 37.0234 97.1434 37.1702 97.1466 37.3192C97.1498 37.4682 97.1223 37.6162 97.066 37.7542Z" fill="#FDC886"/>
<path d="M59.9658 32.0287C60.4159 32.0669 60.8625 32.136 61.3034 32.2355L67.9306 14.9663L98.9508 22.4934L89.1741 50.4371L80.1393 47.7132C79.4461 48.6131 78.6922 49.5737 77.8653 50.583L89.2349 53.9999C90.9738 54.5228 92.6519 53.9635 93.418 51.8598L103.037 24.1958C103.693 22.2988 103.499 20.487 100.617 19.7817L68.3441 12.1107C66.2282 11.7215 65.0001 12.6092 64.3921 14.19L63.9005 15.4549M97.066 37.7542C97.0263 37.8978 96.9578 38.0318 96.8644 38.1479C96.7709 38.2641 96.6545 38.3599 96.5233 38.4296C96.3914 38.4992 96.2468 38.5412 96.0983 38.553C95.9498 38.5647 95.8001 38.5461 95.6593 38.498C95.5178 38.45 95.3885 38.3736 95.2778 38.2736C95.1671 38.1736 95.0788 38.0521 95.0167 37.9165C94.9546 37.781 94.9213 37.6342 94.9181 37.4852C94.9149 37.3363 94.9425 37.1882 94.9988 37.0502C95.0385 36.9066 95.1069 36.7725 95.2004 36.6564C95.2938 36.5403 95.4097 36.4445 95.5415 36.3748C95.6733 36.3052 95.818 36.2632 95.9665 36.2514C96.1149 36.2396 96.2647 36.2583 96.4055 36.3064C96.5463 36.3544 96.6762 36.4308 96.7869 36.5308C96.897 36.6307 96.986 36.7523 97.0481 36.8878C97.1101 37.0234 97.1434 37.1702 97.1466 37.3192C97.1498 37.4682 97.1223 37.6162 97.066 37.7542Z" stroke="#1F2223" stroke-width="0.75" stroke-linejoin="round"/>
<path d="M17.6489 43.2157C21.4903 43.2157 24.6044 40.1016 24.6044 36.2602C24.6044 32.4188 21.4903 29.3047 17.6489 29.3047C13.8074 29.3047 10.6934 32.4188 10.6934 36.2602C10.6934 40.1016 13.8074 43.2157 17.6489 43.2157Z" stroke="#1F2223" stroke-width="0.75" stroke-linecap="round" stroke-linejoin="round"/>
<path d="M47.7451 92.5586C53.3749 93.6901 59.1137 94.1874 64.8542 94.0421" stroke="#1F2223" stroke-width="0.75" stroke-linecap="round" stroke-linejoin="round"/>
<path d="M77.1236 92.8025C105.235 86.5657 117.935 53.4527 102.465 25.8701M32.1438 87.2684C19.0241 80.807 8.94841 69.4745 4.06636 55.6889C-6.221 27.4777 11.3272 14.981 27.8392 19.8898C36.4356 22.4454 40.6072 20.206 41.1422 12.5938C41.6408 5.50456 46.675 0.187435 61.7048 1.10263C74.7288 1.89655 89.6376 9.54436 97.843 19.1044" stroke="#1F2223" stroke-width="0.75" stroke-linecap="round" stroke-linejoin="round"/>
<path d="M27.7903 60.9309C26.3432 60.8579 25.3487 60.2986 25.4223 59.7635C25.4978 59.192 26.8693 58.6339 30.3957 58.7395C34.3842 58.8624 35.8607 59.688 35.8312 60.3568C35.8108 60.831 34.9557 61.2323 33.7884 61.2688" stroke="#1F2223" stroke-width="0.75" stroke-linecap="round" stroke-linejoin="round"/>
<path d="M71.0313 42.3881C72.0405 41.0384 75.2629 37.4998 76.1993 36.4297C78.4732 35.8096 83.6533 38.1443 83.2521 43.3731C80.9967 46.6767 78.5564 49.8506 75.9439 52.8796C72.9084 56.4112 70.2428 56.7081 67.0914 53.6092C65.062 51.6137 59.8805 44.3932 58.7861 42.6166C59.0882 44.9469 59.2264 47.2954 59.1996 49.6451" stroke="#1F2223" stroke-width="0.75" stroke-linecap="round" stroke-linejoin="round"/>
<path d="M72.2716 44.2104C64.55 32.853 63.4192 31.9531 58.1417 31.9531C49.9094 31.9531 40.326 34.8818 32.1577 39.9909C27.1228 43.139 26.7318 44.7115 26.1264 49.5608C25.6987 52.9455 25.4636 56.3518 25.4224 59.763" stroke="#1F2223" stroke-width="0.75" stroke-linecap="round" stroke-linejoin="round"/>
<path d="M60.7808 45.5352C56.1235 57.1479 54.8998 63.5089 48.7424 89.2471C47.5789 94.1264 46.2989 96.5412 40.5952 98.1892C34.6355 99.9108 22.7443 102.311 21.0176 102.773" stroke="#1F2223" stroke-width="0.75" stroke-linecap="round" stroke-linejoin="round"/>
<path d="M17.5881 93.0581C17.3961 91.5861 17.9285 90.4667 18.573 90.2978C19.4114 90.0776 20.7388 91.307 21.613 95.8427C22.5385 100.643 21.805 102.599 21.0172 102.786C20.518 102.904 19.9471 102.36 19.6674 101.485" stroke="#1F2223" stroke-width="0.75" stroke-linecap="round" stroke-linejoin="round"/>
<path d="M18.5732 90.2979C22.8292 89.3494 38.3576 85.8819 39.4155 85.6406" stroke="#1F2223" stroke-width="0.75" stroke-linecap="round" stroke-linejoin="round"/>
<path d="M59.0055 50.1689C50.6394 48.4665 41.2429 50.766 38.2349 58.7173C35.5975 65.6978 36.4109 74.501 37.0829 86.1503" stroke="#1F2223" stroke-width="0.75" stroke-linecap="round" stroke-linejoin="round"/>
<path d="M43.1851 39.5547C44.2702 43.4449 44.8987 47.4481 45.0577 51.4836" stroke="#1F2223" stroke-width="0.75" stroke-linecap="round" stroke-linejoin="round"/>
<path d="M35.8159 60.3584C35.8402 57.2941 36.1199 50.0954 36.2902 48.466C38.9845 47.4448 41.7327 46.572 44.5225 45.8516" stroke="#1F2223" stroke-width="0.75" stroke-linecap="round" stroke-linejoin="round"/>
<path d="M14.3779 93.8594C16.6032 93.8645 17.7341 112.89 15.2048 112.878C12.6755 112.865 11.6662 93.853 14.3779 93.8594Z" stroke="#1F2223" stroke-width="0.75" stroke-linecap="round" stroke-linejoin="round"/>
<path d="M14.3779 93.8594C15.7859 93.5432 16.9802 93.1554 20.6282 92.3516" stroke="#1F2223" stroke-width="0.75" stroke-linecap="round" stroke-linejoin="round"/>
<path d="M22.0512 99.418C20.3001 99.93 19.447 100.769 18.768 105.328C18.3008 108.464 17.4304 112.308 15.2051 112.88" stroke="#1F2223" stroke-width="0.75" stroke-linecap="round" stroke-linejoin="round"/>
<path d="M67.1405 98.2974C65.7056 98.0178 64.8 97.4091 64.8422 96.7531C64.896 95.9135 66.4845 95.2728 70.983 95.6344C75.9936 96.0376 77.1117 97.0693 77.1117 97.7624C77.1117 98.3826 76.0877 98.6015 75.1917 98.6015" stroke="#1F2223" stroke-width="0.75" stroke-linecap="round" stroke-linejoin="round"/>
<path d="M66.6419 102.167C67.2256 100.307 85.0739 105.669 84.3834 107.761C83.8477 109.378 65.8522 104.684 66.6419 102.167Z" stroke="#1F2223" stroke-width="0.75" stroke-linecap="round" stroke-linejoin="round"/>
<path d="M66.6416 102.166C66.8483 100.768 66.9942 99.1749 67.5293 95.5742" stroke="#1F2223" stroke-width="0.75" stroke-linecap="round" stroke-linejoin="round"/>
<path d="M74.4729 96.1328C74.4607 97.9325 74.9849 99.0282 78.741 101.701C81.685 103.794 84.6386 105.531 84.3833 107.756" stroke="#1F2223" stroke-width="0.75" stroke-linecap="round" stroke-linejoin="round"/>
<path d="M57.1328 55.75C62.1875 58.9705 67.0586 62.47 71.7248 66.2319C76.6227 70.3087 77.1239 71.8255 77.1239 78.8905V97.7628" stroke="#1F2223" stroke-width="0.75" stroke-linecap="round" stroke-linejoin="round"/>
<path d="M64.8423 96.7532C64.9274 91.877 64.9639 77.7452 64.8423 75.9353C61.1699 74.6706 55.4791 72.7615 52.8403 72.0312" stroke="#1F2223" stroke-width="0.75" stroke-linecap="round" stroke-linejoin="round"/>
<path d="M55.199 49.6836C50.2985 55.7514 47.2098 69.784 44.5225 89.6899C37.0198 92.049 25.6623 94.6877 21.5522 95.5389" stroke="#1F2223" stroke-width="0.75" stroke-linecap="round" stroke-linejoin="round"/>
<path d="M33.6906 59.083C33.7879 60.9921 33.9824 65.931 33.7271 66.8533C33.4717 67.7755 30.737 72.2773 29.1063 74.1979C28.0733 75.4139 26.8023 75.691 28.1091 73.1643C28.8782 71.6552 29.5411 70.0936 30.0931 68.4923C31.6432 64.0795 28.3651 63.131 27.0531 64.7105C25.0487 67.1195 23.5472 67.7249 24.3415 65.8293C24.8259 64.6734 25.0832 63.9809 25.4237 63.1054C25.7642 62.2299 27.953 61.0869 28.0989 60.5761C28.2159 59.9918 28.2567 59.3953 28.2205 58.8008" stroke="#1F2223" stroke-width="0.75" stroke-linecap="round" stroke-linejoin="round"/>
<path d="M29.2982 70.5625C28.2916 71.5897 27.1552 72.4806 25.9177 73.2134C24.4093 74.0972 23.887 73.2742 25.6617 71.6204C26.9026 70.4678 28.0214 69.1904 29.0006 67.8086" stroke="#1F2223" stroke-width="0.75" stroke-linecap="round" stroke-linejoin="round"/>
<path d="M27.9609 66.9258C28.5892 67.5491 29.3087 68.0727 30.0947 68.4791" stroke="#1F2223" stroke-width="0.75" stroke-linecap="round" stroke-linejoin="round"/>
<path d="M27.5593 69.6369C26.4058 70.2103 25.1841 70.6353 23.9235 70.9015C22.2825 71.2452 22.502 70.2846 24.2396 69.5518C25.6357 68.8913 26.9601 68.0881 28.1916 67.1562" stroke="#1F2223" stroke-width="0.75" stroke-linecap="round" stroke-linejoin="round"/>
<path d="M25.9423 68.6664C25.0585 68.8123 24.1615 68.861 23.2671 68.8123C22.0754 68.6664 21.7343 67.9701 23.5468 67.6936C24.9726 67.4882 26.3586 67.0658 27.6569 66.4411C27.7975 65.5592 28.1248 64.7176 28.6169 63.9727" stroke="#1F2223" stroke-width="0.75" stroke-linecap="round" stroke-linejoin="round"/>
<path d="M55.9409 72.9592C55.8801 70.3205 55.722 62.7935 55.9409 59.7656" stroke="#1F2223" stroke-width="0.75" stroke-linecap="round" stroke-linejoin="round"/>
<path d="M38.8438 47.556C40.6469 45.9658 42.3485 44.2641 43.9388 42.4609" stroke="#1F2223" stroke-width="0.75" stroke-linecap="round" stroke-linejoin="round"/>
<path d="M78.0237 28.9153L77.0637 27.8696L76.2368 25.3281L78.7053 26.3618L90.2669 38.923C90.4666 39.1391 90.5728 39.4258 90.5613 39.7199C90.5498 40.0141 90.4224 40.2917 90.2061 40.4916C89.9898 40.6916 89.7031 40.7976 89.4093 40.7862C89.1149 40.7748 88.8371 40.647 88.6375 40.4309L79.4567 30.4468" stroke="#1F2223" stroke-width="0.75" stroke-linecap="round" stroke-linejoin="round"/>
<path d="M88.5179 37.0234C88.13 37.0947 87.7697 37.274 87.4792 37.5407C87.1886 37.8075 86.9793 38.1508 86.875 38.5313" stroke="#1F2223" stroke-width="0.75" stroke-linecap="round" stroke-linejoin="round"/>
<path d="M89.1738 37.7422C88.786 37.8137 88.4263 37.9931 88.1357 38.2598C87.8458 38.5266 87.6365 38.8697 87.5322 39.25" stroke="#1F2223" stroke-width="0.75" stroke-linecap="round" stroke-linejoin="round"/>
<path d="M77.0387 36.3302C77.1603 34.0563 76.8198 32.8281 76.8198 31.6729C76.8198 31.1379 77.5622 30.0557 78.352 28.1101C78.8755 26.8211 79.9072 27.648 79.4829 30.0192C79.0195 32.6093 80.6502 34.0563 82.1459 33.3875" stroke="#1F2223" stroke-width="0.75" stroke-linecap="round" stroke-linejoin="round"/>
<path d="M81.2944 29.168C82.1821 29.3017 82.936 29.4355 83.2784 29.5206C83.3271 30.1236 83.3271 30.7295 83.2784 31.3324" stroke="#1F2223" stroke-width="0.75" stroke-linecap="round" stroke-linejoin="round"/>
<path d="M79.4829 27.2148C81.1367 27.2878 84.9306 27.5067 85.3319 27.908C85.9399 28.516 86.0858 31.483 86.1587 32.5288" stroke="#1F2223" stroke-width="0.75" stroke-linecap="round" stroke-linejoin="round"/>
<path d="M85.9277 29.8633C88.0557 33.718 88.08 34.2409 87.1559 35.542" stroke="#1F2223" stroke-width="0.75" stroke-linecap="round" stroke-linejoin="round"/>
<path d="M85.8061 37.3906C84.6509 38.8741 83.3101 40.2361 83.0215 40.9778" stroke="#1F2223" stroke-width="0.75" stroke-linecap="round" stroke-linejoin="round"/>
<path d="M57.3309 27.553C58.1822 26.8229 58.9479 25.9984 59.6131 25.0954C58.2755 23.2592 59.7661 22.1066 60.3306 23.4173C60.6557 24.1725 60.9994 23.016 60.9994 22.0797C61.4442 22.1077 61.8794 22.2234 62.2794 22.4202C64.8451 20.9245 66.2192 13.1786 59.9568 13.8231C60.7562 7.19588 51.2957 6.25956 50.9431 11.7904C46.1155 8.04516 38.3575 13.882 43.8173 17.8826C40.8503 18.065 39.8653 21.9927 43.0391 21.9927C35.704 26.9943 41.4864 38.1386 57.3309 27.553Z" stroke="#1F2223" stroke-width="0.75" stroke-linecap="round" stroke-linejoin="round"/>
<path d="M50.2378 32.7546C54.0196 30.5901 58.458 26.8665 59.6132 25.0938" stroke="#1F2223" stroke-width="0.75" stroke-linecap="round" stroke-linejoin="round"/>
<path d="M59.8444 32.004C59.6825 31.172 59.5609 30.34 59.4771 29.5009C63.0918 30.0769 62.5682 28.1384 62.2642 22.4219" stroke="#1F2223" stroke-width="0.75" stroke-linecap="round" stroke-linejoin="round"/>
<path d="M59.477 29.4994C59.4213 28.9484 59.3822 28.3986 59.3579 27.8438C60.6226 28.7679 61.7899 29.3516 62.179 28.7679" stroke="#1F2223" stroke-width="0.75" stroke-linecap="round" stroke-linejoin="round"/>
</svg>
