<svg width="170" height="126" viewBox="0 0 170 126" fill="none" xmlns="http://www.w3.org/2000/svg">
<path d="M135.613 57.9055L144.323 79.7125L30.73 125.097L1.01904 50.6865L114.612 5.32153L126.281 34.5385" stroke="black" stroke-width="1.5" stroke-linecap="round" stroke-linejoin="round"/>
<path d="M156.61 46.7114L168.308 60.9395L149.934 63.6205L156.61 46.7114Z" stroke="black" stroke-width="1.5" stroke-linecap="round" stroke-linejoin="round"/>
<path d="M154.689 51.6185L120.261 37.9045L121.802 46.7115L151.874 58.7135L154.689 51.6185Z" stroke="black" stroke-width="1.5" stroke-linecap="round" stroke-linejoin="round"/>
<path d="M122.506 50.8005L26.621 89.0895L1 50.6865L114.612 5.32153L122.506 50.8005Z" stroke="black" stroke-width="1.5" stroke-linecap="round" stroke-linejoin="round"/>
<path d="M58.862 85.3805L51.253 88.4055L44.938 72.6175L52.547 69.5935L58.862 85.3805Z" fill="#CFD181"/>
<path d="M58.862 85.3805L51.253 88.4055L44.938 72.6175L52.547 69.5935L58.862 85.3805Z" stroke="black" stroke-width="1.5" stroke-linecap="round" stroke-linejoin="round"/>
<path d="M104.169 67.2725L96.5801 70.3165L90.2651 54.5095L97.8741 51.4855L104.169 67.2725Z" fill="#CFD181"/>
<path d="M104.169 67.2725L96.5801 70.3165L90.2651 54.5095L97.8741 51.4855L104.169 67.2725Z" stroke="black" stroke-width="1.5" stroke-linecap="round" stroke-linejoin="round"/>
<path d="M120.147 51.7325L149.934 63.6205L151.874 58.7135L121.802 46.7114L122.506 50.8005L120.147 51.7325Z" fill="#CFD181"/>
<path d="M120.147 51.7325L149.934 63.6205L151.874 58.7135L121.802 46.7114L122.506 50.8005L120.147 51.7325Z" stroke="black" stroke-width="1.5" stroke-linecap="round" stroke-linejoin="round"/>
<path d="M154.689 51.6185L156.61 46.7113L119.215 31.7983L120.261 37.9043L154.689 51.6185Z" fill="#CFD181"/>
<path d="M154.689 51.6185L156.61 46.7113L119.215 31.7983L120.261 37.9043L154.689 51.6185Z" stroke="black" stroke-width="1.5" stroke-linecap="round" stroke-linejoin="round"/>
<path d="M165.873 57.9525L168.308 60.9395L164.466 61.5095L165.873 57.9525Z" fill="#CFD181"/>
<path d="M165.873 57.9525L168.308 60.9395L164.466 61.5095L165.873 57.9525Z" stroke="black" stroke-width="1.5" stroke-linecap="round" stroke-linejoin="round"/>
<path d="M40.4951 35.0924L36.5011 25.0924L70.5531 11.4874L74.5473 21.4924L83.8473 17.7834L79.2473 6.27543C78.4213 4.21053 76.8093 2.55783 74.7653 1.68053C72.7216 0.803234 70.4132 0.773031 68.3471 1.59643L31.2751 16.3964C29.2104 17.2228 27.5579 18.8348 26.6806 20.8784C25.8033 22.9221 25.773 25.2304 26.5961 27.2964L31.1961 38.8044L40.4951 35.0924Z" fill="#CFD181"/>
<path d="M40.4951 35.0924L36.5011 25.0924L70.5531 11.4874L74.5473 21.4924L83.8473 17.7834L79.2473 6.27543C78.4213 4.21053 76.8093 2.55783 74.7653 1.68053C72.7216 0.803234 70.4132 0.773031 68.3471 1.59643L31.2751 16.3964C29.2104 17.2228 27.5579 18.8348 26.6806 20.8784C25.8033 22.9221 25.773 25.2304 26.5961 27.2964L31.1961 38.8044L40.4951 35.0924Z" stroke="black" stroke-width="1.5" stroke-linecap="round" stroke-linejoin="round"/>
</svg>
