<svg width="153" height="155" viewBox="0 0 153 155" fill="none" xmlns="http://www.w3.org/2000/svg">
<path d="M58.402 64.171L43.792 75.573L92.161 117.645L102.256 102.315L58.402 64.171Z" fill="#CFD181"/>
<path d="M58.402 64.171L43.792 75.573L92.161 117.645L102.256 102.315L58.402 64.171Z" stroke="black" stroke-width="1.5" stroke-linecap="round" stroke-linejoin="round"/>
<path d="M151.299 17.2C151.526 11.465 151.444 6.382 151.141 1C145.787 1.444 140.731 2.068 135.071 3.09L151.299 17.2Z" fill="#CFD181"/>
<path d="M151.299 17.2C151.526 11.465 151.444 6.382 151.141 1C145.787 1.444 140.731 2.068 135.071 3.09L151.299 17.2Z" stroke="black" stroke-width="1.5" stroke-linecap="round" stroke-linejoin="round"/>
<path d="M135.068 3.09003C100.503 9.19823 69.061 26.9285 45.948 53.345L113.876 112.429C136.835 85.878 150.037 52.2821 151.296 17.2041L135.068 3.09003Z" stroke="black" stroke-width="1.5" stroke-linecap="round" stroke-linejoin="round"/>
<path d="M56.2819 86.437C44.7819 99.658 37.0359 116.303 35.6379 133.79C52.7799 129.96 68.1379 120.036 79.6709 106.783L56.2819 86.437Z" stroke="black" stroke-width="1.5" stroke-linecap="round" stroke-linejoin="round"/>
<path d="M63.2498 92.498C59.544 96.793 57.6733 102.371 58.0408 108.032C63.6977 107.611 68.9629 104.985 72.7028 100.72L63.2498 92.498Z" fill="black"/>
<path d="M63.2498 92.498C59.544 96.793 57.6733 102.371 58.0408 108.032C63.6977 107.611 68.9629 104.985 72.7028 100.72L63.2498 92.498Z" stroke="black" stroke-width="1.5" stroke-linecap="round" stroke-linejoin="round"/>
<path d="M118.287 39.7101C115.736 37.4917 112.585 36.0796 109.232 35.6523C105.879 35.2249 102.474 35.8015 99.449 37.3091C96.423 38.8167 93.913 41.1876 92.235 44.1221C90.557 47.0565 89.786 50.4227 90.022 53.7948C90.257 57.1669 91.486 60.3936 93.555 63.067C95.624 65.74 98.44 67.74 101.645 68.813C104.851 69.886 108.302 69.985 111.564 69.096C114.825 68.208 117.75 66.372 119.968 63.821C122.942 60.4006 124.436 55.939 124.12 51.4175C123.805 46.8959 121.707 42.6847 118.287 39.7101Z" stroke="black" stroke-width="1.5" stroke-linecap="round" stroke-linejoin="round"/>
<path d="M19.416 136.848L1 154.096" stroke="black" stroke-width="1.5" stroke-linecap="round" stroke-linejoin="round"/>
<path d="M39.0151 102.955L20.5991 120.204" stroke="black" stroke-width="1.5" stroke-linecap="round" stroke-linejoin="round"/>
<path d="M79.0349 120.204L60.6179 137.452" stroke="black" stroke-width="1.5" stroke-linecap="round" stroke-linejoin="round"/>
<path d="M41.3969 136.848L22.9809 154.096" stroke="black" stroke-width="1.5" stroke-linecap="round" stroke-linejoin="round"/>
</svg>
