<svg width="480" height="480" viewBox="0 0 480 480" fill="none" xmlns="http://www.w3.org/2000/svg">
<path d="M424.36 212.419C418.902 212.419 416.848 185.849 422.308 185.424C392.788 188.566 362.478 193.395 341.874 190.121C334.641 199.041 328.739 208.964 324.354 219.579C321.57 209.587 320.557 199.185 321.361 188.844C317.442 188.525 274.669 160.164 256.66 149.631C252.755 152.272 249.429 155.679 246.882 159.645C244.333 163.611 242.62 168.053 241.84 172.702L304.96 211.102L309.93 203.943C308.769 206.801 308.118 209.842 308.01 212.926C307.828 219.127 309.834 228.199 317.31 244.126C324.606 246.315 336.51 242.94 345.582 237.696C345.172 231.996 347.953 225.019 350.051 219.185C348.441 218.005 346.749 216.939 344.989 215.993C371.74 217.755 396.911 215.76 424.36 212.419Z" fill="#FDDE92"/>
<path d="M201.981 254.323C188.117 253.238 174.207 252.857 160.305 253.183C161.172 250.229 161.693 247.183 161.855 244.109C150.455 247.073 139.42 247.164 124.739 245.069V244.886C117.918 249.398 111.964 265.397 116.241 277.157L104.401 302.16L70.6597 280.632C60.4909 286.97 55.3837 295.087 51.6445 307.536L94.1869 336.672C97.0408 338.63 100.277 339.962 103.682 340.579C107.088 341.198 110.586 341.088 113.945 340.255C117.305 339.425 120.451 337.891 123.175 335.755C125.9 333.622 128.141 330.934 129.753 327.871L143.341 302.018L126.191 288.919C128.706 290.388 131.407 291.511 134.221 292.26C148.221 296.136 168.693 294.586 182.461 292.898C178.412 309.007 175.246 325.325 172.979 341.779C181.661 347.621 192.248 349.92 202.571 348.209C210.283 326.595 216.799 304.572 222.09 282.24C222.88 279.062 222.969 275.75 222.35 272.534C221.73 269.321 220.418 266.278 218.505 263.621C216.591 260.964 214.121 258.756 211.268 257.15C208.414 255.545 205.245 254.58 201.981 254.323Z" fill="#FDDE92"/>
<path d="M401.651 112.877C401.308 112.531 400.9 112.256 400.449 112.069C400 111.881 399.518 111.785 399.028 111.785C398.541 111.785 398.059 111.881 397.61 112.069C397.159 112.256 396.751 112.531 396.407 112.877L395.447 113.837L394.487 112.877C393.791 112.182 392.848 111.791 391.864 111.791C390.88 111.791 389.937 112.182 389.241 112.878C388.547 113.574 388.156 114.517 388.156 115.501C388.156 116.485 388.547 117.428 389.243 118.123L395.483 124.325L401.639 118.123C401.987 117.781 402.263 117.373 402.453 116.923C402.64 116.473 402.739 115.99 402.739 115.503C402.741 115.015 402.645 114.531 402.458 114.081C402.271 113.63 401.997 113.221 401.651 112.877Z" fill="#FDDE92"/>
<path d="M140.559 379.625L134.221 378.667L131.394 372.967L128.566 378.667L122.23 379.625L126.836 384.048L125.742 390.341L131.394 387.377L137.048 390.341L135.954 384.048L140.559 379.625Z" fill="#FDDE92"/>
<path d="M331.023 179.76L326.223 184.32C326.667 183.054 326.943 181.736 327.043 180.399C328.39 180.334 329.724 180.12 331.023 179.76Z" fill="#FDC886"/>
<path d="M350.994 216.295C350.675 217.207 350.356 218.165 349.991 219.175C348.381 217.996 346.689 216.929 344.93 215.983C346.982 216.067 348.988 216.204 350.994 216.295Z" fill="#FDC886"/>
<path d="M388.109 140.602C380.64 134.4 360.387 151.819 360.387 151.819C364.123 133.397 336.766 149.179 327.555 158.158C332.297 154.373 336.082 162.579 335.671 167.23C335.671 168.327 336.264 168.555 337.951 167.369C341.463 164.815 343.971 170.88 337.359 173.705C336.915 174.185 336.588 174.76 336.399 175.385C335.187 178.826 335.107 182.565 336.171 186.055C366.859 179.772 395.542 146.758 388.109 140.602Z" fill="#FDC886"/>
<path d="M335.399 280.495L331.751 283.642L328.559 270.099L335.399 280.495Z" fill="#FDC886"/>
<path d="M125.922 288.749L143.341 302.019L147.399 294.358C139.904 294.166 132.555 292.246 125.922 288.749Z" fill="#FDC886"/>
<path d="M140.972 188.251L135.5 184.56C137.073 184.749 138.659 184.81 140.242 184.742C140.367 185.934 140.612 187.109 140.972 188.251Z" fill="#FDC886"/>
<path d="M309.866 203.938C308.704 206.796 308.054 209.837 307.946 212.921L304.891 211.051L309.866 203.938Z" fill="#FDC886"/>
<path d="M164.316 204.257C164.723 206.245 165.012 208.254 165.183 210.276C166.049 209.866 167.007 209.364 167.964 208.862L164.316 204.257Z" fill="#FDC886"/>
<path d="M176.765 345.519C175.719 348.528 174.394 351.538 173.484 354.18C174.192 357.214 175.295 360.142 176.765 362.89C181.371 371.417 185.976 388.152 189.624 392.347C191.631 386.374 193.774 371.374 195.188 362.935C188.07 358.258 181.834 352.363 176.765 345.519Z" fill="#FDC886"/>
<path d="M55.384 277.03C52.2733 276.893 49.1586 277.186 46.1272 277.896C36.6424 280.085 19.2712 280.085 14.3008 282.502C19.4992 286.059 33.4048 292.123 41.1568 295.68C47.5652 290.028 54.9311 285.564 62.908 282.502C60.2176 280.678 57.664 278.626 55.384 277.03Z" fill="#FDC886"/>
<path d="M136.412 159.12C134.907 156.658 131.612 156.794 131.943 158.664C129.893 156.84 126.336 157.704 126.744 159.804C124.284 157.798 121.412 159.394 122.002 161.309C119.861 159.667 117.536 161.309 118.265 163.27C115.21 161.947 112.656 164.23 116.259 167.83C117.809 169.38 124.556 174.394 128.34 180.732C128.573 179.82 128.552 178.862 128.278 177.962C128.005 177.062 127.49 176.253 126.79 175.625C123.051 172.798 125.604 169.426 127.976 171.749C130.073 173.801 129.392 170.789 127.884 168.101C128.197 168.37 128.572 168.557 128.975 168.643C129.378 168.729 129.797 168.713 130.192 168.595C130.587 168.477 130.946 168.262 131.236 167.968C131.526 167.675 131.738 167.314 131.852 166.918C132.151 167.144 132.495 167.302 132.861 167.381C133.228 167.46 133.607 167.458 133.973 167.375C134.338 167.293 134.681 167.132 134.978 166.903C135.275 166.674 135.519 166.384 135.692 166.051C137.372 167.234 139.659 166.507 139.75 164.729C138.737 162.991 137.597 161.076 136.412 159.12Z" fill="#FDC886"/>
<path d="M124.56 220.032L121.234 224.319C120.778 222.543 120.322 220.807 119.82 219.123C121.364 219.396 124.56 220.032 124.56 220.032Z" fill="#FDC886"/>
<path d="M78.0437 208.771C78.0279 209.172 77.858 209.55 77.569 209.828C77.2803 210.106 76.8951 210.261 76.4945 210.261C76.094 210.261 75.7088 210.106 75.42 209.828C75.1313 209.55 74.9612 209.172 74.9453 208.771C74.9612 208.371 75.1313 207.992 75.42 207.715C75.7088 207.437 76.094 207.282 76.4945 207.282C76.8951 207.282 77.2803 207.437 77.569 207.715C77.858 207.992 78.0279 208.371 78.0437 208.771Z" fill="#FDC886"/>
<path d="M98.8391 195.091C98.8391 195.503 98.6759 195.897 98.385 196.188C98.0944 196.478 97.6998 196.642 97.2887 196.642C96.8776 196.642 96.4832 196.478 96.1924 196.188C95.9017 195.897 95.7383 195.503 95.7383 195.091C95.7383 194.68 95.9017 194.286 96.1924 193.995C96.4832 193.704 96.8776 193.541 97.2887 193.541C97.6998 193.541 98.0944 193.704 98.385 193.995C98.6759 194.286 98.8391 194.68 98.8391 195.091Z" fill="#FDC886"/>
<path d="M118.765 210.322C118.765 210.733 118.601 211.127 118.311 211.418C118.02 211.709 117.626 211.872 117.214 211.872C116.803 211.872 116.409 211.709 116.118 211.418C115.827 211.127 115.664 210.733 115.664 210.322C115.664 209.911 115.827 209.516 116.118 209.225C116.409 208.935 116.803 208.771 117.214 208.771C117.626 208.771 118.02 208.935 118.311 209.225C118.601 209.516 118.765 209.911 118.765 210.322Z" fill="#FDC886"/>
<path d="M145.941 214.654C145.941 215.065 145.777 215.459 145.487 215.75C145.196 216.041 144.801 216.204 144.39 216.204C143.979 216.204 143.585 216.041 143.294 215.75C143.003 215.459 142.84 215.065 142.84 214.654C142.84 214.243 143.003 213.848 143.294 213.557C143.585 213.267 143.979 213.103 144.39 213.103C144.801 213.103 145.196 213.267 145.487 213.557C145.777 213.848 145.941 214.243 145.941 214.654Z" fill="#FDC886"/>
<path d="M160.081 190.942C160.081 191.353 159.918 191.747 159.627 192.038C159.336 192.329 158.942 192.492 158.531 192.492C158.12 192.492 157.725 192.329 157.435 192.038C157.144 191.747 156.98 191.353 156.98 190.942C156.98 190.531 157.144 190.136 157.435 189.845C157.725 189.555 158.12 189.391 158.531 189.391C158.942 189.391 159.336 189.555 159.627 189.845C159.918 190.136 160.081 190.531 160.081 190.942Z" fill="#FDC886"/>
<path d="M186.523 190.623C186.523 191.034 186.359 191.428 186.069 191.719C185.778 192.01 185.383 192.173 184.972 192.173C184.561 192.173 184.167 192.01 183.876 191.719C183.585 191.428 183.422 191.034 183.422 190.623C183.422 190.212 183.585 189.817 183.876 189.526C184.167 189.236 184.561 189.072 184.972 189.072C185.383 189.072 185.778 189.236 186.069 189.526C186.359 189.817 186.523 190.212 186.523 190.623Z" fill="#FDC886"/>
<path d="M195.46 169.603C195.46 170.014 195.297 170.409 195.006 170.7C194.715 170.99 194.321 171.154 193.91 171.154C193.499 171.154 193.104 170.99 192.813 170.7C192.523 170.409 192.359 170.014 192.359 169.603C192.359 169.192 192.523 168.798 192.813 168.507C193.104 168.216 193.499 168.053 193.91 168.053C194.321 168.053 194.715 168.216 195.006 168.507C195.297 168.798 195.46 169.192 195.46 169.603Z" fill="#FDC886"/>
<path d="M134.495 235.947C134.495 236.358 134.332 236.752 134.041 237.043C133.751 237.334 133.356 237.497 132.945 237.497C132.534 237.497 132.139 237.334 131.849 237.043C131.558 236.752 131.395 236.358 131.395 235.947C131.395 235.536 131.558 235.141 131.849 234.85C132.139 234.56 132.534 234.396 132.945 234.396C133.356 234.396 133.751 234.56 134.041 234.85C134.332 235.141 134.495 235.536 134.495 235.947Z" fill="#FDC886"/>
<path d="M158.527 234.396C158.527 234.807 158.363 235.202 158.072 235.492C157.782 235.783 157.387 235.947 156.976 235.947C156.565 235.947 156.171 235.783 155.88 235.492C155.589 235.202 155.426 234.807 155.426 234.396C155.426 233.985 155.589 233.59 155.88 233.3C156.171 233.009 156.565 232.846 156.976 232.846C157.387 232.846 157.782 233.009 158.072 233.3C158.363 233.59 158.527 233.985 158.527 234.396Z" fill="#FDC886"/>
<path d="M425.136 188.069C423.54 188.16 420.713 188.297 420.074 188.342C421.26 184.56 423.362 184.512 425.136 188.069Z" fill="#FDC886"/>
<path d="M426.594 209.957C425.454 213.058 423.584 213.195 421.988 210.322C423.311 210.24 424.907 210.094 426.594 209.957Z" fill="#FDC886"/>
<path d="M258.843 158.16C258.843 158.571 258.68 158.965 258.389 159.256C258.099 159.547 257.703 159.71 257.293 159.71C256.882 159.71 256.486 159.547 256.196 159.256C255.905 158.965 255.742 158.571 255.742 158.16C255.742 157.749 255.905 157.355 256.196 157.064C256.486 156.773 256.882 156.61 257.293 156.61C257.703 156.61 258.099 156.773 258.389 157.064C258.68 157.355 258.843 157.749 258.843 158.16Z" fill="#FDC886"/>
<path d="M414.466 194.043C414.449 194.443 414.281 194.822 413.99 195.099C413.702 195.377 413.316 195.532 412.918 195.532C412.517 195.532 412.13 195.377 411.842 195.099C411.552 194.822 411.384 194.443 411.367 194.043C411.384 193.642 411.552 193.264 411.842 192.986C412.13 192.708 412.517 192.553 412.918 192.553C413.316 192.553 413.702 192.708 413.99 192.986C414.281 193.264 414.449 193.642 414.466 194.043Z" fill="#FDC886"/>
<path d="M378.034 296.273C378.02 293.652 377.869 291.034 377.578 288.43L390.757 276.209L378.034 296.273Z" fill="#FDC886"/>
<path d="M249.813 358.287C232 360.511 213.914 358.591 196.965 352.678" stroke="#1F2223" stroke-width="1.1" stroke-linecap="round" stroke-linejoin="round"/>
<path d="M341.146 289.2C330.156 314.938 310.193 335.808 284.969 347.931" stroke="#1F2223" stroke-width="1.1" stroke-linecap="round" stroke-linejoin="round"/>
<path d="M348.441 223.452C349.452 228.902 350.045 234.42 350.22 239.959" stroke="#1F2223" stroke-width="1.1" stroke-linecap="round" stroke-linejoin="round"/>
<path d="M253.23 130.433C279.844 134.616 304.137 148.03 321.854 168.326" stroke="#1F2223" stroke-width="1.1" stroke-linecap="round" stroke-linejoin="round"/>
<path d="M225.555 129.43C230.744 129.013 235.955 128.936 241.155 129.202C242.067 129.25 243.024 129.293 243.936 129.384" stroke="#1F2223" stroke-width="1.1" stroke-linecap="round" stroke-linejoin="round"/>
<path d="M144.207 173.614C161.186 151.693 185.505 136.636 212.696 131.208" stroke="#1F2223" stroke-width="1.1" stroke-linecap="round" stroke-linejoin="round"/>
<path d="M120.27 249.763C120.084 245.904 120.099 242.038 120.315 238.181C120.534 234.073 120.96 229.979 121.592 225.915" stroke="#1F2223" stroke-width="1.1" stroke-linecap="round" stroke-linejoin="round"/>
<path d="M173.206 341.095C160.006 332.631 148.665 321.571 139.875 308.585" stroke="#1F2223" stroke-width="1.1" stroke-linecap="round" stroke-linejoin="round"/>
<path d="M327.055 180.363C328.382 180.322 329.698 180.124 330.977 179.77L326.234 184.284" stroke="#1F2223" stroke-width="1.1" stroke-linecap="round" stroke-linejoin="round"/>
<path d="M445.882 192.72L454.866 188.616C460.563 186.017 460.626 183.245 453.817 185.424C453.404 185.556 443.283 188.566 441.687 188.799C440.456 188.979 438.327 189.161 438.087 188.343C437.173 185.223 440.967 176.794 438.315 175.939C436.585 175.385 433.628 180.823 431.749 184.74C430.434 187.481 428.149 187.932 425.137 188.069" stroke="#1F2223" stroke-width="1.1" stroke-linecap="round" stroke-linejoin="round"/>
<path d="M444.242 192.903C444.242 192.903 457.922 191.223 458.834 191.079C465.943 190.044 465.446 192.727 459.381 194.407C453.59 196.011 446.613 198.007 446.613 198.007" stroke="#1F2223" stroke-width="1.1" stroke-linecap="round" stroke-linejoin="round"/>
<path d="M444.242 197.964C448.73 198.098 453.221 197.976 457.694 197.599C464.851 197.04 464.076 199.423 458.013 200.928C454.274 201.95 450.463 202.697 446.613 203.162" stroke="#1F2223" stroke-width="1.1" stroke-linecap="round" stroke-linejoin="round"/>
<path d="M426.594 209.957C426.594 209.957 436.489 209.309 438.404 209.136C442.095 208.8 445.887 208.212 449.576 207.722C450.853 207.552 452.358 207.319 454.091 207.002C460.479 205.802 461.43 203.431 454.182 203.628C450.291 203.721 446.403 203.353 442.599 202.534" stroke="#1F2223" stroke-width="1.1" stroke-linecap="round" stroke-linejoin="round"/>
<path d="M443.968 190.714C444.662 196.393 443.423 202.141 440.457 207.034" stroke="#1F2223" stroke-width="1.1" stroke-linecap="round" stroke-linejoin="round"/>
<path d="M438.585 190.623C437.515 193.452 435.869 196.028 433.747 198.187C431.628 200.346 429.084 202.04 426.273 203.163" stroke="#1F2223" stroke-width="1.1" stroke-linecap="round" stroke-linejoin="round"/>
<path d="M351.022 216.314C350.703 217.226 350.383 218.184 350.019 219.194C347.647 217.598 345.636 216.566 344.957 216.002C347.009 216.086 349.015 216.223 351.022 216.314Z" stroke="#1F2223" stroke-width="1.1" stroke-linecap="round" stroke-linejoin="round"/>
<path d="M304.895 211.097L309.865 203.938C308.574 206.758 307.902 209.824 307.897 212.926" stroke="#1F2223" stroke-width="1.1" stroke-linecap="round" stroke-linejoin="round"/>
<path d="M321.36 188.844C323.009 188.844 325.14 187.428 326.239 184.284C326.681 183.018 326.957 181.7 327.06 180.363C322.774 180.408 317.268 178.202 323.503 164.177C324.845 161.162 327.449 156.552 330.684 157.258C333.83 157.947 335.99 163.517 335.724 167.098C335.616 168.636 336.684 168.259 337.949 167.359C341.482 164.835 343.968 170.868 337.356 173.695C336.917 174.178 336.588 174.751 336.396 175.375C334.69 182.575 334.63 188.506 341.868 190.15" stroke="#1F2223" stroke-width="1.1" stroke-linecap="round" stroke-linejoin="round"/>
<path d="M327.602 158.16C336.813 149.177 364.173 133.399 360.434 151.822C360.434 151.822 380.675 134.405 388.156 140.604C395.596 146.763 366.952 179.772 336.266 186.065" stroke="#1F2223" stroke-width="1.1" stroke-linecap="round" stroke-linejoin="round"/>
<path d="M424.36 212.419C418.962 212.419 416.845 185.849 422.308 185.424C393.028 188.544 362.663 193.428 341.874 190.121C334.641 199.041 328.739 208.963 324.354 219.578C321.57 209.587 320.557 199.185 321.361 188.844C317.442 188.525 274.669 160.164 256.66 149.63C252.755 152.272 249.429 155.679 246.882 159.645C244.333 163.611 242.62 168.053 241.84 172.702L307.905 212.926C307.888 213.662 307.905 214.435 307.945 215.261C308.284 221.376 310.624 230.086 317.212 244.109C325.36 246.54 337.989 242.064 345.575 237.679C345.095 231.014 348.978 222.607 351.03 216.319C375.561 217.44 398.987 215.496 424.36 212.419Z" stroke="#1F2223" stroke-width="1.1" stroke-linecap="round" stroke-linejoin="round"/>
<path d="M317.25 244.109L277.854 286.286C270.738 293.887 265.547 303.082 262.717 313.099L247.988 364.577C252.054 368.167 256.926 370.721 262.194 372.017C267.459 373.313 272.963 373.313 278.228 372.017L293.348 317.244C338.091 278.081 330.426 284.774 335.389 280.493L359.785 317.654C361.218 319.834 363.107 321.674 365.319 323.054C367.535 324.432 370.019 325.315 372.608 325.639C375.195 325.966 377.821 325.726 380.307 324.936C382.794 324.149 385.079 322.831 387.006 321.074L433.105 278.988C431.893 273.761 429.467 268.894 426.023 264.78C422.581 260.666 418.215 257.422 413.283 255.31L377.567 288.43C377.567 288.43 371.411 247.802 345.512 237.679" stroke="#1F2223" stroke-width="1.1" stroke-linecap="round" stroke-linejoin="round"/>
<path d="M331.751 283.642L328.559 270.098L335.399 280.495" stroke="#1F2223" stroke-width="1.1" stroke-linecap="round" stroke-linejoin="round"/>
<path d="M250.86 366.766C249.063 376.438 246.312 385.906 242.652 395.038C239.18 402.876 236.458 409.896 237.454 411.089C240.944 415.262 252.814 397.234 261.622 392.621C263.72 391.579 265.596 390.139 267.142 388.38C270.236 384.727 268.508 380.491 272.11 372.876" stroke="#1F2223" stroke-width="1.1" stroke-linecap="round" stroke-linejoin="round"/>
<path d="M431.243 273.382C438.794 266.955 446.711 260.971 454.955 255.463C462.112 250.719 468.177 246.252 467.995 244.747C467.349 239.367 447.57 248.086 437.718 247.255C435.376 247.011 433.01 247.212 430.742 247.848C426.182 249.226 425.589 253.548 418.43 258.063" stroke="#1F2223" stroke-width="1.1" stroke-linecap="round" stroke-linejoin="round"/>
<path d="M240.875 144.432C240.875 134.352 248.713 115.56 251.773 114.019C251.855 113.982 251.944 113.967 252.03 113.975C252.119 113.983 252.203 114.013 252.277 114.064C252.349 114.115 252.407 114.183 252.445 114.264C252.484 114.344 252.501 114.433 252.493 114.521C251.445 125.287 244.461 143.676 254.195 151.421" stroke="#1F2223" stroke-width="1.1" stroke-linecap="round" stroke-linejoin="round"/>
<path d="M243.018 168.098C239.507 165.727 234.553 161.618 234.719 157.61C235.177 146.532 235.108 141.331 235.129 136.954C235.146 133.716 237.692 133.622 239.416 139.234C240.928 144.156 242.516 151.09 242.516 151.09" stroke="#1F2223" stroke-width="1.1" stroke-linecap="round" stroke-linejoin="round"/>
<path d="M250.359 127.286C251.319 125.69 252.359 124.046 252.776 123.367C255.824 118.409 257.048 119.623 256.789 120.54C255.774 124.126 253.323 129.521 252.503 132.85C251.279 137.748 249.195 144.586 253.079 150.403" stroke="#1F2223" stroke-width="1.1" stroke-linecap="round" stroke-linejoin="round"/>
<path d="M203.806 289.44C203.806 289.44 194.731 291.401 182.465 292.906" stroke="#1F2223" stroke-width="1.1" stroke-linecap="round" stroke-linejoin="round"/>
<path d="M120.134 249.991C121.319 248.016 122.884 246.295 124.738 244.93V245.112C139.421 247.21 150.456 247.118 161.856 244.152C161.694 247.226 161.173 250.272 160.306 253.226C174.165 252.907 188.057 253.286 201.982 254.366C205.242 254.618 208.408 255.578 211.259 257.182C214.11 258.782 216.577 260.988 218.487 263.642C220.398 266.297 221.705 269.338 222.32 272.549C222.934 275.76 222.839 279.067 222.043 282.24C216.762 304.577 210.247 326.604 202.529 348.221C192.205 349.932 181.617 347.633 172.934 341.791C175.204 325.337 178.37 309.019 182.419 292.91C168.65 294.59 148.181 296.134 134.179 292.272C125.882 289.985 119.119 285.209 116.179 277.087C112.822 267.871 115.846 256.692 120.134 249.991Z" stroke="#1F2223" stroke-width="1.1" stroke-linecap="round" stroke-linejoin="round"/>
<path d="M160.35 253.274C158.07 253.32 155.836 253.411 153.602 253.502" stroke="#1F2223" stroke-width="1.1" stroke-linecap="round" stroke-linejoin="round"/>
<path d="M147.361 294.355L129.745 327.871C128.134 330.934 125.893 333.622 123.168 335.755C120.444 337.891 117.298 339.425 113.938 340.255C110.578 341.088 107.081 341.198 103.675 340.579C100.27 339.962 97.0336 338.63 94.1797 336.672L51.6445 307.536C55.3885 295.073 60.5029 286.951 70.6957 280.61L104.356 302.16L116.212 277.08" stroke="#1F2223" stroke-width="1.1" stroke-linecap="round" stroke-linejoin="round"/>
<path d="M125.969 288.749L143.342 302.018" stroke="#1F2223" stroke-width="1.1" stroke-linecap="round" stroke-linejoin="round"/>
<path d="M140.968 188.251L135.496 184.512C137.072 184.688 138.66 184.734 140.243 184.649" stroke="#1F2223" stroke-width="1.1" stroke-linecap="round" stroke-linejoin="round"/>
<path d="M151.185 189.391C150.364 189.893 149.543 190.351 148.722 190.85C147.831 191.551 146.728 191.928 145.594 191.919C144.461 191.911 143.363 191.518 142.482 190.805C141.084 189.053 140.301 186.89 140.253 184.649C147.587 184.219 148.036 179.287 139.746 164.678C139.66 165.104 139.462 165.499 139.173 165.823C138.885 166.146 138.515 166.388 138.102 166.522C137.69 166.657 137.249 166.679 136.825 166.588C136.4 166.496 136.008 166.294 135.688 166.001C135.524 166.342 135.285 166.642 134.989 166.878C134.693 167.114 134.347 167.28 133.977 167.363C133.608 167.446 133.225 167.445 132.856 167.359C132.487 167.273 132.143 167.105 131.848 166.867C131.734 167.264 131.522 167.624 131.232 167.918C130.942 168.211 130.583 168.426 130.188 168.544C129.793 168.662 129.375 168.679 128.972 168.593C128.568 168.507 128.193 168.321 127.881 168.053C129.431 170.741 130.069 173.75 127.972 171.698C125.601 169.375 123.047 172.793 126.789 175.577C127.489 176.205 128.004 177.013 128.277 177.913C128.55 178.813 128.572 179.77 128.339 180.682C130.502 183.837 131.367 187.705 130.753 191.482C130.343 193.402 127.607 194.902 124.273 194.035C128.25 201.18 136.434 207.763 144.393 204.95C153.15 201.866 151.185 189.391 151.185 189.391Z" stroke="#1F2223" stroke-width="1.1" stroke-linecap="round" stroke-linejoin="round"/>
<path d="M207.84 151.92C219.103 143.402 219.547 125.393 219.547 112.478C219.547 112.068 220.137 111.518 220.457 111.758C223.305 113.611 227.095 132.814 226.183 142.918" stroke="#1F2223" stroke-width="1.1" stroke-linecap="round" stroke-linejoin="round"/>
<path d="M220.766 167.232C223.997 165.931 226.673 163.544 228.335 160.483C231.807 152.755 233.023 144.203 231.842 135.814C231.222 132.17 229.331 132.485 227.692 138.002C226.23 142.927 223.953 149.539 223.953 149.539" stroke="#1F2223" stroke-width="1.1" stroke-linecap="round" stroke-linejoin="round"/>
<path d="M207.652 151.8C210.792 147.96 213.746 141.144 213.609 137.546C213.241 133.513 212.539 129.517 211.512 125.599C211.305 124.639 212.503 123.362 215.98 129.919" stroke="#1F2223" stroke-width="1.1" stroke-linecap="round" stroke-linejoin="round"/>
<path d="M165.183 210.276C165.012 208.254 164.723 206.245 164.316 204.257L167.912 208.8" stroke="#1F2223" stroke-width="1.1" stroke-linecap="round" stroke-linejoin="round"/>
<path d="M161.901 244.154H161.946C163.907 232.572 166.05 220.853 165.184 210.276C183.393 200.724 206.536 182.208 220.864 169.603C222.489 167.978 216.798 160.783 215.234 158.938C213.628 157.044 207.35 150.072 205.134 151.181C188.397 165.57 170.35 178.362 151.23 189.391" stroke="#1F2223" stroke-width="1.1" stroke-linecap="round" stroke-linejoin="round"/>
<path d="M197.921 348.802C196.746 353.455 195.848 358.176 195.231 362.938C188.096 358.265 181.856 352.349 176.809 345.473C176.991 345.075 177.144 344.664 177.265 344.242" stroke="#1F2223" stroke-width="1.1" stroke-linecap="round" stroke-linejoin="round"/>
<path d="M176.762 362.88C175.292 360.132 174.189 357.204 173.481 354.17C172.706 356.004 172.298 357.972 172.281 359.964C172.855 362.803 173.854 365.539 175.245 368.078C179.942 376.834 184.639 395.165 188.013 394.937C188.515 394.891 189.062 393.934 189.609 392.338C186.019 388.152 181.413 371.417 176.762 362.88Z" stroke="#1F2223" stroke-width="1.1" stroke-linecap="round" stroke-linejoin="round"/>
<path d="M176.761 345.519C175.715 348.528 174.39 351.538 173.48 354.18C174.188 357.214 175.291 360.142 176.761 362.89C181.367 371.417 185.972 388.152 189.62 392.347C191.627 386.374 193.77 371.374 195.184 362.935C188.066 358.258 181.83 352.363 176.761 345.519Z" stroke="#1F2223" stroke-width="1.1" stroke-linecap="round" stroke-linejoin="round"/>
<path d="M53.605 301.745C49.581 299.475 45.4239 297.449 41.1562 295.68C47.5467 290.038 54.8986 285.591 62.8618 282.547C64.093 283.368 64.2754 283.687 65.461 284.371" stroke="#1F2223" stroke-width="1.1" stroke-linecap="round" stroke-linejoin="round"/>
<path d="M50.14 274.385C47.249 274.169 44.3419 274.399 41.5216 275.071C31.8544 277.303 12.8872 276.938 12.2416 280.267C12.1504 280.769 12.9256 281.544 14.2936 282.502C19.264 280.085 36.6352 280.085 46.1656 277.942C49.1966 277.229 52.3118 276.936 55.4224 277.078C53.862 275.832 52.0648 274.915 50.14 274.385Z" stroke="#1F2223" stroke-width="1.1" stroke-linecap="round" stroke-linejoin="round"/>
<path d="M55.384 277.03C52.2734 276.893 49.1586 277.186 46.1272 277.896C36.6424 280.085 19.2712 280.085 14.3008 282.502C19.4992 286.059 33.4048 292.123 41.1568 295.68C47.5653 290.028 54.9311 285.564 62.908 282.502C60.2176 280.678 57.664 278.626 55.384 277.03Z" stroke="#1F2223" stroke-width="1.1" stroke-linecap="round" stroke-linejoin="round"/>
<path d="M26.4315 211.781C24.6987 212.374 22.4619 213.053 20.1915 213.742C15.9939 215.009 14.4459 214.243 18.6411 211.371C22.6076 208.677 26.9842 206.644 31.6011 205.351" stroke="#1F2223" stroke-width="1.1" stroke-linecap="round" stroke-linejoin="round"/>
<path d="M35.7763 200.062C34.5101 201.298 33.3641 202.652 32.3539 204.106C30.5409 206.822 29.3148 209.886 28.7539 213.103" stroke="#1F2223" stroke-width="1.1" stroke-linecap="round" stroke-linejoin="round"/>
<path d="M24.8336 207.859C9.64881 213.194 7.74321 210.706 20.456 204.895C25.3612 202.795 30.4674 201.202 35.696 200.138" stroke="#1F2223" stroke-width="1.1" stroke-linecap="round" stroke-linejoin="round"/>
<path d="M54.5729 211.87C48.2201 211.514 34.6649 213.883 24.8345 217.15C20.548 218.563 18.256 217.63 23.0104 214.049C25.0135 212.551 27.1601 211.256 29.4185 210.182" stroke="#1F2223" stroke-width="1.1" stroke-linecap="round" stroke-linejoin="round"/>
<path d="M28.2508 201.977C23.146 203.163 11.5108 203.599 29.6188 197.736C32.446 196.822 35.8588 196.056 39.058 195.365C39.2387 194.176 39.0307 192.961 38.4652 191.899C36.5452 188.683 37.1932 187.378 40.3348 189.3C44.3219 192.014 49.0562 193.416 53.878 193.313" stroke="#1F2223" stroke-width="1.1" stroke-linecap="round" stroke-linejoin="round"/>
<path d="M39.0598 195.36C39.0397 196.564 39.2681 197.759 39.7311 198.871C40.1941 199.982 40.8817 200.986 41.7507 201.82C42.6195 202.653 43.6513 203.299 44.7812 203.715C45.9109 204.132 47.1145 204.31 48.3166 204.24" stroke="#1F2223" stroke-width="1.1" stroke-linecap="round" stroke-linejoin="round"/>
<path d="M139.737 164.724C139.646 166.502 137.366 167.232 135.679 166.046C135.506 166.379 135.263 166.67 134.966 166.899C134.669 167.128 134.326 167.289 133.96 167.372C133.594 167.454 133.215 167.456 132.849 167.377C132.482 167.297 132.138 167.139 131.839 166.913C131.725 167.309 131.513 167.67 131.222 167.962C130.932 168.255 130.573 168.47 130.178 168.588C129.783 168.706 129.365 168.722 128.962 168.637C128.559 168.551 128.184 168.365 127.872 168.096C129.376 170.786 130.06 173.798 127.963 171.744C125.592 169.421 123.048 172.783 126.777 175.62C127.478 176.248 127.994 177.056 128.268 177.956C128.541 178.857 128.562 179.815 128.328 180.727C124.545 174.391 117.796 169.375 116.246 167.825C112.646 164.225 115.197 161.942 118.252 163.265C117.532 161.304 119.848 159.665 121.989 161.304C121.396 159.384 124.272 157.793 126.732 159.799C126.321 157.702 129.878 156.835 131.93 158.659C131.611 156.79 134.901 156.648 136.399 159.115C137.599 161.071 139.737 164.724 139.737 164.724Z" stroke="#1F2223" stroke-width="1.1" stroke-linecap="round" stroke-linejoin="round"/>
<path d="M121.227 224.319L124.56 220.032C122.921 219.715 121.371 219.394 119.82 219.123" stroke="#1F2223" stroke-width="1.1" stroke-linecap="round" stroke-linejoin="round"/>
<path d="M124.283 194.042C123.691 193.814 95.0034 186.336 54.7002 190.202C52.5145 198.364 52.7648 206.988 55.4202 215.009C76.9707 213.257 98.6617 214.642 119.815 219.12C122.384 227.519 124.034 236.172 124.737 244.927" stroke="#1F2223" stroke-width="1.1" stroke-linecap="round" stroke-linejoin="round"/>
<path d="M96.0543 141.787C96.1611 143.023 95.8993 144.262 95.3019 145.349C94.7043 146.435 93.7983 147.321 92.6979 147.893C91.5975 148.464 90.3522 148.697 89.1198 148.561C87.8871 148.425 86.7224 147.927 85.773 147.13C84.8233 146.332 84.1316 145.271 83.7851 144.08C83.4385 142.889 83.4527 141.623 83.8259 140.44C84.1993 139.258 84.9145 138.212 85.8817 137.436C86.8489 136.66 88.0247 136.188 89.2599 136.08C90.9167 135.941 92.5611 136.463 93.8343 137.532C95.1073 138.602 95.9055 140.131 96.0543 141.787Z" stroke="#1F2223" stroke-width="1.1" stroke-linecap="round" stroke-linejoin="round"/>
<path d="M346.022 359.198H326.277" stroke="#1F2223" stroke-width="1.1" stroke-linecap="round" stroke-linejoin="round"/>
<path d="M336.152 369.091V349.303" stroke="#1F2223" stroke-width="1.1" stroke-linecap="round" stroke-linejoin="round"/>
<path d="M69.1216 189.254C66.8918 197.58 67.3063 206.392 70.3072 214.471" stroke="#1F2223" stroke-width="1.1" stroke-linecap="round" stroke-linejoin="round"/>
<path d="M196.562 158.386C203.416 162.969 208.996 169.216 212.779 176.542" stroke="#1F2223" stroke-width="1.1" stroke-linecap="round" stroke-linejoin="round"/>
<path d="M425.136 188.069C423.54 188.16 420.713 188.297 420.074 188.342C421.26 184.56 423.362 184.512 425.136 188.069Z" stroke="#1F2223" stroke-width="1.1" stroke-linecap="round" stroke-linejoin="round"/>
<path d="M426.594 209.957C425.454 213.058 423.584 213.194 421.988 210.322C423.311 210.24 424.907 210.094 426.594 209.957Z" stroke="#1F2223" stroke-width="1.1" stroke-linecap="round" stroke-linejoin="round"/>
<path d="M338.863 240.96C357.331 253.92 362.383 269.919 370.142 298.32C370.414 299.311 370.935 300.216 371.655 300.951C372.377 301.683 373.272 302.218 374.258 302.508C375.245 302.796 376.289 302.827 377.29 302.599C378.293 302.369 379.219 301.889 379.983 301.2L423.36 261.893" stroke="#1F2223" stroke-width="1.1" stroke-linecap="round" stroke-linejoin="round"/>
<path d="M267.141 372.83L282.87 312.552L329.106 272.378" stroke="#1F2223" stroke-width="1.1" stroke-linecap="round" stroke-linejoin="round"/>
<path d="M149.225 251.405C147.48 254.359 145.126 256.908 142.319 258.883C139.512 260.856 136.316 262.21 132.945 262.85" stroke="#1F2223" stroke-width="1.1" stroke-linecap="round" stroke-linejoin="round"/>
<path d="M175.441 326.23C180.057 329.559 185.315 331.891 190.881 333.079C196.447 334.265 202.2 334.279 207.772 333.12" stroke="#1F2223" stroke-width="1.1" stroke-linecap="round" stroke-linejoin="round"/>
<path d="M82.968 288.48C74.0328 294.499 68.328 304.258 64.8672 316.56" stroke="#1F2223" stroke-width="1.1" stroke-linecap="round" stroke-linejoin="round"/>
<path d="M390.754 276.209L378.034 296.273C378.02 293.652 377.869 291.034 377.578 288.43" stroke="#1F2223" stroke-width="1.1" stroke-linecap="round" stroke-linejoin="round"/>
<path d="M207.855 151.92C214.388 146.995 215.979 139.68 216.207 133.025C215.74 128.37 214.948 123.754 213.836 119.21C213.692 118.298 214.976 117.204 217.575 122.448L219.08 125.722" stroke="#1F2223" stroke-width="1.1" stroke-linecap="round" stroke-linejoin="round"/>
<path d="M235.218 68.2825C231.563 68.2825 227.99 69.3663 224.951 71.397C221.912 73.4276 219.544 76.3136 218.145 79.6904C216.746 83.0672 216.38 86.7829 217.093 90.3678C217.806 93.9524 219.566 97.2455 222.151 99.8298C224.736 102.414 228.028 104.174 231.613 104.887C235.198 105.601 238.914 105.235 242.291 103.836C245.668 102.437 248.553 100.068 250.583 97.0295C252.613 93.9903 253.698 90.4175 253.698 86.7625C253.703 84.3344 253.228 81.9294 252.301 79.6854C251.373 77.4411 250.012 75.4021 248.296 73.6854C246.577 71.9684 244.54 70.6074 242.296 69.6803C240.052 68.7531 237.646 68.2782 235.218 68.2825Z" fill="#FDC886" stroke="#1F2223" stroke-width="1.1" stroke-linejoin="round"/>
<path d="M236.284 91.9242C235.96 91.5595 235.474 91.3364 234.931 91.3069C234.674 91.2754 233.644 91.2439 232.744 92.598C232.229 93.3852 230.041 93.1018 229.333 92.9444C229.173 92.9129 229.012 92.9758 228.915 93.1018C228.819 93.2278 228.819 93.3852 228.883 93.5427C228.887 93.5464 228.897 93.5612 228.913 93.5852C229.037 93.7649 229.516 94.4637 230.395 94.9912C230.443 95.0227 230.571 95.0935 230.698 95.1643C230.826 95.2352 230.953 95.3061 231.002 95.3376L230.995 95.3561L230.984 95.3853L231.002 95.3376C231.452 95.495 232.422 95.7155 233.001 95.7155C233.612 95.7155 234.32 95.621 235.092 95.3376C235.611 95.1402 236 94.8419 236.284 94.5104V91.9242Z" fill="#1F2223"/>
<path d="M236.284 91.9602C236.608 91.5955 237.094 91.3725 237.636 91.3429C237.894 91.3115 238.923 91.2799 239.824 92.634C240.339 93.4213 242.527 93.1378 243.234 92.9804C243.395 92.9489 243.556 93.0119 243.653 93.1378C243.749 93.2638 243.749 93.4212 243.685 93.5787C243.681 93.5824 243.671 93.5972 243.654 93.6213C243.531 93.8009 243.052 94.4997 242.173 95.0272C242.124 95.0587 241.997 95.1295 241.87 95.2004C241.742 95.2712 241.614 95.3421 241.566 95.3736L241.573 95.3922L241.583 95.4213L241.566 95.3736C241.116 95.5311 240.146 95.7515 239.567 95.7515C238.956 95.7515 238.248 95.657 237.476 95.3736C236.957 95.1763 236.568 94.8779 236.284 94.5465V91.9602Z" fill="#1F2223"/>
<path fill-rule="evenodd" clip-rule="evenodd" d="M229.731 88.2225C230.085 88.5689 230.278 89.0413 230.278 89.5451C230.278 90.6158 229.409 91.529 228.315 91.529C227.221 91.529 226.32 90.6473 226.32 89.5766C226.32 88.7579 226.803 88.0651 227.511 87.7817C228.379 82.7117 230.085 79.3738 232.53 77.8937C234.46 76.7286 236.165 77.1695 236.326 77.2324C239.736 77.9252 240.927 81.956 241.152 82.7432C241.248 82.8377 241.345 82.9637 241.441 83.0896C242.765 84.9746 241.922 87.4933 241.781 87.9143L241.781 87.9146C241.772 87.9435 241.765 87.9625 241.763 87.9706C241.699 88.1281 241.538 88.2225 241.377 88.2225H231.05C230.857 88.2225 230.728 88.1281 230.664 87.9706C230.664 87.9508 230.644 87.8871 230.614 87.7865C230.548 87.5681 230.43 87.1755 230.342 86.6795C230.117 87.1834 229.891 87.6872 229.731 88.2225ZM236.02 77.9483C235.751 77.8952 234.44 77.6368 232.916 78.555C231.404 79.4997 229.409 81.7985 228.379 87.5927C228.637 87.6242 228.862 87.6557 229.087 87.7502C229.377 86.8055 229.795 85.9552 230.31 85.1995C230.342 84.5067 230.567 83.7824 231.018 83.1211C231.332 82.6592 231.962 82.0631 232.214 81.8999C232.465 81.7367 232.943 81.5091 233.305 81.4103C233.667 81.3115 235.14 81.0743 236.197 81.0743C237.774 81.0743 239.029 81.3577 239.994 81.8615C239.479 80.5074 238.321 78.3976 236.133 77.9567H236.069C236.063 77.9567 236.047 77.9535 236.02 77.9483ZM227.327 89.747C227.327 90.4083 227.639 90.7103 228.283 90.7103C228.958 90.7103 229.594 90.6531 229.594 89.9918C229.594 89.3305 228.958 90.7103 228.283 90.7103C227.607 90.7103 227.327 89.0857 227.327 89.747Z" fill="#1F2223"/>
<path d="M240.09 92.9295C240.009 92.8712 239.942 92.8035 239.89 92.7251C239.022 91.3711 237.96 91.4026 237.703 91.4341C237.123 91.4341 236.641 91.7175 236.287 92.1269C235.965 91.7175 235.451 91.4656 234.871 91.4341C234.614 91.4026 233.584 91.3711 232.684 92.7251C232.632 92.8035 232.565 92.8712 232.483 92.9295H240.09Z" fill="#1F2223"/>
<path d="M227.327 89.1758H229.677V90.8078H227.327V89.1758Z" fill="#1F2223"/>
<path d="M235.049 91.9503H237.735V94.3983H235.049V91.9503Z" fill="#1F2223"/>
</svg>
