<svg width="135" height="124" viewBox="0 0 135 124" fill="none" xmlns="http://www.w3.org/2000/svg">
<path d="M20.2119 40.7869C20.2119 40.7869 29.775 47.8374 33.8676 54.429C36.0106 52.1232 37.7968 49.5094 39.1666 46.6748C43.69 37.4413 49.4191 37.3014 51.9469 36.5508C53.5691 38.5918 56.6275 40.5141 59.3413 41.691C61.2008 48.8066 62.3937 56.08 62.9031 63.4169C62.9991 64.7458 62.7043 66.0732 62.0558 67.2365L49.7063 89.007C46.7121 88.1755 43.9084 86.771 41.4494 84.8713C44.4882 76.3151 47.0175 68.4006 51.7095 62.8598C50.7737 61.0418 49.4765 58.6614 47.9397 55.448C45.9154 58.8496 42.5122 62.2263 38.2904 65.3853C36.9457 66.3869 35.2743 66.8465 33.6068 66.6734C31.9392 66.5003 30.3971 65.7073 29.2867 64.4517L13.6498 46.7897C15.4526 44.4055 17.6766 42.3711 20.2119 40.7869Z" fill="#CFD181"/>
<path d="M112.487 45.0059C112.486 46.2898 112.867 47.5448 113.58 48.6124C114.293 49.6799 115.307 50.5121 116.493 51.0034C117.679 51.4948 118.984 51.6235 120.244 51.3731C121.503 51.1228 122.659 50.5046 123.567 49.5969C124.475 48.6891 125.093 47.5324 125.344 46.2733C125.594 45.0142 125.466 43.7089 124.975 42.5228C124.483 41.3367 123.651 40.3229 122.584 39.6096C121.517 38.8963 120.262 38.5156 118.978 38.5156C117.257 38.5164 115.606 39.2004 114.389 40.4174C113.172 41.6344 112.488 43.2848 112.487 45.0059Z" fill="#FDC886"/>
<path d="M98.5295 17.9824L91.7519 15.5559L99.104 1.25391L113.305 6.33746L111.676 13.9367L121.907 10.3431L122.582 11.9373L110.808 17.9846L109.927 22.0787L108.807 21.6773C109.166 21.2888 108.607 21.0166 106.955 21.0023L99.5167 18.3452C99.8077 17.4941 99.8795 16.8485 98.5295 17.9824Z" fill="#FDC886"/>
<path fill-rule="evenodd" clip-rule="evenodd" d="M102.203 64.098C99.958 62.3216 98.2574 59.9496 97.2948 57.2531C96.933 55.9799 96.7391 54.6717 96.7128 53.3609C96.1705 53.1954 95.6101 53.0844 95.0399 53.0313C92.8239 52.8278 90.6177 53.5118 88.9056 54.9333C87.1934 56.3548 86.1152 58.3975 85.9077 60.6132C85.7548 62.2656 86.0954 63.9256 86.8861 65.3846C87.677 66.8435 88.8825 68.0348 90.3504 68.8089C91.8183 69.5822 93.4827 69.9034 95.1331 69.7311C96.7834 69.5595 98.3458 68.9018 99.6224 67.842C100.812 66.8541 101.704 65.5577 102.203 64.098ZM102.247 63.9672C102.386 63.463 102.5 62.9528 102.587 62.4395C102.53 62.89 102.436 63.3375 102.306 63.7767C102.287 63.8402 102.267 63.9037 102.247 63.9672Z" fill="#FDC886"/>
<path d="M110.23 110.89C111.379 109.058 113.015 107.581 114.955 106.625C115.166 108.788 114.694 110.963 113.604 112.843C112.514 114.724 110.862 116.215 108.88 117.107C108.739 114.949 109.207 112.795 110.23 110.89Z" fill="black"/>
<path d="M97.2952 57.2574C98.2586 59.956 99.9612 62.3296 102.209 64.1067C102.999 61.353 103.002 58.4328 102.217 55.6775C101.255 52.9785 99.5518 50.6048 97.3035 48.8281C96.5152 51.5822 96.5123 54.5018 97.2952 57.2574Z" fill="black"/>
<path d="M122.353 36.8509C123.244 35.9272 123.86 34.7738 124.133 33.5195C122.87 33.7456 121.696 34.3219 120.744 35.1826C119.853 36.1064 119.237 37.2599 118.964 38.5139C120.227 38.2878 121.401 37.7116 122.353 36.8509Z" fill="black"/>
<path d="M66.9102 22.2188C66.8247 22.9225 66.2502 23.3103 64.9576 23.5401C64.7558 23.1092 64.5691 22.6783 64.3975 22.2475C65.6614 22.6353 66.7522 22.7789 66.9102 22.2188Z" fill="black"/>
<path d="M55.8236 22.2782C55.8236 22.2782 53.5982 18.4018 57.0731 16.3193C63.7645 12.3129 65.2295 17.1092 65.2295 17.1092C64.8591 17.0643 64.4826 17.0936 64.1236 17.1954C64.3965 17.9415 64.4259 18.9612 63.9656 18.4441C63.1469 17.5537 62.2716 18.8894 63.8507 19.9809C63.0819 24.3919 61.2919 28.5619 58.6243 32.158C57.8812 33.2447 56.832 34.0867 55.6104 34.5774C54.3889 35.0681 53.0494 35.1855 51.7605 34.9148C50.8844 34.7705 50.0612 34.4023 49.3688 33.8461C48.6772 33.2899 48.1404 32.5645 47.8116 31.74C45.0397 24.6192 55.8236 22.2782 55.8236 22.2782Z" fill="black"/>
<path d="M67.4831 34.0078C67.8936 34.3402 68.3215 34.6512 68.7637 34.9399C68.7637 34.9399 67.2685 36.3761 65.229 37.9711L67.4831 34.0078Z" fill="black"/>
<path d="M39.7129 90.3855C40.8037 88.8208 41.4516 87.9885 41.9807 87.1562C43.7926 87.9296 45.5131 88.9024 47.1104 90.056L46.3061 91.4771C44.8267 99.2457 43.4056 102.146 41.2081 105.592C39.914 102.304 39.2103 93.2573 39.7129 90.3855Z" fill="black"/>
<path d="M15.8772 37.598C16.9974 39.1348 17.6007 40.0101 18.2031 40.7729C16.8916 42.239 15.4229 43.557 13.8241 44.7036L12.7038 43.4836C5.83856 39.5656 3.54209 37.282 1.00069 34.0981C4.5331 33.9363 13.3222 36.1912 15.8772 37.598Z" fill="black"/>
<path d="M81.1826 32.9332C71.4177 25.2228 66.9094 24.3754 64.5524 25.8684C62.519 27.158 61.1561 29.8468 59.7667 30.4447" stroke="black" stroke-width="0.75" stroke-linecap="round" stroke-linejoin="round"/>
<path d="M53.6416 35.0547C53.1019 35.5807 52.5312 36.0745 51.9332 36.5333" stroke="black" stroke-width="0.75" stroke-linecap="round" stroke-linejoin="round"/>
<path d="M65.2295 17.102C65.2295 17.102 63.7645 12.3042 57.0731 16.3121C53.5959 18.3931 55.8236 22.271 55.8236 22.271C55.8236 22.271 45.0503 24.6076 47.8109 31.7344C48.1404 32.5587 48.6764 33.284 49.3688 33.8402C50.0605 34.3964 50.8837 34.7646 51.7598 34.9092C53.0486 35.1806 54.3881 35.0635 55.6104 34.5728C56.832 34.0819 57.8805 33.2396 58.6235 32.1524C61.2904 28.5558 63.0797 24.3859 63.8499 19.9753C62.2708 18.8837 63.1545 17.5412 63.9648 18.4385C64.429 18.9518 64.3957 17.9366 64.1228 17.1897C64.4826 17.0881 64.8583 17.0583 65.2295 17.102Z" stroke="black" stroke-width="0.75" stroke-linecap="round" stroke-linejoin="round"/>
<path d="M64.9561 23.5383C68.0002 22.9926 67.0531 21.585 65.229 17.1055" stroke="black" stroke-width="0.75" stroke-linecap="round" stroke-linejoin="round"/>
<path d="M65.8897 25.3494C65.3122 24.3587 64.8178 23.3221 64.4104 22.2501C65.6743 22.6379 66.7658 22.7793 66.9238 22.207" stroke="black" stroke-width="0.75" stroke-linecap="round" stroke-linejoin="round"/>
<path d="M71.6028 26.5802C76.2139 24.1394 88.5762 15.1356 88.5762 15.1356C87.7862 12.2065 86.3084 10.0808 84.0815 8.83203C84.0815 8.83203 73.1396 16.7873 66.52 20.291" stroke="black" stroke-width="0.75" stroke-linecap="round" stroke-linejoin="round"/>
<path d="M47.9268 55.4306C45.9017 58.8322 42.4993 62.2096 38.2767 65.3679C36.9319 66.3695 35.2606 66.8291 33.593 66.6559C31.9255 66.4828 30.3842 65.6899 29.2737 64.4343L13.6504 46.7866C15.4646 44.4081 17.6863 42.3709 20.2125 40.7695C20.2125 40.7695 32.921 50.1323 35.318 57.3695" stroke="black" stroke-width="0.75" stroke-linecap="round" stroke-linejoin="round"/>
<path d="M51.717 62.9417C47.0069 68.4848 44.4935 76.2821 41.4494 84.855C43.9084 86.7546 46.7121 88.1591 49.7063 88.9906L62.0557 67.2353C62.7051 66.0719 62.9991 64.7445 62.9031 63.4156C62.3944 56.074 61.2023 48.7958 59.342 41.6754C56.6275 40.4977 53.569 38.5761 51.9468 36.5352C49.419 37.282 43.6899 37.4256 39.1665 46.6592C37.7991 49.4911 36.0151 52.1024 33.8751 54.4066" stroke="black" stroke-width="0.75" stroke-linecap="round" stroke-linejoin="round"/>
<path d="M52.7217 64.9785C51.9325 63.1401 50.0321 59.811 48.4129 56.4774C43.0142 45.3556 46.1452 42.9654 47.0523 41.8164" stroke="black" stroke-width="0.75" stroke-linecap="round" stroke-linejoin="round"/>
<path d="M68.7646 34.9399C68.3224 34.6512 67.8946 34.3402 67.4841 34.0078L65.23 37.9711" stroke="black" stroke-width="0.75" stroke-linecap="round" stroke-linejoin="round"/>
<path d="M59.3287 41.6719C62.3313 40.4223 66.4019 37.2029 68.7649 34.9359C71.2662 36.6461 73.8642 38.211 76.5455 39.6226C79.92 41.2304 81.8415 40.1517 85.3769 37.6262C89.4665 34.7068 95.3135 30.4752 95.3135 30.4752C95.116 28.9804 94.5679 27.5534 93.714 26.3107C92.8601 25.068 91.7246 24.0447 90.4 23.3242C83.1681 28.1742 78.8594 31.1177 78.8594 31.1177" stroke="black" stroke-width="0.75" stroke-linecap="round" stroke-linejoin="round"/>
<path d="M90.9331 8.49151C90.026 9.38123 88.9073 8.30329 89.7274 7.3856C90.3435 6.69545 91.1062 5.90703 91.6082 5.38998C91.7533 5.21627 91.9604 5.10605 92.1855 5.08277C92.4107 5.05941 92.636 5.12473 92.8136 5.26495C92.9914 5.4051 93.1073 5.60904 93.137 5.8334C93.1667 6.05776 93.1077 6.28483 92.9726 6.4664C92.5773 6.94641 91.7662 7.67285 90.9331 8.49151Z" stroke="black" stroke-width="0.75" stroke-linecap="round" stroke-linejoin="round"/>
<path d="M87.9288 4.0232C88.2312 3.66414 88.4579 3.40259 88.7474 3.06092C88.8852 2.8832 89.0869 2.76626 89.3095 2.73497C89.5322 2.70367 89.7583 2.76052 89.9398 2.89333C90.1212 3.02622 90.2436 3.22465 90.281 3.44636C90.3183 3.66815 90.2677 3.89568 90.1398 4.08065C89.8242 4.49142 89.4823 4.88124 89.1163 5.24779" stroke="black" stroke-width="0.75" stroke-linecap="round" stroke-linejoin="round"/>
<path d="M89.1537 5.29145C89.4697 4.94675 90.2173 4.18629 90.5318 3.84084C90.6727 3.65609 90.8813 3.53492 91.1116 3.50393C91.3419 3.47293 91.575 3.53469 91.7598 3.67567C91.9445 3.81657 92.0657 4.02513 92.0967 4.25546C92.1277 4.48571 92.0658 4.71891 91.9249 4.90366C91.5402 5.39425 90.599 6.30589 89.7713 7.15781C89.0774 7.87215 88.3063 7.12908 88.3782 6.45405" stroke="black" stroke-width="0.75" stroke-linecap="round" stroke-linejoin="round"/>
<path d="M93.2306 8.66016C93.2306 8.66016 93.5164 10.9083 88.2688 14.1322" stroke="black" stroke-width="0.75" stroke-linecap="round" stroke-linejoin="round"/>
<path d="M97.3789 4.97213C95.9578 2.41562 92.6499 -0.109147 89.7116 1.51154C89.2485 1.77407 88.8505 2.13759 88.5471 2.57512C88.2438 3.01257 88.0429 3.51276 87.9594 4.03858" stroke="black" stroke-width="0.75" stroke-linecap="round" stroke-linejoin="round"/>
<path d="M110.821 17.9543L122.582 11.938L121.907 10.3438L111.683 13.9192" stroke="black" stroke-width="0.75" stroke-linecap="round" stroke-linejoin="round"/>
<path d="M106.958 20.9963L99.5326 18.3438" stroke="black" stroke-width="0.75" stroke-linecap="round" stroke-linejoin="round"/>
<path d="M98.53 17.9824L91.7525 15.5702L99.1045 1.25391L113.32 6.3367L109.932 22.0606L108.826 21.6728" stroke="black" stroke-width="0.75" stroke-linecap="round" stroke-linejoin="round"/>
<path d="M48.0273 88.4905L46.3039 91.4771C44.8245 99.2457 43.4034 102.146 41.2059 105.592C39.9141 102.318 39.2103 93.2573 39.713 90.3855C40.825 88.913 41.859 87.3846 42.8123 85.8047" stroke="black" stroke-width="0.75" stroke-linecap="round" stroke-linejoin="round"/>
<path d="M41.9849 87.1523C43.7991 87.9279 45.5211 88.9031 47.1191 90.0604" stroke="black" stroke-width="0.75" stroke-linecap="round" stroke-linejoin="round"/>
<path d="M15.9475 44.1602L23.9746 52.4314" stroke="black" stroke-width="0.75" stroke-linecap="round" stroke-linejoin="round"/>
<path d="M18.2314 40.7695C16.9093 42.2359 15.4315 43.554 13.8237 44.7003" stroke="black" stroke-width="0.75" stroke-linecap="round" stroke-linejoin="round"/>
<path d="M14.6259 45.5932L12.7308 43.4827C5.86708 39.5769 3.56909 37.2932 1.02769 34.1055C4.56009 33.9475 13.3492 36.2025 15.9042 37.6092C16.8453 39.0035 17.8612 40.3458 18.9482 41.6299" stroke="black" stroke-width="0.75" stroke-linecap="round" stroke-linejoin="round"/>
<path d="M45.4918 87.3787L52.1484 74.6445" stroke="black" stroke-width="0.75" stroke-linecap="round" stroke-linejoin="round"/>
<path d="M95.0974 29.4102C97.0029 27.7004 99.0599 26.1674 101.243 24.8301C102.99 23.8691 104.84 23.1085 106.757 22.5624C109.57 21.7664 109.787 20.9561 106.599 20.9976C103.213 21.2697 99.8793 22.004 96.6917 23.18" stroke="black" stroke-width="0.75" stroke-linecap="round" stroke-linejoin="round"/>
<path d="M98.3709 22.5794C96.7199 22.6513 99.0338 19.6797 99.3619 18.8172C99.8094 17.641 100.248 16.3144 97.7389 18.7167C95.6582 20.5433 93.4677 22.2409 91.1798 23.8003" stroke="black" stroke-width="0.75" stroke-linecap="round" stroke-linejoin="round"/>
<path d="M104.187 23.4393C104.919 23.425 106.441 23.4998 106.886 23.5255C108.91 23.6411 108.74 24.1892 108.423 24.2723C107.177 24.5996 105.107 24.8771 103.957 25.2051C102.107 25.7297 98.4858 26.627 97.194 27.7042" stroke="black" stroke-width="0.75" stroke-linecap="round" stroke-linejoin="round"/>
<path d="M104.096 25.168C104.43 25.2375 104.694 25.2935 104.852 25.335C106.833 25.7659 106.574 26.2988 106.244 26.326C104.952 26.4326 102.87 26.3812 101.677 26.5127C100.239 26.7055 98.8218 27.0325 97.4443 27.4894" stroke="black" stroke-width="0.75" stroke-linecap="round" stroke-linejoin="round"/>
<path d="M112.487 45.0059C112.486 46.2898 112.867 47.5448 113.58 48.6124C114.293 49.6799 115.307 50.5121 116.493 51.0034C117.679 51.4948 118.984 51.6235 120.244 51.3731C121.503 51.1228 122.659 50.5046 123.567 49.5969C124.475 48.6891 125.093 47.5324 125.344 46.2733C125.594 45.0142 125.466 43.7089 124.975 42.5228C124.483 41.3367 123.651 40.3229 122.584 39.6096C121.517 38.8963 120.262 38.5156 118.978 38.5156C117.257 38.5164 115.606 39.2004 114.389 40.4174C113.172 41.6344 112.488 43.2848 112.487 45.0059Z" stroke="black" stroke-width="0.75" stroke-linecap="round" stroke-linejoin="round"/>
<path d="M96.6642 53.3461C96.1371 53.1887 95.5934 53.0827 95.0404 53.0313C92.8244 52.8278 90.6182 53.5118 88.906 54.9333C87.1938 56.3548 86.1156 58.3975 85.9081 60.6132C85.7553 62.2656 86.0958 63.9256 86.8866 65.3846C87.6774 66.8435 88.8829 68.0348 90.3509 68.8089C91.8188 69.5822 93.4832 69.9034 95.1336 69.7311C96.784 69.5595 98.3462 68.9018 99.6229 67.842C100.812 66.8548 101.703 65.5599 102.202 64.1018" stroke="black" stroke-width="0.75" stroke-linecap="round" stroke-linejoin="round"/>
<path d="M123.314 85.4005C120.047 86.7883 117.235 89.0674 115.201 91.977C118.664 92.7525 122.276 92.5431 125.626 91.3722C128.893 89.9836 131.705 87.7053 133.739 84.7957C130.276 84.0194 126.665 84.2295 123.314 85.4005Z" stroke="black" stroke-width="0.75" stroke-linecap="round" stroke-linejoin="round"/>
<path d="M110.23 110.89C109.205 112.794 108.737 114.949 108.88 117.107C110.862 116.215 112.514 114.724 113.604 112.843C114.694 110.963 115.166 108.788 114.955 106.625C113.014 107.58 111.378 109.057 110.23 110.89Z" stroke="black" stroke-width="0.75" stroke-linecap="round" stroke-linejoin="round"/>
<path d="M85.2615 65.357C87.2355 67.429 89.7539 68.9023 92.5273 69.6076C92.2223 66.7487 91.0269 64.0576 89.11 61.9145C87.1931 59.7715 84.6514 58.2847 81.8439 57.6641C82.2451 60.4964 83.4287 63.1603 85.2615 65.357Z" stroke="black" stroke-width="0.75" stroke-linecap="round" stroke-linejoin="round"/>
<path d="M97.2952 57.2574C98.2586 59.956 99.9611 62.3296 102.209 64.1067C102.999 61.353 103.002 58.4328 102.217 55.6775C101.255 52.9785 99.5518 50.6048 97.3035 48.8281C96.5151 51.5822 96.5122 54.5018 97.2952 57.2574Z" stroke="black" stroke-width="0.75" stroke-linecap="round" stroke-linejoin="round"/>
<path d="M122.352 36.8509C123.243 35.9272 123.859 34.7738 124.132 33.5195C122.869 33.7456 121.695 34.3219 120.743 35.1826C119.852 36.1064 119.236 37.2599 118.963 38.5139C120.226 38.2878 121.4 37.7116 122.352 36.8509Z" stroke="black" stroke-width="0.75" stroke-linecap="round" stroke-linejoin="round"/>
<path d="M118.087 51.4375C117.599 59.5016 117.079 64.8588 108.51 78.1063C100.863 89.9364 109.201 100.898 108.993 114.576" stroke="black" stroke-width="0.75" stroke-linecap="round" stroke-linejoin="round"/>
<path d="M98.5297 68.6406C98.5297 68.6406 105.148 75.2587 105.333 87.463" stroke="black" stroke-width="0.75" stroke-linecap="round" stroke-linejoin="round"/>
<path d="M115.158 91.9336C115.158 91.9336 107.763 96.2272 108.567 108.346" stroke="black" stroke-width="0.75" stroke-linecap="round" stroke-linejoin="round"/>
<path d="M98.7586 116.53C98.8887 116.05 99.2037 115.641 99.6346 115.394C100.065 115.146 100.577 115.08 101.057 115.209L116.392 119.315C116.63 119.379 116.852 119.49 117.047 119.64C117.242 119.79 117.406 119.977 117.529 120.191C117.651 120.404 117.731 120.639 117.763 120.883C117.794 121.127 117.778 121.375 117.714 121.612C117.65 121.851 117.539 122.073 117.389 122.269C117.239 122.464 117.052 122.627 116.839 122.749C116.625 122.873 116.39 122.952 116.146 122.984C115.902 123.015 115.654 122.999 115.416 122.935L100.08 118.828C99.6004 118.698 99.192 118.382 98.9443 117.952C98.6966 117.521 98.6298 117.01 98.7586 116.53Z" stroke="black" stroke-width="0.75" stroke-linecap="round" stroke-linejoin="round"/>
<path d="M120.827 42.2617L117.926 42.5202C117.601 42.5681 117.307 42.7382 117.104 42.9956C116.901 43.2531 116.804 43.5785 116.833 43.9052C116.862 44.2318 117.015 44.535 117.26 44.7527C117.505 44.9703 117.825 45.0861 118.152 45.076L119.775 44.9324C120.104 44.9207 120.425 45.0355 120.672 45.2533C120.919 45.4711 121.072 45.7753 121.101 46.1031C121.13 46.4309 121.033 46.7574 120.828 47.0152C120.624 47.2731 120.328 47.4426 120.002 47.4889L117.102 47.7618" stroke="black" stroke-width="0.75" stroke-linecap="round" stroke-linejoin="round"/>
<path d="M118.641 41.4883L119.287 48.5244" stroke="black" stroke-width="0.75" stroke-linecap="round" stroke-linejoin="round"/>
<path d="M96.3429 57.8897L92.8248 58.4155C92.4107 58.4778 92.0383 58.702 91.7897 59.0388C91.5409 59.3756 91.4361 59.7974 91.4984 60.2115C91.5607 60.6255 91.785 60.9979 92.1217 61.2466C92.4585 61.4953 92.8804 61.6001 93.2944 61.5378L95.2608 61.2491C95.4658 61.2183 95.6747 61.2279 95.876 61.278C96.0774 61.3281 96.2669 61.4174 96.4334 61.5402C96.6004 61.6636 96.7412 61.8183 96.8481 61.9959C96.955 62.1734 97.0261 62.3706 97.0568 62.5754C97.0876 62.7803 97.0777 62.9893 97.0276 63.1905C96.9777 63.3917 96.8887 63.5812 96.7658 63.7484C96.6425 63.915 96.4875 64.0555 96.3101 64.1627C96.1326 64.2699 95.9355 64.3407 95.7305 64.3714L92.2035 64.9042" stroke="black" stroke-width="0.75" stroke-linecap="round" stroke-linejoin="round"/>
<path d="M93.6256 57.1117L94.9252 65.6698" stroke="black" stroke-width="0.75" stroke-linecap="round" stroke-linejoin="round"/>
<path d="M84.7734 9.28081C85.7932 7.95946 85.2444 5.61687 86.1802 4.51323C87.3405 3.14653 87.5076 3.46023 89.5818 5.76276C90.0853 6.32138 89.2946 7.3706 87.4418 5.84894C88.0596 6.26424 88.5174 6.87774 88.7398 7.58815C88.9621 8.29864 88.9357 9.06363 88.6649 9.75703" stroke="black" stroke-width="0.75" stroke-linecap="round" stroke-linejoin="round"/>
<path d="M93.834 11.6644L91.9389 9.85547" stroke="black" stroke-width="0.75" stroke-linecap="round" stroke-linejoin="round"/>
<path d="M91.9363 9.85479C91.0337 10.6863 89.9709 9.62802 90.7873 8.76325C91.392 8.11996 91.8501 7.68606 92.3528 7.18338C92.4977 7.01904 92.7011 6.91767 92.9195 6.90089C93.138 6.88418 93.3544 6.95328 93.5227 7.09365C93.6909 7.23395 93.7979 7.43442 93.8206 7.65235C93.8434 7.87028 93.7803 8.08844 93.6447 8.26056C93.2659 8.69824 92.7738 9.08149 91.9363 9.85479Z" stroke="black" stroke-width="0.75" stroke-linecap="round" stroke-linejoin="round"/>
<path d="M112.915 81.3407C113.418 77.964 114.818 74.7846 116.968 72.1328C118.673 75.2472 119.464 78.7796 119.251 82.3233C118.812 85.8452 117.394 89.1735 115.159 91.9303C113.37 88.7033 112.589 85.0152 112.915 81.3407Z" stroke="black" stroke-width="0.75" stroke-linecap="round" stroke-linejoin="round"/>
<path d="M92.499 32.5308C91.9495 29.5383 90.2936 26.8623 87.8607 25.0352" stroke="black" stroke-width="0.75" stroke-linecap="round" stroke-linejoin="round"/>
<path d="M86.0791 16.9387C85.2891 14.4162 83.7521 12.1928 81.6713 10.5625" stroke="black" stroke-width="0.75" stroke-linecap="round" stroke-linejoin="round"/>
</svg>
