<svg width="133" height="127" viewBox="0 0 133 127" fill="none" xmlns="http://www.w3.org/2000/svg">
<path d="M40.5441 14.6251L28.5464 12.8813L23.1857 2.01252C23.0347 1.70844 22.8018 1.45255 22.5132 1.27366C22.2246 1.09477 21.8918 1 21.5523 1C21.2128 1 20.88 1.09477 20.5914 1.27366C20.3028 1.45255 20.0699 1.70844 19.9189 2.01252L14.5549 12.8796L2.55717 14.6226C2.22131 14.6723 1.90596 14.8147 1.64659 15.0338C1.38722 15.253 1.19426 15.5402 1.08928 15.8631C0.984384 16.186 0.971637 16.5318 1.05254 16.8616C1.13344 17.1913 1.30482 17.4919 1.54736 17.7296L10.2299 26.1896L8.1811 38.1365C8.12544 38.4709 8.1641 38.8143 8.29282 39.128C8.42147 39.4417 8.63501 39.7134 8.90954 39.9124C9.18407 40.1114 9.50859 40.23 9.84678 40.2548C10.185 40.2796 10.5233 40.2096 10.8239 40.0528L21.5519 34.4122L32.2823 40.0528C32.5829 40.2096 32.9213 40.2796 33.2595 40.2548C33.5977 40.23 33.9222 40.1114 34.1967 39.9124C34.4712 39.7134 34.6848 39.4417 34.8134 39.128C34.9422 38.8143 34.9808 38.4709 34.9252 38.1365L32.8764 26.1896L41.5539 17.7321C41.7964 17.4944 41.9677 17.1938 42.0487 16.864C42.1296 16.5343 42.1169 16.1885 42.012 15.8656C41.907 15.5427 41.714 15.2555 41.4547 15.0363C41.1953 14.8172 40.8799 14.6747 40.5441 14.6251Z" fill="#FDC886"/>
<path d="M40.5441 14.6251L28.5464 12.8813L23.1857 2.01252C23.0347 1.70844 22.8018 1.45255 22.5132 1.27366C22.2246 1.09477 21.8918 1 21.5523 1C21.2128 1 20.88 1.09477 20.5914 1.27366C20.3028 1.45255 20.0699 1.70844 19.9189 2.01252L14.5549 12.8796L2.55717 14.6226C2.22131 14.6723 1.90596 14.8147 1.64659 15.0338C1.38722 15.253 1.19426 15.5402 1.08928 15.8631C0.984384 16.186 0.971637 16.5318 1.05254 16.8616C1.13344 17.1913 1.30482 17.4919 1.54736 17.7296L10.2299 26.1896L8.1811 38.1365C8.12544 38.4709 8.1641 38.8143 8.29282 39.128C8.42147 39.4417 8.63501 39.7134 8.90954 39.9124C9.18407 40.1114 9.50859 40.23 9.84678 40.2548C10.185 40.2796 10.5233 40.2096 10.8239 40.0528L21.5519 34.4122L32.2823 40.0528C32.5829 40.2096 32.9213 40.2796 33.2595 40.2548C33.5977 40.23 33.9222 40.1114 34.1967 39.9124C34.4712 39.7134 34.6848 39.4417 34.8134 39.128C34.9422 38.8143 34.9808 38.4709 34.9252 38.1365L32.8764 26.1896L41.5539 17.7321C41.7964 17.4944 41.9677 17.1938 42.0487 16.864C42.1296 16.5343 42.1169 16.1885 42.012 15.8656C41.907 15.5427 41.714 15.2555 41.4547 15.0363C41.1953 14.8172 40.8799 14.6747 40.5441 14.6251Z" stroke="black" stroke-width="1.5" stroke-linecap="round" stroke-linejoin="round"/>
<path d="M99.3146 61.8784C90.5863 52.0861 86.3396 49.9315 83.7343 42.8087V20.5762C83.7126 18.2811 82.7861 16.0871 81.1564 14.4712C79.5259 12.8554 77.3238 11.9483 75.0284 11.9472C72.7339 11.946 70.531 12.851 68.8988 14.4653C67.2674 16.0797 66.3384 18.2727 66.3151 20.5679V47.6544C62.205 48.3209 63.0149 48.1543 32.3216 48.1543C30.0112 48.1566 27.7434 48.7768 25.7532 49.9505C23.7632 51.1242 22.1232 52.8089 21.0034 54.8298C19.8835 56.8507 19.3246 59.1344 19.3844 61.444C19.4442 63.7537 20.1207 66.0053 21.3437 67.9655C20.1436 69.8706 19.464 72.057 19.373 74.3067C19.2819 76.5564 19.7824 78.7906 20.8246 80.7865C19.811 82.6986 19.309 84.8399 19.3673 87.0028C19.4257 89.1657 20.0426 91.277 21.1579 93.1316C20.0572 94.8713 19.4432 96.8743 19.38 98.9322C19.3168 100.99 19.8067 103.027 20.7987 104.831C21.7906 106.635 23.2482 108.14 25.0197 109.189C26.7911 110.238 28.8115 110.792 30.8702 110.795H59.8647C63.2349 110.795 66.0302 108.757 66.6134 106.072C68.2081 106.277 69.7886 106.588 71.3425 107.002C75.6342 108.095 80.3882 108.282 84.5166 106.68C87.5744 108.224 93.2533 112.574 98.4698 116.952L121.095 85.1323C110.018 74.7701 106.016 69.3953 99.3146 61.8784Z" stroke="black" stroke-width="1.5" stroke-linecap="round" stroke-linejoin="round"/>
<path d="M21.3436 67.9655C22.5044 69.8285 24.1206 71.3652 26.0399 72.4305C27.9591 73.4958 30.1181 74.0546 32.3132 74.0543H59.8596C63.6506 74.0543 66.7225 71.3282 66.7225 67.9663C66.7225 64.6044 63.6506 61.8783 59.8596 61.8783H34.2437" stroke="black" stroke-width="1.5" stroke-linecap="round" stroke-linejoin="round"/>
<path d="M21.157 93.1317C23.3149 97.2809 27.3125 99.2855 32.3132 99.2855H59.8604C63.6505 99.2855 66.7225 96.7093 66.7225 93.5324C66.7225 90.3555 63.6505 87.7785 59.8596 87.7785" stroke="black" stroke-width="1.5" stroke-linecap="round" stroke-linejoin="round"/>
<path d="M66.6067 106.068C67.4083 102.359 63.9406 99.2855 59.858 99.2855" stroke="black" stroke-width="1.5" stroke-linecap="round" stroke-linejoin="round"/>
<path d="M20.8246 80.7865C21.916 82.8919 23.5646 84.6583 25.5906 85.8905C27.6166 87.1236 29.9423 87.7768 32.3141 87.7785H59.8596C61.6796 87.7785 63.425 87.0553 64.7119 85.7689C65.9985 84.4816 66.7217 82.7361 66.7217 80.9165C66.7217 79.0966 65.9985 77.3512 64.7119 76.0643C63.425 74.7775 61.6796 74.0544 59.8596 74.0544" stroke="black" stroke-width="1.5" stroke-linecap="round" stroke-linejoin="round"/>
<path d="M84.5099 106.677C88.0784 105.295 92.1526 102.302 93.2474 98.6523" stroke="black" stroke-width="1.5" stroke-linecap="round" stroke-linejoin="round"/>
<path d="M66.7233 89.7156C68.3196 86.8978 70.5809 84.5125 73.3103 82.7678C69.7793 80.6332 66.8507 77.6347 64.8003 74.0544" stroke="black" stroke-width="1.5" stroke-linecap="round" stroke-linejoin="round"/>
<path d="M121.088 85.129L98.4631 116.949C102.796 120.582 106.282 123.566 109.159 125.755L132 94.9272C127.697 91.1895 124.126 87.971 121.088 85.129ZM121.778 100.634C120.963 100.634 120.167 100.392 119.488 99.9387C118.811 99.4863 118.283 98.8431 117.971 98.0899C117.659 97.3367 117.577 96.5085 117.736 95.7087C117.895 94.9097 118.288 94.1748 118.864 93.5991C119.44 93.0225 120.175 92.6301 120.974 92.471C121.774 92.3118 122.602 92.3935 123.355 92.7059C124.108 93.0175 124.751 93.5458 125.204 94.2231C125.657 94.9013 125.899 95.6978 125.899 96.5127C125.899 97.0543 125.792 97.59 125.585 98.0899C125.378 98.5898 125.075 99.0439 124.691 99.4263C124.309 99.8096 123.855 100.113 123.355 100.32C122.855 100.527 122.319 100.634 121.778 100.634Z" fill="#FDC886"/>
<path d="M121.778 100.634C120.963 100.634 120.167 100.392 119.488 99.9387C118.811 99.4863 118.283 98.8431 117.971 98.0899C117.659 97.3367 117.577 96.5085 117.736 95.7087C117.895 94.9097 118.288 94.1748 118.864 93.5991C119.44 93.0225 120.175 92.6301 120.974 92.471C121.774 92.3118 122.602 92.3935 123.355 92.7059C124.108 93.0175 124.751 93.5458 125.204 94.2231C125.657 94.9013 125.899 95.6978 125.899 96.5127C125.899 97.0543 125.792 97.59 125.585 98.0899C125.378 98.5898 125.075 99.0439 124.691 99.4263C124.309 99.8096 123.855 100.113 123.355 100.32C122.855 100.527 122.319 100.634 121.778 100.634Z" fill="#FDC886"/>
<path d="M121.088 85.129L98.4631 116.949C102.796 120.582 106.282 123.566 109.159 125.755L132 94.9272C127.697 91.1895 124.126 87.971 121.088 85.129Z" stroke="black" stroke-width="1.5" stroke-linecap="round" stroke-linejoin="round"/>
</svg>
