<svg width="74" height="91" viewBox="0 0 74 91" fill="none" xmlns="http://www.w3.org/2000/svg">
<path d="M40.0171 50.8233L40.0172 50.8236L40.0277 50.8184L64.3078 38.8378L66.5738 43.7615L11.341 69.181L9.07447 64.2561L40.0171 50.8233Z" stroke="#1F2223" stroke-width="0.48"/>
<path d="M30.2131 34.2927C30.2131 34.2927 40.7271 18.6972 41.3568 9.26616C41.9865 -0.164884 27.6761 -3.57098 26.8815 8.51634C26.06 20.8367 30.2131 34.2927 30.2131 34.2927Z" stroke="#1F2223" stroke-width="0.48" stroke-linecap="round" stroke-linejoin="round"/>
<path d="M29.8324 34.2563C29.8324 34.2563 11.1338 32.1281 3.56317 26.4966C-4.00746 20.8652 2.66437 7.74026 12.399 14.9959C22.2894 22.3625 29.8324 34.2563 29.8324 34.2563Z" stroke="#1F2223" stroke-width="0.48" stroke-linecap="round" stroke-linejoin="round"/>
<path d="M39.2544 44.2349C38.165 44.8922 36.9322 45.2755 35.6621 45.352C35.9588 46.1925 36.1791 47.058 36.3204 47.938L38.5021 48.8972L39.828 46.9694C39.7087 46.0443 39.5172 45.1299 39.2544 44.2349Z" fill="#FDDE92"/>
<path d="M53.2562 27.6745C47.7832 34.5017 43.2788 37.0784 40.2695 38.1034C41.0783 40.2475 41.7083 41.8461 42.0018 43.7739C42.0112 43.7927 52.4945 39.7021 57.3494 31.2025C56.3452 29.664 54.9262 28.4409 53.2562 27.6745Z" fill="#FDDE92"/>
<path d="M37.842 38.7053C37.3337 38.7882 36.8121 38.7263 36.3373 38.5266C35.6509 39.326 34.4754 39.5987 33.093 39.6457C32.886 39.9362 32.62 40.1797 32.3125 40.3604C32.9846 41.4253 33.596 42.5273 34.1438 43.6611C36.3161 43.5295 37.9617 43.1345 39.0996 42.1189C38.8021 40.9399 38.3805 39.7956 37.842 38.7053Z" fill="#FDDE92"/>
<path d="M14.5216 50.4881C19.9947 50.2813 27.0193 49.3993 32.3231 47.5353C31.5899 45.4824 30.6609 43.5048 29.549 41.6297C25.4825 43.1616 22.259 43.1566 13.9668 43.7268C15.9193 43.6194 16.341 50.2347 14.5216 50.4881Z" fill="#FDDE92"/>
<path d="M14.8105 77.1395L17.0016 81.9166C17.4375 82.8649 18.2319 83.6019 19.2105 83.9647C20.189 84.3279 21.2716 84.2884 22.2208 83.8538L43.1537 74.2614" stroke="#1F2223" stroke-width="0.48" stroke-linecap="round" stroke-linejoin="round"/>
<path d="M52.6973 69.8887L70.7061 61.6415C71.6544 61.2055 72.3914 60.4111 72.7542 59.4326C73.1175 58.4541 73.0779 57.3717 72.6433 56.4224L59.9763 28.7657" stroke="#1F2223" stroke-width="0.48" stroke-linecap="round" stroke-linejoin="round"/>
<path d="M56.1014 23.7913C55.2258 23.5646 54.2993 23.6476 53.4782 24.0264L40.6152 29.9156" stroke="#1F2223" stroke-width="0.48" stroke-linecap="round" stroke-linejoin="round"/>
<path d="M9.97656 43.9436L19.5763 39.548" stroke="#1F2223" stroke-width="0.48" stroke-linecap="round" stroke-linejoin="round"/>
<path d="M5.98666 45.7678L4.98045 46.2286C4.03195 46.6644 3.29519 47.4588 2.9319 48.4373C2.56857 49.4159 2.60846 50.4986 3.04277 51.4478L10.698 68.149" stroke="#1F2223" stroke-width="0.48" stroke-linecap="round" stroke-linejoin="round"/>
<path d="M35.1992 37.2386C35.2637 37.5336 35.4031 37.8071 35.6041 38.0325C35.805 38.2579 36.0607 38.4277 36.3465 38.5254C36.821 38.726 37.3428 38.7879 37.8511 38.7041C44.0012 37.7509 49.3589 32.5258 53.2546 27.6734C54.9235 28.4396 56.342 29.6621 57.3458 31.1998C52.4929 39.7009 42.0076 43.7916 41.9982 43.7713" stroke="#1F2223" stroke-width="0.48" stroke-linecap="round" stroke-linejoin="round"/>
<path d="M34.1925 37.4266C34.1925 37.4266 38.7242 37.2207 34.6439 33.0068C31.8425 30.1133 31.3441 33.3695 31.9534 34.7682C32.1242 35.1597 31.8079 35.1434 31.4278 35.038C30.3637 34.741 30.2993 36.4015 32.1331 36.5144C32.2803 36.5923 32.4086 36.7014 32.5092 36.8341C33.7584 38.656 33.7228 39.731 31.6629 40.7085C26.3502 43.2297 23.3875 43.0595 13.9648 43.7276" stroke="#1F2223" stroke-width="0.48" stroke-linecap="round" stroke-linejoin="round"/>
<path d="M34.2012 37.4265L35.781 38.1976" stroke="#1F2223" stroke-width="0.48" stroke-linecap="round" stroke-linejoin="round"/>
<path d="M14.5078 50.4883C19.9808 50.2814 27.0055 49.3994 32.3093 47.5355" stroke="#1F2223" stroke-width="0.48" stroke-linecap="round" stroke-linejoin="round"/>
<path d="M14.9425 44.4231C12.7401 44.7083 10.5122 44.7367 8.30335 44.5078C7.62592 44.4131 6.95642 44.2685 6.30033 44.0752C5.5452 43.8684 4.80393 43.614 4.08102 43.3135C2.08741 42.4938 1.59841 42.8621 3.46928 44.2915C5.55807 45.6761 7.82692 46.7677 10.2123 47.5358" stroke="#1F2223" stroke-width="0.48" stroke-linecap="round" stroke-linejoin="round"/>
<path d="M15.3636 49.6047C13.908 49.5176 9.01301 49.5057 7.56779 49.6423C5.02826 49.8868 5.88504 49.3226 6.67695 48.843C7.25009 48.4965 9.94948 47.8179 8.96208 47.1107" stroke="#1F2223" stroke-width="0.48" stroke-linecap="round" stroke-linejoin="round"/>
<path d="M5.97113 43.9717C5.53856 43.6519 4.69271 42.9085 4.44771 42.6927C3.32172 41.7029 3.6766 41.4599 3.89288 41.5544C4.75952 41.936 6.09338 42.7111 6.91201 43.0496C8.22855 43.594 10.73 44.6859 11.9713 44.6577" stroke="#1F2223" stroke-width="0.48" stroke-linecap="round" stroke-linejoin="round"/>
<path d="M6.82506 43.0218C6.66519 42.8238 6.52463 42.6639 6.4489 42.5704C5.50605 41.4078 5.88467 41.2256 6.08215 41.3573C6.87406 41.8839 8.06785 42.8589 8.81867 43.3227C9.72218 43.8545 10.6729 44.3019 11.6586 44.659" stroke="#1F2223" stroke-width="0.48" stroke-linecap="round" stroke-linejoin="round"/>
<path d="M13.0801 44.6019C13.8086 42.8557 15.2835 43.854 15.6335 46.5925C16.0443 49.8096 14.503 51.7731 13.3528 49.5577" stroke="#1F2223" stroke-width="0.48" stroke-linecap="round" stroke-linejoin="round"/>
<path d="M58.2174 26C57.8709 25.5392 58.6876 23.7525 58.7722 23.2071C58.9133 22.2949 59.0291 21.2719 57.5873 23.3857C56.4331 24.9957 55.1864 26.5374 53.8535 28.003" stroke="#1F2223" stroke-width="0.48" stroke-linecap="round" stroke-linejoin="round"/>
<path d="M57.127 30.8814C58.5944 29.311 65.6399 25.4999 64.7069 25.3613C63.6141 25.1985 61.6472 26.2844 61.4344 26.4037" stroke="#1F2223" stroke-width="0.48" stroke-linecap="round" stroke-linejoin="round"/>
<path d="M63.0273 25.6669C63.2491 25.5224 64.1598 24.9339 64.9141 24.5246C65.6683 24.1153 64.0301 24.1014 63.0521 24.6092" stroke="#1F2223" stroke-width="0.48" stroke-linecap="round" stroke-linejoin="round"/>
<path d="M59.3895 27.0599C59.2578 26.9867 58.5095 26.6313 57.041 27.0728" stroke="#1F2223" stroke-width="0.48" stroke-linecap="round" stroke-linejoin="round"/>
<path d="M37.1973 61.2268C37.7417 60.0231 38.2366 58.764 38.7242 57.4653C38.7336 57.4747 37.9323 61.2832 38.2822 64.2266" stroke="#1F2223" stroke-width="0.48" stroke-linecap="round" stroke-linejoin="round"/>
<path d="M29.5371 41.6303C31.9351 45.5141 33.167 50.263 33.5808 51.0153C35.9693 52.3601 40.455 51.2316 41.9126 49.6423C42.5684 44.4539 41.9621 42.5929 40.2669 38.1038" stroke="#1F2223" stroke-width="0.48" stroke-linecap="round" stroke-linejoin="round"/>
<path d="M33.5779 51.0153C31.5937 53.0653 29.3744 50.846 26.5438 65.8635C20.121 65.8258 17.7889 66.3619 11.7704 67.0671C10.7078 70.4822 11.0087 74.1482 12.2688 77.9761L28.4434 72.6624C29.5795 72.2878 30.5867 71.6003 31.3492 70.6787C33.7195 67.8086 35.6863 64.6281 37.1949 61.2254C39.2192 67.6368 44.6824 77.352 48.2385 82.9685C53.6828 82.9685 58.2071 82.0376 61.7998 80.1474C52.198 72.7188 43.7841 54.5407 41.9102 49.6413" fill="#CFD181"/>
<path d="M33.5779 51.0153C31.5937 53.0653 29.3744 50.846 26.5438 65.8635C20.121 65.8258 17.7889 66.3619 11.7704 67.0671C10.7078 70.4822 11.0087 74.1482 12.2688 77.9761L28.4434 72.6624C29.5795 72.2878 30.5867 71.6003 31.3492 70.6787C33.7195 67.8086 35.6863 64.6281 37.1949 61.2254C39.2192 67.6368 44.6824 77.352 48.2385 82.9685C53.6828 82.9685 58.2071 82.0376 61.7998 80.1474C52.198 72.7188 43.7841 54.5407 41.9102 49.6413" stroke="#1F2223" stroke-width="0.48" stroke-linecap="round" stroke-linejoin="round"/>
<path d="M32.3086 40.3603C32.9826 41.4262 33.5979 42.5281 34.1517 43.6611C36.324 43.5294 37.9697 43.1345 39.1076 42.1189C38.8091 40.9392 38.3869 39.7945 37.8475 38.7038" stroke="#1F2223" stroke-width="0.48" stroke-linecap="round" stroke-linejoin="round"/>
<path d="M39.8256 46.9713L38.4997 48.8991L36.3165 47.9399C36.1754 47.0592 35.955 46.193 35.6582 45.3519C36.9285 45.2748 38.1612 44.8908 39.2505 44.2328C39.5138 45.1291 39.7064 46.0448 39.8256 46.9713Z" stroke="#1F2223" stroke-width="0.48" stroke-linecap="round" stroke-linejoin="round"/>
<path d="M57.6918 81.7945C60.7109 85.1235 65.5613 86.7409 68.0459 89.8254C64.7076 89.7596 57.8333 88.6029 54.7202 87.324C54.0431 86.0451 54.391 85.4432 52.4727 82.7631C54.2371 82.5904 55.9833 82.2662 57.6918 81.7945Z" stroke="#1F2223" stroke-width="0.48" stroke-linecap="round" stroke-linejoin="round"/>
<path d="M11.4996 68.1301C9.41199 68.2054 7.32276 68.0381 5.27376 67.6317C3.31826 71.8635 1.92649 77.139 1.2207 80.5531C6.09239 78.2655 6.21464 73.2666 11.1799 72.7662C11.0466 71.2136 11.1544 69.6496 11.4996 68.1301Z" stroke="#1F2223" stroke-width="0.48" stroke-linecap="round" stroke-linejoin="round"/>
<path d="M33.0996 39.6555C34.482 39.6085 35.6575 39.3358 36.3439 38.5365" stroke="#1F2223" stroke-width="0.48" stroke-linecap="round" stroke-linejoin="round"/>
<path d="M36.0269 34.8312C37.0816 34.6294 38.0577 34.1316 38.8402 33.396C39.6226 32.6604 40.1795 31.7174 40.4462 30.677C40.713 29.6366 40.6779 28.5419 40.3458 27.5206C40.0132 26.4993 39.3975 25.5936 38.5694 24.9094C37.7419 24.2251 36.7364 23.7904 35.6708 23.6562C34.6053 23.5219 33.5235 23.6936 32.5519 24.1511C31.5802 24.6087 30.7588 25.3332 30.1835 26.2402C29.6083 27.1471 29.3029 28.199 29.3031 29.273C29.2905 30.1229 29.4402 30.9673 29.7441 31.7611C29.005 30.4556 27.8353 29.4474 26.4351 28.9089C25.035 28.3703 23.4912 28.3348 22.0677 28.8086C20.6443 29.2822 19.4295 30.2356 18.6312 31.5058C17.8329 32.7759 17.5006 34.2839 17.6911 35.772C17.8815 37.26 18.5829 38.6357 19.6754 39.6639C20.7679 40.692 22.1836 41.3088 23.6805 41.4087C25.1773 41.5085 26.6624 41.0854 27.8818 40.2116C29.1012 39.3377 29.9793 38.0675 30.3658 36.6179C31.1839 37.0693 32.2841 37.1257 32.9889 37.6241" stroke="#1F2223" stroke-width="0.48" stroke-linecap="round" stroke-linejoin="round"/>
<path d="M57.6918 81.7938C55.9828 82.265 54.2366 82.5891 52.4727 82.7624C54.3915 85.4425 54.0431 86.0443 54.7202 87.3232C57.8333 88.6021 64.7076 89.7588 68.0459 89.8246C65.5613 86.7402 60.7109 85.1227 57.6918 81.7938Z" fill="#1F2223"/>
<path d="M11.4996 68.1296C9.41204 68.2049 7.32281 68.0376 5.27376 67.6312C3.31826 71.8629 1.92649 77.1385 1.2207 80.5526C6.09239 78.265 6.21464 73.2661 11.1799 72.7657C11.0466 71.2131 11.1545 69.6491 11.4996 68.1296Z" fill="#1F2223"/>
<path d="M14.942 44.4226C14.2932 44.5073 13.6725 44.5637 13.0801 44.6013C13.5315 43.5204 14.3214 43.4258 14.942 44.4226Z" fill="#1F2223"/>
<path d="M15.364 49.6042C14.8656 50.8361 13.9816 50.7702 13.3516 49.5571C14.1697 49.5586 14.8938 49.576 15.364 49.6042Z" fill="#1F2223"/>
<path d="M38.7238 57.4656C38.2348 58.7634 37.7339 60.0047 37.1895 61.2084C37.5537 62.3636 38.0759 63.7395 38.2783 64.2275C37.9338 61.2836 38.7332 57.4775 38.7238 57.4656Z" fill="#1F2223"/>
<path d="M34.9747 23.6209C33.4737 23.6224 32.0347 24.2194 30.9734 25.2807C29.9121 26.342 29.3151 27.781 29.3136 29.282C29.3025 30.1317 29.4509 30.976 29.7511 31.771C29.0141 30.4636 27.8457 29.4529 26.4458 28.9118C25.0459 28.3707 23.5015 28.3328 22.0767 28.8047C20.652 29.2766 19.4355 30.2289 18.6354 31.4986C17.8353 32.7684 17.5012 34.2767 17.6903 35.7656C17.8794 37.2545 18.5801 38.6313 19.6723 39.6607C20.7645 40.69 22.1805 41.3079 23.678 41.4085C25.1754 41.5091 26.6613 41.0863 27.8815 40.2124C29.1016 39.3384 29.9801 38.0677 30.3668 36.6175C31.1849 37.0689 32.2852 37.1253 32.99 37.6237C32.8747 37.3931 32.4144 36.5571 32.1436 36.5234C30.3124 36.4106 30.3757 34.7461 31.4384 35.047C31.9462 35.1881 32.0684 35.0753 31.9828 34.8213C31.3527 33.4573 31.8605 30.111 34.5594 32.9213C35.1448 33.4834 35.6425 34.1302 36.0358 34.8402C37.4202 34.5765 38.6565 33.8057 39.5024 32.6788C40.3487 31.5519 40.7442 30.1498 40.6111 28.7468C40.4784 27.3439 39.8266 26.0409 38.7842 25.0929C37.7414 24.1449 36.3824 23.62 34.9732 23.6209H34.9747Z" fill="#1F2223"/>
<path d="M35.2074 37.2287C34.8782 37.3228 34.5415 37.389 34.2012 37.4266L35.7904 38.1978C35.4796 37.9609 35.2709 37.6143 35.2074 37.2287Z" fill="#1F2223"/>
<path d="M60.9899 25.7543C60.9899 25.7543 65.0635 23.0047 64.9616 22.9028C64.8598 22.801 63.8414 22.801 63.3322 23.0047C62.823 23.2083 61.8046 23.7175 61.8046 23.7175M61.8046 23.7175L59.8697 25.1433M61.8046 23.7175C61.8046 23.7175 63.434 21.8844 63.0267 21.8844C62.6193 21.8844 61.4991 22.5973 61.1936 22.9028C60.8881 23.2083 58.2402 25.2451 58.2402 25.2451" stroke="#1F2223" stroke-width="0.48" stroke-linecap="round" stroke-linejoin="round"/>
<path d="M33.6055 50.9085L41.8545 49.5846" stroke="black" stroke-width="0.48" stroke-linecap="round" stroke-linejoin="round"/>
</svg>
