<svg width="128" height="106" viewBox="0 0 128 106" fill="none" xmlns="http://www.w3.org/2000/svg">
<path d="M48.7624 64.5585C47.3706 64.4105 46.0021 64.0924 44.6873 63.6123C44.6167 63.591 44.5407 63.5977 44.4748 63.6309C44.4089 63.6641 44.3581 63.7205 44.3327 63.7896C44.3073 63.8593 44.3092 63.9357 44.3381 64.0034C44.367 64.0711 44.4206 64.1249 44.4881 64.1548C45.8577 64.6508 47.2865 64.9643 48.7379 65.0878C50.5583 65.1542 52.3629 64.7272 53.9604 63.852C53.1523 60.0923 49.5825 61.417 48.7624 64.5585Z" fill="#FDC886"/>
<path d="M66.714 67.4961C62.851 68.7936 58.8501 69.6363 54.7921 70.0081C53.8534 70.1675 52.9671 70.5513 52.2083 71.1263C52.2072 70.9357 52.1669 70.7478 52.0902 70.5732C46.4109 73.5613 40.4703 76.0242 34.3427 77.9306L35.6369 82.9447C33.8221 84.1313 32.0007 85.3013 30.1919 86.454C32.3639 85.7595 35.8222 91.5564 34.0977 92.7483C41.2044 89.0657 47.9612 84.7435 54.2841 79.835L57.2237 81.9924C60.8729 82.3484 64.5539 82.187 68.1583 81.5137C69.574 76.2646 69.0726 71.5965 66.714 67.4961Z" fill="#CFD181"/>
<path d="M95.1594 27.6905C92.389 12.2665 78.9571 1 62.715 1C46.3429 1 32.8363 12.26 30.2183 27.8758C31.012 24.0741 36.4887 20.3873 44.3341 22.282C47.4491 15.7082 56.4519 13.7706 62.721 18.8099C69.1169 13.2154 77.9684 15.7115 81.0833 22.282C89.2323 20.3139 94.3838 24.3779 95.1594 27.6905Z" fill="#CFD181"/>
<path fill-rule="evenodd" clip-rule="evenodd" d="M27.0249 75.9087L32.0332 74.6099L28.5889 61.3008L23.5823 62.5936L27.0249 75.9087ZM25.9437 76.1889L24.8298 76.4771L21.3869 63.1607L16.3774 64.4542L19.8217 77.7766L25.9437 76.1889Z" fill="#CFD181"/>
<path fill-rule="evenodd" clip-rule="evenodd" d="M10.1582 80.2768L19.8218 77.7794L13.6019 53.7344L8.77845 54.9814L9.9059 54.6932L16.1252 78.7257L13.8542 79.3186L7.63573 55.2769L3.93896 56.2324L10.1582 80.2768Z" fill="#FDC886"/>
<path d="M54.2992 79.8594L52.5581 81.1874C54.0975 81.5487 55.656 81.8222 57.2262 82.0075L54.2992 79.8594Z" fill="black"/>
<path d="M51.8516 70.1155C51.9694 70.3154 52.0666 70.5265 52.1417 70.7463L52.9113 69.5352C52.5825 69.7702 52.2267 69.9648 51.8516 70.1155Z" fill="black"/>
<path d="M61.0487 61.3735C60.0107 61.9705 59.0083 62.6272 58.0467 63.341C59.1689 61.7394 58.9796 61.0076 56.9995 62.1458C55.508 63.094 53.9377 63.9127 52.3062 64.5927C52.4799 64.8557 52.6198 65.1399 52.7225 65.438C52.8613 65.7408 53.0505 65.7408 53.3786 65.1983C54.0725 64.0628 55.4855 65.4639 53.9715 67.0655C53.8328 67.2296 53.9084 68.128 54.2617 69.1851C55.7226 69.0716 58.3999 68.7435 59.8249 67.7243C61.6922 66.3743 60.9856 65.6804 60.2539 65.9579C59.7366 66.1572 58.9172 66.5005 58.8661 66.5257C60.0826 65.7793 61.6238 64.7142 62.3608 63.4851C64.1524 60.6311 62.6258 60.5176 61.0487 61.3735Z" fill="black"/>
<path d="M111.94 39.0198C111.12 37.0895 105.746 42.0219 102.478 42.577C101.701 42.6862 100.959 42.971 100.308 43.4097C99.2024 44.3052 98.2701 45.3958 97.5576 46.6269C99.9282 47.5127 102.067 48.9225 103.815 50.7518C105.317 48.3932 107.31 46.2863 108.95 44.091C110.716 41.7171 112.166 39.5623 111.94 39.0198Z" fill="#FDC886"/>
<path d="M78.4453 70.3242C80.3876 71.3342 81.9693 72.9206 82.974 74.8655C83.7708 74.323 84.5132 73.8031 85.2071 73.3017L78.4453 70.3242Z" fill="black"/>
<path d="M117.238 78.0039C116.521 77.6838 115.739 77.5324 114.954 77.5623C113.697 77.6586 112.472 78.0012 111.347 78.5716C112.926 80.5876 113.972 82.9701 114.387 85.4974C116.843 84.3493 119.47 83.668 121.931 82.6966C124.668 81.6242 127.053 80.5517 127.154 79.9588C127.481 77.9029 120.303 79.2649 117.238 78.0039Z" fill="#FDC886"/>
<path d="M34.5325 91.6914C34.0013 92.0447 33.4222 92.4218 32.8545 92.789C33.0561 92.9059 33.2873 92.961 33.5198 92.9477C33.7523 92.9351 33.976 92.8541 34.1633 92.716C34.4145 92.4351 34.5469 92.0679 34.5325 91.6914Z" fill="black"/>
<path d="M31.2127 86.5698C30.6901 86.9178 30.1318 87.2099 29.5474 87.4397C29.6616 86.4689 30.3555 86.2166 31.2127 86.5698Z" fill="black"/>
<path d="M63.5213 68.4648C63.2408 68.5425 63.6507 68.4356 61.8958 68.8433C62.2607 73.2824 62.2227 77.7453 61.7822 82.1777C62.3374 82.165 62.8925 82.1272 63.4602 82.0893C63.9409 77.5613 63.9614 72.9968 63.5213 68.4648Z" fill="black"/>
<path d="M30.103 28.9916C30.103 24.4245 36.1835 20.3121 44.3331 22.2803C47.4481 15.7065 56.4509 13.7688 62.72 18.8081C69.1159 13.2137 77.9674 15.7098 81.0823 22.2803C89.2312 20.3121 95.325 24.4245 95.325 28.9916C95.325 35.2109 87.0745 37.2548 82.1773 36.8889C77.1566 39.6645 67.7075 39.6898 62.7246 36.8889C57.7444 39.6898 48.1665 39.6645 43.1458 36.8889C39.0727 37.3809 30.103 35.2109 30.103 28.9916Z" fill="#FDC886"/>
<path d="M31.9707 33.3506L62.7204 65.9231C62.7204 65.9231 93.6979 33.2251 93.7106 33.1992" stroke="black" stroke-width="0.75" stroke-linecap="round" stroke-linejoin="round"/>
<path d="M62.7354 65.957V68.6052" stroke="black" stroke-width="0.75" stroke-linecap="round"/>
<path d="M62.7207 18.8086V65.9173" stroke="black" stroke-width="0.75" stroke-linecap="round" stroke-linejoin="round"/>
<path d="M81.0814 22.2812C80.8038 22.7461 62.7191 65.9177 62.7191 65.9177C62.7191 65.9177 44.6111 22.7481 44.3335 22.2812" stroke="black" stroke-width="0.75" stroke-linecap="round" stroke-linejoin="round"/>
<path d="M34.3301 77.931C36.285 77.2875 37.4078 76.909 39.5274 76.152C43.8337 74.5723 48.0305 72.7091 52.0901 70.5742" stroke="black" stroke-width="0.75" stroke-linecap="round" stroke-linejoin="round"/>
<path d="M51.8721 70.1311C52.2464 69.9771 52.6027 69.7825 52.9345 69.5508L52.1669 70.7786" stroke="black" stroke-width="0.75" stroke-linecap="round" stroke-linejoin="round"/>
<path d="M52.2343 71.1232C52.1808 70.7706 52.0575 70.432 51.8717 70.1272C50.6227 70.6212 48.7236 70.6797 49.0901 66.1935C49.1103 65.8329 49.1567 65.475 49.2289 65.1211" stroke="black" stroke-width="0.75" stroke-linecap="round" stroke-linejoin="round"/>
<path d="M53.9595 63.8598C55.9237 62.8465 56.2059 62.6088 57.0001 62.144C58.9802 61.0085 59.1694 61.7402 58.0472 63.3392C59.0077 62.6241 60.0102 61.9673 61.0493 61.3717C62.6244 60.5085 64.1377 60.618 62.3614 63.478C61.429 64.731 60.2368 65.7682 58.8666 66.5186C58.9171 66.4933 59.7365 66.1507 60.2544 65.9508C60.9849 65.6699 61.6927 66.3672 59.8255 67.7171C58.4071 68.7338 55.7517 69.0638 54.2835 69.178" stroke="black" stroke-width="0.75" stroke-linecap="round" stroke-linejoin="round"/>
<path d="M48.7625 64.56C47.3707 64.4119 46.0022 64.0939 44.6874 63.6138C44.6166 63.5905 44.5395 63.5952 44.472 63.6264C44.4045 63.6583 44.3515 63.7147 44.3242 63.7838C44.2968 63.8535 44.2969 63.9305 44.3245 63.9996C44.3522 64.0686 44.4053 64.1251 44.4729 64.1563C45.8426 64.6523 47.2713 64.9657 48.7227 65.0893C50.5458 65.1583 52.3541 64.736 53.9579 63.8661C53.1524 60.0938 49.5826 61.4311 48.7625 64.56Z" stroke="black" stroke-width="0.75" stroke-linecap="round" stroke-linejoin="round"/>
<path d="M82.9747 74.8627C82.9747 74.8627 91.3415 68.7397 94.5952 66.2842C95.8801 65.3147 96.9711 64.1121 97.8117 62.7396L104.595 51.6703C102.407 49.0075 99.4605 47.0732 96.147 46.125L87.6555 58.8916L76.6645 64.4754C69.9532 64.1221 66.7041 67.508 66.7041 67.508" stroke="black" stroke-width="0.75" stroke-linecap="round" stroke-linejoin="round"/>
<path d="M97.5615 46.622C98.2734 45.3929 99.2043 44.3049 100.308 43.4107C100.958 42.9715 101.7 42.6867 102.478 42.578C105.744 42.0176 111.124 37.0885 111.94 39.0209C112.168 39.5627 110.718 41.7221 108.952 44.092C107.311 46.2913 105.313 48.3996 103.811 50.7622" stroke="black" stroke-width="0.75" stroke-linecap="round" stroke-linejoin="round"/>
<path d="M78.4585 70.332L85.1452 73.269" stroke="black" stroke-width="0.75" stroke-linecap="round" stroke-linejoin="round"/>
<path d="M68.1641 81.5208C75.5593 86.6803 83.365 91.2242 91.5026 95.1081C92.1274 95.4056 92.8054 95.5743 93.4973 95.6042C94.1886 95.6347 94.8785 95.5258 95.5273 95.2841C101.902 92.8272 108.508 90.2003 114.538 86.9712C114.322 83.406 112.852 80.0321 110.388 77.4464C104.648 79.9438 100.005 81.9876 94.8838 83.3881C94.8838 83.3881 84.1698 77.0194 82.9745 74.86C80.4612 70.318 75.8455 68.4349 71.6588 69.5239" stroke="black" stroke-width="0.75" stroke-linecap="round" stroke-linejoin="round"/>
<path d="M114.388 85.4952C116.844 84.3471 119.471 83.6658 121.932 82.6944C124.669 81.622 127.054 80.5496 127.155 79.9566C127.482 77.8981 120.304 79.2627 117.239 78.0017C115.171 77.1451 113.421 77.6531 111.348 78.5694" stroke="black" stroke-width="0.75" stroke-linecap="round" stroke-linejoin="round"/>
<path d="M106.225 79.2539C109.025 82.584 110.577 85.8391 110.565 88.9925" stroke="black" stroke-width="0.75" stroke-linecap="round" stroke-linejoin="round"/>
<path d="M93.8242 49.6211C97.0082 50.9405 99.924 52.831 102.428 55.1989" stroke="black" stroke-width="0.75" stroke-linecap="round" stroke-linejoin="round"/>
<path d="M28.6402 88.9414C27.126 90.0935 25.4403 90.9999 23.6447 91.6287C22.5975 92.0324 22.7861 92.6699 24.0484 92.474C25.1933 92.2722 26.314 91.9508 27.3918 91.5152" stroke="black" stroke-width="0.75" stroke-linecap="round" stroke-linejoin="round"/>
<path d="M26.4456 91.8672C25.5206 92.4562 24.5599 92.9874 23.5691 93.4569C22.5365 93.8905 22.8751 94.5419 24.1003 94.2643C25.5276 93.8533 26.9231 93.3387 28.2757 92.7251" stroke="black" stroke-width="0.75" stroke-linecap="round" stroke-linejoin="round"/>
<path d="M26.7866 93.3594C25.9791 93.965 25.1829 94.4802 24.8562 94.6715C23.8941 95.2333 24.3117 95.8515 25.4745 95.4019C26.67 94.8966 27.8217 94.293 28.9181 93.5984" stroke="black" stroke-width="0.75" stroke-linecap="round" stroke-linejoin="round"/>
<path d="M34.533 91.6914C34.5528 91.9192 34.5099 92.1483 34.4087 92.3528C34.3075 92.558 34.1521 92.7313 33.9593 92.8541C33.7812 92.9232 33.5905 92.9531 33.3999 92.9411C33.2093 92.9298 33.0234 92.8774 32.855 92.7877C33.4214 92.4232 34.533 91.6914 34.533 91.6914Z" stroke="black" stroke-width="0.75" stroke-linecap="round" stroke-linejoin="round"/>
<path d="M27.9219 94.2108C27.5435 94.586 27.1445 94.9393 26.7266 95.2699C25.8574 95.928 26.2452 96.3264 27.3575 95.8251C29.2482 94.9193 31.0847 93.904 32.8576 92.7852" stroke="black" stroke-width="0.75" stroke-linecap="round" stroke-linejoin="round"/>
<path d="M31.2127 86.5735C31.0297 86.4746 30.8254 86.4215 30.6173 86.4181C30.4092 86.4148 30.2034 86.462 30.0175 86.5556C29.878 86.6592 29.7633 86.7926 29.682 86.946C29.6006 87.1001 29.5547 87.2694 29.5474 87.4434C30.1318 87.2136 30.6901 86.9215 31.2127 86.5735Z" stroke="black" stroke-width="0.75" stroke-linecap="round" stroke-linejoin="round"/>
<path d="M27.9218 89.4681C24.0605 88.9521 24.0744 88.1075 27.2405 87.9548C28.033 87.909 28.8126 87.7343 29.5487 87.4375" stroke="black" stroke-width="0.75" stroke-linecap="round" stroke-linejoin="round"/>
<path d="M37.673 90.8337L39.7043 98.6805L15.2807 105.001L8.97314 80.5771L33.3841 74.2695L35.6298 82.949" stroke="black" stroke-width="0.75" stroke-linecap="round" stroke-linejoin="round"/>
<path d="M8.97296 80.5794L1 75.8867" stroke="black" stroke-width="0.75" stroke-linecap="round" stroke-linejoin="round"/>
<path d="M33.3838 74.2662L38.1522 66.1797" stroke="black" stroke-width="0.75" stroke-linecap="round" stroke-linejoin="round"/>
<path d="M19.8228 77.7755L10.1592 80.2729L3.93994 56.2285L13.6029 53.7305L19.8228 77.7755Z" stroke="black" stroke-width="0.75" stroke-linecap="round" stroke-linejoin="round"/>
<path d="M16.126 78.7238L13.855 79.3168L7.63574 55.2718L9.90671 54.6914L16.126 78.7238Z" stroke="black" stroke-width="0.75" stroke-linecap="round" stroke-linejoin="round"/>
<path d="M32.0342 74.6099L19.8227 77.7766L16.3784 64.4542L28.5899 61.3008L32.0342 74.6099Z" stroke="black" stroke-width="0.75" stroke-linecap="round" stroke-linejoin="round"/>
<path d="M27.0258 75.9076L24.8305 76.4754L21.3862 63.1537L23.5815 62.5859L27.0258 75.9076Z" stroke="black" stroke-width="0.75" stroke-linecap="round" stroke-linejoin="round"/>
<path d="M57.2086 81.9909L54.3002 79.8594L52.5591 81.1841" stroke="black" stroke-width="0.75" stroke-linecap="round" stroke-linejoin="round"/>
<path d="M66.7013 67.5234C62.8382 68.8203 58.8373 69.6629 54.7793 70.0341C53.6439 70.0972 52.0568 71.1822 50.9944 72.0401C44.6576 77.1173 37.3155 81.9308 30.1812 86.4801C31.3133 86.1009 32.7941 87.6268 33.4535 88.6202C34.2417 89.8068 35.1049 92.0645 34.0989 92.7618C40.561 89.419 46.7354 85.5471 52.5588 81.1858C58.2754 82.4853 62.2729 82.4474 68.1635 81.5178C69.5785 76.264 69.0692 71.6172 66.7013 67.5234Z" stroke="black" stroke-width="0.75" stroke-linecap="round" stroke-linejoin="round"/>
<path d="M61.8943 68.8725C62.2592 73.3029 62.2212 77.7578 61.7808 82.1816C62.3359 82.1689 62.891 82.1311 63.4588 82.0932C63.9401 77.5653 63.9612 73.0007 63.5218 68.4688C62.9793 68.6201 62.4368 68.7476 61.8943 68.8725Z" stroke="black" stroke-width="0.75" stroke-linecap="round" stroke-linejoin="round"/>
<path d="M30.2175 27.8758C32.8356 12.26 46.3422 1 62.7143 1C78.9564 1 92.3883 12.2665 95.1586 27.6905C94.3831 24.3779 89.2315 20.3139 81.0826 22.282C77.9677 15.7115 69.1162 13.2154 62.7203 18.8099C56.4512 13.7706 47.4484 15.7082 44.3334 22.282C36.4879 20.3873 31.0112 24.0741 30.2175 27.8758ZM30.2175 27.8758C30.1868 28.0231 30.163 28.1706 30.1465 28.318C30.1692 28.1702 30.1929 28.0228 30.2175 27.8758Z" stroke="black" stroke-width="0.75" stroke-linecap="round" stroke-linejoin="round"/>
<path d="M81.0953 22.282C80.6411 12.5554 74.5474 3.06844 62.7144 1C50.8815 3.06844 44.7857 12.5541 44.3335 22.282" stroke="black" stroke-width="0.75" stroke-linecap="round" stroke-linejoin="round"/>
<path d="M62.7144 1V18.8125" stroke="black" stroke-width="0.75" stroke-linecap="round" stroke-linejoin="round"/>
<path d="M30.104 28.9955C30.104 24.4284 36.1845 20.316 44.3341 22.2842C47.449 15.7104 56.4519 13.7727 62.721 18.812C69.1169 13.2176 77.9683 15.7137 81.0833 22.2842C89.2322 20.316 95.326 24.4284 95.326 28.9955C95.326 35.2148 87.0755 37.2587 82.1783 36.8928C77.1576 39.6684 67.7085 39.6937 62.7256 36.8928C57.7454 39.6937 48.1675 39.6684 43.1468 36.8928C39.0737 37.3848 30.104 35.2148 30.104 28.9955Z" stroke="black" stroke-width="0.75" stroke-linecap="round" stroke-linejoin="round"/>
<path d="M52.3193 64.5938C52.4646 64.8222 52.5851 65.0659 52.6786 65.3202C52.8207 65.71 53.0013 65.8215 53.3791 65.1993C54.0704 64.0625 55.4861 65.465 53.9721 67.0666C53.6315 67.469 54.3705 69.4929 54.6029 70.0315" stroke="black" stroke-width="0.75" stroke-linecap="round" stroke-linejoin="round"/>
</svg>
