<svg width="107" height="107" viewBox="0 0 107 107" fill="none" xmlns="http://www.w3.org/2000/svg">
<path d="M53.248 105.496C82.1038 105.496 105.496 82.1038 105.496 53.2478C105.496 24.3922 82.1038 1 53.248 1C24.3922 1 1 24.3922 1 53.2478C1 82.1038 24.3922 105.496 53.248 105.496Z" stroke="black" stroke-width="1.5" stroke-linecap="round" stroke-linejoin="round"/>
<path d="M66.487 64.0528C65.665 64.6648 65.607 64.7878 60.622 69.7738C50.6685 64.2358 42.46 56.0278 36.922 46.0739C42.274 40.7229 42.084 40.9589 42.643 40.2089L27.043 24.6089C24.7725 27.0892 23.3017 30.1957 22.822 33.5239C21.135 43.7699 26.632 57.5908 37.864 68.8238C49.096 80.0568 62.917 85.5538 73.164 83.8668C76.4921 83.3868 79.5987 81.9168 82.079 79.6458L66.487 64.0528Z" fill="#CFD181"/>
<path d="M66.487 64.0528C65.665 64.6648 65.607 64.7878 60.622 69.7738C50.6685 64.2358 42.46 56.0278 36.922 46.0739C42.274 40.7229 42.084 40.9589 42.643 40.2089L27.043 24.6089C24.7725 27.0892 23.3017 30.1957 22.822 33.5239C21.135 43.7699 26.632 57.5908 37.864 68.8238C49.096 80.0568 62.917 85.5538 73.164 83.8668C76.4921 83.3868 79.5987 81.9168 82.079 79.6458L66.487 64.0528Z" stroke="black" stroke-width="1.5" stroke-linecap="round" stroke-linejoin="round"/>
<path d="M84.1729 66.9368L80.5479 63.3118C78.9342 61.6988 76.7947 60.7178 74.5188 60.5488C72.243 60.3798 69.9821 61.0338 68.1479 62.3918L83.7479 77.9918C87.3919 74.5488 86.1719 68.9368 84.1729 66.9368Z" fill="#CFD181"/>
<path d="M84.1729 66.9368L80.5479 63.3118C78.9342 61.6988 76.7947 60.7178 74.5188 60.5488C72.243 60.3798 69.9821 61.0338 68.1479 62.3918L83.7479 77.9918C87.3919 74.5488 86.1719 68.9368 84.1729 66.9368Z" stroke="black" stroke-width="1.5" stroke-linecap="round" stroke-linejoin="round"/>
<path d="M43.387 26.1511L39.762 22.5261C37.724 20.4891 32.152 19.3011 28.712 22.9521L44.312 38.5521C45.6697 36.7173 46.3232 34.4559 46.1535 32.1797C45.9837 29.9036 45.0019 27.7641 43.387 26.1511Z" fill="#CFD181"/>
<path d="M43.387 26.1511L39.762 22.5261C37.724 20.4891 32.152 19.3011 28.712 22.9521L44.312 38.5521C45.6697 36.7173 46.3232 34.4559 46.1535 32.1797C45.9837 29.9036 45.0019 27.7641 43.387 26.1511Z" stroke="black" stroke-width="1.5" stroke-linecap="round" stroke-linejoin="round"/>
<path d="M22.406 97.8458C22.7056 96.1648 22.6507 94.4388 22.245 92.7788C21.881 91.2398 21.145 90.0948 20.604 90.2238C20.063 90.3528 19.917 91.7038 20.281 93.2438C20.6608 94.9098 21.3846 96.4768 22.406 97.8458Z" stroke="black" stroke-width="1.5" stroke-linecap="round" stroke-linejoin="round"/>
<path d="M12.857 100.513C13.2605 98.6998 13.2386 96.8168 12.793 95.0128C12.429 93.4728 11.61 92.3488 10.963 92.5018C10.316 92.6548 10.087 94.0268 10.451 95.5668C10.8607 97.3798 11.6842 99.0718 12.857 100.513Z" stroke="black" stroke-width="1.5" stroke-linecap="round" stroke-linejoin="round"/>
<path d="M32.251 95.4218C32.5314 93.7718 32.4711 92.0808 32.074 90.4548C31.71 88.9158 30.992 87.7668 30.474 87.8908C29.956 88.0148 29.824 89.3618 30.188 90.9018C30.5607 92.5338 31.2627 94.0718 32.251 95.4218Z" stroke="black" stroke-width="1.5" stroke-linecap="round" stroke-linejoin="round"/>
<path d="M51.591 90.9458C51.8906 89.2638 51.8358 87.5378 51.43 85.8788C51.066 84.3398 50.33 83.1948 49.789 83.3238C49.248 83.4528 49.102 84.8038 49.466 86.3428C49.8456 88.0088 50.5695 89.5768 51.591 90.9458Z" stroke="black" stroke-width="1.5" stroke-linecap="round" stroke-linejoin="round"/>
<path d="M42.042 93.6128C42.4455 91.7988 42.4236 89.9168 41.978 88.1128C41.614 86.5728 40.795 85.4488 40.148 85.6018C39.501 85.7548 39.272 87.1268 39.636 88.6658C40.0459 90.4778 40.8694 92.1718 42.042 93.6128Z" stroke="black" stroke-width="1.5" stroke-linecap="round" stroke-linejoin="round"/>
<path d="M1 97.8018C2.143 102.639 5.711 105.935 8.967 105.165C10.904 104.707 12.288 102.909 12.857 100.513C16.472 104.828 21.346 103.413 22.406 97.8458C25.998 102.546 31.193 101.291 32.251 95.4218C35.702 100.032 40.738 99.1078 42.042 93.6128C45.657 97.9278 50.531 96.5128 51.591 90.9458C53.206 93.0598 55.38 94.1918 57.433 93.7068C60.815 92.9068 62.533 88.0378 61.115 82.9978" stroke="black" stroke-width="1.5" stroke-linecap="round" stroke-linejoin="round"/>
</svg>
