<svg width="107" height="137" viewBox="0 0 107 137" fill="none" xmlns="http://www.w3.org/2000/svg">
<path d="M25.5122 27.5898C25.162 27.5314 24.7825 27.4439 24.3447 27.3594L25.5122 27.5898Z" fill="#DADA8F"/>
<path d="M43.3741 71.4908L48.8322 75.1685L58.8728 82.8303C60.6779 81.5161 62.3208 79.9921 63.7672 78.2908C64.841 77.0119 65.7689 75.617 66.5324 74.1323C66.5324 74.1323 63.8202 70.8172 60.0803 66.9229C56.0992 62.7751 49.9521 56.9114 45.1653 55.1602C40.0725 58.21 34.936 59.5526 29.7994 59.0421C27.9401 69.0644 26.8277 79.211 26.4712 89.3983C30.3115 90.277 34.2841 90.4161 38.1763 89.807L40.9929 76.9927C41.47 75.0371 42.2751 73.1768 43.3741 71.4908Z" fill="#DADA8F"/>
<path d="M45.1653 55.1602C49.9521 56.9114 56.0992 62.7751 60.0803 66.9229C63.8202 70.8172 66.5324 74.1323 66.5324 74.1323C65.7689 75.617 64.841 77.0119 63.7672 78.2908C62.3208 79.9921 60.6779 81.5161 58.8728 82.8303L48.8322 75.1685L43.3741 71.4908C42.2751 73.1768 41.47 75.0371 40.9929 76.9927L38.1763 89.807C34.2841 90.4161 30.3115 90.277 26.4712 89.3983C26.8277 79.211 27.9401 69.0644 29.7994 59.0421C34.936 59.5526 40.0725 58.21 45.1653 55.1602ZM45.1653 55.1602C40.072 58.2103 34.9349 59.5529 29.7978 59.0421" stroke="black" stroke-width="0.75" stroke-linecap="round" stroke-linejoin="round"/>
<path d="M43.3734 71.4864C42.2805 73.1755 41.4758 75.035 40.9923 76.9883L40.4961 69.4141L43.3734 71.4864Z" fill="black"/>
<path d="M84.9693 64.9766L81.2056 67.5159C82.9876 69.8271 84.5975 72.2659 86.0216 74.8129L87.2037 74.0394C88.5171 73.1638 89.9619 73.0324 91.5381 72.8873C94.443 72.61 99.4495 71.3111 103.944 69.7496C99.1845 67.6035 91.376 65.7938 84.9693 64.9766Z" fill="black"/>
<path d="M44.3391 112.602C42.0633 113.742 39.6705 114.632 37.2026 115.258L37.6113 116.455C38.3702 118.776 38.3264 121.518 38.4723 123.942C38.6082 127.057 38.9396 130.162 39.4647 133.236C43.3175 126.931 44.9812 121.224 46.6887 117.036L44.3391 112.602Z" fill="black"/>
<path d="M22.6517 21.1513C21.9512 21.0645 21.5133 21.8227 21.2944 22.6107C21.829 22.6132 22.3532 22.759 22.8122 23.0332C23.6149 23.501 24.2716 23.865 24.8861 24.1723C24.3154 22.451 23.4543 21.2543 22.6517 21.1513Z" fill="black"/>
<path d="M21.7031 28.6953C22.3307 30.5779 23.3085 31.8184 24.1695 31.6725C24.6219 31.5995 24.9722 31.1617 25.2057 30.4904C24.3446 30.0088 22.856 29.2791 21.7031 28.6953Z" fill="black"/>
<path d="M37.5235 23.3427C37.5965 22.5109 36.5311 22.1138 35.8744 22.9779C35.889 22.1745 34.6047 21.8826 33.8896 22.9049C33.8167 22.0431 32.3534 22.1023 31.7589 23.0209C31.6859 22.2628 30.4163 22.5693 30.0952 23.6776C29.9055 24.349 29.7304 24.9919 29.5698 25.5902C31.3503 25.6486 33.0724 25.5311 33.6561 25.561C33.9042 25.5756 34.1247 25.9543 32.7528 26.3483C32.8554 26.4595 32.9815 26.5463 33.1218 26.6024C33.2622 26.6586 33.4134 26.6827 33.5643 26.673C33.7152 26.6632 33.8621 26.62 33.9941 26.5463C34.1261 26.4725 34.24 26.3703 34.3275 26.2469C34.2602 26.5108 34.2114 26.779 34.1815 27.0496C34.4296 27.1948 34.4296 27.3568 34.1523 27.502C34.1523 28.0397 34.3129 28.2755 34.6777 27.648C35.3636 26.5096 36.7063 27.5458 35.5533 29.0198C35.3586 29.3348 35.2592 29.6995 35.2669 30.0697C35.2747 30.44 35.3894 30.8001 35.5971 31.1067C36.3972 28.9113 37.4658 26.8234 38.7786 24.8905C39.771 23.1238 38.5451 22.5093 37.5235 23.3427Z" fill="black"/>
<path d="M48.3959 48.3853L43.828 48.0642L43.5215 46.4297L48.3959 48.3853Z" fill="black"/>
<path d="M19.5138 32.2891L14.6978 32.9312L22.3273 34.2155C20.6959 33.1355 19.4992 32.2891 19.5138 32.2891Z" fill="black"/>
<path d="M32.7806 33.4414L31.5078 35.397C31.5701 34.8982 31.6053 34.3964 31.613 33.8938C31.5984 33.9084 32.2844 33.6465 32.7806 33.4414Z" fill="black"/>
<path d="M70.0839 92.0654C70.6454 93.2068 70.8558 94.4895 70.6884 95.7507C70.5209 97.0112 69.9832 98.1948 69.1429 99.1503C68.3034 100.106 67.1989 100.791 65.9699 101.118C64.7409 101.446 63.4421 101.402 62.2377 100.992C61.0333 100.582 59.9779 99.824 59.2045 98.8139C58.4318 97.8039 57.9747 96.5872 57.8933 95.3175C57.8111 94.0478 58.1076 92.7828 58.7451 91.6821C59.3827 90.5806 60.332 89.6935 61.4734 89.132C63.0043 88.38 64.7709 88.2663 66.3855 88.8163C68 89.3663 69.3304 90.5353 70.0839 92.0654Z" fill="black"/>
<path d="M39.6255 83.207C41.4056 88.0084 41.5086 93.2707 39.9174 98.1374" stroke="black" stroke-width="0.75" stroke-linecap="round" stroke-linejoin="round"/>
<path d="M51.5192 39.3526C53.1138 35.6319 53.3181 29.8282 50.9355 24.569C48.7571 19.7712 44.7676 16.031 39.8397 14.1659C34.9117 12.3007 29.4456 12.4622 24.6364 14.6151C21.0629 16.2352 18.0389 18.8617 15.9346 22.1733" stroke="black" stroke-width="0.75" stroke-linecap="round" stroke-linejoin="round"/>
<path d="M47.1265 56.0487C47.4206 53.47 47.8823 50.9132 48.5091 48.3945" stroke="black" stroke-width="0.75" stroke-linecap="round" stroke-linejoin="round"/>
<path d="M55.6056 80.332L54.73 80.7261" stroke="black" stroke-width="0.75" stroke-linecap="round" stroke-linejoin="round"/>
<path d="M54.7299 80.7272C54.3382 80.907 53.915 81.0084 53.4841 81.0245C53.0532 81.0398 52.623 80.9707 52.219 80.8202C51.815 80.6696 51.4448 80.4415 51.1291 80.1473C50.8134 79.8531 50.5591 79.4998 50.3809 79.1073C49.7949 77.8177 49.2779 76.4973 48.834 75.1523" stroke="black" stroke-width="0.75" stroke-linecap="round" stroke-linejoin="round"/>
<path d="M60.8861 49.2773C59.8929 53.4251 58.8421 60.1076 60.0826 66.9222" stroke="black" stroke-width="0.75" stroke-linecap="round" stroke-linejoin="round"/>
<path d="M63.7497 40.0675C65.4503 33.0604 64.6715 25.6805 61.5461 19.1828C57.9506 11.5967 51.5008 5.73989 43.6047 2.88946C35.7082 0.0390311 27.0052 0.426155 19.393 3.96642C11.7809 7.50668 5.87712 13.913 2.96908 21.7883C0.0611231 29.6637 0.384646 38.3694 3.86922 46.0072C4.04788 46.3996 4.30228 46.7528 4.61774 47.0467C4.9332 47.3405 5.30358 47.5692 5.7076 47.7196C6.11162 47.87 6.54137 47.9392 6.9722 47.9232C7.40303 47.9073 7.82649 47.8063 8.21822 47.6264L13.0634 45.4081C13.4556 45.2293 13.8087 44.9748 14.1025 44.6593C14.3962 44.3439 14.6249 43.9735 14.7754 43.5696C14.9258 43.1656 14.9952 42.7359 14.9794 42.3052C14.9636 41.8744 14.863 41.451 14.6833 41.0591C14.465 40.6142 14.2749 40.156 14.1142 39.6873" stroke="black" stroke-width="0.75" stroke-linecap="round" stroke-linejoin="round"/>
<path d="M43.3735 71.4869L48.8317 75.1646L58.8723 82.8264C60.6773 81.5122 62.3203 79.9882 63.7667 78.2869C64.8405 77.008 65.7683 75.6131 66.5318 74.1284C66.5318 74.1284 63.8197 70.8133 60.0798 66.919C56.0987 62.7712 49.9516 56.9075 45.1648 55.1562" stroke="black" stroke-width="0.75" stroke-linecap="round" stroke-linejoin="round"/>
<path d="M40.9967 76.9776L40.5005 69.418L43.3755 71.4903" stroke="black" stroke-width="0.75" stroke-linecap="round" stroke-linejoin="round"/>
<path d="M29.8033 59.0391C27.944 69.0613 26.8316 79.2079 26.4751 89.3953C30.3154 90.274 34.288 90.413 38.1802 89.8039L40.9968 76.9896C41.4739 75.034 42.279 73.1737 43.378 71.4877" stroke="black" stroke-width="0.75" stroke-linecap="round" stroke-linejoin="round"/>
<path d="M81.1895 67.5039C82.9768 69.8113 84.5868 72.2508 86.0054 74.8009" stroke="black" stroke-width="0.75" stroke-linecap="round" stroke-linejoin="round"/>
<path d="M66.216 74.7283C68.8575 73.5316 76.1545 70.248 81.1894 67.5043L86.8664 63.6953C93.2002 64.1915 103.066 66.439 106 68.9491C101.379 70.9093 96.513 72.2343 91.5365 72.8895C90.0187 72.9072 88.5286 73.3027 87.2021 74.0417L86.02 74.8005C80.7662 78.2009 74.1559 82.1743 70.1126 84.5493C68.8813 85.2752 67.4557 85.6024 66.0317 85.4848C64.6068 85.3673 63.2542 84.8105 62.1589 83.8926L59.9106 82.0245" stroke="black" stroke-width="0.75" stroke-linecap="round" stroke-linejoin="round"/>
<path d="M37.2026 115.258C39.6705 114.632 42.0633 113.742 44.3391 112.602" stroke="black" stroke-width="0.75" stroke-linecap="round" stroke-linejoin="round"/>
<path d="M27.6432 89.6289L27.4681 91.818C27.3489 93.4087 27.6456 95.0033 28.3291 96.4443L36.0493 112.614C36.6688 113.856 37.1909 115.145 37.6109 116.467C38.379 118.771 38.326 121.517 38.4719 123.955C38.6124 127.07 38.9439 130.174 39.4643 133.249C39.6571 134.299 39.8875 135.35 40.1794 136.416C44.4555 129.746 45.8857 123.69 47.5786 119.603C47.3535 118.728 47.0562 117.874 46.6883 117.049C44.3564 112.646 44.1398 112.46 43.6236 110.394C40.2025 96.3859 37.3474 92.8181 37.1285 92.56L37.246 89.9331" stroke="black" stroke-width="0.75" stroke-linecap="round" stroke-linejoin="round"/>
<path d="M72.3311 46.5351C74.355 45.3342 76.2476 43.9255 77.9789 42.332" stroke="black" stroke-width="0.75" stroke-linecap="round" stroke-linejoin="round"/>
<path d="M80.8829 43.9062C80.3576 44.096 79.8468 44.2419 79.3506 44.4024" stroke="black" stroke-width="0.75" stroke-linecap="round" stroke-linejoin="round"/>
<path d="M75.7461 48.0642C77.4943 47.0324 78.8462 45.4448 79.5866 43.5547" stroke="black" stroke-width="0.75" stroke-linecap="round" stroke-linejoin="round"/>
<path d="M68.1133 41.5853C69.7478 41.7896 74.7528 42.2412 77.2491 40.374C80.3714 38.0382 80.7923 38.7049 78.4604 41.7604C78.3152 41.9509 78.1531 42.1398 77.9642 42.3442C79.3683 42.1956 80.7624 41.9617 82.1381 41.6436C85.0707 40.9831 85.616 41.6529 82.5321 43.2052C81.9967 43.4719 81.446 43.7058 80.883 43.9057C81.6711 43.8619 82.5321 43.7605 83.4807 43.6138C86.2182 43.1906 86.4402 43.7459 84.8671 44.5179C82.6273 45.476 80.2562 46.0913 77.8328 46.3429" stroke="black" stroke-width="0.75" stroke-linecap="round" stroke-linejoin="round"/>
<path d="M78.4605 47.875C79.5843 47.875 81.4669 48.9411 78.1395 49.0571C74.7975 49.1746 69.6604 48.9841 67.5005 48.882" stroke="black" stroke-width="0.75" stroke-linecap="round" stroke-linejoin="round"/>
<path d="M82.5016 45.4107C85.057 45.1472 84.7821 46.1281 82.0653 47.0591C80.0237 47.7182 77.8914 48.0579 75.7461 48.066" stroke="black" stroke-width="0.75" stroke-linecap="round" stroke-linejoin="round"/>
<path d="M63.7499 40.0664C64.4558 43.1839 64.2637 46.4377 63.1953 49.4503" stroke="black" stroke-width="0.75" stroke-linecap="round" stroke-linejoin="round"/>
<path d="M22.273 21.1797L8.74359 23.2981C7.60027 23.4748 6.53522 23.9874 5.68401 24.771C4.83279 25.5544 4.23375 26.5733 3.96315 27.6981C3.69247 28.8229 3.76244 30.0029 4.16408 31.0878C4.5658 32.1728 5.28098 33.1138 6.21884 33.7912L26.2563 48.7776L29.8034 59.0395" stroke="black" stroke-width="0.75" stroke-linecap="round" stroke-linejoin="round"/>
<path d="M25.2054 30.4976C24.975 31.1689 24.6217 31.6052 24.1693 31.6797C22.504 31.9554 21.4041 28.1149 21.1483 26.2722C20.9071 24.5187 21.0485 20.9547 22.6515 21.1567C23.4549 21.2581 24.3152 22.4563 24.8844 24.1784" stroke="black" stroke-width="0.75" stroke-linecap="round" stroke-linejoin="round"/>
<path d="M21.2798 22.6133C21.8148 22.6138 22.3395 22.7601 22.7976 23.0365C24.3911 23.9946 26.061 24.8196 27.7902 25.5029C29.2956 26.0681 30.8636 26.4503 32.4603 26.6412C32.9765 26.7142 34.1893 26.9231 34.3291 27.2257C34.515 27.6267 32.9834 27.8525 32.5479 27.9109C31.5996 28.0351 30.6408 28.0596 29.6874 27.9839C28.2871 27.9877 26.8895 27.8607 25.5128 27.6044C25.4167 27.8992 25.4219 28.2177 25.5274 28.5092C25.9015 29.2128 26.8063 30.1468 27.0167 30.5378C27.4991 31.4357 28.0007 32.4673 25.7317 30.8151C25.1817 30.4141 22.5164 29.1045 21.7038 28.699" stroke="black" stroke-width="0.75" stroke-linecap="round" stroke-linejoin="round"/>
<path d="M34.1794 27.0836C34.2091 26.8065 34.2586 26.5318 34.3276 26.2617C34.24 26.3852 34.1261 26.4875 33.9939 26.5613C33.8618 26.6351 33.7149 26.6784 33.5639 26.6882C33.4129 26.698 33.2616 26.674 33.121 26.6179C32.9804 26.5617 32.8542 26.4749 32.7515 26.3639" stroke="black" stroke-width="0.75" stroke-linecap="round" stroke-linejoin="round"/>
<path d="M34.1669 27.5079C34.1669 28.0456 34.3282 28.276 34.6923 27.6485C35.3636 26.4963 36.7063 27.5317 35.5679 29.0203C35.3731 29.331 35.2727 29.6916 35.279 30.0583C35.2852 30.4249 35.3979 30.7819 35.6033 31.0857C36.3708 28.9523 37.4059 26.9247 38.6834 25.0515C39.8132 23.1943 38.6065 22.4615 37.5235 23.3617C37.5965 22.5298 36.5311 22.1327 35.8744 22.9969C35.889 22.1942 34.6047 21.9023 33.8896 22.9239C33.8167 22.0628 32.3534 22.1212 31.7589 23.0406C31.6859 22.2817 30.4124 22.5867 30.0952 23.6974C29.9032 24.3679 29.7304 25.0108 29.5698 25.6092" stroke="black" stroke-width="0.75" stroke-linecap="round" stroke-linejoin="round"/>
<path d="M35.5972 31.1229C34.7653 33.852 34.9113 36.7124 38.3263 38.0696C35.8307 39.8209 32.4741 39.7187 29.7742 38.3177C31.2628 38.5274 31.5985 35.3874 31.5985 33.9103C31.2156 34.0267 30.8164 34.0809 30.4163 34.0709C28.5337 34.0709 28.0667 32.3634 29.0153 27.9414" stroke="black" stroke-width="0.75" stroke-linecap="round" stroke-linejoin="round"/>
<path d="M43.828 48.0642L43.5215 46.4297L48.3959 48.3853" stroke="black" stroke-width="0.75" stroke-linecap="round" stroke-linejoin="round"/>
<path d="M22.3303 34.2155L14.6831 32.9312L19.4991 32.2891" stroke="black" stroke-width="0.75" stroke-linecap="round" stroke-linejoin="round"/>
<path d="M29.7778 38.3137C29.6824 38.3023 29.5892 38.2777 29.5006 38.2407C26.7039 37.1024 21.8034 33.9332 19.5029 32.2864L24.173 31.6719" stroke="black" stroke-width="0.75" stroke-linecap="round" stroke-linejoin="round"/>
<path d="M25.5122 27.6036C25.162 27.5452 24.7825 27.443 24.3447 27.3555" stroke="black" stroke-width="0.75" stroke-linecap="round" stroke-linejoin="round"/>
<path d="M27.7041 25.4609L29.5721 25.6069C31.3526 25.6653 33.0739 25.5631 33.6584 25.5777C33.9065 25.5838 34.127 25.9564 32.7551 26.3504L31.987 26.5678" stroke="black" stroke-width="0.75" stroke-linecap="round" stroke-linejoin="round"/>
<path d="M17.3978 22.0156C16.8279 23.7419 16.6724 25.578 16.9437 27.3755C17.215 29.173 17.9054 30.8815 18.9593 32.3627" stroke="black" stroke-width="0.75" stroke-linecap="round" stroke-linejoin="round"/>
<path d="M31.5985 33.9084C31.5985 33.9084 32.299 33.6457 32.7806 33.4414L31.5078 35.397" stroke="black" stroke-width="0.75" stroke-linecap="round" stroke-linejoin="round"/>
<path d="M29.4971 38.2415L34.6487 48.3843L38.3264 38.0664" stroke="black" stroke-width="0.75" stroke-linecap="round" stroke-linejoin="round"/>
<path d="M38.3267 38.0664C39.6804 38.5562 41.105 38.8224 42.5443 38.8545C45.288 38.9881 67.9386 40.3285 67.9386 40.3285C68.6552 44.8703 68.1982 47.0724 67.1797 49.7124L43.8293 48.0633L45.172 55.1567" stroke="black" stroke-width="0.75" stroke-linecap="round" stroke-linejoin="round"/>
<path d="M37.2466 58.5011L34.6489 48.3867" stroke="black" stroke-width="0.75" stroke-linecap="round" stroke-linejoin="round"/>
<path d="M70.0834 92.0654C70.6449 93.2068 70.8553 94.4895 70.6879 95.7507C70.5204 97.0112 69.9828 98.1948 69.1425 99.1503C68.3029 100.106 67.1984 100.791 65.9694 101.118C64.7405 101.446 63.4416 101.402 62.2372 100.992C61.0328 100.582 59.9775 99.824 59.204 98.8139C58.4313 97.8039 57.9742 96.5872 57.8928 95.3175C57.8106 94.0478 58.1071 92.7828 58.7446 91.6821C59.3822 90.5806 60.3315 89.6935 61.4729 89.132C63.0038 88.38 64.7704 88.2663 66.385 88.8163C67.9995 89.3663 69.3299 90.5353 70.0834 92.0654Z" stroke="black" stroke-width="0.75" stroke-linecap="round" stroke-linejoin="round"/>
</svg>
