<svg width="320" height="284" viewBox="0 0 320 284" fill="none" xmlns="http://www.w3.org/2000/svg">
<path d="M134.688 250.133L78.1719 262.512V283.162H240.141L134.688 267.197V250.133Z" fill="#FDDE92"/>
<path d="M120.354 109.039C125.22 107.966 130.309 108.684 134.688 111.062V28.7934L240.141 1H78.1719V118.279L120.354 109.039Z" fill="#FDDE92"/>
<path d="M78.1719 118.279V1.00167L240.141 1V283.162H78.1719V270.532" stroke="black" stroke-width="1.1" stroke-linecap="round" stroke-linejoin="round"/>
<path d="M134.688 111.062V28.7934L240.14 1V283.162L134.688 267.197V258.154" stroke="black" stroke-width="1.1" stroke-linecap="round" stroke-linejoin="round"/>
<path d="M150.501 246.669L53.4514 267.926C50.7869 268.511 48.0333 268.564 45.3482 268.084C42.6631 267.603 40.0988 266.598 37.802 265.126C35.5052 263.655 33.5207 261.745 31.962 259.506C30.4033 257.268 29.3008 254.744 28.7175 252.08L7.46158 155.031C6.38291 150.142 7.11313 145.029 9.51688 140.637C8.01614 143.164 6.425 145.633 4.74349 148.045C3.10052 150.389 1.96239 153.051 1.40117 155.859C0.839942 158.667 0.867859 161.561 1.48313 164.358L22.7391 261.416C23.9182 266.797 27.1866 271.49 31.8254 274.461C36.4641 277.433 42.0932 278.441 47.4747 277.262L144.522 256.006C147.321 255.397 149.962 254.212 152.278 252.528C154.595 250.845 156.537 248.699 157.981 246.225C159.467 243.691 161.045 241.213 162.717 238.791C159.732 242.808 155.392 245.606 150.501 246.669Z" fill="#CFD181"/>
<path d="M150.501 246.669L53.4514 267.926C50.7869 268.511 48.0333 268.564 45.3482 268.084C42.6631 267.603 40.0988 266.598 37.802 265.126C35.5052 263.655 33.5207 261.745 31.962 259.506C30.4033 257.268 29.3008 254.744 28.7175 252.08L7.46158 155.031C6.38291 150.142 7.11313 145.029 9.51688 140.637C8.01614 143.164 6.425 145.633 4.74349 148.045C3.10052 150.389 1.96239 153.051 1.40117 155.859C0.839942 158.667 0.867859 161.561 1.48313 164.358L22.7391 261.416C23.9182 266.797 27.1866 271.49 31.8254 274.461C36.4641 277.433 42.0932 278.441 47.4747 277.262L144.522 256.006C147.321 255.397 149.962 254.212 152.278 252.528C154.595 250.845 156.537 248.699 157.981 246.225C159.467 243.691 161.045 241.213 162.717 238.791C159.732 242.808 155.392 245.606 150.501 246.669Z" stroke="black" stroke-width="1.1" stroke-linecap="round" stroke-linejoin="round"/>
<path d="M147.888 137.676L145.088 124.885C143.908 119.504 140.64 114.812 136.001 111.84C131.363 108.868 125.733 107.861 120.352 109.039L23.3026 130.295C17.9215 131.474 13.2291 134.742 10.2576 139.38C7.28615 144.019 6.27898 149.648 7.45772 155.029L28.7137 252.078C29.2968 254.743 30.3991 257.267 31.958 259.506C33.5167 261.745 35.5014 263.655 37.7983 265.126C40.0953 266.597 42.6598 267.603 45.3452 268.084C48.0307 268.564 50.7844 268.511 53.4493 267.926L150.499 246.67C153.163 246.086 155.687 244.985 157.925 243.425C160.164 241.867 162.072 239.882 163.543 237.586C165.016 235.289 166.02 232.725 166.501 230.039C166.981 227.354 166.928 224.601 166.344 221.937L158.256 185.008" stroke="black" stroke-width="1.1" stroke-linecap="round" stroke-linejoin="round"/>
<path d="M113.842 220.132L88.3098 174.942C90.728 173.386 92.5225 171.031 93.3796 168.286C94.2369 165.541 94.1021 162.582 92.999 159.928C91.896 157.272 89.8948 155.089 87.3452 153.758C84.7955 152.43 81.8599 152.038 79.0511 152.654C76.2423 153.27 73.7391 154.851 71.9792 157.126C70.2191 159.4 69.3143 162.221 69.4228 165.093C69.5312 167.966 70.6461 170.71 72.5725 172.845C74.4988 174.979 77.1143 176.37 79.9614 176.772L75.66 228.504L113.842 220.132Z" fill="#CFD181"/>
<path d="M113.842 220.132L88.3098 174.942C90.728 173.386 92.5225 171.031 93.3796 168.286C94.2369 165.541 94.1021 162.582 92.999 159.928C91.896 157.272 89.8948 155.089 87.3452 153.758C84.7955 152.43 81.8599 152.038 79.0511 152.654C76.2423 153.27 73.7391 154.851 71.9792 157.126C70.2191 159.4 69.3143 162.221 69.4228 165.093C69.5312 167.966 70.6461 170.71 72.5725 172.845C74.4988 174.979 77.1143 176.37 79.9614 176.772L75.66 228.504L113.842 220.132Z" stroke="black" stroke-width="1.1" stroke-linecap="round" stroke-linejoin="round"/>
<path d="M158.049 155.136L232.291 114.865L222.662 97.1169L109.609 158.44C108.443 159.072 107.413 159.927 106.579 160.958C105.744 161.988 105.12 163.173 104.743 164.445C103.982 167.012 104.271 169.777 105.548 172.13C106.825 174.484 108.985 176.234 111.553 176.996C112.824 177.372 114.157 177.496 115.476 177.357C116.795 177.22 118.074 176.823 119.239 176.191L124.111 173.548L132.371 188.779C132.761 189.498 133.29 190.134 133.926 190.65C134.563 191.165 135.294 191.552 136.08 191.785C136.865 192.017 137.688 192.093 138.503 192.007C139.317 191.922 140.107 191.678 140.827 191.288C141.547 190.896 142.183 190.367 142.699 189.731C143.214 189.095 143.6 188.364 143.833 187.579C144.066 186.792 144.142 185.969 144.056 185.155C143.971 184.34 143.726 183.55 143.335 182.83L135.076 167.6L145.692 161.841L158.553 185.548C158.975 186.389 159.563 187.137 160.28 187.746C160.998 188.355 161.83 188.816 162.727 189.097C163.626 189.38 164.571 189.478 165.508 189.388C166.444 189.298 167.355 189.02 168.181 188.571C169.01 188.123 169.738 187.512 170.325 186.777C170.913 186.041 171.346 185.195 171.601 184.29C171.855 183.383 171.925 182.435 171.805 181.501C171.686 180.568 171.381 179.667 170.908 178.854L158.049 155.136Z" stroke="black" stroke-width="1.1" stroke-linecap="round" stroke-linejoin="round"/>
<path d="M285.767 87.0349L274.341 65.9697C270.528 58.9435 264.083 53.7194 256.419 51.4467C248.755 49.1738 240.502 50.0385 233.476 53.8505C226.45 57.6623 221.226 64.1092 218.953 71.7729C216.68 79.4366 217.544 87.6893 221.357 94.7155L232.783 115.781C236.594 122.807 243.041 128.031 250.703 130.304C258.367 132.578 266.619 131.714 273.645 127.902C280.671 124.091 285.896 117.645 288.169 109.982C290.442 102.318 289.578 94.0661 285.767 87.0399V87.0349ZM259.792 102.358C258.68 102.96 257.375 103.097 256.161 102.737C254.95 102.377 253.929 101.551 253.326 100.44L245.414 85.8533C245.117 85.3028 244.929 84.6989 244.864 84.076C244.799 83.4532 244.855 82.8235 245.035 82.2232C245.212 81.6228 245.507 81.0635 245.902 80.5769C246.297 80.0904 246.782 79.6864 247.333 79.3878C247.883 79.0892 248.487 78.9019 249.11 78.8366C249.733 78.7715 250.362 78.8296 250.963 79.0077C251.564 79.1857 252.123 79.4805 252.608 79.8748C253.095 80.269 253.5 80.7553 253.798 81.3058L261.71 95.8871C262.009 96.4377 262.197 97.0421 262.262 97.6654C262.327 98.2887 262.27 98.9188 262.091 99.5198C261.914 100.121 261.619 100.681 261.224 101.168C260.829 101.654 260.342 102.059 259.792 102.358Z" fill="#CFD181"/>
<path d="M285.767 87.0349L274.341 65.9697C270.528 58.9435 264.083 53.7194 256.419 51.4467C248.755 49.1738 240.502 50.0385 233.476 53.8505C226.45 57.6623 221.226 64.1092 218.953 71.7729C216.68 79.4366 217.544 87.6893 221.357 94.7155L232.783 115.781C236.594 122.807 243.041 128.031 250.703 130.304C258.367 132.578 266.619 131.714 273.645 127.902C280.671 124.091 285.896 117.645 288.169 109.982C290.442 102.318 289.578 94.0661 285.767 87.0399V87.0349ZM259.792 102.358C258.68 102.96 257.375 103.097 256.161 102.737C254.95 102.377 253.929 101.551 253.326 100.44L245.414 85.8533C245.117 85.3028 244.929 84.6989 244.864 84.076C244.799 83.4532 244.855 82.8235 245.035 82.2232C245.212 81.6228 245.507 81.0635 245.902 80.5769C246.297 80.0904 246.782 79.6864 247.333 79.3878C247.883 79.0892 248.487 78.9019 249.11 78.8366C249.733 78.7715 250.362 78.8296 250.963 79.0077C251.564 79.1857 252.123 79.4805 252.608 79.8748C253.095 80.269 253.5 80.7553 253.798 81.3058L261.71 95.8871C262.009 96.4377 262.197 97.0421 262.262 97.6654C262.327 98.2887 262.27 98.9188 262.091 99.5198C261.914 100.121 261.619 100.681 261.224 101.168C260.829 101.654 260.342 102.059 259.792 102.358Z" stroke="black" stroke-width="1.1" stroke-linecap="round" stroke-linejoin="round"/>
<path d="M14.2207 36.7766H33.7879" stroke="black" stroke-width="1.1" stroke-linecap="round" stroke-linejoin="round"/>
<path d="M24.0039 46.5594V26.9939" stroke="black" stroke-width="1.1" stroke-linecap="round" stroke-linejoin="round"/>
<path d="M271.898 254.577L285.733 268.411" stroke="black" stroke-width="1.1" stroke-linecap="round" stroke-linejoin="round"/>
<path d="M271.898 268.411L285.733 254.577" stroke="black" stroke-width="1.1" stroke-linecap="round" stroke-linejoin="round"/>
<path d="M311.945 171.273L319.002 178.33" stroke="black" stroke-width="1.1" stroke-linecap="round" stroke-linejoin="round"/>
<path d="M311.945 178.33L319.002 171.273" stroke="black" stroke-width="1.1" stroke-linecap="round" stroke-linejoin="round"/>
<path d="M265.654 34.2528L271.705 44.2297L278.818 29.3237" stroke="black" stroke-width="1.1" stroke-linecap="round" stroke-linejoin="round"/>
<path d="M86.291 80.4705H96.9642" stroke="black" stroke-width="1.1" stroke-linecap="round" stroke-linejoin="round"/>
<path d="M91.6289 85.806V75.1345" stroke="black" stroke-width="1.1" stroke-linecap="round" stroke-linejoin="round"/>
</svg>
