<svg width="95" height="91" viewBox="0 0 95 91" fill="none" xmlns="http://www.w3.org/2000/svg">
<path d="M21.7106 53.4675C21.5572 53.137 21.3401 52.84 21.0715 52.5935C20.803 52.347 20.4885 52.156 20.146 52.032C19.8035 51.9075 19.4397 51.8515 19.0757 51.868C18.7116 51.8845 18.3544 51.973 18.0246 52.128L13.7871 54.104L16.3711 59.654C17.0433 59.952 17.7355 60.2025 18.4426 60.404C16.4566 57.2215 17.1786 56.6705 19.2691 58.9505C21.2806 61.1455 23.7626 61.331 25.4346 61.4875L21.7106 53.4675Z" fill="#FDC886"/>
<path d="M21.1788 66.882C20.6368 66.723 20.0623 66.549 19.4883 66.369L21.5593 70.815C21.2115 69.535 21.0829 68.205 21.1788 66.882Z" fill="#FDC886"/>
<path d="M22.6428 71.87C22.3593 71.9905 22.0633 71.766 21.8828 71.4895L22.7093 73.257L26.8228 71.3375C25.6448 71.5 23.3363 71.784 22.6428 71.87Z" fill="#FDC886"/>
<path d="M15.792 65.05C14.975 64.727 14.139 64.3945 13.3505 64.005C12.2865 63.4825 12.3505 62.941 13.3885 63.188C13.7685 63.2735 14.215 63.3305 14.9465 63.425C14.1096 63.1145 13.2941 62.7495 12.505 62.3325C11.4315 61.725 11.6405 61.0215 12.6665 61.3925C12.942 61.497 13.5785 61.696 14.3195 61.886L14.2055 61.6485C13.6194 61.3155 13.0519 60.951 12.5055 60.5565C11.5175 59.796 11.8025 59.131 12.7715 59.644C12.914 59.72 13.1325 59.815 13.3985 59.929L11.2325 55.274L7.00448 57.25C6.67388 57.4035 6.37688 57.6205 6.13048 57.889C5.88413 58.1575 5.69318 58.472 5.56873 58.8145C5.44428 59.157 5.38868 59.521 5.40518 59.885C5.42173 60.249 5.50998 60.606 5.66498 60.936L12.239 75.073C12.3924 75.4035 12.6096 75.7005 12.8781 75.947C13.1466 76.193 13.4612 76.384 13.8037 76.5085C14.1462 76.633 14.5099 76.6885 14.8739 76.672C15.2379 76.6555 15.5951 76.5675 15.925 76.4125L20.1625 74.436L15.792 65.05Z" fill="#FDC886"/>
<path d="M48.9202 48.641C48.1792 48.9835 48.0082 50.332 48.3202 52.204C49.8222 52.083 51.3087 51.8125 52.7572 51.3965C51.2857 49.4205 49.7847 48.242 48.9202 48.641Z" fill="#CFD181"/>
<path d="M56.4914 58.835C55.1329 59.912 53.5369 60.649 51.8359 60.985C53.6224 63.8445 55.5224 65.5735 56.5769 65.0795C57.6314 64.5925 57.5364 62.037 56.4914 58.835Z" fill="#CFD181"/>
<path d="M91.9755 8.654C89.629 10.6775 85.3725 17.4325 84.584 19.874C84.7265 21.052 84.8405 21.888 84.9165 22.6005C86.666 22.8343 88.441 22.799 90.18 22.496L90.161 21.717C92.194 15.0765 92.27 12.226 91.9755 8.654Z" fill="#CFD181"/>
<path d="M63.7777 0.530998C62.0867 3.5615 60.3197 10.516 60.1777 13.6705C60.6812 14.4775 61.1657 15.2755 61.6312 16.0645C62.9727 14.8708 64.4962 13.8989 66.1442 13.1855C66.1737 11.418 66.4092 8.2605 63.7777 0.530998Z" fill="#CFD181"/>
<path d="M21.1782 66.882C21.0452 69.6275 21.5872 71.832 22.4327 71.898C23.2327 71.965 24.0382 70.1405 24.3612 67.6705C23.2793 67.501 22.2143 67.237 21.1782 66.882Z" fill="#CFD181"/>
<path d="M90.2852 26.3725L90.3137 27.7595C91.9762 27.35 91.9382 26.7525 90.2852 26.3725Z" fill="#CFD181"/>
<path d="M61.6217 22.0115C61.8342 22.38 63.0657 22.0875 64.6427 21.3655C64.3672 20.824 64.0633 20.2655 63.7498 19.684C62.2963 20.7 61.4067 21.639 61.6217 22.0115Z" fill="#CFD181"/>
<path d="M70.0767 17.1285C69.9342 16.8815 69.3357 16.9285 68.4902 17.2045L69.2217 18.4585C69.8867 17.86 70.2192 17.3755 70.0767 17.1285Z" fill="#CFD181"/>
<path d="M45.6892 57.543C45.4397 58.338 45.1086 59.1055 44.7012 59.8325L45.7177 60.3175L45.6892 57.543Z" fill="#CFD181"/>
<path d="M40.0842 49.6105L39.6282 51.0545L39.3242 50.0095L40.0842 49.6105Z" fill="#CFD181"/>
<path d="M81.7344 27.066C81.7344 27.522 83.1024 27.902 85.0024 28.0445C85.0309 27.275 85.0404 26.6385 85.0499 26.0875C83.1214 26.2205 81.7344 26.61 81.7344 27.066Z" fill="#CFD181"/>
<path d="M48.9107 39.692C49.0797 39.5819 49.2237 39.4367 49.3317 39.2662C49.4397 39.0957 49.5102 38.904 49.5377 38.704C49.5662 38.4912 49.5467 38.2747 49.4797 38.0707C49.4127 37.8667 49.3007 37.6805 49.1512 37.526C49.0022 37.3716 48.8202 37.2529 48.6187 37.1788C48.4172 37.1048 48.2012 37.0773 47.9877 37.0985C48.1167 36.9219 48.1982 36.7154 48.2252 36.4985C48.2752 36.1271 48.1762 35.7511 47.9505 35.4522C47.7245 35.1533 47.3896 34.9557 47.0187 34.9025C46.7392 34.8635 46.4544 34.9098 46.2017 35.0355C46.2199 34.9766 46.2326 34.9162 46.2397 34.855C46.2817 34.5481 46.222 34.236 46.0698 33.9663C45.9176 33.6965 45.6813 33.484 45.3969 33.3613C45.1126 33.2385 44.7959 33.2122 44.4952 33.2863C44.1945 33.3605 43.9263 33.5311 43.7317 33.772C43.7338 33.4301 43.6116 33.0991 43.388 32.8404C43.1643 32.5818 42.8544 32.4132 42.5157 32.366L42.4207 32.347C42.0911 32.3013 41.7559 32.3734 41.4742 32.5507C41.1926 32.728 40.9826 32.999 40.8812 33.316C40.7703 33.0216 40.5644 32.7726 40.2961 32.6082C40.0279 32.4439 39.7125 32.3736 39.3998 32.4085C39.0872 32.4433 38.795 32.5814 38.5696 32.8007C38.3441 33.0201 38.1981 33.3084 38.1547 33.62C38.1468 33.6607 38.1437 33.7021 38.1452 33.7435C37.9292 33.5349 37.6536 33.3988 37.3567 33.354C37.1726 33.3278 36.9852 33.3382 36.8051 33.3848C36.6251 33.4313 36.456 33.513 36.3077 33.6251C36.1593 33.7373 36.0346 33.8776 35.9408 34.0382C35.8469 34.1987 35.7857 34.3762 35.7607 34.5605C35.7361 34.7583 35.7527 34.959 35.8097 35.15C35.6899 35.0922 35.5616 35.0537 35.4297 35.036C35.1499 34.9972 34.8648 35.0431 34.6113 35.1679C34.3578 35.2927 34.1475 35.4906 34.0076 35.7361C33.8677 35.9815 33.8045 36.2633 33.8263 36.545C33.848 36.8267 33.9537 37.0954 34.1297 37.3165C33.7968 37.2761 33.4604 37.3554 33.1805 37.5401C32.9006 37.7248 32.6955 38.003 32.6018 38.325C32.5081 38.647 32.5318 38.9918 32.6688 39.2979C32.8058 39.604 33.0472 39.8514 33.3497 39.996C33.017 40.0404 32.711 40.2016 32.4861 40.4507C32.2612 40.6998 32.1321 41.0207 32.1218 41.3562C32.1115 41.6917 32.2207 42.0199 32.43 42.2823C32.6392 42.5447 32.9349 42.7243 33.2642 42.789C33.025 42.9474 32.8398 43.175 32.7333 43.4415C32.6267 43.708 32.6039 44.0005 32.6679 44.28C32.7319 44.56 32.8796 44.8135 33.0914 45.007C33.3032 45.2005 33.5689 45.325 33.8532 45.3635C33.9697 45.373 34.0868 45.373 34.2032 45.3635C34.0843 45.5445 34.0065 45.7495 33.9752 45.9635C33.9253 46.335 34.024 46.711 34.25 47.01C34.476 47.3085 34.8108 47.5065 35.1817 47.5595C35.4644 47.6035 35.7536 47.557 36.0082 47.4265C35.9384 47.688 35.9451 47.964 36.0276 48.222C36.1101 48.4795 36.265 48.708 36.4737 48.8805C36.2949 47.9745 36.2885 47.043 36.4547 46.1345C37.1102 41.3845 39.5897 43.845 40.0742 45.5645C40.1882 45.8685 40.3877 45.878 40.7392 45.3555C41.4712 44.2725 42.8107 45.7165 41.2432 47.2175C41.0817 47.379 41.0052 48.481 41.6432 49.678C41.8497 49.865 42.1082 49.984 42.3842 50.02C42.5784 50.0465 42.7759 50.032 42.9642 49.9785C43.1526 49.9245 43.3278 49.832 43.4786 49.707C43.6295 49.582 43.7528 49.427 43.8408 49.252C43.9288 49.077 43.9795 48.8855 43.9897 48.69C44.1753 48.876 44.4093 49.0065 44.6651 49.0665C44.921 49.1265 45.1886 49.114 45.4376 49.03C45.6866 48.946 45.9072 48.794 46.0744 48.5915C46.2416 48.3885 46.3487 48.143 46.3837 47.8825C46.4096 47.6885 46.3967 47.4915 46.3457 47.303C46.5461 47.394 46.7649 47.437 46.9848 47.4285C47.2047 47.42 47.4196 47.3605 47.6124 47.2545C47.8052 47.1485 47.9705 46.999 48.0952 46.8175C48.2202 46.6365 48.3007 46.4285 48.3312 46.2105C48.3587 46.023 48.3472 45.832 48.2982 45.649C48.2492 45.466 48.1637 45.295 48.0462 45.1465C48.3797 45.1885 48.7167 45.111 48.9982 44.927C49.2792 44.743 49.4857 44.465 49.5807 44.1425C49.6752 43.8205 49.6522 43.4745 49.5157 43.168C49.3792 42.8609 49.1377 42.6126 48.8347 42.4675C49.1427 42.428 49.4292 42.2887 49.6507 42.0708C49.8722 41.8529 50.0157 41.5684 50.0602 41.261C50.1092 40.9015 50.0167 40.537 49.8022 40.2443C49.5882 39.9516 49.2682 39.7536 48.9107 39.692Z" fill="#1F2223"/>
<path d="M91.9185 35.3595C93.343 38.5593 94.1185 42.0099 94.2005 45.5115C94.2825 49.013 93.6695 52.4965 92.396 55.7595C91.123 59.022 89.215 62.0005 86.7835 64.521C84.3515 67.0415 81.4435 69.055 78.2285 70.4445" stroke="#1F2223" stroke-width="0.48" stroke-linecap="round" stroke-linejoin="round"/>
<path d="M71.7598 19.988C76.6883 20.7385 81.3028 22.8698 85.0698 26.135" stroke="#1F2223" stroke-width="0.48" stroke-linecap="round" stroke-linejoin="round"/>
<path d="M55.9414 22.458C58.2404 21.3083 60.6949 20.5018 63.2279 20.0645" stroke="#1F2223" stroke-width="0.48" stroke-linecap="round" stroke-linejoin="round"/>
<path d="M40.1895 67.186L50.754 90.5" stroke="#1F2223" stroke-width="0.48" stroke-linecap="round" stroke-linejoin="round"/>
<path d="M34.5262 54.6835L19.6202 21.812C18.8127 20.062 19.9527 18.5155 21.8622 18.762L47.7412 22.144C49.2457 22.3409 50.6757 22.9144 51.8992 23.8112C53.1232 24.7081 54.1007 25.8993 54.7412 27.2745L84.0212 90.4805" stroke="#1F2223" stroke-width="0.48" stroke-linecap="round" stroke-linejoin="round"/>
<path d="M39.7782 51.6545C36.4822 53.8785 32.8963 55.6395 29.1212 56.8875C27.2697 57.1535 25.4048 57.315 23.5352 57.372" stroke="#1F2223" stroke-width="0.48" stroke-linecap="round" stroke-linejoin="round"/>
<path d="M25.425 61.4765L21.699 53.458C21.3875 52.792 20.8243 52.2765 20.1332 52.0255C19.4421 51.7745 18.6795 51.808 18.013 52.1185L7.00404 57.258C6.33784 57.5695 5.82254 58.1325 5.57129 58.8235C5.32004 59.515 5.35339 60.2775 5.66404 60.944L12.2385 75.081C12.5501 75.747 13.1132 76.2625 13.8044 76.5135C14.4955 76.7645 15.258 76.731 15.9245 76.4205L26.8215 71.3375" stroke="#1F2223" stroke-width="0.48" stroke-linecap="round" stroke-linejoin="round"/>
<path d="M12.4575 54.7025C12.4575 54.7025 5.05449 54.0215 2.01649 51.862C-1.02151 49.7025 1.50149 44.462 5.40799 47.2445C9.37699 50.0695 12.4575 54.7025 12.4575 54.7025Z" stroke="#1F2223" stroke-width="0.48" stroke-linecap="round" stroke-linejoin="round"/>
<path d="M12.4495 54.7025C12.4495 54.7025 17.0525 48.87 17.5795 45.1735C18.1065 41.477 12.57 39.712 11.8995 44.45C11.2115 49.279 12.4495 54.7025 12.4495 54.7025Z" stroke="#1F2223" stroke-width="0.48" stroke-linecap="round" stroke-linejoin="round"/>
<path d="M39.6139 51.1035L40.0849 49.6035C40.0849 49.6035 35.6494 52.615 36.4654 46.1355C37.0509 41.4855 39.4849 43.7355 40.0484 45.446C40.1804 45.846 40.3414 45.9725 40.7484 45.366C41.4794 44.2825 42.8274 45.7355 41.2519 47.228C40.9494 47.515 41.0649 49.6475 42.8769 51.1995C44.0269 52.1855 47.5889 52.8715 52.7474 51.3995" stroke="#1F2223" stroke-width="0.48" stroke-linecap="round" stroke-linejoin="round"/>
<path d="M39.3242 50.0095C39.6209 51.2895 40.0442 52.537 40.5877 53.7335" stroke="#1F2223" stroke-width="0.48" stroke-linecap="round" stroke-linejoin="round"/>
<path d="M42.138 50.418C40.988 54.0945 37.606 58.1795 34.9555 61.505C31.0906 61.8365 27.2011 61.747 23.3555 61.2385" stroke="#1F2223" stroke-width="0.48" stroke-linecap="round" stroke-linejoin="round"/>
<path d="M56.492 58.835C54.844 60.143 52.847 60.936 50.7505 61.114C48.654 61.292 46.5517 60.847 44.707 59.835C43.3724 62.337 41.8891 64.7565 40.265 67.081C39.7284 67.89 38.9302 68.49 38.004 68.781C32.9922 70.32 27.8399 71.3575 22.623 71.878" stroke="#1F2223" stroke-width="0.48" stroke-linecap="round" stroke-linejoin="round"/>
<path d="M51.8367 60.9825C53.6232 63.842 55.5212 65.567 56.5777 65.077C59.8462 63.5605 52.2407 47.109 48.9202 48.641C48.1792 48.9835 48.0082 50.332 48.3202 52.204" stroke="#1F2223" stroke-width="0.48" stroke-linecap="round" stroke-linejoin="round"/>
<path d="M81.7348 27.066C81.8298 29.992 82.1908 40.566 82.1908 41.6585C80.5188 41.915 67.3228 45.088 66.5723 45.221" stroke="#1F2223" stroke-width="0.48" stroke-linecap="round" stroke-linejoin="round"/>
<path d="M71.9492 56.783C91.9857 49.733 91.5467 50.066 91.9492 44.5655C92.2047 41.06 91.7877 31.0085 91.5407 27.0565" stroke="#1F2223" stroke-width="0.48" stroke-linecap="round" stroke-linejoin="round"/>
<path d="M61.6211 22.0115C63.0651 24.5575 68.8211 34.077 69.3356 35.0365C68.7856 35.445 66.2671 38.172 64.1856 40.129" stroke="#1F2223" stroke-width="0.48" stroke-linecap="round" stroke-linejoin="round"/>
<path d="M76.7653 42.846C80.6888 36.775 79.9273 35.2655 78.7153 32.7375C77.1453 29.4705 71.9698 20.216 70.0508 17.1" stroke="#1F2223" stroke-width="0.48" stroke-linecap="round" stroke-linejoin="round"/>
<path d="M63.7777 0.530998C62.0867 3.5615 60.3197 10.516 60.1777 13.6705C60.6812 14.4775 61.1657 15.2755 61.6312 16.0645C62.9777 14.8773 64.5002 13.9061 66.1442 13.1855C66.1522 12.3075 66.4092 8.2605 63.7777 0.530998Z" stroke="#1F2223" stroke-width="0.48" stroke-linecap="round" stroke-linejoin="round"/>
<path d="M19.5605 19.8025C20.0757 18.5976 20.9692 17.5933 22.1058 16.9412C23.2424 16.2891 24.5603 16.0247 25.8605 16.188L51.236 19.456C52.3355 19.597 53.381 20.0144 54.275 20.6691C55.1695 21.3238 55.883 22.1946 56.3495 23.2L87.5201 90.482" stroke="#1F2223" stroke-width="0.48" stroke-linecap="round" stroke-linejoin="round"/>
<path d="M24.7999 22.781C25.1499 23.541 25.0279 24.3485 24.5244 24.586C24.0209 24.8235 23.3179 24.396 22.9664 23.636C22.6149 22.876 22.7364 22.0645 23.2419 21.831C23.7474 21.5975 24.4499 22.021 24.7999 22.781Z" stroke="#1F2223" stroke-width="0.48" stroke-linecap="round" stroke-linejoin="round"/>
<path d="M81.8672 30.8755C85.0757 31.929 88.3597 31.8255 91.7387 30.8755" stroke="#1F2223" stroke-width="0.48" stroke-linecap="round" stroke-linejoin="round"/>
<path d="M63.5664 25.326C66.8629 24.6973 69.8309 22.9228 71.9449 20.3165" stroke="#1F2223" stroke-width="0.48" stroke-linecap="round" stroke-linejoin="round"/>
<path d="M19.4021 60.65C17.579 60.223 15.8326 59.5185 14.2241 58.56C13.2551 58.028 12.8916 58.563 13.8346 59.396C14.7078 60.1365 15.6567 60.7835 16.6656 61.325" stroke="#1F2223" stroke-width="0.48" stroke-linecap="round" stroke-linejoin="round"/>
<path d="M15.7992 60.83C14.7714 60.5015 13.7656 60.108 12.7877 59.652C11.8107 59.1365 11.5252 59.802 12.5217 60.564C13.7309 61.388 15.0013 62.119 16.3217 62.7495" stroke="#1F2223" stroke-width="0.48" stroke-linecap="round" stroke-linejoin="round"/>
<path d="M14.8809 62.0275C14.1355 61.8545 13.3998 61.642 12.6769 61.391C11.6554 61.008 11.4429 61.721 12.5154 62.3315C13.6499 62.921 14.8321 63.4135 16.0494 63.804" stroke="#1F2223" stroke-width="0.48" stroke-linecap="round" stroke-linejoin="round"/>
<path d="M24.362 67.6705C24.096 67.756 19.431 66.474 16.6855 65.4095C15.5855 64.982 14.4355 64.5525 13.3605 64.0225C12.2785 63.4885 12.3425 62.9545 13.389 63.196C13.7685 63.2835 14.2155 63.3385 14.947 63.4335" stroke="#1F2223" stroke-width="0.48" stroke-linecap="round" stroke-linejoin="round"/>
<path d="M21.1788 66.882C21.0458 69.6275 21.5878 71.8295 22.4333 71.898C24.5488 72.0695 25.3833 61.5855 23.2788 61.22C21.746 60.878 20.3482 60.091 19.2603 58.9585C17.1768 56.681 16.5238 57.1725 18.5003 60.355" stroke="#1F2223" stroke-width="0.48" stroke-linecap="round" stroke-linejoin="round"/>
<path d="M68.4907 17.2045C69.3362 16.929 69.9328 16.8825 70.0773 17.1285C70.4773 17.8105 67.5737 19.7285 66.8927 20.146C65.9927 20.696 62.1077 22.854 61.6217 22.0115C61.4067 21.639 62.2963 20.7005 63.7498 19.684" stroke="#1F2223" stroke-width="0.48" stroke-linecap="round" stroke-linejoin="round"/>
<path d="M66.1441 13.1855C64.5011 13.8983 62.9811 14.8668 61.6406 16.055C62.6951 17.841 63.7971 19.705 64.6431 21.355C66.2931 20.5989 67.8331 19.6234 69.2221 18.455L66.1441 13.1855Z" stroke="#1F2223" stroke-width="0.48" stroke-linecap="round" stroke-linejoin="round"/>
<path d="M91.9755 8.65399C89.629 10.6775 85.3725 17.4325 84.584 19.874C84.7265 21.052 84.8405 21.888 84.9165 22.6005C86.666 22.8343 88.441 22.799 90.18 22.496L90.161 21.717C92.194 15.0765 92.27 12.226 91.9755 8.65399Z" stroke="#1F2223" stroke-width="0.48" stroke-linecap="round" stroke-linejoin="round"/>
<path d="M90.1815 22.496C88.4425 22.799 86.6675 22.8343 84.918 22.6005C85.094 24.4098 85.1225 26.2305 85.0035 28.0445C86.779 28.1929 88.5665 28.0938 90.3145 27.75C90.183 22.4445 90.2075 23.394 90.1815 22.496Z" stroke="#1F2223" stroke-width="0.48" stroke-linecap="round" stroke-linejoin="round"/>
<path d="M50.0602 41.2595C50.0162 41.5671 49.8727 41.8517 49.6512 42.0697C49.4297 42.2876 49.1427 42.4269 48.8347 42.466C49.1377 42.6112 49.3792 42.8594 49.5157 43.1665C49.6522 43.473 49.6752 43.819 49.5807 44.141C49.4857 44.4635 49.2792 44.7415 48.9982 44.9255C48.7167 45.109 48.3797 45.187 48.0462 45.145C48.1632 45.294 48.2487 45.465 48.2977 45.648C48.3467 45.8305 48.3582 46.0215 48.3312 46.209C48.3057 46.393 48.2442 46.57 48.1502 46.7305C48.0562 46.8905 47.9314 47.031 47.7831 47.143C47.6349 47.255 47.4661 47.3365 47.2863 47.3835C47.1065 47.43 46.9192 47.441 46.7352 47.4155C46.6005 47.3965 46.4693 47.3585 46.3457 47.3015C46.3962 47.4905 46.4091 47.687 46.3837 47.881C46.3487 48.1415 46.2416 48.387 46.0744 48.59C45.9072 48.7925 45.6866 48.9445 45.4376 49.0285C45.1886 49.1125 44.921 49.125 44.6651 49.065C44.4093 49.005 44.1753 48.8745 43.9897 48.6885C43.9913 48.73 43.9881 48.7715 43.9802 48.812C43.927 49.183 43.7294 49.518 43.4305 49.7435C43.1316 49.9695 42.7556 50.0685 42.3842 50.0185C42.1083 49.982 41.8499 49.863 41.6432 49.6765C41.0067 48.4795 41.0807 47.3765 41.2432 47.216C42.7932 45.698 41.4702 44.2705 40.7392 45.354C40.4362 45.804 40.2032 45.9605 40.0447 45.465C39.4972 43.7535 37.1037 41.4735 36.4547 46.133C36.2893 47.0415 36.2957 47.973 36.4737 48.879C36.2872 48.726 36.1431 48.5275 36.0549 48.303C35.9668 48.0785 35.9376 47.835 35.9702 47.596C35.9779 47.538 35.9906 47.481 36.0082 47.425C35.7531 47.5535 35.4643 47.6 35.1817 47.558C34.8117 47.503 34.478 47.305 34.2524 47.0065C34.0268 46.708 33.9273 46.333 33.9752 45.962C34.0067 45.748 34.0845 45.543 34.2032 45.362C34.0867 45.3715 33.9697 45.3715 33.8532 45.362C33.5689 45.3235 33.3032 45.199 33.0914 45.0055C32.8796 44.812 32.7319 44.558 32.6679 44.2785C32.6039 43.999 32.6267 43.7065 32.7332 43.44C32.8398 43.1735 33.025 42.946 33.2642 42.7875C32.9349 42.7228 32.6392 42.5433 32.43 42.2809C32.2207 42.0184 32.1115 41.6902 32.1218 41.3547C32.132 41.0193 32.2611 40.6983 32.486 40.4492C32.7109 40.2001 33.017 40.0389 33.3497 39.9945C33.0477 39.8497 32.8069 39.6023 32.6702 39.2965C32.5336 38.9908 32.5099 38.6464 32.6034 38.3247C32.6969 38.0031 32.9016 37.7251 33.1809 37.5403C33.4603 37.3555 33.7961 37.2758 34.1287 37.3155C33.9527 37.0945 33.847 36.8258 33.8253 36.544C33.8035 36.2623 33.8666 35.9806 34.0066 35.7351C34.1465 35.4896 34.3568 35.2917 34.6103 35.167C34.8638 35.0422 35.1488 34.9962 35.4287 35.035C35.5606 35.0527 35.6889 35.0912 35.8087 35.149C35.7523 34.9581 35.7361 34.7575 35.7612 34.56C35.7858 34.3756 35.8467 34.1978 35.9404 34.037C36.0341 33.8763 36.1588 33.7357 36.3073 33.6235C36.4557 33.5113 36.625 33.4296 36.8052 33.3833C36.9854 33.3369 37.173 33.3268 37.3572 33.3535C37.6545 33.3971 37.9304 33.5334 38.1457 33.743C38.1623 33.4185 38.29 33.1096 38.5075 32.8683C38.725 32.6269 39.019 32.4677 39.34 32.4176C39.661 32.3674 39.9895 32.4293 40.2703 32.5928C40.5511 32.7564 40.767 33.0115 40.8817 33.3155C41.3872 31.7535 43.7537 32.1815 43.7317 33.7715C43.9263 33.5306 44.1945 33.36 44.4952 33.2859C44.7959 33.2117 45.1126 33.238 45.3969 33.3608C45.6812 33.4836 45.9176 33.6961 46.0697 33.9658C46.2219 34.2355 46.2816 34.5477 46.2397 34.8545C46.2326 34.9157 46.2199 34.9761 46.2017 35.035C46.4542 34.9088 46.7392 34.8624 47.0187 34.902C47.3902 34.9551 47.7256 35.1529 47.9519 35.4522C48.1782 35.7515 48.2767 36.1282 48.2267 36.5C48.1992 36.7168 48.1177 36.9232 47.9892 37.1C48.1032 37.0898 48.2177 37.0928 48.3312 37.109C48.7012 37.1642 49.0347 37.3623 49.2607 37.6608C49.4862 37.9593 49.5857 38.3344 49.5377 38.7055C49.5102 38.9055 49.4397 39.0973 49.3317 39.2677C49.2237 39.4382 49.0797 39.5834 48.9107 39.6935C49.2682 39.7541 49.5882 39.9514 49.8027 40.2437C50.0172 40.536 50.1097 40.9003 50.0602 41.2595Z" stroke="#1F2223" stroke-width="0.48" stroke-linecap="round" stroke-linejoin="round"/>
<path d="M11.252 55.2725L13.418 59.9275" stroke="#1F2223" stroke-width="0.48" stroke-linecap="round" stroke-linejoin="round"/>
<path d="M15.8008 65.0485L20.1713 74.435" stroke="#1F2223" stroke-width="0.48" stroke-linecap="round" stroke-linejoin="round"/>
<path d="M13.7773 54.0945L16.3613 59.6425" stroke="#1F2223" stroke-width="0.48" stroke-linecap="round" stroke-linejoin="round"/>
<path d="M19.4883 66.369L21.5593 70.815" stroke="#1F2223" stroke-width="0.48" stroke-linecap="round" stroke-linejoin="round"/>
<path d="M21.8828 71.4895L22.6998 73.257" stroke="#1F2223" stroke-width="0.48" stroke-linecap="round" stroke-linejoin="round"/>
<path d="M85.0491 26.0875C84.2136 26.145 81.3991 26.452 81.7651 27.1985C82.1476 27.975 85.8651 28.1125 86.8071 28.11C90.5671 28.1005 93.2776 27.0665 90.2746 26.363" stroke="#1F2223" stroke-width="0.48" stroke-linecap="round" stroke-linejoin="round"/>
<path d="M44.709 59.8305C45.0847 59.086 45.4215 58.3225 45.718 57.543V60.3265" stroke="#1F2223" stroke-width="0.48" stroke-linecap="round" stroke-linejoin="round"/>
</svg>
