<svg width="175" height="121" viewBox="0 0 175 121" fill="none" xmlns="http://www.w3.org/2000/svg">
<path d="M74.7007 29.2356L74.7041 29.2389C76.1498 30.6515 77.294 32.3296 78.0767 34.1788C78.8591 36.0271 79.2598 38.0079 79.2498 40.005V40.0088C79.2498 42.0065 78.8393 43.9859 78.0565 45.8317C77.2638 47.6772 76.11 49.3497 74.6547 50.755L74.6547 50.755L74.6484 50.7611L48.1544 76.949L21.2966 50.7589C21.2964 50.7587 21.2962 50.7586 21.296 50.7584C18.384 47.9039 16.75 44.0338 16.75 40.0026C16.75 35.9702 18.3843 32.0994 21.2869 29.2424C24.1999 26.3855 28.15 24.7779 32.274 24.7769C36.3981 24.7759 40.3486 26.3828 43.2616 29.238L47.4747 33.3717L48 33.8871L48.5253 33.3717L52.7385 29.2378L52.7407 29.2356C54.1765 27.8149 55.8841 26.6873 57.7735 25.9172L57.7748 25.9166C59.6537 25.1467 61.6741 24.75 63.7154 24.75C65.7675 24.75 67.7881 25.1468 69.6668 25.9166L69.6681 25.9172C71.5575 26.6873 73.2649 27.8149 74.7007 29.2356Z" fill="#FDC886" stroke="black" stroke-width="1.5"/>
<path d="M172.784 62.847C171.87 60.635 170.253 58.441 167.63 58.447C165.007 58.453 163.391 60.634 162.478 62.847C161.565 65.06 161.262 67.909 161.262 71.747H174C174 67.91 173.7 65.06 172.784 62.847Z" fill="#FDC886"/>
<path d="M172.784 62.847C171.87 60.635 170.253 58.441 167.63 58.447C165.007 58.453 163.391 60.634 162.478 62.847C161.565 65.06 161.262 67.909 161.262 71.747H174C174 67.91 173.7 65.06 172.784 62.847Z" stroke="black" stroke-width="1.5" stroke-linecap="round" stroke-linejoin="round"/>
<path d="M135.8 58.447C135.786 72.409 135.228 82.312 138.218 89.547C140.046 93.97 143.278 98.358 148.524 98.341C153.771 98.358 157.003 93.97 158.831 89.547C160.659 85.124 161.262 79.423 161.262 71.747C161.262 67.908 161.562 65.058 162.478 62.847C163.394 60.636 165.006 58.441 167.63 58.447H135.8Z" stroke="black" stroke-width="1.5" stroke-linecap="round" stroke-linejoin="round"/>
<path d="M138.218 89.547C134.944 81.626 135.869 74.255 135.869 28.275C135.869 20.598 135.069 14.897 132.66 10.475C130.251 6.05302 125.98 1.66402 119.054 1.68102C112.129 1.66402 107.863 6.05202 105.449 10.475C103.035 14.898 102.24 20.599 102.24 28.275V98.347H148.524C143.278 98.361 140.046 93.973 138.218 89.547Z" fill="#FDC886"/>
<path d="M138.218 89.547C134.944 81.626 135.869 74.255 135.869 28.275C135.869 20.598 135.069 14.897 132.66 10.475C130.251 6.05302 125.98 1.66402 119.054 1.68102C112.129 1.66402 107.863 6.05202 105.449 10.475C103.035 14.898 102.24 20.599 102.24 28.275V98.347H148.524C143.278 98.361 140.046 93.973 138.218 89.547Z" stroke="black" stroke-width="1.5" stroke-linecap="round" stroke-linejoin="round"/>
<path d="M48.254 92.248L1.64197 119.501H9.01597L51.941 94.4041L48.254 92.248Z" stroke="black" stroke-width="1.5" stroke-linecap="round" stroke-linejoin="round"/>
<path d="M111.68 1.68303C104.755 1.66603 100.488 6.05404 98.075 10.477C95.662 14.9 94.866 20.601 94.866 28.277V119.5H102.24V28.278C102.24 20.601 103.04 14.9 105.449 10.478C107.858 6.05604 112.129 1.66703 119.054 1.68403L111.68 1.68303Z" stroke="black" stroke-width="1.5" stroke-linecap="round" stroke-linejoin="round"/>
<path d="M18.456 1.68303C11.531 1.66603 7.26397 6.05404 4.85097 10.477C2.43797 14.9 1.64197 20.601 1.64197 28.277V119.5L48.254 92.247L94.866 119.5V28.278C94.866 20.601 95.666 14.9 98.075 10.478C100.484 6.05604 104.755 1.66703 111.68 1.68403L18.456 1.68303Z" stroke="black" stroke-width="1.5" stroke-linecap="round" stroke-linejoin="round"/>
</svg>
