<svg width="108" height="123" viewBox="0 0 108 123" fill="none" xmlns="http://www.w3.org/2000/svg">
<path d="M32.6397 86.4404L34.1475 99.7313L33.1747 99.78L33.4307 103.1L35.8378 103.173C36.0515 104.433 36.129 105.713 36.0695 106.991L28.3485 106.744L32.6397 86.4404Z" fill="#FDDE92"/>
<path d="M46.0392 98.4142C46.0757 98.402 44.9448 98.6817 44.9448 98.6817L43.0721 80.7335L48.7509 72.8174L49.7358 82.4603C49.6885 86.1083 54.3106 89.666 58.2479 87.6404L76.0738 79.5175L76.4124 80.8078L79.5484 79.3595L78.5884 76.283C79.5364 75.7563 80.5565 75.371 81.6162 75.1399L74.6997 108.129L44.6408 107.267L44.0814 102.354L46.3675 101.807C46.3675 101.807 46.0027 98.4263 46.0392 98.4142Z" fill="#FDDE92"/>
<path d="M59.0622 57.0351L60.835 48.5346L87.8564 45.1426L83.3816 66.8482L81.4724 66.3253L75.4168 69.1343L73.8968 66.6171L70.675 67.9547C70.8324 68.125 71.4897 69.1951 71.4897 69.1951L61.9806 73.4754C64.2788 61.3275 59.0622 57.0351 59.0622 57.0351Z" fill="#FDDE92"/>
<path d="M55.0497 35.9491C55.5118 34.1623 59.33 31.1831 59.33 31.1831C60.802 29.6874 58.882 29.4077 58.882 29.4077C58.9686 29.2624 59.011 29.0951 59.0042 28.9262C58.9974 28.7573 58.9417 28.5939 58.8438 28.4561C58.7459 28.3182 58.61 28.2118 58.4527 28.1497C58.2954 28.0877 58.1235 28.0727 57.9579 28.1066C57.7147 28.216 57.5931 27.8506 57.5931 27.8506L91.3467 28.8848L89.5963 37.2387C89.5963 37.2387 69.0222 38.8189 60.3035 39.3053C60.2395 39.3053 56.7924 38.9418 56.7284 38.929C54.6363 38.5277 55.0497 35.9491 55.0497 35.9491Z" fill="#FDDE92"/>
<path d="M45.0179 27.4961L52.5059 27.7271C52.5059 27.7271 48.7119 32.4087 50.2563 34.4759C50.4995 34.75 50.7996 34.9671 51.1356 35.1122C51.4716 35.2572 51.8358 35.3264 52.2019 35.315C52.1743 35.9074 51.9299 36.469 51.5151 36.8927C51.1004 37.3164 50.5443 37.5727 49.9523 37.6126L43.6412 34.0503L45.0179 27.4961Z" fill="#FDDE92"/>
<path d="M41.6374 43.3789L44.3369 44.9354V56.4023L35.7283 71.6266L41.6374 43.3789Z" fill="#FDDE92"/>
<path d="M3.49193 44.7526L4.98825 42.3936L19.2603 51.4163L17.8011 44.9593L20.5249 44.3392L22.7291 54.0793C22.7694 54.258 22.7732 54.4429 22.7419 54.6233C22.7105 54.8038 22.6433 54.9762 22.5454 55.1308C22.4468 55.2853 22.3195 55.419 22.1691 55.5241C22.0193 55.6292 21.8497 55.7037 21.6711 55.7433L11.931 57.9443L11.3108 55.2204L17.7678 53.7612L3.49193 44.7526Z" fill="#FDDE92"/>
<path d="M61.9566 73.4754C62.0174 73.2194 65.252 71.9912 65.252 71.9912L61.0324 77.4632C61.0324 77.4632 61.6283 75.3109 61.9566 73.4754Z" fill="#1F2223"/>
<path d="M54.4782 24.6045C54.5395 24.5029 54.6211 24.4149 54.7176 24.3459C54.8143 24.2769 54.924 24.2284 55.0401 24.2033C55.1561 24.1782 55.2761 24.1771 55.3926 24.2C55.5091 24.2229 55.6197 24.2694 55.7176 24.3366C55.8155 24.4038 55.8986 24.4903 55.9619 24.5908C56.0252 24.6913 56.0672 24.8036 56.0855 24.9209C56.1038 25.0382 56.098 25.1581 56.0683 25.273C56.0387 25.388 55.9858 25.4957 55.913 25.5895C56.0803 25.5026 56.2714 25.4729 56.457 25.505C56.6428 25.5371 56.8128 25.6292 56.9412 25.7672C57.0695 25.9052 57.1491 26.0815 57.1676 26.2691C57.1862 26.4566 57.1427 26.6451 57.0439 26.8055C57.2094 26.771 57.3815 26.7858 57.5387 26.848C57.6959 26.9102 57.8314 27.0172 57.9285 27.1556C58.0255 27.2941 58.0799 27.458 58.0848 27.6271C58.0896 27.7961 58.0448 27.9628 57.9559 28.1066C58.1224 28.0687 58.2964 28.081 58.4559 28.1418C58.6155 28.2027 58.7534 28.3095 58.8523 28.4487C58.9512 28.588 59.0066 28.7533 59.0115 28.924C59.0165 29.0947 58.9707 29.263 58.8801 29.4077C59.0659 29.3675 59.2598 29.3895 59.4318 29.4705C59.6039 29.5514 59.7445 29.6868 59.8318 29.8556C59.9192 30.0244 59.9486 30.2173 59.9154 30.4045C59.8822 30.5918 59.7882 30.7628 59.6481 30.8913L57.2647 32.9828C56.2068 34.0157 55.234 35.1223 55.0516 35.937C55.1975 34.5514 55.8196 33.1889 56.0609 33.0922C58.5415 32.1559 57.7249 29.8922 56.3892 30.7575C55.7447 31.1709 55.538 31.0737 55.5502 30.6724C55.81 28.7428 54.5524 25.338 52.0641 28.3345C52.4257 27.8519 53.4036 26.4279 54.4782 24.6045Z" fill="#1F2223"/>
<path d="M48.0938 66.75L48.7383 72.9881L45.6983 77.0246L48.0938 66.75Z" fill="#1F2223"/>
<path d="M52.2167 35.3043C52.6763 35.3797 53.1467 35.3464 53.5908 35.207L51.4993 36.8845C51.8718 36.4293 52.1195 35.8845 52.2167 35.3043Z" fill="#1F2223"/>
<path d="M35.7396 111.036C36.1492 108.431 36.1825 105.782 35.8369 103.169C38.5959 103.153 41.3472 102.885 44.057 102.366L44.5312 106.512C42.1357 109.929 39.4605 114.72 34.7188 119.608C34.8768 116.732 35.218 113.869 35.7396 111.036Z" fill="#CFD181"/>
<path d="M61.1905 46.8203L65.3857 47.9633L60.8257 48.5106L61.1905 46.8203Z" fill="#1F2223"/>
<path d="M79.1865 67.3584C83.1872 68.5494 88.574 69.5715 94.7148 72.5379C91.9391 73.2982 89.1173 73.8794 86.2668 74.2768C83.6639 74.7043 81.1367 75.5075 78.7641 76.6602C77.8757 74.0509 76.7523 71.528 75.408 69.1216L79.1865 67.3584Z" fill="#CFD181"/>
<path d="M55.0615 48.34L47.5223 47.7441L46.9873 54.5537L49.8206 57.8977L54.5265 55.2104L55.0615 48.34Z" fill="#CFD181"/>
<path d="M36.0684 106.988L28.3346 106.744L32.6271 86.377" stroke="#1F2223" stroke-width="0.48" stroke-linecap="round" stroke-linejoin="round"/>
<path d="M81.5332 75.5059L74.6627 108.143L44.6039 107.243" stroke="#1F2223" stroke-width="0.48" stroke-linecap="round" stroke-linejoin="round"/>
<path d="M87.9297 45.1543L83.3575 66.8356" stroke="#1F2223" stroke-width="0.48" stroke-linecap="round" stroke-linejoin="round"/>
<path d="M57.9924 27.8877L91.3467 28.8848L89.5956 37.2387" stroke="#1F2223" stroke-width="0.48" stroke-linecap="round" stroke-linejoin="round"/>
<path d="M43.6355 34.0917L45.0173 27.499L52.5078 27.7179" stroke="#1F2223" stroke-width="0.48" stroke-linecap="round" stroke-linejoin="round"/>
<path d="M35.7282 71.6273L41.6738 43.416" stroke="#1F2223" stroke-width="0.48" stroke-linecap="round" stroke-linejoin="round"/>
<path d="M32.2384 19.375L45.0781 27.5113" stroke="#1F2223" stroke-width="0.48" stroke-linecap="round" stroke-linejoin="round"/>
<path d="M28.335 106.744L0.999922 89.4412L9.60792 48.6365M23.0575 13.5641L17.7193 10.1836L10.2242 45.7127" stroke="#1F2223" stroke-width="0.48" stroke-linecap="round" stroke-linejoin="round"/>
<path d="M44.9201 98.695L43.0475 80.7347L48.6289 73.1104" stroke="#1F2223" stroke-width="0.48" stroke-linecap="round" stroke-linejoin="round"/>
<path d="M61.9684 73.4745L71.4775 69.1826" stroke="#1F2223" stroke-width="0.48" stroke-linecap="round" stroke-linejoin="round"/>
<path d="M45.5888 77.2566L48.0848 66.751L49.7488 82.7407C49.8473 83.6918 50.1705 84.6057 50.6908 85.4082C51.2112 86.2108 51.9139 86.8783 52.742 87.3564C53.5702 87.8345 54.4997 88.1097 55.4547 88.159C56.4096 88.2083 57.3627 88.031 58.2358 87.6412L76.0732 79.5548" stroke="#1F2223" stroke-width="0.48" stroke-linecap="round" stroke-linejoin="round"/>
<path d="M55.0615 48.341L47.5223 47.7451L46.9873 54.5547L49.8206 57.8987L54.5265 55.2114L55.0615 48.341Z" stroke="#1F2223" stroke-width="0.48" stroke-linecap="round" stroke-linejoin="round"/>
<path d="M53.6143 35.2324L51.4863 36.8862" stroke="#1F2223" stroke-width="0.48" stroke-linecap="round" stroke-linejoin="round"/>
<path d="M60.29 39.3057C60.29 39.3057 56.0462 55.0285 59.9496 52.706" stroke="#1F2223" stroke-width="0.48" stroke-linecap="round" stroke-linejoin="round"/>
<path d="M47.4559 36.2178V44.0117L55.925 44.7413L57.2383 38.9775" stroke="#1F2223" stroke-width="0.48" stroke-linecap="round" stroke-linejoin="round"/>
<path d="M44.3369 34.5156V56.4036L33.734 75.1416C32.447 77.4136 31.9107 80.0344 32.2019 82.6296L34.1475 99.7266" stroke="#1F2223" stroke-width="0.48" stroke-linecap="round" stroke-linejoin="round"/>
<path d="M46.0125 98.4268L46.3408 101.856C42.1219 102.909 37.7699 103.327 33.4275 103.096L33.0992 99.6671C37.4423 99.9596 41.8045 99.5404 46.0125 98.4268Z" stroke="#1F2223" stroke-width="0.48" stroke-linecap="round" stroke-linejoin="round"/>
<path d="M73.8848 66.6045C76.3988 70.5687 78.3125 74.8835 79.5635 79.4083L76.4121 80.808C75.2428 76.2544 73.3239 71.9274 70.734 68.0035L73.8848 66.6045Z" stroke="#1F2223" stroke-width="0.48" stroke-linecap="round" stroke-linejoin="round"/>
<path d="M56.5942 59.333C56.8294 60.2499 57.2846 61.0956 57.9201 61.7969C58.5558 62.4984 59.3528 63.0341 60.2422 63.358" stroke="#1F2223" stroke-width="0.48" stroke-linecap="round" stroke-linejoin="round"/>
<path d="M44.7861 58.4082C44.7861 58.4082 43.7161 60.7186 41.6501 61.2172" stroke="#1F2223" stroke-width="0.48" stroke-linecap="round" stroke-linejoin="round"/>
<path d="M55.0614 35.9499C55.2438 35.1351 56.2166 34.0299 57.2745 32.995L59.6578 30.9035C59.798 30.775 59.892 30.604 59.9252 30.4168C59.9584 30.2296 59.929 30.0366 59.8416 29.8678C59.7542 29.699 59.6136 29.5636 59.4416 29.4827C59.2696 29.4017 59.0756 29.3797 58.8898 29.4199C58.9805 29.2752 59.0262 29.1069 59.0213 28.9362C59.0164 28.7655 58.9609 28.6002 58.8621 28.4609C58.7632 28.3217 58.6253 28.2149 58.4657 28.154C58.3062 28.0932 58.1321 28.0809 57.9657 28.1188C58.0546 27.975 58.0994 27.8083 58.0945 27.6393C58.0897 27.4702 58.0353 27.3063 57.9383 27.1678C57.8412 27.0294 57.7057 26.9224 57.5485 26.8602C57.3912 26.798 57.2192 26.7832 57.0537 26.8177C57.1525 26.6573 57.196 26.4688 57.1774 26.2813C57.1588 26.0937 57.0793 25.9174 56.951 25.7794C56.8226 25.6414 56.6525 25.5493 56.4668 25.5172C56.2811 25.4851 56.09 25.5148 55.9228 25.6017C56.0276 25.4643 56.0909 25.2997 56.1052 25.1275C56.1197 24.9318 56.0677 24.7369 55.9577 24.5744C55.8477 24.4119 55.6861 24.2913 55.499 24.232C55.3119 24.1728 55.1103 24.1785 54.9268 24.248C54.7433 24.3177 54.5887 24.4471 54.4879 24.6155C53.9625 25.482 52.7554 27.3975 52.2095 28.1681" stroke="#1F2223" stroke-width="0.48" stroke-linecap="round" stroke-linejoin="round"/>
<path d="M24.4678 8.07898C24.231 7.37774 24.0518 6.65831 23.9321 5.92794C23.374 3.33788 22.7327 3.8006 22.6066 6.20762C22.5362 7.55802 22.7455 9.97786 22.8377 11.3276C22.894 12.1551 23.141 14.55 23.4578 16.9212C23.9551 20.6422 24.647 26.9411 25.063 30.7107C25.1705 31.6832 25.5033 32.6172 26.0351 33.4385C26.5676 34.2597 27.2838 34.9453 28.1273 35.4409L44.3916 44.9961" stroke="#1F2223" stroke-width="0.48" stroke-linecap="round" stroke-linejoin="round"/>
<path d="M24.4552 9.17359C24.4065 8.85743 24.5729 6.41391 24.7227 4.24879C24.8904 1.81677 25.6238 1.48845 26.1211 4.28527C26.5601 6.75375 26.875 7.28879 26.875 7.28879" stroke="#1F2223" stroke-width="0.48" stroke-linecap="round" stroke-linejoin="round"/>
<path d="M29.3438 7.50799C29.3438 7.50799 29.249 3.34797 29.2465 2.94861C29.2279 0.418689 28.451 0.393729 27.8238 2.63245C27.2478 4.68623 26.6807 8.63887 26.6807 8.63887" stroke="#1F2223" stroke-width="0.48" stroke-linecap="round" stroke-linejoin="round"/>
<path d="M28.9182 8.58988C28.9182 8.58988 29.6958 6.71724 30.4138 4.75948C31.1671 2.70444 32.2295 2.75692 31.7028 5.25804C31.6439 5.53836 31.1377 8.31148 30.9854 9.12492C30.8919 9.62412 30.8394 10.8881 31.265 11.0449C32.5054 11.5064 35.617 10.3281 36.0682 11.3611C36.3594 12.0299 34.1969 12.6545 32.7607 13.2216C31.9223 13.5524 31.4897 14.9086 31.642 15.8456C31.6554 15.9307 33.8065 28.6136 33.8065 28.6136L49.9422 37.5992C50.5092 37.546 51.0398 37.2975 51.4436 36.8961C51.8474 36.4946 52.099 35.9654 52.1553 35.3988" stroke="#1F2223" stroke-width="0.48" stroke-linecap="round" stroke-linejoin="round"/>
<path d="M30.0762 8.74872C28.1587 8.3132 26.1511 8.51826 24.361 9.3324" stroke="#1F2223" stroke-width="0.48" stroke-linecap="round" stroke-linejoin="round"/>
<path d="M29.3086 10.207C27.1684 10.8758 25.8673 12.1405 25.9524 14.1469" stroke="#1F2223" stroke-width="0.48" stroke-linecap="round" stroke-linejoin="round"/>
<path d="M99.2144 40.8138C100.77 40.8972 102.329 40.8197 103.868 40.5828C106.702 40.1348 106.51 40.9822 104.075 41.7137C103.419 41.9108 102.847 42.067 102.361 42.1879C100.938 42.5425 99.5273 42.8919 98.1289 43.2823C92.792 44.7575 87.3769 45.2266 60.8323 48.5348" stroke="#1F2223" stroke-width="0.48" stroke-linecap="round" stroke-linejoin="round"/>
<path d="M99.7725 37.3362L103.007 35.5C105.076 34.3243 104.914 33.4456 102.35 34.476C102.071 34.588 99.2394 35.7221 98.3984 36.0447C97.9133 36.2303 96.5725 36.6047 96.3556 36.2635C95.7309 35.2811 96.6224 32.2399 95.5044 32.0927C94.7748 31.996 94.3632 34.0632 93.9236 35.4731C93.6676 36.2879 92.3063 37.0296 91.3092 37.1026C91.224 37.1147 60.2896 39.3029 60.2896 39.3029L56.5322 38.8895C53.7354 38.1477 55.5831 33.2952 56.058 33.1141C58.5239 32.172 57.7252 29.9179 56.3863 30.7794C55.6106 31.2786 55.5255 31.0354 55.5658 30.5131C55.7354 28.3186 54.0938 24.6815 51.2183 29.5999C47.1978 36.4728 53.6138 35.2319 53.6138 35.2319" stroke="#1F2223" stroke-width="0.48" stroke-linecap="round" stroke-linejoin="round"/>
<path d="M99.1415 37.4803C99.1415 37.4803 104.405 36.2003 104.759 36.1069C107.489 35.3786 107.493 36.3213 105.221 37.1891C103.067 38.0115 100.455 39.0611 100.455 39.0611" stroke="#1F2223" stroke-width="0.48" stroke-linecap="round" stroke-linejoin="round"/>
<path d="M99.5302 39.1839C101.302 39.0029 103.064 38.731 104.808 38.3691C107.592 37.8072 107.469 38.6462 105.172 39.4757C103.761 40.0181 102.315 40.4651 100.843 40.8133" stroke="#1F2223" stroke-width="0.48" stroke-linecap="round" stroke-linejoin="round"/>
<path d="M98.8759 36.7646C99.5388 38.4317 99.5388 40.2892 98.8759 41.9563" stroke="#1F2223" stroke-width="0.48" stroke-linecap="round" stroke-linejoin="round"/>
<path d="M97.4385 37.8008C96.9642 39.868 95.7969 41.315 93.6932 41.7285" stroke="#1F2223" stroke-width="0.48" stroke-linecap="round" stroke-linejoin="round"/>
<path d="M44.0566 102.367L44.8105 108.994C42.4425 112.326 39.9222 117.481 34.7062 122.601C34.6422 118.717 34.9853 114.837 35.7302 111.024C36.1641 108.422 36.1942 105.769 35.8205 103.158" stroke="#1F2223" stroke-width="0.48" stroke-linecap="round" stroke-linejoin="round"/>
<path d="M21.6711 55.7587C21.8497 55.7191 22.0193 55.6446 22.1691 55.5395C22.3195 55.4344 22.4468 55.3008 22.5454 55.1461C22.6433 54.9916 22.7105 54.8192 22.7419 54.6387C22.7732 54.4583 22.7694 54.2734 22.7291 54.0947L20.5403 44.3545L17.8164 44.9747L19.2603 51.4176L4.98441 42.3936L3.48873 44.7526L17.7767 53.7766L11.3198 55.2358L11.9431 57.9609L21.6711 55.7587Z" stroke="#1F2223" stroke-width="0.48" stroke-linecap="round" stroke-linejoin="round"/>
<path d="M75.3923 69.1224L81.448 66.3135C85.352 67.5052 91.0423 68.2706 97.5479 71.6031C93.8888 72.8991 90.1018 73.8002 86.2512 74.2911C83.6526 74.709 81.1295 75.5071 78.7632 76.6591" stroke="#1F2223" stroke-width="0.48" stroke-linecap="round" stroke-linejoin="round"/>
<path d="M65.3857 47.9633L61.1905 46.8203L59.0504 57.0347C59.0504 57.0347 65.3736 61.8501 61.0344 77.4629L65.2539 71.9909" stroke="#1F2223" stroke-width="0.48" stroke-linecap="round" stroke-linejoin="round"/>
</svg>
