<svg width="108" height="103" viewBox="0 0 108 103" fill="none" xmlns="http://www.w3.org/2000/svg">
<path d="M43.0045 40.5579C41.7823 42.0062 37.494 43.6243 35.1681 54.8617L28.0745 50.4222C25.4964 52.3528 23.7309 55.1754 23.123 58.3383L33.7895 65.0086C35.0244 65.7778 36.5141 66.0258 37.9317 65.6981C39.3493 65.3709 40.5792 64.4944 41.3515 63.2614L44.4272 58.3413L44.6701 68.6699L39.6679 76.6817C41.7058 79.1464 44.4866 80.8858 47.5948 81.64L52.8933 73.1713C53.6777 71.9178 54.137 70.4883 54.2296 69.0123C54.6102 62.7531 52.2691 52.2367 51.5978 42.9413C47.7635 42.8984 46.2406 42.2968 43.0045 40.5579Z" fill="#FDC886"/>
<path d="M94.4774 13.6078L93.5525 32.03L85.3739 44.3692L86.2988 25.9471L94.4774 13.6078Z" fill="#CFD181" stroke="#CFD181" stroke-width="0.48"/>
<path d="M59.2456 33.8974C59.0889 33.8283 58.8603 33.9551 58.5814 34.2354L59.4266 34.7145C59.4735 34.2626 59.4211 33.9631 59.2456 33.8974Z" fill="#1F2223"/>
<path d="M53.6462 40.8082C53.5376 41.3481 53.638 41.7681 53.8076 41.841C53.9772 41.9138 54.3987 41.7376 54.6271 41.3022L53.6462 40.8082Z" fill="#1F2223"/>
<path d="M56.9722 34.7198C56.8154 34.6507 56.5868 34.7775 56.3079 35.0578L57.1532 35.5369C57.2002 35.0946 57.138 34.7969 56.9722 34.7198Z" fill="#1F2223"/>
<path d="M41.2873 74.0248L39.6215 76.6887C41.6594 79.1534 44.4402 80.8927 47.5484 81.6469L49.2894 78.8638C46.2165 78.0435 43.4408 76.3652 41.2873 74.0248Z" fill="#1F2223"/>
<path d="M47.2539 38.0014L51.6576 42.7765L52.2833 40.9504L47.2539 38.0014Z" fill="#1F2223"/>
<path d="M48.4258 23.812L49.0832 24.758L49.2224 24.0103L48.4258 23.812Z" fill="#1F2223"/>
<path d="M50.274 48.9881L44.4173 58.3453L44.5457 63.4343L50.274 48.9881Z" fill="#1F2223"/>
<path d="M30.4042 51.8372L28.0661 50.3682C25.4906 52.3012 23.7258 55.1227 23.1146 58.2843L25.4865 59.7693C26.4191 56.7474 28.1125 54.0163 30.4042 51.8372Z" fill="#1F2223"/>
<path d="M51.4782 16.9998C51.4785 16.7661 51.3953 16.54 51.2438 16.3619C51.0929 16.1838 50.8828 16.0653 50.6523 16.0275C50.7696 15.8738 50.8393 15.6891 50.8533 15.4961C50.8672 15.3032 50.8244 15.1104 50.7299 14.9415C50.6359 14.7726 50.494 14.6349 50.323 14.5453C50.1515 14.4557 49.9576 14.4181 49.765 14.4371C49.8135 14.2587 49.812 14.0701 49.7596 13.8926C49.7077 13.7151 49.6072 13.5555 49.4698 13.4316C49.3324 13.3077 49.1635 13.2243 48.9815 13.1909C48.7995 13.1573 48.6118 13.1749 48.4392 13.2417C48.4306 13.0561 48.3697 12.8766 48.2638 12.7238C48.1579 12.5711 48.0115 12.451 47.8408 12.3774C47.6701 12.3037 47.4821 12.2795 47.2986 12.3073C47.1147 12.3352 46.9427 12.414 46.8014 12.5349C46.7353 12.3542 46.6187 12.1963 46.4653 12.0803C46.3118 11.9642 46.1282 11.895 45.9363 11.8807C45.7445 11.8663 45.5526 11.9077 45.3836 11.9998C45.2147 12.0918 45.0759 12.2306 44.9839 12.3995C44.8634 12.2365 44.698 12.1121 44.5079 12.0415C44.3179 11.9709 44.1114 11.9572 43.9136 12.002C43.7159 12.0468 43.5355 12.1482 43.3944 12.2939C43.2533 12.4395 43.1578 12.6231 43.1193 12.8222C42.9854 12.7227 42.8286 12.6586 42.6634 12.6357C42.4982 12.6128 42.3298 12.6318 42.1738 12.6911C42.0179 12.7503 41.8794 12.8478 41.7711 12.9747C41.6627 13.1015 41.5881 13.2535 41.5539 13.4168C41.529 13.18 41.437 12.9552 41.2888 12.7689C41.1405 12.5826 40.9421 12.4425 40.717 12.3651C40.4918 12.2878 40.2492 12.2763 40.0177 12.3321C39.7863 12.3879 39.5755 12.5087 39.4104 12.6801C39.2648 12.459 39.0552 12.2875 38.8095 12.1886C38.5639 12.0898 38.2939 12.0684 38.0357 12.1272C37.7775 12.186 37.5434 12.3222 37.3648 12.5177C37.1861 12.7131 37.0714 12.9584 37.036 13.2209C36.7992 13.1288 36.5398 13.1115 36.2928 13.1713C36.0458 13.2311 35.8231 13.3651 35.6546 13.5553C35.4861 13.7456 35.3799 13.9829 35.3504 14.2353C35.3208 14.4876 35.3693 14.7431 35.4893 14.967C35.2437 15.0392 35.0263 15.1854 34.8668 15.3856C34.7072 15.5858 34.6133 15.8303 34.5977 16.0858C34.5821 16.3414 34.6457 16.5954 34.7798 16.8136C34.9139 17.0316 35.1119 17.203 35.3469 17.3045C35.1775 17.4989 35.0725 17.7411 35.0466 17.9976C35.0206 18.2542 35.0749 18.5125 35.2021 18.7369C35.3292 18.9613 35.5228 19.1406 35.7562 19.2503C35.9896 19.36 36.2513 19.3945 36.5051 19.349C36.4968 19.6019 36.5659 19.8514 36.7032 20.0639C36.8405 20.2765 37.0394 20.442 37.2733 20.5384C37.5073 20.6349 37.7651 20.6576 38.0123 20.6036C38.2594 20.5495 38.4843 20.4213 38.6566 20.2361C38.7706 20.4242 38.9338 20.5775 39.1287 20.6796C39.3235 20.7817 39.5424 20.8286 39.762 20.8153C39.7468 20.9619 39.7645 21.1101 39.8138 21.2491C39.863 21.3881 39.9425 21.5144 40.0465 21.6188C40.1505 21.7233 40.2765 21.8033 40.4152 21.8532C40.554 21.9029 40.7021 21.9213 40.8488 21.9068C40.7995 22.086 40.8014 22.2753 40.8543 22.4535C40.9072 22.6316 41.0089 22.7913 41.148 22.9146C41.287 23.0379 41.4578 23.1197 41.6409 23.1509C41.8241 23.182 42.0124 23.1613 42.1843 23.0909C42.1947 23.2766 42.2569 23.4557 42.3639 23.6078C42.4709 23.7599 42.6184 23.879 42.7897 23.9514C42.9609 24.024 43.1491 24.0469 43.3328 24.0179C43.5165 23.9888 43.6884 23.9088 43.8289 23.7869C43.8949 23.9678 44.012 24.1256 44.1659 24.2414C44.3197 24.3572 44.5039 24.4259 44.6959 24.4392C44.888 24.4525 45.0799 24.4099 45.2482 24.3165C45.4166 24.2231 45.5543 24.0829 45.6447 23.9129C45.7923 24.0615 45.9701 24.1766 46.1661 24.2504C46.362 24.3243 46.5716 24.3552 46.7805 24.3411C46.9949 23.7199 47.0992 23.0661 47.0887 22.4091C47.0789 21.7399 46.8406 21.0942 46.4132 20.5791C44.9387 20.3645 45.2792 18.6172 46.3357 19.0882C46.8389 19.3184 47.0058 19.2689 46.9891 18.9642C46.9766 18.8775 46.9878 18.7891 47.0216 18.7083C47.0554 18.6274 47.1104 18.5573 47.1809 18.5053C47.2948 18.6663 47.4537 18.7899 47.6377 18.8608C47.8214 18.9317 48.0225 18.9466 48.215 18.9037C48.4075 18.8607 48.5831 18.7618 48.7191 18.6195C48.8556 18.4771 48.947 18.2976 48.9816 18.1035C49.089 18.1834 49.2112 18.2409 49.3411 18.2727C49.471 18.3046 49.606 18.3099 49.7378 18.2887C49.8701 18.2673 49.9963 18.2198 50.1097 18.1487C50.2232 18.0776 50.3211 17.9846 50.3979 17.875C50.7248 18.3799 50.9999 18.9167 51.2182 19.4771C51.3448 19.3734 51.4443 19.2401 51.5072 19.0891C51.5706 18.9379 51.5957 18.7737 51.5803 18.6107C51.565 18.4476 51.5102 18.2908 51.4203 18.154C51.3303 18.0171 51.2081 17.9045 51.0644 17.8259C51.1928 17.7298 51.2968 17.6052 51.3687 17.4617C51.4406 17.3184 51.4784 17.1601 51.4782 16.9998Z" fill="#1F2223"/>
<path d="M71.4481 10.7482C71.3187 10.3799 71.0832 10.0581 70.7712 9.82358C70.4586 9.58919 70.084 9.45255 69.6944 9.431C69.3044 9.40954 68.9169 9.50408 68.5811 9.70271C68.2448 9.90144 67.9754 10.1953 67.806 10.5473C67.6371 10.8991 67.5761 11.2933 67.631 11.6798C67.686 12.0663 67.8543 12.4279 68.1148 12.7187C68.3753 13.0096 68.7161 13.2167 69.094 13.3139C69.4724 13.411 69.8709 13.3939 70.2392 13.2647C70.7326 13.0908 71.1372 12.7282 71.3638 12.2564C71.5903 11.7847 71.6208 11.2422 71.4481 10.7482Z" fill="#1F2223"/>
<path d="M75.5474 40.7499L75.543 40.742L75.5474 40.7499Z" fill="#1F2223"/>
<path d="M78.695 35.3655L76.5821 38.1172C77.4979 38.1496 78.407 38.2917 79.2891 38.5406C79.6595 38.6271 80.0122 38.7776 80.3313 38.9852C80.7919 39.3579 78.6239 39.0909 77.5932 39.1555L77.5838 39.1572C77.807 39.2291 78.0175 39.3354 78.2079 39.4723C78.6063 39.794 75.917 39.3787 75.7192 39.5798C76.7694 39.8494 78.4217 40.4187 78.9 41.003C79.4664 41.7044 76.9877 40.5462 75.5478 40.7498C76.5292 41.0121 77.6243 41.4287 78.0945 42.0215C78.7362 42.8229 76.6926 41.5054 74.5849 41.8061L74.5755 41.8077C76.7909 42.6739 77.9016 43.51 74.841 42.7739C74.2786 42.6318 73.6966 42.5837 73.1187 42.6316L68.3157 48.8604L85.0827 45.2521L85.6505 33.8883L78.695 35.3655Z" fill="#CFD181"/>
<path d="M51.4782 16.9998C51.4785 16.7661 51.3953 16.54 51.2438 16.3619C51.0929 16.1838 50.8828 16.0653 50.6523 16.0275C50.7696 15.8738 50.8393 15.6891 50.8533 15.4961C50.8672 15.3032 50.8244 15.1104 50.7299 14.9415C50.6359 14.7726 50.494 14.6349 50.323 14.5453C50.1515 14.4557 49.9576 14.4181 49.765 14.4372C49.8135 14.2587 49.812 14.0701 49.7596 13.8926C49.7077 13.7151 49.6072 13.5555 49.4698 13.4316C49.3324 13.3077 49.1635 13.2244 48.9815 13.1909C48.7995 13.1573 48.6118 13.1749 48.4392 13.2417C48.4306 13.0561 48.3698 12.8766 48.2638 12.7239C48.1579 12.5711 48.0115 12.451 47.8408 12.3774C47.6701 12.3037 47.4821 12.2795 47.2986 12.3073C47.1147 12.3352 46.9427 12.414 46.8014 12.5349C46.7353 12.3542 46.6187 12.1963 46.4653 12.0803C46.3118 11.9643 46.1282 11.895 45.9363 11.8807C45.7445 11.8664 45.5526 11.9077 45.3836 11.9998C45.2147 12.0918 45.0759 12.2306 44.9839 12.3995C44.8634 12.2365 44.698 12.1121 44.5079 12.0415C44.3179 11.9709 44.1114 11.9572 43.9136 12.002C43.7159 12.0468 43.5355 12.1482 43.3944 12.2939C43.2533 12.4395 43.1578 12.6231 43.1193 12.8222C42.9854 12.7228 42.8286 12.6586 42.6634 12.6357C42.4982 12.6128 42.3298 12.6318 42.1738 12.6911C42.0179 12.7503 41.8794 12.8478 41.7711 12.9747C41.6627 13.1015 41.5881 13.2535 41.5539 13.4168C41.529 13.18 41.437 12.9552 41.2888 12.7689C41.1405 12.5826 40.9421 12.4426 40.717 12.3651C40.4918 12.2878 40.2492 12.2763 40.0177 12.3321C39.7863 12.3879 39.5755 12.5087 39.4104 12.6802C39.2648 12.459 39.0552 12.2875 38.8095 12.1886C38.5639 12.0898 38.2939 12.0684 38.0357 12.1272C37.7775 12.186 37.5434 12.3222 37.3648 12.5177C37.1861 12.7131 37.0714 12.9585 37.036 13.2209C36.7992 13.1288 36.5398 13.1115 36.2928 13.1713C36.0458 13.2311 35.8231 13.3652 35.6546 13.5553C35.4861 13.7456 35.3799 13.9829 35.3504 14.2353C35.3208 14.4876 35.3693 14.7431 35.4893 14.967C35.2437 15.0392 35.0263 15.1854 34.8668 15.3856C34.7072 15.5858 34.6133 15.8303 34.5977 16.0858C34.5821 16.3414 34.6457 16.5955 34.7798 16.8136C34.9139 17.0316 35.1119 17.2031 35.3469 17.3045C35.1775 17.4989 35.0725 17.7411 35.0466 17.9977C35.0206 18.2542 35.0749 18.5125 35.2021 18.7369C35.3292 18.9613 35.5228 19.1406 35.7562 19.2503C35.9896 19.36 36.2513 19.3945 36.5051 19.349C36.4968 19.602 36.5659 19.8514 36.7032 20.0639C36.8405 20.2765 37.0394 20.442 37.2733 20.5385C37.5073 20.6349 37.7651 20.6576 38.0123 20.6036C38.2594 20.5495 38.4843 20.4213 38.6566 20.2361C38.7706 20.4242 38.9338 20.5775 39.1287 20.6796C39.3235 20.7817 39.5424 20.8286 39.762 20.8153C39.7468 20.9619 39.7645 21.1101 39.8138 21.2491C39.863 21.3881 39.9425 21.5144 40.0465 21.6188C40.1505 21.7233 40.2765 21.8033 40.4152 21.8532C40.554 21.903 40.7021 21.9213 40.8488 21.9068C40.7995 22.086 40.8014 22.2753 40.8543 22.4535C40.9072 22.6316 41.0089 22.7913 41.148 22.9146C41.287 23.0379 41.4578 23.1197 41.6409 23.1509C41.8241 23.182 42.0124 23.1613 42.1843 23.0909C42.1947 23.2766 42.2569 23.4557 42.3639 23.6078C42.4709 23.7599 42.6184 23.879 42.7897 23.9514C42.9609 24.024 43.1491 24.0469 43.3328 24.0179C43.5165 23.9888 43.6884 23.9088 43.8289 23.7869C43.8949 23.9678 44.012 24.1256 44.1659 24.2414C44.3197 24.3572 44.5039 24.4259 44.6959 24.4392C44.888 24.4525 45.0799 24.4099 45.2482 24.3165C45.4166 24.2231 45.5543 24.0829 45.6447 23.9129C45.7923 24.0615 45.9701 24.1766 46.1661 24.2505C46.362 24.3243 46.5716 24.3552 46.7805 24.3411C46.9949 23.7199 47.0992 23.0661 47.0887 22.4091C47.0789 21.7399 46.8406 21.0942 46.4132 20.5791C44.9387 20.3645 45.2792 18.6172 46.3357 19.0882C46.8389 19.3184 47.0058 19.2689 46.9891 18.9642C46.9766 18.8775 46.9878 18.7891 47.0216 18.7083C47.0554 18.6274 47.1104 18.5573 47.1809 18.5053C47.2948 18.6663 47.4537 18.7899 47.6377 18.8608C47.8214 18.9317 48.0225 18.9466 48.215 18.9037C48.4075 18.8607 48.5831 18.7618 48.7191 18.6195C48.8556 18.4771 48.947 18.2976 48.9816 18.1035C49.089 18.1834 49.2112 18.2409 49.3411 18.2727C49.471 18.3046 49.606 18.3099 49.7378 18.2887C49.8701 18.2673 49.9963 18.2198 50.1097 18.1487C50.2232 18.0777 50.3211 17.9846 50.3979 17.875C50.7248 18.3799 50.9999 18.9167 51.2182 19.4771C51.3448 19.3734 51.4443 19.2401 51.5072 19.0891C51.5706 18.9379 51.5957 18.7737 51.5803 18.6107C51.565 18.4476 51.5102 18.2908 51.4203 18.154C51.3303 18.0171 51.2081 17.9045 51.0644 17.8259C51.1928 17.7298 51.2968 17.6052 51.3687 17.4618C51.4406 17.3184 51.4784 17.1601 51.4782 16.9998Z" stroke="#1F2223" stroke-width="0.48" stroke-linejoin="round"/>
<path d="M51.6401 22.9413L78.7517 13.3571" stroke="#1F2223" stroke-width="0.48" stroke-linecap="round" stroke-linejoin="round"/>
<path d="M7.1501 38.6515L46.6619 24.6993" stroke="#1F2223" stroke-width="0.48" stroke-linecap="round" stroke-linejoin="round"/>
<path d="M49.5645 27.8371L59.2559 33.8957" stroke="#1F2223" stroke-width="0.48" stroke-linecap="round" stroke-linejoin="round"/>
<path d="M59.4378 34.7128C59.4764 34.272 59.4243 33.9714 59.2563 33.8958C59.0998 33.8257 58.8604 33.9539 58.5827 34.2354C58.1731 34.6939 57.8183 35.1989 57.5262 35.7401" stroke="#1F2223" stroke-width="0.48" stroke-linecap="round" stroke-linejoin="round"/>
<path d="M26.3786 51.9243C22.7752 49.9604 22.5001 49.9313 19.5125 47.6282C14.3469 49.3034 8.82686 52.0918 6.561 53.6937C10.5811 54.4589 14.7205 54.3274 18.684 53.3089L23.6554 56.4223" stroke="#1F2223" stroke-width="0.48" stroke-linecap="round" stroke-linejoin="round"/>
<path d="M46.7695 28.3453L56.9789 34.7184" stroke="#1F2223" stroke-width="0.48" stroke-linecap="round" stroke-linejoin="round"/>
<path d="M53.8086 41.8409L47.2539 38.0014L51.6519 42.776" stroke="#1F2223" stroke-width="0.48" stroke-linecap="round" stroke-linejoin="round"/>
<path d="M74.3652 39.3326C74.7231 39.3471 78.0731 39.8981 78.942 40.9623C79.5227 41.6703 77.0094 40.4999 75.5508 40.7068" stroke="#1F2223" stroke-width="0.48" stroke-linecap="round" stroke-linejoin="round"/>
<path d="M74.2363 40.4179C75.1716 40.5822 77.4105 41.0981 78.1286 41.9938C78.7784 42.807 76.7171 41.4692 74.5799 41.7755" stroke="#1F2223" stroke-width="0.48" stroke-linecap="round" stroke-linejoin="round"/>
<path d="M74.199 41.6396C76.6538 42.5507 78.0918 43.5402 74.839 42.7621C73.1586 42.3601 61.7073 44.0081 61.7073 44.0081C60.6894 44.0795 59.671 43.8814 58.7542 43.4338L53.6445 40.7979" stroke="#1F2223" stroke-width="0.48" stroke-linecap="round" stroke-linejoin="round"/>
<path d="M56.3066 35.0581L61.6041 38.3266C61.6041 38.3266 73.4721 38.4687 74.3957 38.566C75.3193 38.6633 77.5192 38.8287 78.2588 39.4237C78.6522 39.7401 76.7337 39.4108 75.6281 39.5463" stroke="#1F2223" stroke-width="0.48" stroke-linecap="round" stroke-linejoin="round"/>
<path d="M57.1602 35.5353C57.1988 35.0946 57.1467 34.7941 56.9787 34.7184C56.8223 34.6483 56.5828 34.777 56.3051 35.058C55.1715 36.2061 53.7469 39.3993 53.6184 41.0349C53.5871 41.4363 53.6654 41.7795 53.8076 41.8409C53.9726 41.9135 54.3751 41.7223 54.6286 41.3115" stroke="#1F2223" stroke-width="0.48" stroke-linecap="round" stroke-linejoin="round"/>
<path d="M40.0433 47.3929C42.3192 47.0928 44.4207 46.0129 45.9897 44.337" stroke="#1F2223" stroke-width="0.48" stroke-linecap="round" stroke-linejoin="round"/>
<path d="M51.5972 42.9318L52.2827 40.9504" stroke="#1F2223" stroke-width="0.48" stroke-linecap="round" stroke-linejoin="round"/>
<path d="M49.2594 26.9739C48.7989 27.9804 47.5978 27.7854 45.7715 26.552" stroke="#1F2223" stroke-width="0.48" stroke-linecap="round" stroke-linejoin="round"/>
<path d="M44.4196 58.3559L50.276 48.9881L44.5476 63.4343" stroke="#1F2223" stroke-width="0.48" stroke-linecap="round" stroke-linejoin="round"/>
<path d="M33.7879 64.9982C34.3991 65.3801 35.0796 65.6382 35.7904 65.757C36.5013 65.8758 37.2286 65.8536 37.9308 65.6912C38.6332 65.5292 39.2965 65.23 39.8832 64.8116C40.4699 64.3928 40.9682 63.8624 41.3499 63.251L44.4173 58.3562L44.6698 68.667L39.6676 76.6788C41.7055 79.1435 44.4863 80.8828 47.5945 81.637L52.8913 73.1589C53.6757 71.9055 54.135 70.476 54.2277 69C54.6088 62.7407 52.2655 52.215 51.5958 42.929C47.7502 42.888 46.2273 42.2865 43.0006 40.546C41.4027 42.2056 37.4872 43.9149 35.1652 54.8526L28.073 50.4128C25.4976 52.3458 23.7328 55.1673 23.1216 58.329L33.7879 64.9982Z" stroke="#1F2223" stroke-width="0.48" stroke-linecap="round" stroke-linejoin="round"/>
<path d="M49.2082 23.9977C48.9442 23.9487 48.6836 23.8834 48.4277 23.8022L49.084 24.7535" stroke="#1F2223" stroke-width="0.48" stroke-linecap="round" stroke-linejoin="round"/>
<path d="M50.8099 30.8696C49.7723 29.0004 48.6677 26.0583 49.2063 23.9981C52.9769 24.6781 51.8733 20.1368 50.4104 17.8908M42.9994 40.5396C43.1787 39.2186 43.2229 37.8828 43.1313 36.5528C43.0182 34.5017 43.2596 32.4464 43.8451 30.4774C44.4027 28.4708 46.1281 26.4086 46.8178 24.2576C47.0331 23.6622 47.1252 23.0292 47.0887 22.3971C47.0792 21.7279 46.8408 21.0821 46.4133 20.5671C44.9388 20.3525 45.2815 18.6007 46.3357 19.0762C46.8401 19.3042 47.0135 19.2566 46.9891 18.9522C46.987 18.7903 46.9923 18.635 47.0047 18.4866" stroke="#1F2223" stroke-width="0.48" stroke-linecap="round" stroke-linejoin="round"/>
<path d="M41.334 74.0166C43.4878 76.3575 46.2641 78.0362 49.3377 78.8563" stroke="#1F2223" stroke-width="0.48" stroke-linecap="round" stroke-linejoin="round"/>
<path d="M25.4763 59.7782C26.5487 56.6465 28.1034 53.9564 30.4013 51.8763" stroke="#1F2223" stroke-width="0.48" stroke-linecap="round" stroke-linejoin="round"/>
<path d="M41.0802 78.1794C39.5254 80.9386 38.0881 83.1422 36.5143 85.488C36.5317 88.6194 37.9962 95.5578 39.5468 98.6331C41.3976 93.8344 41.8603 90.9084 42.398 86.2059L45.624 81.0509" stroke="#1F2223" stroke-width="0.48" stroke-linecap="round" stroke-linejoin="round"/>
<path d="M18.9221 53.4601C19.5574 51.8871 20.4172 50.4145 21.475 49.0883" stroke="#1F2223" stroke-width="0.48" stroke-linecap="round" stroke-linejoin="round"/>
<path d="M77.6244 39.1116C78.6624 39.0361 80.8491 39.3088 80.3905 38.9363C80.068 38.7264 79.7119 38.5734 79.3373 38.484C77.9045 38.0697 76.6056 38.0842 75.1348 37.9461L63.7885 37.2113L58.5859 34.2302" stroke="#1F2223" stroke-width="0.48" stroke-linecap="round" stroke-linejoin="round"/>
<path d="M43.0386 46.4926L36.8021 60.2947L27.5642 55.2852" stroke="#1F2223" stroke-width="0.48" stroke-linecap="round" stroke-linejoin="round"/>
<path d="M61.0729 14.3956C61.2023 14.764 61.2193 15.1625 61.122 15.5407C61.0252 15.9187 60.8178 16.2596 60.5268 16.52C60.2363 16.7804 59.8744 16.9487 59.4881 17.0036C59.1013 17.0586 58.7074 16.9977 58.3555 16.8286C58.0036 16.6595 57.7098 16.3899 57.5109 16.0538C57.3125 15.7177 57.2178 15.3303 57.2395 14.9405C57.2606 14.5507 57.3976 14.176 57.6318 13.8638C57.8665 13.5516 58.1882 13.316 58.5565 13.1867C59.0505 13.0136 59.5933 13.0436 60.0649 13.2703C60.5366 13.4971 60.8992 13.9018 61.0729 14.3956Z" stroke="#1F2223" stroke-width="0.48" stroke-linecap="round" stroke-linejoin="round"/>
<path d="M66.2155 12.5894C66.3449 12.9578 66.3618 13.3563 66.2645 13.7345C66.1677 14.1125 65.9604 14.4534 65.6694 14.7138C65.3789 14.9742 65.017 15.1426 64.6307 15.1974C64.2439 15.2524 63.85 15.1914 63.4981 15.0224C63.1462 14.8534 62.8523 14.5837 62.6535 14.2477C62.4551 13.9116 62.3604 13.5241 62.382 13.1343C62.4032 12.7445 62.5402 12.3698 62.7744 12.0577C63.0091 11.7454 63.3308 11.5098 63.699 11.3805C64.1931 11.2074 64.7354 11.2375 65.2075 11.4642C65.6791 11.6909 66.0418 12.0956 66.2155 12.5894Z" stroke="#1F2223" stroke-width="0.48" stroke-linecap="round" stroke-linejoin="round"/>
<path d="M71.4479 10.7482C71.5773 11.1165 71.5943 11.515 71.497 11.8932C71.4002 12.2712 71.1928 12.6121 70.9018 12.8725C70.6114 13.1329 70.2494 13.3012 69.8631 13.3562C69.4763 13.4111 69.0824 13.3502 68.7305 13.1811C68.3786 13.012 68.0848 12.7424 67.8859 12.4064C67.6875 12.0703 67.5928 11.6828 67.6145 11.293C67.6356 10.9032 67.7726 10.5285 68.0068 10.2164C68.2415 9.90416 68.5632 9.6685 68.9315 9.53921C69.4255 9.36594 69.9683 9.39596 70.4399 9.62268C70.912 9.84937 71.2747 10.2542 71.4479 10.7482Z" stroke="#1F2223" stroke-width="0.48" stroke-linecap="round" stroke-linejoin="round"/>
<path d="M14.5513 13.6417L11.8573 19.3016" stroke="#1F2223" stroke-width="0.48" stroke-linecap="round" stroke-linejoin="round"/>
<path d="M16.0353 17.8186L10.3848 15.123" stroke="#1F2223" stroke-width="0.48" stroke-linecap="round" stroke-linejoin="round"/>
<path d="M12.5391 54.1668L22.6296 83.249C22.9817 84.2396 23.5255 85.151 24.2298 85.9308C24.9343 86.7111 25.7856 87.3449 26.7351 87.796C27.6845 88.2467 28.7136 88.5062 29.7634 88.5596C30.8133 88.6125 31.8632 88.4583 32.8534 88.1054L36.6309 86.77" stroke="#1F2223" stroke-width="0.48" stroke-linecap="round" stroke-linejoin="round"/>
<path d="M88.1952 40.5956L94.2038 57.911C94.5567 58.901 94.7109 59.9511 94.658 61.001C94.6047 62.0509 94.3451 63.08 93.8945 64.0293C93.4433 64.9788 92.8096 65.8302 92.0293 66.5347C91.249 67.2392 90.338 67.7828 89.3474 68.1348L43.6049 84.3049" stroke="#1F2223" stroke-width="0.48" stroke-linecap="round" stroke-linejoin="round"/>
<path d="M35.0713 17.9215L11.2824 26.3267C10.2919 26.6788 9.38055 27.2225 8.60037 27.927C7.82018 28.6314 7.18649 29.4827 6.73547 30.4322C6.28448 31.3817 6.02497 32.4107 5.97188 33.4605C5.91878 34.5103 6.07308 35.5603 6.42597 36.5504L11.4161 50.9326" stroke="#1F2223" stroke-width="0.48" stroke-linecap="round" stroke-linejoin="round"/>
<path d="M48.4412 13.1979L67.7786 6.36545C68.7686 6.01258 69.8187 5.85827 70.8686 5.91135C71.9184 5.96444 72.9475 6.22394 73.8969 6.67493C74.8464 7.12598 75.6978 7.75964 76.4023 8.53982C77.1067 9.31999 77.6504 10.2314 78.0024 11.2219L85.6809 33.351" stroke="#1F2223" stroke-width="0.48" stroke-linecap="round" stroke-linejoin="round"/>
<path d="M38.0469 83.1751C39.3253 84.4108 40.7936 85.4336 42.3959 86.2045" stroke="#1F2223" stroke-width="0.48" stroke-linecap="round" stroke-linejoin="round"/>
</svg>
