<svg width="1728" height="1117" viewBox="0 0 1728 1117" fill="none" xmlns="http://www.w3.org/2000/svg">
<rect width="1728" height="1117" rx="24" fill="#F5F2EA"/>
<path d="M89 870H1638.5" stroke="black"/>
<rect x="134" y="668" width="139" height="191" rx="24" fill="#FDDE92"/>
<rect x="134" y="668" width="139" height="191" rx="24" fill="#FDDE92"/>
<rect x="305.5" y="727.5" width="132" height="131" fill="white" stroke="black"/>
<rect x="1302.5" y="582.5" width="149" height="95" stroke="black"/>
<path d="M1451.03 582L1451 521L1405.03 582.023" stroke="#FDC886"/>
<path d="M1348 613.488L1428 613" stroke="black"/>
<path d="M1326 644H1427.5" stroke="black"/>
<circle cx="417" cy="610" r="7.5" stroke="black"/>
<circle cx="1610" cy="378" r="7.5" stroke="black"/>
<circle cx="1527" cy="811" r="7.5" stroke="black"/>
<path d="M118 377.431C191.775 417.106 207.233 303.894 281 343.569" stroke="black" stroke-width="1.1" stroke-linecap="round" stroke-linejoin="round"/>
<path d="M1481 458.431C1554.78 498.106 1570.23 384.894 1644 424.569" stroke="black" stroke-width="1.1" stroke-linecap="round" stroke-linejoin="round"/>
<path d="M261.48 472.892L291.883 456.37L265.665 478.967L274.306 491.507C274.589 491.914 274.965 492.248 275.404 492.479C275.842 492.711 276.329 492.834 276.825 492.839C277.321 492.844 277.811 492.729 278.253 492.506C278.696 492.282 279.078 491.956 279.369 491.554L313.265 445.215C313.638 444.695 313.841 444.073 313.847 443.433C313.854 442.794 313.662 442.168 313.3 441.642C312.937 441.115 312.421 440.713 311.821 440.49C311.222 440.267 310.568 440.235 309.95 440.398L254.54 455.584C254.063 455.712 253.624 455.951 253.259 456.284C252.895 456.616 252.615 457.031 252.443 457.493C252.272 457.956 252.214 458.453 252.274 458.942C252.333 459.432 252.51 459.9 252.788 460.308L261.48 472.892Z" fill="#FDC886"/>
<path d="M202.766 668.091C202.766 668.091 172.417 648.487 164.196 632.346C155.974 616.204 178.642 599.315 189.2 620.096C199.932 641.201 202.766 668.091 202.766 668.091Z" stroke="black" stroke-width="1.1" stroke-linecap="round" stroke-linejoin="round"/>
<path d="M1310.24 749.832C1288.04 737.761 1283.21 771.859 1261.01 759.789" stroke="black" stroke-width="1.1" stroke-linecap="round" stroke-linejoin="round"/>
<path d="M203.413 668.478C203.413 668.478 234.796 650.616 243.92 634.93C253.045 619.244 231.333 601.184 219.66 621.298C207.742 641.791 203.413 668.478 203.413 668.478Z" stroke="black" stroke-width="1.1" stroke-linecap="round" stroke-linejoin="round"/>
<rect x="191.5" y="668.5" width="23" height="190" fill="#F5F2EA" stroke="black"/>
</svg>
