<svg width="1728" height="1117" viewBox="0 0 1728 1117" fill="none" xmlns="http://www.w3.org/2000/svg">
<rect width="1728" height="1117" rx="24" fill="#F5F2EA"/>
<path d="M1230 570.598C1257.68 590.836 1270.96 545.912 1298.7 566.314" stroke="black" stroke-width="1.1" stroke-linecap="round" stroke-linejoin="round"/>
<path d="M89 870H1638.5" stroke="black"/>
<path d="M1625.65 399L1619.23 423.883" stroke="black" stroke-width="1.1" stroke-linecap="round" stroke-linejoin="round"/>
<path d="M1634.88 414.695L1610 408.231" stroke="black" stroke-width="1.1" stroke-linecap="round" stroke-linejoin="round"/>
<path d="M1504.65 544L1498.23 568.883" stroke="black" stroke-width="1.1" stroke-linecap="round" stroke-linejoin="round"/>
<path d="M1513.88 559.695L1489 553.231" stroke="black" stroke-width="1.1" stroke-linecap="round" stroke-linejoin="round"/>
<path d="M1389.65 428L1383.23 452.883" stroke="black" stroke-width="1.1" stroke-linecap="round" stroke-linejoin="round"/>
<path d="M1398.88 443.695L1374 437.232" stroke="black" stroke-width="1.1" stroke-linecap="round" stroke-linejoin="round"/>
<path d="M1563.46 302.194C1563.67 302.444 1563.89 302.671 1564.12 302.919C1566.63 305.422 1570 306.878 1573.55 306.993C1577.09 307.108 1580.55 305.873 1583.22 303.538C1585.89 301.203 1587.57 297.942 1587.93 294.413C1588.29 290.885 1587.29 287.352 1585.15 284.529C1583 281.705 1579.86 279.801 1576.37 279.202C1572.87 278.602 1569.28 279.351 1566.31 281.298C1563.35 283.246 1561.23 286.245 1560.4 289.691C1559.56 293.137 1560.06 296.773 1561.8 299.864" fill="#FDC886"/>
<path d="M1528 486.807C1549.42 502.468 1559.7 467.706 1581.16 483.493" stroke="black" stroke-width="1.1" stroke-linecap="round" stroke-linejoin="round"/>
<rect x="1203.5" y="742.5" width="153" height="112" fill="white" stroke="black"/>
<path d="M1276.77 742.091C1276.77 742.091 1246.42 722.487 1238.2 706.346C1229.97 690.204 1252.64 673.315 1263.2 694.096C1273.93 715.201 1276.77 742.091 1276.77 742.091Z" stroke="black" stroke-width="1.1" stroke-linecap="round" stroke-linejoin="round"/>
<path d="M1277.41 742.478C1277.41 742.478 1308.8 724.616 1317.92 708.93C1327.05 693.244 1305.33 675.184 1293.66 695.298C1281.74 715.791 1277.41 742.478 1277.41 742.478Z" stroke="black" stroke-width="1.1" stroke-linecap="round" stroke-linejoin="round"/>
<path d="M1405 644H1622V855H1405V644Z" fill="#FDDE92"/>
<path d="M1566.24 686.975C1566.38 687.144 1566.53 687.298 1566.69 687.466C1568.39 689.161 1570.67 690.148 1573.08 690.225C1575.48 690.303 1577.82 689.467 1579.63 687.885C1581.44 686.304 1582.58 684.095 1582.82 681.705C1583.06 679.315 1582.39 676.922 1580.94 675.009C1579.48 673.096 1577.36 671.807 1574.99 671.401C1572.62 670.994 1570.18 671.502 1568.18 672.821C1566.17 674.14 1564.73 676.172 1564.16 678.506C1563.6 680.84 1563.94 683.303 1565.11 685.397" fill="black"/>
<path d="M1582.84 752.172C1582.98 752.341 1583.13 752.495 1583.29 752.663C1584.99 754.358 1587.27 755.344 1589.68 755.422C1592.08 755.5 1594.42 754.663 1596.23 753.082C1598.04 751.5 1599.18 749.291 1599.42 746.901C1599.66 744.511 1598.99 742.118 1597.54 740.206C1596.08 738.293 1593.96 737.003 1591.59 736.597C1589.22 736.191 1586.78 736.699 1584.78 738.018C1582.77 739.336 1581.33 741.368 1580.77 743.702C1580.2 746.037 1580.54 748.499 1581.72 750.593" fill="black"/>
<path d="M1464.26 726.093C1464.4 726.262 1464.55 726.416 1464.71 726.584C1466.41 728.279 1468.7 729.266 1471.1 729.343C1473.5 729.421 1475.84 728.585 1477.65 727.003C1479.46 725.422 1480.6 723.213 1480.84 720.823C1481.09 718.433 1480.41 716.04 1478.96 714.127C1477.5 712.214 1475.38 710.925 1473.01 710.519C1470.64 710.112 1468.2 710.62 1466.2 711.939C1464.19 713.258 1462.75 715.29 1462.19 717.624C1461.62 719.958 1461.96 722.421 1463.14 724.515" fill="black"/>
<path d="M1533.04 786.548C1533.18 786.717 1533.33 786.871 1533.49 787.039C1535.19 788.734 1537.47 789.721 1539.87 789.798C1542.28 789.876 1544.62 789.04 1546.43 787.458C1548.23 785.877 1549.38 783.668 1549.62 781.278C1549.86 778.888 1549.19 776.495 1547.73 774.582C1546.28 772.669 1544.15 771.38 1541.78 770.974C1539.42 770.567 1536.98 771.075 1534.97 772.394C1532.96 773.713 1531.53 775.745 1530.96 778.079C1530.39 780.413 1530.73 782.876 1531.91 784.97" fill="black"/>
<path d="M1492.72 826.852C1492.86 827.02 1493.01 827.175 1493.17 827.342C1494.87 829.038 1497.15 830.024 1499.56 830.102C1501.96 830.18 1504.3 829.343 1506.11 827.762C1507.92 826.18 1509.06 823.971 1509.3 821.581C1509.54 819.191 1508.87 816.798 1507.42 814.885C1505.96 812.973 1503.84 811.683 1501.47 811.277C1499.1 810.871 1496.66 811.379 1494.66 812.697C1492.65 814.016 1491.21 816.048 1490.65 818.382C1490.08 820.716 1490.42 823.179 1491.6 825.273" fill="black"/>
<path d="M1499.84 681.048C1499.98 681.217 1500.13 681.371 1500.28 681.539C1501.99 683.234 1504.27 684.221 1506.67 684.298C1509.07 684.376 1511.41 683.54 1513.22 681.958C1515.03 680.377 1516.17 678.168 1516.42 675.778C1516.66 673.388 1515.99 670.995 1514.53 669.082C1513.08 667.169 1510.95 665.88 1508.58 665.474C1506.21 665.067 1503.78 665.575 1501.77 666.894C1499.76 668.213 1498.33 670.245 1497.76 672.579C1497.19 674.913 1497.53 677.376 1498.71 679.47" fill="black"/>
<path d="M1487.98 772.323C1488.12 772.492 1488.27 772.646 1488.43 772.814C1490.13 774.51 1492.41 775.496 1494.81 775.574C1497.22 775.651 1499.56 774.815 1501.37 773.233C1503.17 771.652 1504.32 769.443 1504.56 767.053C1504.8 764.663 1504.13 762.27 1502.67 760.357C1501.22 758.445 1499.09 757.155 1496.72 756.749C1494.36 756.343 1491.92 756.85 1489.91 758.169C1487.9 759.488 1486.47 761.52 1485.9 763.854C1485.33 766.188 1485.67 768.651 1486.85 770.745" fill="black"/>
<path d="M1527.11 732.02C1527.25 732.189 1527.4 732.343 1527.56 732.511C1529.26 734.206 1531.54 735.193 1533.94 735.27C1536.35 735.348 1538.69 734.512 1540.5 732.93C1542.31 731.349 1543.45 729.14 1543.69 726.75C1543.93 724.359 1543.26 721.966 1541.8 720.054C1540.35 718.141 1538.22 716.852 1535.86 716.446C1533.49 716.039 1531.05 716.547 1529.04 717.866C1527.04 719.185 1525.6 721.217 1525.03 723.551C1524.47 725.885 1524.81 728.348 1525.98 730.442" fill="black"/>
<path d="M1566.24 823.295C1566.38 823.464 1566.53 823.618 1566.69 823.786C1568.39 825.482 1570.67 826.468 1573.08 826.546C1575.48 826.623 1577.82 825.787 1579.63 824.205C1581.44 822.624 1582.58 820.415 1582.82 818.025C1583.06 815.635 1582.39 813.242 1580.94 811.329C1579.48 809.417 1577.36 808.127 1574.99 807.721C1572.62 807.315 1570.18 807.822 1568.18 809.141C1566.17 810.46 1564.73 812.492 1564.16 814.826C1563.6 817.16 1563.94 819.623 1565.11 821.717" fill="black"/>
<path d="M1447.66 807.885C1447.8 808.054 1447.95 808.208 1448.11 808.376C1449.81 810.072 1452.09 811.058 1454.5 811.135C1456.9 811.213 1459.24 810.377 1461.05 808.795C1462.86 807.214 1464 805.005 1464.24 802.615C1464.48 800.225 1463.81 797.832 1462.36 795.919C1460.9 794.006 1458.78 792.717 1456.41 792.311C1454.04 791.905 1451.6 792.412 1449.6 793.731C1447.59 795.05 1446.15 797.082 1445.59 799.416C1445.02 801.75 1445.36 804.213 1446.54 806.307" fill="black"/>
<path d="M1431.06 684.604C1431.2 684.773 1431.35 684.927 1431.51 685.095C1433.21 686.791 1435.49 687.777 1437.9 687.855C1440.3 687.932 1442.64 687.096 1444.45 685.514C1446.26 683.933 1447.4 681.724 1447.64 679.334C1447.88 676.944 1447.21 674.551 1445.75 672.638C1444.3 670.726 1442.17 669.436 1439.81 669.03C1437.44 668.624 1435 669.131 1432.99 670.45C1430.99 671.769 1429.55 673.801 1428.98 676.135C1428.42 678.469 1428.76 680.932 1429.93 683.026" fill="black"/>
<g clip-path="url(#clip0_884_3265)">
<path d="M263.167 573.021C257.227 580.06 236.386 587.924 225.082 642.538L190.607 620.962C178.077 630.344 169.497 644.062 166.543 659.434L218.382 691.851C224.384 695.59 231.623 696.795 238.513 695.203C245.403 693.612 251.38 689.353 255.133 683.36L270.081 659.448L271.262 709.646L246.951 748.583C256.855 760.561 270.37 769.015 285.476 772.68L311.226 731.522C315.039 725.43 317.271 718.483 317.721 711.309C319.571 680.89 308.193 629.78 304.93 584.604C286.296 584.396 278.894 581.472 263.167 573.021Z" fill="#FDC886"/>
<path d="M514.121 439.65L509.495 531.791L468.303 593.938L472.929 501.797L514.121 439.65Z" fill="#CFD181" stroke="#CFD181"/>
<path d="M342.107 540.651C341.346 540.315 340.235 540.932 338.879 542.294L342.987 544.622C343.215 542.426 342.96 540.971 342.107 540.651Z" fill="#1F2223"/>
<path d="M314.891 574.238C314.363 576.862 314.851 578.903 315.675 579.257C316.5 579.611 318.548 578.755 319.658 576.638L314.891 574.238Z" fill="#1F2223"/>
<path d="M331.049 544.648C330.287 544.312 329.176 544.929 327.82 546.291L331.929 548.619C332.157 546.47 331.854 545.022 331.049 544.648Z" fill="#1F2223"/>
<path d="M254.826 735.67L246.73 748.617C256.634 760.595 270.149 769.048 285.255 772.714L293.716 759.188C278.781 755.201 265.292 747.045 254.826 735.67Z" fill="#1F2223"/>
<path d="M283.82 560.597L305.222 583.804L308.263 574.929L283.82 560.597Z" fill="#1F2223"/>
<path d="M289.521 491.636L292.715 496.234L293.392 492.6L289.521 491.636Z" fill="#1F2223"/>
<path d="M298.504 613.992L270.04 659.468L270.664 684.2L298.504 613.992Z" fill="#1F2223"/>
<path d="M201.935 627.839L190.571 620.699C178.055 630.093 169.478 643.806 166.507 659.171L178.034 666.389C182.567 651.702 190.797 638.429 201.935 627.839Z" fill="#1F2223"/>
<path d="M304.353 458.529C304.354 457.393 303.949 456.294 303.213 455.429C302.48 454.563 301.459 453.987 300.339 453.804C300.909 453.056 301.247 452.159 301.315 451.221C301.383 450.283 301.175 449.346 300.716 448.526C300.259 447.705 299.569 447.036 298.738 446.6C297.905 446.164 296.962 445.982 296.026 446.074C296.262 445.207 296.255 444.291 296 443.428C295.748 442.565 295.26 441.79 294.592 441.187C293.924 440.585 293.103 440.18 292.219 440.017C291.334 439.854 290.422 439.94 289.583 440.265C289.541 439.362 289.245 438.49 288.731 437.748C288.216 437.005 287.504 436.422 286.675 436.064C285.845 435.706 284.931 435.588 284.04 435.723C283.146 435.859 282.31 436.242 281.623 436.829C281.302 435.951 280.735 435.184 279.99 434.62C279.244 434.056 278.351 433.719 277.419 433.65C276.487 433.58 275.554 433.781 274.733 434.229C273.912 434.676 273.237 435.351 272.79 436.172C272.204 435.379 271.401 434.775 270.477 434.432C269.553 434.088 268.55 434.022 267.589 434.239C266.628 434.457 265.751 434.95 265.065 435.658C264.38 436.366 263.915 437.258 263.728 438.226C263.077 437.742 262.315 437.431 261.512 437.319C260.709 437.208 259.891 437.3 259.133 437.588C258.375 437.876 257.702 438.35 257.176 438.967C256.649 439.583 256.286 440.322 256.12 441.115C256 439.965 255.552 438.872 254.832 437.967C254.111 437.061 253.147 436.381 252.053 436.004C250.958 435.628 249.78 435.573 248.655 435.844C247.53 436.115 246.506 436.702 245.703 437.535C244.995 436.46 243.977 435.627 242.783 435.147C241.589 434.666 240.277 434.562 239.022 434.848C237.767 435.134 236.629 435.796 235.761 436.746C234.893 437.696 234.336 438.888 234.163 440.163C233.012 439.716 231.752 439.632 230.551 439.922C229.351 440.213 228.269 440.864 227.45 441.789C226.631 442.713 226.115 443.866 225.971 445.093C225.827 446.32 226.063 447.561 226.646 448.65C225.453 449 224.396 449.711 223.621 450.684C222.845 451.657 222.389 452.845 222.313 454.087C222.238 455.329 222.547 456.564 223.198 457.624C223.85 458.683 224.812 459.517 225.955 460.01C225.131 460.955 224.621 462.132 224.495 463.378C224.369 464.625 224.633 465.881 225.25 466.971C225.868 468.062 226.809 468.933 227.943 469.466C229.078 469.999 230.349 470.167 231.583 469.946C231.543 471.175 231.879 472.387 232.546 473.42C233.213 474.453 234.18 475.258 235.317 475.727C236.454 476.196 237.707 476.306 238.908 476.043C240.109 475.781 241.202 475.157 242.039 474.257C242.594 475.171 243.387 475.916 244.334 476.413C245.28 476.909 246.344 477.137 247.411 477.072C247.338 477.785 247.424 478.505 247.663 479.18C247.902 479.856 248.289 480.47 248.794 480.977C249.3 481.485 249.912 481.874 250.586 482.116C251.261 482.358 251.981 482.447 252.694 482.377C252.454 483.248 252.463 484.168 252.72 485.034C252.977 485.899 253.472 486.676 254.148 487.275C254.823 487.874 255.653 488.272 256.543 488.423C257.434 488.574 258.348 488.474 259.184 488.132C259.234 489.034 259.537 489.904 260.057 490.644C260.577 491.383 261.294 491.962 262.126 492.314C262.958 492.666 263.873 492.778 264.766 492.637C265.659 492.495 266.494 492.107 267.177 491.514C267.498 492.393 268.066 493.16 268.814 493.723C269.562 494.286 270.457 494.619 271.391 494.684C272.324 494.749 273.256 494.542 274.075 494.088C274.893 493.634 275.562 492.953 276.002 492.126C276.719 492.849 277.583 493.408 278.536 493.767C279.488 494.126 280.506 494.276 281.522 494.207C282.564 491.189 283.071 488.011 283.019 484.818C282.972 481.566 281.814 478.427 279.737 475.924C272.57 474.881 274.225 466.389 279.36 468.678C281.805 469.797 282.617 469.557 282.535 468.076C282.475 467.655 282.529 467.225 282.693 466.832C282.858 466.439 283.125 466.098 283.467 465.846C284.021 466.628 284.793 467.229 285.688 467.573C286.581 467.918 287.558 467.99 288.493 467.782C289.429 467.573 290.282 467.092 290.943 466.401C291.606 465.709 292.051 464.836 292.219 463.893C292.741 464.281 293.335 464.561 293.966 464.715C294.598 464.87 295.253 464.896 295.894 464.793C296.537 464.689 297.15 464.458 297.702 464.113C298.253 463.767 298.729 463.315 299.102 462.782C300.691 465.236 302.028 467.845 303.089 470.569C303.704 470.065 304.188 469.417 304.493 468.683C304.801 467.948 304.923 467.15 304.849 466.358C304.774 465.565 304.508 464.803 304.071 464.138C303.634 463.473 303.04 462.926 302.341 462.544C302.965 462.077 303.471 461.471 303.82 460.774C304.17 460.077 304.353 459.308 304.353 458.529Z" fill="#1F2223"/>
<path d="M401.404 428.146C400.775 426.356 399.631 424.792 398.114 423.652C396.595 422.513 394.774 421.849 392.881 421.744C390.986 421.64 389.102 422.1 387.47 423.065C385.836 424.031 384.527 425.459 383.703 427.169C382.883 428.88 382.586 430.795 382.853 432.674C383.12 434.552 383.938 436.309 385.204 437.723C386.47 439.136 388.127 440.143 389.963 440.615C391.802 441.087 393.739 441.004 395.529 440.376C397.927 439.531 399.893 437.769 400.994 435.476C402.095 433.183 402.243 430.547 401.404 428.146Z" fill="#1F2223"/>
<path d="M421.333 573.954L421.312 573.916L421.333 573.954Z" fill="#1F2223"/>
<path d="M436.629 547.786L426.36 561.16C430.811 561.317 435.229 562.008 439.516 563.217C441.316 563.638 443.03 564.369 444.581 565.378C446.82 567.189 436.283 565.892 431.274 566.206L431.228 566.214C432.313 566.563 433.336 567.08 434.262 567.745C436.198 569.309 423.128 567.29 422.167 568.268C427.27 569.578 435.301 572.345 437.625 575.184C440.378 578.593 428.331 572.964 421.333 573.954C426.103 575.229 431.425 577.253 433.71 580.134C436.829 584.029 426.897 577.626 416.654 579.087L416.608 579.095C427.375 583.305 432.773 587.369 417.898 583.791C415.165 583.101 412.337 582.867 409.528 583.099L386.185 613.371L467.673 595.835L470.433 540.607L436.629 547.786Z" fill="#CFD181"/>
<path d="M304.352 458.529C304.353 457.393 303.948 456.294 303.212 455.429C302.479 454.563 301.458 453.987 300.338 453.804C300.908 453.056 301.246 452.159 301.314 451.221C301.382 450.283 301.174 449.346 300.715 448.526C300.258 447.705 299.568 447.036 298.737 446.6C297.904 446.164 296.961 445.982 296.025 446.074C296.261 445.207 296.254 444.291 295.999 443.428C295.747 442.565 295.259 441.79 294.591 441.187C293.923 440.585 293.102 440.18 292.218 440.017C291.333 439.854 290.421 439.94 289.582 440.265C289.54 439.362 289.244 438.49 288.73 437.748C288.215 437.005 287.503 436.422 286.674 436.064C285.844 435.706 284.93 435.588 284.039 435.723C283.145 435.859 282.309 436.242 281.622 436.829C281.301 435.951 280.734 435.184 279.989 434.62C279.243 434.056 278.35 433.719 277.418 433.65C276.486 433.58 275.553 433.781 274.732 434.229C273.911 434.676 273.236 435.351 272.789 436.172C272.203 435.379 271.4 434.775 270.476 434.432C269.552 434.088 268.549 434.022 267.588 434.239C266.627 434.457 265.75 434.95 265.064 435.658C264.379 436.366 263.914 437.258 263.727 438.226C263.076 437.742 262.314 437.431 261.511 437.319C260.708 437.208 259.89 437.3 259.132 437.588C258.374 437.876 257.701 438.35 257.175 438.967C256.648 439.583 256.285 440.322 256.119 441.116C255.999 439.965 255.551 438.872 254.831 437.967C254.11 437.061 253.146 436.381 252.052 436.004C250.957 435.628 249.779 435.573 248.654 435.844C247.529 436.115 246.505 436.702 245.702 437.535C244.994 436.46 243.976 435.627 242.782 435.147C241.588 434.666 240.276 434.562 239.021 434.848C237.766 435.134 236.628 435.796 235.76 436.746C234.892 437.696 234.335 438.888 234.163 440.163C233.011 439.716 231.751 439.632 230.551 439.922C229.35 440.213 228.268 440.864 227.449 441.789C226.63 442.713 226.114 443.866 225.97 445.093C225.827 446.32 226.062 447.561 226.645 448.65C225.452 449 224.395 449.711 223.62 450.684C222.844 451.657 222.388 452.845 222.312 454.087C222.237 455.329 222.546 456.564 223.197 457.624C223.849 458.683 224.811 459.517 225.954 460.01C225.13 460.955 224.62 462.132 224.494 463.378C224.368 464.625 224.632 465.881 225.249 466.971C225.867 468.062 226.808 468.933 227.942 469.466C229.077 469.999 230.349 470.167 231.582 469.946C231.542 471.175 231.878 472.387 232.545 473.42C233.212 474.453 234.179 475.258 235.316 475.727C236.453 476.196 237.706 476.306 238.907 476.043C240.108 475.781 241.201 475.157 242.039 474.257C242.593 475.171 243.386 475.916 244.333 476.413C245.279 476.909 246.344 477.137 247.41 477.072C247.337 477.785 247.423 478.505 247.662 479.18C247.901 479.856 248.288 480.47 248.793 480.977C249.299 481.485 249.911 481.874 250.585 482.116C251.26 482.358 251.98 482.447 252.693 482.377C252.453 483.248 252.462 484.168 252.719 485.034C252.976 485.899 253.471 486.676 254.147 487.275C254.822 487.874 255.652 488.272 256.542 488.423C257.433 488.574 258.348 488.474 259.183 488.132C259.233 489.034 259.536 489.904 260.056 490.644C260.576 491.383 261.293 491.962 262.125 492.314C262.957 492.666 263.872 492.778 264.765 492.637C265.658 492.495 266.493 492.107 267.176 491.514C267.497 492.393 268.066 493.16 268.813 493.723C269.561 494.286 270.456 494.619 271.39 494.684C272.323 494.749 273.256 494.542 274.074 494.088C274.892 493.634 275.561 492.953 276.001 492.126C276.718 492.849 277.582 493.408 278.535 493.767C279.487 494.126 280.505 494.276 281.521 494.207C282.563 491.189 283.07 488.011 283.018 484.818C282.971 481.566 281.813 478.427 279.736 475.924C272.57 474.881 274.224 466.389 279.359 468.678C281.804 469.797 282.616 469.557 282.534 468.076C282.474 467.655 282.528 467.225 282.692 466.832C282.857 466.439 283.124 466.098 283.466 465.846C284.02 466.628 284.792 467.229 285.687 467.573C286.58 467.918 287.557 467.99 288.492 467.782C289.428 467.573 290.281 467.092 290.942 466.401C291.606 465.709 292.05 464.836 292.218 463.893C292.74 464.281 293.334 464.561 293.965 464.715C294.597 464.87 295.253 464.896 295.893 464.793C296.536 464.689 297.149 464.458 297.701 464.113C298.252 463.767 298.728 463.315 299.101 462.782C300.69 465.236 302.027 467.845 303.088 470.569C303.703 470.065 304.187 469.417 304.492 468.683C304.8 467.948 304.922 467.15 304.848 466.358C304.773 465.565 304.507 464.803 304.07 464.138C303.633 463.473 303.039 462.926 302.34 462.544C302.964 462.077 303.47 461.471 303.819 460.774C304.169 460.077 304.352 459.308 304.352 458.529Z" stroke="#1F2223" stroke-width="1.1" stroke-linejoin="round"/>
<path d="M305.137 487.404L436.899 440.825" stroke="#1F2223" stroke-width="1.1" stroke-linecap="round" stroke-linejoin="round"/>
<path d="M88.9201 563.756L280.948 495.948" stroke="#1F2223" stroke-width="1.1" stroke-linecap="round" stroke-linejoin="round"/>
<path d="M295.052 511.198L342.152 540.643" stroke="#1F2223" stroke-width="1.1" stroke-linecap="round" stroke-linejoin="round"/>
<path d="M343.034 544.614C343.222 542.472 342.969 541.011 342.152 540.643C341.392 540.302 340.228 540.925 338.879 542.294C336.888 544.522 335.164 546.977 333.744 549.607" stroke="#1F2223" stroke-width="1.1" stroke-linecap="round" stroke-linejoin="round"/>
<path d="M182.367 628.262C164.855 618.717 163.518 618.576 148.998 607.383C123.893 615.524 97.0657 629.076 86.0536 636.861C105.591 640.58 125.709 639.941 144.972 634.991L169.132 650.123" stroke="#1F2223" stroke-width="1.1" stroke-linecap="round" stroke-linejoin="round"/>
<path d="M281.469 513.668L331.086 544.641" stroke="#1F2223" stroke-width="1.1" stroke-linecap="round" stroke-linejoin="round"/>
<path d="M315.675 579.256L283.819 560.597L305.194 583.801" stroke="#1F2223" stroke-width="1.1" stroke-linecap="round" stroke-linejoin="round"/>
<path d="M415.581 567.066C417.32 567.137 433.602 569.814 437.824 574.986C440.646 578.427 428.432 572.739 421.343 573.745" stroke="#1F2223" stroke-width="1.1" stroke-linecap="round" stroke-linejoin="round"/>
<path d="M414.957 572.341C419.503 573.139 430.384 575.647 433.873 580C437.032 583.952 427.014 577.45 416.627 578.939" stroke="#1F2223" stroke-width="1.1" stroke-linecap="round" stroke-linejoin="round"/>
<path d="M414.777 578.278C426.707 582.706 433.695 587.515 417.887 583.734C409.72 581.78 354.067 589.789 354.067 589.789C349.12 590.136 344.171 589.174 339.715 586.998L314.882 574.188" stroke="#1F2223" stroke-width="1.1" stroke-linecap="round" stroke-linejoin="round"/>
<path d="M327.812 546.292L353.558 562.177C353.558 562.177 411.237 562.868 415.725 563.34C420.214 563.813 430.905 564.617 434.5 567.509C436.412 569.047 427.088 567.446 421.715 568.105" stroke="#1F2223" stroke-width="1.1" stroke-linecap="round" stroke-linejoin="round"/>
<path d="M331.969 548.612C332.156 546.47 331.903 545.009 331.087 544.641C330.326 544.301 329.163 544.926 327.813 546.292C322.304 551.871 315.38 567.39 314.755 575.34C314.603 577.29 314.984 578.958 315.675 579.256C316.477 579.61 318.433 578.68 319.665 576.684" stroke="#1F2223" stroke-width="1.1" stroke-linecap="round" stroke-linejoin="round"/>
<path d="M248.776 606.239C259.837 604.781 270.05 599.532 277.675 591.388" stroke="#1F2223" stroke-width="1.1" stroke-linecap="round" stroke-linejoin="round"/>
<path d="M304.931 584.558L308.262 574.928" stroke="#1F2223" stroke-width="1.1" stroke-linecap="round" stroke-linejoin="round"/>
<path d="M293.567 507.003C291.329 511.895 285.492 510.947 276.616 504.953" stroke="#1F2223" stroke-width="1.1" stroke-linecap="round" stroke-linejoin="round"/>
<path d="M270.042 659.519L298.504 613.992L270.664 684.2" stroke="#1F2223" stroke-width="1.1" stroke-linecap="round" stroke-linejoin="round"/>
<path d="M218.373 691.801C221.343 693.657 224.65 694.912 228.105 695.489C231.56 696.066 235.095 695.958 238.508 695.169C241.921 694.382 245.145 692.927 247.996 690.894C250.847 688.859 253.269 686.281 255.124 683.31L270.032 659.521L271.259 709.631L246.948 748.569C256.852 760.547 270.367 769 285.473 772.666L311.216 731.462C315.028 725.371 317.26 718.423 317.71 711.25C319.562 680.829 308.174 629.675 304.919 584.545C286.23 584.346 278.828 581.422 263.147 572.963C255.381 581.029 236.351 589.336 225.067 642.494L190.599 620.916C178.082 630.31 169.505 644.023 166.534 659.388L218.373 691.801Z" stroke="#1F2223" stroke-width="1.1" stroke-linecap="round" stroke-linejoin="round"/>
<path d="M293.317 492.539C292.035 492.3 290.768 491.983 289.524 491.589L292.714 496.212" stroke="#1F2223" stroke-width="1.1" stroke-linecap="round" stroke-linejoin="round"/>
<path d="M301.098 525.936C296.055 516.852 290.687 502.553 293.305 492.541C311.63 495.845 306.266 473.775 299.157 462.859M263.139 572.932C264.01 566.512 264.225 560.02 263.78 553.556C263.23 543.588 264.404 533.599 267.249 524.03C269.959 514.278 278.345 504.256 281.696 493.802C282.743 490.908 283.19 487.832 283.013 484.76C282.967 481.507 281.808 478.369 279.731 475.866C272.564 474.823 274.23 466.309 279.354 468.62C281.805 469.728 282.647 469.497 282.529 468.018C282.519 467.231 282.545 466.476 282.605 465.754" stroke="#1F2223" stroke-width="1.1" stroke-linecap="round" stroke-linejoin="round"/>
<path d="M255.053 735.631C265.52 747.007 279.013 755.166 293.951 759.152" stroke="#1F2223" stroke-width="1.1" stroke-linecap="round" stroke-linejoin="round"/>
<path d="M177.985 666.432C183.196 651.212 190.752 638.138 201.92 628.029" stroke="#1F2223" stroke-width="1.1" stroke-linecap="round" stroke-linejoin="round"/>
<path d="M253.812 755.862C246.255 769.271 239.27 779.981 231.621 791.381C231.706 806.6 238.823 840.32 246.359 855.266C255.354 831.945 257.603 817.724 260.216 794.87L275.894 769.817" stroke="#1F2223" stroke-width="1.1" stroke-linecap="round" stroke-linejoin="round"/>
<path d="M146.131 635.726C149.218 628.081 153.397 620.924 158.537 614.479" stroke="#1F2223" stroke-width="1.1" stroke-linecap="round" stroke-linejoin="round"/>
<path d="M431.423 565.992C436.468 565.625 447.095 566.951 444.867 565.14C443.3 564.12 441.568 563.377 439.748 562.942C432.785 560.929 426.472 560.999 419.324 560.328L364.181 556.757L338.896 542.269" stroke="#1F2223" stroke-width="1.1" stroke-linecap="round" stroke-linejoin="round"/>
<path d="M263.338 601.864L233.029 668.942L188.132 644.596" stroke="#1F2223" stroke-width="1.1" stroke-linecap="round" stroke-linejoin="round"/>
<path d="M350.977 445.873C351.606 447.663 351.689 449.599 351.216 451.437C350.745 453.275 349.737 454.931 348.323 456.197C346.912 457.462 345.153 458.281 343.275 458.547C341.395 458.815 339.481 458.518 337.771 457.697C336.061 456.875 334.632 455.565 333.666 453.931C332.702 452.298 332.242 450.415 332.347 448.52C332.45 446.626 333.115 444.805 334.254 443.288C335.394 441.771 336.958 440.625 338.747 439.997C341.148 439.156 343.786 439.302 346.079 440.404C348.371 441.505 350.133 443.472 350.977 445.873Z" stroke="#1F2223" stroke-width="1.1" stroke-linecap="round" stroke-linejoin="round"/>
<path d="M375.971 437.094C376.599 438.885 376.682 440.821 376.209 442.659C375.738 444.497 374.731 446.153 373.316 447.419C371.905 448.684 370.146 449.503 368.268 449.769C366.388 450.037 364.474 449.74 362.764 448.919C361.054 448.097 359.626 446.787 358.659 445.153C357.695 443.52 357.235 441.637 357.34 439.742C357.443 437.848 358.108 436.027 359.247 434.51C360.387 432.993 361.951 431.847 363.74 431.219C366.142 430.378 368.777 430.524 371.072 431.626C373.364 432.727 375.126 434.694 375.971 437.094Z" stroke="#1F2223" stroke-width="1.1" stroke-linecap="round" stroke-linejoin="round"/>
<path d="M401.403 428.146C402.032 429.936 402.114 431.873 401.642 433.711C401.171 435.548 400.163 437.205 398.749 438.47C397.337 439.736 395.579 440.554 393.701 440.821C391.821 441.088 389.907 440.792 388.197 439.97C386.486 439.148 385.058 437.838 384.092 436.205C383.128 434.571 382.667 432.688 382.773 430.794C382.875 428.899 383.541 427.078 384.679 425.561C385.82 424.044 387.384 422.899 389.173 422.27C391.574 421.428 394.212 421.574 396.504 422.676C398.799 423.778 400.561 425.745 401.403 428.146Z" stroke="#1F2223" stroke-width="1.1" stroke-linecap="round" stroke-linejoin="round"/>
<path d="M124.887 442.208L111.794 469.715" stroke="#1F2223" stroke-width="1.1" stroke-linecap="round" stroke-linejoin="round"/>
<path d="M132.093 462.508L104.632 449.408" stroke="#1F2223" stroke-width="1.1" stroke-linecap="round" stroke-linejoin="round"/>
<path d="M115.104 639.16L164.145 780.5C165.856 785.314 168.498 789.744 171.922 793.534C175.345 797.326 179.483 800.406 184.097 802.598C188.711 804.789 193.713 806.05 198.815 806.309C203.917 806.566 209.02 805.817 213.832 804.102L232.191 797.612" stroke="#1F2223" stroke-width="1.1" stroke-linecap="round" stroke-linejoin="round"/>
<path d="M482.792 573.205L511.994 657.357C513.709 662.169 514.459 667.272 514.202 672.375C513.942 677.477 512.681 682.479 510.491 687.092C508.298 691.707 505.218 695.845 501.426 699.269C497.634 702.692 493.206 705.334 488.392 707.045L266.083 785.632" stroke="#1F2223" stroke-width="1.1" stroke-linecap="round" stroke-linejoin="round"/>
<path d="M224.615 463.008L109.001 503.857C104.187 505.568 99.7582 508.211 95.9665 511.635C92.1748 515.058 89.095 519.196 86.903 523.81C84.7112 528.425 83.45 533.426 83.192 538.528C82.934 543.63 83.6838 548.733 85.3989 553.545L109.651 623.442" stroke="#1F2223" stroke-width="1.1" stroke-linecap="round" stroke-linejoin="round"/>
<path d="M289.589 440.051L383.569 406.846C388.38 405.131 393.484 404.381 398.586 404.639C403.688 404.897 408.69 406.158 413.304 408.35C417.918 410.542 422.056 413.622 425.48 417.413C428.903 421.205 431.546 425.634 433.256 430.448L470.574 537.996" stroke="#1F2223" stroke-width="1.1" stroke-linecap="round" stroke-linejoin="round"/>
<path d="M239.076 780.141C245.289 786.146 252.425 791.117 260.213 794.864" stroke="#1F2223" stroke-width="1.1" stroke-linecap="round" stroke-linejoin="round"/>
</g>
<defs>
<clipPath id="clip0_884_3265">
<rect width="486" height="486" fill="white" transform="translate(33 428.746) rotate(-9.92258)"/>
</clipPath>
</defs>
</svg>
