<svg width="1728" height="1117" viewBox="0 0 1728 1117" fill="none" xmlns="http://www.w3.org/2000/svg">
<rect width="1728" height="1117" rx="24" fill="#F5F2EA"/>
<path d="M89 870H1638.5" stroke="#1F2223"/>
<g clip-path="url(#clip0_2090_4495)">
<path d="M453.74 665.722C454.485 664.116 455.541 662.672 456.846 661.474C458.151 660.276 459.679 659.348 461.344 658.745C463.009 658.14 464.776 657.868 466.546 657.948C468.315 658.028 470.051 658.459 471.654 659.212L492.248 668.815L479.69 695.788C476.423 697.237 473.059 698.454 469.622 699.433C479.274 683.966 475.765 681.288 465.606 692.369C455.83 703.037 443.767 703.938 435.641 704.699L453.74 665.722Z" fill="#FDC886"/>
<path d="M456.327 730.916C458.961 730.143 461.753 729.298 464.543 728.423L454.478 750.03C456.168 743.81 456.793 737.346 456.327 730.916Z" fill="#FDC886"/>
<path d="M449.215 755.158C450.592 755.744 452.031 754.653 452.908 753.309L448.891 761.899L428.9 752.57C434.625 753.36 445.844 754.74 449.215 755.158Z" fill="#FDC886"/>
<path d="M482.506 722.012C486.477 720.443 490.54 718.827 494.372 716.934C499.543 714.394 499.232 711.763 494.187 712.963C492.341 713.379 490.171 713.656 486.615 714.115C490.683 712.606 494.646 710.832 498.481 708.805C503.698 705.853 502.683 702.434 497.696 704.237C496.357 704.745 493.264 705.712 489.663 706.635L490.217 705.481C493.065 703.863 495.823 702.091 498.479 700.174C503.28 696.478 501.895 693.246 497.186 695.739C496.493 696.109 495.432 696.57 494.139 697.124L504.666 674.501L525.214 684.104C526.82 684.85 528.264 685.905 529.461 687.21C530.659 688.515 531.587 690.043 532.191 691.708C532.796 693.372 533.066 695.141 532.986 696.91C532.906 698.679 532.477 700.414 531.724 702.018L499.774 770.724C499.028 772.33 497.973 773.774 496.668 774.972C495.363 776.167 493.834 777.096 492.17 777.701C490.505 778.306 488.737 778.575 486.968 778.495C485.199 778.415 483.463 777.987 481.86 777.234L461.266 767.628L482.506 722.012Z" fill="#FDC886"/>
<path d="M339.048 405.403L370.954 418.795L342.604 398.939L349.945 385.596C350.185 385.163 350.526 384.793 350.939 384.519C351.352 384.244 351.825 384.073 352.318 384.019C352.811 383.964 353.309 384.029 353.772 384.207C354.235 384.385 354.648 384.672 354.977 385.042L393.347 427.752C393.77 428.232 394.034 428.83 394.104 429.466C394.174 430.101 394.047 430.743 393.739 431.304C393.431 431.864 392.958 432.316 392.383 432.597C391.809 432.879 391.162 432.976 390.53 432.877L333.877 423.32C333.39 423.24 332.93 423.045 332.534 422.751C332.137 422.457 331.818 422.073 331.601 421.63C331.384 421.187 331.276 420.698 331.286 420.205C331.297 419.712 331.426 419.228 331.661 418.795L339.048 405.403Z" fill="#FDC886"/>
<path d="M321.506 642.265C325.107 643.929 325.938 650.483 324.422 659.581C317.122 658.993 309.898 657.678 302.858 655.656C310.009 646.053 317.304 640.325 321.506 642.265Z" fill="#CFD181"/>
<path d="M284.704 691.808C291.307 697.042 299.063 700.624 307.33 702.257C298.648 716.154 289.414 724.557 284.289 722.156C279.164 719.789 279.626 707.369 284.704 691.808Z" fill="#CFD181"/>
<path d="M112.253 447.928C123.657 457.762 144.344 490.591 148.176 502.457C147.483 508.182 146.929 512.245 146.56 515.708C138.057 516.844 129.431 516.673 120.979 515.2L121.072 511.414C111.191 479.141 110.822 465.288 112.253 447.928Z" fill="#CFD181"/>
<path d="M249.293 408.45C257.511 423.178 266.099 456.977 266.789 472.308C264.342 476.23 261.987 480.108 259.725 483.943C253.205 478.142 245.801 473.418 237.792 469.951C237.649 461.361 236.504 446.016 249.293 408.45Z" fill="#CFD181"/>
<path d="M456.328 730.916C456.975 744.259 454.341 754.973 450.232 755.294C446.344 755.619 442.429 746.752 440.859 734.748C446.117 733.924 451.293 732.641 456.328 730.916Z" fill="#CFD181"/>
<path d="M343.02 778.658C345.951 779.985 348.593 781.878 350.793 784.228C352.994 786.575 354.71 789.336 355.844 792.346C356.978 795.36 357.508 798.565 357.403 801.782C357.298 804.997 356.561 808.163 355.233 811.094C353.905 814.024 352.013 816.666 349.664 818.867C347.316 821.069 344.557 822.785 341.545 823.917C338.533 825.052 335.327 825.581 332.11 825.477C328.893 825.373 325.728 824.634 322.797 823.307L343.02 778.658Z" fill="#CFD181"/>
<path d="M120.471 534.04L120.332 540.781C112.252 538.791 112.437 535.887 120.471 534.04Z" fill="#CFD181"/>
<path d="M259.773 512.846C258.74 514.637 252.755 513.215 245.091 509.706C246.43 507.075 247.907 504.36 249.431 501.534C256.495 506.472 260.818 511.035 259.773 512.846Z" fill="#CFD181"/>
<path d="M218.68 489.114C219.373 487.913 222.281 488.142 226.391 489.483L222.836 495.577C219.604 492.669 217.988 490.314 218.68 489.114Z" fill="#CFD181"/>
<path d="M337.202 685.528C338.415 689.392 340.024 693.122 342.004 696.655L337.064 699.012L337.202 685.528Z" fill="#CFD181"/>
<path d="M364.445 646.977L366.661 653.994L368.139 648.916L364.445 646.977Z" fill="#CFD181"/>
<path d="M162.025 537.41C162.025 539.626 155.377 541.473 146.143 542.165C146.004 538.426 145.958 535.332 145.912 532.654C155.285 533.301 162.025 535.194 162.025 537.41Z" fill="#CFD181"/>
<path d="M112.529 577.717C105.606 593.268 101.837 610.038 101.439 627.056C101.04 644.073 104.019 661.003 110.208 676.861C116.395 692.717 125.668 707.192 137.485 719.442C149.305 731.691 163.438 741.477 179.062 748.23" stroke="#1F2223" stroke-width="1.1" stroke-linecap="round" stroke-linejoin="round"/>
<path d="M210.508 503.012C186.555 506.659 164.129 517.017 145.821 532.886" stroke="#1F2223" stroke-width="1.1" stroke-linecap="round" stroke-linejoin="round"/>
<path d="M287.383 515.015C276.21 509.428 264.281 505.508 251.97 503.383" stroke="#1F2223" stroke-width="1.1" stroke-linecap="round" stroke-linejoin="round"/>
<path d="M363.938 732.394L312.594 845.7" stroke="#1F2223" stroke-width="1.1" stroke-linecap="round" stroke-linejoin="round"/>
<path d="M391.454 671.631L463.897 511.876C467.821 503.371 462.281 495.855 453.001 497.053L327.229 513.489C319.917 514.447 312.967 517.234 307.021 521.592C301.072 525.951 296.322 531.74 293.209 538.424L150.908 845.605" stroke="#1F2223" stroke-width="1.1" stroke-linecap="round" stroke-linejoin="round"/>
<path d="M365.934 656.91C381.953 667.719 399.38 676.277 417.727 682.343C426.725 683.635 435.789 684.42 444.875 684.697" stroke="#1F2223" stroke-width="1.1" stroke-linecap="round" stroke-linejoin="round"/>
<path d="M435.687 704.646L453.796 665.676C455.31 662.439 458.047 659.934 461.406 658.714C464.765 657.494 468.471 657.657 471.71 659.166L525.214 684.144C528.451 685.657 530.956 688.394 532.177 691.752C533.398 695.113 533.236 698.818 531.726 702.058L499.774 770.763C498.26 774 495.523 776.505 492.164 777.725C488.805 778.945 485.099 778.782 481.86 777.273L428.901 752.57" stroke="#1F2223" stroke-width="1.1" stroke-linecap="round" stroke-linejoin="round"/>
<path d="M498.712 671.724C498.712 671.724 534.691 668.414 549.456 657.919C564.22 647.424 551.959 621.955 532.973 635.478C513.684 649.208 498.712 671.724 498.712 671.724Z" stroke="#1F2223" stroke-width="1.1" stroke-linecap="round" stroke-linejoin="round"/>
<path d="M498.751 671.724C498.751 671.724 476.38 643.378 473.819 625.413C471.258 607.448 498.165 598.87 501.424 621.897C504.768 645.366 498.751 671.724 498.751 671.724Z" stroke="#1F2223" stroke-width="1.1" stroke-linecap="round" stroke-linejoin="round"/>
<path d="M366.735 654.233L364.446 646.943C364.446 646.943 386.002 661.579 382.036 630.089C379.191 607.49 367.362 618.425 364.623 626.738C363.982 628.682 363.199 629.296 361.221 626.349C357.668 621.083 351.117 628.145 358.774 635.398C360.244 636.793 359.683 647.157 350.877 654.7C345.288 659.492 327.976 662.826 302.906 655.672" stroke="#1F2223" stroke-width="1.1" stroke-linecap="round" stroke-linejoin="round"/>
<path d="M368.139 648.916C366.697 655.137 364.64 661.2 361.998 667.015" stroke="#1F2223" stroke-width="1.1" stroke-linecap="round" stroke-linejoin="round"/>
<path d="M354.471 650.901C360.06 668.769 376.496 688.622 389.378 704.784C408.161 706.395 427.064 705.96 445.754 703.489" stroke="#1F2223" stroke-width="1.1" stroke-linecap="round" stroke-linejoin="round"/>
<path d="M284.705 691.808C292.715 698.164 302.42 702.018 312.609 702.884C322.798 703.749 333.015 701.586 341.98 696.668C348.467 708.827 355.676 720.586 363.568 731.883C366.177 735.815 370.056 738.731 374.557 740.145C398.914 747.625 423.954 752.667 449.309 755.197" stroke="#1F2223" stroke-width="1.1" stroke-linecap="round" stroke-linejoin="round"/>
<path d="M307.329 702.245C298.647 716.142 289.423 724.526 284.288 722.144C268.403 714.774 305.366 634.82 321.504 642.265C325.105 643.93 325.936 650.483 324.42 659.581" stroke="#1F2223" stroke-width="1.1" stroke-linecap="round" stroke-linejoin="round"/>
<path d="M162.025 537.41C161.563 551.631 159.809 603.02 159.809 608.33C167.935 609.576 232.067 624.997 235.715 625.643" stroke="#1F2223" stroke-width="1.1" stroke-linecap="round" stroke-linejoin="round"/>
<path d="M209.582 681.835C112.205 647.572 114.338 649.19 112.382 622.458C111.14 605.421 113.167 556.571 114.367 537.364" stroke="#1F2223" stroke-width="1.1" stroke-linecap="round" stroke-linejoin="round"/>
<path d="M259.773 512.846C252.756 525.219 224.781 571.484 222.281 576.147C224.954 578.133 237.194 591.386 247.31 600.897" stroke="#1F2223" stroke-width="1.1" stroke-linecap="round" stroke-linejoin="round"/>
<path d="M186.172 614.101C167.104 584.596 170.805 577.26 176.695 564.974C184.325 549.096 209.478 504.119 218.805 488.976" stroke="#1F2223" stroke-width="1.1" stroke-linecap="round" stroke-linejoin="round"/>
<path d="M464.191 502.11C461.688 496.254 457.345 491.373 451.821 488.204C446.298 485.034 439.892 483.749 433.573 484.543L310.248 500.426C304.905 501.111 299.824 503.139 295.479 506.321C291.132 509.503 287.664 513.735 285.397 518.621L133.908 845.612" stroke="#1F2223" stroke-width="1.1" stroke-linecap="round" stroke-linejoin="round"/>
<path d="M438.731 516.585C437.03 520.279 437.623 524.203 440.07 525.357C442.517 526.512 445.933 524.434 447.642 520.74C449.35 517.047 448.759 513.103 446.303 511.968C443.846 510.833 440.432 512.892 438.731 516.585Z" stroke="#1F2223" stroke-width="1.1" stroke-linecap="round" stroke-linejoin="round"/>
<path d="M161.379 555.925C145.786 561.045 129.825 560.542 113.403 555.925" stroke="#1F2223" stroke-width="1.1" stroke-linecap="round" stroke-linejoin="round"/>
<path d="M250.322 528.954C234.301 525.898 219.877 517.274 209.603 504.607" stroke="#1F2223" stroke-width="1.1" stroke-linecap="round" stroke-linejoin="round"/>
<path d="M339.048 405.403L370.954 418.795L342.604 398.939L349.945 385.596C350.185 385.163 350.526 384.793 350.939 384.519C351.352 384.244 351.825 384.073 352.318 384.019C352.811 383.964 353.309 384.029 353.772 384.207C354.235 384.385 354.648 384.672 354.977 385.042L393.347 427.752C393.77 428.232 394.034 428.83 394.104 429.466C394.174 430.101 394.047 430.743 393.739 431.304C393.431 431.864 392.958 432.316 392.383 432.597C391.809 432.879 391.162 432.976 390.53 432.877L333.877 423.32C333.39 423.24 332.93 423.045 332.534 422.751C332.137 422.457 331.818 422.073 331.601 421.63C331.384 421.187 331.276 420.698 331.286 420.205C331.297 419.712 331.426 419.228 331.661 418.795L339.048 405.403Z" fill="#FDDE92"/>
<path d="M145.129 762.545C122.873 774.503 118.209 740.381 95.9554 752.339" stroke="#1F2223" stroke-width="1.1" stroke-linecap="round" stroke-linejoin="round"/>
<path d="M464.959 700.628C473.819 698.553 482.307 695.129 490.124 690.471C494.834 687.885 496.6 690.485 492.017 694.534C487.773 698.133 483.162 701.277 478.259 703.909" stroke="#1F2223" stroke-width="1.1" stroke-linecap="round" stroke-linejoin="round"/>
<path d="M482.47 701.503C487.465 699.907 492.353 697.994 497.106 695.778C501.854 693.273 503.241 696.507 498.398 700.21C492.522 704.215 486.348 707.768 479.93 710.832" stroke="#1F2223" stroke-width="1.1" stroke-linecap="round" stroke-linejoin="round"/>
<path d="M486.938 707.323C490.561 706.482 494.137 705.449 497.65 704.23C502.614 702.368 503.647 705.833 498.435 708.8C492.921 711.665 487.175 714.059 481.259 715.957" stroke="#1F2223" stroke-width="1.1" stroke-linecap="round" stroke-linejoin="round"/>
<path d="M440.86 734.748C442.152 735.164 464.824 728.933 478.167 723.76C483.513 721.682 489.102 719.595 494.327 717.019C499.585 714.424 499.274 711.829 494.188 713.002C492.344 713.427 490.172 713.695 486.617 714.157" stroke="#1F2223" stroke-width="1.1" stroke-linecap="round" stroke-linejoin="round"/>
<path d="M456.329 730.916C456.975 744.26 454.341 754.961 450.232 755.294C439.951 756.128 435.895 705.175 446.123 703.399C453.572 701.737 460.365 697.912 465.653 692.408C475.778 681.34 478.952 683.728 469.346 699.195" stroke="#1F2223" stroke-width="1.1" stroke-linecap="round" stroke-linejoin="round"/>
<path d="M343.019 778.704C347.364 780.665 351.043 783.851 353.604 787.87C356.164 791.889 357.496 796.572 357.436 801.337C357.375 806.102 355.924 810.749 353.262 814.702C350.6 818.656 346.841 821.747 342.448 823.596C338.054 825.445 333.216 825.97 328.528 825.11C323.839 824.25 319.504 822.038 316.053 818.751C312.605 815.46 310.19 811.237 309.106 806.593C308.02 801.952 308.316 797.094 309.952 792.618C311.113 789.459 312.911 786.573 315.234 784.14C317.558 781.705 320.357 779.776 323.46 778.471C326.562 777.166 329.899 776.512 333.264 776.554C336.629 776.592 339.949 777.326 343.019 778.704Z" stroke="#1F2223" stroke-width="1.1" stroke-linecap="round" stroke-linejoin="round"/>
<path d="M226.389 489.483C222.28 488.144 219.381 487.918 218.679 489.114C216.735 492.428 230.846 501.75 234.156 503.779C238.53 506.452 257.411 516.94 259.773 512.845C260.818 511.035 256.495 506.474 249.431 501.533" stroke="#1F2223" stroke-width="1.1" stroke-linecap="round" stroke-linejoin="round"/>
<path d="M237.793 469.951C245.778 473.415 253.165 478.122 259.68 483.897C254.555 492.577 249.199 501.636 245.088 509.655C237.069 505.98 229.584 501.239 222.834 495.561L237.793 469.951Z" stroke="#1F2223" stroke-width="1.1" stroke-linecap="round" stroke-linejoin="round"/>
<path d="M120.978 515.2C129.43 516.673 138.056 516.844 146.559 515.708C145.703 524.502 145.565 533.35 146.143 542.166C137.514 542.887 128.827 542.406 120.332 540.735C120.971 514.95 120.852 519.564 120.978 515.2Z" stroke="#1F2223" stroke-width="1.1" stroke-linecap="round" stroke-linejoin="round"/>
<path d="M169 489.16C169.754 489.74 170.662 490.084 171.61 490.147C172.558 490.211 173.506 489.992 174.329 489.518C175.153 489.043 175.819 488.336 176.239 487.484C176.662 486.632 176.82 485.674 176.699 484.731C176.575 483.788 176.176 482.903 175.552 482.188C174.925 481.472 174.101 480.958 173.182 480.711C172.266 480.463 171.294 480.494 170.393 480.798C169.494 481.102 168.704 481.666 168.123 482.42C167.353 483.432 167.01 484.708 167.175 485.971C167.341 487.233 167.997 488.379 169 489.16Z" stroke="#1F2223" stroke-width="1.1" stroke-linecap="round" stroke-linejoin="round"/>
<path d="M504.576 674.494L494.049 697.117" stroke="#1F2223" stroke-width="1.1" stroke-linecap="round" stroke-linejoin="round"/>
<path d="M482.461 722.006L461.22 767.624" stroke="#1F2223" stroke-width="1.1" stroke-linecap="round" stroke-linejoin="round"/>
<path d="M492.295 668.769L479.737 695.732" stroke="#1F2223" stroke-width="1.1" stroke-linecap="round" stroke-linejoin="round"/>
<path d="M464.545 728.423L454.48 750.03" stroke="#1F2223" stroke-width="1.1" stroke-linecap="round" stroke-linejoin="round"/>
<path d="M452.91 753.309L448.94 761.899" stroke="#1F2223" stroke-width="1.1" stroke-linecap="round" stroke-linejoin="round"/>
<path d="M145.916 532.655C149.977 532.935 163.655 534.427 161.876 538.055C160.018 541.829 141.95 542.497 137.372 542.485C119.099 542.438 105.926 537.413 120.52 533.994" stroke="#1F2223" stroke-width="1.1" stroke-linecap="round" stroke-linejoin="round"/>
<path d="M341.967 696.646C340.141 693.027 338.504 689.317 337.063 685.528V699.056" stroke="#1F2223" stroke-width="1.1" stroke-linecap="round" stroke-linejoin="round"/>
<path d="M321.402 598.762C320.581 598.227 319.881 597.521 319.356 596.693C318.832 595.864 318.489 594.932 318.355 593.96C318.217 592.926 318.312 591.874 318.637 590.882C318.963 589.891 319.507 588.986 320.234 588.235C320.958 587.485 321.842 586.908 322.822 586.548C323.801 586.188 324.851 586.055 325.888 586.157C325.261 585.299 324.865 584.296 324.734 583.241C324.491 581.437 324.972 579.609 326.069 578.156C327.167 576.704 328.795 575.744 330.598 575.485C331.956 575.295 333.34 575.521 334.568 576.131C334.48 575.845 334.418 575.551 334.384 575.254C334.18 573.763 334.47 572.246 335.21 570.935C335.949 569.624 337.098 568.591 338.48 567.995C339.861 567.398 341.401 567.27 342.862 567.63C344.323 567.991 345.627 568.82 346.572 569.991C346.562 568.329 347.156 566.72 348.243 565.463C349.33 564.206 350.836 563.387 352.482 563.157L352.944 563.065C354.546 562.843 356.175 563.194 357.544 564.055C358.913 564.917 359.933 566.234 360.426 567.774C360.965 566.344 361.966 565.133 363.269 564.335C364.573 563.536 366.106 563.195 367.625 563.364C369.145 563.533 370.565 564.204 371.66 565.27C372.756 566.337 373.466 567.737 373.677 569.252C373.715 569.45 373.73 569.651 373.723 569.852C374.773 568.838 376.112 568.177 377.555 567.959C378.45 567.832 379.361 567.883 380.236 568.109C381.111 568.335 381.932 568.732 382.653 569.277C383.374 569.822 383.98 570.504 384.436 571.284C384.893 572.065 385.19 572.927 385.311 573.823C385.431 574.784 385.35 575.76 385.073 576.688C385.656 576.407 386.279 576.22 386.92 576.134C388.28 575.945 389.666 576.168 390.898 576.775C392.13 577.381 393.152 578.343 393.832 579.536C394.512 580.729 394.819 582.099 394.713 583.468C394.607 584.837 394.094 586.143 393.238 587.217C394.856 587.021 396.491 587.406 397.851 588.304C399.212 589.201 400.208 590.553 400.664 592.118C401.119 593.683 401.004 595.359 400.338 596.846C399.672 598.334 398.499 599.536 397.029 600.239C398.646 600.455 400.133 601.238 401.226 602.449C402.319 603.66 402.947 605.219 402.997 606.85C403.047 608.48 402.516 610.075 401.499 611.351C400.482 612.626 399.045 613.499 397.444 613.813C398.607 614.583 399.507 615.689 400.025 616.984C400.543 618.28 400.654 619.701 400.342 621.059C400.031 622.42 399.314 623.652 398.284 624.593C397.255 625.533 395.964 626.138 394.582 626.325C394.016 626.371 393.447 626.371 392.881 626.325C393.459 627.205 393.837 628.201 393.989 629.241C394.232 631.047 393.752 632.874 392.654 634.327C391.555 635.778 389.928 636.74 388.125 636.998C386.752 637.212 385.346 636.986 384.109 636.351C384.448 637.622 384.416 638.964 384.014 640.218C383.613 641.469 382.861 642.58 381.846 643.418C382.715 639.015 382.747 634.488 381.939 630.072C378.753 606.987 366.703 618.945 364.348 627.302C363.794 628.78 362.824 628.826 361.116 626.286C357.558 621.023 351.048 628.041 358.667 635.336C359.451 636.121 359.823 641.476 356.723 647.294C355.719 648.203 354.463 648.781 353.121 648.956C352.178 649.085 351.218 649.014 350.302 648.754C349.387 648.492 348.536 648.042 347.802 647.435C347.069 646.827 346.47 646.074 346.042 645.223C345.615 644.373 345.368 643.442 345.319 642.492C344.417 643.396 343.28 644.03 342.036 644.322C340.792 644.613 339.492 644.553 338.282 644.144C337.072 643.736 336 642.997 335.187 642.013C334.375 641.027 333.854 639.834 333.684 638.568C333.558 637.625 333.621 636.667 333.868 635.751C332.895 636.193 331.831 636.402 330.763 636.361C329.694 636.32 328.649 636.031 327.712 635.516C326.775 635 325.972 634.274 325.366 633.392C324.758 632.512 324.367 631.501 324.219 630.442C324.085 629.53 324.141 628.602 324.379 627.713C324.617 626.823 325.033 625.992 325.604 625.271C323.983 625.475 322.345 625.098 320.977 624.204C319.612 623.31 318.608 621.959 318.146 620.391C317.687 618.826 317.799 617.145 318.462 615.655C319.126 614.163 320.299 612.956 321.772 612.251C320.275 612.059 318.883 611.382 317.806 610.323C316.73 609.264 316.032 607.881 315.816 606.387C315.578 604.64 316.027 602.868 317.07 601.446C318.11 600.023 319.665 599.061 321.402 598.762Z" fill="#1F2223"/>
</g>
<rect width="139" height="191" rx="24" transform="matrix(-1 0 0 1 1567.17 658)" fill="#FDDE92"/>
<rect width="139" height="191" rx="24" transform="matrix(-1 0 0 1 1567.17 658)" fill="#FDDE92"/>
<rect x="-0.5" y="0.5" width="132" height="131" transform="matrix(-1 0 0 1 1395.17 717)" fill="white" stroke="#1F2223"/>
<rect x="-0.5" y="0.5" width="149" height="95" transform="matrix(-1 0 0 1 1466.17 386)" stroke="#1F2223"/>
<path d="M1466.17 481.5V542.5L1420.17 481.5" stroke="#FDC886"/>
<path d="M1445.17 451.5L1365.17 451.012" stroke="#1F2223"/>
<path d="M1445.17 421H1343.67" stroke="#1F2223"/>
<circle cx="14" cy="14" r="13.5" transform="matrix(-1 0 0 1 1256.17 527)" stroke="#1F2223"/>
<circle cx="8" cy="8" r="7.5" transform="matrix(-1 0 0 1 1514.17 235)" stroke="#1F2223"/>
<path d="M1639.17 345.431C1565.4 385.106 1549.94 271.894 1476.17 311.569" stroke="#1F2223" stroke-width="1.1" stroke-linecap="round" stroke-linejoin="round"/>
<path d="M1628.69 512.891L1598.29 496.37L1624.51 518.966L1615.87 531.507C1615.58 531.914 1615.21 532.247 1614.77 532.479C1614.33 532.711 1613.84 532.834 1613.35 532.838C1612.85 532.843 1612.36 532.729 1611.92 532.505C1611.48 532.282 1611.09 531.955 1610.8 531.554L1576.91 485.214C1576.53 484.694 1576.33 484.072 1576.32 483.433C1576.32 482.793 1576.51 482.168 1576.87 481.641C1577.23 481.114 1577.75 480.712 1578.35 480.49C1578.95 480.267 1579.6 480.235 1580.22 480.397L1635.63 495.583C1636.11 495.711 1636.55 495.951 1636.91 496.283C1637.28 496.615 1637.56 497.03 1637.73 497.493C1637.9 497.955 1637.96 498.452 1637.9 498.942C1637.84 499.431 1637.66 499.9 1637.38 500.307L1628.69 512.891Z" fill="#FDC886"/>
<path d="M1498.41 658.091C1498.41 658.091 1528.76 638.487 1536.98 622.346C1545.2 606.204 1522.53 589.315 1511.97 610.096C1501.24 631.201 1498.41 658.091 1498.41 658.091Z" stroke="#1F2223" stroke-width="1.1" stroke-linecap="round" stroke-linejoin="round"/>
<path d="M1256.17 676.789C1233.92 688.747 1229.25 654.625 1207 666.583" stroke="#1F2223" stroke-width="1.1" stroke-linecap="round" stroke-linejoin="round"/>
<path d="M1497.76 658.478C1497.76 658.478 1466.38 640.616 1457.25 624.93C1448.13 609.244 1469.84 591.184 1481.51 611.298C1493.43 631.791 1497.76 658.478 1497.76 658.478Z" stroke="#1F2223" stroke-width="1.1" stroke-linecap="round" stroke-linejoin="round"/>
<rect x="-0.5" y="0.5" width="23" height="190" transform="matrix(-1 0 0 1 1509.17 658)" fill="#F5F2EA" stroke="#1F2223"/>
<defs>
<clipPath id="clip0_2090_4495">
<rect width="486" height="486" fill="white" transform="matrix(-1 0 0 1 569 360)"/>
</clipPath>
</defs>
</svg>
