<svg width="1728" height="1117" viewBox="0 0 1728 1117" fill="none" xmlns="http://www.w3.org/2000/svg">
<rect width="1728" height="1117" rx="24" fill="#F5F2EA"/>
<path d="M856.467 680.956C842.847 690.236 833.336 705.657 826.821 720.939C818.858 739.57 740.784 842.39 742.743 843.982C743.472 845.165 744.237 846.305 745.039 847.401L740.665 852.246C745.744 859.633 757.933 868.221 766.29 870.022C767.384 867.998 768.627 866.056 770.008 864.214C772.008 864.717 774.036 865.099 776.083 865.359C788.082 850.613 819.456 811.413 847.398 774.321C841.809 803.68 835.122 834.461 828.201 871.222C829.635 871.917 831.1 872.544 832.575 873.127L830.131 884.196C839.547 886.874 849.524 886.874 858.941 884.196L860.77 877.424C862.763 877.302 864.758 877.11 866.743 876.855C886.089 818.311 901.006 741.669 909.774 682.987L856.467 680.956ZM836.891 775.969C828.673 774.076 817.269 766.006 812.144 759.624L833.625 727.449C840.182 735.925 849.001 742.374 859.065 746.055L836.891 775.969Z" fill="#FDDE92"/>
<path d="M741.511 697.161L742.573 699.008L745.574 697.346C744.217 697.37 742.86 697.309 741.511 697.161Z" fill="#CFD181"/>
<path d="M932.424 593.694C932.424 593.648 928.684 596.326 923.513 599.743L947.57 595.68L932.424 593.694Z" fill="#CFD181"/>
<path d="M890.594 597.296L894.611 603.483C894.414 601.92 894.305 600.348 894.288 598.773C894.288 598.727 892.164 597.896 890.594 597.296Z" fill="#CFD181"/>
<path d="M874.434 578.504C857.629 590.462 862.753 597.215 882.052 591.155L881.686 589.969C882.368 589.008 882.75 587.867 882.781 586.688C882.815 585.51 882.497 584.349 881.868 583.352C878.223 578.689 882.468 575.457 884.592 579.058C885.746 581.044 886.254 580.305 886.254 578.597C885.377 578.135 885.377 577.625 886.162 577.166C886.067 576.309 885.914 575.461 885.7 574.626C885.984 575.02 886.351 575.347 886.774 575.584C887.199 575.821 887.668 575.962 888.152 575.997C888.638 576.033 889.124 575.961 889.578 575.788C890.03 575.615 890.441 575.344 890.779 574.996C886.439 573.749 887.039 572.502 887.863 572.41C894.29 572.087 896.662 572.913 906.574 572.133C909.186 571.03 914.245 568.852 916.731 567.47C916.558 558.846 888.417 568.342 874.434 578.504Z" fill="#CFD181"/>
<path d="M905.414 579.936C904.583 580.49 903.713 581.044 902.829 581.598C902.598 580.582 902.644 581.182 903.014 579.982C903.798 579.936 904.581 579.936 905.414 579.936Z" fill="#CFD181"/>
<path d="M847.476 774.265L843.644 793.795L888.937 715.722C879.375 731.004 863.908 752.427 847.476 774.265Z" fill="#CFD181"/>
<path d="M889.117 902.295C881.221 895.6 869.494 887.244 858.968 884.196C849.551 886.874 839.574 886.874 830.157 884.196C828.207 889.751 827.011 895.544 826.602 901.418C826.57 901.952 826.648 902.487 826.831 902.992C827.014 903.495 827.298 903.955 827.665 904.346C828.033 904.735 828.477 905.043 828.969 905.255C829.461 905.466 829.991 905.575 830.527 905.573C848.995 905.619 864.877 905.804 887.824 905.85C888.234 905.845 888.633 905.714 888.968 905.478C889.304 905.24 889.559 904.905 889.7 904.518C889.838 904.134 889.858 903.714 889.756 903.316C889.651 902.919 889.428 902.562 889.117 902.295Z" fill="#CFD181"/>
<path d="M761.826 891.27C761.481 883.904 763.039 876.573 766.35 869.985C757.994 868.185 745.805 859.597 740.726 852.21L737.64 855.663C732.702 859.925 733.052 866.987 735.285 873.115C737.871 880.318 740.225 892.507 742.996 898.555C744.101 900.791 745.823 902.666 747.958 903.957C750.092 905.25 752.552 905.903 755.046 905.845H773.56C769.859 896.2 767.181 896.293 761.826 891.27Z" fill="#CFD181"/>
<path d="M860.907 664.519L855.874 672.553L855.505 667.705L860.907 664.519Z" fill="#CFD181"/>
<path d="M722.581 703.394L721.058 696.838L727.614 695.314L729.137 701.871L722.581 703.394Z" fill="#CFD181"/>
<path d="M709.377 705.01L708.73 698.316L715.379 697.669L716.071 704.364L709.377 705.01Z" fill="#CFD181"/>
<path d="M696.264 705.38V698.685H703.005V705.38H696.264Z" fill="#CFD181"/>
<path d="M928.823 635.801C924.735 638.423 920.512 640.827 916.172 643.004C916.08 641.354 915.837 639.715 915.443 638.11L928.823 635.801Z" fill="#CFD181"/>
<path d="M741.511 697.162L742.573 699.008" stroke="#1F2223" stroke-width="1.1" stroke-linecap="round" stroke-linejoin="round"/>
<path d="M650.002 905.804H1078" stroke="#1F2223" stroke-width="1.1" stroke-linecap="round" stroke-linejoin="round"/>
<path d="M766.766 869.237V895.416" stroke="#1F2223" stroke-width="1.1" stroke-linecap="round" stroke-linejoin="round"/>
<path d="M766.766 735.067V808.754" stroke="#1F2223" stroke-width="1.1" stroke-linecap="round" stroke-linejoin="round"/>
<path d="M766.766 444.15V597.296" stroke="#1F2223" stroke-width="1.1" stroke-linecap="round" stroke-linejoin="round"/>
<path d="M766.766 459.109V501.862H692.848L663.668 480.486L692.848 459.109H766.766Z" fill="#CFD181" stroke="#1F2223" stroke-width="1.1" stroke-linecap="round" stroke-linejoin="round"/>
<path d="M821.708 544.616H766.766V501.862H852.134L881.314 523.239L876.143 527.025" stroke="#1F2223" stroke-width="1.1" stroke-linecap="round" stroke-linejoin="round"/>
<path d="M851.626 623.797L810.766 552.88C787.852 566.1 770.029 586.619 760.145 611.157C750.26 635.696 748.886 662.839 756.239 688.251" stroke="#1F2223" stroke-width="1.1" stroke-linecap="round" stroke-linejoin="round"/>
<path d="M863.353 616.872L821.475 544.2C838.941 534.137 858.468 528.18 878.577 526.779C898.686 525.377 918.85 528.569 937.544 536.113C956.238 543.656 972.968 555.353 986.474 570.319C999.978 585.285 1009.9 603.126 1015.49 622.494C1021.08 641.861 1022.19 662.246 1018.74 682.105C1015.29 701.965 1007.36 720.781 995.565 737.125C983.767 753.469 968.405 766.917 950.641 776.445C932.878 785.975 913.181 791.341 893.038 792.133" stroke="#1F2223" stroke-width="1.1" stroke-linecap="round" stroke-linejoin="round"/>
<path d="M840.453 783.545C842.069 784.146 843.685 784.746 845.347 785.3" stroke="#1F2223" stroke-width="1.1" stroke-linecap="round" stroke-linejoin="round"/>
<path d="M779.324 708.15L766.627 715.581C765.242 713.319 764.596 712.164 764.596 712.164" stroke="#1F2223" stroke-width="1.1" stroke-linecap="round" stroke-linejoin="round"/>
<path d="M801.393 760.276C790.138 750.646 780.586 739.191 773.137 726.387L856.243 677.862" stroke="#1F2223" stroke-width="1.1" stroke-linecap="round" stroke-linejoin="round"/>
<path d="M925.498 582.337C921.897 584.137 917.173 586.421 914.464 588.015C913.769 588.424 913.176 588.759 912.802 589.031C905.674 594.214 907.213 590.922 908.739 588.154C909.429 586.905 912.267 584.008 913.448 581.782C913.783 580.877 913.8 579.883 913.494 578.966C909.166 579.763 904.773 580.165 900.372 580.167C897.376 580.414 894.36 580.337 891.381 579.936C883.362 578.849 884.091 576.854 891.52 575.919C896.679 575.255 901.745 574 906.617 572.179C911.954 570.058 917.11 567.51 922.038 564.561C923.477 563.691 925.122 563.227 926.803 563.22" stroke="#1F2223" stroke-width="1.1" stroke-linecap="round" stroke-linejoin="round"/>
<path d="M915.433 568.116C917.234 562.668 919.96 558.902 922.497 558.605C924.716 558.345 926.101 560.729 926.791 563.176C928.093 569.563 927.646 576.183 925.498 582.337C923.518 588.264 920.41 592.234 917.696 591.755C916.306 591.512 915.202 590.14 914.464 588.016" stroke="#1F2223" stroke-width="1.1" stroke-linecap="round" stroke-linejoin="round"/>
<path d="M886.254 578.643C886.254 580.344 885.753 581.039 884.592 579.058C882.48 575.45 878.22 578.689 881.868 583.352C882.49 584.351 882.806 585.511 882.774 586.688C882.74 587.865 882.363 589.006 881.685 589.969" stroke="#1F2223" stroke-width="1.1" stroke-linecap="round" stroke-linejoin="round"/>
<path d="M890.778 574.996C890.441 575.345 890.03 575.615 889.578 575.788C889.124 575.962 888.638 576.033 888.152 575.998C887.668 575.962 887.199 575.821 886.774 575.584C886.351 575.347 885.984 575.021 885.7 574.626C885.914 575.494 886.069 576.375 886.164 577.263" stroke="#1F2223" stroke-width="1.1" stroke-linecap="round" stroke-linejoin="round"/>
<path d="M899.043 566.454C899.043 566.5 899.043 566.5 899.089 566.546C899.689 568.67 900.243 570.656 900.751 572.549" stroke="#1F2223" stroke-width="1.1" stroke-linecap="round" stroke-linejoin="round"/>
<path d="M894.334 598.727C894.334 598.727 892.164 597.896 890.594 597.25L894.611 603.482" stroke="#1F2223" stroke-width="1.1" stroke-linecap="round" stroke-linejoin="round"/>
<path d="M923.319 599.777L947.568 595.68L932.424 593.648" stroke="#1F2223" stroke-width="1.1" stroke-linecap="round" stroke-linejoin="round"/>
<path d="M913.494 578.966C914.556 578.782 915.756 578.412 917.095 578.135" stroke="#1F2223" stroke-width="1.1" stroke-linecap="round" stroke-linejoin="round"/>
<path d="M892.718 575.735L891.24 575.134C886.392 573.888 886.866 572.503 887.777 572.461C889.624 572.369 895.026 572.738 900.656 572.554L906.566 572.138" stroke="#1F2223" stroke-width="1.1" stroke-linecap="round" stroke-linejoin="round"/>
<path d="M939.026 561.276C940.815 566.716 941.301 572.501 940.443 578.163C939.585 583.825 937.408 589.206 934.086 593.872" stroke="#1F2223" stroke-width="1.1" stroke-linecap="round" stroke-linejoin="round"/>
<path d="M882.026 591.165C865.084 596.467 859.536 591.877 868.636 583.185C875.982 576.172 890.098 569.003 899.667 566.257C906.408 564.182 914.247 563.149 916.24 565.929" stroke="#1F2223" stroke-width="1.1" stroke-linecap="round" stroke-linejoin="round"/>
<path d="M905.414 579.936C904.583 580.49 903.713 581.044 902.829 581.598" stroke="#1F2223" stroke-width="1.1" stroke-linecap="round" stroke-linejoin="round"/>
<path d="M874.48 578.504C873.807 575.279 874.235 571.92 875.693 568.966C877.153 566.011 879.559 563.629 882.526 562.2C885.496 560.771 888.859 560.377 892.078 561.081C895.296 561.786 898.187 563.547 900.289 566.085" stroke="#1F2223" stroke-width="1.1" stroke-linecap="round" stroke-linejoin="round"/>
<path d="M879.513 609.208V622.966L892.671 612.347L905.414 620.519L900.797 607.592" stroke="#1F2223" stroke-width="1.1" stroke-linecap="round" stroke-linejoin="round"/>
<path d="M900.797 607.592C901.04 607.55 916.289 603.322 919.564 601.857C924.031 599.414 928.327 596.672 932.424 593.648L917.28 591.663" stroke="#1F2223" stroke-width="1.1" stroke-linecap="round" stroke-linejoin="round"/>
<path d="M888.932 715.722L843.639 793.795" stroke="#1F2223" stroke-width="1.1" stroke-linecap="round" stroke-linejoin="round"/>
<path d="M860.814 877.363L858.921 884.196" stroke="#1F2223" stroke-width="1.1" stroke-linecap="round" stroke-linejoin="round"/>
<path d="M830.157 884.196L832.602 873.127" stroke="#1F2223" stroke-width="1.1" stroke-linecap="round" stroke-linejoin="round"/>
<path d="M887.814 905.85C864.868 905.828 848.985 905.607 830.517 905.573C829.981 905.575 829.451 905.466 828.959 905.255C828.467 905.043 828.023 904.735 827.655 904.346C827.288 903.955 827.004 903.495 826.821 902.992C826.638 902.487 826.56 901.952 826.593 901.418C827 895.544 828.196 889.751 830.148 884.196C839.564 886.874 849.541 886.874 858.958 884.196C869.485 887.244 881.195 895.617 889.107 902.295C889.418 902.562 889.641 902.919 889.746 903.316C889.848 903.714 889.828 904.134 889.69 904.518C889.549 904.905 889.294 905.24 888.959 905.478C888.623 905.714 888.225 905.845 887.814 905.85Z" stroke="#1F2223" stroke-width="1.1" stroke-linecap="round" stroke-linejoin="round"/>
<path d="M770.044 864.204C768.364 866.331 766.941 868.649 765.806 871.111C762.869 877.424 761.503 884.352 761.826 891.306C767.172 896.339 769.859 896.2 773.553 905.85H755.039C752.545 905.906 750.087 905.25 747.953 903.959C745.818 902.667 744.096 900.795 742.988 898.56C740.238 892.502 737.868 880.32 735.278 873.12C733.251 867.485 732.508 859.998 737.633 855.668L745.088 847.433" stroke="#1F2223" stroke-width="1.1" stroke-linecap="round" stroke-linejoin="round"/>
<path d="M766.314 870.022C757.957 868.221 745.768 859.634 740.689 852.247" stroke="#1F2223" stroke-width="1.1" stroke-linecap="round" stroke-linejoin="round"/>
<path d="M761.826 891.306C758.181 888.813 745.851 891.306 745.851 891.306" stroke="#1F2223" stroke-width="1.1" stroke-linecap="round" stroke-linejoin="round"/>
<path d="M870.561 693.145C865.528 701.594 857.68 705.674 847.014 705.38" stroke="#1F2223" stroke-width="1.1" stroke-linecap="round" stroke-linejoin="round"/>
<path d="M812.151 759.629C817.276 766.001 828.675 774.081 836.898 775.974L859.06 746.102C848.997 742.418 840.18 735.966 833.625 727.488L812.151 759.629Z" stroke="#1F2223" stroke-width="1.1" stroke-linecap="round" stroke-linejoin="round"/>
<path d="M833.62 727.495L836.39 752.011L859.06 746.102" stroke="#1F2223" stroke-width="1.1" stroke-linecap="round" stroke-linejoin="round"/>
<path d="M889.393 793.098C890.791 793.2 892.176 792.794 893.296 791.953C894.416 791.112 895.196 789.897 895.488 788.527L902.506 753.392C902.62 752.813 902.603 752.218 902.462 751.647C902.318 751.073 902.054 750.541 901.682 750.082C901.312 749.625 900.846 749.253 900.316 748.996C899.786 748.738 899.206 748.6 898.618 748.59" stroke="#1F2223" stroke-width="1.1" stroke-linecap="round" stroke-linejoin="round"/>
<path d="M707.299 476.33L715.102 487.273L724.197 471.39" stroke="#1F2223" stroke-width="1.1" stroke-linecap="round" stroke-linejoin="round"/>
<path d="M983.257 498.631L973.377 497.199L968.944 488.196L964.512 497.199L954.585 498.631L961.742 505.649L960.08 515.483L968.944 510.82L977.809 515.483L976.101 505.649L983.257 498.631Z" stroke="#1F2223" stroke-width="1.1" stroke-linecap="round" stroke-linejoin="round"/>
<path d="M710.324 631.046V645.128" stroke="#1F2223" stroke-width="1.1" stroke-linecap="round" stroke-linejoin="round"/>
<path d="M717.364 638.088H703.282" stroke="#1F2223" stroke-width="1.1" stroke-linecap="round" stroke-linejoin="round"/>
<path d="M776.554 705.288C771.398 708.753 765.907 711.693 760.164 714.06" stroke="#1F2223" stroke-width="1.1" stroke-linecap="round" stroke-linejoin="round"/>
<path d="M722.581 703.394L721.058 696.838L727.614 695.314L729.137 701.871L722.581 703.394Z" stroke="#1F2223" stroke-width="1.1" stroke-linecap="round" stroke-linejoin="round"/>
<path d="M709.377 705.01L708.73 698.316L715.379 697.669L716.071 704.364L709.377 705.01Z" stroke="#1F2223" stroke-width="1.1" stroke-linecap="round" stroke-linejoin="round"/>
<path d="M696.264 705.38V698.685H703.005V705.38H696.264Z" stroke="#1F2223" stroke-width="1.1" stroke-linecap="round" stroke-linejoin="round"/>
<path d="M758.501 711.29L770.829 732.712L701.297 772.88L682.921 740.885" stroke="#1F2223" stroke-width="1.1" stroke-linecap="round" stroke-linejoin="round"/>
<path d="M745.574 697.346L739.618 700.624L749.221 716.876L758.501 711.29L750.237 696.931" stroke="#1F2223" stroke-width="1.1" stroke-linecap="round" stroke-linejoin="round"/>
<path d="M739.618 694.022L735.73 687.189C713.644 694.783 689.855 695.949 667.131 690.552C667.243 707.411 669.889 724.159 674.98 740.231C703.649 743.443 732.658 739.065 759.102 727.534L751.992 715.207" stroke="#1F2223" stroke-width="1.1" stroke-linecap="round" stroke-linejoin="round"/>
<path d="M705.314 693.514L737.633 674.954L747.051 691.344" stroke="#1F2223" stroke-width="1.1" stroke-linecap="round" stroke-linejoin="round"/>
<path d="M1064.23 674.028C1064.42 675.078 1064.29 676.159 1063.86 677.136C1063.43 678.113 1062.72 678.939 1061.82 679.51C1060.92 680.083 1059.87 680.375 1058.8 680.353C1057.74 680.329 1056.7 679.989 1055.83 679.376C1054.95 678.764 1054.28 677.906 1053.9 676.91C1053.51 675.916 1053.43 674.83 1053.66 673.789C1053.9 672.748 1054.43 671.8 1055.2 671.063C1055.97 670.327 1056.95 669.837 1058 669.654C1059.41 669.41 1060.85 669.733 1062.02 670.553C1063.19 671.373 1063.98 672.622 1064.23 674.028Z" stroke="#1F2223" stroke-width="1.1" stroke-linecap="round" stroke-linejoin="round"/>
<path d="M766.489 698.362C763.488 699.285 755.177 701.64 751.622 696.746C751.622 696.746 741.659 698.408 738.833 696.146C736.007 693.883 746.915 691.582 750.983 690.19C753.656 689.271 759.848 686.912 764.926 684.649" stroke="#1F2223" stroke-width="1.1" stroke-linecap="round" stroke-linejoin="round"/>
<path d="M916.172 643.004C916.08 641.354 915.837 639.716 915.443 638.11L928.832 635.802" stroke="#1F2223" stroke-width="1.1" stroke-linecap="round" stroke-linejoin="round"/>
<path d="M856.467 680.956C842.847 690.236 833.345 705.661 826.821 720.939C824.24 726.989 813.942 742.362 801.381 760.276C790.347 776.02 777.567 793.705 766.754 808.754C752.723 828.289 742.007 843.382 742.745 843.989C746.254 849.901 751.095 854.914 756.882 858.625C762.669 862.338 769.243 864.649 776.08 865.373C795.241 841.826 863.803 755.95 888.919 715.782" stroke="#1F2223" stroke-width="1.1" stroke-linecap="round" stroke-linejoin="round"/>
<path d="M874.988 739.73L843.639 876.301" stroke="#1F2223" stroke-width="1.1" stroke-linecap="round" stroke-linejoin="round"/>
<path d="M909.847 682.941C901.074 741.623 886.162 818.265 866.816 876.809C853.696 878.789 840.282 876.845 828.264 871.22C835.134 834.702 836.254 831.431 847.461 774.263" stroke="#1F2223" stroke-width="1.1" stroke-linecap="round" stroke-linejoin="round"/>
<path d="M923.503 558.668L966.271 565.346C982.477 567.839 986.771 584.453 974.213 598.358C960.002 614.092 934.873 633.765 916.177 643.004C916.869 657.363 913.037 670.152 909.859 682.987L856.467 680.956C855.738 670.837 855.964 673.824 855.495 667.705L782.063 710.721C772.88 702.427 766.381 691.58 763.398 679.571C763.398 679.571 839.761 631.092 854.166 622.269C862.225 617.196 870.704 612.824 879.513 609.203" stroke="#1F2223" stroke-width="1.1" stroke-linecap="round" stroke-linejoin="round"/>
<path d="M816.399 764.108L751.576 854.555" stroke="#1F2223" stroke-width="1.1" stroke-linecap="round" stroke-linejoin="round"/>
<path d="M860.907 702.517L838.653 733.035" stroke="#1F2223" stroke-width="1.1" stroke-linecap="round" stroke-linejoin="round"/>
<path d="M776.092 671.537C779.013 683.794 785.755 694.804 795.345 702.979" stroke="#1F2223" stroke-width="1.1" stroke-linecap="round" stroke-linejoin="round"/>
<path d="M876.009 577.45C877.909 580.716 879.545 584.129 880.901 587.656C883.071 592.764 883.651 598.408 882.56 603.85C882.203 605.923 881.144 607.811 879.559 609.196C886.9 614.367 894.842 613.767 900.797 607.58C897.196 608.088 895.128 607.624 894.611 603.471C894.419 601.893 894.326 600.305 894.334 598.715C895.551 599.06 896.807 599.247 898.073 599.269C903.752 599.269 905.322 594.283 902.829 581.586L902.513 580.011" stroke="#1F2223" stroke-width="1.1" stroke-linecap="round" stroke-linejoin="round"/>
<path d="M855.505 667.705L860.907 664.52L855.874 672.553" stroke="#1F2223" stroke-width="1.1" stroke-linecap="round" stroke-linejoin="round"/>
<path d="M825.397 512.746C825.041 512.39 824.464 512.39 824.108 512.746C823.753 513.102 823.753 513.679 824.108 514.034L825.397 512.746ZM841.848 531.774C842.204 532.13 842.781 532.13 843.137 531.774C843.492 531.418 843.492 530.841 843.137 530.485L841.848 531.774ZM824.108 514.034L841.848 531.774L843.137 530.485L825.397 512.746L824.108 514.034Z" fill="#1F2223"/>
<path d="M843.137 514.034C843.492 513.679 843.492 513.102 843.137 512.746C842.781 512.39 842.204 512.39 841.848 512.746L843.137 514.034ZM824.108 530.485C823.753 530.841 823.753 531.418 824.108 531.774C824.464 532.13 825.041 532.13 825.397 531.774L824.108 530.485ZM841.848 512.746L824.108 530.485L825.397 531.774L843.137 514.034L841.848 512.746Z" fill="#1F2223"/>
</svg>
