<svg width="1728" height="1117" viewBox="0 0 1728 1117" fill="none" xmlns="http://www.w3.org/2000/svg">
<rect width="1728" height="1117" rx="24" fill="#F5F2EA"/>
<path d="M89 870H1638.5" stroke="black"/>
<path d="M206.251 739.091C206.251 739.091 175.901 719.487 167.68 703.346C159.459 687.204 182.126 670.315 192.685 691.096C203.417 712.201 206.251 739.091 206.251 739.091Z" stroke="black" stroke-width="1.1" stroke-linecap="round" stroke-linejoin="round"/>
<path d="M206.899 739.478C206.899 739.478 238.281 721.616 247.406 705.93C256.53 690.244 234.818 672.184 223.145 692.298C211.228 712.791 206.899 739.478 206.899 739.478Z" stroke="black" stroke-width="1.1" stroke-linecap="round" stroke-linejoin="round"/>
<path d="M123.789 425.776C126.884 422.881 130.769 420.969 134.951 420.284C139.133 419.596 143.424 420.165 147.283 421.917C151.142 423.669 154.394 426.526 156.629 430.128C158.864 433.727 159.982 437.911 159.839 442.147C159.697 446.382 158.303 450.479 155.831 453.922C153.36 457.366 149.923 459.997 145.956 461.487C141.989 462.976 137.669 463.256 133.542 462.291C129.416 461.327 125.668 459.159 122.773 456.063C118.894 451.91 116.822 446.389 117.012 440.708C117.203 435.029 119.64 429.659 123.789 425.776Z" stroke="black" stroke-width="1.1" stroke-linecap="round" stroke-linejoin="round"/>
<path d="M229.038 280.173C230.203 279.084 231.664 278.365 233.237 278.107C234.81 277.848 236.425 278.062 237.876 278.721C239.328 279.38 240.552 280.455 241.392 281.81C242.233 283.163 242.653 284.737 242.6 286.331C242.546 287.924 242.022 289.465 241.092 290.76C240.163 292.055 238.87 293.045 237.377 293.606C235.885 294.166 234.26 294.271 232.707 293.908C231.155 293.545 229.745 292.73 228.656 291.565C227.197 290.003 226.417 287.927 226.489 285.789C226.561 283.653 227.478 281.633 229.038 280.173Z" stroke="black" stroke-width="1.1" stroke-linecap="round" stroke-linejoin="round"/>
<path d="M291.691 446L283.058 475.733" stroke="black" stroke-width="1.1" stroke-linecap="round" stroke-linejoin="round"/>
<path d="M302.218 465.161L272.484 456.527" stroke="black" stroke-width="1.1" stroke-linecap="round" stroke-linejoin="round"/>
<path d="M188.691 569L180.058 598.733" stroke="black" stroke-width="1.1" stroke-linecap="round" stroke-linejoin="round"/>
<path d="M199.218 588.161L169.484 579.527" stroke="black" stroke-width="1.1" stroke-linecap="round" stroke-linejoin="round"/>
<path d="M495.381 782.949C495.381 788.674 493.683 794.271 490.502 799.032C487.321 803.792 482.801 807.503 477.511 809.694C472.221 811.885 466.401 812.458 460.785 811.341C455.17 810.224 450.012 807.467 445.963 803.418C441.915 799.37 439.158 794.212 438.041 788.596C436.924 782.981 437.497 777.16 439.688 771.87C441.879 766.581 445.589 762.06 450.35 758.879C455.111 755.698 460.708 754 466.433 754C474.109 754.005 481.47 757.056 486.898 762.484C492.325 767.912 495.377 775.272 495.381 782.949Z" fill="#CFD181"/>
<path d="M490.743 384.477C474.375 392.372 458.975 402.133 444.85 413.566C444.452 413.814 444.121 414.154 443.884 414.557C443.646 414.961 443.51 415.416 443.488 415.884C443.465 416.351 443.556 416.817 443.753 417.242C443.95 417.667 444.247 418.037 444.619 418.322L455.146 426.679C461.525 418.312 470.173 411.241 478.863 403.936C472.174 412.589 466.316 421.852 461.367 431.604L472.693 440.576C473.058 440.866 473.488 441.064 473.946 441.153C474.404 441.243 474.877 441.221 475.325 441.09C475.773 440.958 476.183 440.722 476.52 440.399C476.857 440.077 477.112 439.678 477.264 439.237L495.083 387.908C495.291 387.332 495.313 386.706 495.145 386.117C494.978 385.529 494.629 385.008 494.149 384.629C493.669 384.249 493.082 384.03 492.471 384.003C491.859 383.976 491.255 384.141 490.743 384.477Z" fill="#FDC886"/>
<rect x="361.984" y="518.5" width="149" height="95" stroke="black"/>
<path d="M362.484 613.5V674.5L408.484 613.5" stroke="#FDC886"/>
<path d="M383.484 583.5L463.484 583.012" stroke="black"/>
<path d="M383.484 553H484.984" stroke="black"/>
<path d="M157.952 454.03C158.272 455.593 158.121 457.214 157.519 458.689C156.917 460.164 155.891 461.427 154.571 462.322C153.251 463.213 151.696 463.695 150.102 463.704C148.509 463.712 146.948 463.247 145.618 462.37C144.288 461.493 143.249 460.239 142.631 458.771C142.012 457.301 141.844 455.683 142.146 454.118C142.448 452.553 143.208 451.112 144.328 449.98C145.449 448.847 146.88 448.072 148.441 447.751C149.478 447.533 150.548 447.523 151.589 447.722C152.631 447.921 153.622 448.322 154.506 448.908C155.391 449.491 156.151 450.245 156.742 451.124C157.334 452.004 157.745 452.99 157.952 454.03Z" fill="#FDC886"/>
<rect x="136.984" y="739.5" width="146" height="115" fill="white" stroke="black"/>
<path d="M1583.76 627.597L1509.64 622.056C1502.46 621.512 1495.26 622.7 1488.63 625.519L1468.92 633.922C1466.27 638.736 1463.01 643.189 1459.22 647.173C1449.71 657.33 1413.24 676.214 1393.98 680.184C1389.45 680.991 1384.77 680.175 1380.78 677.876C1372.06 684.874 1362.92 691.336 1353.41 697.226C1353.41 697.226 1371.42 748.521 1438.46 719.526L1491.79 696.395L1480.11 724.42C1480.43 740.441 1480.52 761.448 1479.46 775.45C1491.98 779.263 1505.33 779.391 1517.92 775.817C1522.95 741.651 1526.78 687.725 1513.76 667.364L1577.48 666.763C1585.51 652.302 1584.8 644.079 1583.76 627.597Z" fill="#FDDE92"/>
<path d="M1465.37 607.744L1473.13 573.624C1473.3 572.877 1473.17 572.093 1472.76 571.443C1472.35 570.794 1471.71 570.333 1470.96 570.161C1470.21 569.99 1469.43 570.122 1468.78 570.529C1468.13 570.936 1467.67 571.584 1467.5 572.331L1458.36 612.545" fill="#FDDE92"/>
<path d="M1465.37 607.744L1473.13 573.624C1473.3 572.877 1473.17 572.093 1472.76 571.443C1472.35 570.794 1471.71 570.333 1470.96 570.161C1470.21 569.99 1469.43 570.122 1468.78 570.529C1468.13 570.936 1467.67 571.584 1467.5 572.331L1458.36 612.545C1459.5 616.786 1462.59 622.473 1465.37 607.744Z" fill="#FDDE92"/>
<path d="M1459.37 478.465C1459.37 484.191 1457.67 489.788 1454.49 494.548C1451.31 499.309 1446.79 503.019 1441.5 505.21C1436.21 507.401 1430.39 507.975 1424.78 506.858C1419.16 505.741 1414 502.984 1409.95 498.935C1405.9 494.886 1403.15 489.728 1402.03 484.113C1400.91 478.497 1401.49 472.677 1403.68 467.387C1405.87 462.097 1409.58 457.576 1414.34 454.395C1419.1 451.214 1424.7 449.517 1430.42 449.517C1438.1 449.521 1445.46 452.573 1450.89 458C1456.31 463.428 1459.37 470.789 1459.37 478.465Z" fill="#CFD181"/>
<path d="M1610.54 631.244C1605.23 643.838 1597.72 655.391 1588.38 665.364C1593.5 666.149 1598.63 667.308 1603.01 667.995C1607.58 666.003 1611.87 663.412 1615.75 660.29C1627.9 650.502 1652.93 638.359 1658.41 631.434C1648.49 629.998 1624.2 630.967 1610.54 631.244Z" fill="#1F2223"/>
<path d="M1516.62 803.922C1503.83 799.091 1491.99 792.025 1481.67 783.051C1481.07 788.178 1480.15 793.349 1479.59 797.782C1481.76 802.277 1484.51 806.469 1487.77 810.248C1497.97 821.975 1511.04 846.537 1518.14 851.801C1519.25 841.828 1517.41 817.589 1516.62 803.922Z" fill="#1F2223"/>
<path d="M1358.12 657.561C1357.2 658.023 1356.23 658.438 1355.26 658.854C1350.73 653.532 1346.48 647.986 1342.51 642.233C1342.93 643.205 1355.67 670.766 1376.82 681.154C1378.2 680.046 1379.54 678.984 1380.79 677.922C1372.89 673.628 1364.68 665.318 1358.12 657.561Z" fill="#1F2223"/>
<path d="M1479.55 701.653C1479.55 701.653 1479.96 711.395 1480.19 724.369L1491.78 696.39L1479.55 701.653Z" fill="#1F2223"/>
<path d="M1355.21 536.411C1355.21 536.411 1347.13 521.265 1328.11 530.501C1309.09 539.738 1312.78 576.856 1312.78 576.856C1312.78 576.856 1295.88 584.936 1286.88 598.556C1272.93 619.655 1279.95 651.513 1323.31 651.513C1321.25 642.418 1320.53 633.068 1321.19 623.765C1322.34 607.374 1328.3 592.369 1333.56 576.994C1340.27 557.119 1338.83 558.709 1341.18 551.416C1335.59 546.107 1342.24 539.735 1345.24 544.904C1346.52 546.994 1346.82 547.076 1347.83 547.395C1353.34 549.117 1363.32 551.04 1368.73 549.246C1368.74 549.105 1369.2 536.411 1355.21 536.411Z" fill="#1F2223"/>
<path d="M1344.96 583.412L1340.02 571.038C1341.67 573.247 1343.61 575.219 1345.79 576.902C1345.39 579.054 1345.11 581.227 1344.96 583.412Z" fill="#1F2223"/>
<path d="M1410.29 793.072C1410.61 794.635 1410.46 796.256 1409.86 797.731C1409.26 799.206 1408.23 800.469 1406.91 801.363C1405.59 802.255 1404.04 802.736 1402.44 802.746C1400.85 802.753 1399.29 802.289 1397.96 801.412C1396.63 800.535 1395.59 799.281 1394.97 797.813C1394.35 796.343 1394.18 794.725 1394.49 793.16C1394.79 791.595 1395.55 790.154 1396.67 789.022C1397.79 787.889 1399.22 787.114 1400.78 786.793C1401.82 786.575 1402.89 786.565 1403.93 786.764C1404.97 786.963 1405.96 787.364 1406.85 787.95C1407.73 788.533 1408.49 789.286 1409.08 790.166C1409.67 791.046 1410.09 792.032 1410.29 793.072Z" fill="#1F2223"/>
<path d="M1459.37 478.465C1459.37 484.191 1457.67 489.788 1454.49 494.548C1451.31 499.309 1446.79 503.019 1441.5 505.21C1436.21 507.401 1430.39 507.975 1424.78 506.858C1419.16 505.741 1414 502.984 1409.95 498.935C1405.9 494.886 1403.15 489.728 1402.03 484.113C1400.91 478.497 1401.49 472.677 1403.68 467.387C1405.87 462.097 1409.58 457.576 1414.34 454.395C1419.1 451.214 1424.7 449.517 1430.42 449.517C1438.1 449.521 1445.46 452.573 1450.89 458C1456.31 463.428 1459.37 470.789 1459.37 478.465Z" stroke="#1F2223" stroke-width="1.1"/>
<path d="M1522.67 718.506L1546.54 730.556C1551.44 733.022 1557.12 733.445 1562.33 731.732C1567.54 730.019 1571.86 726.308 1574.34 721.414L1601.67 667.303" stroke="#1F2223" stroke-width="1.1" stroke-linecap="round" stroke-linejoin="round"/>
<path d="M1618.98 633.045L1635.84 599.71C1638.3 594.811 1638.72 589.133 1637.01 583.923C1635.3 578.712 1631.59 574.394 1626.69 571.916L1458.02 486.702M1362.41 597.596L1411.35 500.661" stroke="#1F2223" stroke-width="1.1" stroke-linecap="round" stroke-linejoin="round"/>
<path d="M1636.62 582.627L1495.75 605.343L1443.68 504.219" stroke="#1F2223" stroke-width="1.1" stroke-linecap="round" stroke-linejoin="round"/>
<path d="M1418.57 726.216C1408.06 737.77 1395.33 747.09 1381.14 753.617C1366.95 760.146 1351.6 763.75 1335.98 764.214C1320.37 764.678 1304.83 761.993 1290.28 756.319C1275.72 750.645 1262.46 742.098 1251.29 731.19C1240.11 720.279 1231.24 707.233 1225.22 692.823C1219.19 678.413 1216.13 662.936 1216.22 647.318C1216.31 631.7 1219.54 616.259 1225.72 601.916C1231.9 587.573 1240.91 574.622 1252.2 563.836" stroke="#1F2223" stroke-width="1.1" stroke-linecap="round" stroke-linejoin="round"/>
<path d="M1344.96 587.244C1344.83 583.745 1345.13 580.242 1345.85 576.815C1351.47 580.579 1356.13 578.239 1359.54 573.369C1363.92 566.282 1366.17 558.084 1366.02 549.754" stroke="#1F2223" stroke-width="1.1" stroke-linecap="round" stroke-linejoin="round"/>
<path d="M1342.51 642.233C1346.47 647.986 1350.73 653.532 1355.25 658.854C1362.53 655.804 1369.23 651.536 1375.07 646.232C1379.4 642.305 1383.28 637.913 1386.65 633.137C1378.68 622.72 1371.3 611.869 1364.54 600.633C1361.24 595.154 1356.3 590.858 1350.41 588.362C1347.89 587.381 1345.16 587.032 1342.47 587.346C1340.47 587.87 1338.38 587.917 1336.36 587.482C1334.34 587.047 1332.45 586.143 1330.85 584.843" stroke="#1F2223" stroke-width="1.1" stroke-linecap="round" stroke-linejoin="round"/>
<path d="M1584.13 631.198C1590.4 631.429 1602.87 631.383 1610.49 631.244C1605.19 643.834 1597.7 655.386 1588.38 665.364C1586.02 664.994 1581.03 664.487 1578.77 664.348" stroke="#1F2223" stroke-width="1.1" stroke-linecap="round" stroke-linejoin="round"/>
<path d="M1658.41 631.429C1661.04 631.798 1662.73 632.401 1662.93 633.229C1664.21 638.473 1636.77 651.211 1624.43 661.162C1620.84 664.093 1616.83 666.46 1612.52 668.18C1609.38 668.756 1606.16 668.695 1603.04 667.995C1607.62 666.008 1611.91 663.417 1615.8 660.29C1627.91 650.521 1652.92 638.401 1658.41 631.429Z" stroke="#1F2223" stroke-width="1.1" stroke-linecap="round" stroke-linejoin="round"/>
<path d="M1610.54 631.244C1624.21 630.967 1648.49 629.998 1658.41 631.429C1652.92 638.354 1627.9 650.509 1615.75 660.285C1611.86 663.413 1607.58 666.005 1603.01 667.996C1598.62 667.303 1593.5 666.149 1588.37 665.364C1597.72 655.391 1605.23 643.839 1610.54 631.244Z" stroke="#1F2223" stroke-width="1.1" stroke-linecap="round" stroke-linejoin="round"/>
<path d="M1516.07 776.359C1515.65 783.285 1516.07 793.488 1516.62 803.969C1503.85 799.128 1492.03 792.062 1481.72 783.1C1481.99 780.745 1482.18 778.39 1482.23 776.174" stroke="#1F2223" stroke-width="1.1" stroke-linecap="round" stroke-linejoin="round"/>
<path d="M1518.15 851.801C1517.87 854.474 1517.37 856.15 1516.53 856.418C1511.38 858.058 1497.59 830.89 1487.21 818.928C1484.14 815.44 1481.61 811.501 1479.73 807.247C1479.06 804.129 1479.01 800.907 1479.59 797.77C1481.75 802.27 1484.5 806.462 1487.77 810.235C1497.97 822.014 1511.04 846.537 1518.15 851.801Z" stroke="#1F2223" stroke-width="1.1" stroke-linecap="round" stroke-linejoin="round"/>
<path d="M1516.62 803.922C1517.41 817.589 1519.25 841.83 1518.15 851.793C1511.04 846.53 1497.94 821.994 1487.77 810.24C1484.51 806.464 1481.76 802.273 1479.6 797.775C1480.15 793.342 1481.08 788.169 1481.68 783.044C1491.99 792.02 1503.83 799.089 1516.62 803.922Z" stroke="#1F2223" stroke-width="1.1" stroke-linecap="round" stroke-linejoin="round"/>
<path d="M1376.82 681.154C1355.67 670.766 1342.93 643.202 1342.51 642.233" stroke="#1F2223" stroke-width="1.1" stroke-linecap="round" stroke-linejoin="round"/>
<path d="M1358.12 657.561C1364.68 665.318 1372.9 673.667 1380.79 677.973C1384.79 680.243 1389.46 681.042 1394 680.235C1413.27 676.347 1449.72 657.381 1459.23 647.224C1476.46 628.829 1475.04 614.815 1473.55 591.404C1472.94 581.893 1471.74 582.122 1470.31 586.544C1468.19 593.144 1465.5 609.143 1463.3 615.447C1463.09 616.081 1462.66 616.621 1462.1 616.97C1460.39 617.942 1459.32 615.816 1458.45 612.815C1457.52 609.629 1456.86 605.387 1456 602.852C1454.49 598.383 1451.42 594.311 1450.92 607.423C1450.64 615.133 1450.62 628.413 1442.25 633.278C1435.73 636.992 1428.94 640.202 1421.93 642.881C1414.68 645.72 1407.09 647.583 1399.35 648.422C1395.15 648.645 1389.52 643.851 1384.16 636.418" stroke="#1F2223" stroke-width="1.1" stroke-linecap="round" stroke-linejoin="round"/>
<path d="M1465.37 607.744L1473.13 573.624C1473.3 572.877 1473.17 572.093 1472.76 571.443C1472.35 570.794 1471.71 570.333 1470.96 570.161C1470.21 569.99 1469.43 570.122 1468.78 570.529C1468.13 570.936 1467.67 571.584 1467.5 572.331L1458.36 612.545" stroke="#1F2223" stroke-width="1.1" stroke-linecap="round" stroke-linejoin="round"/>
<path d="M1479.56 701.697C1486.77 698.604 1491.8 696.39 1491.8 696.39L1480.19 724.369" stroke="#1F2223" stroke-width="1.1" stroke-linecap="round" stroke-linejoin="round"/>
<path d="M1380.79 677.968C1372.07 684.945 1362.93 691.377 1353.41 697.226C1337.9 686.4 1327.13 670.039 1323.31 651.513" stroke="#1F2223" stroke-width="1.1" stroke-linecap="round" stroke-linejoin="round"/>
<path d="M1468.88 633.922L1490.54 624.734C1495.9 622.468 1501.72 621.503 1507.53 621.918L1583.76 627.597C1585.47 643.55 1585.27 652.725 1577.48 666.749L1513.85 667.349" stroke="#1F2223" stroke-width="1.1" stroke-linecap="round" stroke-linejoin="round"/>
<path d="M1355.21 536.411C1355.21 536.411 1347.13 521.265 1328.11 530.501C1309.09 539.738 1312.78 576.856 1312.78 576.856C1312.78 576.856 1295.88 584.936 1286.88 598.556C1272.93 619.655 1279.95 651.513 1323.31 651.513C1321.25 642.418 1320.53 633.068 1321.19 623.765C1322.34 607.374 1328.3 592.369 1333.56 576.994C1334.76 573.439 1337.63 564.759 1338.6 561.156C1339.47 557.788 1339.89 555.431 1341.18 551.416C1335.59 546.107 1342.24 539.735 1345.24 544.904C1346.57 547.091 1346.83 546.964 1348.28 547.443C1351.87 548.624 1361.54 551.304 1368.74 549.144C1368.74 549.151 1369.2 536.411 1355.21 536.411Z" stroke="#1F2223" stroke-width="1.1" stroke-linecap="round" stroke-linejoin="round"/>
<path d="M1264.07 544.35C1247.7 552.245 1232.3 562.006 1218.18 573.439C1217.78 573.687 1217.45 574.027 1217.21 574.43C1216.97 574.834 1216.84 575.289 1216.81 575.757C1216.79 576.224 1216.88 576.69 1217.08 577.115C1217.28 577.54 1217.57 577.91 1217.95 578.195L1228.47 586.552C1234.85 578.185 1243.5 571.114 1252.19 563.809C1245.5 572.462 1239.64 581.725 1234.69 591.477L1246.02 600.449C1246.39 600.739 1246.82 600.937 1247.27 601.026C1247.73 601.116 1248.2 601.094 1248.65 600.963C1249.1 600.832 1249.51 600.595 1249.85 600.272C1250.18 599.95 1250.44 599.551 1250.59 599.11L1268.41 547.781C1268.62 547.206 1268.64 546.579 1268.47 545.991C1268.3 545.402 1267.96 544.881 1267.48 544.502C1267 544.122 1266.41 543.903 1265.8 543.876C1265.19 543.849 1264.58 544.014 1264.07 544.35Z" stroke="#1F2223" stroke-width="1.1" stroke-linecap="round" stroke-linejoin="round"/>
<path d="M1667.32 546.753L1658.69 576.487" stroke="#1F2223" stroke-width="1.1" stroke-linecap="round" stroke-linejoin="round"/>
<path d="M1677.85 565.914L1648.12 557.28" stroke="#1F2223" stroke-width="1.1" stroke-linecap="round" stroke-linejoin="round"/>
<path d="M1480.24 760.197C1493.35 762.355 1506.72 762.6 1519.9 760.926" stroke="#1F2223" stroke-width="1.1" stroke-linecap="round" stroke-linejoin="round"/>
<path d="M1566.12 626.396C1568.2 640.247 1565.96 654.402 1559.7 666.933" stroke="#1F2223" stroke-width="1.1" stroke-linecap="round" stroke-linejoin="round"/>
<path d="M1410.29 793.072C1410.61 794.635 1410.46 796.256 1409.86 797.731C1409.26 799.206 1408.23 800.469 1406.91 801.363C1405.59 802.255 1404.04 802.736 1402.44 802.746C1400.85 802.753 1399.29 802.289 1397.96 801.412C1396.63 800.535 1395.59 799.281 1394.97 797.813C1394.35 796.343 1394.18 794.725 1394.49 793.16C1394.79 791.595 1395.55 790.154 1396.67 789.022C1397.79 787.889 1399.22 787.114 1400.78 786.793C1401.82 786.575 1402.89 786.565 1403.93 786.764C1404.97 786.963 1405.96 787.364 1406.85 787.95C1407.73 788.533 1408.49 789.286 1409.08 790.166C1409.67 791.046 1410.09 792.032 1410.29 793.072Z" stroke="#1F2223" stroke-width="1.1" stroke-linecap="round" stroke-linejoin="round"/>
<path d="M1406.65 767.817C1409.74 764.923 1413.63 763.011 1417.81 762.326C1421.99 761.638 1426.28 762.207 1430.14 763.959C1434 765.711 1437.25 768.568 1439.49 772.17C1441.72 775.768 1442.84 779.953 1442.7 784.188C1442.55 788.424 1441.16 792.521 1438.69 795.964C1436.22 799.407 1432.78 802.039 1428.81 803.529C1424.85 805.018 1420.52 805.298 1416.4 804.333C1412.27 803.368 1408.52 801.201 1405.63 798.105C1401.75 793.952 1399.68 788.431 1399.87 782.75C1400.06 777.071 1402.5 771.701 1406.65 767.817Z" stroke="#1F2223" stroke-width="1.1" stroke-linecap="round" stroke-linejoin="round"/>
<path d="M1353.41 697.226C1353.41 697.226 1371.42 748.521 1438.46 719.526L1479.56 701.697C1480.07 721.093 1481.15 753.92 1479.51 775.435C1492.03 779.248 1505.38 779.377 1517.97 775.805C1523.01 741.637 1526.9 687.703 1513.86 667.349C1496.98 640.976 1445.07 657.884 1445.07 657.884" stroke="#1F2223" stroke-width="1.1" stroke-linecap="round" stroke-linejoin="round"/>
<path d="M1345.85 576.815C1343.62 575.229 1341.67 573.295 1340.06 571.087L1344.96 583.412" stroke="#1F2223" stroke-width="1.1" stroke-linecap="round" stroke-linejoin="round"/>
</svg>
