<svg width="1728" height="1117" viewBox="0 0 1728 1117" fill="none" xmlns="http://www.w3.org/2000/svg">
<g clip-path="url(#clip0_937_4531)">
<rect width="1728" height="1117" fill="#F5F2EA"/>
<path d="M1658.55 733.173C1659.72 732.084 1661.18 731.365 1662.75 731.107C1664.33 730.848 1665.94 731.062 1667.39 731.721C1668.84 732.38 1670.07 733.455 1670.91 734.81C1671.75 736.163 1672.17 737.737 1672.12 739.331C1672.06 740.924 1671.54 742.465 1670.61 743.76C1669.68 745.055 1668.39 746.045 1666.89 746.606C1665.4 747.166 1663.78 747.271 1662.22 746.908C1660.67 746.545 1659.26 745.73 1658.17 744.565C1656.71 743.003 1655.93 740.927 1656 738.789C1656.08 736.653 1656.99 734.633 1658.55 733.173Z" stroke="black" stroke-width="1.1" stroke-linecap="round" stroke-linejoin="round"/>
<path d="M43.5539 273.173C44.7184 272.084 46.1796 271.365 47.7528 271.107C49.3259 270.848 50.9404 271.062 52.392 271.721C53.8436 272.38 55.0672 273.455 55.9079 274.81C56.7487 276.163 57.1689 277.737 57.1155 279.331C57.0621 280.924 56.5374 282.465 55.6077 283.76C54.6781 285.055 53.3853 286.045 51.8928 286.606C50.4003 287.166 48.7752 287.271 47.2228 286.908C45.6705 286.545 44.2607 285.73 43.1718 284.565C41.7124 283.003 40.9329 280.927 41.0045 278.789C41.0762 276.653 41.9932 274.633 43.5539 273.173Z" stroke="black" stroke-width="1.1" stroke-linecap="round" stroke-linejoin="round"/>
<path d="M1672.21 1013L1663.57 1042.73" stroke="black" stroke-width="1.1" stroke-linecap="round" stroke-linejoin="round"/>
<path d="M1682.73 1032.16L1653 1023.53" stroke="black" stroke-width="1.1" stroke-linecap="round" stroke-linejoin="round"/>
<path d="M91.208 599L82.5742 628.733" stroke="black" stroke-width="1.1" stroke-linecap="round" stroke-linejoin="round"/>
<path d="M101.733 618.161L72 609.527" stroke="black" stroke-width="1.1" stroke-linecap="round" stroke-linejoin="round"/>
<path d="M25.9999 950.367C49.0926 963.78 63.8698 928.946 86.9999 942.48" stroke="black" stroke-width="1.1" stroke-linecap="round" stroke-linejoin="round"/>
<path d="M1602 423.367C1625.09 436.78 1639.87 401.946 1663 415.48" stroke="black" stroke-width="1.1" stroke-linecap="round" stroke-linejoin="round"/>
</g>
<defs>
<clipPath id="clip0_937_4531">
<rect width="1728" height="1117" fill="white"/>
</clipPath>
</defs>
</svg>
