<svg width="1728" height="1117" viewBox="0 0 1728 1117" fill="none" xmlns="http://www.w3.org/2000/svg">
<g clip-path="url(#clip0_916_4104)">
<rect width="1728" height="1117" rx="24" fill="#F5F2EA"/>
<path d="M1492.55 716.173C1493.72 715.084 1495.18 714.365 1496.75 714.107C1498.33 713.848 1499.94 714.062 1501.39 714.721C1502.84 715.38 1504.07 716.455 1504.91 717.81C1505.75 719.163 1506.17 720.737 1506.12 722.331C1506.06 723.924 1505.54 725.465 1504.61 726.76C1503.68 728.055 1502.39 729.045 1500.89 729.606C1499.4 730.166 1497.78 730.271 1496.22 729.908C1494.67 729.545 1493.26 728.73 1492.17 727.565C1490.71 726.003 1489.93 723.927 1490 721.789C1490.08 719.653 1490.99 717.633 1492.55 716.173Z" stroke="black" stroke-width="1.1" stroke-linecap="round" stroke-linejoin="round"/>
<path d="M286.554 745.173C287.718 744.084 289.18 743.365 290.753 743.107C292.326 742.848 293.94 743.062 295.392 743.721C296.844 744.38 298.067 745.455 298.908 746.81C299.749 748.163 300.169 749.737 300.115 751.331C300.062 752.924 299.537 754.465 298.608 755.76C297.678 757.055 296.385 758.045 294.893 758.606C293.4 759.166 291.775 759.271 290.223 758.908C288.671 758.545 287.261 757.73 286.172 756.565C284.712 755.003 283.933 752.927 284.005 750.789C284.076 748.653 284.993 746.633 286.554 745.173Z" stroke="black" stroke-width="1.1" stroke-linecap="round" stroke-linejoin="round"/>
<path d="M1417.21 492L1408.57 521.733" stroke="black" stroke-width="1.1" stroke-linecap="round" stroke-linejoin="round"/>
<path d="M1427.73 511.161L1398 502.527" stroke="black" stroke-width="1.1" stroke-linecap="round" stroke-linejoin="round"/>
<rect x="1646.5" y="616.5" width="149" height="95" stroke="black"/>
<path d="M1668 681.5L1748 681.012" stroke="black"/>
<path d="M1668 651H1769.5" stroke="black"/>
<rect x="-56.5" y="759.5" width="149" height="95" stroke="black"/>
<path d="M-35 824.5L45.0001 824.012" stroke="black"/>
<path d="M-35 794H66.5" stroke="black"/>
<path d="M108 590.367C131.093 603.78 145.87 568.946 169 582.48" stroke="black" stroke-width="1.1" stroke-linecap="round" stroke-linejoin="round"/>
<path d="M1432 931.367C1455.09 944.78 1469.87 909.946 1493 923.48" stroke="black" stroke-width="1.1" stroke-linecap="round" stroke-linejoin="round"/>
<path d="M1552 360.367C1575.09 373.78 1589.87 338.946 1613 352.48" stroke="black" stroke-width="1.1" stroke-linecap="round" stroke-linejoin="round"/>
<path d="M237.648 367L231.23 391.883" stroke="black" stroke-width="1.1" stroke-linecap="round" stroke-linejoin="round"/>
<path d="M246.883 382.695L222 376.231" stroke="black" stroke-width="1.1" stroke-linecap="round" stroke-linejoin="round"/>
<path d="M192 975.367C215.093 988.78 229.87 953.946 253 967.48" stroke="black" stroke-width="1.1" stroke-linecap="round" stroke-linejoin="round"/>
</g>
<defs>
<clipPath id="clip0_916_4104">
<rect width="1728" height="1117" rx="24" fill="white"/>
</clipPath>
</defs>
</svg>
