<svg width="1728" height="1117" viewBox="0 0 1728 1117" fill="none" xmlns="http://www.w3.org/2000/svg">
<g clip-path="url(#clip0_937_4531)">
<rect width="1728" height="1117" fill="#F5F2EA"/>
<path d="M1539.55 770.173C1540.72 769.084 1542.18 768.365 1543.75 768.107C1545.33 767.848 1546.94 768.062 1548.39 768.721C1549.84 769.38 1551.07 770.455 1551.91 771.81C1552.75 773.163 1553.17 774.737 1553.12 776.331C1553.06 777.924 1552.54 779.465 1551.61 780.76C1550.68 782.055 1549.39 783.045 1547.89 783.606C1546.4 784.166 1544.78 784.271 1543.22 783.908C1541.67 783.545 1540.26 782.73 1539.17 781.565C1537.71 780.003 1536.93 777.927 1537 775.789C1537.08 773.653 1537.99 771.633 1539.55 770.173Z" stroke="black" stroke-width="1.1" stroke-linecap="round" stroke-linejoin="round"/>
<path d="M133.554 270.173C134.718 269.084 136.18 268.365 137.753 268.107C139.326 267.848 140.94 268.062 142.392 268.721C143.844 269.38 145.067 270.455 145.908 271.81C146.749 273.163 147.169 274.737 147.115 276.331C147.062 277.924 146.537 279.465 145.608 280.76C144.678 282.055 143.385 283.045 141.893 283.606C140.4 284.166 138.775 284.271 137.223 283.908C135.671 283.545 134.261 282.73 133.172 281.565C131.712 280.003 130.933 277.927 131.005 275.789C131.076 273.653 131.993 271.633 133.554 270.173Z" stroke="black" stroke-width="1.1" stroke-linecap="round" stroke-linejoin="round"/>
<path d="M1672.21 1013L1663.57 1042.73" stroke="black" stroke-width="1.1" stroke-linecap="round" stroke-linejoin="round"/>
<path d="M1682.73 1032.16L1653 1023.53" stroke="black" stroke-width="1.1" stroke-linecap="round" stroke-linejoin="round"/>
<path d="M80.208 574L71.5742 603.733" stroke="black" stroke-width="1.1" stroke-linecap="round" stroke-linejoin="round"/>
<path d="M90.7335 593.161L61 584.527" stroke="black" stroke-width="1.1" stroke-linecap="round" stroke-linejoin="round"/>
<path d="M161 930.367C184.093 943.78 198.87 908.946 222 922.48" stroke="black" stroke-width="1.1" stroke-linecap="round" stroke-linejoin="round"/>
<path d="M1592 423.367C1615.09 436.78 1629.87 401.946 1653 415.48" stroke="black" stroke-width="1.1" stroke-linecap="round" stroke-linejoin="round"/>
</g>
<defs>
<clipPath id="clip0_937_4531">
<rect width="1728" height="1117" fill="white"/>
</clipPath>
</defs>
</svg>
