<svg width="1728" height="1117" viewBox="0 0 1728 1117" fill="none" xmlns="http://www.w3.org/2000/svg">
<rect width="1728" height="1117" rx="24" fill="#F5F2EA"/>
<path d="M89 870H1638.5" stroke="#1F2223"/>
<rect x="184" y="666" width="139" height="191" rx="24" fill="#FDDE92"/>
<rect x="184" y="666" width="139" height="191" rx="24" fill="#FDDE92"/>
<rect x="355.5" y="725.5" width="132" height="131" fill="white" stroke="#1F2223"/>
<rect x="284.5" y="394.5" width="149" height="95" stroke="#1F2223"/>
<path d="M285 489.5V550.5L331 489.5" stroke="#FDC886"/>
<path d="M306 459.5L386 459.012" stroke="#1F2223"/>
<path d="M306 429H407.5" stroke="#1F2223"/>
<circle cx="509" cy="549" r="13.5" stroke="#1F2223"/>
<circle cx="245" cy="251" r="7.5" stroke="#1F2223"/>
<path d="M112 353.431C185.775 393.106 201.233 279.894 275 319.569" stroke="#1F2223" stroke-width="1.1" stroke-linecap="round" stroke-linejoin="round"/>
<path d="M122.48 520.892L152.884 504.37L126.665 526.967L135.306 539.507C135.589 539.914 135.966 540.248 136.404 540.479C136.842 540.711 137.33 540.834 137.826 540.839C138.321 540.844 138.811 540.729 139.254 540.506C139.696 540.282 140.079 539.956 140.369 539.554L174.266 493.215C174.639 492.695 174.842 492.073 174.848 491.433C174.854 490.794 174.663 490.168 174.3 489.641C173.938 489.115 173.421 488.713 172.822 488.49C172.222 488.267 171.569 488.235 170.95 488.398L115.54 503.584C115.063 503.711 114.625 503.951 114.26 504.284C113.895 504.616 113.615 505.031 113.444 505.493C113.272 505.956 113.214 506.453 113.274 506.942C113.334 507.432 113.51 507.9 113.788 508.308L122.48 520.892Z" fill="#FDC886"/>
<path d="M252.767 666.091C252.767 666.091 222.417 646.487 214.196 630.346C205.975 614.204 228.642 597.315 239.201 618.096C249.933 639.201 252.767 666.091 252.767 666.091Z" stroke="#1F2223" stroke-width="1.1" stroke-linecap="round" stroke-linejoin="round"/>
<path d="M495 684.789C517.256 696.747 521.92 662.625 544.174 674.583" stroke="#1F2223" stroke-width="1.1" stroke-linecap="round" stroke-linejoin="round"/>
<path d="M253.415 666.478C253.415 666.478 284.798 648.616 293.922 632.93C303.046 617.244 281.334 599.184 269.662 619.298C257.744 639.791 253.415 666.478 253.415 666.478Z" stroke="#1F2223" stroke-width="1.1" stroke-linecap="round" stroke-linejoin="round"/>
<rect x="241.5" y="666.5" width="23" height="190" fill="#F5F2EA" stroke="#1F2223"/>
<g clip-path="url(#clip0_840_2662)">
<path d="M1268.26 676.722C1267.51 675.116 1266.46 673.672 1265.15 672.474C1263.85 671.276 1262.32 670.348 1260.66 669.745C1258.99 669.14 1257.22 668.868 1255.45 668.948C1253.68 669.028 1251.95 669.459 1250.35 670.212L1229.75 679.815L1242.31 706.788C1245.58 708.237 1248.94 709.454 1252.38 710.433C1242.73 694.966 1246.23 692.288 1256.39 703.369C1266.17 714.037 1278.23 714.938 1286.36 715.699L1268.26 676.722Z" fill="#FDC886"/>
<path d="M1265.67 741.916C1263.04 741.143 1260.25 740.298 1257.46 739.423L1267.52 761.03C1265.83 754.81 1265.21 748.346 1265.67 741.916Z" fill="#FDC886"/>
<path d="M1272.78 766.158C1271.41 766.743 1269.97 765.652 1269.09 764.309L1273.11 772.899L1293.1 763.57C1287.37 764.36 1276.15 765.74 1272.78 766.158Z" fill="#FDC886"/>
<path d="M1239.49 733.013C1235.52 731.443 1231.46 729.827 1227.63 727.934C1222.46 725.395 1222.77 722.763 1227.81 723.964C1229.66 724.379 1231.83 724.656 1235.38 725.115C1231.32 723.606 1227.35 721.832 1223.52 719.806C1218.3 716.853 1219.32 713.434 1224.3 715.237C1225.64 715.745 1228.74 716.712 1232.34 717.636L1231.78 716.482C1228.93 714.863 1226.18 713.092 1223.52 711.174C1218.72 707.478 1220.1 704.246 1224.81 706.74C1225.51 707.109 1226.57 707.571 1227.86 708.125L1217.33 685.501L1196.79 695.105C1195.18 695.851 1193.74 696.905 1192.54 698.21C1191.34 699.515 1190.41 701.044 1189.81 702.708C1189.2 704.373 1188.93 706.142 1189.01 707.911C1189.09 709.68 1189.52 711.415 1190.28 713.019L1222.23 781.725C1222.97 783.331 1224.03 784.774 1225.33 785.972C1226.64 787.168 1228.17 788.096 1229.83 788.701C1231.49 789.306 1233.26 789.576 1235.03 789.496C1236.8 789.416 1238.54 788.988 1240.14 788.235L1260.73 778.629L1239.49 733.013Z" fill="#FDC886"/>
<path d="M1382.95 416.403L1351.04 429.795L1379.4 409.939L1372.05 396.596C1371.81 396.163 1371.47 395.793 1371.06 395.519C1370.65 395.244 1370.17 395.073 1369.68 395.019C1369.19 394.964 1368.69 395.029 1368.23 395.207C1367.76 395.385 1367.35 395.672 1367.02 396.042L1328.65 438.752C1328.23 439.232 1327.96 439.83 1327.89 440.466C1327.82 441.101 1327.95 441.743 1328.26 442.304C1328.57 442.864 1329.04 443.316 1329.62 443.597C1330.19 443.879 1330.84 443.976 1331.47 443.877L1388.12 434.32C1388.61 434.24 1389.07 434.045 1389.47 433.751C1389.86 433.457 1390.18 433.073 1390.4 432.63C1390.62 432.187 1390.72 431.698 1390.71 431.205C1390.7 430.712 1390.57 430.228 1390.34 429.795L1382.95 416.403Z" fill="#FDC886"/>
<path d="M1400.5 653.265C1396.89 654.929 1396.06 661.483 1397.58 670.581C1404.88 669.993 1412.1 668.678 1419.14 666.656C1411.99 657.053 1404.7 651.325 1400.5 653.265Z" fill="#CFD181"/>
<path d="M1437.3 702.808C1430.69 708.042 1422.94 711.624 1414.67 713.257C1423.35 727.154 1432.59 735.557 1437.71 733.156C1442.84 730.789 1442.37 718.369 1437.3 702.808Z" fill="#CFD181"/>
<path d="M1609.75 458.928C1598.34 468.762 1577.66 501.591 1573.82 513.457C1574.52 519.182 1575.07 523.245 1575.44 526.708C1583.94 527.844 1592.57 527.673 1601.02 526.2L1600.93 522.414C1610.81 490.141 1611.18 476.288 1609.75 458.928Z" fill="#CFD181"/>
<path d="M1472.71 419.45C1464.49 434.178 1455.9 467.977 1455.21 483.308C1457.66 487.23 1460.01 491.108 1462.28 494.943C1468.8 489.142 1476.2 484.418 1484.21 480.951C1484.35 472.361 1485.5 457.016 1472.71 419.45Z" fill="#CFD181"/>
<path d="M1265.67 741.916C1265.03 755.259 1267.66 765.973 1271.77 766.294C1275.66 766.619 1279.57 757.752 1281.14 745.748C1275.88 744.924 1270.71 743.641 1265.67 741.916Z" fill="#CFD181"/>
<path d="M1378.98 789.658C1376.05 790.985 1373.41 792.878 1371.21 795.228C1369.01 797.575 1367.29 800.336 1366.16 803.346C1365.02 806.36 1364.49 809.565 1364.6 812.782C1364.7 815.997 1365.44 819.163 1366.77 822.094C1368.09 825.024 1369.99 827.666 1372.34 829.867C1374.68 832.069 1377.44 833.785 1380.46 834.917C1383.47 836.052 1386.67 836.581 1389.89 836.477C1393.11 836.373 1396.27 835.634 1399.2 834.307L1378.98 789.658Z" fill="#CFD181"/>
<path d="M1601.53 545.04L1601.67 551.781C1609.75 549.791 1609.56 546.887 1601.53 545.04Z" fill="#CFD181"/>
<path d="M1462.23 523.845C1463.26 525.636 1469.24 524.215 1476.91 520.706C1475.57 518.074 1474.09 515.36 1472.57 512.534C1465.5 517.471 1461.18 522.035 1462.23 523.845Z" fill="#CFD181"/>
<path d="M1503.32 500.114C1502.63 498.914 1499.72 499.142 1495.61 500.483L1499.17 506.578C1502.4 503.669 1504.01 501.315 1503.32 500.114Z" fill="#CFD181"/>
<path d="M1384.8 696.528C1383.58 700.392 1381.98 704.122 1380 707.655L1384.94 710.012L1384.8 696.528Z" fill="#CFD181"/>
<path d="M1357.55 657.977L1355.34 664.994L1353.86 659.916L1357.55 657.977Z" fill="#CFD181"/>
<path d="M1559.97 548.41C1559.97 550.626 1566.62 552.473 1575.86 553.166C1575.99 549.426 1576.04 546.333 1576.09 543.655C1566.71 544.301 1559.97 546.194 1559.97 548.41Z" fill="#CFD181"/>
<path d="M1609.47 588.717C1616.39 604.268 1620.16 621.038 1620.56 638.056C1620.96 655.073 1617.98 672.003 1611.79 687.861C1605.6 703.717 1596.33 718.192 1584.51 730.442C1572.69 742.691 1558.56 752.477 1542.94 759.23" stroke="#1F2223" stroke-width="1.1" stroke-linecap="round" stroke-linejoin="round"/>
<path d="M1511.49 514.011C1535.45 517.659 1557.87 528.017 1576.18 543.886" stroke="#1F2223" stroke-width="1.1" stroke-linecap="round" stroke-linejoin="round"/>
<path d="M1434.62 526.016C1445.79 520.428 1457.72 516.509 1470.03 514.383" stroke="#1F2223" stroke-width="1.1" stroke-linecap="round" stroke-linejoin="round"/>
<path d="M1358.06 743.394L1409.41 856.7" stroke="#1F2223" stroke-width="1.1" stroke-linecap="round" stroke-linejoin="round"/>
<path d="M1330.55 682.631L1258.1 522.876C1254.18 514.371 1259.72 506.855 1269 508.053L1394.77 524.489C1402.08 525.447 1409.03 528.234 1414.98 532.592C1420.93 536.951 1425.68 542.74 1428.79 549.424L1571.09 856.605" stroke="#1F2223" stroke-width="1.1" stroke-linecap="round" stroke-linejoin="round"/>
<path d="M1356.07 667.911C1340.05 678.719 1322.62 687.278 1304.27 693.343C1295.27 694.636 1286.21 695.421 1277.12 695.698" stroke="#1F2223" stroke-width="1.1" stroke-linecap="round" stroke-linejoin="round"/>
<path d="M1286.31 715.646L1268.2 676.676C1266.69 673.439 1263.95 670.934 1260.59 669.714C1257.23 668.494 1253.53 668.657 1250.29 670.166L1196.79 695.144C1193.55 696.657 1191.04 699.394 1189.82 702.752C1188.6 706.113 1188.76 709.818 1190.27 713.058L1222.23 781.763C1223.74 785 1226.48 787.505 1229.84 788.725C1233.19 789.945 1236.9 789.782 1240.14 788.273L1293.1 763.57" stroke="#1F2223" stroke-width="1.1" stroke-linecap="round" stroke-linejoin="round"/>
<path d="M1223.29 682.724C1223.29 682.724 1187.31 679.414 1172.54 668.919C1157.78 658.424 1170.04 632.955 1189.03 646.478C1208.32 660.208 1223.29 682.724 1223.29 682.724Z" stroke="#1F2223" stroke-width="1.1" stroke-linecap="round" stroke-linejoin="round"/>
<path d="M1223.25 682.724C1223.25 682.724 1245.62 654.378 1248.18 636.413C1250.74 618.448 1223.83 609.87 1220.58 632.897C1217.23 656.366 1223.25 682.724 1223.25 682.724Z" stroke="#1F2223" stroke-width="1.1" stroke-linecap="round" stroke-linejoin="round"/>
<path d="M1355.27 665.233L1357.55 657.943C1357.55 657.943 1336 672.579 1339.96 641.088C1342.81 618.489 1354.64 629.424 1357.38 637.737C1358.02 639.681 1358.8 640.296 1360.78 637.348C1364.33 632.083 1370.88 639.144 1363.23 646.398C1361.76 647.793 1362.32 658.157 1371.12 665.699C1376.71 670.491 1394.02 673.825 1419.09 666.671" stroke="#1F2223" stroke-width="1.1" stroke-linecap="round" stroke-linejoin="round"/>
<path d="M1353.86 659.916C1355.3 666.137 1357.36 672.2 1360 678.015" stroke="#1F2223" stroke-width="1.1" stroke-linecap="round" stroke-linejoin="round"/>
<path d="M1367.53 661.901C1361.94 679.769 1345.5 699.622 1332.62 715.784C1313.84 717.395 1294.94 716.96 1276.25 714.489" stroke="#1F2223" stroke-width="1.1" stroke-linecap="round" stroke-linejoin="round"/>
<path d="M1437.3 702.808C1429.29 709.164 1419.58 713.018 1409.39 713.884C1399.2 714.749 1388.99 712.586 1380.02 707.668C1373.53 719.827 1366.32 731.586 1358.43 742.883C1355.82 746.815 1351.94 749.731 1347.44 751.145C1323.09 758.625 1298.05 763.667 1272.69 766.197" stroke="#1F2223" stroke-width="1.1" stroke-linecap="round" stroke-linejoin="round"/>
<path d="M1414.67 713.244C1423.35 727.142 1432.58 735.525 1437.71 733.144C1453.6 725.774 1416.63 645.819 1400.5 653.265C1396.89 654.929 1396.06 661.483 1397.58 670.581" stroke="#1F2223" stroke-width="1.1" stroke-linecap="round" stroke-linejoin="round"/>
<path d="M1559.97 548.411C1560.44 562.631 1562.19 614.021 1562.19 619.33C1554.06 620.577 1489.93 635.998 1486.28 636.644" stroke="#1F2223" stroke-width="1.1" stroke-linecap="round" stroke-linejoin="round"/>
<path d="M1512.42 692.835C1609.8 658.572 1607.66 660.19 1609.62 633.458C1610.86 616.421 1608.83 567.571 1607.63 548.364" stroke="#1F2223" stroke-width="1.1" stroke-linecap="round" stroke-linejoin="round"/>
<path d="M1462.23 523.846C1469.24 536.219 1497.22 582.484 1499.72 587.147C1497.05 589.133 1484.81 602.386 1474.69 611.897" stroke="#1F2223" stroke-width="1.1" stroke-linecap="round" stroke-linejoin="round"/>
<path d="M1535.83 625.101C1554.9 595.596 1551.19 588.26 1545.3 575.974C1537.67 560.096 1512.52 515.119 1503.19 499.976" stroke="#1F2223" stroke-width="1.1" stroke-linecap="round" stroke-linejoin="round"/>
<path d="M1257.81 513.11C1260.31 507.254 1264.65 502.373 1270.18 499.204C1275.7 496.035 1282.11 494.75 1288.43 495.544L1411.75 511.426C1417.09 512.111 1422.18 514.14 1426.52 517.322C1430.87 520.504 1434.34 524.736 1436.6 529.622L1588.09 856.612" stroke="#1F2223" stroke-width="1.1" stroke-linecap="round" stroke-linejoin="round"/>
<path d="M1283.27 527.586C1284.97 531.279 1284.38 535.204 1281.93 536.358C1279.48 537.512 1276.07 535.434 1274.36 531.741C1272.65 528.047 1273.24 524.103 1275.7 522.969C1278.15 521.834 1281.57 523.892 1283.27 527.586Z" stroke="#1F2223" stroke-width="1.1" stroke-linecap="round" stroke-linejoin="round"/>
<path d="M1560.62 566.925C1576.21 572.045 1592.17 571.542 1608.6 566.925" stroke="#1F2223" stroke-width="1.1" stroke-linecap="round" stroke-linejoin="round"/>
<path d="M1471.68 539.954C1487.7 536.899 1502.12 528.275 1512.4 515.608" stroke="#1F2223" stroke-width="1.1" stroke-linecap="round" stroke-linejoin="round"/>
<path d="M1382.95 416.403L1351.04 429.795L1379.4 409.939L1372.05 396.596C1371.81 396.163 1371.47 395.793 1371.06 395.519C1370.65 395.244 1370.17 395.073 1369.68 395.019C1369.19 394.964 1368.69 395.029 1368.23 395.207C1367.76 395.385 1367.35 395.672 1367.02 396.042L1328.65 438.752C1328.23 439.232 1327.96 439.83 1327.89 440.466C1327.82 441.101 1327.95 441.743 1328.26 442.304C1328.57 442.864 1329.04 443.316 1329.62 443.597C1330.19 443.879 1330.84 443.976 1331.47 443.877L1388.12 434.32C1388.61 434.24 1389.07 434.045 1389.47 433.751C1389.86 433.457 1390.18 433.073 1390.4 432.63C1390.62 432.187 1390.72 431.698 1390.71 431.205C1390.7 430.712 1390.57 430.228 1390.34 429.795L1382.95 416.403Z" fill="#FDDE92"/>
<path d="M1576.87 773.545C1599.13 785.503 1603.79 751.381 1626.05 763.339" stroke="#1F2223" stroke-width="1.1" stroke-linecap="round" stroke-linejoin="round"/>
<path d="M1257.04 711.629C1248.18 709.554 1239.69 706.13 1231.88 701.471C1227.17 698.886 1225.4 701.486 1229.98 705.534C1234.23 709.133 1238.84 712.278 1243.74 714.909" stroke="#1F2223" stroke-width="1.1" stroke-linecap="round" stroke-linejoin="round"/>
<path d="M1239.53 712.504C1234.53 710.907 1229.65 708.995 1224.89 706.778C1220.15 704.273 1218.76 707.507 1223.6 711.211C1229.48 715.215 1235.65 718.768 1242.07 721.832" stroke="#1F2223" stroke-width="1.1" stroke-linecap="round" stroke-linejoin="round"/>
<path d="M1235.06 718.323C1231.44 717.483 1227.86 716.45 1224.35 715.23C1219.38 713.369 1218.35 716.834 1223.56 719.801C1229.08 722.666 1234.82 725.059 1240.74 726.957" stroke="#1F2223" stroke-width="1.1" stroke-linecap="round" stroke-linejoin="round"/>
<path d="M1281.14 745.748C1279.85 746.164 1257.18 739.933 1243.83 734.76C1238.49 732.682 1232.9 730.595 1227.67 728.019C1222.42 725.424 1222.73 722.829 1227.81 724.002C1229.66 724.427 1231.83 724.695 1235.38 725.157" stroke="#1F2223" stroke-width="1.1" stroke-linecap="round" stroke-linejoin="round"/>
<path d="M1265.67 741.916C1265.03 755.26 1267.66 765.961 1271.77 766.294C1282.05 767.128 1286.11 716.175 1275.88 714.399C1268.43 712.737 1261.64 708.912 1256.35 703.408C1246.22 692.34 1243.05 694.728 1252.65 710.195" stroke="#1F2223" stroke-width="1.1" stroke-linecap="round" stroke-linejoin="round"/>
<path d="M1378.98 789.705C1374.63 791.666 1370.96 794.851 1368.4 798.871C1365.83 802.89 1364.5 807.572 1364.56 812.338C1364.62 817.103 1366.07 821.749 1368.74 825.703C1371.4 829.656 1375.16 832.747 1379.55 834.596C1383.94 836.446 1388.78 836.971 1393.47 836.11C1398.16 835.25 1402.5 833.039 1405.95 829.751C1409.39 826.461 1411.81 822.237 1412.89 817.594C1413.98 812.952 1413.68 808.095 1412.05 803.619C1410.89 800.46 1409.09 797.573 1406.76 795.141C1404.44 792.706 1401.64 790.776 1398.54 789.471C1395.44 788.166 1392.1 787.513 1388.74 787.554C1385.37 787.593 1382.05 788.327 1378.98 789.705Z" stroke="#1F2223" stroke-width="1.1" stroke-linecap="round" stroke-linejoin="round"/>
<path d="M1495.61 500.484C1499.72 499.145 1502.62 498.919 1503.32 500.114C1505.27 503.429 1491.15 512.75 1487.84 514.779C1483.47 517.452 1464.59 527.94 1462.23 523.846C1461.18 522.035 1465.51 517.474 1472.57 512.534" stroke="#1F2223" stroke-width="1.1" stroke-linecap="round" stroke-linejoin="round"/>
<path d="M1484.21 480.951C1476.22 484.415 1468.83 489.122 1462.32 494.897C1467.44 503.577 1472.8 512.636 1476.91 520.655C1484.93 516.98 1492.41 512.239 1499.17 506.561L1484.21 480.951Z" stroke="#1F2223" stroke-width="1.1" stroke-linecap="round" stroke-linejoin="round"/>
<path d="M1601.02 526.2C1592.57 527.673 1583.94 527.844 1575.44 526.708C1576.3 535.502 1576.43 544.35 1575.86 553.166C1584.49 553.887 1593.17 553.406 1601.67 551.735C1601.03 525.95 1601.15 530.564 1601.02 526.2Z" stroke="#1F2223" stroke-width="1.1" stroke-linecap="round" stroke-linejoin="round"/>
<path d="M1553 500.16C1552.25 500.74 1551.34 501.084 1550.39 501.147C1549.44 501.211 1548.49 500.992 1547.67 500.518C1546.85 500.043 1546.18 499.336 1545.76 498.484C1545.34 497.632 1545.18 496.674 1545.3 495.731C1545.43 494.788 1545.82 493.903 1546.45 493.188C1547.08 492.472 1547.9 491.958 1548.82 491.711C1549.73 491.463 1550.71 491.494 1551.61 491.798C1552.51 492.102 1553.3 492.666 1553.88 493.42C1554.65 494.432 1554.99 495.708 1554.82 496.971C1554.66 498.233 1554 499.379 1553 500.16Z" stroke="#1F2223" stroke-width="1.1" stroke-linecap="round" stroke-linejoin="round"/>
<path d="M1217.42 685.494L1227.95 708.117" stroke="#1F2223" stroke-width="1.1" stroke-linecap="round" stroke-linejoin="round"/>
<path d="M1239.54 733.005L1260.78 778.624" stroke="#1F2223" stroke-width="1.1" stroke-linecap="round" stroke-linejoin="round"/>
<path d="M1229.71 679.769L1242.26 706.732" stroke="#1F2223" stroke-width="1.1" stroke-linecap="round" stroke-linejoin="round"/>
<path d="M1257.46 739.423L1267.52 761.03" stroke="#1F2223" stroke-width="1.1" stroke-linecap="round" stroke-linejoin="round"/>
<path d="M1269.09 764.309L1273.06 772.899" stroke="#1F2223" stroke-width="1.1" stroke-linecap="round" stroke-linejoin="round"/>
<path d="M1576.08 543.655C1572.02 543.934 1558.35 545.426 1560.12 549.054C1561.98 552.828 1580.05 553.496 1584.63 553.484C1602.9 553.438 1616.08 548.413 1601.48 544.994" stroke="#1F2223" stroke-width="1.1" stroke-linecap="round" stroke-linejoin="round"/>
<path d="M1380.03 707.646C1381.86 704.028 1383.49 700.317 1384.94 696.529V710.057" stroke="#1F2223" stroke-width="1.1" stroke-linecap="round" stroke-linejoin="round"/>
<path d="M1400.6 609.762C1401.42 609.227 1402.12 608.521 1402.64 607.693C1403.17 606.864 1403.51 605.932 1403.64 604.96C1403.78 603.926 1403.69 602.874 1403.36 601.882C1403.04 600.891 1402.49 599.986 1401.77 599.235C1401.04 598.485 1400.16 597.908 1399.18 597.548C1398.2 597.188 1397.15 597.055 1396.11 597.157C1396.74 596.299 1397.13 595.296 1397.27 594.241C1397.51 592.437 1397.03 590.609 1395.93 589.156C1394.83 587.704 1393.2 586.744 1391.4 586.485C1390.04 586.295 1388.66 586.521 1387.43 587.131C1387.52 586.845 1387.58 586.551 1387.62 586.254C1387.82 584.763 1387.53 583.246 1386.79 581.935C1386.05 580.624 1384.9 579.591 1383.52 578.995C1382.14 578.398 1380.6 578.27 1379.14 578.63C1377.68 578.991 1376.37 579.82 1375.43 580.991C1375.44 579.329 1374.84 577.72 1373.76 576.463C1372.67 575.206 1371.16 574.387 1369.52 574.157L1369.06 574.065C1367.45 573.843 1365.82 574.194 1364.46 575.055C1363.09 575.917 1362.07 577.234 1361.57 578.774C1361.03 577.344 1360.03 576.133 1358.73 575.335C1357.43 574.536 1355.89 574.195 1354.37 574.364C1352.86 574.533 1351.44 575.204 1350.34 576.27C1349.24 577.337 1348.53 578.737 1348.32 580.252C1348.28 580.45 1348.27 580.651 1348.28 580.852C1347.23 579.838 1345.89 579.177 1344.45 578.959C1343.55 578.832 1342.64 578.883 1341.76 579.109C1340.89 579.335 1340.07 579.732 1339.35 580.277C1338.63 580.822 1338.02 581.504 1337.56 582.284C1337.11 583.065 1336.81 583.927 1336.69 584.823C1336.57 585.784 1336.65 586.76 1336.93 587.688C1336.34 587.407 1335.72 587.22 1335.08 587.134C1333.72 586.945 1332.33 587.168 1331.1 587.775C1329.87 588.381 1328.85 589.343 1328.17 590.536C1327.49 591.729 1327.18 593.099 1327.29 594.468C1327.39 595.837 1327.91 597.143 1328.76 598.217C1327.14 598.021 1325.51 598.406 1324.15 599.304C1322.79 600.201 1321.79 601.553 1321.34 603.118C1320.88 604.683 1321 606.359 1321.66 607.846C1322.33 609.334 1323.5 610.536 1324.97 611.239C1323.35 611.455 1321.87 612.238 1320.77 613.449C1319.68 614.66 1319.05 616.219 1319 617.85C1318.95 619.48 1319.48 621.075 1320.5 622.351C1321.52 623.626 1322.95 624.499 1324.56 624.813C1323.39 625.583 1322.49 626.689 1321.98 627.984C1321.46 629.28 1321.35 630.701 1321.66 632.059C1321.97 633.42 1322.69 634.652 1323.72 635.593C1324.74 636.533 1326.04 637.138 1327.42 637.325C1327.98 637.371 1328.55 637.371 1329.12 637.325C1328.54 638.205 1328.16 639.201 1328.01 640.241C1327.77 642.047 1328.25 643.874 1329.35 645.327C1330.44 646.778 1332.07 647.74 1333.87 647.998C1335.25 648.212 1336.65 647.986 1337.89 647.351C1337.55 648.622 1337.58 649.964 1337.99 651.218C1338.39 652.469 1339.14 653.58 1340.15 654.418C1339.28 650.015 1339.25 645.488 1340.06 641.072C1343.25 617.987 1355.3 629.945 1357.65 638.302C1358.21 639.78 1359.18 639.826 1360.88 637.286C1364.44 632.023 1370.95 639.041 1363.33 646.336C1362.55 647.121 1362.18 652.476 1365.28 658.294C1366.28 659.203 1367.54 659.781 1368.88 659.956C1369.82 660.085 1370.78 660.014 1371.7 659.754C1372.61 659.492 1373.46 659.042 1374.2 658.435C1374.93 657.827 1375.53 657.074 1375.96 656.223C1376.39 655.373 1376.63 654.442 1376.68 653.492C1377.58 654.396 1378.72 655.03 1379.96 655.322C1381.21 655.613 1382.51 655.553 1383.72 655.144C1384.93 654.736 1386 653.997 1386.81 653.013C1387.63 652.027 1388.15 650.834 1388.32 649.568C1388.44 648.625 1388.38 647.667 1388.13 646.751C1389.11 647.193 1390.17 647.402 1391.24 647.361C1392.31 647.32 1393.35 647.031 1394.29 646.516C1395.22 646 1396.03 645.274 1396.63 644.392C1397.24 643.512 1397.63 642.501 1397.78 641.442C1397.91 640.53 1397.86 639.602 1397.62 638.713C1397.38 637.823 1396.97 636.992 1396.4 636.271C1398.02 636.475 1399.65 636.098 1401.02 635.204C1402.39 634.31 1403.39 632.959 1403.85 631.391C1404.31 629.826 1404.2 628.145 1403.54 626.655C1402.87 625.163 1401.7 623.956 1400.23 623.251C1401.73 623.059 1403.12 622.382 1404.19 621.323C1405.27 620.264 1405.97 618.881 1406.18 617.387C1406.42 615.64 1405.97 613.868 1404.93 612.446C1403.89 611.023 1402.33 610.061 1400.6 609.762Z" fill="#1F2223"/>
</g>
<defs>
<clipPath id="clip0_840_2662">
<rect width="486" height="486" fill="white" transform="translate(1153 371)"/>
</clipPath>
</defs>
</svg>
