<svg width="1728" height="1117" viewBox="0 0 1728 1117" fill="none" xmlns="http://www.w3.org/2000/svg">
<rect width="1728" height="1117" rx="24" fill="#F5F2EA"/>
<path d="M89 870H1638.5" stroke="black"/>
<rect x="184" y="666" width="139" height="191" rx="24" fill="#FDDE92"/>
<rect x="184" y="666" width="139" height="191" rx="24" fill="#FDDE92"/>
<rect x="355.5" y="725.5" width="132" height="131" fill="white" stroke="black"/>
<rect x="284.5" y="394.5" width="149" height="95" stroke="black"/>
<path d="M285 489.5V550.5L331 489.5" stroke="#FDC886"/>
<path d="M306 459.5L386 459.012" stroke="black"/>
<path d="M306 429H407.5" stroke="black"/>
<circle cx="509" cy="549" r="13.5" stroke="black"/>
<circle cx="245" cy="251" r="7.5" stroke="black"/>
<path d="M112 353.431C185.775 393.106 201.233 279.894 275 319.569" stroke="black" stroke-width="1.1" stroke-linecap="round" stroke-linejoin="round"/>
<path d="M127.481 525.892L157.884 509.37L131.665 531.967L140.307 544.507C140.59 544.914 140.966 545.248 141.404 545.479C141.843 545.711 142.33 545.834 142.826 545.839C143.322 545.844 143.811 545.729 144.254 545.506C144.696 545.282 145.079 544.956 145.369 544.554L179.266 498.215C179.639 497.695 179.842 497.073 179.848 496.433C179.854 495.794 179.663 495.168 179.301 494.642C178.938 494.115 178.422 493.713 177.822 493.49C177.223 493.267 176.569 493.235 175.951 493.398L120.54 508.584C120.064 508.712 119.625 508.951 119.26 509.284C118.895 509.616 118.616 510.031 118.444 510.493C118.273 510.956 118.214 511.453 118.274 511.942C118.334 512.432 118.511 512.9 118.789 513.308L127.481 525.892Z" fill="#FDC886"/>
<path d="M252.767 666.091C252.767 666.091 222.417 646.487 214.196 630.346C205.975 614.204 228.642 597.315 239.201 618.096C249.933 639.201 252.767 666.091 252.767 666.091Z" stroke="black" stroke-width="1.1" stroke-linecap="round" stroke-linejoin="round"/>
<path d="M495 684.789C517.256 696.747 521.92 662.625 544.174 674.583" stroke="black" stroke-width="1.1" stroke-linecap="round" stroke-linejoin="round"/>
<path d="M253.414 666.478C253.414 666.478 284.797 648.616 293.922 632.93C303.046 617.244 281.334 599.184 269.661 619.298C257.744 639.791 253.414 666.478 253.414 666.478Z" stroke="black" stroke-width="1.1" stroke-linecap="round" stroke-linejoin="round"/>
<rect x="241.5" y="666.5" width="23" height="190" fill="#F5F2EA" stroke="black"/>
</svg>
