<svg width="1728" height="1117" viewBox="0 0 1728 1117" fill="none" xmlns="http://www.w3.org/2000/svg">
<rect width="1728" height="1117" rx="24" fill="#F5F2EA"/>
<path d="M89 870H1638.5" stroke="#1F2223"/>
<rect x="184" y="666" width="139" height="191" rx="24" fill="#FDDE92"/>
<rect x="184" y="666" width="139" height="191" rx="24" fill="#FDDE92"/>
<rect x="355.5" y="725.5" width="132" height="131" fill="white" stroke="#1F2223"/>
<rect x="284.5" y="394.5" width="149" height="95" stroke="#1F2223"/>
<path d="M285 489.5V550.5L331 489.5" stroke="#FDC886"/>
<path d="M306 459.5L386 459.012" stroke="#1F2223"/>
<path d="M306 429H407.5" stroke="#1F2223"/>
<circle cx="509" cy="549" r="13.5" stroke="#1F2223"/>
<circle cx="245" cy="251" r="7.5" stroke="#1F2223"/>
<path d="M112 353.431C185.775 393.106 201.233 279.894 275 319.569" stroke="#1F2223" stroke-width="1.1" stroke-linecap="round" stroke-linejoin="round"/>
<path d="M122.48 520.892L152.883 504.37L126.665 526.967L135.306 539.507C135.589 539.914 135.965 540.248 136.404 540.479C136.842 540.711 137.329 540.834 137.825 540.839C138.321 540.844 138.811 540.729 139.253 540.506C139.696 540.282 140.078 539.956 140.369 539.554L174.265 493.215C174.638 492.695 174.841 492.073 174.847 491.433C174.854 490.794 174.662 490.168 174.3 489.641C173.937 489.115 173.421 488.713 172.821 488.49C172.222 488.267 171.568 488.235 170.95 488.398L115.54 503.584C115.063 503.711 114.624 503.951 114.259 504.284C113.895 504.616 113.615 505.031 113.443 505.493C113.272 505.956 113.214 506.453 113.274 506.942C113.333 507.432 113.51 507.9 113.788 508.308L122.48 520.892Z" fill="#FDC886"/>
<path d="M252.766 666.091C252.766 666.091 222.417 646.487 214.196 630.346C205.974 614.204 228.642 597.315 239.2 618.096C249.932 639.201 252.766 666.091 252.766 666.091Z" stroke="#1F2223" stroke-width="1.1" stroke-linecap="round" stroke-linejoin="round"/>
<path d="M495 684.789C517.256 696.747 521.92 662.625 544.174 674.583" stroke="#1F2223" stroke-width="1.1" stroke-linecap="round" stroke-linejoin="round"/>
<path d="M253.415 666.478C253.415 666.478 284.798 648.616 293.922 632.93C303.047 617.244 281.335 599.184 269.662 619.298C257.744 639.791 253.415 666.478 253.415 666.478Z" stroke="#1F2223" stroke-width="1.1" stroke-linecap="round" stroke-linejoin="round"/>
<rect x="241.5" y="666.5" width="23" height="190" fill="#F5F2EA" stroke="#1F2223"/>
<g clip-path="url(#clip0_803_2819)">
<path d="M1252.26 676.722C1251.51 675.116 1250.46 673.672 1249.15 672.474C1247.85 671.276 1246.32 670.348 1244.65 669.745C1242.99 669.14 1241.22 668.868 1239.45 668.948C1237.68 669.028 1235.95 669.459 1234.34 670.212L1213.75 679.815L1226.31 706.788C1229.57 708.237 1232.94 709.454 1236.38 710.433C1226.72 694.966 1230.23 692.288 1240.39 703.369C1250.17 714.037 1262.23 714.938 1270.36 715.699L1252.26 676.722Z" fill="#FDC886"/>
<path d="M1249.67 741.916C1247.04 741.144 1244.25 740.298 1241.46 739.423L1251.52 761.031C1249.83 754.81 1249.21 748.346 1249.67 741.916Z" fill="#FDC886"/>
<path d="M1256.78 766.158C1255.41 766.743 1253.97 765.652 1253.09 764.309L1257.11 772.899L1277.1 763.57C1271.37 764.36 1260.15 765.74 1256.78 766.158Z" fill="#FDC886"/>
<path d="M1223.49 733.013C1219.52 731.443 1215.46 729.827 1211.63 727.934C1206.46 725.395 1206.77 722.763 1211.81 723.963C1213.66 724.379 1215.83 724.656 1219.38 725.115C1215.32 723.606 1211.35 721.832 1207.52 719.806C1202.3 716.853 1203.32 713.434 1208.3 715.237C1209.64 715.745 1212.74 716.712 1216.34 717.636L1215.78 716.481C1212.94 714.863 1210.18 713.091 1207.52 711.174C1202.72 707.478 1204.1 704.246 1208.81 706.739C1209.51 707.109 1210.57 707.57 1211.86 708.125L1201.33 685.501L1180.79 695.105C1179.18 695.851 1177.74 696.905 1176.54 698.21C1175.34 699.515 1174.41 701.044 1173.81 702.708C1173.2 704.373 1172.93 706.142 1173.01 707.911C1173.09 709.68 1173.52 711.415 1174.28 713.019L1206.23 781.724C1206.97 783.331 1208.03 784.774 1209.33 785.972C1210.64 787.168 1212.17 788.096 1213.83 788.701C1215.5 789.306 1217.26 789.576 1219.03 789.495C1220.8 789.415 1222.54 788.988 1224.14 788.234L1244.73 778.629L1223.49 733.013Z" fill="#FDC886"/>
<path d="M1366.95 416.403L1335.04 429.795L1363.39 409.939L1356.05 396.596C1355.81 396.163 1355.47 395.793 1355.06 395.519C1354.65 395.244 1354.17 395.073 1353.68 395.019C1353.19 394.964 1352.69 395.029 1352.23 395.207C1351.76 395.385 1351.35 395.672 1351.02 396.042L1312.65 438.752C1312.23 439.232 1311.96 439.83 1311.89 440.466C1311.82 441.101 1311.95 441.743 1312.26 442.304C1312.57 442.864 1313.04 443.316 1313.61 443.597C1314.19 443.879 1314.84 443.976 1315.47 443.877L1372.12 434.32C1372.61 434.24 1373.07 434.045 1373.46 433.751C1373.86 433.457 1374.18 433.073 1374.4 432.63C1374.61 432.187 1374.72 431.698 1374.71 431.205C1374.7 430.712 1374.57 430.228 1374.34 429.795L1366.95 416.403Z" fill="#FDC886"/>
<path d="M1384.5 653.265C1380.9 654.93 1380.06 661.483 1381.58 670.581C1388.88 669.993 1396.1 668.679 1403.14 666.657C1395.99 657.053 1388.7 651.326 1384.5 653.265Z" fill="#CFD181"/>
<path d="M1421.29 702.808C1414.69 708.042 1406.93 711.624 1398.67 713.257C1407.35 727.154 1416.58 735.557 1421.71 733.156C1426.83 730.789 1426.37 718.37 1421.29 702.808Z" fill="#CFD181"/>
<path d="M1593.75 458.928C1582.34 468.762 1561.66 501.592 1557.82 513.457C1558.52 519.182 1559.07 523.245 1559.44 526.708C1567.94 527.844 1576.57 527.673 1585.02 526.2L1584.93 522.414C1594.81 490.142 1595.18 476.288 1593.75 458.928Z" fill="#CFD181"/>
<path d="M1456.71 419.45C1448.49 434.179 1439.9 467.978 1439.21 483.308C1441.66 487.23 1444.01 491.109 1446.27 494.943C1452.79 489.142 1460.2 484.419 1468.21 480.951C1468.35 472.361 1469.5 457.016 1456.71 419.45Z" fill="#CFD181"/>
<path d="M1249.67 741.916C1249.03 755.259 1251.66 765.973 1255.77 766.294C1259.66 766.62 1263.57 757.753 1265.14 745.748C1259.88 744.925 1254.71 743.642 1249.67 741.916Z" fill="#CFD181"/>
<path d="M1362.98 789.658C1360.05 790.985 1357.41 792.878 1355.2 795.228C1353 797.575 1351.29 800.336 1350.15 803.347C1349.02 806.36 1348.49 809.565 1348.6 812.782C1348.7 815.997 1349.44 819.164 1350.77 822.094C1352.09 825.025 1353.99 827.666 1356.33 829.868C1358.68 832.069 1361.44 833.785 1364.45 834.917C1367.47 836.052 1370.67 836.582 1373.89 836.477C1377.1 836.373 1380.27 835.634 1383.2 834.307L1362.98 789.658Z" fill="#CFD181"/>
<path d="M1585.53 545.04L1585.67 551.781C1593.75 549.791 1593.56 546.887 1585.53 545.04Z" fill="#CFD181"/>
<path d="M1446.23 523.846C1447.26 525.636 1453.24 524.215 1460.91 520.706C1459.57 518.074 1458.09 515.36 1456.57 512.534C1449.5 517.472 1445.18 522.035 1446.23 523.846Z" fill="#CFD181"/>
<path d="M1487.32 500.114C1486.63 498.914 1483.72 499.142 1479.61 500.484L1483.16 506.578C1486.4 503.669 1488.01 501.315 1487.32 500.114Z" fill="#CFD181"/>
<path d="M1368.8 696.529C1367.59 700.393 1365.98 704.123 1364 707.656L1368.94 710.013L1368.8 696.529Z" fill="#CFD181"/>
<path d="M1341.55 657.977L1339.34 664.995L1337.86 659.916L1341.55 657.977Z" fill="#CFD181"/>
<path d="M1543.97 548.411C1543.97 550.627 1550.62 552.473 1559.86 553.166C1559.99 549.426 1560.04 546.333 1560.09 543.655C1550.71 544.301 1543.97 546.194 1543.97 548.411Z" fill="#CFD181"/>
<path d="M1593.47 588.717C1600.39 604.268 1604.16 621.038 1604.56 638.056C1604.96 655.073 1601.98 672.003 1595.79 687.861C1589.6 703.717 1580.33 718.192 1568.51 730.442C1556.7 742.691 1542.56 752.477 1526.94 759.23" stroke="#1F2223" stroke-width="1.1" stroke-linecap="round" stroke-linejoin="round"/>
<path d="M1495.49 514.011C1519.44 517.659 1541.87 528.017 1560.18 543.886" stroke="#1F2223" stroke-width="1.1" stroke-linecap="round" stroke-linejoin="round"/>
<path d="M1418.62 526.016C1429.79 520.428 1441.72 516.509 1454.03 514.383" stroke="#1F2223" stroke-width="1.1" stroke-linecap="round" stroke-linejoin="round"/>
<path d="M1342.06 743.394L1393.41 856.7" stroke="#1F2223" stroke-width="1.1" stroke-linecap="round" stroke-linejoin="round"/>
<path d="M1314.54 682.631L1242.1 522.876C1238.18 514.371 1243.72 506.855 1253 508.053L1378.77 524.489C1386.08 525.447 1393.03 528.234 1398.98 532.592C1404.93 536.951 1409.68 542.74 1412.79 549.424L1555.09 856.605" stroke="#1F2223" stroke-width="1.1" stroke-linecap="round" stroke-linejoin="round"/>
<path d="M1340.07 667.911C1324.05 678.719 1306.62 687.278 1288.27 693.343C1279.27 694.636 1270.21 695.421 1261.12 695.698" stroke="#1F2223" stroke-width="1.1" stroke-linecap="round" stroke-linejoin="round"/>
<path d="M1270.31 715.646L1252.2 676.676C1250.69 673.439 1247.95 670.934 1244.59 669.714C1241.24 668.494 1237.53 668.657 1234.29 670.166L1180.79 695.144C1177.55 696.657 1175.04 699.394 1173.82 702.752C1172.6 706.113 1172.76 709.818 1174.27 713.058L1206.23 781.763C1207.74 785 1210.48 787.505 1213.84 788.725C1217.19 789.945 1220.9 789.782 1224.14 788.273L1277.1 763.57" stroke="#1F2223" stroke-width="1.1" stroke-linecap="round" stroke-linejoin="round"/>
<path d="M1207.29 682.724C1207.29 682.724 1171.31 679.414 1156.54 668.919C1141.78 658.424 1154.04 632.955 1173.03 646.478C1192.32 660.208 1207.29 682.724 1207.29 682.724Z" stroke="#1F2223" stroke-width="1.1" stroke-linecap="round" stroke-linejoin="round"/>
<path d="M1207.25 682.724C1207.25 682.724 1229.62 654.378 1232.18 636.413C1234.74 618.448 1207.83 609.87 1204.57 632.897C1201.23 656.366 1207.25 682.724 1207.25 682.724Z" stroke="#1F2223" stroke-width="1.1" stroke-linecap="round" stroke-linejoin="round"/>
<path d="M1339.27 665.233L1341.55 657.943C1341.55 657.943 1320 672.579 1323.96 641.088C1326.81 618.489 1338.64 629.424 1341.38 637.737C1342.02 639.681 1342.8 640.296 1344.78 637.348C1348.33 632.083 1354.88 639.144 1347.23 646.398C1345.76 647.793 1346.32 658.157 1355.12 665.699C1360.71 670.491 1378.02 673.825 1403.09 666.671" stroke="#1F2223" stroke-width="1.1" stroke-linecap="round" stroke-linejoin="round"/>
<path d="M1337.86 659.916C1339.3 666.137 1341.36 672.199 1344 678.014" stroke="#1F2223" stroke-width="1.1" stroke-linecap="round" stroke-linejoin="round"/>
<path d="M1351.53 661.901C1345.94 679.769 1329.5 699.622 1316.62 715.784C1297.84 717.395 1278.94 716.96 1260.25 714.489" stroke="#1F2223" stroke-width="1.1" stroke-linecap="round" stroke-linejoin="round"/>
<path d="M1421.29 702.808C1413.29 709.165 1403.58 713.019 1393.39 713.884C1383.2 714.749 1372.98 712.586 1364.02 707.668C1357.53 719.828 1350.32 731.586 1342.43 742.883C1339.82 746.815 1335.94 749.731 1331.44 751.145C1307.09 758.625 1282.05 763.667 1256.69 766.197" stroke="#1F2223" stroke-width="1.1" stroke-linecap="round" stroke-linejoin="round"/>
<path d="M1398.67 713.245C1407.35 727.142 1416.58 735.525 1421.71 733.144C1437.6 725.774 1400.63 645.819 1384.5 653.265C1380.9 654.93 1380.06 661.483 1381.58 670.581" stroke="#1F2223" stroke-width="1.1" stroke-linecap="round" stroke-linejoin="round"/>
<path d="M1543.97 548.41C1544.44 562.631 1546.19 614.02 1546.19 619.33C1538.07 620.577 1473.93 635.997 1470.29 636.644" stroke="#1F2223" stroke-width="1.1" stroke-linecap="round" stroke-linejoin="round"/>
<path d="M1496.42 692.835C1593.8 658.572 1591.66 660.19 1593.62 633.458C1594.86 616.421 1592.83 567.571 1591.63 548.364" stroke="#1F2223" stroke-width="1.1" stroke-linecap="round" stroke-linejoin="round"/>
<path d="M1446.23 523.846C1453.24 536.219 1481.22 582.484 1483.72 587.147C1481.05 589.133 1468.81 602.386 1458.69 611.897" stroke="#1F2223" stroke-width="1.1" stroke-linecap="round" stroke-linejoin="round"/>
<path d="M1519.83 625.101C1538.9 595.596 1535.2 588.26 1529.3 575.974C1521.67 560.096 1496.52 515.119 1487.2 499.976" stroke="#1F2223" stroke-width="1.1" stroke-linecap="round" stroke-linejoin="round"/>
<path d="M1241.81 513.11C1244.31 507.254 1248.65 502.373 1254.18 499.204C1259.7 496.035 1266.11 494.75 1272.43 495.543L1395.75 511.426C1401.1 512.111 1406.18 514.14 1410.52 517.322C1414.87 520.504 1418.34 524.735 1420.6 529.622L1572.09 856.612" stroke="#1F2223" stroke-width="1.1" stroke-linecap="round" stroke-linejoin="round"/>
<path d="M1267.27 527.585C1268.97 531.279 1268.38 535.203 1265.93 536.358C1263.48 537.512 1260.07 535.434 1258.36 531.741C1256.65 528.047 1257.24 524.103 1259.7 522.968C1262.15 521.834 1265.57 523.892 1267.27 527.585Z" stroke="#1F2223" stroke-width="1.1" stroke-linecap="round" stroke-linejoin="round"/>
<path d="M1544.62 566.925C1560.21 572.045 1576.17 571.542 1592.6 566.925" stroke="#1F2223" stroke-width="1.1" stroke-linecap="round" stroke-linejoin="round"/>
<path d="M1455.68 539.954C1471.7 536.899 1486.12 528.275 1496.4 515.608" stroke="#1F2223" stroke-width="1.1" stroke-linecap="round" stroke-linejoin="round"/>
<path d="M1366.95 416.403L1335.04 429.795L1363.39 409.939L1356.05 396.596C1355.81 396.163 1355.47 395.793 1355.06 395.519C1354.65 395.244 1354.17 395.073 1353.68 395.019C1353.19 394.964 1352.69 395.029 1352.23 395.207C1351.76 395.385 1351.35 395.672 1351.02 396.042L1312.65 438.752C1312.23 439.232 1311.96 439.83 1311.89 440.466C1311.82 441.101 1311.95 441.743 1312.26 442.304C1312.57 442.864 1313.04 443.316 1313.61 443.597C1314.19 443.879 1314.84 443.976 1315.47 443.877L1372.12 434.32C1372.61 434.24 1373.07 434.045 1373.46 433.751C1373.86 433.457 1374.18 433.073 1374.4 432.63C1374.61 432.187 1374.72 431.698 1374.71 431.205C1374.7 430.712 1374.57 430.228 1374.34 429.795L1366.95 416.403Z" fill="#FDDE92"/>
<path d="M1560.87 773.545C1583.13 785.503 1587.79 751.381 1610.04 763.339" stroke="#1F2223" stroke-width="1.1" stroke-linecap="round" stroke-linejoin="round"/>
<path d="M1241.04 711.629C1232.18 709.554 1223.69 706.13 1215.88 701.471C1211.17 698.886 1209.4 701.486 1213.98 705.534C1218.23 709.133 1222.84 712.278 1227.74 714.909" stroke="#1F2223" stroke-width="1.1" stroke-linecap="round" stroke-linejoin="round"/>
<path d="M1223.53 712.504C1218.54 710.907 1213.65 708.995 1208.89 706.778C1204.15 704.273 1202.76 707.507 1207.6 711.211C1213.48 715.215 1219.65 718.768 1226.07 721.832" stroke="#1F2223" stroke-width="1.1" stroke-linecap="round" stroke-linejoin="round"/>
<path d="M1219.06 718.323C1215.44 717.483 1211.86 716.45 1208.35 715.23C1203.38 713.369 1202.35 716.834 1207.56 719.801C1213.08 722.666 1218.82 725.059 1224.74 726.957" stroke="#1F2223" stroke-width="1.1" stroke-linecap="round" stroke-linejoin="round"/>
<path d="M1265.14 745.748C1263.85 746.164 1241.18 739.933 1227.83 734.76C1222.49 732.682 1216.9 730.595 1211.68 728.019C1206.42 725.424 1206.73 722.829 1211.81 724.002C1213.66 724.427 1215.83 724.695 1219.39 725.157" stroke="#1F2223" stroke-width="1.1" stroke-linecap="round" stroke-linejoin="round"/>
<path d="M1249.67 741.916C1249.03 755.259 1251.66 765.961 1255.77 766.294C1266.05 767.127 1270.11 716.175 1259.88 714.399C1252.43 712.737 1245.64 708.912 1240.35 703.408C1230.22 692.339 1227.05 694.728 1236.66 710.195" stroke="#1F2223" stroke-width="1.1" stroke-linecap="round" stroke-linejoin="round"/>
<path d="M1362.98 789.705C1358.64 791.666 1354.96 794.851 1352.4 798.871C1349.84 802.89 1348.5 807.572 1348.56 812.338C1348.63 817.103 1350.08 821.749 1352.74 825.703C1355.4 829.656 1359.16 832.747 1363.55 834.596C1367.95 836.446 1372.78 836.971 1377.47 836.11C1382.16 835.25 1386.5 833.039 1389.95 829.751C1393.39 826.461 1395.81 822.237 1396.89 817.594C1397.98 812.952 1397.68 808.095 1396.05 803.619C1394.89 800.46 1393.09 797.573 1390.77 795.141C1388.44 792.706 1385.64 790.776 1382.54 789.471C1379.44 788.166 1376.1 787.513 1372.74 787.554C1369.37 787.593 1366.05 788.327 1362.98 789.705Z" stroke="#1F2223" stroke-width="1.1" stroke-linecap="round" stroke-linejoin="round"/>
<path d="M1479.61 500.484C1483.72 499.145 1486.62 498.919 1487.32 500.114C1489.26 503.429 1475.15 512.75 1471.84 514.779C1467.47 517.452 1448.59 527.94 1446.23 523.846C1445.18 522.035 1449.5 517.474 1456.57 512.534" stroke="#1F2223" stroke-width="1.1" stroke-linecap="round" stroke-linejoin="round"/>
<path d="M1468.21 480.951C1460.22 484.415 1452.84 489.122 1446.32 494.897C1451.45 503.577 1456.8 512.636 1460.91 520.655C1468.93 516.98 1476.42 512.239 1483.17 506.561L1468.21 480.951Z" stroke="#1F2223" stroke-width="1.1" stroke-linecap="round" stroke-linejoin="round"/>
<path d="M1585.02 526.2C1576.57 527.673 1567.94 527.844 1559.44 526.708C1560.3 535.502 1560.44 544.35 1559.86 553.166C1568.49 553.887 1577.17 553.406 1585.67 551.735C1585.03 525.95 1585.15 530.564 1585.02 526.2Z" stroke="#1F2223" stroke-width="1.1" stroke-linecap="round" stroke-linejoin="round"/>
<path d="M1537 500.16C1536.25 500.74 1535.34 501.084 1534.39 501.147C1533.44 501.211 1532.49 500.992 1531.67 500.518C1530.85 500.043 1530.18 499.336 1529.76 498.484C1529.34 497.632 1529.18 496.674 1529.3 495.731C1529.43 494.788 1529.82 493.903 1530.45 493.188C1531.08 492.472 1531.9 491.958 1532.82 491.711C1533.73 491.463 1534.71 491.494 1535.61 491.798C1536.51 492.102 1537.3 492.666 1537.88 493.42C1538.65 494.432 1538.99 495.708 1538.82 496.971C1538.66 498.233 1538 499.379 1537 500.16Z" stroke="#1F2223" stroke-width="1.1" stroke-linecap="round" stroke-linejoin="round"/>
<path d="M1201.43 685.494L1211.95 708.117" stroke="#1F2223" stroke-width="1.1" stroke-linecap="round" stroke-linejoin="round"/>
<path d="M1223.54 733.005L1244.78 778.624" stroke="#1F2223" stroke-width="1.1" stroke-linecap="round" stroke-linejoin="round"/>
<path d="M1213.71 679.769L1226.27 706.732" stroke="#1F2223" stroke-width="1.1" stroke-linecap="round" stroke-linejoin="round"/>
<path d="M1241.46 739.423L1251.52 761.031" stroke="#1F2223" stroke-width="1.1" stroke-linecap="round" stroke-linejoin="round"/>
<path d="M1253.09 764.309L1257.06 772.899" stroke="#1F2223" stroke-width="1.1" stroke-linecap="round" stroke-linejoin="round"/>
<path d="M1560.08 543.655C1556.02 543.934 1542.34 545.426 1544.12 549.054C1545.98 552.828 1564.05 553.497 1568.63 553.484C1586.9 553.438 1600.07 548.413 1585.48 544.994" stroke="#1F2223" stroke-width="1.1" stroke-linecap="round" stroke-linejoin="round"/>
<path d="M1364.03 707.646C1365.86 704.028 1367.49 700.317 1368.94 696.529V710.056" stroke="#1F2223" stroke-width="1.1" stroke-linecap="round" stroke-linejoin="round"/>
<path d="M1384.6 609.762C1385.42 609.227 1386.12 608.521 1386.64 607.693C1387.17 606.864 1387.51 605.932 1387.64 604.96C1387.78 603.926 1387.69 602.874 1387.36 601.882C1387.04 600.891 1386.49 599.986 1385.77 599.235C1385.04 598.485 1384.16 597.908 1383.18 597.548C1382.2 597.188 1381.15 597.055 1380.11 597.157C1380.74 596.299 1381.13 595.296 1381.27 594.241C1381.51 592.437 1381.03 590.609 1379.93 589.156C1378.83 587.704 1377.2 586.744 1375.4 586.485C1374.04 586.295 1372.66 586.521 1371.43 587.131C1371.52 586.845 1371.58 586.551 1371.62 586.254C1371.82 584.763 1371.53 583.246 1370.79 581.935C1370.05 580.624 1368.9 579.591 1367.52 578.995C1366.14 578.398 1364.6 578.27 1363.14 578.63C1361.68 578.991 1360.37 579.82 1359.43 580.991C1359.44 579.329 1358.84 577.72 1357.76 576.463C1356.67 575.206 1355.16 574.387 1353.52 574.157L1353.06 574.065C1351.45 573.843 1349.82 574.194 1348.46 575.055C1347.09 575.917 1346.07 577.234 1345.57 578.774C1345.03 577.344 1344.03 576.133 1342.73 575.335C1341.43 574.536 1339.89 574.195 1338.37 574.364C1336.86 574.533 1335.44 575.204 1334.34 576.27C1333.24 577.337 1332.53 578.737 1332.32 580.252C1332.28 580.45 1332.27 580.651 1332.28 580.852C1331.23 579.838 1329.89 579.177 1328.45 578.959C1327.55 578.832 1326.64 578.883 1325.76 579.109C1324.89 579.335 1324.07 579.732 1323.35 580.277C1322.63 580.822 1322.02 581.504 1321.56 582.284C1321.11 583.065 1320.81 583.927 1320.69 584.823C1320.57 585.784 1320.65 586.76 1320.93 587.688C1320.34 587.407 1319.72 587.22 1319.08 587.134C1317.72 586.945 1316.33 587.168 1315.1 587.775C1313.87 588.381 1312.85 589.343 1312.17 590.536C1311.49 591.729 1311.18 593.099 1311.29 594.468C1311.39 595.837 1311.91 597.143 1312.76 598.217C1311.14 598.021 1309.51 598.406 1308.15 599.304C1306.79 600.201 1305.79 601.553 1305.34 603.118C1304.88 604.683 1305 606.359 1305.66 607.846C1306.33 609.334 1307.5 610.536 1308.97 611.239C1307.35 611.455 1305.87 612.238 1304.77 613.449C1303.68 614.66 1303.05 616.219 1303 617.85C1302.95 619.48 1303.48 621.075 1304.5 622.351C1305.52 623.626 1306.95 624.499 1308.56 624.813C1307.39 625.583 1306.49 626.689 1305.98 627.984C1305.46 629.28 1305.35 630.701 1305.66 632.059C1305.97 633.42 1306.69 634.652 1307.72 635.593C1308.74 636.533 1310.04 637.138 1311.42 637.325C1311.98 637.371 1312.55 637.371 1313.12 637.325C1312.54 638.205 1312.16 639.201 1312.01 640.241C1311.77 642.047 1312.25 643.874 1313.35 645.327C1314.44 646.778 1316.07 647.74 1317.87 647.998C1319.25 648.212 1320.65 647.986 1321.89 647.351C1321.55 648.622 1321.58 649.964 1321.99 651.218C1322.39 652.469 1323.14 653.58 1324.15 654.418C1323.28 650.015 1323.25 645.488 1324.06 641.072C1327.25 617.987 1339.3 629.945 1341.65 638.302C1342.21 639.78 1343.18 639.826 1344.88 637.286C1348.44 632.023 1354.95 639.041 1347.33 646.336C1346.55 647.121 1346.18 652.476 1349.28 658.294C1350.28 659.203 1351.54 659.781 1352.88 659.956C1353.82 660.085 1354.78 660.014 1355.7 659.754C1356.61 659.492 1357.46 659.042 1358.2 658.435C1358.93 657.827 1359.53 657.074 1359.96 656.223C1360.39 655.373 1360.63 654.442 1360.68 653.492C1361.58 654.396 1362.72 655.03 1363.96 655.322C1365.21 655.613 1366.51 655.553 1367.72 655.144C1368.93 654.736 1370 653.997 1370.81 653.013C1371.63 652.027 1372.15 650.834 1372.32 649.568C1372.44 648.625 1372.38 647.667 1372.13 646.751C1373.11 647.193 1374.17 647.402 1375.24 647.361C1376.31 647.32 1377.35 647.031 1378.29 646.516C1379.22 646 1380.03 645.274 1380.63 644.392C1381.24 643.512 1381.63 642.501 1381.78 641.442C1381.91 640.53 1381.86 639.602 1381.62 638.713C1381.38 637.823 1380.97 636.992 1380.4 636.271C1382.02 636.475 1383.65 636.098 1385.02 635.204C1386.39 634.31 1387.39 632.959 1387.85 631.391C1388.31 629.826 1388.2 628.145 1387.54 626.655C1386.87 625.163 1385.7 623.956 1384.23 623.251C1385.73 623.059 1387.12 622.382 1388.19 621.323C1389.27 620.264 1389.97 618.881 1390.18 617.387C1390.42 615.64 1389.97 613.868 1388.93 612.446C1387.89 611.023 1386.33 610.061 1384.6 609.762Z" fill="#1F2223"/>
</g>
<defs>
<clipPath id="clip0_803_2819">
<rect width="486" height="486" fill="white" transform="translate(1137 371)"/>
</clipPath>
</defs>
</svg>
