<svg width="360" height="73" viewBox="0 0 360 73" fill="none" xmlns="http://www.w3.org/2000/svg">
<path d="M74.344 12.344C74.792 12.3653 75.3787 12.3867 76.104 12.408C76.8293 12.4293 77.544 12.44 78.248 12.44C79.2507 12.44 80.2107 12.4293 81.128 12.408C82.0453 12.3867 82.696 12.376 83.08 12.376C84.808 12.376 86.2373 12.6213 87.368 13.112C88.52 13.6027 89.3733 14.2747 89.928 15.128C90.504 15.96 90.792 16.8987 90.792 17.944C90.792 18.584 90.664 19.2667 90.408 19.992C90.152 20.7173 89.704 21.4 89.064 22.04C88.4453 22.68 87.592 23.2133 86.504 23.64C85.416 24.0453 84.04 24.248 82.376 24.248H79.304V23.608H82.056C83.5707 23.608 84.7227 23.3733 85.512 22.904C86.3227 22.4133 86.8667 21.7733 87.144 20.984C87.4427 20.1733 87.592 19.2773 87.592 18.296C87.592 16.6107 87.1867 15.3093 86.376 14.392C85.5867 13.4533 84.2213 12.984 82.28 12.984C81.2987 12.984 80.6587 13.1653 80.36 13.528C80.0613 13.8907 79.912 14.6267 79.912 15.736V31.608C79.912 32.376 79.976 32.952 80.104 33.336C80.232 33.72 80.4773 33.976 80.84 34.104C81.224 34.232 81.7787 34.3173 82.504 34.36V35C82.0133 34.9573 81.3947 34.936 80.648 34.936C79.9227 34.9147 79.1867 34.904 78.44 34.904C77.608 34.904 76.8293 34.9147 76.104 34.936C75.3787 34.936 74.792 34.9573 74.344 35V34.36C75.0693 34.3173 75.6133 34.232 75.976 34.104C76.36 33.976 76.616 33.72 76.744 33.336C76.872 32.952 76.936 32.376 76.936 31.608V15.736C76.936 14.9467 76.872 14.3707 76.744 14.008C76.616 13.624 76.36 13.368 75.976 13.24C75.6133 13.0907 75.0693 13.0053 74.344 12.984V12.344ZM79.432 23.704C80.584 23.7467 81.4907 23.8 82.152 23.864C82.8133 23.9067 83.3467 23.9493 83.752 23.992C84.1787 24.0347 84.584 24.088 84.968 24.152C86.3973 24.3867 87.4213 24.824 88.04 25.464C88.68 26.0827 89.1493 27.0533 89.448 28.376L90.248 31.64C90.4613 32.5787 90.6747 33.2613 90.888 33.688C91.1227 34.0933 91.4747 34.2853 91.944 34.264C92.3067 34.2427 92.6053 34.1253 92.84 33.912C93.096 33.6987 93.3627 33.4107 93.64 33.048L94.12 33.4C93.672 34.0613 93.2027 34.5733 92.712 34.936C92.2427 35.2773 91.5707 35.448 90.696 35.448C89.9067 35.448 89.2133 35.2133 88.616 34.744C88.0187 34.2747 87.5707 33.3573 87.272 31.992L86.568 28.792C86.376 27.8747 86.152 27.0853 85.896 26.424C85.6613 25.7413 85.32 25.208 84.872 24.824C84.4453 24.44 83.8053 24.248 82.952 24.248H79.496L79.432 23.704ZM102.454 18.072C104.331 18.072 105.793 18.648 106.838 19.8C107.905 20.9307 108.438 22.7013 108.438 25.112H97.142L97.11 24.504H105.366C105.409 23.4587 105.323 22.4987 105.11 21.624C104.897 20.728 104.555 20.0133 104.086 19.48C103.638 18.9467 103.051 18.68 102.326 18.68C101.345 18.68 100.47 19.1707 99.702 20.152C98.9553 21.1333 98.5073 22.6907 98.358 24.824L98.454 24.952C98.4113 25.272 98.3793 25.624 98.358 26.008C98.3367 26.392 98.326 26.776 98.326 27.16C98.326 28.6107 98.5607 29.8587 99.03 30.904C99.4993 31.9493 100.107 32.7493 100.854 33.304C101.622 33.8373 102.411 34.104 103.222 34.104C103.862 34.104 104.47 34.008 105.046 33.816C105.622 33.6027 106.155 33.2613 106.646 32.792C107.137 32.3227 107.563 31.6933 107.926 30.904L108.566 31.16C108.331 31.864 107.947 32.5467 107.414 33.208C106.881 33.8693 106.209 34.4133 105.398 34.84C104.587 35.2453 103.649 35.448 102.582 35.448C101.046 35.448 99.7233 35.096 98.614 34.392C97.526 33.688 96.6833 32.7173 96.086 31.48C95.51 30.2213 95.222 28.7813 95.222 27.16C95.222 25.2827 95.5207 23.672 96.118 22.328C96.7153 20.9627 97.558 19.9173 98.646 19.192C99.734 18.4453 101.003 18.072 102.454 18.072ZM121.426 18.072C122.172 18.072 122.823 18.1787 123.378 18.392C123.932 18.6053 124.391 18.904 124.754 19.288C125.159 19.7147 125.436 20.2693 125.586 20.952C125.735 21.6347 125.81 22.4773 125.81 23.48V32.024C125.81 32.92 125.991 33.528 126.354 33.848C126.738 34.168 127.367 34.328 128.242 34.328V35C127.879 34.9787 127.324 34.9573 126.578 34.936C125.831 34.8933 125.106 34.872 124.402 34.872C123.698 34.872 123.004 34.8933 122.322 34.936C121.66 34.9573 121.159 34.9787 120.818 35V34.328C121.586 34.328 122.13 34.168 122.45 33.848C122.77 33.528 122.93 32.92 122.93 32.024V22.776C122.93 22.1147 122.887 21.5067 122.802 20.952C122.716 20.3973 122.503 19.9493 122.162 19.608C121.82 19.2667 121.266 19.096 120.498 19.096C119.666 19.096 118.919 19.352 118.258 19.864C117.618 20.376 117.106 21.08 116.722 21.976C116.359 22.8507 116.178 23.832 116.178 24.92V32.024C116.178 32.92 116.338 33.528 116.658 33.848C116.978 34.168 117.522 34.328 118.29 34.328V35C117.948 34.9787 117.436 34.9573 116.754 34.936C116.092 34.8933 115.41 34.872 114.706 34.872C114.002 34.872 113.276 34.8933 112.53 34.936C111.783 34.9573 111.228 34.9787 110.866 35V34.328C111.74 34.328 112.359 34.168 112.722 33.848C113.106 33.528 113.298 32.92 113.298 32.024V22.008C113.298 21.048 113.127 20.344 112.786 19.896C112.444 19.4267 111.804 19.192 110.866 19.192V18.52C111.548 18.584 112.21 18.616 112.85 18.616C113.468 18.616 114.055 18.584 114.61 18.52C115.186 18.4347 115.708 18.3173 116.178 18.168V21.944C116.732 20.5573 117.49 19.5653 118.45 18.968C119.41 18.3707 120.402 18.072 121.426 18.072ZM131.058 18.072C131.804 18.072 132.455 18.1787 133.01 18.392C133.564 18.6053 134.023 18.904 134.386 19.288C134.791 19.7147 135.068 20.2693 135.218 20.952C135.367 21.6347 135.442 22.4773 135.442 23.48V32.024C135.442 32.92 135.623 33.528 135.986 33.848C136.37 34.168 136.999 34.328 137.874 34.328V35C137.511 34.9787 136.956 34.9573 136.21 34.936C135.463 34.8933 134.738 34.872 134.034 34.872C133.33 34.872 132.636 34.8933 131.954 34.936C131.292 34.9573 130.791 34.9787 130.45 35V34.328C131.218 34.328 131.762 34.168 132.082 33.848C132.402 33.528 132.562 32.92 132.562 32.024V22.776C132.562 22.1147 132.519 21.5067 132.434 20.952C132.348 20.3973 132.135 19.9493 131.794 19.608C131.452 19.2667 130.898 19.096 130.13 19.096C129.298 19.096 128.551 19.352 127.89 19.864C127.25 20.376 126.738 21.0693 126.354 21.944C125.991 22.8187 125.81 23.8 125.81 24.888L125.714 21.912C126.29 20.44 127.068 19.4373 128.05 18.904C129.031 18.3493 130.034 18.072 131.058 18.072ZM147.112 18.072C148.477 18.072 149.704 18.3707 150.792 18.968C151.88 19.5653 152.744 20.504 153.384 21.784C154.045 23.064 154.376 24.728 154.376 26.776C154.376 28.824 154.045 30.488 153.384 31.768C152.744 33.0267 151.88 33.9547 150.792 34.552C149.704 35.1493 148.477 35.448 147.112 35.448C145.768 35.448 144.541 35.1493 143.432 34.552C142.344 33.9547 141.469 33.0267 140.808 31.768C140.168 30.488 139.848 28.824 139.848 26.776C139.848 24.728 140.168 23.064 140.808 21.784C141.469 20.504 142.344 19.5653 143.432 18.968C144.541 18.3707 145.768 18.072 147.112 18.072ZM147.112 18.712C145.896 18.712 144.893 19.3413 144.104 20.6C143.336 21.8587 142.952 23.9173 142.952 26.776C142.952 29.6347 143.336 31.6933 144.104 32.952C144.893 34.1893 145.896 34.808 147.112 34.808C148.328 34.808 149.32 34.1893 150.088 32.952C150.877 31.6933 151.272 29.6347 151.272 26.776C151.272 23.9173 150.877 21.8587 150.088 20.6C149.32 19.3413 148.328 18.712 147.112 18.712ZM161.955 13.208V18.552H166.691V19.192H161.955V31.576C161.955 32.5787 162.136 33.2827 162.499 33.688C162.862 34.0933 163.363 34.296 164.003 34.296C164.643 34.296 165.198 34.04 165.667 33.528C166.136 32.9947 166.542 32.1093 166.883 30.872L167.523 31.032C167.31 32.2693 166.883 33.3147 166.243 34.168C165.624 35.0213 164.664 35.448 163.363 35.448C162.638 35.448 162.04 35.352 161.571 35.16C161.102 34.9893 160.686 34.7333 160.323 34.392C159.854 33.9013 159.523 33.3147 159.331 32.632C159.16 31.9493 159.075 31.0427 159.075 29.912V19.192H156.003V18.552H159.075V13.656C159.608 13.6347 160.12 13.592 160.611 13.528C161.102 13.464 161.55 13.3573 161.955 13.208ZM175.892 18.072C177.769 18.072 179.23 18.648 180.276 19.8C181.342 20.9307 181.876 22.7013 181.876 25.112H170.58L170.548 24.504H178.804C178.846 23.4587 178.761 22.4987 178.548 21.624C178.334 20.728 177.993 20.0133 177.524 19.48C177.076 18.9467 176.489 18.68 175.764 18.68C174.782 18.68 173.908 19.1707 173.14 20.152C172.393 21.1333 171.945 22.6907 171.796 24.824L171.891 24.952C171.849 25.272 171.817 25.624 171.796 26.008C171.774 26.392 171.764 26.776 171.764 27.16C171.764 28.6107 171.998 29.8587 172.468 30.904C172.937 31.9493 173.545 32.7493 174.292 33.304C175.06 33.8373 175.849 34.104 176.66 34.104C177.3 34.104 177.908 34.008 178.484 33.816C179.06 33.6027 179.593 33.2613 180.084 32.792C180.574 32.3227 181.001 31.6933 181.364 30.904L182.004 31.16C181.769 31.864 181.385 32.5467 180.852 33.208C180.318 33.8693 179.646 34.4133 178.836 34.84C178.025 35.2453 177.086 35.448 176.02 35.448C174.484 35.448 173.161 35.096 172.052 34.392C170.964 33.688 170.121 32.7173 169.524 31.48C168.948 30.2213 168.66 28.7813 168.66 27.16C168.66 25.2827 168.958 23.672 169.556 22.328C170.153 20.9627 170.996 19.9173 172.084 19.192C173.172 18.4453 174.441 18.072 175.892 18.072ZM199.536 11.992C200.602 11.992 201.413 12.12 201.968 12.376C202.522 12.6107 203.013 12.8773 203.44 13.176C203.696 13.3253 203.898 13.4427 204.048 13.528C204.218 13.592 204.378 13.624 204.528 13.624C204.741 13.624 204.89 13.5067 204.976 13.272C205.082 13.0373 205.168 12.6853 205.232 12.216H205.968C205.946 12.5787 205.914 13.016 205.872 13.528C205.85 14.0187 205.829 14.68 205.808 15.512C205.808 16.3227 205.808 17.4 205.808 18.744H205.072C205.008 17.72 204.784 16.7387 204.4 15.8C204.016 14.8613 203.45 14.0933 202.704 13.496C201.978 12.8987 201.018 12.6 199.824 12.6C198.693 12.6 197.754 12.9413 197.008 13.624C196.282 14.3067 195.92 15.2027 195.92 16.312C195.92 17.272 196.165 18.0827 196.656 18.744C197.146 19.384 197.797 19.9707 198.608 20.504C199.44 21.016 200.336 21.5707 201.296 22.168C202.405 22.8507 203.386 23.5333 204.24 24.216C205.114 24.8773 205.797 25.6133 206.288 26.424C206.8 27.2347 207.056 28.216 207.056 29.368C207.056 30.7333 206.746 31.864 206.128 32.76C205.509 33.656 204.688 34.328 203.664 34.776C202.64 35.224 201.509 35.448 200.272 35.448C199.141 35.448 198.245 35.32 197.584 35.064C196.922 34.808 196.357 34.5413 195.888 34.264C195.418 33.9653 195.056 33.816 194.8 33.816C194.586 33.816 194.426 33.9333 194.32 34.168C194.234 34.4027 194.16 34.7547 194.096 35.224H193.36C193.402 34.776 193.424 34.2533 193.424 33.656C193.445 33.0373 193.456 32.2373 193.456 31.256C193.477 30.2747 193.488 29.0373 193.488 27.544H194.224C194.309 28.824 194.544 30.0187 194.928 31.128C195.333 32.2373 195.941 33.1333 196.752 33.816C197.584 34.4773 198.682 34.808 200.048 34.808C200.752 34.808 201.413 34.6693 202.032 34.392C202.672 34.0933 203.194 33.6347 203.6 33.016C204.005 32.376 204.208 31.5547 204.208 30.552C204.208 29.6773 203.994 28.92 203.568 28.28C203.162 27.6187 202.586 27.0107 201.84 26.456C201.093 25.88 200.218 25.2933 199.216 24.696C198.213 24.0773 197.274 23.448 196.4 22.808C195.525 22.168 194.821 21.432 194.288 20.6C193.776 19.7467 193.52 18.7227 193.52 17.528C193.52 16.2693 193.797 15.2347 194.352 14.424C194.928 13.592 195.674 12.984 196.592 12.6C197.509 12.1947 198.49 11.992 199.536 11.992ZM214.097 35.224C213.222 35.224 212.465 35.064 211.825 34.744C211.185 34.4027 210.694 33.9333 210.353 33.336C210.033 32.7387 209.873 32.0453 209.873 31.256C209.873 30.3173 210.086 29.5493 210.513 28.952C210.961 28.3547 211.526 27.8747 212.209 27.512C212.892 27.1493 213.606 26.8507 214.353 26.616C215.121 26.36 215.846 26.1253 216.529 25.912C217.212 25.6773 217.766 25.4107 218.193 25.112C218.641 24.8133 218.865 24.4187 218.865 23.928V21.944C218.865 21.048 218.726 20.3653 218.449 19.896C218.193 19.4267 217.841 19.1173 217.393 18.968C216.945 18.7973 216.444 18.712 215.889 18.712C215.356 18.712 214.78 18.7867 214.161 18.936C213.564 19.0853 213.084 19.3947 212.721 19.864C213.126 19.9493 213.478 20.1627 213.777 20.504C214.076 20.8453 214.225 21.2827 214.225 21.816C214.225 22.3493 214.054 22.776 213.713 23.096C213.372 23.3947 212.934 23.544 212.401 23.544C211.782 23.544 211.324 23.352 211.025 22.968C210.748 22.5627 210.609 22.1147 210.609 21.624C210.609 21.0693 210.748 20.6213 211.025 20.28C211.302 19.9387 211.654 19.6187 212.081 19.32C212.572 18.9787 213.201 18.6907 213.969 18.456C214.758 18.2 215.644 18.072 216.625 18.072C217.5 18.072 218.246 18.1787 218.865 18.392C219.484 18.584 219.996 18.872 220.401 19.256C220.956 19.768 221.318 20.3973 221.489 21.144C221.66 21.8693 221.745 22.744 221.745 23.768V32.664C221.745 33.1973 221.82 33.5813 221.969 33.816C222.14 34.0507 222.396 34.168 222.737 34.168C222.972 34.168 223.196 34.1147 223.409 34.008C223.622 33.9013 223.878 33.7307 224.177 33.496L224.529 34.04C224.081 34.3813 223.654 34.6693 223.249 34.904C222.844 35.1173 222.3 35.224 221.617 35.224C220.998 35.224 220.486 35.1173 220.081 34.904C219.676 34.6907 219.366 34.3813 219.153 33.976C218.961 33.5493 218.865 33.016 218.865 32.376C218.289 33.336 217.596 34.0507 216.785 34.52C215.996 34.9893 215.1 35.224 214.097 35.224ZM215.249 33.944C215.953 33.944 216.604 33.7413 217.201 33.336C217.82 32.9307 218.374 32.3227 218.865 31.512V25.24C218.609 25.6027 218.236 25.912 217.745 26.168C217.254 26.4027 216.721 26.648 216.145 26.904C215.569 27.1387 215.014 27.4267 214.481 27.768C213.969 28.088 213.542 28.5147 213.201 29.048C212.86 29.5813 212.689 30.2747 212.689 31.128C212.689 31.9813 212.913 32.664 213.361 33.176C213.83 33.688 214.46 33.944 215.249 33.944ZM236.243 18.072C237.053 18.072 237.725 18.1787 238.259 18.392C238.813 18.6053 239.272 18.904 239.635 19.288C240.04 19.7147 240.328 20.248 240.499 20.888C240.669 21.528 240.755 22.392 240.755 23.48V32.024C240.755 32.92 240.936 33.528 241.299 33.848C241.683 34.168 242.312 34.328 243.187 34.328V35C242.824 34.9787 242.269 34.9573 241.523 34.936C240.776 34.8933 240.051 34.872 239.347 34.872C238.643 34.872 237.949 34.8933 237.267 34.936C236.605 34.9573 236.104 34.9787 235.763 35V34.328C236.531 34.328 237.075 34.168 237.395 33.848C237.715 33.528 237.875 32.92 237.875 32.024V22.776C237.875 22.1147 237.821 21.5067 237.715 20.952C237.608 20.3973 237.363 19.9493 236.979 19.608C236.616 19.2667 236.051 19.096 235.283 19.096C234.387 19.096 233.597 19.352 232.915 19.864C232.253 20.376 231.731 21.08 231.347 21.976C230.984 22.8507 230.803 23.832 230.803 24.92V32.024C230.803 32.92 230.963 33.528 231.283 33.848C231.603 34.168 232.147 34.328 232.915 34.328V35C232.573 34.9787 232.061 34.9573 231.379 34.936C230.717 34.8933 230.035 34.872 229.331 34.872C228.627 34.872 227.901 34.8933 227.155 34.936C226.408 34.9573 225.853 34.9787 225.491 35V34.328C226.365 34.328 226.984 34.168 227.347 33.848C227.731 33.528 227.923 32.92 227.923 32.024V22.008C227.923 21.048 227.752 20.344 227.411 19.896C227.069 19.4267 226.429 19.192 225.491 19.192V18.52C226.173 18.584 226.835 18.616 227.475 18.616C228.093 18.616 228.68 18.584 229.235 18.52C229.811 18.4347 230.333 18.3173 230.803 18.168V21.944C231.357 20.4933 232.125 19.4907 233.107 18.936C234.109 18.36 235.155 18.072 236.243 18.072ZM249.736 13.208V18.552H254.472V19.192H249.736V31.576C249.736 32.5787 249.918 33.2827 250.28 33.688C250.643 34.0933 251.144 34.296 251.784 34.296C252.424 34.296 252.979 34.04 253.448 33.528C253.918 32.9947 254.323 32.1093 254.664 30.872L255.304 31.032C255.091 32.2693 254.664 33.3147 254.024 34.168C253.406 35.0213 252.446 35.448 251.144 35.448C250.419 35.448 249.822 35.352 249.352 35.16C248.883 34.9893 248.467 34.7333 248.104 34.392C247.635 33.9013 247.304 33.3147 247.112 32.632C246.942 31.9493 246.856 31.0427 246.856 29.912V19.192H243.784V18.552H246.856V13.656C247.39 13.6347 247.902 13.592 248.392 13.528C248.883 13.464 249.331 13.3573 249.736 13.208ZM260.441 35.224C259.566 35.224 258.809 35.064 258.169 34.744C257.529 34.4027 257.038 33.9333 256.697 33.336C256.377 32.7387 256.217 32.0453 256.217 31.256C256.217 30.3173 256.43 29.5493 256.857 28.952C257.305 28.3547 257.87 27.8747 258.553 27.512C259.235 27.1493 259.95 26.8507 260.697 26.616C261.465 26.36 262.19 26.1253 262.873 25.912C263.555 25.6773 264.11 25.4107 264.537 25.112C264.985 24.8133 265.209 24.4187 265.209 23.928V21.944C265.209 21.048 265.07 20.3653 264.793 19.896C264.537 19.4267 264.185 19.1173 263.737 18.968C263.289 18.7973 262.787 18.712 262.233 18.712C261.699 18.712 261.123 18.7867 260.505 18.936C259.907 19.0853 259.427 19.3947 259.065 19.864C259.47 19.9493 259.822 20.1627 260.121 20.504C260.419 20.8453 260.569 21.2827 260.569 21.816C260.569 22.3493 260.398 22.776 260.057 23.096C259.715 23.3947 259.278 23.544 258.745 23.544C258.126 23.544 257.667 23.352 257.369 22.968C257.091 22.5627 256.953 22.1147 256.953 21.624C256.953 21.0693 257.091 20.6213 257.369 20.28C257.646 19.9387 257.998 19.6187 258.425 19.32C258.915 18.9787 259.545 18.6907 260.313 18.456C261.102 18.2 261.987 18.072 262.969 18.072C263.843 18.072 264.59 18.1787 265.209 18.392C265.827 18.584 266.339 18.872 266.745 19.256C267.299 19.768 267.662 20.3973 267.833 21.144C268.003 21.8693 268.089 22.744 268.089 23.768V32.664C268.089 33.1973 268.163 33.5813 268.313 33.816C268.483 34.0507 268.739 34.168 269.081 34.168C269.315 34.168 269.539 34.1147 269.753 34.008C269.966 33.9013 270.222 33.7307 270.521 33.496L270.873 34.04C270.425 34.3813 269.998 34.6693 269.593 34.904C269.187 35.1173 268.643 35.224 267.961 35.224C267.342 35.224 266.83 35.1173 266.425 34.904C266.019 34.6907 265.71 34.3813 265.497 33.976C265.305 33.5493 265.209 33.016 265.209 32.376C264.633 33.336 263.939 34.0507 263.129 34.52C262.339 34.9893 261.443 35.224 260.441 35.224ZM261.593 33.944C262.297 33.944 262.947 33.7413 263.545 33.336C264.163 32.9307 264.718 32.3227 265.209 31.512V25.24C264.953 25.6027 264.579 25.912 264.089 26.168C263.598 26.4027 263.065 26.648 262.489 26.904C261.913 27.1387 261.358 27.4267 260.825 27.768C260.313 28.088 259.886 28.5147 259.545 29.048C259.203 29.5813 259.033 30.2747 259.033 31.128C259.033 31.9813 259.257 32.664 259.705 33.176C260.174 33.688 260.803 33.944 261.593 33.944Z" fill="#1F2223"/>
<path d="M77.326 68.21C76.6447 68.21 76.031 68.1003 75.485 67.881C74.9437 67.657 74.4933 67.342 74.134 66.936C73.7793 66.53 73.5413 66.0493 73.42 65.494L74.008 65.382C74.19 66.0727 74.5773 66.6187 75.17 67.02C75.7627 67.4213 76.4813 67.622 77.326 67.622C77.914 67.622 78.4273 67.5287 78.866 67.342C79.3047 67.1553 79.6453 66.894 79.888 66.558C80.1307 66.2173 80.252 65.8207 80.252 65.368C80.252 65.0273 80.189 64.7427 80.063 64.514C79.937 64.2853 79.776 64.101 79.58 63.961C79.3887 63.8163 79.188 63.702 78.978 63.618C78.768 63.534 78.5813 63.4687 78.418 63.422L75.898 62.666C75.534 62.5587 75.219 62.428 74.953 62.274C74.6917 62.12 74.477 61.945 74.309 61.749C74.141 61.553 74.015 61.3383 73.931 61.105C73.8517 60.8717 73.812 60.622 73.812 60.356C73.812 59.8427 73.9497 59.3877 74.225 58.991C74.505 58.5897 74.8923 58.277 75.387 58.053C75.8817 57.8243 76.4533 57.71 77.102 57.71C77.76 57.71 78.3503 57.8313 78.873 58.074C79.3957 58.3167 79.8227 58.6597 80.154 59.103C80.49 59.5417 80.7 60.0573 80.784 60.65L80.196 60.762C80.1307 60.272 79.958 59.8427 79.678 59.474C79.398 59.1007 79.0363 58.8113 78.593 58.606C78.1497 58.4007 77.6527 58.298 77.102 58.298C76.5747 58.298 76.1103 58.389 75.709 58.571C75.3123 58.753 75.002 58.998 74.778 59.306C74.554 59.614 74.442 59.9593 74.442 60.342C74.442 60.7433 74.5493 61.0653 74.764 61.308C74.9833 61.546 75.2493 61.7327 75.562 61.868C75.8747 61.9987 76.1733 62.106 76.458 62.19L78.544 62.82C78.7213 62.8713 78.9383 62.9483 79.195 63.051C79.4517 63.149 79.7037 63.2913 79.951 63.478C80.203 63.6647 80.4107 63.912 80.574 64.22C80.742 64.5233 80.826 64.906 80.826 65.368C80.826 65.802 80.7443 66.194 80.581 66.544C80.4177 66.894 80.182 67.1927 79.874 67.44C79.566 67.6873 79.1973 67.8763 78.768 68.007C78.3387 68.1423 77.858 68.21 77.326 68.21ZM83.7641 68L87.4321 57.92H88.0621L91.7301 68H91.1001L87.5301 58.186H87.9501L84.3941 68H83.7641ZM85.1641 65.382V64.822H90.3161V65.382H85.1641ZM95.2354 68V57.92H95.8234L101.955 66.95V57.92H102.543V68H101.955L95.8234 58.956V68H95.2354ZM109.601 68V58.508H105.905V57.92H113.885V58.508H110.189V68H109.601ZM116.269 68L119.937 57.92H120.567L124.235 68H123.605L120.035 58.186H120.455L116.899 68H116.269ZM117.669 65.382V64.822H122.821V65.382H117.669ZM134.967 68L132.083 57.92H132.685L135.275 66.936L137.851 57.92H138.467L141.057 66.936L143.633 57.92H144.249L141.365 68H140.749L138.159 58.998L135.583 68H134.967ZM147.752 68V57.92H148.34V62.666H154.444V57.92H155.032V68H154.444V63.254H148.34V68H147.752ZM163.196 68.21C162.193 68.21 161.355 67.986 160.683 67.538C160.016 67.09 159.514 66.4717 159.178 65.683C158.842 64.8943 158.674 63.9867 158.674 62.96C158.674 61.9333 158.842 61.0257 159.178 60.237C159.514 59.4483 160.016 58.83 160.683 58.382C161.355 57.934 162.193 57.71 163.196 57.71C164.199 57.71 165.035 57.934 165.702 58.382C166.374 58.83 166.878 59.4483 167.214 60.237C167.55 61.0257 167.718 61.9333 167.718 62.96C167.718 63.9867 167.55 64.8943 167.214 65.683C166.878 66.4717 166.374 67.09 165.702 67.538C165.035 67.986 164.199 68.21 163.196 68.21ZM163.196 67.622C164.059 67.622 164.778 67.4237 165.352 67.027C165.931 66.6257 166.365 66.075 166.654 65.375C166.943 64.675 167.088 63.87 167.088 62.96C167.088 62.05 166.943 61.245 166.654 60.545C166.365 59.8403 165.931 59.2897 165.352 58.893C164.778 58.4963 164.059 58.298 163.196 58.298C162.333 58.298 161.614 58.4963 161.04 58.893C160.471 59.2897 160.041 59.8403 159.752 60.545C159.463 61.245 159.313 62.05 159.304 62.96C159.295 63.87 159.435 64.675 159.724 65.375C160.013 66.075 160.447 66.6257 161.026 67.027C161.609 67.4237 162.333 67.622 163.196 67.622ZM176.401 68V57.92H179.355C179.477 57.92 179.67 57.9223 179.936 57.927C180.202 57.9317 180.457 57.9527 180.699 57.99C181.441 58.0973 182.055 58.382 182.54 58.844C183.03 59.306 183.394 59.894 183.632 60.608C183.87 61.3173 183.989 62.1013 183.989 62.96C183.989 63.8233 183.87 64.612 183.632 65.326C183.394 66.0353 183.03 66.621 182.54 67.083C182.055 67.5403 181.441 67.8227 180.699 67.93C180.461 67.9627 180.205 67.9837 179.929 67.993C179.659 67.9977 179.467 68 179.355 68H176.401ZM177.031 67.412H179.355C179.579 67.412 179.803 67.405 180.027 67.391C180.256 67.377 180.447 67.356 180.601 67.328C181.264 67.216 181.796 66.9617 182.197 66.565C182.603 66.1637 182.897 65.655 183.079 65.039C183.266 64.4183 183.359 63.7253 183.359 62.96C183.359 62.1947 183.266 61.504 183.079 60.888C182.897 60.2673 182.603 59.7587 182.197 59.362C181.796 58.9607 181.264 58.704 180.601 58.592C180.447 58.564 180.254 58.543 180.02 58.529C179.787 58.515 179.565 58.508 179.355 58.508H177.031V67.412ZM187.774 68V57.92H193.934V58.508H188.362V62.666H193.094V63.254H188.362V67.412H193.934V68H187.774ZM197.988 68V57.92H198.576V67.412H203.588V68H197.988ZM207.16 68V57.92H207.748V68H207.16ZM214.848 68L211.18 57.92H211.81L215.156 67.146L218.516 57.92H219.146L215.478 68H214.848ZM222.437 68V57.92H228.597V58.508H223.025V62.666H227.757V63.254H223.025V67.412H228.597V68H222.437ZM232.511 68V57.92H236.221C236.319 57.92 236.42 57.9247 236.522 57.934C236.625 57.9387 236.739 57.9527 236.865 57.976C237.351 58.0507 237.771 58.228 238.125 58.508C238.485 58.7833 238.76 59.1333 238.951 59.558C239.147 59.978 239.245 60.44 239.245 60.944C239.245 61.6627 239.049 62.2927 238.657 62.834C238.265 63.3753 237.733 63.7207 237.061 63.87L236.949 63.968H233.099V68H232.511ZM238.825 68L236.837 63.898L237.341 63.52L239.525 68H238.825ZM233.099 63.38H236.221C236.301 63.38 236.394 63.3753 236.501 63.366C236.613 63.3567 236.725 63.3427 236.837 63.324C237.225 63.2493 237.549 63.0953 237.81 62.862C238.076 62.6287 238.277 62.3463 238.412 62.015C238.548 61.679 238.615 61.322 238.615 60.944C238.615 60.566 238.548 60.2113 238.412 59.88C238.277 59.544 238.076 59.2593 237.81 59.026C237.549 58.7927 237.225 58.6387 236.837 58.564C236.725 58.5407 236.613 58.5267 236.501 58.522C236.394 58.5127 236.301 58.508 236.221 58.508H233.099V63.38ZM246.656 68.21C245.975 68.21 245.361 68.1003 244.815 67.881C244.274 67.657 243.823 67.342 243.464 66.936C243.109 66.53 242.871 66.0493 242.75 65.494L243.338 65.382C243.52 66.0727 243.907 66.6187 244.5 67.02C245.093 67.4213 245.811 67.622 246.656 67.622C247.244 67.622 247.757 67.5287 248.196 67.342C248.635 67.1553 248.975 66.894 249.218 66.558C249.461 66.2173 249.582 65.8207 249.582 65.368C249.582 65.0273 249.519 64.7427 249.393 64.514C249.267 64.2853 249.106 64.101 248.91 63.961C248.719 63.8163 248.518 63.702 248.308 63.618C248.098 63.534 247.911 63.4687 247.748 63.422L245.228 62.666C244.864 62.5587 244.549 62.428 244.283 62.274C244.022 62.12 243.807 61.945 243.639 61.749C243.471 61.553 243.345 61.3383 243.261 61.105C243.182 60.8717 243.142 60.622 243.142 60.356C243.142 59.8427 243.28 59.3877 243.555 58.991C243.835 58.5897 244.222 58.277 244.717 58.053C245.212 57.8243 245.783 57.71 246.432 57.71C247.09 57.71 247.68 57.8313 248.203 58.074C248.726 58.3167 249.153 58.6597 249.484 59.103C249.82 59.5417 250.03 60.0573 250.114 60.65L249.526 60.762C249.461 60.272 249.288 59.8427 249.008 59.474C248.728 59.1007 248.366 58.8113 247.923 58.606C247.48 58.4007 246.983 58.298 246.432 58.298C245.905 58.298 245.44 58.389 245.039 58.571C244.642 58.753 244.332 58.998 244.108 59.306C243.884 59.614 243.772 59.9593 243.772 60.342C243.772 60.7433 243.879 61.0653 244.094 61.308C244.313 61.546 244.579 61.7327 244.892 61.868C245.205 61.9987 245.503 62.106 245.788 62.19L247.874 62.82C248.051 62.8713 248.268 62.9483 248.525 63.051C248.782 63.149 249.034 63.2913 249.281 63.478C249.533 63.6647 249.741 63.912 249.904 64.22C250.072 64.5233 250.156 64.906 250.156 65.368C250.156 65.802 250.074 66.194 249.911 66.544C249.748 66.894 249.512 67.1927 249.204 67.44C248.896 67.6873 248.527 67.8763 248.098 68.007C247.669 68.1423 247.188 68.21 246.656 68.21ZM261.021 68L258.137 57.92H258.739L261.329 66.936L263.905 57.92H264.521L267.111 66.936L269.687 57.92H270.303L267.419 68H266.803L264.213 58.998L261.637 68H261.021ZM273.805 68V57.92H274.393V62.666H280.497V57.92H281.085V68H280.497V63.254H274.393V68H273.805ZM289.25 68.21C288.246 68.21 287.409 67.986 286.737 67.538C286.069 67.09 285.568 66.4717 285.232 65.683C284.896 64.8943 284.728 63.9867 284.728 62.96C284.728 61.9333 284.896 61.0257 285.232 60.237C285.568 59.4483 286.069 58.83 286.737 58.382C287.409 57.934 288.246 57.71 289.25 57.71C290.253 57.71 291.088 57.934 291.756 58.382C292.428 58.83 292.932 59.4483 293.268 60.237C293.604 61.0257 293.772 61.9333 293.772 62.96C293.772 63.9867 293.604 64.8943 293.268 65.683C292.932 66.4717 292.428 67.09 291.756 67.538C291.088 67.986 290.253 68.21 289.25 68.21ZM289.25 67.622C290.113 67.622 290.832 67.4237 291.406 67.027C291.984 66.6257 292.418 66.075 292.708 65.375C292.997 64.675 293.142 63.87 293.142 62.96C293.142 62.05 292.997 61.245 292.708 60.545C292.418 59.8403 291.984 59.2897 291.406 58.893C290.832 58.4963 290.113 58.298 289.25 58.298C288.386 58.298 287.668 58.4963 287.094 58.893C286.524 59.2897 286.095 59.8403 285.806 60.545C285.516 61.245 285.367 62.05 285.358 62.96C285.348 63.87 285.488 64.675 285.778 65.375C286.067 66.075 286.501 66.6257 287.08 67.027C287.663 67.4237 288.386 67.622 289.25 67.622ZM297.552 68V57.92H298.14V67.412H303.152V68H297.552ZM306.584 68V57.92H312.744V58.508H307.172V62.666H311.904V63.254H307.172V67.412H312.744V68H306.584ZM324.067 68V63.716L320.721 57.92H321.393L324.361 63.044L327.315 57.92H327.987L324.655 63.716V68H324.067ZM331.2 68V57.92H337.36V58.508H331.788V62.666H336.52V63.254H331.788V67.412H337.36V68H331.2ZM340.574 68L344.242 57.92H344.872L348.54 68H347.91L344.34 58.186H344.76L341.204 68H340.574ZM341.974 65.382V64.822H347.126V65.382H341.974ZM352.046 68V57.92H355.756C355.854 57.92 355.954 57.9247 356.057 57.934C356.159 57.9387 356.274 57.9527 356.4 57.976C356.885 58.0507 357.305 58.228 357.66 58.508C358.019 58.7833 358.294 59.1333 358.486 59.558C358.682 59.978 358.78 60.44 358.78 60.944C358.78 61.6627 358.584 62.2927 358.192 62.834C357.8 63.3753 357.268 63.7207 356.596 63.87L356.484 63.968H352.634V68H352.046ZM358.36 68L356.372 63.898L356.876 63.52L359.06 68H358.36ZM352.634 63.38H355.756C355.835 63.38 355.928 63.3753 356.036 63.366C356.148 63.3567 356.26 63.3427 356.372 63.324C356.759 63.2493 357.083 63.0953 357.345 62.862C357.611 62.6287 357.811 62.3463 357.947 62.015C358.082 61.679 358.15 61.322 358.15 60.944C358.15 60.566 358.082 60.2113 357.947 59.88C357.811 59.544 357.611 59.2593 357.345 59.026C357.083 58.7927 356.759 58.6387 356.372 58.564C356.26 58.5407 356.148 58.5267 356.036 58.522C355.928 58.5127 355.835 58.508 355.756 58.508H352.634V63.38Z" fill="#1F2223"/>
<path d="M30.9049 55.8942C29.9007 54.7404 28.3928 54.035 26.7097 53.9416C25.9113 53.842 22.718 53.7422 19.9238 58.0253C18.3271 60.5154 11.5415 59.6189 9.34607 59.1209C8.84711 59.0213 8.34815 59.2205 8.04877 59.6189C7.74939 60.0174 7.74939 60.5153 7.94897 61.0134C7.96078 61.0251 7.9922 61.0719 8.04345 61.1481C8.42547 61.7162 9.91181 63.9266 12.6392 65.5951C12.7889 65.6947 13.1842 65.9188 13.5796 66.1428C13.9751 66.3669 14.3708 66.5912 14.5205 66.6908L14.4997 66.7495L14.4673 66.8418L14.5205 66.6908C15.9176 67.1888 18.9258 67.8861 20.7221 67.8861C22.6182 67.8861 24.8136 67.5873 27.2086 66.6908C28.8168 66.0666 30.025 65.123 30.9049 64.0745V55.8942Z" fill="#1F2223"/>
<path d="M30.9049 56.0081C31.9092 54.8543 33.4171 54.1489 35.1002 54.0556C35.8986 53.956 39.0919 53.8562 41.8861 58.1392C43.4828 60.6293 50.2684 59.7329 52.4638 59.2349C52.9628 59.1352 53.4617 59.3344 53.7611 59.7329C54.0605 60.1313 54.0605 60.6293 53.8609 61.1273C53.8491 61.1391 53.8177 61.1858 53.7664 61.262C53.3844 61.8301 51.8981 64.0406 49.1706 65.7091C49.021 65.8087 48.6256 66.0327 48.2303 66.2568C47.8348 66.4809 47.4391 66.7052 47.2894 66.8048L47.3101 66.8634L47.3426 66.9557L47.2894 66.8048C45.8923 67.3028 42.884 68 41.0878 68C39.1917 68 36.9963 67.7012 34.6013 66.8047C32.9931 66.1805 31.7848 65.237 30.9049 64.1885V56.0081Z" fill="#1F2223"/>
<path fill-rule="evenodd" clip-rule="evenodd" d="M10.578 44.1856C11.6757 45.2812 12.2745 46.7753 12.2745 48.369C12.2745 51.7556 9.5801 54.6441 6.18715 54.6441C2.7942 54.6441 0 51.8552 0 48.4686C0 45.8789 1.49689 43.6875 3.69233 42.7911C6.38673 26.7546 11.6757 16.1964 19.26 11.515C25.2475 7.82956 30.5366 9.22403 31.0355 9.42324C41.6136 11.6146 45.3059 24.3641 46.0044 26.8542C46.3038 27.153 46.6031 27.5514 46.9025 27.9498C51.0094 33.9122 48.3941 41.879 47.957 43.2105L47.9567 43.2114C47.9267 43.3028 47.9069 43.3631 47.9005 43.3887C47.7009 43.8867 47.2019 44.1856 46.703 44.1856H14.6695C14.0708 44.1856 13.6716 43.8867 13.472 43.3887C13.472 43.3259 13.4125 43.1245 13.3185 42.8064C13.1143 42.1154 12.7474 40.8736 12.4741 39.3049C11.7755 40.8986 11.077 42.4923 10.578 44.1856ZM30.0874 11.6876C29.2519 11.5196 25.1862 10.7022 20.4575 13.6067C15.7672 16.5948 9.5801 23.866 6.38673 42.1935C7.18507 42.2931 7.88362 42.3927 8.58217 42.6915C9.48031 39.7033 10.7776 37.014 12.3743 34.6234C12.4741 32.4321 13.1726 30.1412 14.5697 28.0495C15.5457 26.5883 17.499 24.703 18.28 24.1868C19.061 23.6706 20.5406 22.9507 21.6643 22.6381C22.7879 22.3256 27.3576 21.5751 30.6364 21.5751C35.5262 21.5751 39.4181 22.4716 42.4119 24.0653C40.8152 19.7822 37.2227 13.1086 30.4368 11.7142H30.2372C30.2195 11.7142 30.1687 11.704 30.0874 11.6876ZM3.12395 49.0075C3.12395 51.0992 4.0915 52.0544 6.08735 52.0544C8.183 52.0544 10.1528 51.8735 10.1528 49.7818C10.1528 47.6901 8.183 52.0544 6.08735 52.0544C3.99171 52.0544 3.12395 46.9157 3.12395 49.0075Z" fill="#1F2223"/>
<path d="M42.7096 59.0738C42.4593 58.8894 42.2501 58.6752 42.0913 58.4275C39.3969 54.1445 36.1037 54.2443 35.3054 54.3439C33.5091 54.3439 32.0122 55.2403 30.9145 56.5351C29.9166 55.2403 28.3199 54.4435 26.5236 54.3439C25.7253 54.2443 22.5319 54.1445 19.7377 58.4275C19.5789 58.6752 19.3687 58.8894 19.1168 59.0738H42.7096Z" fill="#1F2223"/>
<path d="M3.12395 47.2007H10.4132V52.3629H3.12395V47.2007Z" fill="#1F2223"/>
<path d="M27.0742 55.9765H35.4048V63.7199H27.0742V55.9765Z" fill="#1F2223"/>
</svg>
