<svg width="22" height="24" viewBox="0 0 22 24" fill="none" xmlns="http://www.w3.org/2000/svg">
<path d="M12.5909 19.0756C12.1818 18.6063 11.5674 18.3193 10.8817 18.2813C10.5565 18.2408 9.25546 18.2002 8.11709 19.9425C7.46659 20.9554 4.7021 20.5908 3.80766 20.3882C3.60438 20.3477 3.4011 20.4287 3.27913 20.5908C3.15716 20.7528 3.15716 20.9554 3.23847 21.158C3.24328 21.1628 3.25608 21.1818 3.27696 21.2128C3.4326 21.4439 4.03814 22.343 5.14932 23.0218C5.21028 23.0623 5.37136 23.1534 5.53243 23.2445C5.69355 23.3357 5.85478 23.4269 5.91576 23.4675L5.9073 23.4913L5.89409 23.5289L5.91576 23.4675C6.48495 23.67 7.71052 23.9537 8.44234 23.9537C9.21481 23.9537 10.1092 23.8321 11.085 23.4675C11.7402 23.2135 12.2324 22.8297 12.5909 22.4032V19.0756Z" fill="#1F2223"/>
<path d="M12.5909 19.1219C13 18.6526 13.6144 18.3657 14.3001 18.3277C14.6253 18.2872 15.9263 18.2466 17.0647 19.9888C17.7152 21.0018 20.4797 20.6371 21.3741 20.4345C21.5774 20.394 21.7807 20.475 21.9027 20.6371C22.0246 20.7992 22.0246 21.0017 21.9433 21.2043C21.9385 21.2091 21.9257 21.2281 21.9048 21.2591C21.7492 21.4902 21.1437 22.3894 20.0325 23.0681C19.9715 23.1086 19.8104 23.1997 19.6494 23.2909C19.4883 23.3821 19.327 23.4733 19.266 23.5138L19.2745 23.5377L19.2877 23.5752L19.266 23.5138C18.6968 23.7164 17.4713 24 16.7395 24C15.967 24 15.0726 23.8785 14.0968 23.5138C13.4416 23.2599 12.9494 22.876 12.5909 22.4495V19.1219Z" fill="#1F2223"/>
<path fill-rule="evenodd" clip-rule="evenodd" d="M4.30956 14.3128C4.75678 14.7585 5.00072 15.3662 5.00072 16.0145C5.00072 17.3921 3.903 18.5671 2.52069 18.5671C1.13838 18.5671 0 17.4326 0 16.055C0 15.0016 0.609844 14.1102 1.50428 13.7455C2.602 7.22221 4.75678 2.92736 7.84666 1.02303C10.286 -0.476113 12.4408 0.0911323 12.6441 0.172167C16.9537 1.06355 18.4579 6.24979 18.7425 7.26273C18.8645 7.38427 18.9865 7.54633 19.1084 7.70838C20.7816 10.1338 19.7161 13.3745 19.538 13.9161L19.5379 13.9165C19.5257 13.9537 19.5176 13.9782 19.515 13.9886C19.4337 14.1912 19.2304 14.3128 19.0271 14.3128H5.97647C5.73253 14.3128 5.56991 14.1912 5.4886 13.9886C5.4886 13.9631 5.46436 13.8812 5.42606 13.7518C5.34288 13.4707 5.19339 12.9655 5.08203 12.3274C4.79744 12.9757 4.51284 13.624 4.30956 14.3128ZM12.2578 1.09327C11.9175 1.02494 10.261 0.69241 8.33454 1.8739C6.42369 3.08943 3.903 6.0472 2.602 13.5024C2.92725 13.5429 3.21185 13.5835 3.49644 13.705C3.86235 12.4895 4.39088 11.3955 5.04138 10.4231C5.08204 9.53171 5.36663 8.59981 5.93582 7.74894C6.33341 7.15458 7.12922 6.38767 7.4474 6.17768C7.76558 5.96769 8.3684 5.67484 8.82618 5.54771C9.28397 5.42058 11.1457 5.1153 12.4815 5.1153C14.4736 5.1153 16.0592 5.47996 17.2789 6.12824C16.6284 4.38599 15.1648 1.67131 12.4002 1.10407H12.3189C12.3116 1.10407 12.291 1.09992 12.2578 1.09327ZM1.27272 16.2742C1.27272 17.1251 1.66691 17.5137 2.48003 17.5137C3.33381 17.5137 4.13634 17.4401 4.13634 16.5892C4.13634 15.7383 3.33381 17.5137 2.48003 17.5137C1.62625 17.5137 1.27272 15.4234 1.27272 16.2742Z" fill="#1F2223"/>
<path d="M17.4002 20.369C17.2982 20.294 17.213 20.2069 17.1483 20.1061C16.0506 18.3639 14.7089 18.4045 14.3837 18.445C13.6519 18.445 13.042 18.8096 12.5948 19.3363C12.1882 18.8096 11.5377 18.4855 10.8059 18.445C10.4807 18.4045 9.17968 18.3639 8.0413 20.1061C7.97659 20.2069 7.89096 20.294 7.78834 20.369H17.4002Z" fill="#1F2223"/>
<path d="M1.27272 15.5393H4.2424V17.6392H1.27272V15.5393Z" fill="#1F2223"/>
<path d="M11.0302 19.1091H14.4242V22.2589H11.0302V19.1091Z" fill="#1F2223"/>
</svg>
