<svg width="25" height="44" viewBox="0 0 25 44" fill="none" xmlns="http://www.w3.org/2000/svg">
<path d="M5.99948 18.244C5.99948 17.5054 5.72438 16.8131 5.22001 16.3053C5.44927 15.5206 5.77023 14.7821 6.09119 14.0436C6.27459 15.1052 6.5497 15.8437 6.5497 15.9361C6.6414 16.1668 6.8248 16.3053 7.09991 16.3053H21.8181C22.0474 16.3053 22.2766 16.1668 22.3683 15.9361C22.4142 15.7514 23.9272 11.7357 21.9098 8.78156C21.7722 8.59693 21.6347 8.4123 21.4971 8.27382C21.1762 7.11987 19.4797 1.21164 14.6195 0.196159C14.3902 0.103842 11.9601 -0.542371 9.20906 1.16548C5.72438 3.33491 3.29427 8.22766 2.05629 15.6591C1.04757 16.0745 0.359803 17.09 0.359803 18.2901C0.359803 19.8595 1.64363 21.1519 3.20257 21.1519C4.7615 21.1519 5.99948 19.8133 5.99948 18.244ZM21.4054 15.1975H14.459H7.51257C7.23746 14.2282 6.59555 11.5049 7.97108 9.47393C9.0715 7.8584 11.2724 7.02755 14.4361 7.02755C17.5998 7.02755 19.8007 7.8584 20.9011 9.47393C22.2766 11.4587 21.6805 14.1821 21.4054 15.1975ZM9.75927 2.1348C12.1435 0.65774 14.161 1.25779 14.2527 1.25779H14.3444C17.4622 1.90401 19.1129 4.9966 19.8465 6.9814C18.471 6.24287 16.6828 5.82744 14.4361 5.82744C12.923 5.82744 11.5933 6.01208 10.447 6.38134C10.9972 5.64281 11.7767 4.95044 12.7396 4.35039C13.0147 4.16575 13.1064 3.84265 12.923 3.5657C12.7396 3.28875 12.4186 3.19643 12.1435 3.38107C10.447 4.4427 9.20906 5.8736 8.7964 7.16603C8.06278 7.58145 7.51257 8.13535 7.05406 8.82772C6.41214 9.79704 6.09119 10.8587 6.04533 11.8741C5.31172 12.9819 4.71565 14.2282 4.30299 15.613C3.98204 15.4745 3.66108 15.4283 3.29427 15.3822C4.7615 6.88908 7.60427 3.51954 9.75927 2.1348ZM3.15672 19.9518C2.2397 19.9518 1.46023 19.2133 1.46023 18.244C1.46023 17.2746 2.19385 16.5361 3.15672 16.5361C4.11959 16.5361 4.85321 17.2746 4.85321 18.244C4.85321 19.2133 4.11959 19.9518 3.15672 19.9518ZM24.89 23.7829C24.7525 23.5982 24.5232 23.5059 24.294 23.5521C23.2394 23.7829 20.1674 24.1983 19.4338 23.0443C18.1958 21.0595 16.6827 21.1058 16.3159 21.1519C15.4906 21.1519 14.8028 21.5673 14.2984 22.1674C13.8399 21.5673 13.1063 21.1981 12.281 21.1519C11.9142 21.1058 10.447 21.0595 9.16313 23.0443C8.42951 24.1983 5.31179 23.7829 4.30307 23.5521C4.07381 23.5059 3.84456 23.5982 3.70701 23.7829C3.56945 23.9675 3.56945 24.1983 3.66115 24.429C3.70701 24.4752 4.39477 25.6753 5.81615 26.5523C5.95371 26.6446 6.09125 26.6908 6.2288 26.7831C4.53231 31.5835 4.57816 35.5531 6.36635 38.6457C8.88816 43.0769 13.9775 43.9539 14.2067 44H14.3902C14.6194 43.9539 19.7089 43.0769 22.2307 38.6457C24.0189 35.5531 24.0189 31.5374 22.3682 26.7369C24.0647 25.8138 24.89 24.3829 24.9359 24.3829C25.0276 24.1983 25.0276 23.9675 24.89 23.7829ZM5.63275 24.9368C7.14584 25.0752 9.34653 25.0291 10.1719 23.6905C11.1347 22.1673 12.0976 22.3058 12.1434 22.3058H12.281C13.1063 22.3058 13.7482 22.952 13.7482 23.7829C13.7482 24.983 12.8312 25.6291 12.0976 25.9522C9.98845 26.6908 8.38377 26.46 7.2375 25.9522C6.54973 25.6753 6.04541 25.306 5.63275 24.9368ZM21.2678 38.0918C19.2045 41.7383 15.0321 42.7538 14.3443 42.8922C13.6565 42.7538 9.4842 41.7383 7.4209 38.0918C5.81611 35.3223 5.81611 31.6758 7.37505 27.2447C8.01696 27.4754 8.70462 27.6139 9.52994 27.6139C10.4011 27.6139 11.4098 27.4754 12.5103 27.06C13.3356 26.7369 13.9316 26.2292 14.3443 25.6753C14.757 26.2753 15.353 26.7369 16.1783 27.06C17.2788 27.4754 18.2416 27.6139 19.1128 27.6139C19.9381 27.6139 20.6717 27.4754 21.3137 27.2447C22.8726 31.6297 22.8267 35.2761 21.2678 38.0918ZM21.4971 25.9522C21.4054 25.9522 21.4054 25.9984 21.3595 25.9984C20.2132 26.5061 18.6084 26.6908 16.591 25.9522C15.8115 25.6291 14.8945 25.0291 14.8945 23.7829C14.8945 22.952 15.5364 22.3058 16.3617 22.3058H16.5451C16.8203 22.3058 17.6456 22.4443 18.425 23.6905C19.2962 25.0291 21.4512 25.1214 22.9643 24.9368C22.6433 25.2599 22.139 25.6753 21.4971 25.9522Z" fill="#1F2223"/>
</svg>
