<svg width="42" height="46" viewBox="0 0 42 46" fill="none" xmlns="http://www.w3.org/2000/svg">
<path d="M24.0372 36.5616C23.2561 35.662 22.0833 35.112 20.7742 35.0392C20.1532 34.9616 17.6695 34.8838 15.4963 38.2231C14.2544 40.1646 8.97673 39.4656 7.26917 39.0773C6.88108 38.9997 6.493 39.155 6.26015 39.4656C6.0273 39.7762 6.0273 40.1645 6.18253 40.5528C6.19172 40.562 6.21616 40.5984 6.25602 40.6578C6.55314 41.1008 7.70919 42.8242 9.83051 44.125C9.94691 44.2027 10.2544 44.3774 10.5619 44.552C10.8695 44.7268 11.1773 44.9016 11.2937 44.9793L11.2776 45.025L11.2523 45.097L11.2937 44.9793C12.3804 45.3676 14.7201 45.9112 16.1172 45.9112C17.5919 45.9112 19.2995 45.6782 21.1623 44.9793C22.4131 44.4926 23.3528 43.7569 24.0372 42.9395V36.5616Z" fill="#1F2223"/>
<path d="M24.0372 36.6504C24.8183 35.7508 25.9911 35.2008 27.3002 35.1281C27.9211 35.0504 30.4048 34.9726 32.5781 38.3119C33.82 40.2534 39.0976 39.5545 40.8052 39.1662C41.1933 39.0885 41.5813 39.2438 41.8142 39.5544C42.047 39.8651 42.047 40.2533 41.8918 40.6416C41.8826 40.6508 41.8582 40.6872 41.8183 40.7467C41.5212 41.1896 40.3652 42.913 38.2438 44.2139C38.1274 44.2915 37.8199 44.4662 37.5124 44.6409C37.2048 44.8156 36.897 44.9905 36.7806 45.0681L36.7968 45.1139L36.822 45.1858L36.7806 45.0681C35.694 45.4564 33.3543 46 31.9572 46C30.4824 46 28.7749 45.767 26.9121 45.0681C25.6613 44.5814 24.7215 43.8458 24.0372 43.0283V36.6504Z" fill="#1F2223"/>
<path fill-rule="evenodd" clip-rule="evenodd" d="M8.22735 27.4328C9.08113 28.2871 9.54683 29.4519 9.54683 30.6945C9.54683 33.3349 7.45119 35.587 4.81223 35.587C2.17326 35.587 0 33.4125 0 30.7721C0 28.753 1.16425 27.0445 2.87181 26.3456C4.96746 13.8426 9.08113 5.61077 14.98 1.96082C19.637 -0.912549 23.7507 0.17467 24.1387 0.329987C32.3661 2.03848 35.2379 11.9788 35.7812 13.9202C36.0141 14.1532 36.2469 14.4638 36.4797 14.7744C39.674 19.4231 37.6399 25.6344 37.2999 26.6726L37.2996 26.6733C37.2763 26.7445 37.2609 26.7915 37.2559 26.8115C37.1007 27.1998 36.7126 27.4328 36.3245 27.4328H11.4096C10.9439 27.4328 10.6335 27.1998 10.4782 26.8115C10.4782 26.7626 10.432 26.6056 10.3588 26.3576C10.2 25.8188 9.91466 24.8506 9.70207 23.6275C9.15876 24.8701 8.61543 26.1126 8.22735 27.4328ZM23.4013 2.09543C22.7515 1.96446 19.5893 1.32712 15.9114 3.59165C12.2634 5.9214 7.45119 11.5905 4.96746 25.8796C5.58839 25.9573 6.13171 26.035 6.67502 26.2679C7.37357 23.9382 8.38259 21.8414 9.62445 19.9776C9.70207 18.2691 10.2454 16.483 11.332 14.8521C12.0911 13.7129 13.6103 12.243 14.2178 11.8406C14.8252 11.4381 15.976 10.8768 16.85 10.6331C17.7239 10.3894 21.2781 9.80433 23.8283 9.80433C27.6315 9.80433 30.6585 10.5033 32.987 11.7458C31.7452 8.40647 28.951 3.20335 23.673 2.11613H23.5178C23.504 2.11613 23.4646 2.10818 23.4013 2.09543ZM2.42974 31.1923C2.42974 32.8231 3.18228 33.5678 4.73461 33.5678C6.36456 33.5678 7.89665 33.4268 7.89665 31.796C7.89665 30.1651 6.36456 33.5678 4.73461 33.5678C3.10466 33.5678 2.42974 29.5614 2.42974 31.1923Z" fill="#1F2223"/>
<path d="M33.2185 39.0406C33.0239 38.8968 32.8612 38.7298 32.7377 38.5367C30.642 35.1974 28.0807 35.2752 27.4598 35.3529C26.0627 35.3529 24.8984 36.0517 24.0446 37.0613C23.2685 36.0517 22.0266 35.4305 20.6295 35.3529C20.0086 35.2752 17.5248 35.1974 15.3516 38.5367C15.228 38.7298 15.0646 38.8968 14.8686 39.0406H33.2185Z" fill="#1F2223"/>
<path d="M2.42974 29.7836H8.09913V33.8084H2.42974V29.7836Z" fill="#1F2223"/>
<path d="M21.0577 36.6257H27.537V42.663H21.0577V36.6257Z" fill="#1F2223"/>
</svg>
