<svg width="154" height="27" viewBox="0 0 154 27" fill="none" xmlns="http://www.w3.org/2000/svg">
<path d="M12.5909 20.5756C12.1818 20.1063 11.5674 19.8193 10.8817 19.7813C10.5565 19.7408 9.25546 19.7002 8.11709 21.4425C7.46659 22.4554 4.7021 22.0908 3.80766 21.8882C3.60438 21.8477 3.4011 21.9287 3.27913 22.0908C3.15716 22.2528 3.15716 22.4554 3.23847 22.658C3.24328 22.6628 3.25608 22.6818 3.27696 22.7128C3.4326 22.9439 4.03814 23.843 5.14932 24.5218C5.21028 24.5623 5.37136 24.6534 5.53243 24.7445C5.69355 24.8357 5.85478 24.9269 5.91576 24.9675L5.9073 24.9913L5.89409 25.0289L5.91576 24.9675C6.48495 25.17 7.71052 25.4537 8.44234 25.4537C9.21481 25.4537 10.1092 25.3321 11.085 24.9675C11.7402 24.7135 12.2324 24.3297 12.5909 23.9032V20.5756Z" fill="#1F2223"/>
<path d="M12.5909 20.6219C13 20.1526 13.6144 19.8657 14.3001 19.8277C14.6253 19.7872 15.9263 19.7466 17.0647 21.4888C17.7152 22.5018 20.4797 22.1371 21.3741 21.9345C21.5774 21.894 21.7807 21.975 21.9027 22.1371C22.0246 22.2992 22.0246 22.5017 21.9433 22.7043C21.9385 22.7091 21.9257 22.7281 21.9048 22.7591C21.7492 22.9902 21.1437 23.8894 20.0325 24.5681C19.9715 24.6086 19.8104 24.6997 19.6494 24.7909C19.4883 24.8821 19.327 24.9733 19.266 25.0138L19.2745 25.0377L19.2877 25.0752L19.266 25.0138C18.6968 25.2164 17.4713 25.5 16.7395 25.5C15.967 25.5 15.0726 25.3785 14.0968 25.0138C13.4416 24.7599 12.9494 24.376 12.5909 23.9495V20.6219Z" fill="#1F2223"/>
<path fill-rule="evenodd" clip-rule="evenodd" d="M4.30956 15.8128C4.75678 16.2585 5.00072 16.8662 5.00072 17.5145C5.00072 18.8921 3.903 20.0671 2.52069 20.0671C1.13838 20.0671 0 18.9326 0 17.555C0 16.5016 0.609844 15.6102 1.50428 15.2455C2.602 8.72221 4.75678 4.42736 7.84666 2.52303C10.286 1.02389 12.4408 1.59113 12.6441 1.67217C16.9537 2.56355 18.4579 7.74979 18.7425 8.76273C18.8645 8.88427 18.9865 9.04633 19.1084 9.20838C20.7816 11.6338 19.7161 14.8745 19.538 15.4161L19.5379 15.4165C19.5257 15.4537 19.5176 15.4782 19.515 15.4886C19.4337 15.6912 19.2304 15.8128 19.0271 15.8128H5.97647C5.73253 15.8128 5.56991 15.6912 5.4886 15.4886C5.4886 15.4631 5.46436 15.3812 5.42606 15.2518C5.34288 14.9707 5.19339 14.4655 5.08203 13.8274C4.79744 14.4757 4.51284 15.124 4.30956 15.8128ZM12.2578 2.59327C11.9175 2.52494 10.261 2.19241 8.33454 3.3739C6.42369 4.58943 3.903 7.5472 2.602 15.0024C2.92725 15.0429 3.21185 15.0835 3.49644 15.205C3.86235 13.9895 4.39088 12.8955 5.04138 11.9231C5.08204 11.0317 5.36663 10.0998 5.93582 9.24894C6.33341 8.65458 7.12922 7.88767 7.4474 7.67768C7.76558 7.46769 8.3684 7.17484 8.82618 7.04771C9.28397 6.92058 11.1457 6.6153 12.4815 6.6153C14.4736 6.6153 16.0592 6.97996 17.2789 7.62824C16.6284 5.88599 15.1648 3.17131 12.4002 2.60407H12.3189C12.3116 2.60407 12.291 2.59992 12.2578 2.59327ZM1.27272 17.7742C1.27272 18.6251 1.66691 19.0137 2.48003 19.0137C3.33381 19.0137 4.13634 18.9401 4.13634 18.0892C4.13634 17.2383 3.33381 19.0137 2.48003 19.0137C1.62625 19.0137 1.27272 16.9234 1.27272 17.7742Z" fill="#1F2223"/>
<path d="M17.4002 21.869C17.2982 21.794 17.213 21.7069 17.1483 21.6061C16.0506 19.8639 14.7089 19.9045 14.3837 19.945C13.6519 19.945 13.042 20.3096 12.5948 20.8363C12.1882 20.3096 11.5377 19.9855 10.8059 19.945C10.4807 19.9045 9.17968 19.8639 8.0413 21.6061C7.97659 21.7069 7.89096 21.794 7.78834 21.869H17.4002Z" fill="#1F2223"/>
<path d="M1.27272 17.0393H4.2424V19.1392H1.27272V17.0393Z" fill="#1F2223"/>
<path d="M11.0302 20.6091H14.4242V23.7589H11.0302V20.6091Z" fill="#1F2223"/>
<path d="M30.84 7.84C31.12 7.85333 31.4867 7.86667 31.94 7.88C32.3933 7.89333 32.84 7.9 33.28 7.9C33.9067 7.9 34.5067 7.89333 35.08 7.88C35.6533 7.86667 36.06 7.86 36.3 7.86C37.38 7.86 38.2733 8.01333 38.98 8.32C39.7 8.62667 40.2333 9.04667 40.58 9.58C40.94 10.1 41.12 10.6867 41.12 11.34C41.12 11.74 41.04 12.1667 40.88 12.62C40.72 13.0733 40.44 13.5 40.04 13.9C39.6533 14.3 39.12 14.6333 38.44 14.9C37.76 15.1533 36.9 15.28 35.86 15.28H33.94V14.88H35.66C36.6067 14.88 37.3267 14.7333 37.82 14.44C38.3267 14.1333 38.6667 13.7333 38.84 13.24C39.0267 12.7333 39.12 12.1733 39.12 11.56C39.12 10.5067 38.8667 9.69333 38.36 9.12C37.8667 8.53333 37.0133 8.24 35.8 8.24C35.1867 8.24 34.7867 8.35333 34.6 8.58C34.4133 8.80667 34.32 9.26667 34.32 9.96V19.88C34.32 20.36 34.36 20.72 34.44 20.96C34.52 21.2 34.6733 21.36 34.9 21.44C35.14 21.52 35.4867 21.5733 35.94 21.6V22C35.6333 21.9733 35.2467 21.96 34.78 21.96C34.3267 21.9467 33.8667 21.94 33.4 21.94C32.88 21.94 32.3933 21.9467 31.94 21.96C31.4867 21.96 31.12 21.9733 30.84 22V21.6C31.2933 21.5733 31.6333 21.52 31.86 21.44C32.1 21.36 32.26 21.2 32.34 20.96C32.42 20.72 32.46 20.36 32.46 19.88V9.96C32.46 9.46667 32.42 9.10667 32.34 8.88C32.26 8.64 32.1 8.48 31.86 8.4C31.6333 8.30667 31.2933 8.25333 30.84 8.24V7.84ZM34.02 14.94C34.74 14.9667 35.3067 15 35.72 15.04C36.1333 15.0667 36.4667 15.0933 36.72 15.12C36.9867 15.1467 37.24 15.18 37.48 15.22C38.3733 15.3667 39.0133 15.64 39.4 16.04C39.8 16.4267 40.0933 17.0333 40.28 17.86L40.78 19.9C40.9133 20.4867 41.0467 20.9133 41.18 21.18C41.3267 21.4333 41.5467 21.5533 41.84 21.54C42.0667 21.5267 42.2533 21.4533 42.4 21.32C42.56 21.1867 42.7267 21.0067 42.9 20.78L43.2 21C42.92 21.4133 42.6267 21.7333 42.32 21.96C42.0267 22.1733 41.6067 22.28 41.06 22.28C40.5667 22.28 40.1333 22.1333 39.76 21.84C39.3867 21.5467 39.1067 20.9733 38.92 20.12L38.48 18.12C38.36 17.5467 38.22 17.0533 38.06 16.64C37.9133 16.2133 37.7 15.88 37.42 15.64C37.1533 15.4 36.7533 15.28 36.22 15.28H34.06L34.02 14.94ZM48.4088 11.42C49.5821 11.42 50.4954 11.78 51.1488 12.5C51.8154 13.2067 52.1488 14.3133 52.1488 15.82H45.0888L45.0688 15.44H50.2288C50.2554 14.7867 50.2021 14.1867 50.0688 13.64C49.9354 13.08 49.7221 12.6333 49.4288 12.3C49.1488 11.9667 48.7821 11.8 48.3288 11.8C47.7154 11.8 47.1688 12.1067 46.6888 12.72C46.2221 13.3333 45.9421 14.3067 45.8488 15.64L45.9087 15.72C45.8821 15.92 45.8621 16.14 45.8488 16.38C45.8354 16.62 45.8288 16.86 45.8288 17.1C45.8288 18.0067 45.9754 18.7867 46.2688 19.44C46.5621 20.0933 46.9421 20.5933 47.4088 20.94C47.8888 21.2733 48.3821 21.44 48.8888 21.44C49.2888 21.44 49.6688 21.38 50.0288 21.26C50.3888 21.1267 50.7221 20.9133 51.0288 20.62C51.3354 20.3267 51.6021 19.9333 51.8288 19.44L52.2288 19.6C52.0821 20.04 51.8421 20.4667 51.5088 20.88C51.1754 21.2933 50.7554 21.6333 50.2488 21.9C49.7421 22.1533 49.1554 22.28 48.4888 22.28C47.5288 22.28 46.7021 22.06 46.0088 21.62C45.3288 21.18 44.8021 20.5733 44.4288 19.8C44.0688 19.0133 43.8888 18.1133 43.8888 17.1C43.8888 15.9267 44.0754 14.92 44.4488 14.08C44.8221 13.2267 45.3488 12.5733 46.0288 12.12C46.7088 11.6533 47.5021 11.42 48.4088 11.42ZM60.2659 11.42C60.7326 11.42 61.1393 11.4867 61.4859 11.62C61.8326 11.7533 62.1193 11.94 62.3459 12.18C62.5993 12.4467 62.7726 12.7933 62.8659 13.22C62.9593 13.6467 63.0059 14.1733 63.0059 14.8V20.14C63.0059 20.7 63.1193 21.08 63.3459 21.28C63.5859 21.48 63.9793 21.58 64.5259 21.58V22C64.2993 21.9867 63.9526 21.9733 63.4859 21.96C63.0193 21.9333 62.5659 21.92 62.1259 21.92C61.6859 21.92 61.2526 21.9333 60.8259 21.96C60.4126 21.9733 60.0993 21.9867 59.8859 22V21.58C60.3659 21.58 60.7059 21.48 60.9059 21.28C61.1059 21.08 61.2059 20.7 61.2059 20.14V14.36C61.2059 13.9467 61.1793 13.5667 61.1259 13.22C61.0726 12.8733 60.9393 12.5933 60.7259 12.38C60.5126 12.1667 60.1659 12.06 59.6859 12.06C59.1659 12.06 58.6993 12.22 58.2859 12.54C57.8859 12.86 57.5659 13.3 57.3259 13.86C57.0993 14.4067 56.9859 15.02 56.9859 15.7V20.14C56.9859 20.7 57.0859 21.08 57.2859 21.28C57.4859 21.48 57.8259 21.58 58.3059 21.58V22C58.0926 21.9867 57.7726 21.9733 57.3459 21.96C56.9326 21.9333 56.5059 21.92 56.0659 21.92C55.6259 21.92 55.1726 21.9333 54.7059 21.96C54.2393 21.9733 53.8926 21.9867 53.6659 22V21.58C54.2126 21.58 54.5993 21.48 54.8259 21.28C55.0659 21.08 55.1859 20.7 55.1859 20.14V13.88C55.1859 13.28 55.0793 12.84 54.8659 12.56C54.6526 12.2667 54.2526 12.12 53.6659 12.12V11.7C54.0926 11.74 54.5059 11.76 54.9059 11.76C55.2926 11.76 55.6593 11.74 56.0059 11.7C56.3659 11.6467 56.6926 11.5733 56.9859 11.48V13.84C57.3326 12.9733 57.8059 12.3533 58.4059 11.98C59.0059 11.6067 59.6259 11.42 60.2659 11.42ZM66.2859 11.42C66.7526 11.42 67.1593 11.4867 67.5059 11.62C67.8526 11.7533 68.1393 11.94 68.3659 12.18C68.6193 12.4467 68.7926 12.7933 68.8859 13.22C68.9793 13.6467 69.0259 14.1733 69.0259 14.8V20.14C69.0259 20.7 69.1393 21.08 69.3659 21.28C69.6059 21.48 69.9993 21.58 70.5459 21.58V22C70.3193 21.9867 69.9726 21.9733 69.5059 21.96C69.0393 21.9333 68.5859 21.92 68.1459 21.92C67.7059 21.92 67.2726 21.9333 66.8459 21.96C66.4326 21.9733 66.1193 21.9867 65.9059 22V21.58C66.3859 21.58 66.7259 21.48 66.9259 21.28C67.1259 21.08 67.2259 20.7 67.2259 20.14V14.36C67.2259 13.9467 67.1993 13.5667 67.1459 13.22C67.0926 12.8733 66.9593 12.5933 66.7459 12.38C66.5326 12.1667 66.1859 12.06 65.7059 12.06C65.1859 12.06 64.7193 12.22 64.3059 12.54C63.9059 12.86 63.5859 13.2933 63.3459 13.84C63.1193 14.3867 63.0059 15 63.0059 15.68L62.9459 13.82C63.3059 12.9 63.7926 12.2733 64.4059 11.94C65.0193 11.5933 65.6459 11.42 66.2859 11.42ZM76.3198 11.42C77.1732 11.42 77.9398 11.6067 78.6198 11.98C79.2998 12.3533 79.8398 12.94 80.2398 13.74C80.6532 14.54 80.8598 15.58 80.8598 16.86C80.8598 18.14 80.6532 19.18 80.2398 19.98C79.8398 20.7667 79.2998 21.3467 78.6198 21.72C77.9398 22.0933 77.1732 22.28 76.3198 22.28C75.4798 22.28 74.7132 22.0933 74.0198 21.72C73.3398 21.3467 72.7932 20.7667 72.3798 19.98C71.9798 19.18 71.7798 18.14 71.7798 16.86C71.7798 15.58 71.9798 14.54 72.3798 13.74C72.7932 12.94 73.3398 12.3533 74.0198 11.98C74.7132 11.6067 75.4798 11.42 76.3198 11.42ZM76.3198 11.82C75.5598 11.82 74.9332 12.2133 74.4398 13C73.9598 13.7867 73.7198 15.0733 73.7198 16.86C73.7198 18.6467 73.9598 19.9333 74.4398 20.72C74.9332 21.4933 75.5598 21.88 76.3198 21.88C77.0798 21.88 77.6998 21.4933 78.1798 20.72C78.6732 19.9333 78.9198 18.6467 78.9198 16.86C78.9198 15.0733 78.6732 13.7867 78.1798 13C77.6998 12.2133 77.0798 11.82 76.3198 11.82ZM85.5969 8.38V11.72H88.5569V12.12H85.5969V19.86C85.5969 20.4867 85.7102 20.9267 85.9369 21.18C86.1635 21.4333 86.4769 21.56 86.8769 21.56C87.2769 21.56 87.6235 21.4 87.9169 21.08C88.2102 20.7467 88.4635 20.1933 88.6769 19.42L89.0769 19.52C88.9435 20.2933 88.6769 20.9467 88.2769 21.48C87.8902 22.0133 87.2902 22.28 86.4769 22.28C86.0235 22.28 85.6502 22.22 85.3569 22.1C85.0635 21.9933 84.8035 21.8333 84.5769 21.62C84.2835 21.3133 84.0769 20.9467 83.9569 20.52C83.8502 20.0933 83.7969 19.5267 83.7969 18.82V12.12H81.8769V11.72H83.7969V8.66C84.1302 8.64667 84.4502 8.62 84.7569 8.58C85.0635 8.54 85.3435 8.47333 85.5969 8.38ZM94.3072 11.42C95.4805 11.42 96.3939 11.78 97.0472 12.5C97.7139 13.2067 98.0472 14.3133 98.0472 15.82H90.9872L90.9672 15.44H96.1272C96.1539 14.7867 96.1005 14.1867 95.9672 13.64C95.8339 13.08 95.6205 12.6333 95.3272 12.3C95.0472 11.9667 94.6805 11.8 94.2272 11.8C93.6139 11.8 93.0672 12.1067 92.5872 12.72C92.1205 13.3333 91.8405 14.3067 91.7472 15.64L91.8072 15.72C91.7805 15.92 91.7605 16.14 91.7472 16.38C91.7339 16.62 91.7272 16.86 91.7272 17.1C91.7272 18.0067 91.8739 18.7867 92.1672 19.44C92.4605 20.0933 92.8405 20.5933 93.3072 20.94C93.7872 21.2733 94.2805 21.44 94.7872 21.44C95.1872 21.44 95.5672 21.38 95.9272 21.26C96.2872 21.1267 96.6205 20.9133 96.9272 20.62C97.2339 20.3267 97.5005 19.9333 97.7272 19.44L98.1272 19.6C97.9805 20.04 97.7405 20.4667 97.4072 20.88C97.0739 21.2933 96.6539 21.6333 96.1472 21.9C95.6405 22.1533 95.0539 22.28 94.3872 22.28C93.4272 22.28 92.6005 22.06 91.9072 21.62C91.2272 21.18 90.7005 20.5733 90.3272 19.8C89.9672 19.0133 89.7872 18.1133 89.7872 17.1C89.7872 15.9267 89.9739 14.92 90.3472 14.08C90.7205 13.2267 91.2472 12.5733 91.9272 12.12C92.6072 11.6533 93.4005 11.42 94.3072 11.42ZM109.085 7.62C109.752 7.62 110.258 7.7 110.605 7.86C110.952 8.00667 111.258 8.17333 111.525 8.36C111.685 8.45333 111.812 8.52667 111.905 8.58C112.012 8.62 112.112 8.64 112.205 8.64C112.338 8.64 112.432 8.56667 112.485 8.42C112.552 8.27333 112.605 8.05333 112.645 7.76H113.105C113.092 7.98667 113.072 8.26 113.045 8.58C113.032 8.88667 113.018 9.3 113.005 9.82C113.005 10.3267 113.005 11 113.005 11.84H112.545C112.505 11.2 112.365 10.5867 112.125 10C111.885 9.41333 111.532 8.93333 111.065 8.56C110.612 8.18667 110.012 8 109.265 8C108.558 8 107.972 8.21333 107.505 8.64C107.052 9.06667 106.825 9.62667 106.825 10.32C106.825 10.92 106.978 11.4267 107.285 11.84C107.592 12.24 107.998 12.6067 108.505 12.94C109.025 13.26 109.585 13.6067 110.185 13.98C110.878 14.4067 111.492 14.8333 112.025 15.26C112.572 15.6733 112.998 16.1333 113.305 16.64C113.625 17.1467 113.785 17.76 113.785 18.48C113.785 19.3333 113.592 20.04 113.205 20.6C112.818 21.16 112.305 21.58 111.665 21.86C111.025 22.14 110.318 22.28 109.545 22.28C108.838 22.28 108.278 22.2 107.865 22.04C107.452 21.88 107.098 21.7133 106.805 21.54C106.512 21.3533 106.285 21.26 106.125 21.26C105.992 21.26 105.892 21.3333 105.825 21.48C105.772 21.6267 105.725 21.8467 105.685 22.14H105.225C105.252 21.86 105.265 21.5333 105.265 21.16C105.278 20.7733 105.285 20.2733 105.285 19.66C105.298 19.0467 105.305 18.2733 105.305 17.34H105.765C105.818 18.14 105.965 18.8867 106.205 19.58C106.458 20.2733 106.838 20.8333 107.345 21.26C107.865 21.6733 108.552 21.88 109.405 21.88C109.845 21.88 110.258 21.7933 110.645 21.62C111.045 21.4333 111.372 21.1467 111.625 20.76C111.878 20.36 112.005 19.8467 112.005 19.22C112.005 18.6733 111.872 18.2 111.605 17.8C111.352 17.3867 110.992 17.0067 110.525 16.66C110.058 16.3 109.512 15.9333 108.885 15.56C108.258 15.1733 107.672 14.78 107.125 14.38C106.578 13.98 106.138 13.52 105.805 13C105.485 12.4667 105.325 11.8267 105.325 11.08C105.325 10.2933 105.498 9.64667 105.845 9.14C106.205 8.62 106.672 8.24 107.245 8C107.818 7.74667 108.432 7.62 109.085 7.62ZM118.186 22.14C117.639 22.14 117.166 22.04 116.766 21.84C116.366 21.6267 116.059 21.3333 115.846 20.96C115.646 20.5867 115.546 20.1533 115.546 19.66C115.546 19.0733 115.679 18.5933 115.946 18.22C116.226 17.8467 116.579 17.5467 117.006 17.32C117.432 17.0933 117.879 16.9067 118.346 16.76C118.826 16.6 119.279 16.4533 119.706 16.32C120.132 16.1733 120.479 16.0067 120.746 15.82C121.026 15.6333 121.166 15.3867 121.166 15.08V13.84C121.166 13.28 121.079 12.8533 120.906 12.56C120.746 12.2667 120.526 12.0733 120.246 11.98C119.966 11.8733 119.652 11.82 119.306 11.82C118.972 11.82 118.612 11.8667 118.226 11.96C117.852 12.0533 117.552 12.2467 117.326 12.54C117.579 12.5933 117.799 12.7267 117.986 12.94C118.172 13.1533 118.266 13.4267 118.266 13.76C118.266 14.0933 118.159 14.36 117.946 14.56C117.732 14.7467 117.459 14.84 117.126 14.84C116.739 14.84 116.452 14.72 116.266 14.48C116.092 14.2267 116.006 13.9467 116.006 13.64C116.006 13.2933 116.092 13.0133 116.266 12.8C116.439 12.5867 116.659 12.3867 116.926 12.2C117.232 11.9867 117.626 11.8067 118.106 11.66C118.599 11.5 119.152 11.42 119.766 11.42C120.312 11.42 120.779 11.4867 121.166 11.62C121.552 11.74 121.872 11.92 122.126 12.16C122.472 12.48 122.699 12.8733 122.806 13.34C122.912 13.7933 122.966 14.34 122.966 14.98V20.54C122.966 20.8733 123.012 21.1133 123.106 21.26C123.212 21.4067 123.372 21.48 123.586 21.48C123.732 21.48 123.872 21.4467 124.006 21.38C124.139 21.3133 124.299 21.2067 124.486 21.06L124.706 21.4C124.426 21.6133 124.159 21.7933 123.906 21.94C123.652 22.0733 123.312 22.14 122.886 22.14C122.499 22.14 122.179 22.0733 121.926 21.94C121.672 21.8067 121.479 21.6133 121.346 21.36C121.226 21.0933 121.166 20.76 121.166 20.36C120.806 20.96 120.372 21.4067 119.866 21.7C119.372 21.9933 118.812 22.14 118.186 22.14ZM118.906 21.34C119.346 21.34 119.752 21.2133 120.126 20.96C120.512 20.7067 120.859 20.3267 121.166 19.82V15.9C121.006 16.1267 120.772 16.32 120.466 16.48C120.159 16.6267 119.826 16.78 119.466 16.94C119.106 17.0867 118.759 17.2667 118.426 17.48C118.106 17.68 117.839 17.9467 117.626 18.28C117.412 18.6133 117.306 19.0467 117.306 19.58C117.306 20.1133 117.446 20.54 117.726 20.86C118.019 21.18 118.412 21.34 118.906 21.34ZM132.027 11.42C132.533 11.42 132.953 11.4867 133.287 11.62C133.633 11.7533 133.92 11.94 134.147 12.18C134.4 12.4467 134.58 12.78 134.687 13.18C134.793 13.58 134.847 14.12 134.847 14.8V20.14C134.847 20.7 134.96 21.08 135.187 21.28C135.427 21.48 135.82 21.58 136.367 21.58V22C136.14 21.9867 135.793 21.9733 135.327 21.96C134.86 21.9333 134.407 21.92 133.967 21.92C133.527 21.92 133.093 21.9333 132.667 21.96C132.253 21.9733 131.94 21.9867 131.727 22V21.58C132.207 21.58 132.547 21.48 132.747 21.28C132.947 21.08 133.047 20.7 133.047 20.14V14.36C133.047 13.9467 133.013 13.5667 132.947 13.22C132.88 12.8733 132.727 12.5933 132.487 12.38C132.26 12.1667 131.907 12.06 131.427 12.06C130.867 12.06 130.373 12.22 129.947 12.54C129.533 12.86 129.207 13.3 128.967 13.86C128.74 14.4067 128.627 15.02 128.627 15.7V20.14C128.627 20.7 128.727 21.08 128.927 21.28C129.127 21.48 129.467 21.58 129.947 21.58V22C129.733 21.9867 129.413 21.9733 128.987 21.96C128.573 21.9333 128.147 21.92 127.707 21.92C127.267 21.92 126.813 21.9333 126.347 21.96C125.88 21.9733 125.533 21.9867 125.307 22V21.58C125.853 21.58 126.24 21.48 126.467 21.28C126.707 21.08 126.827 20.7 126.827 20.14V13.88C126.827 13.28 126.72 12.84 126.507 12.56C126.293 12.2667 125.893 12.12 125.307 12.12V11.7C125.733 11.74 126.147 11.76 126.547 11.76C126.933 11.76 127.3 11.74 127.647 11.7C128.007 11.6467 128.333 11.5733 128.627 11.48V13.84C128.973 12.9333 129.453 12.3067 130.067 11.96C130.693 11.6 131.347 11.42 132.027 11.42ZM140.46 8.38V11.72H143.42V12.12H140.46V19.86C140.46 20.4867 140.573 20.9267 140.8 21.18C141.027 21.4333 141.34 21.56 141.74 21.56C142.14 21.56 142.487 21.4 142.78 21.08C143.073 20.7467 143.327 20.1933 143.54 19.42L143.94 19.52C143.807 20.2933 143.54 20.9467 143.14 21.48C142.753 22.0133 142.153 22.28 141.34 22.28C140.887 22.28 140.513 22.22 140.22 22.1C139.927 21.9933 139.667 21.8333 139.44 21.62C139.147 21.3133 138.94 20.9467 138.82 20.52C138.713 20.0933 138.66 19.5267 138.66 18.82V12.12H136.74V11.72H138.66V8.66C138.993 8.64667 139.313 8.62 139.62 8.58C139.927 8.54 140.207 8.47333 140.46 8.38ZM147.15 22.14C146.604 22.14 146.13 22.04 145.73 21.84C145.33 21.6267 145.024 21.3333 144.81 20.96C144.61 20.5867 144.51 20.1533 144.51 19.66C144.51 19.0733 144.644 18.5933 144.91 18.22C145.19 17.8467 145.544 17.5467 145.97 17.32C146.397 17.0933 146.844 16.9067 147.31 16.76C147.79 16.6 148.244 16.4533 148.67 16.32C149.097 16.1733 149.444 16.0067 149.71 15.82C149.99 15.6333 150.13 15.3867 150.13 15.08V13.84C150.13 13.28 150.044 12.8533 149.87 12.56C149.71 12.2667 149.49 12.0733 149.21 11.98C148.93 11.8733 148.617 11.82 148.27 11.82C147.937 11.82 147.577 11.8667 147.19 11.96C146.817 12.0533 146.517 12.2467 146.29 12.54C146.544 12.5933 146.764 12.7267 146.95 12.94C147.137 13.1533 147.23 13.4267 147.23 13.76C147.23 14.0933 147.124 14.36 146.91 14.56C146.697 14.7467 146.424 14.84 146.09 14.84C145.704 14.84 145.417 14.72 145.23 14.48C145.057 14.2267 144.97 13.9467 144.97 13.64C144.97 13.2933 145.057 13.0133 145.23 12.8C145.404 12.5867 145.624 12.3867 145.89 12.2C146.197 11.9867 146.59 11.8067 147.07 11.66C147.564 11.5 148.117 11.42 148.73 11.42C149.277 11.42 149.744 11.4867 150.13 11.62C150.517 11.74 150.837 11.92 151.09 12.16C151.437 12.48 151.664 12.8733 151.77 13.34C151.877 13.7933 151.93 14.34 151.93 14.98V20.54C151.93 20.8733 151.977 21.1133 152.07 21.26C152.177 21.4067 152.337 21.48 152.55 21.48C152.697 21.48 152.837 21.4467 152.97 21.38C153.104 21.3133 153.264 21.2067 153.45 21.06L153.67 21.4C153.39 21.6133 153.124 21.7933 152.87 21.94C152.617 22.0733 152.277 22.14 151.85 22.14C151.464 22.14 151.144 22.0733 150.89 21.94C150.637 21.8067 150.444 21.6133 150.31 21.36C150.19 21.0933 150.13 20.76 150.13 20.36C149.77 20.96 149.337 21.4067 148.83 21.7C148.337 21.9933 147.777 22.14 147.15 22.14ZM147.87 21.34C148.31 21.34 148.717 21.2133 149.09 20.96C149.477 20.7067 149.824 20.3267 150.13 19.82V15.9C149.97 16.1267 149.737 16.32 149.43 16.48C149.124 16.6267 148.79 16.78 148.43 16.94C148.07 17.0867 147.724 17.2667 147.39 17.48C147.07 17.68 146.804 17.9467 146.59 18.28C146.377 18.6133 146.27 19.0467 146.27 19.58C146.27 20.1133 146.41 20.54 146.69 20.86C146.984 21.18 147.377 21.34 147.87 21.34Z" fill="#1F2223"/>
</svg>
