<svg width="400" height="76" viewBox="0 0 400 76" fill="none" xmlns="http://www.w3.org/2000/svg">
<path d="M77.326 65.21C76.6447 65.21 76.031 65.1003 75.485 64.881C74.9437 64.657 74.4933 64.342 74.134 63.936C73.7793 63.53 73.5413 63.0493 73.42 62.494L74.008 62.382C74.19 63.0727 74.5773 63.6187 75.17 64.02C75.7627 64.4213 76.4813 64.622 77.326 64.622C77.914 64.622 78.4273 64.5287 78.866 64.342C79.3047 64.1553 79.6453 63.894 79.888 63.558C80.1307 63.2173 80.252 62.8207 80.252 62.368C80.252 62.0273 80.189 61.7427 80.063 61.514C79.937 61.2853 79.776 61.101 79.58 60.961C79.3887 60.8163 79.188 60.702 78.978 60.618C78.768 60.534 78.5813 60.4687 78.418 60.422L75.898 59.666C75.534 59.5587 75.219 59.428 74.953 59.274C74.6917 59.12 74.477 58.945 74.309 58.749C74.141 58.553 74.015 58.3383 73.931 58.105C73.8517 57.8717 73.812 57.622 73.812 57.356C73.812 56.8427 73.9497 56.3877 74.225 55.991C74.505 55.5897 74.8923 55.277 75.387 55.053C75.8817 54.8243 76.4533 54.71 77.102 54.71C77.76 54.71 78.3503 54.8313 78.873 55.074C79.3957 55.3167 79.8227 55.6597 80.154 56.103C80.49 56.5417 80.7 57.0573 80.784 57.65L80.196 57.762C80.1307 57.272 79.958 56.8427 79.678 56.474C79.398 56.1007 79.0363 55.8113 78.593 55.606C78.1497 55.4007 77.6527 55.298 77.102 55.298C76.5747 55.298 76.1103 55.389 75.709 55.571C75.3123 55.753 75.002 55.998 74.778 56.306C74.554 56.614 74.442 56.9593 74.442 57.342C74.442 57.7433 74.5493 58.0653 74.764 58.308C74.9833 58.546 75.2493 58.7327 75.562 58.868C75.8747 58.9987 76.1733 59.106 76.458 59.19L78.544 59.82C78.7213 59.8713 78.9383 59.9483 79.195 60.051C79.4517 60.149 79.7037 60.2913 79.951 60.478C80.203 60.6647 80.4107 60.912 80.574 61.22C80.742 61.5233 80.826 61.906 80.826 62.368C80.826 62.802 80.7443 63.194 80.581 63.544C80.4177 63.894 80.182 64.1927 79.874 64.44C79.566 64.6873 79.1973 64.8763 78.768 65.007C78.3387 65.1423 77.858 65.21 77.326 65.21ZM83.7641 65L87.4321 54.92H88.0621L91.7301 65H91.1001L87.5301 55.186H87.9501L84.3941 65H83.7641ZM85.1641 62.382V61.822H90.3161V62.382H85.1641ZM95.2354 65V54.92H95.8234L101.955 63.95V54.92H102.543V65H101.955L95.8234 55.956V65H95.2354ZM109.601 65V55.508H105.905V54.92H113.885V55.508H110.189V65H109.601ZM116.269 65L119.937 54.92H120.567L124.235 65H123.605L120.035 55.186H120.455L116.899 65H116.269ZM117.669 62.382V61.822H122.821V62.382H117.669ZM134.967 65L132.083 54.92H132.685L135.275 63.936L137.851 54.92H138.467L141.057 63.936L143.633 54.92H144.249L141.365 65H140.749L138.159 55.998L135.583 65H134.967ZM147.752 65V54.92H148.34V59.666H154.444V54.92H155.032V65H154.444V60.254H148.34V65H147.752ZM163.196 65.21C162.193 65.21 161.355 64.986 160.683 64.538C160.016 64.09 159.514 63.4717 159.178 62.683C158.842 61.8943 158.674 60.9867 158.674 59.96C158.674 58.9333 158.842 58.0257 159.178 57.237C159.514 56.4483 160.016 55.83 160.683 55.382C161.355 54.934 162.193 54.71 163.196 54.71C164.199 54.71 165.035 54.934 165.702 55.382C166.374 55.83 166.878 56.4483 167.214 57.237C167.55 58.0257 167.718 58.9333 167.718 59.96C167.718 60.9867 167.55 61.8943 167.214 62.683C166.878 63.4717 166.374 64.09 165.702 64.538C165.035 64.986 164.199 65.21 163.196 65.21ZM163.196 64.622C164.059 64.622 164.778 64.4237 165.352 64.027C165.931 63.6257 166.365 63.075 166.654 62.375C166.943 61.675 167.088 60.87 167.088 59.96C167.088 59.05 166.943 58.245 166.654 57.545C166.365 56.8403 165.931 56.2897 165.352 55.893C164.778 55.4963 164.059 55.298 163.196 55.298C162.333 55.298 161.614 55.4963 161.04 55.893C160.471 56.2897 160.041 56.8403 159.752 57.545C159.463 58.245 159.313 59.05 159.304 59.96C159.295 60.87 159.435 61.675 159.724 62.375C160.013 63.075 160.447 63.6257 161.026 64.027C161.609 64.4237 162.333 64.622 163.196 64.622ZM176.401 65V54.92H179.355C179.477 54.92 179.67 54.9223 179.936 54.927C180.202 54.9317 180.457 54.9527 180.699 54.99C181.441 55.0973 182.055 55.382 182.54 55.844C183.03 56.306 183.394 56.894 183.632 57.608C183.87 58.3173 183.989 59.1013 183.989 59.96C183.989 60.8233 183.87 61.612 183.632 62.326C183.394 63.0353 183.03 63.621 182.54 64.083C182.055 64.5403 181.441 64.8227 180.699 64.93C180.461 64.9627 180.205 64.9837 179.929 64.993C179.659 64.9977 179.467 65 179.355 65H176.401ZM177.031 64.412H179.355C179.579 64.412 179.803 64.405 180.027 64.391C180.256 64.377 180.447 64.356 180.601 64.328C181.264 64.216 181.796 63.9617 182.197 63.565C182.603 63.1637 182.897 62.655 183.079 62.039C183.266 61.4183 183.359 60.7253 183.359 59.96C183.359 59.1947 183.266 58.504 183.079 57.888C182.897 57.2673 182.603 56.7587 182.197 56.362C181.796 55.9607 181.264 55.704 180.601 55.592C180.447 55.564 180.254 55.543 180.02 55.529C179.787 55.515 179.565 55.508 179.355 55.508H177.031V64.412ZM187.774 65V54.92H193.934V55.508H188.362V59.666H193.094V60.254H188.362V64.412H193.934V65H187.774ZM197.988 65V54.92H198.576V64.412H203.588V65H197.988ZM207.16 65V54.92H207.748V65H207.16ZM214.848 65L211.18 54.92H211.81L215.156 64.146L218.516 54.92H219.146L215.478 65H214.848ZM222.437 65V54.92H228.597V55.508H223.025V59.666H227.757V60.254H223.025V64.412H228.597V65H222.437ZM232.511 65V54.92H236.221C236.319 54.92 236.42 54.9247 236.522 54.934C236.625 54.9387 236.739 54.9527 236.865 54.976C237.351 55.0507 237.771 55.228 238.125 55.508C238.485 55.7833 238.76 56.1333 238.951 56.558C239.147 56.978 239.245 57.44 239.245 57.944C239.245 58.6627 239.049 59.2927 238.657 59.834C238.265 60.3753 237.733 60.7207 237.061 60.87L236.949 60.968H233.099V65H232.511ZM238.825 65L236.837 60.898L237.341 60.52L239.525 65H238.825ZM233.099 60.38H236.221C236.301 60.38 236.394 60.3753 236.501 60.366C236.613 60.3567 236.725 60.3427 236.837 60.324C237.225 60.2493 237.549 60.0953 237.81 59.862C238.076 59.6287 238.277 59.3463 238.412 59.015C238.548 58.679 238.615 58.322 238.615 57.944C238.615 57.566 238.548 57.2113 238.412 56.88C238.277 56.544 238.076 56.2593 237.81 56.026C237.549 55.7927 237.225 55.6387 236.837 55.564C236.725 55.5407 236.613 55.5267 236.501 55.522C236.394 55.5127 236.301 55.508 236.221 55.508H233.099V60.38ZM246.656 65.21C245.975 65.21 245.361 65.1003 244.815 64.881C244.274 64.657 243.823 64.342 243.464 63.936C243.109 63.53 242.871 63.0493 242.75 62.494L243.338 62.382C243.52 63.0727 243.907 63.6187 244.5 64.02C245.093 64.4213 245.811 64.622 246.656 64.622C247.244 64.622 247.757 64.5287 248.196 64.342C248.635 64.1553 248.975 63.894 249.218 63.558C249.461 63.2173 249.582 62.8207 249.582 62.368C249.582 62.0273 249.519 61.7427 249.393 61.514C249.267 61.2853 249.106 61.101 248.91 60.961C248.719 60.8163 248.518 60.702 248.308 60.618C248.098 60.534 247.911 60.4687 247.748 60.422L245.228 59.666C244.864 59.5587 244.549 59.428 244.283 59.274C244.022 59.12 243.807 58.945 243.639 58.749C243.471 58.553 243.345 58.3383 243.261 58.105C243.182 57.8717 243.142 57.622 243.142 57.356C243.142 56.8427 243.28 56.3877 243.555 55.991C243.835 55.5897 244.222 55.277 244.717 55.053C245.212 54.8243 245.783 54.71 246.432 54.71C247.09 54.71 247.68 54.8313 248.203 55.074C248.726 55.3167 249.153 55.6597 249.484 56.103C249.82 56.5417 250.03 57.0573 250.114 57.65L249.526 57.762C249.461 57.272 249.288 56.8427 249.008 56.474C248.728 56.1007 248.366 55.8113 247.923 55.606C247.48 55.4007 246.983 55.298 246.432 55.298C245.905 55.298 245.44 55.389 245.039 55.571C244.642 55.753 244.332 55.998 244.108 56.306C243.884 56.614 243.772 56.9593 243.772 57.342C243.772 57.7433 243.879 58.0653 244.094 58.308C244.313 58.546 244.579 58.7327 244.892 58.868C245.205 58.9987 245.503 59.106 245.788 59.19L247.874 59.82C248.051 59.8713 248.268 59.9483 248.525 60.051C248.782 60.149 249.034 60.2913 249.281 60.478C249.533 60.6647 249.741 60.912 249.904 61.22C250.072 61.5233 250.156 61.906 250.156 62.368C250.156 62.802 250.074 63.194 249.911 63.544C249.748 63.894 249.512 64.1927 249.204 64.44C248.896 64.6873 248.527 64.8763 248.098 65.007C247.669 65.1423 247.188 65.21 246.656 65.21ZM261.021 65L258.137 54.92H258.739L261.329 63.936L263.905 54.92H264.521L267.111 63.936L269.687 54.92H270.303L267.419 65H266.803L264.213 55.998L261.637 65H261.021ZM273.805 65V54.92H274.393V59.666H280.497V54.92H281.085V65H280.497V60.254H274.393V65H273.805ZM289.25 65.21C288.246 65.21 287.409 64.986 286.737 64.538C286.069 64.09 285.568 63.4717 285.232 62.683C284.896 61.8943 284.728 60.9867 284.728 59.96C284.728 58.9333 284.896 58.0257 285.232 57.237C285.568 56.4483 286.069 55.83 286.737 55.382C287.409 54.934 288.246 54.71 289.25 54.71C290.253 54.71 291.088 54.934 291.756 55.382C292.428 55.83 292.932 56.4483 293.268 57.237C293.604 58.0257 293.772 58.9333 293.772 59.96C293.772 60.9867 293.604 61.8943 293.268 62.683C292.932 63.4717 292.428 64.09 291.756 64.538C291.088 64.986 290.253 65.21 289.25 65.21ZM289.25 64.622C290.113 64.622 290.832 64.4237 291.406 64.027C291.984 63.6257 292.418 63.075 292.708 62.375C292.997 61.675 293.142 60.87 293.142 59.96C293.142 59.05 292.997 58.245 292.708 57.545C292.418 56.8403 291.984 56.2897 291.406 55.893C290.832 55.4963 290.113 55.298 289.25 55.298C288.386 55.298 287.668 55.4963 287.094 55.893C286.524 56.2897 286.095 56.8403 285.806 57.545C285.516 58.245 285.367 59.05 285.358 59.96C285.348 60.87 285.488 61.675 285.778 62.375C286.067 63.075 286.501 63.6257 287.08 64.027C287.663 64.4237 288.386 64.622 289.25 64.622ZM297.552 65V54.92H298.14V64.412H303.152V65H297.552ZM306.584 65V54.92H312.744V55.508H307.172V59.666H311.904V60.254H307.172V64.412H312.744V65H306.584ZM324.067 65V60.716L320.721 54.92H321.393L324.361 60.044L327.315 54.92H327.987L324.655 60.716V65H324.067ZM331.2 65V54.92H337.36V55.508H331.788V59.666H336.52V60.254H331.788V64.412H337.36V65H331.2ZM340.574 65L344.242 54.92H344.872L348.54 65H347.91L344.34 55.186H344.76L341.204 65H340.574ZM341.974 62.382V61.822H347.126V62.382H341.974ZM352.046 65V54.92H355.756C355.854 54.92 355.954 54.9247 356.057 54.934C356.159 54.9387 356.274 54.9527 356.4 54.976C356.885 55.0507 357.305 55.228 357.66 55.508C358.019 55.7833 358.294 56.1333 358.486 56.558C358.682 56.978 358.78 57.44 358.78 57.944C358.78 58.6627 358.584 59.2927 358.192 59.834C357.8 60.3753 357.268 60.7207 356.596 60.87L356.484 60.968H352.634V65H352.046ZM358.36 65L356.372 60.898L356.876 60.52L359.06 65H358.36ZM352.634 60.38H355.756C355.835 60.38 355.928 60.3753 356.036 60.366C356.148 60.3567 356.26 60.3427 356.372 60.324C356.759 60.2493 357.083 60.0953 357.345 59.862C357.611 59.6287 357.811 59.3463 357.947 59.015C358.082 58.679 358.15 58.322 358.15 57.944C358.15 57.566 358.082 57.2113 357.947 56.88C357.811 56.544 357.611 56.2593 357.345 56.026C357.083 55.7927 356.759 55.6387 356.372 55.564C356.26 55.5407 356.148 55.5267 356.036 55.522C355.928 55.5127 355.835 55.508 355.756 55.508H352.634V60.38Z" fill="#1F2223"/>
<path d="M20.2397 32.6551C20.2397 31.5761 19.8378 30.5645 19.1009 29.8227C19.4358 28.6763 19.9048 27.5972 20.3737 26.5182C20.6416 28.0693 21.0436 29.1483 21.0436 29.2832C21.1776 29.6204 21.4455 29.8227 21.8475 29.8227H43.3513C43.6863 29.8227 44.0212 29.6204 44.1552 29.2832C44.2222 29.0134 46.4329 23.1463 43.4853 18.8302C43.2843 18.5604 43.0834 18.2907 42.8824 18.0884C42.4135 16.4024 39.9348 7.77025 32.8339 6.2866C32.4989 6.15172 28.9484 5.20758 24.929 7.70281C19.8378 10.8724 16.2873 18.0209 14.4785 28.8786C13.0048 29.4855 11.9999 30.9692 11.9999 32.7226C11.9999 35.0155 13.8756 36.9038 16.1533 36.9038C18.431 36.9038 20.2397 34.9481 20.2397 32.6551ZM42.7484 28.2042H32.5994H22.4504C22.0484 26.788 21.1106 22.8091 23.1203 19.8418C24.728 17.4814 27.9436 16.2675 32.5659 16.2675C37.1882 16.2675 40.4037 17.4814 42.0115 19.8418C44.0212 22.7416 43.1503 26.7205 42.7484 28.2042ZM25.7329 9.11902C29.2164 6.96098 32.164 7.83769 32.2979 7.83769H32.4319C36.9872 8.78183 39.3989 13.3002 40.4707 16.2001C38.461 15.1211 35.8484 14.5141 32.5659 14.5141C30.3552 14.5141 28.4125 14.7839 26.7377 15.3234C27.5416 14.2444 28.6805 13.2328 30.0873 12.3561C30.4892 12.0863 30.6232 11.6143 30.3552 11.2096C30.0873 10.805 29.6183 10.6701 29.2164 10.9399C26.7378 12.491 24.929 14.5816 24.3261 16.4698C23.2543 17.0768 22.4504 17.8861 21.7805 18.8976C20.8426 20.3139 20.3737 21.8649 20.3067 23.3486C19.2349 24.9671 18.364 26.788 17.7611 28.8111C17.2921 28.6088 16.8232 28.5414 16.2873 28.4739C18.431 16.0652 22.5844 11.1422 25.7329 9.11902ZM16.0863 35.1504C14.7465 35.1504 13.6077 34.0714 13.6077 32.6551C13.6077 31.2389 14.6795 30.1599 16.0863 30.1599C17.4931 30.1599 18.5649 31.2389 18.5649 32.6551C18.5649 34.0714 17.4931 35.1504 16.0863 35.1504ZM47.8395 40.7477C47.6386 40.4779 47.3036 40.3431 46.9687 40.4105C45.4279 40.7477 40.9396 41.3546 39.8677 39.6687C38.059 36.7688 35.8483 36.8364 35.3124 36.9038C34.1066 36.9038 33.1017 37.5107 32.3648 38.3874C31.6949 37.5107 30.6231 36.9712 29.4172 36.9038C28.8813 36.8364 26.7376 36.7688 24.8619 39.6687C23.7901 41.3546 19.235 40.7477 17.7612 40.4105C17.4262 40.3431 17.0913 40.4779 16.8903 40.7477C16.6893 41.0174 16.6893 41.3546 16.8233 41.6918C16.8903 41.7592 17.8952 43.5126 19.9719 44.7939C20.1728 44.9288 20.3738 44.9962 20.5747 45.1311C18.0961 52.1447 18.1631 57.9445 20.7757 62.4629C24.4602 68.937 31.8959 70.2183 32.2308 70.2858H32.4988C32.8337 70.2183 40.2697 68.937 43.9541 62.4629C46.5667 57.9445 46.5667 52.0773 44.1551 45.0637C46.6337 43.7149 47.8395 41.6243 47.9065 41.6243C48.0405 41.3546 48.0405 41.0174 47.8395 40.7477ZM19.7039 42.4336C21.9146 42.6359 25.1299 42.5685 26.3357 40.6128C27.7425 38.3873 29.1493 38.5897 29.2163 38.5897H29.4172C30.6231 38.5897 31.5609 39.5338 31.5609 40.7477C31.5609 42.5011 30.2211 43.4452 29.1493 43.9172C26.0677 44.9962 23.7232 44.6591 22.0485 43.9172C21.0436 43.5126 20.3068 42.9731 19.7039 42.4336ZM42.5473 61.6536C39.5328 66.9813 33.4367 68.4649 32.4318 68.6672C31.427 68.4649 25.331 66.9813 22.3165 61.6536C19.9718 57.6073 19.9718 52.2796 22.2495 45.8055C23.1873 46.1427 24.192 46.345 25.3978 46.345C26.6706 46.345 28.1444 46.1427 29.7522 45.5358C30.958 45.0637 31.8289 44.3219 32.4318 43.5126C33.0347 44.3893 33.9056 45.0637 35.1114 45.5358C36.7192 46.1427 38.126 46.345 39.3988 46.345C40.6046 46.345 41.6764 46.1427 42.6143 45.8055C44.892 52.2122 44.825 57.5398 42.5473 61.6536ZM42.8823 43.9172C42.7483 43.9172 42.7483 43.9847 42.6813 43.9847C41.0065 44.7265 38.6619 44.9962 35.7143 43.9172C34.5755 43.4452 33.2357 42.5685 33.2357 40.7477C33.2357 39.5338 34.1735 38.5897 35.3794 38.5897H35.6473C36.0493 38.5897 37.2551 38.792 38.3939 40.6128C39.6667 42.5685 42.8153 42.7033 45.026 42.4336C44.557 42.9057 43.8201 43.5126 42.8823 43.9172Z" fill="#1F2223"/>
<path d="M74.176 10.176C74.568 10.1947 75.0813 10.2133 75.716 10.232C76.3507 10.2507 76.976 10.26 77.592 10.26C78.4693 10.26 79.3093 10.2507 80.112 10.232C80.9147 10.2133 81.484 10.204 81.82 10.204C83.332 10.204 84.5827 10.4187 85.572 10.848C86.58 11.2773 87.3267 11.8653 87.812 12.612C88.316 13.34 88.568 14.1613 88.568 15.076C88.568 15.636 88.456 16.2333 88.232 16.868C88.008 17.5027 87.616 18.1 87.056 18.66C86.5147 19.22 85.768 19.6867 84.816 20.06C83.864 20.4147 82.66 20.592 81.204 20.592H78.516V20.032H80.924C82.2493 20.032 83.2573 19.8267 83.948 19.416C84.6573 18.9867 85.1333 18.4267 85.376 17.736C85.6373 17.0267 85.768 16.2427 85.768 15.384C85.768 13.9093 85.4133 12.7707 84.704 11.968C84.0133 11.1467 82.8187 10.736 81.12 10.736C80.2613 10.736 79.7013 10.8947 79.44 11.212C79.1787 11.5293 79.048 12.1733 79.048 13.144V27.032C79.048 27.704 79.104 28.208 79.216 28.544C79.328 28.88 79.5427 29.104 79.86 29.216C80.196 29.328 80.6813 29.4027 81.316 29.44V30C80.8867 29.9627 80.3453 29.944 79.692 29.944C79.0573 29.9253 78.4133 29.916 77.76 29.916C77.032 29.916 76.3507 29.9253 75.716 29.944C75.0813 29.944 74.568 29.9627 74.176 30V29.44C74.8107 29.4027 75.2867 29.328 75.604 29.216C75.94 29.104 76.164 28.88 76.276 28.544C76.388 28.208 76.444 27.704 76.444 27.032V13.144C76.444 12.4533 76.388 11.9493 76.276 11.632C76.164 11.296 75.94 11.072 75.604 10.96C75.2867 10.8293 74.8107 10.7547 74.176 10.736V10.176ZM78.628 20.116C79.636 20.1533 80.4293 20.2 81.008 20.256C81.5867 20.2933 82.0533 20.3307 82.408 20.368C82.7813 20.4053 83.136 20.452 83.472 20.508C84.7227 20.7133 85.6187 21.096 86.16 21.656C86.72 22.1973 87.1307 23.0467 87.392 24.204L88.092 27.06C88.2787 27.8813 88.4653 28.4787 88.652 28.852C88.8573 29.2067 89.1653 29.3747 89.576 29.356C89.8933 29.3373 90.1547 29.2347 90.36 29.048C90.584 28.8613 90.8173 28.6093 91.06 28.292L91.48 28.6C91.088 29.1787 90.6773 29.6267 90.248 29.944C89.8373 30.2427 89.2493 30.392 88.484 30.392C87.7933 30.392 87.1867 30.1867 86.664 29.776C86.1413 29.3653 85.7493 28.5627 85.488 27.368L84.872 24.568C84.704 23.7653 84.508 23.0747 84.284 22.496C84.0787 21.8987 83.78 21.432 83.388 21.096C83.0147 20.76 82.4547 20.592 81.708 20.592H78.684L78.628 20.116ZM98.7723 15.188C100.415 15.188 101.694 15.692 102.608 16.7C103.542 17.6893 104.008 19.2387 104.008 21.348H94.1243L94.0963 20.816H101.32C101.358 19.9013 101.283 19.0613 101.096 18.296C100.91 17.512 100.611 16.8867 100.2 16.42C99.8083 15.9533 99.2949 15.72 98.6603 15.72C97.8016 15.72 97.0363 16.1493 96.3643 17.008C95.7109 17.8667 95.3189 19.2293 95.1883 21.096L95.2722 21.208C95.2349 21.488 95.2069 21.796 95.1883 22.132C95.1696 22.468 95.1603 22.804 95.1603 23.14C95.1603 24.4093 95.3656 25.5013 95.7763 26.416C96.1869 27.3307 96.7189 28.0307 97.3723 28.516C98.0443 28.9827 98.7349 29.216 99.4443 29.216C100.004 29.216 100.536 29.132 101.04 28.964C101.544 28.7773 102.011 28.4787 102.44 28.068C102.87 27.6573 103.243 27.1067 103.56 26.416L104.12 26.64C103.915 27.256 103.579 27.8533 103.112 28.432C102.646 29.0107 102.058 29.4867 101.348 29.86C100.639 30.2147 99.8176 30.392 98.8843 30.392C97.5403 30.392 96.3829 30.084 95.4123 29.468C94.4603 28.852 93.7229 28.0027 93.2003 26.92C92.6963 25.8187 92.4443 24.5587 92.4443 23.14C92.4443 21.4973 92.7056 20.088 93.2283 18.912C93.7509 17.7173 94.4883 16.8027 95.4403 16.168C96.3923 15.5147 97.5029 15.188 98.7723 15.188ZM115.372 15.188C116.026 15.188 116.595 15.2813 117.08 15.468C117.566 15.6547 117.967 15.916 118.284 16.252C118.639 16.6253 118.882 17.1107 119.012 17.708C119.143 18.3053 119.208 19.0427 119.208 19.92V27.396C119.208 28.18 119.367 28.712 119.684 28.992C120.02 29.272 120.571 29.412 121.336 29.412V30C121.019 29.9813 120.534 29.9627 119.88 29.944C119.227 29.9067 118.592 29.888 117.976 29.888C117.36 29.888 116.754 29.9067 116.156 29.944C115.578 29.9627 115.139 29.9813 114.84 30V29.412C115.512 29.412 115.988 29.272 116.268 28.992C116.548 28.712 116.688 28.18 116.688 27.396V19.304C116.688 18.7253 116.651 18.1933 116.576 17.708C116.502 17.2227 116.315 16.8307 116.016 16.532C115.718 16.2333 115.232 16.084 114.56 16.084C113.832 16.084 113.179 16.308 112.6 16.756C112.04 17.204 111.592 17.82 111.256 18.604C110.939 19.3693 110.78 20.228 110.78 21.18V27.396C110.78 28.18 110.92 28.712 111.2 28.992C111.48 29.272 111.956 29.412 112.628 29.412V30C112.33 29.9813 111.882 29.9627 111.284 29.944C110.706 29.9067 110.108 29.888 109.492 29.888C108.876 29.888 108.242 29.9067 107.588 29.944C106.935 29.9627 106.45 29.9813 106.132 30V29.412C106.898 29.412 107.439 29.272 107.756 28.992C108.092 28.712 108.26 28.18 108.26 27.396V18.632C108.26 17.792 108.111 17.176 107.812 16.784C107.514 16.3733 106.954 16.168 106.132 16.168V15.58C106.73 15.636 107.308 15.664 107.868 15.664C108.41 15.664 108.923 15.636 109.408 15.58C109.912 15.5053 110.37 15.4027 110.78 15.272V18.576C111.266 17.3627 111.928 16.4947 112.768 15.972C113.608 15.4493 114.476 15.188 115.372 15.188ZM123.8 15.188C124.454 15.188 125.023 15.2813 125.508 15.468C125.994 15.6547 126.395 15.916 126.712 16.252C127.067 16.6253 127.31 17.1107 127.44 17.708C127.571 18.3053 127.636 19.0427 127.636 19.92V27.396C127.636 28.18 127.795 28.712 128.112 28.992C128.448 29.272 128.999 29.412 129.764 29.412V30C129.447 29.9813 128.962 29.9627 128.308 29.944C127.655 29.9067 127.02 29.888 126.404 29.888C125.788 29.888 125.182 29.9067 124.584 29.944C124.006 29.9627 123.567 29.9813 123.268 30V29.412C123.94 29.412 124.416 29.272 124.696 28.992C124.976 28.712 125.116 28.18 125.116 27.396V19.304C125.116 18.7253 125.079 18.1933 125.004 17.708C124.93 17.2227 124.743 16.8307 124.444 16.532C124.146 16.2333 123.66 16.084 122.988 16.084C122.26 16.084 121.607 16.308 121.028 16.756C120.468 17.204 120.02 17.8107 119.684 18.576C119.367 19.3413 119.208 20.2 119.208 21.152L119.124 18.548C119.628 17.26 120.31 16.3827 121.168 15.916C122.027 15.4307 122.904 15.188 123.8 15.188ZM137.848 15.188C139.042 15.188 140.116 15.4493 141.068 15.972C142.02 16.4947 142.776 17.316 143.336 18.436C143.914 19.556 144.204 21.012 144.204 22.804C144.204 24.596 143.914 26.052 143.336 27.172C142.776 28.2733 142.02 29.0853 141.068 29.608C140.116 30.1307 139.042 30.392 137.848 30.392C136.672 30.392 135.598 30.1307 134.628 29.608C133.676 29.0853 132.91 28.2733 132.332 27.172C131.772 26.052 131.492 24.596 131.492 22.804C131.492 21.012 131.772 19.556 132.332 18.436C132.91 17.316 133.676 16.4947 134.628 15.972C135.598 15.4493 136.672 15.188 137.848 15.188ZM137.848 15.748C136.784 15.748 135.906 16.2987 135.216 17.4C134.544 18.5013 134.208 20.3027 134.208 22.804C134.208 25.3053 134.544 27.1067 135.216 28.208C135.906 29.2907 136.784 29.832 137.848 29.832C138.912 29.832 139.78 29.2907 140.452 28.208C141.142 27.1067 141.488 25.3053 141.488 22.804C141.488 20.3027 141.142 18.5013 140.452 17.4C139.78 16.2987 138.912 15.748 137.848 15.748ZM150.836 10.932V15.608H154.98V16.168H150.836V27.004C150.836 27.8813 150.994 28.4973 151.312 28.852C151.629 29.2067 152.068 29.384 152.628 29.384C153.188 29.384 153.673 29.16 154.084 28.712C154.494 28.2453 154.849 27.4707 155.148 26.388L155.708 26.528C155.521 27.6107 155.148 28.5253 154.588 29.272C154.046 30.0187 153.206 30.392 152.068 30.392C151.433 30.392 150.91 30.308 150.5 30.14C150.089 29.9907 149.725 29.7667 149.408 29.468C148.997 29.0387 148.708 28.5253 148.54 27.928C148.39 27.3307 148.316 26.5373 148.316 25.548V16.168H145.628V15.608H148.316V11.324C148.782 11.3053 149.23 11.268 149.66 11.212C150.089 11.156 150.481 11.0627 150.836 10.932ZM163.03 15.188C164.673 15.188 165.951 15.692 166.866 16.7C167.799 17.6893 168.266 19.2387 168.266 21.348H158.382L158.354 20.816H165.578C165.615 19.9013 165.541 19.0613 165.354 18.296C165.167 17.512 164.869 16.8867 164.458 16.42C164.066 15.9533 163.553 15.72 162.918 15.72C162.059 15.72 161.294 16.1493 160.622 17.008C159.969 17.8667 159.577 19.2293 159.446 21.096L159.53 21.208C159.493 21.488 159.465 21.796 159.446 22.132C159.427 22.468 159.418 22.804 159.418 23.14C159.418 24.4093 159.623 25.5013 160.034 26.416C160.445 27.3307 160.977 28.0307 161.63 28.516C162.302 28.9827 162.993 29.216 163.702 29.216C164.262 29.216 164.794 29.132 165.298 28.964C165.802 28.7773 166.269 28.4787 166.698 28.068C167.127 27.6573 167.501 27.1067 167.818 26.416L168.378 26.64C168.173 27.256 167.837 27.8533 167.37 28.432C166.903 29.0107 166.315 29.4867 165.606 29.86C164.897 30.2147 164.075 30.392 163.142 30.392C161.798 30.392 160.641 30.084 159.67 29.468C158.718 28.852 157.981 28.0027 157.458 26.92C156.954 25.8187 156.702 24.5587 156.702 23.14C156.702 21.4973 156.963 20.088 157.486 18.912C158.009 17.7173 158.746 16.8027 159.698 16.168C160.65 15.5147 161.761 15.188 163.03 15.188ZM183.719 9.868C184.652 9.868 185.361 9.98 185.847 10.204C186.332 10.4093 186.761 10.6427 187.135 10.904C187.359 11.0347 187.536 11.1373 187.667 11.212C187.816 11.268 187.956 11.296 188.087 11.296C188.273 11.296 188.404 11.1933 188.479 10.988C188.572 10.7827 188.647 10.4747 188.703 10.064H189.347C189.328 10.3813 189.3 10.764 189.263 11.212C189.244 11.6413 189.225 12.22 189.207 12.948C189.207 13.6573 189.207 14.6 189.207 15.776H188.563C188.507 14.88 188.311 14.0213 187.975 13.2C187.639 12.3787 187.144 11.7067 186.491 11.184C185.856 10.6613 185.016 10.4 183.971 10.4C182.981 10.4 182.16 10.6987 181.507 11.296C180.872 11.8933 180.555 12.6773 180.555 13.648C180.555 14.488 180.769 15.1973 181.199 15.776C181.628 16.336 182.197 16.8493 182.907 17.316C183.635 17.764 184.419 18.2493 185.259 18.772C186.229 19.3693 187.088 19.9667 187.835 20.564C188.6 21.1427 189.197 21.7867 189.627 22.496C190.075 23.2053 190.299 24.064 190.299 25.072C190.299 26.2667 190.028 27.256 189.487 28.04C188.945 28.824 188.227 29.412 187.331 29.804C186.435 30.196 185.445 30.392 184.363 30.392C183.373 30.392 182.589 30.28 182.011 30.056C181.432 29.832 180.937 29.5987 180.527 29.356C180.116 29.0947 179.799 28.964 179.575 28.964C179.388 28.964 179.248 29.0667 179.155 29.272C179.08 29.4773 179.015 29.7853 178.959 30.196H178.315C178.352 29.804 178.371 29.3467 178.371 28.824C178.389 28.2827 178.399 27.5827 178.399 26.724C178.417 25.8653 178.427 24.7827 178.427 23.476H179.071C179.145 24.596 179.351 25.6413 179.687 26.612C180.041 27.5827 180.573 28.3667 181.283 28.964C182.011 29.5427 182.972 29.832 184.167 29.832C184.783 29.832 185.361 29.7107 185.903 29.468C186.463 29.2067 186.92 28.8053 187.275 28.264C187.629 27.704 187.807 26.9853 187.807 26.108C187.807 25.3427 187.62 24.68 187.247 24.12C186.892 23.5413 186.388 23.0093 185.735 22.524C185.081 22.02 184.316 21.5067 183.439 20.984C182.561 20.4427 181.74 19.892 180.975 19.332C180.209 18.772 179.593 18.128 179.127 17.4C178.679 16.6533 178.455 15.7573 178.455 14.712C178.455 13.6107 178.697 12.7053 179.183 11.996C179.687 11.268 180.34 10.736 181.143 10.4C181.945 10.0453 182.804 9.868 183.719 9.868ZM196.46 30.196C195.695 30.196 195.032 30.056 194.472 29.776C193.912 29.4773 193.483 29.0667 193.184 28.544C192.904 28.0213 192.764 27.4147 192.764 26.724C192.764 25.9027 192.951 25.2307 193.324 24.708C193.716 24.1853 194.211 23.7653 194.808 23.448C195.405 23.1307 196.031 22.8693 196.684 22.664C197.356 22.44 197.991 22.2347 198.588 22.048C199.185 21.8427 199.671 21.6093 200.044 21.348C200.436 21.0867 200.632 20.7413 200.632 20.312V18.576C200.632 17.792 200.511 17.1947 200.268 16.784C200.044 16.3733 199.736 16.1027 199.344 15.972C198.952 15.8227 198.513 15.748 198.028 15.748C197.561 15.748 197.057 15.8133 196.516 15.944C195.993 16.0747 195.573 16.3453 195.256 16.756C195.611 16.8307 195.919 17.0173 196.18 17.316C196.441 17.6147 196.572 17.9973 196.572 18.464C196.572 18.9307 196.423 19.304 196.124 19.584C195.825 19.8453 195.443 19.976 194.976 19.976C194.435 19.976 194.033 19.808 193.772 19.472C193.529 19.1173 193.408 18.7253 193.408 18.296C193.408 17.8107 193.529 17.4187 193.772 17.12C194.015 16.8213 194.323 16.5413 194.696 16.28C195.125 15.9813 195.676 15.7293 196.348 15.524C197.039 15.3 197.813 15.188 198.672 15.188C199.437 15.188 200.091 15.2813 200.632 15.468C201.173 15.636 201.621 15.888 201.976 16.224C202.461 16.672 202.779 17.2227 202.928 17.876C203.077 18.5107 203.152 19.276 203.152 20.172V27.956C203.152 28.4227 203.217 28.7587 203.348 28.964C203.497 29.1693 203.721 29.272 204.02 29.272C204.225 29.272 204.421 29.2253 204.608 29.132C204.795 29.0387 205.019 28.8893 205.28 28.684L205.588 29.16C205.196 29.4587 204.823 29.7107 204.468 29.916C204.113 30.1027 203.637 30.196 203.04 30.196C202.499 30.196 202.051 30.1027 201.696 29.916C201.341 29.7293 201.071 29.4587 200.884 29.104C200.716 28.7307 200.632 28.264 200.632 27.704C200.128 28.544 199.521 29.1693 198.812 29.58C198.121 29.9907 197.337 30.196 196.46 30.196ZM197.468 29.076C198.084 29.076 198.653 28.8987 199.176 28.544C199.717 28.1893 200.203 27.6573 200.632 26.948V21.46C200.408 21.7773 200.081 22.048 199.652 22.272C199.223 22.4773 198.756 22.692 198.252 22.916C197.748 23.1213 197.263 23.3733 196.796 23.672C196.348 23.952 195.975 24.3253 195.676 24.792C195.377 25.2587 195.228 25.8653 195.228 26.612C195.228 27.3587 195.424 27.956 195.816 28.404C196.227 28.852 196.777 29.076 197.468 29.076ZM215.837 15.188C216.547 15.188 217.135 15.2813 217.601 15.468C218.087 15.6547 218.488 15.916 218.805 16.252C219.16 16.6253 219.412 17.092 219.561 17.652C219.711 18.212 219.785 18.968 219.785 19.92V27.396C219.785 28.18 219.944 28.712 220.261 28.992C220.597 29.272 221.148 29.412 221.913 29.412V30C221.596 29.9813 221.111 29.9627 220.457 29.944C219.804 29.9067 219.169 29.888 218.553 29.888C217.937 29.888 217.331 29.9067 216.733 29.944C216.155 29.9627 215.716 29.9813 215.417 30V29.412C216.089 29.412 216.565 29.272 216.845 28.992C217.125 28.712 217.265 28.18 217.265 27.396V19.304C217.265 18.7253 217.219 18.1933 217.125 17.708C217.032 17.2227 216.817 16.8307 216.481 16.532C216.164 16.2333 215.669 16.084 214.997 16.084C214.213 16.084 213.523 16.308 212.925 16.756C212.347 17.204 211.889 17.82 211.553 18.604C211.236 19.3693 211.077 20.228 211.077 21.18V27.396C211.077 28.18 211.217 28.712 211.497 28.992C211.777 29.272 212.253 29.412 212.925 29.412V30C212.627 29.9813 212.179 29.9627 211.581 29.944C211.003 29.9067 210.405 29.888 209.789 29.888C209.173 29.888 208.539 29.9067 207.885 29.944C207.232 29.9627 206.747 29.9813 206.429 30V29.412C207.195 29.412 207.736 29.272 208.053 28.992C208.389 28.712 208.557 28.18 208.557 27.396V18.632C208.557 17.792 208.408 17.176 208.109 16.784C207.811 16.3733 207.251 16.168 206.429 16.168V15.58C207.027 15.636 207.605 15.664 208.165 15.664C208.707 15.664 209.22 15.636 209.705 15.58C210.209 15.5053 210.667 15.4027 211.077 15.272V18.576C211.563 17.3067 212.235 16.4293 213.093 15.944C213.971 15.44 214.885 15.188 215.837 15.188ZM227.644 10.932V15.608H231.788V16.168H227.644V27.004C227.644 27.8813 227.803 28.4973 228.12 28.852C228.438 29.2067 228.876 29.384 229.436 29.384C229.996 29.384 230.482 29.16 230.892 28.712C231.303 28.2453 231.658 27.4707 231.956 26.388L232.516 26.528C232.33 27.6107 231.956 28.5253 231.396 29.272C230.855 30.0187 230.015 30.392 228.876 30.392C228.242 30.392 227.719 30.308 227.308 30.14C226.898 29.9907 226.534 29.7667 226.216 29.468C225.806 29.0387 225.516 28.5253 225.348 27.928C225.199 27.3307 225.124 26.5373 225.124 25.548V16.168H222.436V15.608H225.124V11.324C225.591 11.3053 226.039 11.268 226.468 11.212C226.898 11.156 227.29 11.0627 227.644 10.932ZM237.011 30.196C236.245 30.196 235.583 30.056 235.023 29.776C234.463 29.4773 234.033 29.0667 233.735 28.544C233.455 28.0213 233.315 27.4147 233.315 26.724C233.315 25.9027 233.501 25.2307 233.875 24.708C234.267 24.1853 234.761 23.7653 235.359 23.448C235.956 23.1307 236.581 22.8693 237.235 22.664C237.907 22.44 238.541 22.2347 239.139 22.048C239.736 21.8427 240.221 21.6093 240.595 21.348C240.987 21.0867 241.183 20.7413 241.183 20.312V18.576C241.183 17.792 241.061 17.1947 240.819 16.784C240.595 16.3733 240.287 16.1027 239.895 15.972C239.503 15.8227 239.064 15.748 238.579 15.748C238.112 15.748 237.608 15.8133 237.067 15.944C236.544 16.0747 236.124 16.3453 235.807 16.756C236.161 16.8307 236.469 17.0173 236.731 17.316C236.992 17.6147 237.123 17.9973 237.123 18.464C237.123 18.9307 236.973 19.304 236.675 19.584C236.376 19.8453 235.993 19.976 235.527 19.976C234.985 19.976 234.584 19.808 234.323 19.472C234.08 19.1173 233.959 18.7253 233.959 18.296C233.959 17.8107 234.08 17.4187 234.323 17.12C234.565 16.8213 234.873 16.5413 235.247 16.28C235.676 15.9813 236.227 15.7293 236.899 15.524C237.589 15.3 238.364 15.188 239.223 15.188C239.988 15.188 240.641 15.2813 241.183 15.468C241.724 15.636 242.172 15.888 242.527 16.224C243.012 16.672 243.329 17.2227 243.479 17.876C243.628 18.5107 243.703 19.276 243.703 20.172V27.956C243.703 28.4227 243.768 28.7587 243.899 28.964C244.048 29.1693 244.272 29.272 244.571 29.272C244.776 29.272 244.972 29.2253 245.159 29.132C245.345 29.0387 245.569 28.8893 245.831 28.684L246.139 29.16C245.747 29.4587 245.373 29.7107 245.019 29.916C244.664 30.1027 244.188 30.196 243.591 30.196C243.049 30.196 242.601 30.1027 242.247 29.916C241.892 29.7293 241.621 29.4587 241.435 29.104C241.267 28.7307 241.183 28.264 241.183 27.704C240.679 28.544 240.072 29.1693 239.363 29.58C238.672 29.9907 237.888 30.196 237.011 30.196ZM238.019 29.076C238.635 29.076 239.204 28.8987 239.727 28.544C240.268 28.1893 240.753 27.6573 241.183 26.948V21.46C240.959 21.7773 240.632 22.048 240.203 22.272C239.773 22.4773 239.307 22.692 238.803 22.916C238.299 23.1213 237.813 23.3733 237.347 23.672C236.899 23.952 236.525 24.3253 236.227 24.792C235.928 25.2587 235.779 25.8653 235.779 26.612C235.779 27.3587 235.975 27.956 236.367 28.404C236.777 28.852 237.328 29.076 238.019 29.076Z" fill="#1F2223"/>
</svg>
