<svg width="1728" height="1117" viewBox="0 0 1728 1117" fill="none" xmlns="http://www.w3.org/2000/svg">
<g clip-path="url(#clip0_3156_5148)">
<rect width="1728" height="1117" rx="24" fill="#F5F2EA"/>
<path d="M104.743 529.879C104.743 529.879 142.447 557.677 158.582 583.665C167.031 574.574 174.074 564.269 179.474 553.093C197.308 516.689 219.896 516.137 229.862 513.178C236.258 521.225 248.316 528.804 259.016 533.444C266.347 561.498 271.05 590.174 273.059 619.101C273.437 624.34 272.275 629.574 269.718 634.161L221.029 719.994C209.224 716.715 198.17 711.178 188.475 703.688C200.455 669.954 210.428 638.75 228.926 616.905C225.237 609.737 220.123 600.352 214.064 587.683C206.082 601.094 192.665 614.407 176.02 626.862C170.718 630.811 164.128 632.623 157.554 631.94C150.979 631.258 144.899 628.131 140.521 623.181L78.8706 553.546C85.9787 544.146 94.7468 536.125 104.743 529.879Z" fill="#CFD181"/>
<path d="M468.547 546.513C468.546 551.575 470.046 556.523 472.858 560.732C475.67 564.941 479.667 568.221 484.343 570.159C489.019 572.096 494.165 572.603 499.129 571.616C504.094 570.629 508.654 568.192 512.234 564.613C515.813 561.034 518.251 556.474 519.239 551.51C520.226 546.545 519.72 541.399 517.783 536.723C515.846 532.046 512.566 528.049 508.357 525.237C504.148 522.425 499.2 520.924 494.139 520.924C487.353 520.927 480.846 523.624 476.047 528.422C471.248 533.22 468.551 539.727 468.547 546.513Z" fill="#FDC886"/>
<path d="M413.517 439.962L386.796 430.395L415.782 374.008L471.773 394.05L465.351 424.012L505.686 409.843L508.348 416.129L461.926 439.971L458.454 456.112L454.037 454.53C455.453 452.998 453.248 451.925 446.736 451.869L417.409 441.393C418.557 438.037 418.84 435.492 413.517 439.962Z" fill="#FDC886"/>
<path fill-rule="evenodd" clip-rule="evenodd" d="M428.002 621.784C419.151 614.781 412.446 605.429 408.651 594.798C407.224 589.778 406.46 584.62 406.356 579.452C404.218 578.799 402.009 578.362 399.76 578.153C391.023 577.35 382.325 580.047 375.575 585.651C368.825 591.256 364.573 599.31 363.755 608.045C363.153 614.56 364.495 621.105 367.613 626.857C370.731 632.609 375.484 637.306 381.272 640.358C387.059 643.407 393.621 644.673 400.128 643.994C406.635 643.317 412.794 640.724 417.828 636.546C422.519 632.651 426.036 627.539 428.002 621.784ZM428.174 621.269C428.725 619.281 429.172 617.269 429.516 615.246C429.291 617.022 428.921 618.786 428.407 620.518C428.332 620.768 428.254 621.018 428.174 621.269Z" fill="#FDC886"/>
<path d="M459.655 806.278C464.187 799.057 470.635 793.233 478.282 789.463C479.116 797.993 477.253 806.567 472.957 813.979C468.66 821.394 462.147 827.274 454.332 830.791C453.776 822.282 455.62 813.788 459.655 806.278Z" fill="black"/>
<path d="M408.655 594.823C412.453 605.463 419.166 614.821 428.027 621.828C431.144 610.971 431.155 599.458 428.06 588.594C424.265 577.953 417.552 568.595 408.688 561.59C405.58 572.448 405.568 583.959 408.655 594.823Z" fill="black"/>
<path d="M507.45 514.369C510.964 510.727 513.394 506.179 514.469 501.234C509.489 502.126 504.86 504.398 501.108 507.791C497.596 511.434 495.166 515.981 494.089 520.925C499.069 520.034 503.698 517.762 507.45 514.369Z" fill="black"/>
<path d="M288.863 456.67C288.527 459.445 286.261 460.973 281.165 461.88C280.369 460.181 279.633 458.482 278.957 456.783C283.94 458.312 288.24 458.878 288.863 456.67Z" fill="black"/>
<path d="M245.148 456.906C245.148 456.906 236.374 441.623 250.075 433.412C276.457 417.616 282.232 436.526 282.232 436.526C280.772 436.349 279.288 436.465 277.872 436.866C278.948 439.808 279.064 443.828 277.249 441.79C274.022 438.279 270.57 443.545 276.796 447.849C273.765 465.239 266.708 481.68 256.19 495.859C253.261 500.143 249.124 503.462 244.308 505.397C239.492 507.332 234.211 507.795 229.129 506.728C225.675 506.158 222.429 504.707 219.7 502.514C216.973 500.321 214.856 497.461 213.56 494.21C202.631 466.136 245.148 456.906 245.148 456.906Z" fill="black"/>
<path d="M291.117 503.145C292.736 504.455 294.423 505.681 296.166 506.819C296.166 506.819 290.271 512.482 282.23 518.77L291.117 503.145Z" fill="black"/>
<path d="M181.633 725.431C185.934 719.262 188.488 715.981 190.574 712.699C197.718 715.748 204.501 719.584 210.799 724.132L207.628 729.735C201.795 760.363 196.192 771.799 187.529 785.386C182.426 772.422 179.652 736.753 181.633 725.431Z" fill="black"/>
<path d="M87.6518 517.296C92.0686 523.355 94.447 526.806 96.8223 529.814C91.6514 535.594 85.8607 540.791 79.5573 545.311L75.1405 540.501C48.0733 525.054 39.0191 516.05 28.9993 503.497C42.9263 502.86 77.5784 511.75 87.6518 517.296Z" fill="black"/>
<path d="M345.127 498.888C306.627 468.489 288.853 465.148 279.56 471.034C271.543 476.119 266.17 486.72 260.692 489.077" stroke="black" stroke-width="1.3" stroke-linecap="round" stroke-linejoin="round"/>
<path d="M236.543 507.262C234.415 509.336 232.165 511.282 229.807 513.091" stroke="black" stroke-width="1.3" stroke-linecap="round" stroke-linejoin="round"/>
<path d="M282.232 436.484C282.232 436.484 276.457 417.568 250.075 433.37C236.365 441.575 245.148 456.864 245.148 456.864C245.148 456.864 202.673 466.076 213.557 494.174C214.856 497.424 216.97 500.284 219.7 502.477C222.426 504.67 225.672 506.121 229.126 506.691C234.208 507.761 239.489 507.3 244.308 505.365C249.124 503.43 253.258 500.109 256.187 495.822C266.702 481.642 273.756 465.202 276.793 447.812C270.567 443.509 274.051 438.216 277.246 441.753C279.076 443.777 278.945 439.774 277.869 436.83C279.288 436.429 280.769 436.312 282.232 436.484Z" stroke="black" stroke-width="1.3" stroke-linecap="round" stroke-linejoin="round"/>
<path d="M281.152 461.864C293.154 459.713 289.42 454.163 282.228 436.502" stroke="black" stroke-width="1.3" stroke-linecap="round" stroke-linejoin="round"/>
<path d="M284.833 469C282.556 465.094 280.607 461.008 279.001 456.781C283.984 458.31 288.287 458.867 288.91 456.611" stroke="black" stroke-width="1.3" stroke-linecap="round" stroke-linejoin="round"/>
<path d="M307.357 473.848C325.537 464.224 374.277 428.726 374.277 428.726C371.163 417.177 365.336 408.797 356.556 403.873C356.556 403.873 313.416 435.238 287.318 449.052" stroke="black" stroke-width="1.3" stroke-linecap="round" stroke-linejoin="round"/>
<path d="M214.01 587.592C206.026 601.004 192.611 614.32 175.963 626.771C170.661 630.72 164.072 632.532 157.497 631.85C150.922 631.167 144.846 628.041 140.468 623.091L78.8704 553.512C86.0231 544.135 94.7823 536.103 104.743 529.789C104.743 529.789 154.848 566.703 164.298 595.237" stroke="black" stroke-width="1.3" stroke-linecap="round" stroke-linejoin="round"/>
<path d="M228.958 617.213C210.388 639.068 200.478 669.809 188.476 703.609C198.171 711.099 209.225 716.636 221.03 719.914L269.72 634.141C272.28 629.554 273.439 624.321 273.061 619.082C271.055 590.136 266.355 561.441 259.02 533.368C248.318 528.724 236.26 521.148 229.864 513.102C219.898 516.046 197.31 516.612 179.476 553.017C174.085 564.182 167.051 574.478 158.614 583.562" stroke="black" stroke-width="1.3" stroke-linecap="round" stroke-linejoin="round"/>
<path d="M232.916 625.248C229.805 617.999 222.312 604.874 215.928 591.731C194.643 547.882 206.987 538.458 210.564 533.928" stroke="black" stroke-width="1.3" stroke-linecap="round" stroke-linejoin="round"/>
<path d="M296.166 506.811C294.423 505.674 292.736 504.447 291.117 503.137L282.23 518.763" stroke="black" stroke-width="1.3" stroke-linecap="round" stroke-linejoin="round"/>
<path d="M258.959 533.348C270.797 528.421 286.846 515.728 296.162 506.79C306.024 513.533 316.267 519.703 326.839 525.268C340.143 531.607 347.719 527.355 361.658 517.397C377.781 505.887 400.834 489.204 400.834 489.204C400.055 483.31 397.895 477.684 394.528 472.784C391.161 467.885 386.684 463.85 381.462 461.01C352.949 480.131 335.961 491.737 335.961 491.737" stroke="black" stroke-width="1.3" stroke-linecap="round" stroke-linejoin="round"/>
<path d="M383.572 402.538C379.996 406.046 375.585 401.796 378.819 398.178C381.248 395.457 384.255 392.348 386.234 390.31C386.806 389.625 387.623 389.19 388.51 389.098C389.398 389.006 390.286 389.264 390.986 389.817C391.687 390.369 392.144 391.173 392.261 392.058C392.378 392.942 392.146 393.838 391.613 394.554C390.054 396.446 386.857 399.31 383.572 402.538Z" stroke="black" stroke-width="1.3" stroke-linecap="round" stroke-linejoin="round"/>
<path d="M371.726 384.919C372.918 383.503 373.812 382.472 374.953 381.125C375.496 380.424 376.292 379.963 377.17 379.84C378.048 379.716 378.939 379.941 379.654 380.464C380.37 380.988 380.852 381.77 381 382.645C381.147 383.519 380.947 384.416 380.443 385.145C379.199 386.765 377.851 388.302 376.408 389.747" stroke="black" stroke-width="1.3" stroke-linecap="round" stroke-linejoin="round"/>
<path d="M376.554 389.91C377.799 388.551 380.747 385.553 381.987 384.191C382.543 383.463 383.365 382.985 384.273 382.863C385.181 382.741 386.1 382.984 386.828 383.54C387.557 384.096 388.034 384.918 388.157 385.826C388.279 386.734 388.035 387.653 387.48 388.382C385.963 390.316 382.252 393.91 378.989 397.269C376.253 400.085 373.213 397.156 373.496 394.494" stroke="black" stroke-width="1.3" stroke-linecap="round" stroke-linejoin="round"/>
<path d="M392.628 403.199C392.628 403.199 393.754 412.063 373.065 424.774" stroke="black" stroke-width="1.3" stroke-linecap="round" stroke-linejoin="round"/>
<path d="M408.982 388.661C403.379 378.581 390.338 368.627 378.753 375.017C376.927 376.052 375.358 377.485 374.162 379.21C372.966 380.935 372.174 382.907 371.845 384.98" stroke="black" stroke-width="1.3" stroke-linecap="round" stroke-linejoin="round"/>
<path d="M461.98 439.842L508.348 416.121L505.686 409.836L465.378 423.933" stroke="black" stroke-width="1.3" stroke-linecap="round" stroke-linejoin="round"/>
<path d="M446.752 451.841L417.476 441.383" stroke="black" stroke-width="1.3" stroke-linecap="round" stroke-linejoin="round"/>
<path d="M413.519 439.948L386.798 430.438L415.784 373.994L471.832 394.034L458.471 456.027L454.111 454.498" stroke="black" stroke-width="1.3" stroke-linecap="round" stroke-linejoin="round"/>
<path d="M214.406 717.935L207.611 729.71C201.779 760.339 196.176 771.774 187.512 785.361C182.419 772.454 179.644 736.729 181.626 725.406C186.01 719.601 190.087 713.575 193.845 707.346" stroke="black" stroke-width="1.3" stroke-linecap="round" stroke-linejoin="round"/>
<path d="M190.584 712.662C197.737 715.72 204.526 719.565 210.826 724.127" stroke="black" stroke-width="1.3" stroke-linecap="round" stroke-linejoin="round"/>
<path d="M87.9282 543.172L119.576 575.782" stroke="black" stroke-width="1.3" stroke-linecap="round" stroke-linejoin="round"/>
<path d="M96.9336 529.789C91.721 535.571 85.8945 540.767 79.5554 545.287" stroke="black" stroke-width="1.3" stroke-linecap="round" stroke-linejoin="round"/>
<path d="M82.7164 548.821L75.2448 540.5C48.1835 525.101 39.1233 516.097 29.1035 503.529C43.0305 502.906 77.6827 511.796 87.7561 517.343C91.4666 522.84 95.4721 528.132 99.7578 533.195" stroke="black" stroke-width="1.3" stroke-linecap="round" stroke-linejoin="round"/>
<path d="M204.412 713.562L230.656 663.355" stroke="black" stroke-width="1.3" stroke-linecap="round" stroke-linejoin="round"/>
<path d="M399.988 485.006C407.5 478.265 415.61 472.22 424.218 466.948C431.106 463.159 438.399 460.16 445.959 458.007C457.049 454.869 457.904 451.674 445.336 451.838C431.984 452.911 418.841 455.806 406.273 460.442" stroke="black" stroke-width="1.3" stroke-linecap="round" stroke-linejoin="round"/>
<path d="M412.892 458.084C406.383 458.367 415.506 446.651 416.799 443.251C418.564 438.613 420.292 433.383 410.401 442.854C402.197 450.056 393.561 456.749 384.54 462.897" stroke="black" stroke-width="1.3" stroke-linecap="round" stroke-linejoin="round"/>
<path d="M435.828 461.466C438.716 461.41 444.715 461.705 446.471 461.806C454.449 462.262 453.778 464.423 452.53 464.75C447.615 466.041 439.455 467.135 434.922 468.428C427.626 470.496 413.351 474.034 408.257 478.281" stroke="black" stroke-width="1.3" stroke-linecap="round" stroke-linejoin="round"/>
<path d="M435.464 468.281C436.782 468.555 437.822 468.776 438.445 468.94C446.256 470.639 445.237 472.74 443.934 472.847C438.841 473.267 430.63 473.065 425.93 473.583C420.259 474.343 414.671 475.632 409.24 477.434" stroke="black" stroke-width="1.3" stroke-linecap="round" stroke-linejoin="round"/>
<path d="M468.547 546.507C468.546 551.569 470.047 556.517 472.858 560.726C475.67 564.935 479.667 568.216 484.343 570.153C489.019 572.09 494.165 572.598 499.129 571.61C504.094 570.623 508.655 568.186 512.234 564.607C515.813 561.028 518.251 556.468 519.239 551.504C520.226 546.539 519.72 541.393 517.783 536.717C515.846 532.041 512.566 528.043 508.357 525.231C504.148 522.419 499.2 520.918 494.139 520.918C487.353 520.921 480.846 523.618 476.047 528.416C471.248 533.214 468.551 539.721 468.547 546.507Z" stroke="black" stroke-width="1.3" stroke-linecap="round" stroke-linejoin="round"/>
<path d="M406.164 579.394C404.086 578.773 401.942 578.355 399.762 578.153C391.025 577.35 382.327 580.047 375.576 585.651C368.826 591.256 364.575 599.31 363.756 608.045C363.154 614.56 364.497 621.105 367.614 626.857C370.732 632.609 375.485 637.306 381.273 640.358C387.06 643.407 393.622 644.673 400.129 643.994C406.636 643.317 412.795 640.724 417.829 636.546C422.517 632.654 426.032 627.548 427.998 621.799" stroke="black" stroke-width="1.3" stroke-linecap="round" stroke-linejoin="round"/>
<path d="M511.238 705.758C498.355 711.229 487.271 720.215 479.251 731.686C492.905 734.744 507.143 733.919 520.352 729.302C533.234 723.827 544.318 714.845 552.34 703.373C538.686 700.313 524.447 701.141 511.238 705.758Z" stroke="black" stroke-width="1.3" stroke-linecap="round" stroke-linejoin="round"/>
<path d="M459.649 806.254C455.606 813.762 453.761 822.259 454.327 830.767C462.141 827.251 468.654 821.371 472.951 813.956C477.247 806.543 479.11 797.969 478.276 789.439C470.624 793.204 464.174 799.027 459.649 806.254Z" stroke="black" stroke-width="1.3" stroke-linecap="round" stroke-linejoin="round"/>
<path d="M361.209 626.737C368.992 634.906 378.921 640.715 389.855 643.495C388.653 632.224 383.94 621.614 376.382 613.164C368.824 604.715 358.804 598.853 347.735 596.406C349.316 607.573 353.983 618.076 361.209 626.737Z" stroke="black" stroke-width="1.3" stroke-linecap="round" stroke-linejoin="round"/>
<path d="M408.655 594.798C412.453 605.438 419.166 614.796 428.027 621.803C431.144 610.946 431.155 599.432 428.06 588.569C424.265 577.928 417.552 568.569 408.688 561.564C405.579 572.423 405.568 583.934 408.655 594.798Z" stroke="black" stroke-width="1.3" stroke-linecap="round" stroke-linejoin="round"/>
<path d="M507.444 514.357C510.958 510.715 513.388 506.168 514.463 501.223C509.483 502.114 504.854 504.386 501.102 507.779C497.59 511.422 495.16 515.97 494.084 520.914C499.063 520.022 503.692 517.751 507.444 514.357Z" stroke="black" stroke-width="1.3" stroke-linecap="round" stroke-linejoin="round"/>
<path d="M490.629 571.867C488.707 603.661 486.653 624.783 452.871 677.013C422.719 723.655 455.595 766.872 454.776 820.801" stroke="black" stroke-width="1.3" stroke-linecap="round" stroke-linejoin="round"/>
<path d="M413.517 639.691C413.517 639.691 439.61 665.784 440.34 713.901" stroke="black" stroke-width="1.3" stroke-linecap="round" stroke-linejoin="round"/>
<path d="M479.082 731.512C479.082 731.512 449.926 748.44 453.097 796.22" stroke="black" stroke-width="1.3" stroke-linecap="round" stroke-linejoin="round"/>
<path d="M414.422 828.488C414.935 826.599 416.177 824.987 417.876 824.012C419.575 823.034 421.591 822.772 423.483 823.282L483.944 839.471C484.881 839.724 485.759 840.159 486.528 840.749C487.297 841.343 487.942 842.079 488.426 842.922C488.91 843.762 489.223 844.689 489.348 845.652C489.474 846.615 489.408 847.592 489.155 848.528C488.903 849.467 488.468 850.343 487.876 851.115C487.284 851.884 486.546 852.528 485.705 853.01C484.864 853.496 483.936 853.809 482.974 853.934C482.011 854.059 481.034 853.994 480.097 853.741L419.632 837.549C417.741 837.036 416.131 835.793 415.154 834.094C414.178 832.396 413.915 830.381 414.422 828.488Z" stroke="black" stroke-width="1.3" stroke-linecap="round" stroke-linejoin="round"/>
<path d="M501.431 535.676L489.993 536.695C488.714 536.884 487.555 537.554 486.755 538.569C485.954 539.584 485.572 540.867 485.686 542.155C485.8 543.443 486.402 544.638 487.369 545.497C488.336 546.355 489.595 546.811 490.887 546.771L497.286 546.205C498.583 546.159 499.848 546.612 500.82 547.47C501.793 548.329 502.399 549.529 502.514 550.821C502.628 552.113 502.243 553.401 501.436 554.417C500.63 555.434 499.464 556.102 498.18 556.285L486.744 557.361" stroke="black" stroke-width="1.3" stroke-linecap="round" stroke-linejoin="round"/>
<path d="M492.814 532.627L495.363 560.368" stroke="black" stroke-width="1.3" stroke-linecap="round" stroke-linejoin="round"/>
<path d="M404.899 597.293L391.028 599.365C389.396 599.611 387.928 600.495 386.947 601.823C385.967 603.151 385.553 604.814 385.799 606.446C386.044 608.079 386.929 609.547 388.256 610.528C389.584 611.508 391.248 611.921 392.88 611.676L400.633 610.537C401.441 610.416 402.264 610.454 403.058 610.651C403.852 610.849 404.599 611.201 405.256 611.685C405.914 612.172 406.469 612.782 406.891 613.482C407.312 614.182 407.592 614.959 407.714 615.767C407.835 616.574 407.796 617.398 407.599 618.192C407.402 618.985 407.051 619.732 406.566 620.391C406.08 621.048 405.469 621.602 404.769 622.025C404.07 622.447 403.293 622.726 402.484 622.848L388.579 624.948" stroke="black" stroke-width="1.3" stroke-linecap="round" stroke-linejoin="round"/>
<path d="M394.183 594.232L399.307 627.973" stroke="black" stroke-width="1.3" stroke-linecap="round" stroke-linejoin="round"/>
<path d="M359.29 405.639C363.311 400.429 361.147 391.193 364.837 386.842C369.411 381.454 370.07 382.691 378.248 391.769C380.233 393.971 377.115 398.108 369.811 392.108C372.246 393.746 374.051 396.165 374.928 398.965C375.805 401.767 375.701 404.783 374.633 407.517" stroke="black" stroke-width="1.3" stroke-linecap="round" stroke-linejoin="round"/>
<path d="M395.008 415.042L387.536 407.91" stroke="black" stroke-width="1.3" stroke-linecap="round" stroke-linejoin="round"/>
<path d="M387.525 407.904C383.967 411.182 379.777 407.01 382.995 403.6C385.38 401.064 387.186 399.353 389.168 397.371C389.739 396.724 390.541 396.324 391.402 396.258C392.263 396.192 393.116 396.464 393.78 397.018C394.443 397.571 394.865 398.361 394.955 399.22C395.044 400.08 394.796 400.94 394.261 401.618C392.768 403.344 390.828 404.855 387.525 407.904Z" stroke="black" stroke-width="1.3" stroke-linecap="round" stroke-linejoin="round"/>
<path d="M470.239 689.758C472.223 676.445 477.74 663.91 486.216 653.455C492.939 665.734 496.059 679.661 495.22 693.633C493.489 707.518 487.898 720.64 479.084 731.509C472.034 718.787 468.953 704.246 470.239 689.758Z" stroke="black" stroke-width="1.3" stroke-linecap="round" stroke-linejoin="round"/>
<path d="M389.746 497.316C387.58 485.518 381.051 474.967 371.459 467.764" stroke="black" stroke-width="1.3" stroke-linecap="round" stroke-linejoin="round"/>
<path d="M364.436 435.84C361.321 425.895 355.261 417.129 347.057 410.701" stroke="black" stroke-width="1.3" stroke-linecap="round" stroke-linejoin="round"/>
<path d="M1638.5 877H89" stroke="black"/>
<rect width="139" height="191" rx="24" transform="matrix(-1 0 0 1 1611 673)" fill="#FDC886"/>
<rect x="-0.5" y="0.5" width="132" height="131" transform="matrix(-1 0 0 1 1439 732)" fill="white" stroke="black"/>
<path d="M1542.23 673.091C1542.23 673.091 1572.58 653.487 1580.8 637.346C1589.03 621.204 1566.36 604.315 1555.8 625.096C1545.07 646.201 1542.23 673.091 1542.23 673.091Z" stroke="black" stroke-width="1.1" stroke-linecap="round" stroke-linejoin="round"/>
<path d="M1541.59 673.478C1541.59 673.478 1510.2 655.616 1501.08 639.93C1491.96 624.244 1513.67 606.184 1525.34 626.298C1537.26 646.791 1541.59 673.478 1541.59 673.478Z" stroke="black" stroke-width="1.1" stroke-linecap="round" stroke-linejoin="round"/>
<rect x="-0.5" y="0.5" width="23" height="190" transform="matrix(-1 0 0 1 1553 673)" fill="#F5F2EA" stroke="black"/>
</g>
<defs>
<clipPath id="clip0_3156_5148">
<rect width="1728" height="1117" rx="24" fill="white"/>
</clipPath>
</defs>
</svg>
