<svg width="1728" height="1117" viewBox="0 0 1728 1117" fill="none" xmlns="http://www.w3.org/2000/svg">
<rect width="1728" height="1117" rx="24" fill="#F5F2EA"/>
<path d="M89 870H1638.5" stroke="black"/>
<path d="M406.195 523.798C401.308 518.937 394.827 516.01 387.95 515.557C381.074 515.104 374.265 517.156 368.783 521.334C363.301 525.512 359.517 531.533 358.129 538.284C356.744 545.036 357.848 552.061 361.24 558.061C364.703 555.847 372.734 549.43 372.318 552.521C371.857 555.614 364.564 561.847 364.564 561.847C364.603 562.153 364.618 562.462 364.61 562.77C367.128 565.654 370.202 568 373.647 569.67C377.093 571.34 380.838 572.3 384.663 572.491C388.485 572.682 392.31 572.101 395.904 570.782C399.498 569.464 402.79 567.435 405.583 564.817C408.377 562.2 410.615 559.046 412.163 555.544C413.711 552.043 414.54 548.266 414.595 544.437C414.654 540.609 413.939 536.809 412.496 533.263C411.052 529.717 408.909 526.498 406.195 523.798Z" fill="#CFD181"/>
<path d="M341.148 665.479C337.683 662.306 333.836 659.577 329.698 657.353C306.249 644.559 282.069 633.15 257.284 623.185C256.584 620.597 256.03 618.852 256.03 618.852L229.762 611.234C229.762 611.234 198.877 635.656 206.402 657.538C210.558 669.688 226.992 685.93 282.437 698.671C276.768 727.507 269.51 756.009 260.698 784.046C262.849 779.388 275.142 776.63 289.686 778.26C305.335 780.015 317.524 785.694 316.97 791.003L317.152 791.234C320.614 759.569 321.798 727.694 320.695 695.859L368.187 766.059C365.514 762.278 372.653 751.414 384.371 741.516C396.278 731.451 408.377 726.234 411.424 729.789L411.609 729.881L341.148 665.479Z" fill="#CFD181"/>
<path d="M519.853 648.122C518.808 646.408 517.277 645.045 515.457 644.202C513.637 643.359 511.608 643.074 509.625 643.385C507.645 643.697 505.798 644.588 504.323 645.947C502.848 647.307 501.808 649.074 501.336 651.023C500.865 652.972 500.984 655.018 501.674 656.901C502.367 658.784 503.601 660.422 505.222 661.603C506.843 662.784 508.777 663.46 510.782 663.54C512.786 663.623 514.769 663.107 516.482 662.062C517.62 661.37 518.611 660.459 519.396 659.385C520.183 658.308 520.747 657.086 521.061 655.791C521.374 654.495 521.43 653.152 521.221 651.837C521.014 650.52 520.548 649.259 519.853 648.122Z" fill="#1F2223"/>
<path d="M433.756 704.534C434.801 706.247 436.332 707.61 438.152 708.454C439.972 709.297 442.001 709.581 443.984 709.27C445.964 708.959 447.811 708.067 449.286 706.709C450.761 705.348 451.801 703.581 452.272 701.633C452.744 699.684 452.625 697.638 451.935 695.754C451.242 693.871 450.008 692.233 448.387 691.052C446.766 689.871 444.832 689.196 442.827 689.116C440.822 689.033 438.839 689.548 437.126 690.593C435.989 691.286 434.998 692.197 434.213 693.273C433.425 694.347 432.862 695.57 432.548 696.865C432.235 698.16 432.179 699.504 432.388 700.819C432.594 702.136 433.061 703.397 433.756 704.534Z" fill="#1F2223"/>
<path d="M497.416 485.156C498.216 485.921 499.222 486.432 500.31 486.625C501.401 486.817 502.522 486.682 503.535 486.236C504.546 485.791 505.403 485.055 505.999 484.122C506.592 483.189 506.896 482.101 506.871 480.995C506.847 479.889 506.495 478.816 505.858 477.911C505.224 477.005 504.334 476.309 503.302 475.909C502.271 475.51 501.144 475.425 500.065 475.666C498.986 475.907 498.002 476.463 497.239 477.263C496.221 478.336 495.669 479.768 495.701 481.246C495.735 482.725 496.352 484.13 497.416 485.156Z" fill="#1F2223"/>
<path d="M156.347 490.512C155.888 491.229 155.645 492.062 155.645 492.913C155.645 493.764 155.888 494.597 156.347 495.313C156.786 495.829 157.342 496.232 157.969 496.489C158.595 496.746 159.274 496.849 159.948 496.791L156.347 490.512Z" fill="#1F2223"/>
<path d="M177.998 479.895C177.602 479.294 177.031 478.829 176.361 478.565C175.692 478.3 174.957 478.249 174.258 478.418C175.504 480.403 176.705 482.434 177.998 484.417C178.377 483.724 178.575 482.946 178.575 482.156C178.575 481.366 178.377 480.588 177.998 479.895Z" fill="#1F2223"/>
<path d="M411.689 729.833C409.657 727.432 403.563 728.955 396.176 733.249L406.287 743.82C411.366 737.589 413.628 732.187 411.689 729.833Z" fill="#1F2223"/>
<path d="M375.586 750.33C369.4 757.394 366.399 763.719 368.571 766.305C370.785 768.934 377.849 766.859 386.113 761.595L375.586 750.33Z" fill="#1F2223"/>
<path d="M272.683 507.731C271.152 506.212 269.143 505.271 266.996 505.069C264.849 504.867 262.699 505.416 260.912 506.623C257.504 505.857 253.945 506.147 250.706 507.454C249.671 505.723 248.205 504.291 246.452 503.296C244.699 502.301 242.717 501.777 240.701 501.776C238.685 501.775 236.703 502.297 234.949 503.29C233.194 504.283 231.727 505.715 230.69 507.444C229.654 509.173 229.084 511.142 229.035 513.157C228.986 515.173 229.46 517.166 230.412 518.944C231.363 520.722 232.759 522.222 234.463 523.299C236.167 524.377 238.122 524.994 240.135 525.091C240.548 529.001 242.291 532.651 245.073 535.43C245.073 535.43 253.845 546.049 248.351 551.403C250.194 549.963 251.694 548.13 252.74 546.038C253.786 543.946 254.353 541.647 254.4 539.309C254.442 538.85 254.362 538.388 254.169 537.97C248.538 531.554 254.261 526.337 256.754 530.813C257.955 532.983 258.739 532.983 259.294 531.829C261.417 526.106 271.113 518.304 273.465 528.507V528.461C273.838 530.407 274.009 532.387 273.973 534.368C273.973 533.217 274.019 529.615 274.019 526.199C274.397 523.977 274.334 521.702 273.835 519.504C275.046 517.715 275.594 515.559 275.384 513.41C275.173 511.26 274.218 509.251 272.683 507.731Z" fill="#1F2223"/>
<path d="M317.142 791.142C317.56 787.54 312.064 783.801 303.661 781.179L301.906 797.89C310.632 797.19 316.729 794.697 317.142 791.142Z" fill="#1F2223"/>
<path d="M260.45 784.816C260.034 788.556 266.039 792.527 275.13 795.112L277.074 777.939C267.653 778.537 260.912 781.077 260.45 784.816Z" fill="#1F2223"/>
<path d="M269.778 583.165C269.253 586.739 268.478 590.273 267.457 593.738C269.318 595.117 271.281 596.352 273.33 597.432C272.222 592.676 270.976 587.043 269.778 583.165Z" fill="#1F2223"/>
<path d="M258.096 547.804C258.973 550.112 259.797 552.511 260.589 555.283C260.494 553.58 260.912 551.887 261.789 550.423C260.387 549.82 259.129 548.927 258.096 547.804Z" fill="#1F2223"/>
<path d="M282.518 698.717L276.885 726.188L287.689 699.873L282.518 698.717Z" fill="#1F2223"/>
<path d="M219.551 567.708L223.517 582.145L227.162 573.744C227.162 573.744 219.976 568.036 219.551 567.708Z" fill="#1F2223"/>
<path d="M519.853 648.122C518.808 646.408 517.277 645.045 515.457 644.202C513.637 643.359 511.608 643.074 509.625 643.385C507.645 643.697 505.798 644.588 504.323 645.947C502.848 647.307 501.808 649.074 501.336 651.023C500.865 652.972 500.984 655.018 501.674 656.901C502.367 658.784 503.601 660.422 505.222 661.603C506.843 662.784 508.777 663.46 510.782 663.54C512.786 663.623 514.769 663.107 516.482 662.062C517.62 661.37 518.611 660.459 519.396 659.385C520.183 658.308 520.747 657.086 521.061 655.791C521.374 654.495 521.43 653.152 521.221 651.837C521.014 650.52 520.548 649.259 519.853 648.122Z" stroke="#1F2223" stroke-width="1.1" stroke-linecap="round" stroke-linejoin="round"/>
<path d="M433.756 704.534C434.801 706.247 436.332 707.611 438.152 708.454C439.972 709.297 442.001 709.581 443.984 709.27C445.964 708.959 447.811 708.067 449.286 706.709C450.761 705.348 451.801 703.582 452.272 701.633C452.744 699.684 452.625 697.638 451.935 695.755C451.242 693.871 450.008 692.233 448.387 691.052C446.766 689.872 444.832 689.196 442.827 689.116C440.822 689.033 438.839 689.548 437.126 690.593C435.989 691.286 434.998 692.197 434.213 693.274C433.425 694.348 432.862 695.57 432.548 696.865C432.235 698.16 432.179 699.504 432.388 700.819C432.594 702.136 433.061 703.397 433.756 704.534Z" stroke="#1F2223" stroke-width="1.1" stroke-linecap="round" stroke-linejoin="round"/>
<path d="M502.727 659.339L451.391 694.564" stroke="#1F2223" stroke-width="1.1" stroke-linecap="round" stroke-linejoin="round"/>
<path d="M509.698 643.412L480.752 499.561L501.295 481.142" stroke="#1F2223" stroke-width="1.1" stroke-linecap="round" stroke-linejoin="round"/>
<path d="M504.204 615.99L402.456 671.527L347.934 622.546L487.586 533.583L504.204 615.99Z" stroke="#1F2223" stroke-width="1.1" stroke-linecap="round" stroke-linejoin="round"/>
<path d="M497.416 485.156C498.216 485.921 499.222 486.432 500.31 486.625C501.401 486.817 502.522 486.682 503.535 486.236C504.546 485.791 505.403 485.055 505.999 484.122C506.592 483.189 506.896 482.101 506.871 480.995C506.847 479.889 506.495 478.816 505.858 477.911C505.224 477.005 504.334 476.309 503.302 475.909C502.271 475.51 501.144 475.425 500.065 475.666C498.986 475.907 498.002 476.463 497.239 477.263C496.221 478.336 495.669 479.768 495.701 481.246C495.735 482.725 496.352 484.13 497.416 485.156Z" stroke="#1F2223" stroke-width="1.1" stroke-linecap="round" stroke-linejoin="round"/>
<path d="M350.01 584.961C350.982 584.64 367.749 579.071 376.932 571.069" stroke="#1F2223" stroke-width="1.1" stroke-linecap="round" stroke-linejoin="round"/>
<path d="M372.032 572.549C371.952 571.194 371.752 569.848 371.441 568.527" stroke="#1F2223" stroke-width="1.1" stroke-linecap="round" stroke-linejoin="round"/>
<path d="M364.6 562.761C365.015 563.268 365.463 563.733 365.939 564.238C371.061 569.34 377.928 572.308 385.155 572.542C392.382 572.777 399.427 570.259 404.87 565.499C410.311 560.739 413.744 554.091 414.473 546.898C415.205 539.705 413.178 532.503 408.802 526.747C404.428 520.991 398.032 517.11 390.905 515.887C383.78 514.665 376.453 516.193 370.412 520.162C364.369 524.131 360.056 530.246 358.347 537.271C356.639 544.296 357.66 551.708 361.205 558.01" fill="#FDC886"/>
<path d="M364.6 562.761C365.015 563.268 365.463 563.733 365.939 564.238C371.061 569.34 377.928 572.308 385.155 572.542C392.382 572.777 399.427 570.259 404.87 565.499C410.311 560.739 413.744 554.091 414.473 546.898C415.205 539.705 413.178 532.503 408.802 526.747C404.428 520.991 398.032 517.11 390.905 515.887C383.78 514.665 376.453 516.193 370.412 520.162C364.369 524.131 360.056 530.246 358.347 537.271C356.639 544.296 357.66 551.708 361.205 558.01" stroke="#1F2223" stroke-width="1.1" stroke-linecap="round" stroke-linejoin="round"/>
<path d="M223.563 582.473L227.118 573.795L219.551 567.713" stroke="#1F2223" stroke-width="1.1" stroke-linecap="round" stroke-linejoin="round"/>
<path d="M260.596 555.492L257.957 547.716C259.19 548.696 260.505 549.566 261.889 550.316" stroke="#1F2223" stroke-width="1.1" stroke-linecap="round" stroke-linejoin="round"/>
<path d="M266.037 563.961C258.142 563.822 249.924 558.051 242.908 551.59" stroke="#1F2223" stroke-width="1.1" stroke-linecap="round" stroke-linejoin="round"/>
<path d="M242.863 551.59L241.293 563.268L255.603 562.068L265.068 572.456L266.038 563.961" stroke="#1F2223" stroke-width="1.1" stroke-linecap="round" stroke-linejoin="round"/>
<path d="M174.258 478.418C174.958 478.256 175.69 478.31 176.358 478.574C177.026 478.838 177.598 479.299 177.998 479.895C179.993 482.658 176.705 488.342 170.752 492.589C164.798 496.837 158.335 498.035 156.393 495.262C155.935 494.545 155.691 493.712 155.691 492.862C155.691 492.011 155.935 491.178 156.393 490.461" stroke="#1F2223" stroke-width="1.1" stroke-linecap="round" stroke-linejoin="round"/>
<path d="M356.106 573.103C358.553 571.44 365.155 566.731 364.555 561.791C364.555 561.791 371.845 555.558 372.309 552.467C372.773 549.376 364.555 555.881 361.131 558.056C355.381 561.752 349.399 565.067 343.217 567.983" stroke="#1F2223" stroke-width="1.1" stroke-linecap="round" stroke-linejoin="round"/>
<path d="M269.777 583.165L273.33 597.432" stroke="#1F2223" stroke-width="1.1" stroke-linecap="round" stroke-linejoin="round"/>
<path d="M273.976 534.368C273.976 533.214 274.022 529.615 274.022 526.199C274.4 523.977 274.337 521.702 273.837 519.504C275.039 517.713 275.581 515.56 275.37 513.414C275.159 511.268 274.208 509.262 272.68 507.74C271.153 506.217 269.143 505.274 266.996 505.07C264.849 504.867 262.698 505.417 260.912 506.625C257.505 505.858 253.944 506.148 250.706 507.456C249.671 505.726 248.205 504.293 246.452 503.298C244.699 502.303 242.717 501.779 240.701 501.778C238.685 501.777 236.703 502.299 234.949 503.292C233.194 504.286 231.727 505.717 230.69 507.446C229.654 509.176 229.084 511.144 229.035 513.16C228.986 515.175 229.46 517.169 230.412 518.946C231.363 520.724 232.759 522.225 234.463 523.302C236.167 524.379 238.122 524.996 240.135 525.093C240.548 529.004 242.291 532.654 245.073 535.433C245.073 535.433 254.239 546.528 247.965 551.755" stroke="#1F2223" stroke-width="1.1" stroke-linecap="round" stroke-linejoin="round"/>
<path d="M386.113 761.595C377.851 766.859 370.748 768.927 368.522 766.305C364.148 761.141 378.832 746.379 384.774 741.363C390.363 736.646 407.351 724.688 411.689 729.833C413.633 732.139 411.365 737.635 406.287 743.868" stroke="#1F2223" stroke-width="1.1" stroke-linecap="round" stroke-linejoin="round"/>
<path d="M433.478 764.273C420.903 768.484 407.727 770.618 394.467 770.591" stroke="#1F2223" stroke-width="1.1" stroke-linecap="round" stroke-linejoin="round"/>
<path d="M396.175 733.296L407.949 745.577C412.741 751.076 418.439 755.712 424.798 759.287C435.906 765.165 446.117 772.596 455.13 781.354C436.863 784.739 418.028 783.259 400.515 777.06L375.586 750.33" stroke="#1F2223" stroke-width="1.1" stroke-linecap="round" stroke-linejoin="round"/>
<path d="M301.906 797.88C310.632 797.19 316.751 794.694 317.142 791.142C317.918 784.063 299.702 779.684 291.795 778.625C282.282 777.352 261.286 777.283 260.448 784.816C260.032 788.556 266.037 792.527 275.128 795.112" stroke="#1F2223" stroke-width="1.1" stroke-linecap="round" stroke-linejoin="round"/>
<path d="M274.021 805.083C282.892 815.352 292.897 824.581 303.845 832.598" stroke="#1F2223" stroke-width="1.1" stroke-linecap="round" stroke-linejoin="round"/>
<path d="M277.106 778.073L272.951 814.317C275.721 822.025 281.4 837.999 302.775 857.814C306.198 847.882 303.888 831.606 302.267 821.206C301.13 814.028 300.944 806.733 301.713 799.506C301.922 797.581 301.594 800.791 303.645 781.24" stroke="#1F2223" stroke-width="1.1" stroke-linecap="round" stroke-linejoin="round"/>
<path d="M275.777 729.648L287.597 699.735L282.382 698.573" stroke="#1F2223" stroke-width="1.1" stroke-linecap="round" stroke-linejoin="round"/>
<path d="M260.716 783.835C269.61 755.865 276.845 727.395 282.381 698.573C226.931 685.85 210.512 669.54 206.39 657.445C198.857 635.575 229.75 611.142 229.75 611.142" stroke="#1F2223" stroke-width="1.1" stroke-linecap="round" stroke-linejoin="round"/>
<path d="M253.295 634.594C274.236 646.037 294.025 659.472 312.388 674.713C314.814 676.664 316.797 679.111 318.206 681.889C319.614 684.666 320.416 687.714 320.557 690.824C321.964 724.3 320.838 757.836 317.189 791.142" stroke="#1F2223" stroke-width="1.1" stroke-linecap="round" stroke-linejoin="round"/>
<path d="M256.018 618.76C258.045 625.126 259.407 631.685 260.081 638.334" stroke="#1F2223" stroke-width="1.1" stroke-linecap="round" stroke-linejoin="round"/>
<path d="M368.03 765.527L320.74 695.626" stroke="#1F2223" stroke-width="1.1" stroke-linecap="round" stroke-linejoin="round"/>
<path d="M257.219 623.054C282.028 633.06 306.243 644.481 329.745 657.261C333.89 659.472 337.739 662.203 341.195 665.387L411.179 729.339" stroke="#1F2223" stroke-width="1.1" stroke-linecap="round" stroke-linejoin="round"/>
<path d="M177.951 484.417C177.951 484.417 166.596 469.184 168.535 458.01C170.52 446.563 168.229 446.346 163.225 456.674C159.913 463.512 158.793 479.48 158.793 479.48" stroke="#1F2223" stroke-width="1.1" stroke-linecap="round" stroke-linejoin="round"/>
<path d="M159.955 496.791C159.955 496.791 149.783 479.348 144.214 467.388C140.046 458.438 145.414 461.986 146.938 464.987" stroke="#1F2223" stroke-width="1.1" stroke-linecap="round" stroke-linejoin="round"/>
<path d="M155.008 457.964C154.315 454.623 153.944 451.222 153.9 447.809C153.9 437.56 156.406 438.065 158.61 446.747C159.638 450.828 160.886 454.85 162.349 458.795" stroke="#1F2223" stroke-width="1.1" stroke-linecap="round" stroke-linejoin="round"/>
<path d="M156.902 456.212C152.83 460.683 150.418 466.416 150.068 472.452" stroke="#1F2223" stroke-width="1.1" stroke-linecap="round" stroke-linejoin="round"/>
<path d="M154.27 453.165C153.346 451.041 152.425 448.548 151.546 445.875C148.457 436.456 146.516 438.534 147.531 447.122C148.263 453.108 149.72 458.983 151.869 464.618" stroke="#1F2223" stroke-width="1.1" stroke-linecap="round" stroke-linejoin="round"/>
<path d="M148.498 453.35C145.314 443.054 142.948 444.903 144.252 454.322C145.252 460.616 147.213 466.72 150.067 472.418" stroke="#1F2223" stroke-width="1.1" stroke-linecap="round" stroke-linejoin="round"/>
<path d="M209.761 716.261L203.344 741.144" stroke="#1F2223" stroke-width="1.1" stroke-linecap="round" stroke-linejoin="round"/>
<path d="M218.995 731.957L194.111 725.493" stroke="#1F2223" stroke-width="1.1" stroke-linecap="round" stroke-linejoin="round"/>
<path d="M312 451.556C354.213 458.982 344.322 401.269 386.687 408.85" stroke="#1F2223" stroke-width="1.1" stroke-linecap="round" stroke-linejoin="round"/>
<path d="M391.882 533.768L380.25 554.219" stroke="#1F2223" stroke-width="1.1" stroke-linecap="round" stroke-linejoin="round"/>
<path d="M396.314 549.835L375.863 538.154" stroke="#1F2223" stroke-width="1.1" stroke-linecap="round" stroke-linejoin="round"/>
<path d="M156.141 494.915C168.006 518.561 191.716 544.919 219.564 567.713C223.734 581.998 227.14 596.495 229.77 611.142L256.038 618.76C260.452 610.705 264.274 602.34 267.476 593.731C274.523 598.513 282.203 602.289 290.294 604.948C294.279 606.376 298.62 606.473 302.665 605.225C318.978 600.267 334.901 594.11 350.307 586.805C349.469 579.413 346.628 572.39 342.092 566.493C328.285 572.837 313.761 577.488 298.838 580.344C286.375 575.884 274.534 569.85 263.603 562.386C259.715 559.827 260.113 554.304 261.902 550.307C266.533 552.574 273.648 553.019 273.988 534.687C274.35 516.219 262.302 524.823 259.484 531.387C258.837 532.896 258.174 533.331 256.769 530.808C254.283 526.328 248.507 531.537 254.184 537.965C254.415 538.711 254.478 539.5 254.369 540.273C252.463 550.307 247.397 556.068 239.32 549.264C215.863 529.555 197.353 511.823 178.011 479.878" stroke="#1F2223" stroke-width="1.1" stroke-linecap="round" stroke-linejoin="round"/>
<path d="M267.457 593.738C269.299 589.01 270.075 583.934 269.729 578.871" stroke="#1F2223" stroke-width="1.1" stroke-linecap="round" stroke-linejoin="round"/>
<path d="M204.464 413.194C204.667 413.444 204.887 413.671 205.12 413.919C207.633 416.422 211.002 417.878 214.547 417.993C218.092 418.108 221.547 416.873 224.217 414.538C226.886 412.203 228.571 408.942 228.928 405.413C229.287 401.885 228.293 398.352 226.146 395.529C224 392.705 220.863 390.801 217.367 390.202C213.872 389.602 210.278 390.351 207.315 392.298C204.35 394.246 202.235 397.245 201.397 400.691C200.559 404.137 201.059 407.773 202.798 410.864" fill="#FDC886"/>
<path d="M1304.65 565L1298.23 589.883" stroke="black" stroke-width="1.1" stroke-linecap="round" stroke-linejoin="round"/>
<path d="M1313.88 580.695L1289 574.232" stroke="black" stroke-width="1.1" stroke-linecap="round" stroke-linejoin="round"/>
<path d="M1587.65 420L1581.23 444.883" stroke="black" stroke-width="1.1" stroke-linecap="round" stroke-linejoin="round"/>
<path d="M1596.88 435.695L1572 429.232" stroke="black" stroke-width="1.1" stroke-linecap="round" stroke-linejoin="round"/>
<path d="M1407.65 410L1401.23 434.883" stroke="black" stroke-width="1.1" stroke-linecap="round" stroke-linejoin="round"/>
<path d="M1416.88 425.695L1392 419.232" stroke="black" stroke-width="1.1" stroke-linecap="round" stroke-linejoin="round"/>
<path d="M1230.46 411.194C1230.67 411.444 1230.89 411.671 1231.12 411.919C1233.63 414.422 1237 415.878 1240.55 415.993C1244.09 416.108 1247.55 414.873 1250.22 412.538C1252.89 410.203 1254.57 406.942 1254.93 403.413C1255.29 399.885 1254.29 396.352 1252.15 393.529C1250 390.705 1246.86 388.801 1243.37 388.202C1239.87 387.602 1236.28 388.351 1233.31 390.298C1230.35 392.246 1228.23 395.245 1227.4 398.691C1226.56 402.137 1227.06 405.773 1228.8 408.864" fill="#FDC886"/>
<path d="M1563.46 278.194C1563.67 278.444 1563.89 278.671 1564.12 278.919C1566.63 281.422 1570 282.878 1573.55 282.993C1577.09 283.108 1580.55 281.873 1583.22 279.538C1585.89 277.203 1587.57 273.942 1587.93 270.413C1588.29 266.885 1587.29 263.352 1585.15 260.529C1583 257.705 1579.86 255.801 1576.37 255.202C1572.87 254.602 1569.28 255.351 1566.31 257.298C1563.35 259.246 1561.23 262.245 1560.4 265.691C1559.56 269.137 1560.06 272.773 1561.8 275.864" fill="#FDC886"/>
<path d="M1521 357.807C1542.42 373.468 1552.7 338.706 1574.16 354.493" stroke="black" stroke-width="1.1" stroke-linecap="round" stroke-linejoin="round"/>
<path d="M1209 466.148C1242.68 490.774 1258.84 436.11 1292.59 460.936" stroke="black" stroke-width="1.1" stroke-linecap="round" stroke-linejoin="round"/>
<path d="M1209 678H1392V856H1209V678Z" fill="#FDDE92"/>
<path d="M1344.98 714.254C1345.1 714.396 1345.22 714.526 1345.35 714.668C1346.79 716.098 1348.72 716.93 1350.74 716.996C1352.77 717.061 1354.74 716.356 1356.27 715.022C1357.79 713.687 1358.75 711.824 1358.96 709.808C1359.16 707.791 1358.6 705.773 1357.37 704.159C1356.14 702.546 1354.35 701.458 1352.35 701.115C1350.36 700.773 1348.3 701.201 1346.61 702.313C1344.91 703.426 1343.71 705.14 1343.23 707.109C1342.75 709.078 1343.03 711.156 1344.03 712.922" fill="black"/>
<path d="M1358.98 769.254C1359.1 769.396 1359.22 769.526 1359.35 769.668C1360.79 771.098 1362.72 771.93 1364.74 771.996C1366.77 772.061 1368.74 771.356 1370.27 770.022C1371.79 768.687 1372.75 766.824 1372.96 764.808C1373.16 762.791 1372.6 760.773 1371.37 759.159C1370.14 757.546 1368.35 756.458 1366.35 756.115C1364.36 755.773 1362.3 756.201 1360.61 757.313C1358.91 758.426 1357.71 760.14 1357.23 762.109C1356.75 764.078 1357.03 766.156 1358.03 767.922" fill="black"/>
<path d="M1258.98 747.254C1259.1 747.396 1259.22 747.526 1259.35 747.668C1260.79 749.098 1262.72 749.93 1264.74 749.996C1266.77 750.061 1268.74 749.356 1270.27 748.022C1271.79 746.687 1272.75 744.824 1272.96 742.808C1273.16 740.791 1272.6 738.773 1271.37 737.159C1270.14 735.546 1268.35 734.458 1266.35 734.115C1264.36 733.773 1262.3 734.201 1260.61 735.313C1258.91 736.426 1257.71 738.14 1257.23 740.109C1256.75 742.078 1257.03 744.156 1258.03 745.922" fill="black"/>
<path d="M1316.98 798.254C1317.1 798.396 1317.22 798.526 1317.35 798.668C1318.79 800.098 1320.72 800.93 1322.74 800.996C1324.77 801.061 1326.74 800.356 1328.27 799.022C1329.79 797.687 1330.75 795.824 1330.96 793.808C1331.16 791.791 1330.6 789.773 1329.37 788.159C1328.14 786.546 1326.35 785.458 1324.35 785.115C1322.36 784.773 1320.3 785.201 1318.61 786.313C1316.91 787.426 1315.71 789.14 1315.23 791.109C1314.75 793.078 1315.03 795.156 1316.03 796.922" fill="black"/>
<path d="M1282.98 832.254C1283.1 832.396 1283.22 832.526 1283.35 832.668C1284.79 834.098 1286.72 834.93 1288.74 834.996C1290.77 835.061 1292.74 834.356 1294.27 833.022C1295.79 831.687 1296.75 829.824 1296.96 827.808C1297.16 825.791 1296.6 823.773 1295.37 822.159C1294.14 820.546 1292.35 819.458 1290.35 819.115C1288.36 818.773 1286.3 819.201 1284.61 820.313C1282.91 821.426 1281.71 823.14 1281.23 825.109C1280.75 827.078 1281.03 829.156 1282.03 830.922" fill="black"/>
<path d="M1288.98 709.254C1289.1 709.396 1289.22 709.526 1289.35 709.668C1290.79 711.098 1292.72 711.93 1294.74 711.996C1296.77 712.061 1298.74 711.356 1300.27 710.022C1301.79 708.687 1302.75 706.824 1302.96 704.808C1303.16 702.791 1302.6 700.773 1301.37 699.159C1300.14 697.546 1298.35 696.458 1296.35 696.115C1294.36 695.773 1292.3 696.201 1290.61 697.313C1288.91 698.426 1287.71 700.14 1287.23 702.109C1286.75 704.078 1287.03 706.156 1288.03 707.922" fill="black"/>
<path d="M1278.98 786.254C1279.1 786.396 1279.22 786.526 1279.35 786.668C1280.79 788.098 1282.72 788.93 1284.74 788.996C1286.77 789.061 1288.74 788.356 1290.27 787.022C1291.79 785.687 1292.75 783.824 1292.96 781.808C1293.16 779.791 1292.6 777.773 1291.37 776.159C1290.14 774.546 1288.35 773.458 1286.35 773.115C1284.36 772.773 1282.3 773.201 1280.61 774.313C1278.91 775.426 1277.71 777.14 1277.23 779.109C1276.75 781.078 1277.03 783.156 1278.03 784.922" fill="black"/>
<path d="M1311.98 752.254C1312.1 752.396 1312.22 752.526 1312.35 752.668C1313.79 754.098 1315.72 754.93 1317.74 754.996C1319.77 755.061 1321.74 754.356 1323.27 753.022C1324.79 751.687 1325.75 749.824 1325.96 747.808C1326.16 745.791 1325.6 743.773 1324.37 742.159C1323.14 740.546 1321.35 739.458 1319.35 739.115C1317.36 738.773 1315.3 739.201 1313.61 740.313C1311.91 741.426 1310.71 743.14 1310.23 745.109C1309.75 747.078 1310.03 749.156 1311.03 750.922" fill="black"/>
<path d="M1344.98 829.254C1345.1 829.396 1345.22 829.526 1345.35 829.668C1346.79 831.098 1348.72 831.93 1350.74 831.996C1352.77 832.061 1354.74 831.356 1356.27 830.022C1357.79 828.687 1358.75 826.824 1358.96 824.808C1359.16 822.791 1358.6 820.773 1357.37 819.159C1356.14 817.546 1354.35 816.458 1352.35 816.115C1350.36 815.773 1348.3 816.201 1346.61 817.313C1344.91 818.426 1343.71 820.14 1343.23 822.109C1342.75 824.078 1343.03 826.156 1344.03 827.922" fill="black"/>
<path d="M1244.98 816.254C1245.1 816.396 1245.22 816.526 1245.35 816.668C1246.79 818.098 1248.72 818.93 1250.74 818.996C1252.77 819.061 1254.74 818.356 1256.27 817.022C1257.79 815.687 1258.75 813.824 1258.96 811.808C1259.16 809.791 1258.6 807.773 1257.37 806.159C1256.14 804.546 1254.35 803.458 1252.35 803.115C1250.36 802.773 1248.3 803.201 1246.61 804.313C1244.91 805.426 1243.71 807.14 1243.23 809.109C1242.75 811.078 1243.03 813.156 1244.03 814.922" fill="black"/>
<path d="M1230.98 712.254C1231.1 712.396 1231.22 712.526 1231.35 712.668C1232.79 714.098 1234.72 714.93 1236.74 714.996C1238.77 715.061 1240.74 714.356 1242.27 713.022C1243.79 711.687 1244.75 709.824 1244.96 707.808C1245.16 705.791 1244.6 703.773 1243.37 702.159C1242.14 700.546 1240.35 699.458 1238.35 699.115C1236.36 698.773 1234.3 699.201 1232.61 700.313C1230.91 701.426 1229.71 703.14 1229.23 705.109C1228.75 707.078 1229.03 709.156 1230.03 710.922" fill="black"/>
<path d="M1209 678H1392V856H1209V678Z" fill="#FDDE92"/>
<path d="M1344.98 714.254C1345.1 714.396 1345.22 714.526 1345.35 714.668C1346.79 716.098 1348.72 716.93 1350.74 716.996C1352.77 717.061 1354.74 716.356 1356.27 715.022C1357.79 713.687 1358.75 711.824 1358.96 709.808C1359.16 707.791 1358.6 705.773 1357.37 704.159C1356.14 702.546 1354.35 701.458 1352.35 701.115C1350.36 700.773 1348.3 701.201 1346.61 702.313C1344.91 703.426 1343.71 705.14 1343.23 707.109C1342.75 709.078 1343.03 711.156 1344.03 712.922" fill="black"/>
<path d="M1358.98 769.254C1359.1 769.396 1359.22 769.526 1359.35 769.668C1360.79 771.098 1362.72 771.93 1364.74 771.996C1366.77 772.061 1368.74 771.356 1370.27 770.022C1371.79 768.687 1372.75 766.824 1372.96 764.808C1373.16 762.791 1372.6 760.773 1371.37 759.159C1370.14 757.546 1368.35 756.458 1366.35 756.115C1364.36 755.773 1362.3 756.201 1360.61 757.313C1358.91 758.426 1357.71 760.14 1357.23 762.109C1356.75 764.078 1357.03 766.156 1358.03 767.922" fill="black"/>
<path d="M1258.98 747.254C1259.1 747.396 1259.22 747.526 1259.35 747.668C1260.79 749.098 1262.72 749.93 1264.74 749.996C1266.77 750.061 1268.74 749.356 1270.27 748.022C1271.79 746.687 1272.75 744.824 1272.96 742.808C1273.16 740.791 1272.6 738.773 1271.37 737.159C1270.14 735.546 1268.35 734.458 1266.35 734.115C1264.36 733.773 1262.3 734.201 1260.61 735.313C1258.91 736.426 1257.71 738.14 1257.23 740.109C1256.75 742.078 1257.03 744.156 1258.03 745.922" fill="black"/>
<path d="M1316.98 798.254C1317.1 798.396 1317.22 798.526 1317.35 798.668C1318.79 800.098 1320.72 800.93 1322.74 800.996C1324.77 801.061 1326.74 800.356 1328.27 799.022C1329.79 797.687 1330.75 795.824 1330.96 793.808C1331.16 791.791 1330.6 789.773 1329.37 788.159C1328.14 786.546 1326.35 785.458 1324.35 785.115C1322.36 784.773 1320.3 785.201 1318.61 786.313C1316.91 787.426 1315.71 789.14 1315.23 791.109C1314.75 793.078 1315.03 795.156 1316.03 796.922" fill="black"/>
<path d="M1282.98 832.254C1283.1 832.396 1283.22 832.526 1283.35 832.668C1284.79 834.098 1286.72 834.93 1288.74 834.996C1290.77 835.061 1292.74 834.356 1294.27 833.022C1295.79 831.687 1296.75 829.824 1296.96 827.808C1297.16 825.791 1296.6 823.773 1295.37 822.159C1294.14 820.546 1292.35 819.458 1290.35 819.115C1288.36 818.773 1286.3 819.201 1284.61 820.313C1282.91 821.426 1281.71 823.14 1281.23 825.109C1280.75 827.078 1281.03 829.156 1282.03 830.922" fill="black"/>
<path d="M1288.98 709.254C1289.1 709.396 1289.22 709.526 1289.35 709.668C1290.79 711.098 1292.72 711.93 1294.74 711.996C1296.77 712.061 1298.74 711.356 1300.27 710.022C1301.79 708.687 1302.75 706.824 1302.96 704.808C1303.16 702.791 1302.6 700.773 1301.37 699.159C1300.14 697.546 1298.35 696.458 1296.35 696.115C1294.36 695.773 1292.3 696.201 1290.61 697.313C1288.91 698.426 1287.71 700.14 1287.23 702.109C1286.75 704.078 1287.03 706.156 1288.03 707.922" fill="black"/>
<path d="M1278.98 786.254C1279.1 786.396 1279.22 786.526 1279.35 786.668C1280.79 788.098 1282.72 788.93 1284.74 788.996C1286.77 789.061 1288.74 788.356 1290.27 787.022C1291.79 785.687 1292.75 783.824 1292.96 781.808C1293.16 779.791 1292.6 777.773 1291.37 776.159C1290.14 774.546 1288.35 773.458 1286.35 773.115C1284.36 772.773 1282.3 773.201 1280.61 774.313C1278.91 775.426 1277.71 777.14 1277.23 779.109C1276.75 781.078 1277.03 783.156 1278.03 784.922" fill="black"/>
<path d="M1311.98 752.254C1312.1 752.396 1312.22 752.526 1312.35 752.668C1313.79 754.098 1315.72 754.93 1317.74 754.996C1319.77 755.061 1321.74 754.356 1323.27 753.022C1324.79 751.687 1325.75 749.824 1325.96 747.808C1326.16 745.791 1325.6 743.773 1324.37 742.159C1323.14 740.546 1321.35 739.458 1319.35 739.115C1317.36 738.773 1315.3 739.201 1313.61 740.313C1311.91 741.426 1310.71 743.14 1310.23 745.109C1309.75 747.078 1310.03 749.156 1311.03 750.922" fill="black"/>
<path d="M1344.98 829.254C1345.1 829.396 1345.22 829.526 1345.35 829.668C1346.79 831.098 1348.72 831.93 1350.74 831.996C1352.77 832.061 1354.74 831.356 1356.27 830.022C1357.79 828.687 1358.75 826.824 1358.96 824.808C1359.16 822.791 1358.6 820.773 1357.37 819.159C1356.14 817.546 1354.35 816.458 1352.35 816.115C1350.36 815.773 1348.3 816.201 1346.61 817.313C1344.91 818.426 1343.71 820.14 1343.23 822.109C1342.75 824.078 1343.03 826.156 1344.03 827.922" fill="black"/>
<path d="M1244.98 816.254C1245.1 816.396 1245.22 816.526 1245.35 816.668C1246.79 818.098 1248.72 818.93 1250.74 818.996C1252.77 819.061 1254.74 818.356 1256.27 817.022C1257.79 815.687 1258.75 813.824 1258.96 811.808C1259.16 809.791 1258.6 807.773 1257.37 806.159C1256.14 804.546 1254.35 803.458 1252.35 803.115C1250.36 802.773 1248.3 803.201 1246.61 804.313C1244.91 805.426 1243.71 807.14 1243.23 809.109C1242.75 811.078 1243.03 813.156 1244.03 814.922" fill="black"/>
<path d="M1230.98 712.254C1231.1 712.396 1231.22 712.526 1231.35 712.668C1232.79 714.098 1234.72 714.93 1236.74 714.996C1238.77 715.061 1240.74 714.356 1242.27 713.022C1243.79 711.687 1244.75 709.824 1244.96 707.808C1245.16 705.791 1244.6 703.773 1243.37 702.159C1242.14 700.546 1240.35 699.458 1238.35 699.115C1236.36 698.773 1234.3 699.201 1232.61 700.313C1230.91 701.426 1229.71 703.14 1229.23 705.109C1228.75 707.078 1229.03 709.156 1230.03 710.922" fill="black"/>
<rect x="1430.5" y="592.5" width="153" height="263" fill="white" stroke="black"/>
<rect x="1490" y="591" width="34" height="265" fill="#CFD181"/>
<path d="M1505.77 590.091C1505.77 590.091 1475.42 570.487 1467.2 554.346C1458.97 538.204 1481.64 521.315 1492.2 542.096C1502.93 563.201 1505.77 590.091 1505.77 590.091Z" stroke="black" stroke-width="1.1" stroke-linecap="round" stroke-linejoin="round"/>
<path d="M1506.41 590.478C1506.41 590.478 1537.8 572.616 1546.92 556.93C1556.04 541.244 1534.33 523.184 1522.66 543.298C1510.74 563.791 1506.41 590.478 1506.41 590.478Z" stroke="black" stroke-width="1.1" stroke-linecap="round" stroke-linejoin="round"/>
</svg>
