<svg width="1728" height="1117" viewBox="0 0 1728 1117" fill="none" xmlns="http://www.w3.org/2000/svg">
<g clip-path="url(#clip0_3645_4158)">
<rect width="1728" height="1117" rx="24" fill="#F5F2EA"/>
<rect x="-646" width="1404" height="1145" fill="#D8E5F2"/>
<path d="M82 905L722 905" stroke="black"/>
<path d="M479 593.431C413.651 641.208 382.299 535.153 316.82 583.318" stroke="black" stroke-width="1.1" stroke-linecap="round" stroke-linejoin="round"/>
<path d="M91.3509 431L97.7686 455.883" stroke="black" stroke-width="1.1" stroke-linecap="round" stroke-linejoin="round"/>
<path d="M82.1168 446.695L107 440.231" stroke="black" stroke-width="1.1" stroke-linecap="round" stroke-linejoin="round"/>
<path d="M276.351 428L282.769 452.883" stroke="black" stroke-width="1.1" stroke-linecap="round" stroke-linejoin="round"/>
<path d="M267.117 443.695L292 437.231" stroke="black" stroke-width="1.1" stroke-linecap="round" stroke-linejoin="round"/>
<path d="M453.536 517.194C453.333 517.444 453.113 517.671 452.88 517.919C450.367 520.422 446.998 521.878 443.453 521.993C439.908 522.108 436.453 520.873 433.783 518.538C431.114 516.203 429.429 512.942 429.072 509.413C428.713 505.885 429.707 502.352 431.854 499.529C434 496.705 437.137 494.801 440.633 494.202C444.128 493.602 447.722 494.351 450.685 496.298C453.65 498.246 455.765 501.245 456.603 504.691C457.441 508.137 456.941 511.773 455.202 514.864" fill="#FDC886"/>
<path d="M585.536 698.194C585.333 698.444 585.113 698.671 584.88 698.919C582.367 701.422 578.998 702.878 575.453 702.993C571.908 703.108 568.453 701.873 565.783 699.538C563.114 697.203 561.429 693.942 561.072 690.413C560.713 686.885 561.707 683.352 563.854 680.529C566 677.705 569.137 675.801 572.633 675.202C576.128 674.602 579.722 675.351 582.685 677.298C585.65 679.246 587.765 682.245 588.603 685.691C589.441 689.137 588.941 692.773 587.202 695.864" fill="#FDC886"/>
<path d="M102.536 302.194C102.333 302.444 102.113 302.671 101.88 302.919C99.3669 305.422 95.9983 306.878 92.4533 306.993C88.9083 307.108 85.4527 305.873 82.7826 303.538C80.1137 301.203 78.4294 297.942 78.0718 294.413C77.713 290.885 78.7072 287.352 80.854 284.529C82.9996 281.705 86.1369 279.801 89.633 279.202C93.128 278.602 96.7219 279.351 99.6852 281.298C102.65 283.246 104.765 286.245 105.603 289.691C106.441 293.137 105.941 296.773 104.202 299.864" fill="#FDC886"/>
<path d="M145 381.807C123.58 397.468 113.304 362.706 91.842 378.493" stroke="black" stroke-width="1.1" stroke-linecap="round" stroke-linejoin="round"/>
<path d="M457 702H274V880H457V702Z" fill="#FDDE92"/>
<path d="M321.021 738.254C320.904 738.396 320.779 738.526 320.646 738.668C319.21 740.098 317.285 740.93 315.259 740.996C313.233 741.061 311.259 740.356 309.733 739.022C308.208 737.687 307.245 735.824 307.041 733.808C306.836 731.791 307.404 729.773 308.631 728.159C309.857 726.546 311.65 725.458 313.647 725.115C315.645 724.773 317.698 725.201 319.392 726.313C321.086 727.426 322.295 729.14 322.773 731.109C323.252 733.078 322.966 735.156 321.972 736.922" fill="black"/>
<path d="M307.021 793.254C306.904 793.396 306.779 793.526 306.646 793.668C305.21 795.098 303.285 795.93 301.259 795.996C299.233 796.061 297.259 795.356 295.733 794.022C294.208 792.687 293.245 790.824 293.041 788.808C292.836 786.791 293.404 784.773 294.631 783.159C295.857 781.546 297.65 780.458 299.647 780.115C301.645 779.773 303.698 780.201 305.392 781.313C307.086 782.426 308.295 784.14 308.773 786.109C309.252 788.078 308.966 790.156 307.972 791.922" fill="black"/>
<path d="M407.021 771.254C406.904 771.396 406.779 771.526 406.646 771.668C405.21 773.098 403.285 773.93 401.259 773.996C399.233 774.061 397.259 773.356 395.733 772.022C394.208 770.687 393.245 768.824 393.041 766.808C392.836 764.791 393.404 762.773 394.631 761.159C395.857 759.546 397.65 758.458 399.647 758.115C401.645 757.773 403.698 758.201 405.392 759.313C407.086 760.426 408.295 762.14 408.773 764.109C409.252 766.078 408.966 768.156 407.972 769.922" fill="black"/>
<path d="M349.021 822.254C348.904 822.396 348.779 822.526 348.646 822.668C347.21 824.098 345.285 824.93 343.259 824.996C341.233 825.061 339.259 824.356 337.733 823.022C336.208 821.687 335.245 819.824 335.041 817.808C334.836 815.791 335.404 813.773 336.631 812.159C337.857 810.546 339.65 809.458 341.647 809.115C343.645 808.773 345.698 809.201 347.392 810.313C349.086 811.426 350.295 813.14 350.773 815.109C351.252 817.078 350.966 819.156 349.972 820.922" fill="black"/>
<path d="M383.021 856.254C382.904 856.396 382.779 856.526 382.646 856.668C381.21 858.098 379.285 858.93 377.259 858.996C375.233 859.061 373.259 858.356 371.733 857.022C370.208 855.687 369.245 853.824 369.041 851.808C368.836 849.791 369.404 847.773 370.631 846.159C371.857 844.546 373.65 843.458 375.647 843.115C377.645 842.773 379.698 843.201 381.392 844.313C383.086 845.426 384.295 847.14 384.773 849.109C385.252 851.078 384.966 853.156 383.972 854.922" fill="black"/>
<path d="M377.021 733.254C376.904 733.396 376.779 733.526 376.646 733.668C375.21 735.098 373.285 735.93 371.259 735.996C369.233 736.061 367.259 735.356 365.733 734.022C364.208 732.687 363.245 730.824 363.041 728.808C362.836 726.791 363.404 724.773 364.631 723.159C365.857 721.546 367.65 720.458 369.647 720.115C371.645 719.773 373.698 720.201 375.392 721.313C377.086 722.426 378.295 724.14 378.773 726.109C379.252 728.078 378.966 730.156 377.972 731.922" fill="black"/>
<path d="M387.021 810.254C386.904 810.396 386.779 810.526 386.646 810.668C385.21 812.098 383.285 812.93 381.259 812.996C379.233 813.061 377.259 812.356 375.733 811.022C374.208 809.687 373.245 807.824 373.041 805.808C372.836 803.791 373.404 801.773 374.631 800.159C375.857 798.546 377.65 797.458 379.647 797.115C381.645 796.773 383.698 797.201 385.392 798.313C387.086 799.426 388.295 801.14 388.773 803.109C389.252 805.078 388.966 807.156 387.972 808.922" fill="black"/>
<path d="M354.021 776.254C353.904 776.396 353.779 776.526 353.646 776.668C352.21 778.098 350.285 778.93 348.259 778.996C346.233 779.061 344.259 778.356 342.733 777.022C341.208 775.687 340.245 773.824 340.041 771.808C339.836 769.791 340.404 767.773 341.631 766.159C342.857 764.546 344.65 763.458 346.647 763.115C348.645 762.773 350.698 763.201 352.392 764.313C354.086 765.426 355.295 767.14 355.773 769.109C356.252 771.078 355.966 773.156 354.972 774.922" fill="black"/>
<path d="M321.021 853.254C320.904 853.396 320.779 853.526 320.646 853.668C319.21 855.098 317.285 855.93 315.259 855.996C313.233 856.061 311.259 855.356 309.733 854.022C308.208 852.687 307.245 850.824 307.041 848.808C306.836 846.791 307.404 844.773 308.631 843.159C309.857 841.546 311.65 840.458 313.647 840.115C315.645 839.773 317.698 840.201 319.392 841.313C321.086 842.426 322.295 844.14 322.773 846.109C323.252 848.078 322.966 850.156 321.972 851.922" fill="black"/>
<path d="M421.021 840.254C420.904 840.396 420.779 840.526 420.646 840.668C419.21 842.098 417.285 842.93 415.259 842.996C413.233 843.061 411.259 842.356 409.733 841.022C408.208 839.687 407.245 837.824 407.041 835.808C406.836 833.791 407.404 831.773 408.631 830.159C409.857 828.546 411.65 827.458 413.647 827.115C415.645 826.773 417.698 827.201 419.392 828.313C421.086 829.426 422.295 831.14 422.773 833.109C423.252 835.078 422.966 837.156 421.972 838.922" fill="black"/>
<path d="M435.021 736.254C434.904 736.396 434.779 736.526 434.646 736.668C433.21 738.098 431.285 738.93 429.259 738.996C427.233 739.061 425.259 738.356 423.733 737.022C422.208 735.687 421.245 733.824 421.041 731.808C420.836 729.791 421.404 727.773 422.631 726.159C423.857 724.546 425.65 723.458 427.647 723.115C429.645 722.773 431.698 723.201 433.392 724.313C435.086 725.426 436.295 727.14 436.773 729.109C437.252 731.078 436.966 733.156 435.972 734.922" fill="black"/>
<rect x="-0.5" y="0.5" width="153" height="263" transform="matrix(-1 0 0 1 235 616)" fill="white" stroke="black"/>
<rect width="34" height="265" transform="matrix(-1 0 0 1 176 615)" fill="#CFD181"/>
<path d="M160.234 614.091C160.234 614.091 190.583 594.487 198.804 578.346C207.026 562.204 184.358 545.315 173.8 566.096C163.068 587.201 160.234 614.091 160.234 614.091Z" stroke="black" stroke-width="1.1" stroke-linecap="round" stroke-linejoin="round"/>
<path d="M159.586 614.478C159.586 614.478 128.203 596.616 119.079 580.93C109.954 565.244 131.666 547.184 143.339 567.298C155.257 587.791 159.586 614.478 159.586 614.478Z" stroke="black" stroke-width="1.1" stroke-linecap="round" stroke-linejoin="round"/>
<rect x="-0.5" y="0.5" width="132" height="131" transform="matrix(-1 0 0 1 721 748)" fill="white" stroke="black"/>
</g>
<defs>
<clipPath id="clip0_3645_4158">
<rect width="1728" height="1117" rx="24" fill="white"/>
</clipPath>
</defs>
</svg>
