<svg width="1728" height="1117" viewBox="0 0 1728 1117" fill="none" xmlns="http://www.w3.org/2000/svg">
<rect width="1728" height="1117" rx="24" fill="#F5F2EA"/>
<path d="M89 870H1638.5" stroke="black"/>
<rect x="184" y="666" width="139" height="191" rx="24" fill="#FDDE92"/>
<rect x="184" y="666" width="139" height="191" rx="24" fill="#FDC886"/>
<rect x="355.5" y="725.5" width="132" height="131" fill="white" stroke="black"/>
<path d="M252.766 666.091C252.766 666.091 222.417 646.487 214.196 630.346C205.974 614.204 228.642 597.315 239.2 618.096C249.932 639.201 252.766 666.091 252.766 666.091Z" stroke="black" stroke-width="1.1" stroke-linecap="round" stroke-linejoin="round"/>
<path d="M253.413 666.478C253.413 666.478 284.796 648.616 293.92 632.93C303.045 617.244 281.333 599.184 269.66 619.298C257.742 639.791 253.413 666.478 253.413 666.478Z" stroke="black" stroke-width="1.1" stroke-linecap="round" stroke-linejoin="round"/>
<rect x="241.5" y="666.5" width="23" height="190" fill="#F5F2EA" stroke="black"/>
<path d="M1314.23 677.872C1313.49 676.266 1312.43 674.822 1311.13 673.624C1309.82 672.426 1308.3 671.498 1306.63 670.896C1304.97 670.29 1303.2 670.018 1301.43 670.098C1299.66 670.179 1297.92 670.609 1296.32 671.362L1275.73 680.965L1288.28 707.938C1291.55 709.387 1294.92 710.604 1298.35 711.583C1288.7 696.116 1292.21 693.439 1302.37 704.519C1312.14 715.187 1324.21 716.089 1332.33 716.849L1314.23 677.872Z" fill="#FDC886"/>
<path d="M1311.65 743.067C1309.01 742.294 1306.22 741.448 1303.43 740.573L1313.49 762.181C1311.8 755.96 1311.18 749.496 1311.65 743.067Z" fill="#FDC886"/>
<path d="M1318.76 767.308C1317.39 767.894 1315.95 766.803 1315.07 765.459L1319.09 774.049L1339.08 764.72C1333.35 765.51 1322.13 766.89 1318.76 767.308Z" fill="#FDC886"/>
<path d="M1285.47 734.163C1281.5 732.593 1277.44 730.977 1273.6 729.084C1268.43 726.545 1268.74 723.913 1273.79 725.114C1275.64 725.529 1277.81 725.806 1281.36 726.265C1277.29 724.756 1273.33 722.983 1269.5 720.956C1264.28 718.003 1265.29 714.584 1270.28 716.388C1271.62 716.895 1274.71 717.863 1278.31 718.786L1277.76 717.632C1274.91 716.013 1272.15 714.242 1269.5 712.325C1264.7 708.629 1266.08 705.397 1270.79 707.89C1271.48 708.259 1272.55 708.721 1273.84 709.275L1263.31 686.652L1242.76 696.255C1241.16 697.001 1239.71 698.056 1238.52 699.361C1237.32 700.665 1236.39 702.194 1235.79 703.858C1235.18 705.523 1234.91 707.292 1234.99 709.061C1235.07 710.83 1235.5 712.565 1236.25 714.169L1268.2 782.875C1268.95 784.481 1270 785.924 1271.31 787.122C1272.61 788.318 1274.14 789.246 1275.81 789.851C1277.47 790.456 1279.24 790.726 1281.01 790.646C1282.78 790.566 1284.51 790.138 1286.12 789.385L1306.71 779.779L1285.47 734.163Z" fill="#FDC886"/>
<path d="M1446.47 654.415C1442.87 656.08 1442.04 662.634 1443.56 671.731C1450.86 671.143 1458.08 669.829 1465.12 667.807C1457.97 658.204 1450.67 652.476 1446.47 654.415Z" fill="#CFD181"/>
<path d="M1483.27 703.958C1476.67 709.192 1468.92 712.774 1460.65 714.407C1469.33 728.304 1478.56 736.707 1483.69 734.306C1488.81 731.94 1488.35 719.52 1483.27 703.958Z" fill="#CFD181"/>
<path d="M1655.73 460.078C1644.32 469.913 1623.64 502.742 1619.8 514.608C1620.5 520.333 1621.05 524.396 1621.42 527.858C1629.92 528.995 1638.55 528.823 1647 527.351L1646.91 523.565C1656.79 491.292 1657.16 477.438 1655.73 460.078Z" fill="#CFD181"/>
<path d="M1518.69 420.601C1510.47 435.329 1501.89 469.128 1501.2 484.459C1503.64 488.381 1506 492.259 1508.26 496.093C1514.78 490.292 1522.18 485.569 1530.19 482.102C1530.34 473.511 1531.48 458.166 1518.69 420.601Z" fill="#CFD181"/>
<path d="M1311.65 743.067C1311.01 756.41 1313.64 767.124 1317.75 767.444C1321.64 767.77 1325.55 758.903 1327.12 746.899C1321.86 746.075 1316.69 744.792 1311.65 743.067Z" fill="#CFD181"/>
<path d="M1424.96 790.809C1422.03 792.136 1419.39 794.029 1417.19 796.378C1414.98 798.726 1413.27 801.486 1412.13 804.497C1411 807.51 1410.47 810.715 1410.58 813.933C1410.68 817.148 1411.42 820.314 1412.75 823.244C1414.07 826.175 1415.97 828.816 1418.31 831.018C1420.66 833.22 1423.42 834.935 1426.43 836.067C1429.45 837.202 1432.65 837.732 1435.87 837.628C1439.09 837.523 1442.25 836.784 1445.18 835.458L1424.96 790.809Z" fill="#CFD181"/>
<path d="M1647.51 546.19L1647.65 552.931C1655.73 550.941 1655.54 548.037 1647.51 546.19Z" fill="#CFD181"/>
<path d="M1508.21 524.996C1509.24 526.787 1515.23 525.365 1522.89 521.856C1521.55 519.225 1520.08 516.51 1518.55 513.684C1511.49 518.622 1507.16 523.186 1508.21 524.996Z" fill="#CFD181"/>
<path d="M1549.3 501.265C1548.61 500.064 1545.7 500.293 1541.59 501.634L1545.15 507.728C1548.38 504.82 1550 502.465 1549.3 501.265Z" fill="#CFD181"/>
<path d="M1430.78 697.679C1429.57 701.543 1427.96 705.273 1425.98 708.806L1430.92 711.163L1430.78 697.679Z" fill="#CFD181"/>
<path d="M1403.54 659.127L1401.32 666.145L1399.84 661.066L1403.54 659.127Z" fill="#CFD181"/>
<path d="M1605.95 549.561C1605.95 551.777 1612.6 553.624 1621.84 554.316C1621.97 550.576 1622.02 547.483 1622.07 544.805C1612.69 545.452 1605.95 547.345 1605.95 549.561Z" fill="#CFD181"/>
<path d="M1655.45 589.867C1662.37 605.418 1666.14 622.188 1666.54 639.206C1666.94 656.223 1663.96 673.153 1657.77 689.011C1651.58 704.867 1642.31 719.342 1630.49 731.592C1618.67 743.842 1604.54 753.627 1588.91 760.38" stroke="#1F2223" stroke-width="1.1" stroke-linecap="round" stroke-linejoin="round"/>
<path d="M1557.47 515.162C1581.42 518.809 1603.85 529.167 1622.16 545.036" stroke="#1F2223" stroke-width="1.1" stroke-linecap="round" stroke-linejoin="round"/>
<path d="M1480.59 527.166C1491.77 521.578 1503.7 517.659 1516.01 515.533" stroke="#1F2223" stroke-width="1.1" stroke-linecap="round" stroke-linejoin="round"/>
<path d="M1404.04 744.544L1455.38 857.85" stroke="#1F2223" stroke-width="1.1" stroke-linecap="round" stroke-linejoin="round"/>
<path d="M1376.52 683.782L1304.08 524.026C1300.16 515.521 1305.7 508.005 1314.98 509.203L1440.75 525.64C1448.06 526.597 1455.01 529.384 1460.96 533.743C1466.91 538.101 1471.66 543.891 1474.77 550.574L1617.07 857.755" stroke="#1F2223" stroke-width="1.1" stroke-linecap="round" stroke-linejoin="round"/>
<path d="M1402.04 669.061C1386.02 679.869 1368.6 688.428 1350.25 694.493C1341.25 695.786 1332.19 696.571 1323.1 696.848" stroke="#1F2223" stroke-width="1.1" stroke-linecap="round" stroke-linejoin="round"/>
<path d="M1332.29 716.796L1314.18 677.826C1312.66 674.589 1309.93 672.084 1306.57 670.864C1303.21 669.644 1299.5 669.807 1296.26 671.316L1242.76 696.294C1239.52 697.808 1237.02 700.544 1235.8 703.902C1234.57 707.263 1234.74 710.969 1236.25 714.208L1268.2 782.914C1269.71 786.15 1272.45 788.656 1275.81 789.876C1279.17 791.095 1282.87 790.933 1286.11 789.424L1339.07 764.72" stroke="#1F2223" stroke-width="1.1" stroke-linecap="round" stroke-linejoin="round"/>
<path d="M1269.26 683.874C1269.26 683.874 1233.29 680.564 1218.52 670.069C1203.76 659.574 1216.02 634.105 1235 647.628C1254.29 661.358 1269.26 683.874 1269.26 683.874Z" stroke="#1F2223" stroke-width="1.1" stroke-linecap="round" stroke-linejoin="round"/>
<path d="M1269.22 683.874C1269.22 683.874 1291.59 655.528 1294.16 637.563C1296.72 619.598 1269.81 611.02 1266.55 634.047C1263.21 657.516 1269.22 683.874 1269.22 683.874Z" stroke="#1F2223" stroke-width="1.1" stroke-linecap="round" stroke-linejoin="round"/>
<path d="M1401.24 666.383L1403.53 659.093C1403.53 659.093 1381.97 673.729 1385.94 642.239C1388.79 619.64 1400.61 630.575 1403.35 638.888C1404 640.832 1404.78 641.446 1406.76 638.499C1410.31 633.233 1416.86 640.295 1409.2 647.548C1407.73 648.943 1408.29 659.307 1417.1 666.85C1422.69 671.642 1440 674.975 1465.07 667.822" stroke="#1F2223" stroke-width="1.1" stroke-linecap="round" stroke-linejoin="round"/>
<path d="M1399.84 661.066C1401.28 667.287 1403.33 673.35 1405.98 679.165" stroke="#1F2223" stroke-width="1.1" stroke-linecap="round" stroke-linejoin="round"/>
<path d="M1413.51 663.051C1407.92 680.919 1391.48 700.772 1378.6 716.934C1359.82 718.545 1340.92 718.11 1322.23 715.639" stroke="#1F2223" stroke-width="1.1" stroke-linecap="round" stroke-linejoin="round"/>
<path d="M1483.28 703.958C1475.27 710.315 1465.56 714.169 1455.37 715.034C1445.18 715.899 1434.97 713.736 1426 708.818C1419.51 720.978 1412.3 732.737 1404.41 744.034C1401.8 747.965 1397.92 750.881 1393.42 752.296C1369.07 759.775 1344.03 764.817 1318.67 767.347" stroke="#1F2223" stroke-width="1.1" stroke-linecap="round" stroke-linejoin="round"/>
<path d="M1460.65 714.395C1469.33 728.292 1478.55 736.676 1483.69 734.294C1499.57 726.924 1462.61 646.97 1446.47 654.415C1442.87 656.08 1442.04 662.634 1443.56 671.731" stroke="#1F2223" stroke-width="1.1" stroke-linecap="round" stroke-linejoin="round"/>
<path d="M1605.95 549.561C1606.41 563.781 1608.16 615.171 1608.16 620.48C1600.04 621.727 1535.91 637.148 1532.26 637.794" stroke="#1F2223" stroke-width="1.1" stroke-linecap="round" stroke-linejoin="round"/>
<path d="M1558.4 693.985C1655.78 659.722 1653.64 661.341 1655.6 634.608C1656.84 617.572 1654.81 568.721 1653.61 549.515" stroke="#1F2223" stroke-width="1.1" stroke-linecap="round" stroke-linejoin="round"/>
<path d="M1508.2 524.996C1515.22 537.369 1543.2 583.634 1545.7 588.297C1543.02 590.283 1530.78 603.536 1520.67 613.047" stroke="#1F2223" stroke-width="1.1" stroke-linecap="round" stroke-linejoin="round"/>
<path d="M1581.8 626.252C1600.87 596.747 1597.17 589.41 1591.28 577.124C1583.65 561.247 1558.5 516.27 1549.17 501.126" stroke="#1F2223" stroke-width="1.1" stroke-linecap="round" stroke-linejoin="round"/>
<path d="M1303.78 514.26C1306.29 508.405 1310.63 503.523 1316.15 500.354C1321.68 497.185 1328.08 495.9 1334.4 496.694L1457.72 512.576C1463.07 513.261 1468.15 515.29 1472.49 518.472C1476.84 521.654 1480.31 525.886 1482.58 530.772L1634.06 857.763" stroke="#1F2223" stroke-width="1.1" stroke-linecap="round" stroke-linejoin="round"/>
<path d="M1329.25 528.736C1330.95 532.429 1330.35 536.354 1327.91 537.508C1325.46 538.662 1322.04 536.585 1320.33 532.891C1318.63 529.197 1319.22 525.253 1321.67 524.119C1324.13 522.984 1327.54 525.042 1329.25 528.736Z" stroke="#1F2223" stroke-width="1.1" stroke-linecap="round" stroke-linejoin="round"/>
<path d="M1606.59 568.075C1622.19 573.195 1638.15 572.692 1654.57 568.075" stroke="#1F2223" stroke-width="1.1" stroke-linecap="round" stroke-linejoin="round"/>
<path d="M1517.66 541.104C1533.68 538.049 1548.1 529.425 1558.38 516.758" stroke="#1F2223" stroke-width="1.1" stroke-linecap="round" stroke-linejoin="round"/>
<path d="M1622.85 774.695C1645.11 786.653 1649.77 752.531 1672.03 764.489" stroke="#1F2223" stroke-width="1.1" stroke-linecap="round" stroke-linejoin="round"/>
<path d="M1303.02 712.779C1294.16 710.704 1285.67 707.28 1277.85 702.622C1273.14 700.036 1271.38 702.636 1275.96 706.685C1280.2 710.283 1284.81 713.428 1289.72 716.06" stroke="#1F2223" stroke-width="1.1" stroke-linecap="round" stroke-linejoin="round"/>
<path d="M1285.5 713.654C1280.51 712.057 1275.62 710.145 1270.87 707.929C1266.12 705.423 1264.73 708.658 1269.57 712.361C1275.45 716.366 1281.62 719.918 1288.04 722.983" stroke="#1F2223" stroke-width="1.1" stroke-linecap="round" stroke-linejoin="round"/>
<path d="M1281.04 719.474C1277.41 718.633 1273.84 717.6 1270.32 716.38C1265.36 714.519 1264.33 717.984 1269.54 720.951C1275.05 723.816 1280.8 726.21 1286.72 728.107" stroke="#1F2223" stroke-width="1.1" stroke-linecap="round" stroke-linejoin="round"/>
<path d="M1327.11 746.899C1325.82 747.314 1303.15 741.084 1289.81 735.91C1284.46 733.833 1278.87 731.745 1273.65 729.169C1268.39 726.574 1268.7 723.979 1273.79 725.153C1275.63 725.578 1277.8 725.845 1281.36 726.307" stroke="#1F2223" stroke-width="1.1" stroke-linecap="round" stroke-linejoin="round"/>
<path d="M1311.65 743.067C1311 756.41 1313.64 767.111 1317.75 767.444C1328.03 768.278 1332.08 717.326 1321.86 715.549C1314.41 713.887 1307.61 710.062 1302.33 704.558C1292.2 693.49 1289.03 695.878 1298.63 711.345" stroke="#1F2223" stroke-width="1.1" stroke-linecap="round" stroke-linejoin="round"/>
<path d="M1424.96 790.855C1420.61 792.816 1416.93 796.002 1414.37 800.021C1411.81 804.04 1410.48 808.723 1410.54 813.488C1410.6 818.253 1412.05 822.899 1414.71 826.853C1417.38 830.807 1421.14 833.897 1425.53 835.747C1429.92 837.596 1434.76 838.121 1439.45 837.261C1444.14 836.4 1448.47 834.189 1451.92 830.901C1455.37 827.611 1457.79 823.388 1458.87 818.744C1459.96 814.103 1459.66 809.245 1458.02 804.769C1456.86 801.61 1455.07 798.723 1452.74 796.291C1450.42 793.856 1447.62 791.927 1444.52 790.622C1441.41 789.317 1438.08 788.663 1434.71 788.704C1431.35 788.743 1428.03 789.477 1424.96 790.855Z" stroke="#1F2223" stroke-width="1.1" stroke-linecap="round" stroke-linejoin="round"/>
<path d="M1541.59 501.634C1545.69 500.295 1548.59 500.069 1549.3 501.265C1551.24 504.579 1537.13 513.901 1533.82 515.93C1529.44 518.603 1510.56 529.09 1508.2 524.996C1507.16 523.186 1511.48 518.624 1518.54 513.684" stroke="#1F2223" stroke-width="1.1" stroke-linecap="round" stroke-linejoin="round"/>
<path d="M1530.18 482.102C1522.2 485.566 1514.81 490.272 1508.3 496.047C1513.42 504.727 1518.78 513.786 1522.89 521.805C1530.91 518.131 1538.39 513.39 1545.14 507.711L1530.18 482.102Z" stroke="#1F2223" stroke-width="1.1" stroke-linecap="round" stroke-linejoin="round"/>
<path d="M1646.99 527.351C1638.54 528.823 1629.92 528.995 1621.41 527.858C1622.27 536.652 1622.41 545.5 1621.83 554.316C1630.46 555.038 1639.15 554.556 1647.64 552.885C1647 527.1 1647.12 531.715 1646.99 527.351Z" stroke="#1F2223" stroke-width="1.1" stroke-linecap="round" stroke-linejoin="round"/>
<path d="M1598.97 501.311C1598.22 501.89 1597.31 502.234 1596.36 502.298C1595.41 502.361 1594.47 502.142 1593.64 501.668C1592.82 501.194 1592.15 500.486 1591.73 499.634C1591.31 498.782 1591.15 497.824 1591.27 496.882C1591.4 495.939 1591.8 495.054 1592.42 494.338C1593.05 493.622 1593.87 493.108 1594.79 492.861C1595.71 492.613 1596.68 492.644 1597.58 492.948C1598.48 493.252 1599.27 493.817 1599.85 494.57C1600.62 495.582 1600.96 496.858 1600.8 498.121C1600.63 499.383 1599.98 500.529 1598.97 501.311Z" stroke="#1F2223" stroke-width="1.1" stroke-linecap="round" stroke-linejoin="round"/>
<path d="M1263.4 686.644L1273.93 709.268" stroke="#1F2223" stroke-width="1.1" stroke-linecap="round" stroke-linejoin="round"/>
<path d="M1285.52 734.156L1306.76 779.774" stroke="#1F2223" stroke-width="1.1" stroke-linecap="round" stroke-linejoin="round"/>
<path d="M1275.68 680.919L1288.24 707.883" stroke="#1F2223" stroke-width="1.1" stroke-linecap="round" stroke-linejoin="round"/>
<path d="M1303.43 740.573L1313.49 762.181" stroke="#1F2223" stroke-width="1.1" stroke-linecap="round" stroke-linejoin="round"/>
<path d="M1315.07 765.459L1319.04 774.049" stroke="#1F2223" stroke-width="1.1" stroke-linecap="round" stroke-linejoin="round"/>
<path d="M1622.06 544.805C1618 545.085 1604.33 546.577 1606.1 550.205C1607.96 553.979 1626.03 554.647 1630.61 554.635C1648.88 554.588 1662.05 549.563 1647.46 546.144" stroke="#1F2223" stroke-width="1.1" stroke-linecap="round" stroke-linejoin="round"/>
<path d="M1426.01 708.796C1427.83 705.178 1429.47 701.467 1430.91 697.679V711.207" stroke="#1F2223" stroke-width="1.1" stroke-linecap="round" stroke-linejoin="round"/>
<path d="M1446.6 610.762C1447.42 610.227 1448.12 609.521 1448.64 608.693C1449.17 607.864 1449.51 606.932 1449.64 605.96C1449.78 604.926 1449.69 603.874 1449.36 602.882C1449.04 601.891 1448.49 600.986 1447.77 600.235C1447.04 599.485 1446.16 598.908 1445.18 598.548C1444.2 598.188 1443.15 598.055 1442.11 598.157C1442.74 597.299 1443.13 596.296 1443.27 595.241C1443.51 593.437 1443.03 591.609 1441.93 590.156C1440.83 588.704 1439.2 587.744 1437.4 587.485C1436.04 587.295 1434.66 587.521 1433.43 588.131C1433.52 587.845 1433.58 587.551 1433.62 587.254C1433.82 585.763 1433.53 584.246 1432.79 582.935C1432.05 581.624 1430.9 580.591 1429.52 579.995C1428.14 579.398 1426.6 579.27 1425.14 579.63C1423.68 579.991 1422.37 580.82 1421.43 581.991C1421.44 580.329 1420.84 578.72 1419.76 577.463C1418.67 576.206 1417.16 575.387 1415.52 575.157L1415.06 575.065C1413.45 574.843 1411.82 575.194 1410.46 576.055C1409.09 576.917 1408.07 578.234 1407.57 579.774C1407.03 578.344 1406.03 577.133 1404.73 576.335C1403.43 575.536 1401.89 575.195 1400.37 575.364C1398.86 575.533 1397.44 576.204 1396.34 577.27C1395.24 578.337 1394.53 579.737 1394.32 581.252C1394.28 581.45 1394.27 581.651 1394.28 581.852C1393.23 580.838 1391.89 580.177 1390.45 579.959C1389.55 579.832 1388.64 579.883 1387.76 580.109C1386.89 580.335 1386.07 580.732 1385.35 581.277C1384.63 581.822 1384.02 582.504 1383.56 583.284C1383.11 584.065 1382.81 584.927 1382.69 585.823C1382.57 586.784 1382.65 587.76 1382.93 588.688C1382.34 588.407 1381.72 588.22 1381.08 588.134C1379.72 587.945 1378.33 588.168 1377.1 588.775C1375.87 589.381 1374.85 590.343 1374.17 591.536C1373.49 592.729 1373.18 594.099 1373.29 595.468C1373.39 596.837 1373.91 598.143 1374.76 599.217C1373.14 599.021 1371.51 599.406 1370.15 600.304C1368.79 601.201 1367.79 602.553 1367.34 604.118C1366.88 605.683 1367 607.359 1367.66 608.846C1368.33 610.334 1369.5 611.536 1370.97 612.239C1369.35 612.455 1367.87 613.238 1366.77 614.449C1365.68 615.66 1365.05 617.219 1365 618.85C1364.95 620.48 1365.48 622.075 1366.5 623.351C1367.52 624.626 1368.95 625.499 1370.56 625.813C1369.39 626.583 1368.49 627.689 1367.98 628.984C1367.46 630.28 1367.35 631.701 1367.66 633.059C1367.97 634.42 1368.69 635.652 1369.72 636.593C1370.74 637.533 1372.04 638.138 1373.42 638.325C1373.98 638.371 1374.55 638.371 1375.12 638.325C1374.54 639.205 1374.16 640.201 1374.01 641.241C1373.77 643.047 1374.25 644.874 1375.35 646.327C1376.44 647.778 1378.07 648.74 1379.87 648.998C1381.25 649.212 1382.65 648.986 1383.89 648.351C1383.55 649.622 1383.58 650.964 1383.99 652.218C1384.39 653.469 1385.14 654.58 1386.15 655.418C1385.28 651.015 1385.25 646.488 1386.06 642.072C1389.25 618.987 1401.3 630.945 1403.65 639.302C1404.21 640.78 1405.18 640.826 1406.88 638.286C1410.44 633.023 1416.95 640.041 1409.33 647.336C1408.55 648.121 1408.18 653.476 1411.28 659.294C1412.28 660.203 1413.54 660.781 1414.88 660.956C1415.82 661.085 1416.78 661.014 1417.7 660.754C1418.61 660.492 1419.46 660.042 1420.2 659.435C1420.93 658.827 1421.53 658.074 1421.96 657.223C1422.39 656.373 1422.63 655.442 1422.68 654.492C1423.58 655.396 1424.72 656.03 1425.96 656.322C1427.21 656.613 1428.51 656.553 1429.72 656.144C1430.93 655.736 1432 654.997 1432.81 654.013C1433.63 653.027 1434.15 651.834 1434.32 650.568C1434.44 649.625 1434.38 648.667 1434.13 647.751C1435.11 648.193 1436.17 648.402 1437.24 648.361C1438.31 648.32 1439.35 648.031 1440.29 647.516C1441.22 647 1442.03 646.274 1442.63 645.392C1443.24 644.512 1443.63 643.501 1443.78 642.442C1443.91 641.53 1443.86 640.602 1443.62 639.713C1443.38 638.823 1442.97 637.992 1442.4 637.271C1444.02 637.475 1445.65 637.098 1447.02 636.204C1448.39 635.31 1449.39 633.959 1449.85 632.391C1450.31 630.826 1450.2 629.145 1449.54 627.655C1448.87 626.163 1447.7 624.956 1446.23 624.251C1447.73 624.059 1449.12 623.382 1450.19 622.323C1451.27 621.264 1451.97 619.881 1452.18 618.387C1452.42 616.64 1451.97 614.868 1450.93 613.446C1449.89 612.023 1448.33 611.061 1446.6 610.762Z" fill="#1F2223"/>
</svg>
