<svg width="1728" height="1117" viewBox="0 0 1728 1117" fill="none" xmlns="http://www.w3.org/2000/svg">
<rect width="1728" height="1117" rx="24" fill="#F5F2EA"/>
<path d="M89 870H1638.5" stroke="black"/>
<path d="M254.766 742.091C254.766 742.091 224.417 722.487 216.196 706.346C207.974 690.204 230.642 673.315 241.2 694.096C251.932 715.201 254.766 742.091 254.766 742.091Z" stroke="black" stroke-width="1.1" stroke-linecap="round" stroke-linejoin="round"/>
<path d="M255.413 742.478C255.413 742.478 286.796 724.616 295.92 708.93C305.045 693.244 283.333 675.184 271.66 695.298C259.742 715.791 255.413 742.478 255.413 742.478Z" stroke="black" stroke-width="1.1" stroke-linecap="round" stroke-linejoin="round"/>
<path d="M170.305 448.776C173.4 445.881 177.284 443.969 181.466 443.284C185.648 442.596 189.94 443.165 193.799 444.917C197.658 446.669 200.91 449.526 203.145 453.128C205.38 456.727 206.497 460.911 206.355 465.147C206.213 469.382 204.818 473.479 202.347 476.922C199.876 480.366 196.439 482.997 192.472 484.487C188.504 485.976 184.184 486.256 180.058 485.291C175.931 484.327 172.184 482.159 169.289 479.063C165.409 474.91 163.337 469.389 163.528 463.708C163.718 458.029 166.156 452.659 170.305 448.776Z" stroke="black" stroke-width="1.1" stroke-linecap="round" stroke-linejoin="round"/>
<path d="M275.554 303.173C276.718 302.084 278.18 301.365 279.753 301.107C281.326 300.848 282.94 301.062 284.392 301.721C285.844 302.38 287.067 303.455 287.908 304.81C288.749 306.163 289.169 307.737 289.115 309.331C289.062 310.924 288.537 312.465 287.608 313.76C286.678 315.055 285.385 316.045 283.893 316.606C282.4 317.166 280.775 317.271 279.223 316.908C277.671 316.545 276.261 315.73 275.172 314.565C273.712 313.003 272.933 310.927 273.005 308.789C273.076 306.653 273.993 304.633 275.554 303.173Z" stroke="black" stroke-width="1.1" stroke-linecap="round" stroke-linejoin="round"/>
<path d="M624.554 708.173C625.718 707.084 627.18 706.365 628.753 706.107C630.326 705.848 631.94 706.062 633.392 706.721C634.844 707.38 636.067 708.455 636.908 709.81C637.749 711.163 638.169 712.737 638.115 714.331C638.062 715.924 637.537 717.465 636.608 718.76C635.678 720.055 634.385 721.045 632.893 721.606C631.4 722.166 629.775 722.271 628.223 721.908C626.671 721.545 625.261 720.73 624.172 719.565C622.712 718.003 621.933 715.927 622.005 713.789C622.076 711.653 622.993 709.633 624.554 708.173Z" stroke="black" stroke-width="1.1" stroke-linecap="round" stroke-linejoin="round"/>
<path d="M833.554 821.173C834.718 820.084 836.18 819.365 837.753 819.107C839.326 818.848 840.94 819.062 842.392 819.721C843.844 820.38 845.067 821.455 845.908 822.81C846.749 824.163 847.169 825.737 847.115 827.331C847.062 828.924 846.537 830.465 845.608 831.76C844.678 833.055 843.385 834.045 841.893 834.606C840.4 835.166 838.775 835.271 837.223 834.908C835.671 834.545 834.261 833.73 833.172 832.565C831.712 831.003 830.933 828.927 831.005 826.789C831.076 824.653 831.993 822.633 833.554 821.173Z" stroke="black" stroke-width="1.1" stroke-linecap="round" stroke-linejoin="round"/>
<path d="M338.206 469L329.572 498.733" stroke="black" stroke-width="1.1" stroke-linecap="round" stroke-linejoin="round"/>
<path d="M348.733 488.161L319 479.527" stroke="black" stroke-width="1.1" stroke-linecap="round" stroke-linejoin="round"/>
<path d="M904.206 687L895.572 716.733" stroke="black" stroke-width="1.1" stroke-linecap="round" stroke-linejoin="round"/>
<path d="M914.733 706.161L885 697.527" stroke="black" stroke-width="1.1" stroke-linecap="round" stroke-linejoin="round"/>
<path d="M235.206 592L226.572 621.733" stroke="black" stroke-width="1.1" stroke-linecap="round" stroke-linejoin="round"/>
<path d="M245.733 611.161L216 602.527" stroke="black" stroke-width="1.1" stroke-linecap="round" stroke-linejoin="round"/>
<path d="M538.897 799.949C538.897 805.674 537.199 811.271 534.018 816.032C530.837 820.792 526.316 824.503 521.027 826.694C515.737 828.885 509.916 829.458 504.301 828.341C498.685 827.224 493.527 824.467 489.479 820.418C485.43 816.37 482.673 811.212 481.556 805.596C480.439 799.981 481.013 794.16 483.203 788.87C485.395 783.581 489.105 779.06 493.866 775.879C498.626 772.698 504.223 771 509.949 771C517.625 771.005 524.985 774.056 530.414 779.484C535.84 784.912 538.892 792.272 538.897 799.949Z" fill="#CFD181"/>
<path d="M534.259 401.477C517.891 409.372 502.491 419.133 488.366 430.566C487.968 430.814 487.636 431.154 487.399 431.557C487.162 431.961 487.026 432.416 487.003 432.884C486.981 433.351 487.072 433.817 487.269 434.242C487.466 434.667 487.763 435.037 488.135 435.322L498.662 443.679C505.04 435.312 513.689 428.241 522.378 420.936C515.69 429.589 509.832 438.852 504.882 448.604L516.209 457.576C516.574 457.866 517.004 458.064 517.462 458.153C517.92 458.243 518.393 458.221 518.841 458.09C519.288 457.958 519.698 457.722 520.036 457.399C520.373 457.077 520.628 456.678 520.779 456.237L538.599 404.908C538.807 404.332 538.829 403.706 538.661 403.117C538.493 402.529 538.145 402.008 537.665 401.629C537.185 401.249 536.598 401.03 535.986 401.003C535.375 400.976 534.77 401.141 534.259 401.477Z" fill="#FDC886"/>
<rect x="408.5" y="541.5" width="149" height="95" stroke="black"/>
<path d="M409 636.5V697.5L455 636.5" stroke="#FDC886"/>
<path d="M430 606.5L510 606.012" stroke="black"/>
<path d="M430 576H531.5" stroke="black"/>
<path d="M173.952 474.03C174.272 475.593 174.121 477.214 173.519 478.689C172.917 480.164 171.891 481.427 170.571 482.322C169.251 483.213 167.696 483.694 166.102 483.704C164.509 483.711 162.948 483.247 161.618 482.37C160.288 481.493 159.249 480.239 158.631 478.771C158.012 477.301 157.844 475.683 158.146 474.118C158.448 472.553 159.208 471.112 160.328 469.98C161.449 468.847 162.88 468.072 164.441 467.751C165.478 467.533 166.548 467.523 167.589 467.722C168.631 467.921 169.622 468.322 170.506 468.908C171.391 469.491 172.151 470.244 172.742 471.124C173.334 472.004 173.745 472.99 173.952 474.03Z" fill="#FDC886"/>
<rect x="185.5" y="742.5" width="146" height="115" fill="white" stroke="black"/>
<path d="M1195 571.431C1260.35 619.208 1291.7 513.153 1357.18 561.318" stroke="black" stroke-width="1.1" stroke-linecap="round" stroke-linejoin="round"/>
<path d="M1195 571.431C1260.35 619.208 1291.7 513.153 1357.18 561.318" stroke="black" stroke-width="1.1" stroke-linecap="round" stroke-linejoin="round"/>
<path d="M1582.65 409L1576.23 433.883" stroke="black" stroke-width="1.1" stroke-linecap="round" stroke-linejoin="round"/>
<path d="M1591.88 424.695L1567 418.231" stroke="black" stroke-width="1.1" stroke-linecap="round" stroke-linejoin="round"/>
<path d="M1397.65 406L1391.23 430.883" stroke="black" stroke-width="1.1" stroke-linecap="round" stroke-linejoin="round"/>
<path d="M1406.88 421.695L1382 415.231" stroke="black" stroke-width="1.1" stroke-linecap="round" stroke-linejoin="round"/>
<path d="M1220.46 495.194C1220.67 495.444 1220.89 495.671 1221.12 495.919C1223.63 498.422 1227 499.878 1230.55 499.993C1234.09 500.108 1237.55 498.873 1240.22 496.538C1242.89 494.203 1244.57 490.942 1244.93 487.413C1245.29 483.885 1244.29 480.352 1242.15 477.529C1240 474.705 1236.86 472.801 1233.37 472.202C1229.87 471.602 1226.28 472.351 1223.31 474.298C1220.35 476.246 1218.23 479.245 1217.4 482.691C1216.56 486.137 1217.06 489.773 1218.8 492.864" fill="#FDC886"/>
<path d="M1088.46 676.194C1088.67 676.444 1088.89 676.671 1089.12 676.919C1091.63 679.422 1095 680.878 1098.55 680.993C1102.09 681.108 1105.55 679.873 1108.22 677.538C1110.89 675.203 1112.57 671.942 1112.93 668.413C1113.29 664.885 1112.29 661.352 1110.15 658.529C1108 655.705 1104.86 653.801 1101.37 653.202C1097.87 652.602 1094.28 653.351 1091.31 655.298C1088.35 657.246 1086.23 660.245 1085.4 663.691C1084.56 667.137 1085.06 670.773 1086.8 673.864" fill="#FDC886"/>
<path d="M1571.46 280.194C1571.67 280.444 1571.89 280.671 1572.12 280.919C1574.63 283.422 1578 284.878 1581.55 284.993C1585.09 285.108 1588.55 283.873 1591.22 281.538C1593.89 279.203 1595.57 275.942 1595.93 272.413C1596.29 268.885 1595.29 265.352 1593.15 262.529C1591 259.705 1587.86 257.801 1584.37 257.202C1580.87 256.602 1577.28 257.351 1574.31 259.298C1571.35 261.246 1569.23 264.245 1568.4 267.691C1567.56 271.137 1568.06 274.773 1569.8 277.864" fill="#FDC886"/>
<path d="M1529 359.807C1550.42 375.468 1560.7 340.706 1582.16 356.493" stroke="black" stroke-width="1.1" stroke-linecap="round" stroke-linejoin="round"/>
<path d="M132 290.807C153.42 306.468 163.696 271.706 185.158 287.493" stroke="black" stroke-width="1.1" stroke-linecap="round" stroke-linejoin="round"/>
<path d="M1217 680H1400V858H1217V680Z" fill="#FDDE92"/>
<path d="M1352.98 716.254C1353.1 716.396 1353.22 716.526 1353.35 716.668C1354.79 718.098 1356.72 718.93 1358.74 718.996C1360.77 719.061 1362.74 718.356 1364.27 717.022C1365.79 715.687 1366.75 713.824 1366.96 711.808C1367.16 709.791 1366.6 707.773 1365.37 706.159C1364.14 704.546 1362.35 703.458 1360.35 703.115C1358.36 702.773 1356.3 703.201 1354.61 704.313C1352.91 705.426 1351.71 707.14 1351.23 709.109C1350.75 711.078 1351.03 713.156 1352.03 714.922" fill="black"/>
<path d="M1366.98 771.254C1367.1 771.396 1367.22 771.526 1367.35 771.668C1368.79 773.098 1370.72 773.93 1372.74 773.996C1374.77 774.061 1376.74 773.356 1378.27 772.022C1379.79 770.687 1380.75 768.824 1380.96 766.808C1381.16 764.791 1380.6 762.773 1379.37 761.159C1378.14 759.546 1376.35 758.458 1374.35 758.115C1372.36 757.773 1370.3 758.201 1368.61 759.313C1366.91 760.426 1365.71 762.14 1365.23 764.109C1364.75 766.078 1365.03 768.156 1366.03 769.922" fill="black"/>
<path d="M1266.98 749.254C1267.1 749.396 1267.22 749.526 1267.35 749.668C1268.79 751.098 1270.72 751.93 1272.74 751.996C1274.77 752.061 1276.74 751.356 1278.27 750.022C1279.79 748.687 1280.75 746.824 1280.96 744.808C1281.16 742.791 1280.6 740.773 1279.37 739.159C1278.14 737.546 1276.35 736.458 1274.35 736.115C1272.36 735.773 1270.3 736.201 1268.61 737.313C1266.91 738.426 1265.71 740.14 1265.23 742.109C1264.75 744.078 1265.03 746.156 1266.03 747.922" fill="black"/>
<path d="M1324.98 800.254C1325.1 800.396 1325.22 800.526 1325.35 800.668C1326.79 802.098 1328.72 802.93 1330.74 802.996C1332.77 803.061 1334.74 802.356 1336.27 801.022C1337.79 799.687 1338.75 797.824 1338.96 795.808C1339.16 793.791 1338.6 791.773 1337.37 790.159C1336.14 788.546 1334.35 787.458 1332.35 787.115C1330.36 786.773 1328.3 787.201 1326.61 788.313C1324.91 789.426 1323.71 791.14 1323.23 793.109C1322.75 795.078 1323.03 797.156 1324.03 798.922" fill="black"/>
<path d="M1290.98 834.254C1291.1 834.396 1291.22 834.526 1291.35 834.668C1292.79 836.098 1294.72 836.93 1296.74 836.996C1298.77 837.061 1300.74 836.356 1302.27 835.022C1303.79 833.687 1304.75 831.824 1304.96 829.808C1305.16 827.791 1304.6 825.773 1303.37 824.159C1302.14 822.546 1300.35 821.458 1298.35 821.115C1296.36 820.773 1294.3 821.201 1292.61 822.313C1290.91 823.426 1289.71 825.14 1289.23 827.109C1288.75 829.078 1289.03 831.156 1290.03 832.922" fill="black"/>
<path d="M1296.98 711.254C1297.1 711.396 1297.22 711.526 1297.35 711.668C1298.79 713.098 1300.72 713.93 1302.74 713.996C1304.77 714.061 1306.74 713.356 1308.27 712.022C1309.79 710.687 1310.75 708.824 1310.96 706.808C1311.16 704.791 1310.6 702.773 1309.37 701.159C1308.14 699.546 1306.35 698.458 1304.35 698.115C1302.36 697.773 1300.3 698.201 1298.61 699.313C1296.91 700.426 1295.71 702.14 1295.23 704.109C1294.75 706.078 1295.03 708.156 1296.03 709.922" fill="black"/>
<path d="M1286.98 788.254C1287.1 788.396 1287.22 788.526 1287.35 788.668C1288.79 790.098 1290.72 790.93 1292.74 790.996C1294.77 791.061 1296.74 790.356 1298.27 789.022C1299.79 787.687 1300.75 785.824 1300.96 783.808C1301.16 781.791 1300.6 779.773 1299.37 778.159C1298.14 776.546 1296.35 775.458 1294.35 775.115C1292.36 774.773 1290.3 775.201 1288.61 776.313C1286.91 777.426 1285.71 779.14 1285.23 781.109C1284.75 783.078 1285.03 785.156 1286.03 786.922" fill="black"/>
<path d="M1319.98 754.254C1320.1 754.396 1320.22 754.526 1320.35 754.668C1321.79 756.098 1323.72 756.93 1325.74 756.996C1327.77 757.061 1329.74 756.356 1331.27 755.022C1332.79 753.687 1333.75 751.824 1333.96 749.808C1334.16 747.791 1333.6 745.773 1332.37 744.159C1331.14 742.546 1329.35 741.458 1327.35 741.115C1325.36 740.773 1323.3 741.201 1321.61 742.313C1319.91 743.426 1318.71 745.14 1318.23 747.109C1317.75 749.078 1318.03 751.156 1319.03 752.922" fill="black"/>
<path d="M1352.98 831.254C1353.1 831.396 1353.22 831.526 1353.35 831.668C1354.79 833.098 1356.72 833.93 1358.74 833.996C1360.77 834.061 1362.74 833.356 1364.27 832.022C1365.79 830.687 1366.75 828.824 1366.96 826.808C1367.16 824.791 1366.6 822.773 1365.37 821.159C1364.14 819.546 1362.35 818.458 1360.35 818.115C1358.36 817.773 1356.3 818.201 1354.61 819.313C1352.91 820.426 1351.71 822.14 1351.23 824.109C1350.75 826.078 1351.03 828.156 1352.03 829.922" fill="black"/>
<path d="M1252.98 818.254C1253.1 818.396 1253.22 818.526 1253.35 818.668C1254.79 820.098 1256.72 820.93 1258.74 820.996C1260.77 821.061 1262.74 820.356 1264.27 819.022C1265.79 817.687 1266.75 815.824 1266.96 813.808C1267.16 811.791 1266.6 809.773 1265.37 808.159C1264.14 806.546 1262.35 805.458 1260.35 805.115C1258.36 804.773 1256.3 805.201 1254.61 806.313C1252.91 807.426 1251.71 809.14 1251.23 811.109C1250.75 813.078 1251.03 815.156 1252.03 816.922" fill="black"/>
<path d="M1238.98 714.254C1239.1 714.396 1239.22 714.526 1239.35 714.668C1240.79 716.098 1242.72 716.93 1244.74 716.996C1246.77 717.061 1248.74 716.356 1250.27 715.022C1251.79 713.687 1252.75 711.824 1252.96 709.808C1253.16 707.791 1252.6 705.773 1251.37 704.159C1250.14 702.546 1248.35 701.458 1246.35 701.115C1244.36 700.773 1242.3 701.201 1240.61 702.313C1238.91 703.426 1237.71 705.14 1237.23 707.109C1236.75 709.078 1237.03 711.156 1238.03 712.922" fill="black"/>
<path d="M1217 680H1400V858H1217V680Z" fill="#FDDE92"/>
<path d="M1352.98 716.254C1353.1 716.396 1353.22 716.526 1353.35 716.668C1354.79 718.098 1356.72 718.93 1358.74 718.996C1360.77 719.061 1362.74 718.356 1364.27 717.022C1365.79 715.687 1366.75 713.824 1366.96 711.808C1367.16 709.791 1366.6 707.773 1365.37 706.159C1364.14 704.546 1362.35 703.458 1360.35 703.115C1358.36 702.773 1356.3 703.201 1354.61 704.313C1352.91 705.426 1351.71 707.14 1351.23 709.109C1350.75 711.078 1351.03 713.156 1352.03 714.922" fill="black"/>
<path d="M1366.98 771.254C1367.1 771.396 1367.22 771.526 1367.35 771.668C1368.79 773.098 1370.72 773.93 1372.74 773.996C1374.77 774.061 1376.74 773.356 1378.27 772.022C1379.79 770.687 1380.75 768.824 1380.96 766.808C1381.16 764.791 1380.6 762.773 1379.37 761.159C1378.14 759.546 1376.35 758.458 1374.35 758.115C1372.36 757.773 1370.3 758.201 1368.61 759.313C1366.91 760.426 1365.71 762.14 1365.23 764.109C1364.75 766.078 1365.03 768.156 1366.03 769.922" fill="black"/>
<path d="M1266.98 749.254C1267.1 749.396 1267.22 749.526 1267.35 749.668C1268.79 751.098 1270.72 751.93 1272.74 751.996C1274.77 752.061 1276.74 751.356 1278.27 750.022C1279.79 748.687 1280.75 746.824 1280.96 744.808C1281.16 742.791 1280.6 740.773 1279.37 739.159C1278.14 737.546 1276.35 736.458 1274.35 736.115C1272.36 735.773 1270.3 736.201 1268.61 737.313C1266.91 738.426 1265.71 740.14 1265.23 742.109C1264.75 744.078 1265.03 746.156 1266.03 747.922" fill="black"/>
<path d="M1324.98 800.254C1325.1 800.396 1325.22 800.526 1325.35 800.668C1326.79 802.098 1328.72 802.93 1330.74 802.996C1332.77 803.061 1334.74 802.356 1336.27 801.022C1337.79 799.687 1338.75 797.824 1338.96 795.808C1339.16 793.791 1338.6 791.773 1337.37 790.159C1336.14 788.546 1334.35 787.458 1332.35 787.115C1330.36 786.773 1328.3 787.201 1326.61 788.313C1324.91 789.426 1323.71 791.14 1323.23 793.109C1322.75 795.078 1323.03 797.156 1324.03 798.922" fill="black"/>
<path d="M1290.98 834.254C1291.1 834.396 1291.22 834.526 1291.35 834.668C1292.79 836.098 1294.72 836.93 1296.74 836.996C1298.77 837.061 1300.74 836.356 1302.27 835.022C1303.79 833.687 1304.75 831.824 1304.96 829.808C1305.16 827.791 1304.6 825.773 1303.37 824.159C1302.14 822.546 1300.35 821.458 1298.35 821.115C1296.36 820.773 1294.3 821.201 1292.61 822.313C1290.91 823.426 1289.71 825.14 1289.23 827.109C1288.75 829.078 1289.03 831.156 1290.03 832.922" fill="black"/>
<path d="M1296.98 711.254C1297.1 711.396 1297.22 711.526 1297.35 711.668C1298.79 713.098 1300.72 713.93 1302.74 713.996C1304.77 714.061 1306.74 713.356 1308.27 712.022C1309.79 710.687 1310.75 708.824 1310.96 706.808C1311.16 704.791 1310.6 702.773 1309.37 701.159C1308.14 699.546 1306.35 698.458 1304.35 698.115C1302.36 697.773 1300.3 698.201 1298.61 699.313C1296.91 700.426 1295.71 702.14 1295.23 704.109C1294.75 706.078 1295.03 708.156 1296.03 709.922" fill="black"/>
<path d="M1286.98 788.254C1287.1 788.396 1287.22 788.526 1287.35 788.668C1288.79 790.098 1290.72 790.93 1292.74 790.996C1294.77 791.061 1296.74 790.356 1298.27 789.022C1299.79 787.687 1300.75 785.824 1300.96 783.808C1301.16 781.791 1300.6 779.773 1299.37 778.159C1298.14 776.546 1296.35 775.458 1294.35 775.115C1292.36 774.773 1290.3 775.201 1288.61 776.313C1286.91 777.426 1285.71 779.14 1285.23 781.109C1284.75 783.078 1285.03 785.156 1286.03 786.922" fill="black"/>
<path d="M1319.98 754.254C1320.1 754.396 1320.22 754.526 1320.35 754.668C1321.79 756.098 1323.72 756.93 1325.74 756.996C1327.77 757.061 1329.74 756.356 1331.27 755.022C1332.79 753.687 1333.75 751.824 1333.96 749.808C1334.16 747.791 1333.6 745.773 1332.37 744.159C1331.14 742.546 1329.35 741.458 1327.35 741.115C1325.36 740.773 1323.3 741.201 1321.61 742.313C1319.91 743.426 1318.71 745.14 1318.23 747.109C1317.75 749.078 1318.03 751.156 1319.03 752.922" fill="black"/>
<path d="M1352.98 831.254C1353.1 831.396 1353.22 831.526 1353.35 831.668C1354.79 833.098 1356.72 833.93 1358.74 833.996C1360.77 834.061 1362.74 833.356 1364.27 832.022C1365.79 830.687 1366.75 828.824 1366.96 826.808C1367.16 824.791 1366.6 822.773 1365.37 821.159C1364.14 819.546 1362.35 818.458 1360.35 818.115C1358.36 817.773 1356.3 818.201 1354.61 819.313C1352.91 820.426 1351.71 822.14 1351.23 824.109C1350.75 826.078 1351.03 828.156 1352.03 829.922" fill="black"/>
<path d="M1252.98 818.254C1253.1 818.396 1253.22 818.526 1253.35 818.668C1254.79 820.098 1256.72 820.93 1258.74 820.996C1260.77 821.061 1262.74 820.356 1264.27 819.022C1265.79 817.687 1266.75 815.824 1266.96 813.808C1267.16 811.791 1266.6 809.773 1265.37 808.159C1264.14 806.546 1262.35 805.458 1260.35 805.115C1258.36 804.773 1256.3 805.201 1254.61 806.313C1252.91 807.426 1251.71 809.14 1251.23 811.109C1250.75 813.078 1251.03 815.156 1252.03 816.922" fill="black"/>
<path d="M1238.98 714.254C1239.1 714.396 1239.22 714.526 1239.35 714.668C1240.79 716.098 1242.72 716.93 1244.74 716.996C1246.77 717.061 1248.74 716.356 1250.27 715.022C1251.79 713.687 1252.75 711.824 1252.96 709.808C1253.16 707.791 1252.6 705.773 1251.37 704.159C1250.14 702.546 1248.35 701.458 1246.35 701.115C1244.36 700.773 1242.3 701.201 1240.61 702.313C1238.91 703.426 1237.71 705.14 1237.23 707.109C1236.75 709.078 1237.03 711.156 1238.03 712.922" fill="black"/>
<rect x="1438.5" y="594.5" width="153" height="263" fill="white" stroke="black"/>
<rect x="1498" y="593" width="34" height="265" fill="#CFD181"/>
<path d="M1513.77 592.091C1513.77 592.091 1483.42 572.487 1475.2 556.346C1466.97 540.204 1489.64 523.315 1500.2 544.096C1510.93 565.201 1513.77 592.091 1513.77 592.091Z" stroke="black" stroke-width="1.1" stroke-linecap="round" stroke-linejoin="round"/>
<path d="M1514.41 592.478C1514.41 592.478 1545.8 574.616 1554.92 558.93C1564.04 543.244 1542.33 525.184 1530.66 545.298C1518.74 565.791 1514.41 592.478 1514.41 592.478Z" stroke="black" stroke-width="1.1" stroke-linecap="round" stroke-linejoin="round"/>
<rect x="952.5" y="726.5" width="132" height="131" fill="white" stroke="black"/>
<rect x="676" y="669" width="139" height="191" rx="24" fill="#FDDE92"/>
<rect x="676" y="669" width="139" height="191" rx="24" fill="#FDDE92"/>
<rect x="676" y="669" width="139" height="191" rx="24" fill="#FDDE92"/>
<path d="M744.766 669.091C744.766 669.091 714.417 649.487 706.196 633.346C697.974 617.204 720.642 600.315 731.2 621.096C741.932 642.201 744.766 669.091 744.766 669.091Z" stroke="black" stroke-width="1.1" stroke-linecap="round" stroke-linejoin="round"/>
<path d="M745.415 669.478C745.415 669.478 776.798 651.616 785.922 635.93C795.047 620.244 773.335 602.184 761.662 622.298C749.744 642.791 745.415 669.478 745.415 669.478Z" stroke="black" stroke-width="1.1" stroke-linecap="round" stroke-linejoin="round"/>
<rect x="733.5" y="669.5" width="23" height="190" fill="#F5F2EA" stroke="black"/>
</svg>
